<?xml version="1.0" standalone="no"?>
<!DOCTYPE svg PUBLIC "-//W3C//DTD SVG 1.1//EN" "http://www.w3.org/Graphics/SVG/1.1/DTD/svg11.dtd">
<svg xmlns="http://www.w3.org/2000/svg"><metadata>This SVG WebFont was generated by YouWorkForThem.
Copyright Â© 2018 by Connary Fagen. All rights reserved.</metadata><defs><font horiz-adv-x="581" id="ywftsvg"><font-face ascent="800" bbox="-171 -305.18 1047.14 951" cap-height="700" descent="-200" font-family="" font-stretch="normal" font-weight="700" panose-1="0 0 8 0 0 0 0 0 0 0" underline-position="0" underline-thickness="0" unicode-range="U+0020-FEFF" units-per-em="1000" x-height="490"/><missing-glyph d="M406 800v-990h-314v990h314zM330 734h-164v-33h65v-37h-66v-32h165v32h-66v37h66v33zM264 606h-99v-103h165v34h-66v69zM231 572v-35h-33v35h33zM330 476h-165v-32h66v-37h-66v-33h99v70h66v32zM330 417h-33v-65h-132v-34h165v99zM330 296h-99v-55h33v22h33v-46h-99v79 h-33v-112h165v112zM330 125h-165v-112h165v112zM297 92v-46h-99v46h99zM330 -10h-165v-32h70l-70 -47v-33h165v33h-101l69 47h32v32z" horiz-adv-x="495"/><glyph d="M406 800v-990h-314v990h314zM330 734h-164v-33h65v-37h-66v-32h165v32h-66v37h66v33zM264 606h-99v-103h165v34h-66v69zM231 572v-35h-33v35h33zM330 476h-165v-32h66v-37h-66v-33h99v70h66v32zM330 417h-33v-65h-132v-34h165v99zM330 296h-99v-55h33v22h33v-46h-99v79 h-33v-112h165v112zM330 125h-165v-112h165v112zM297 92v-46h-99v46h99zM330 -10h-165v-32h70l-70 -47v-33h165v33h-101l69 47h32v32z" glyph-name=".notdef" horiz-adv-x="495"/><glyph glyph-name="glyph1" horiz-adv-x="0"/><glyph glyph-name="glyph2" horiz-adv-x="333"/><glyph glyph-name="space" horiz-adv-x="195" unicode=" "/><glyph d="M97 215q-15 0 -15 15l-15 455q0 15 15 15h111q15 0 15 -15l-16 -455q0 -15 -15 -15h-80zM137 -13q-34 0 -58 24t-24 58q0 35 24 59.5t58 24.5t58.5 -24.5t24.5 -59.5q0 -34 -24.5 -58t-58.5 -24z" glyph-name="exclam" horiz-adv-x="274" unicode="!"/><glyph d="M147 700q7 0 11.5 -4t3.5 -11l-11 -195q-2 -15 -15 -15h-70q-13 0 -15 15l-11 195q-1 7 3.5 11t11.5 4h92zM309 700q7 0 11.5 -4t3.5 -11l-12 -195q-2 -15 -15 -15h-69q-13 0 -16 15l-11 195q-1 7 3.5 11t11.5 4h93z" glyph-name="quotedbl" horiz-adv-x="363" unicode="&quot;"/><glyph d="M587 487q15 0 12 -15l-10 -40q-3 -15 -15 -15h-89l-36 -134h84q15 0 12 -15l-9 -40q-3 -15 -15 -15h-90l-53 -201q-3 -12 -18 -12h-41q-17 0 -12 17l52 196h-136l-53 -201q-3 -12 -18 -12h-41q-17 0 -12 17l52 196h-84q-15 0 -12 15l9 40q3 15 15 15h90l36 134h-85 q-15 0 -12 15l10 40q3 15 15 15h90l53 201q3 12 18 12h41q17 0 12 -17l-52 -196h136l53 201q3 12 18 12h41q17 0 12 -17l-52 -196h84zM377 283l36 134h-136l-36 -134h136z" glyph-name="numbersign" horiz-adv-x="653" unicode="#"/><glyph d="M306 378q110 -45 109 -141q-1 -60 -39 -97.5t-98 -48.5v-76q0 -15 -15 -15h-61q-15 0 -15 15v76q-84 14 -139 77q-8 12 3 28l35 50q10 15 25 4q62 -48 112 -48q55 0 55 40q0 31 -50 52l-63 25q-107 42 -107 134q0 57 36 95t93 49v88q0 15 15 15h61q15 0 15 -15v-89 q70 -16 115 -71q8 -10 -1 -21l-44 -52q-9 -11 -23 0q-49 41 -88 41q-24 0 -36 -11t-12 -28q0 -30 48 -48z" glyph-name="dollar" horiz-adv-x="460" unicode="$"/><glyph d="M187 433q-58 0 -97.5 39t-39.5 97t39.5 97t97.5 39t97.5 -39t39.5 -97t-39.5 -97t-97.5 -39zM174 8l-52 35q-13 9 -5 21l417 624q8 13 20 4l52 -35q13 -9 5 -21l-417 -624q-8 -13 -20 -4zM187 522q20 0 33 13.5t13 33.5t-13 33.5t-33 13.5t-33 -13.5t-13 -33.5t13 -33.5 t33 -13.5zM541 -5q-58 0 -97.5 39t-39.5 97t39.5 97t97.5 39t97.5 -39t39.5 -97t-39.5 -97t-97.5 -39zM541 84q20 0 33 13.5t13 33.5t-13 33.5t-33 13.5t-33 -13.5t-13 -33.5t13 -33.5t33 -13.5z" glyph-name="percent" horiz-adv-x="728" unicode="%"/><glyph d="M534 179l96 -101q11 -11 0 -22l-59 -61q-11 -11 -22 -1l-86 90q-89 -97 -207 -97q-94 0 -158 53.5t-64 147.5q0 74 36 118t101 83q-72 77 -72 150q0 71 51.5 118t131.5 47q81 0 133 -46.5t52 -118.5q0 -55 -30.5 -93.5t-84.5 -75.5l103 -108l49 75q10 15 22 15h100 q7 0 9.5 -5t-1.5 -11zM282 592q-26 0 -41.5 -16.5t-15.5 -40.5q0 -33 50 -85q65 41 65 85q0 25 -16 41t-42 16zM275 110q57 0 110 56l-132 138q-37 -24 -57 -48t-20 -56q0 -39 28.5 -64.5t70.5 -25.5z" glyph-name="ampersand" horiz-adv-x="665" unicode="&amp;"/><glyph d="M147 700q7 0 11.5 -4t3.5 -11l-11 -195q-2 -15 -15 -15h-70q-13 0 -15 15l-11 195q-1 7 3.5 11t11.5 4h92z" glyph-name="quotesingle" horiz-adv-x="202" unicode="'"/><glyph d="M284 745q8 0 11 -5t-1 -13q-96 -178 -96 -407q0 -241 97 -432q8 -18 -11 -18h-106q-12 0 -18 10q-105 187 -105 440q0 240 105 415q6 10 18 10h106z" glyph-name="parenleft" horiz-adv-x="352" unicode="("/><glyph d="M68 745h106q12 0 18 -10q105 -175 105 -415q0 -253 -105 -440q-6 -10 -18 -10h-106q-19 0 -11 18q97 191 97 432q0 229 -96 407q-4 8 -1 13t11 5z" glyph-name="parenright" horiz-adv-x="352" unicode=")"/><glyph d="M217 568l-5 132h49l-4 -132h-40zM204 526l-129 34l13 50l129 -42zM270 526l-13 42l128 42l14 -50zM162 391l-40 28l82 107l33 -26zM311 391l-74 109l33 26l81 -107z" glyph-name="asterisk" horiz-adv-x="474" unicode="*"/><glyph d="M404 336q15 0 15 -15v-72q0 -15 -15 -15h-111v-111q0 -15 -15 -15h-72q-15 0 -15 15v111h-111q-15 0 -15 15v72q0 15 15 15h111v111q0 15 15 15h72q15 0 15 -15v-111h111z" glyph-name="plus" horiz-adv-x="484" unicode="+"/><glyph d="M42 -129v32q49 -1 79 41q21 29 10 41q-3 3 -9 3q-34 0 -58 24.5t-24 58.5t24.5 58t59.5 24q38 0 65.5 -29t27.5 -83q0 -79 -56.5 -126t-118.5 -44z" glyph-name="comma" horiz-adv-x="257" unicode=","/><glyph d="M365 333q15 0 15 -15v-82q0 -15 -15 -15h-300q-15 0 -15 15v82q0 15 15 15h300z" glyph-name="hyphen" horiz-adv-x="430" unicode="-"/><glyph d="M122 -13q-34 0 -58 24t-24 58q0 35 24 59.5t58 24.5t58.5 -24.5t24.5 -59.5q0 -34 -24.5 -58t-58.5 -24z" glyph-name="period" horiz-adv-x="244" unicode="."/><glyph d="M481 745q18 0 12 -17l-328 -846q-5 -12 -18 -12h-113q-18 0 -12 17l328 846q4 12 18 12h113z" glyph-name="slash" horiz-adv-x="515" unicode="/"/><glyph d="M326 708q57 0 106.5 -21.5t89 -64t62.5 -113.5t23 -162t-23 -161.5t-62.5 -113t-89 -64t-106.5 -21.5t-106.5 21.5t-89 64t-62.5 113t-23 161.5t23 162t62.5 113.5t89 64t106.5 21.5zM326 580q-74 0 -110.5 -63t-36.5 -170t36.5 -169.5t110.5 -62.5t110.5 63t36.5 169 t-36.5 169.5t-110.5 63.5z" glyph-name="zero" horiz-adv-x="652" unicode="0"/><glyph d="M288 700q15 0 15 -15v-670q0 -15 -15 -15h-108q-15 0 -15 15v568h-115q-15 0 -15 15v87q0 15 15 15h238z" glyph-name="one" horiz-adv-x="363" unicode="1"/><glyph d="M467 117q15 0 15 -15v-87q0 -15 -15 -15h-403q-15 0 -15 15v86q0 11 7 19l210 220q1 1 12 12.5t14 15.5t12.5 15.5t13.5 18t11 18.5t10 21t5.5 21t2.5 24q0 42 -28 68.5t-74 26.5q-65 0 -115 -68q-11 -12 -23 0l-61 61q-10 10 -2 22q77 112 212 112q100 0 163 -59.5 t63 -150.5q0 -46 -20 -90t-33.5 -60.5t-40.5 -44.5l-174 -186h253z" glyph-name="two" horiz-adv-x="531" unicode="2"/><glyph d="M249 -13q-72 0 -126 29t-85 77q-7 13 3 22l66 60q11 11 22 -2q48 -59 111 -59q48 0 76 28t28 69q0 39 -27 67.5t-78 28.5h-27q-16 0 -16 16v81q0 15 16 15h26q43 0 65 24t22 57q0 36 -25 58.5t-63 22.5q-62 0 -95 -56q-8 -14 -22 -2l-62 61q-12 10 -3 21q29 46 80.5 74.5 t116.5 28.5q87 0 147 -50.5t60 -133.5q0 -55 -28 -94t-70 -58q53 -21 88 -65.5t35 -111.5q0 -92 -67 -150t-168 -58z" glyph-name="three" horiz-adv-x="519" unicode="3"/><glyph d="M535 249q15 0 15 -15v-84q0 -15 -15 -15h-61v-120q0 -15 -15 -15h-108q-15 0 -15 15v120h-281q-15 0 -15 15v89q0 10 5 19l285 432q6 10 18 10h111q15 0 15 -15v-436h61zM175 249h161v247z" glyph-name="four" horiz-adv-x="590" unicode="4"/><glyph d="M289 466q95 0 157 -67.5t62 -168.5q0 -109 -72.5 -176t-180.5 -67q-73 0 -127.5 31.5t-80.5 74.5q-6 14 7 24l71 54q14 10 25 -4q39 -53 103 -53q54 0 87.5 34.5t33.5 84.5q0 51 -33.5 84t-84.5 33q-54 0 -89 -38q-11 -12 -25 -7l-75 30q-13 6 -10 18l75 334q3 13 16 13 h300q15 0 15 -15v-87q0 -15 -15 -15h-213l-31 -134q40 17 85 17z" glyph-name="five" horiz-adv-x="542" unicode="5"/><glyph d="M308 467q97 -10 159.5 -75t62.5 -164q0 -103 -71.5 -172t-176.5 -69q-104 0 -176 69t-72 171q0 99 86 206l224 280q10 12 21 3l74 -65q12 -11 3 -21zM282 114q50 0 82 33.5t32 84.5q0 50 -32.5 84t-81.5 34t-81.5 -34t-32.5 -84q0 -51 32.5 -84.5t81.5 -33.5z" glyph-name="six" horiz-adv-x="564" unicode="6"/><glyph d="M480 700q8 0 11 -5.5t0 -13.5l-262 -666q-5 -15 -19 -15h-105q-7 0 -11 5t0 13l231 565h-275q-15 0 -15 15v87q0 15 15 15h430z" glyph-name="seven" horiz-adv-x="522" unicode="7"/><glyph d="M289 -13q-99 0 -171.5 60t-72.5 160q0 65 32.5 114.5t85.5 74.5q-72 52 -72 137q0 74 54.5 124.5t143.5 50.5q88 0 143 -50.5t55 -124.5q0 -85 -72 -137q53 -25 85.5 -75t32.5 -114q0 -99 -72.5 -159.5t-171.5 -60.5zM289 445q33 0 54.5 22.5t21.5 54.5q0 33 -21.5 55 t-54.5 22t-54.5 -22t-21.5 -55q0 -32 21.5 -54.5t54.5 -22.5zM289 113q45 0 75.5 27.5t30.5 73.5q0 48 -31.5 76.5t-74.5 28.5t-74.5 -28.5t-31.5 -76.5q0 -46 30 -73.5t76 -27.5z" glyph-name="eight" horiz-adv-x="578" unicode="8"/><glyph d="M282 708q105 0 176.5 -69t71.5 -171q0 -99 -86 -206l-224 -280q-10 -12 -21 -3l-74 65q-12 11 -3 21l134 163q-97 10 -159.5 75t-62.5 164q0 103 72 172t176 69zM282 345q49 0 81.5 34t32.5 84q0 51 -32.5 84.5t-81.5 33.5q-50 0 -82 -33.5t-32 -84.5q0 -50 32.5 -84 t81.5 -34z" glyph-name="nine" horiz-adv-x="564" unicode="9"/><glyph d="M122 336q-34 0 -58 24t-24 59q0 34 24 58.5t58 24.5t58.5 -24.5t24.5 -58.5q0 -35 -24.5 -59t-58.5 -24zM122 -12q-34 0 -58 24t-24 58q0 35 24 59.5t58 24.5t58.5 -24.5t24.5 -59.5q0 -34 -24.5 -58t-58.5 -24z" glyph-name="colon" horiz-adv-x="244" unicode=":"/><glyph d="M123 336q-34 0 -58 24t-24 59q0 34 24 58.5t58 24.5t58.5 -24.5t24.5 -58.5q0 -35 -24 -59t-59 -24zM42 -129v32q49 -1 79 41q21 29 10 41q-3 3 -9 3q-34 0 -58 24.5t-24 58.5t24.5 58t59.5 24q38 0 65.5 -29t27.5 -83q0 -79 -56.5 -126t-118.5 -44z" glyph-name="semicolon" horiz-adv-x="257" unicode=";"/><glyph d="M439 17l-368 179q-11 6 -11 17v72q0 11 11 17l368 179q18 9 18 -9v-90q0 -10 -11 -15l-260 -118l260 -118q11 -5 11 -15v-90q0 -18 -18 -9z" glyph-name="less" horiz-adv-x="517" unicode="&lt;"/><glyph d="M80 315q-15 0 -15 15v72q0 15 15 15h344q15 0 15 -15v-72q0 -15 -15 -15h-344zM80 153q-15 0 -15 15v72q0 15 15 15h344q15 0 15 -15v-72q0 -15 -15 -15h-344z" glyph-name="equal" horiz-adv-x="504" unicode="="/><glyph d="M78 17q-18 -9 -18 9v90q0 10 11 15l260 118l-260 118q-11 5 -11 15v90q0 18 18 9l368 -179q11 -6 11 -17v-72q0 -11 -11 -17z" glyph-name="greater" horiz-adv-x="517" unicode=">"/><glyph d="M181 216q-16 0 -16 15l-1 38q-1 42 11.5 73t31 49.5t37.5 34t32.5 35t13.5 44.5q0 32 -21 50.5t-53 18.5q-62 0 -94 -75q-8 -14 -24 -4l-61 38q-22 12 -17 29q22 65 77.5 105.5t134.5 40.5q81 0 139 -44.5t58 -129.5q0 -41 -14 -72.5t-34.5 -52.5t-41 -40t-36.5 -44 t-18 -56l-3 -38q-2 -15 -15 -15h-86zM225 -13q-34 0 -58.5 24t-24.5 58q0 35 24.5 59.5t58.5 24.5t58 -24.5t24 -59.5q0 -34 -24 -58t-58 -24z" glyph-name="question" horiz-adv-x="464" unicode="?"/><glyph d="M585 503l-18 -186q-6 -54 35 -54q54 0 54 98q0 109 -68.5 175.5t-170.5 66.5q-105 0 -180 -70.5t-75 -183.5q0 -114 74.5 -185.5t180.5 -71.5q73 0 128 34l62 -75q-22 -25 -74 -44.5t-116 -19.5q-149 0 -258.5 100.5t-109.5 261.5q0 81 31 150t82.5 114t117.5 70t137 25 q145 0 248 -93.5t103 -241.5q0 -98 -46 -151.5t-116 -53.5q-66 0 -90 46q-44 -46 -113 -46q-76 0 -123.5 51t-47.5 127t47.5 127t123.5 51q67 0 110 -43l14 22h58zM409 263q35 0 58 23.5t23 59.5t-23 59.5t-58 23.5q-36 0 -58.5 -23.5t-22.5 -59.5t22.5 -59.5t58.5 -23.5z " glyph-name="at" horiz-adv-x="818" unicode="@"/><glyph d="M662 17q3 -7 -1 -12t-12 -5h-118q-13 0 -17 12l-34 103h-264l-34 -103q-4 -12 -17 -12h-118q-19 0 -12 17l234 671q5 12 19 12h121q15 0 19 -12zM257 242h182l-91 278z" glyph-name="A" horiz-adv-x="697" unicode="A"/><glyph d="M84 0q-15 0 -15 15v670q0 15 15 15h236q92 0 142.5 -50.5t50.5 -125.5q0 -53 -26 -91t-66 -56q59 -15 98 -61t39 -118q0 -91 -62.5 -144.5t-183.5 -53.5h-228zM210 422h82q86 0 86 79q0 73 -86 73h-82v-152zM210 126h92q111 0 111 93q0 92 -111 92h-92v-185z" glyph-name="B" horiz-adv-x="592" unicode="B"/><glyph d="M410 -13q-151 0 -256 103.5t-105 256.5t105 257t256 104q144 0 245 -101q10 -10 0 -21l-70 -75q-9 -11 -21 -1q-70 58 -154 58q-92 0 -154 -63t-62 -158t61.5 -157.5t154.5 -62.5q84 0 154 58q12 10 21 -1l70 -75q10 -10 0 -20q-100 -102 -245 -102z" glyph-name="C" horiz-adv-x="704" unicode="C"/><glyph d="M84 0q-15 0 -15 15v670q0 15 15 15h206q170 0 263.5 -98t93.5 -252t-93.5 -252t-263.5 -98h-206zM212 127h76q106 0 160 57t54 166t-54 166t-160 57h-76v-446z" glyph-name="D" horiz-adv-x="691" unicode="D"/><glyph d="M84 0q-15 0 -15 15v670q0 15 15 15h356q15 0 15 -15v-97q0 -15 -15 -15h-228v-155h215q15 0 15 -15v-97q0 -15 -15 -15h-215v-164h228q15 0 15 -15v-97q0 -15 -15 -15h-356z" glyph-name="E" horiz-adv-x="515" unicode="E"/><glyph d="M84 0q-15 0 -15 15v670q0 15 15 15h351q16 0 16 -15v-97q0 -15 -16 -15h-223v-150h210q16 0 16 -15v-97q0 -15 -16 -15h-210v-281q0 -15 -15 -15h-113z" glyph-name="F" horiz-adv-x="505" unicode="F"/><glyph d="M719 398q15 0 15 -15v-65q0 -142 -87.5 -236.5t-234.5 -94.5q-152 0 -257.5 103.5t-105.5 256.5t105 257t255 104q147 0 244 -99q12 -12 0 -26l-67 -71q-10 -12 -22 -2q-70 58 -154 58q-92 0 -154 -63t-62 -158t63 -157.5t160 -62.5q80 0 128.5 41t52.5 103h-181 q-15 0 -15 15v97q0 15 15 15h302z" glyph-name="G" horiz-adv-x="774" unicode="G"/><glyph d="M597 700q15 0 15 -15v-670q0 -15 -15 -15h-113q-15 0 -15 15v266h-257v-266q0 -15 -15 -15h-113q-15 0 -15 15v670q0 15 15 15h113q15 0 15 -15v-278h257v278q0 15 15 15h113z" glyph-name="H" horiz-adv-x="681" unicode="H"/><glyph d="M84 0q-15 0 -15 15v670q0 15 15 15h113q15 0 15 -15v-670q0 -15 -15 -15h-113z" glyph-name="I" horiz-adv-x="282" unicode="I"/><glyph d="M233 -13q-119 0 -183 76q-10 12 -1 25l59 78q9 11 21 1q50 -40 99 -40q107 0 107 133v425q0 15 15 15h113q15 0 15 -15v-419q0 -136 -67 -207.5t-178 -71.5z" glyph-name="J" horiz-adv-x="547" unicode="J"/><glyph d="M635 18q5 -8 2.5 -13t-11.5 -5h-131q-12 0 -18 9l-190 267l-75 -95v-166q0 -15 -15 -15h-113q-15 0 -15 15v670q0 15 15 15h113q15 0 15 -15v-309l232 316q7 8 18 8h137q9 0 11.5 -5.5t-3.5 -12.5l-232 -295z" glyph-name="K" horiz-adv-x="668" unicode="K"/><glyph d="M426 127q15 0 15 -15v-97q0 -15 -15 -15h-342q-15 0 -15 15v670q0 15 15 15h113q15 0 15 -15v-558h214z" glyph-name="L" horiz-adv-x="480" unicode="L"/><glyph d="M798 700q15 0 15 -15v-670q0 -15 -15 -15h-113q-15 0 -15 15v417l-13 -43l-148 -377q-5 -12 -18 -12h-100q-13 0 -18 12l-148 377l-13 44v-418q0 -15 -15 -15h-113q-15 0 -15 15v670q0 15 15 15h131q13 0 17 -10l209 -525l209 525q4 10 17 10h131z" glyph-name="M" horiz-adv-x="882" unicode="M"/><glyph d="M613 700q15 0 15 -15v-670q0 -15 -15 -15h-133q-12 0 -18 10l-250 461v-456q0 -15 -15 -15h-113q-15 0 -15 15v670q0 15 15 15h133q12 0 18 -10l250 -461v456q0 15 15 15h113z" glyph-name="N" horiz-adv-x="697" unicode="N"/><glyph d="M409 -13q-150 0 -255 104.5t-105 255.5q0 152 105 256.5t255 104.5t255 -104.5t105 -256.5q0 -151 -105 -255.5t-255 -104.5zM409 127q92 0 153.5 63t61.5 157q0 95 -61.5 158t-153.5 63t-153.5 -63.5t-61.5 -157.5t61.5 -157t153.5 -63z" glyph-name="O" horiz-adv-x="819" unicode="O"/><glyph d="M84 0q-15 0 -15 15v670q0 15 15 15h211q121 0 183.5 -61.5t62.5 -165.5q0 -105 -62.5 -166.5t-183.5 -61.5h-83v-230q0 -15 -15 -15h-113zM212 372h78q114 0 114 101q0 100 -114 100h-78v-201z" glyph-name="P" horiz-adv-x="580" unicode="P"/><glyph d="M764 84q10 -10 0 -21l-76 -76q-10 -11 -21 0l-59 59q-91 -59 -199 -59q-150 0 -255 104.5t-105 255.5q0 152 105 256.5t255 104.5t255 -104.5t105 -256.5q0 -114 -63 -205zM409 127q51 0 97 22l-78 78q-10 11 0 21l76 76q10 10 21 0l77 -77q22 47 22 100q0 95 -61.5 158 t-153.5 63t-153.5 -63.5t-61.5 -157.5t61.5 -157t153.5 -63z" glyph-name="Q" horiz-adv-x="819" unicode="Q"/><glyph d="M559 18q11 -18 -10 -18h-120q-12 0 -18 10l-148 235h-51v-230q0 -15 -15 -15h-113q-15 0 -15 15v670q0 15 15 15h211q121 0 183.5 -61.5t62.5 -165.5q0 -163 -139 -212zM212 573v-201h78q114 0 114 101q0 100 -114 100h-78z" glyph-name="R" horiz-adv-x="601" unicode="R"/><glyph d="M276 -12q-76 0 -134.5 31t-92.5 78q-8 11 1 21l60 69q10 12 22 1q67 -69 141 -69q45 0 71.5 19t26.5 56q0 32 -19.5 49t-64.5 37l-85 40q-140 64 -140 191q0 92 61.5 144.5t154.5 52.5q119 0 205 -92q10 -10 1 -23l-57 -69q-10 -13 -22 -4q-65 57 -122 57 q-38 0 -60.5 -18t-22.5 -49q0 -29 18 -45t64 -37l72 -33q34 -16 57 -30.5t48.5 -38.5t38 -57t12.5 -75q0 -100 -68.5 -153t-165.5 -53z" glyph-name="S" horiz-adv-x="555" unicode="S"/><glyph d="M216 0q-15 0 -15 15v558h-137q-15 0 -15 15v97q0 15 15 15h416q15 0 15 -15v-97q0 -15 -15 -15h-136v-558q0 -15 -15 -15h-113z" glyph-name="T" horiz-adv-x="545" unicode="T"/><glyph d="M329 -13q-120 0 -192.5 72.5t-72.5 206.5v419q0 15 15 15h113q15 0 15 -15v-416q0 -69 32 -105.5t90 -36.5q57 0 89 37t32 105v416q0 15 15 15h113q15 0 15 -15v-419q0 -134 -72.5 -206.5t-191.5 -72.5z" glyph-name="U" horiz-adv-x="657" unicode="U"/><glyph d="M288 0q-14 0 -19 12l-234 671q-7 17 12 17h118q13 0 17 -12l166 -508l166 508q4 12 17 12h118q8 0 12 -5t1 -12l-234 -671q-4 -12 -19 -12h-121z" glyph-name="V" horiz-adv-x="697" unicode="V"/><glyph d="M1034 700q17 0 12 -17l-200 -671q-3 -12 -19 -12h-119q-16 0 -19 12l-148 509l-149 -509q-3 -12 -19 -12h-119q-16 0 -19 12l-200 671q-5 17 12 17h117q16 0 17 -12l137 -494l151 494q4 12 17 12h109q13 0 17 -12l151 -494l137 494q3 12 17 12h117z" glyph-name="W" horiz-adv-x="1081" unicode="W"/><glyph d="M604 18q10 -18 -10 -18h-123q-12 0 -18 10l-127 216l-128 -216q-6 -10 -18 -10h-123q-20 0 -10 18l201 340l-191 324q-10 18 10 18h121q13 0 19 -10l119 -201l119 201q4 10 18 10h121q20 0 10 -18l-191 -324z" glyph-name="X" horiz-adv-x="651" unicode="X"/><glyph d="M580 700q20 0 10 -18l-205 -359v-308q0 -15 -15 -15h-113q-15 0 -15 15v309l-205 358q-10 18 10 18h118q12 0 18 -10l131 -235l130 235q6 10 18 10h118z" glyph-name="Y" horiz-adv-x="627" unicode="Y"/><glyph d="M59 0q-15 0 -15 15v102q0 9 6 18l300 438h-281q-15 0 -15 15v97q0 15 15 15h411q15 0 15 -15v-102q0 -9 -6 -18l-300 -438h301q15 0 15 -15v-97q0 -15 -15 -15h-431z" glyph-name="Z" horiz-adv-x="555" unicode="Z"/><glyph d="M262 745q15 0 15 -15v-82q0 -15 -15 -15h-64v-651h64q15 0 15 -15v-82q0 -15 -15 -15h-192q-15 0 -15 15v845q0 15 15 15h192z" glyph-name="bracketleft" horiz-adv-x="332" unicode="["/><glyph d="M34 745h113q13 0 18 -12l328 -846q6 -17 -12 -17h-113q-14 0 -18 12l-328 846q-6 17 12 17z" glyph-name="backslash" horiz-adv-x="515" unicode="\"/><glyph d="M70 745h192q15 0 15 -15v-845q0 -15 -15 -15h-192q-15 0 -15 15v82q0 15 15 15h64v651h-64q-15 0 -15 15v82q0 15 15 15z" glyph-name="bracketright" horiz-adv-x="332" unicode="]"/><glyph d="M62 321l179 368q6 11 17 11h72q11 0 17 -11l179 -368q9 -18 -9 -18h-90q-10 0 -15 11l-118 260l-118 -260q-5 -11 -15 -11h-90q-18 0 -9 18z" glyph-name="asciicircum" horiz-adv-x="588" unicode="^"/><glyph d="M545 0q15 0 15 -15v-82q0 -15 -15 -15h-470q-15 0 -15 15v82q0 15 15 15h470z" glyph-name="underscore" horiz-adv-x="620" unicode="_"/><glyph d="M29 700h97q10 0 17 -12l59 -114q9 -17 -12 -17h-96q-10 0 -17 12l-60 114q-9 17 12 17z" glyph-name="grave" horiz-adv-x="219" unicode="`"/><glyph d="M542 490q15 0 15 -15v-460q0 -15 -16 -15h-97q-15 0 -15 15l-2 54q-55 -81 -160 -81q-103 0 -168 73t-65 184q0 110 65.5 183.5t167.5 73.5q107 0 160 -81l2 54q0 15 15 15h98zM296 114q55 0 89.5 36t34.5 95t-34.5 95t-89.5 36t-91 -36.5t-36 -94.5q0 -59 36 -95t91 -36 z" glyph-name="a" horiz-adv-x="617" unicode="a"/><glyph d="M350 502q102 0 167 -73.5t65 -183.5q0 -111 -65 -184t-167 -73q-105 0 -160 81l-2 -54q0 -15 -15 -15h-98q-16 0 -16 15v685q0 15 15 15h109q15 0 15 -15v-268q52 70 152 70zM321 114q55 0 90.5 36t35.5 95q0 58 -35.5 94.5t-90.5 36.5q-56 0 -90.5 -36t-34.5 -95 t34.5 -95t90.5 -36z" glyph-name="b" horiz-adv-x="617" unicode="b"/><glyph d="M293 -12q-111 0 -185 74t-74 185q0 109 73 182t183 73q122 0 190 -88q9 -10 -2 -21l-60 -59q-13 -13 -26 0q-41 41 -96 41q-58 0 -93.5 -36.5t-35.5 -91.5q0 -56 36.5 -94t95.5 -38q53 0 94 41q13 13 26 0l60 -59q11 -11 2 -21q-68 -88 -188 -88z" glyph-name="c" horiz-adv-x="519" unicode="c"/><glyph d="M542 715q15 0 15 -15v-685q0 -15 -16 -15h-97q-15 0 -15 15l-2 54q-55 -81 -160 -81q-103 0 -168 73t-65 184q0 110 65.5 183.5t167.5 73.5q98 0 151 -69v267q0 15 15 15h109zM296 114q55 0 89.5 36t34.5 95t-34.5 95t-89.5 36t-91 -36.5t-36 -94.5q0 -59 36 -95t91 -36z " glyph-name="d" horiz-adv-x="617" unicode="d"/><glyph d="M521 268q0 -38 -11.5 -56.5t-42.5 -18.5h-297q23 -96 144 -96q62 0 114 30q10 6 17 -4l37 -51q8 -11 -5 -22q-62 -62 -174 -62q-119 0 -194 73.5t-75 185.5q0 110 70 182.5t182 72.5q108 0 171.5 -68.5t63.5 -165.5zM287 388q-47 0 -79 -25t-40 -73h230q-6 48 -35.5 73 t-75.5 25z" glyph-name="e" horiz-adv-x="555" unicode="e"/><glyph d="M301 608q-34 0 -47 -15.5t-13 -45.5v-57h98q15 0 15 -15v-77q0 -15 -15 -15h-98v-368q0 -15 -15 -15h-109q-15 0 -15 15v368h-58q-15 0 -15 15v77q0 15 15 15h58v76q0 165 168 165q45 0 75 -15q9 -4 9 -15v-91q0 -9 -13 -7q-27 5 -40 5z" glyph-name="f" horiz-adv-x="384" unicode="f"/><glyph d="M534 490q15 0 15 -15v-448q0 -63 -23 -110t-61.5 -72.5t-82.5 -37.5t-92 -12q-116 0 -191 56q-16 11 -6 29l29 55q8 17 25 8q65 -36 130 -36q59 0 99.5 29t40.5 92v52q-51 -70 -152 -70q-103 0 -167 68.5t-64 177.5t64 177.5t167 68.5t153 -71l2 44q0 15 16 15h98z M292 134q53 0 86.5 33t33.5 89t-33.5 89t-86.5 33q-54 0 -88.5 -33.5t-34.5 -88.5t34.5 -88.5t88.5 -33.5z" glyph-name="g" horiz-adv-x="608" unicode="g"/><glyph d="M345 502q79 0 128 -54t49 -148v-285q0 -15 -16 -15h-107q-15 0 -15 15v254q0 106 -91 106q-44 0 -70 -27.5t-26 -78.5v-254q0 -15 -15 -15h-108q-15 0 -15 15v685q0 15 15 15h108q15 0 15 -15v-284q48 86 148 86z" glyph-name="h" unicode="h"/><glyph d="M130 577q-33 0 -55 22.5t-22 54.5t22 54t55 22t54.5 -22t21.5 -54q0 -33 -21.5 -55t-54.5 -22zM75 0q-15 0 -15 15v460q0 15 15 15h109q15 0 15 -15v-460q0 -15 -15 -15h-109z" glyph-name="i" horiz-adv-x="260" unicode="i"/><glyph d="M138 577q-33 0 -55 22.5t-22 54.5t22 54t55 22t54.5 -22t21.5 -54q0 -33 -21.5 -55t-54.5 -22zM39 -200q-44 0 -75 15q-9 5 -9 15v91q0 9 13 7q27 -5 41 -5q34 0 46.5 15.5t12.5 45.5v491q0 15 15 15h109q15 0 15 -15v-510q0 -165 -168 -165z" glyph-name="j" horiz-adv-x="268" unicode="j"/><glyph d="M534 18q5 -8 2.5 -13t-11.5 -5h-116q-12 0 -18 9l-132 179l-61 -69v-104q0 -15 -15 -15h-109q-15 0 -15 15v685q0 15 15 15h109q15 0 15 -15v-409l161 191q7 8 18 8h123q10 0 12 -5t-4 -13l-166 -189z" glyph-name="k" horiz-adv-x="562" unicode="k"/><glyph d="M74 0q-15 0 -15 15v685q0 15 15 15h109q15 0 15 -15v-685q0 -15 -15 -15h-109z" glyph-name="l" horiz-adv-x="258" unicode="l"/><glyph d="M624 502q79 0 124 -52.5t45 -147.5v-287q0 -15 -15 -15h-108q-15 0 -15 15v257q0 103 -78 103q-39 0 -60.5 -26.5t-21.5 -76.5v-257q0 -15 -15 -15h-107q-16 0 -16 15v257q0 103 -78 103q-39 0 -60.5 -26.5t-21.5 -76.5v-257q0 -15 -15 -15h-108q-15 0 -15 15v460 q0 15 15 15h104q15 0 15 -16l3 -53q47 81 138 81q97 0 139 -87q47 87 151 87z" glyph-name="m" horiz-adv-x="852" unicode="m"/><glyph d="M345 502q79 0 128 -54t49 -148v-285q0 -15 -16 -15h-107q-15 0 -15 15v254q0 106 -91 106q-44 0 -70 -27.5t-26 -78.5v-254q0 -15 -15 -15h-108q-15 0 -15 15v460q0 15 15 15h104q15 0 15 -16l4 -58q48 86 148 86z" glyph-name="n" unicode="n"/><glyph d="M291 -12q-110 0 -183.5 74t-73.5 183t73.5 183t183.5 74t183 -74t73 -183t-73 -183t-183 -74zM291 115q53 0 88 35.5t35 94.5t-35 94.5t-88 35.5q-54 0 -89 -35.5t-35 -94.5t35 -94.5t89 -35.5z" glyph-name="o" unicode="o"/><glyph d="M350 502q102 0 167 -73.5t65 -183.5q0 -111 -65 -184t-167 -73q-100 0 -152 70v-233q0 -15 -15 -15h-109q-15 0 -15 15v650q0 15 15 15h99q15 0 15 -15l2 -54q53 81 160 81zM321 114q55 0 90.5 36t35.5 95q0 58 -35.5 94.5t-90.5 36.5q-56 0 -90.5 -36t-34.5 -95 t34.5 -95t90.5 -36z" glyph-name="p" horiz-adv-x="617" unicode="p"/><glyph d="M542 490q15 0 15 -15v-650q0 -15 -15 -15h-109q-15 0 -15 15v232q-53 -69 -151 -69q-103 0 -168 73t-65 184q0 110 65.5 183.5t167.5 73.5q107 0 160 -81l2 54q0 15 15 15h98zM296 114q55 0 89.5 36t34.5 95t-34.5 95t-89.5 36t-91 -36.5t-36 -94.5q0 -59 36 -95t91 -36z " glyph-name="q" horiz-adv-x="617" unicode="q"/><glyph d="M348 490q9 -6 9 -20v-86q0 -17 -20 -12q-18 5 -36 5q-50 0 -77 -31.5t-27 -85.5v-245q0 -15 -15 -15h-108q-15 0 -15 15v460q0 15 15 15h104q15 0 15 -16l4 -63q30 91 106 91q29 0 45 -12z" glyph-name="r" horiz-adv-x="387" unicode="r"/><glyph d="M226 -12q-114 0 -183 81q-9 11 2 29l35 49q10 15 25 4q63 -48 113 -48q55 0 55 41q0 17 -11.5 28t-39.5 23l-62 25q-107 42 -107 134q0 68 50 108t121 40q101 0 164 -75q8 -10 -1 -21l-44 -53q-9 -11 -23 0q-49 41 -89 41q-23 0 -35 -11t-12 -28q0 -31 47 -48l69 -27 q111 -45 110 -142q-1 -71 -53.5 -110.5t-130.5 -39.5z" glyph-name="s" horiz-adv-x="449" unicode="s"/><glyph d="M322 383h-77v-237q0 -43 43 -43q19 0 31 1q18 2 18 -14v-73q0 -29 -83 -29q-65 0 -106.5 34t-41.5 109v252h-62q-15 0 -15 15v77q0 15 15 15h62v115q0 15 15 15h109q15 0 15 -15v-115h77q15 0 15 -15v-77q0 -15 -15 -15z" glyph-name="t" horiz-adv-x="366" unicode="t"/><glyph d="M507 490q15 0 15 -15v-460q0 -15 -15 -15h-104q-15 0 -15 16l-4 58q-48 -86 -148 -86q-78 0 -127 54t-49 148v285q0 15 15 15h107q16 0 16 -15v-254q0 -106 90 -106q44 0 70 27.5t26 78.5v254q0 15 15 15h108z" glyph-name="u" unicode="u"/><glyph d="M231 0q-13 0 -18 12l-183 461q-6 17 12 17h110q14 0 18 -12l116 -319l115 319q5 12 18 12h110q18 0 12 -17l-183 -461q-4 -12 -18 -12h-109z" glyph-name="v" horiz-adv-x="571" unicode="v"/><glyph d="M202 0q-14 0 -18 12l-154 461q-6 17 12 17h105q13 0 18 -12l98 -318l107 318q4 12 18 12h105q14 0 18 -12l106 -318l98 318q5 12 19 12h104q18 0 12 -17l-153 -461q-5 -12 -18 -12h-111q-14 0 -18 12l-110 318l-109 -318q-5 -12 -18 -12h-111z" glyph-name="w" horiz-adv-x="881" unicode="w"/><glyph d="M42 0q-9 0 -12 5t2 13l148 233l-142 221q-5 8 -2 13t12 5h118q12 0 18 -10l79 -131l78 131q6 10 18 10h118q9 0 12 -5t-2 -13l-141 -221l147 -233q5 -8 2 -13t-12 -5h-118q-12 0 -18 10l-84 143l-85 -143q-6 -10 -18 -10h-118z" glyph-name="x" horiz-adv-x="526" unicode="x"/><glyph d="M160 -190q-20 0 -12 17l71 172l-189 474q-6 17 12 17h110q14 0 18 -12l117 -318l116 318q5 12 18 12h110q18 0 12 -17l-259 -651q-4 -12 -18 -12h-106z" glyph-name="y" horiz-adv-x="573" unicode="y"/><glyph d="M54 0q-15 0 -15 15v86q0 12 7 19l230 258h-219q-15 0 -15 15v82q0 15 15 15h357q15 0 15 -15v-86q0 -12 -7 -19l-229 -258h222q15 0 15 -15v-82q0 -15 -15 -15h-361z" glyph-name="z" horiz-adv-x="470" unicode="z"/><glyph d="M295 745q15 0 15 -15v-82q0 -15 -15 -15h-20q-35 0 -35 -32v-217q0 -9 -6 -18l-36 -49q-8 -11 0 -21l36 -48q6 -9 6 -18v-216q0 -32 35 -32h20q15 0 15 -15v-82q0 -15 -15 -15h-99q-40 0 -69.5 23.5t-29.5 76.5v255q0 11 -5 19l-33 52q-6 11 -1 20l34 54q5 9 5 19v256 q0 53 30 76.5t69 23.5h99z" glyph-name="braceleft" horiz-adv-x="365" unicode="{"/><glyph d="M84 -190q-15 0 -15 15v960q0 15 15 15h113q15 0 15 -15v-960q0 -15 -15 -15h-113z" glyph-name="bar" horiz-adv-x="282" unicode="|"/><glyph d="M70 745h99q39 0 69 -23.5t30 -76.5v-256q0 -10 5 -19l34 -54q5 -9 -1 -20l-33 -52q-5 -8 -5 -19v-255q0 -53 -29.5 -76.5t-69.5 -23.5h-99q-15 0 -15 15v82q0 15 15 15h20q35 0 35 32v216q0 9 6 18l36 48q7 10 0 21l-36 49q-6 9 -6 18v217q0 32 -35 32h-20q-15 0 -15 15 v82q0 15 15 15z" glyph-name="braceright" horiz-adv-x="365" unicode="}"/><glyph d="M351 204q-38 0 -71.5 19.5t-61 38.5t-50.5 19q-39 0 -51 -31q-5 -9 -12 -9h-34q-11 0 -11 11q0 55 32.5 85t82.5 30q38 0 71 -19.5t60.5 -38.5t51.5 -19q18 0 32 9t19 21q5 9 12 9h33q11 0 11 -10q1 -56 -31.5 -85.5t-82.5 -29.5z" glyph-name="asciitilde" horiz-adv-x="525" unicode="~"/><glyph glyph-name="uni00A0" horiz-adv-x="195" unicode=" "/><glyph d="M137 533q34 0 58.5 -24t24.5 -58q0 -35 -24.5 -59.5t-58.5 -24.5t-58 24.5t-24 59.5q0 34 24 58t58 24zM97 305h80q15 0 15 -15l16 -455q0 -15 -15 -15h-111q-15 0 -15 15l15 455q0 15 15 15z" glyph-name="exclamdown" horiz-adv-x="274" unicode="¡"/><glyph d="M439 219q8 -10 1 -19q-56 -69 -146 -78v-107q0 -15 -15 -15h-22q-15 0 -15 15v107q-92 10 -150 74.5t-58 155.5q0 90 58.5 153.5t149.5 72.5v107q0 15 15 15h22q15 0 15 -15v-107q93 -10 145 -77q7 -10 -1 -19l-55 -52q-13 -13 -24 0q-30 29 -65 34v-229q35 5 66 36 q11 11 24 0zM155 352q0 -41 23.5 -72.5t63.5 -41.5v225q-40 -9 -63.5 -39.5t-23.5 -71.5z" glyph-name="cent" horiz-adv-x="478" unicode="¢"/><glyph d="M501 596q9 -13 -3 -24l-62 -59q-12 -12 -22 0q-50 68 -113 68q-44 0 -72 -26t-28 -69q0 -22 7 -41t24 -47t21 -37h148q15 0 15 -15v-62q0 -15 -15 -15h-125q-1 -91 -71 -152h265q15 0 15 -15v-87q0 -15 -15 -15h-410q-15 0 -15 15v102q102 51 102 141q0 7 -1 11h-85 q-16 0 -16 15v62q0 16 16 16h49q-44 82 -44 139q0 89 63 148t162 59q131 0 210 -112z" glyph-name="sterling" horiz-adv-x="548" unicode="£"/><glyph d="M523 476q0 -60 -29 -110l48 -48l-72 -71l-45 44q-56 -39 -126 -39q-68 0 -124 37l-43 -42l-72 71l45 46q-30 52 -30 112t30 112l-45 46l72 71l43 -42q56 37 124 37q70 0 126 -39l45 44l72 -71l-48 -48q29 -50 29 -110zM299 344q62 0 96.5 41.5t34.5 90.5q0 48 -34.5 90 t-96.5 42q-61 0 -96 -42t-35 -90t35 -90t96 -42z" glyph-name="currency" horiz-adv-x="602" unicode="¤"/><glyph d="M580 700q20 0 10 -18l-204 -358h80q15 0 15 -16v-61q0 -15 -15 -15h-81v-31h81q15 0 15 -15v-61q0 -15 -15 -15h-81v-95q0 -15 -15 -15h-113q-15 0 -15 15v95h-80q-16 0 -16 15v61q0 15 16 15h80v31h-80q-16 0 -16 15v61q0 16 16 16h80l-205 358q-10 18 10 18h118 q12 0 18 -10l131 -235l130 235q6 10 18 10h118z" glyph-name="yen" horiz-adv-x="627" unicode="¥"/><glyph d="M84 490q-15 0 -15 15v280q0 15 15 15h113q15 0 15 -15v-280q0 -15 -15 -15h-113zM84 -190q-15 0 -15 15v280q0 15 15 15h113q15 0 15 -15v-280q0 -15 -15 -15h-113z" glyph-name="brokenbar" horiz-adv-x="282" unicode="¦"/><glyph d="M378 242q38 -36 38 -97q0 -73 -52 -112t-129 -39q-119 0 -187 80q-7 10 0 21l41 60q7 10 22 0q69 -46 115 -46q55 0 55 37q0 19 -12 29.5t-42 22.5l-60 24q-108 43 -108 135q0 68 51 109q-42 37 -42 96q0 68 50 108t122 40q101 0 166 -74q7 -9 -1 -21l-45 -53 q-9 -11 -23 0q-51 39 -90 39q-24 0 -36.5 -10.5t-12.5 -26.5q0 -28 49 -47l69 -27q51 -21 80 -52t29 -88q0 -67 -47 -108zM188 359q0 -26 47 -46q25 0 40.5 10t15.5 28q0 27 -34 43q-12 2 -19 2q-24 0 -37 -10.5t-13 -26.5z" glyph-name="section" horiz-adv-x="470" unicode="§"/><glyph d="M84 566q-28 0 -48.5 20t-20.5 50q0 29 20.5 49t48.5 20q29 0 49 -20t20 -49q0 -30 -20 -50t-49 -20zM304 566q-29 0 -49 20t-20 50q0 29 20 49t49 20t49 -20t20 -49q0 -30 -20 -50t-49 -20z" glyph-name="dieresis" horiz-adv-x="388" unicode="¨"/><glyph d="M334 136q-118 0 -201.5 83t-83.5 203t83.5 203t201.5 83t201.5 -83t83.5 -203t-83.5 -203t-201.5 -83zM334 216q86 0 144.5 59.5t58.5 146.5t-58.5 146.5t-144.5 59.5q-85 0 -143.5 -59.5t-58.5 -146.5t58.5 -146.5t143.5 -59.5zM341 280q-60 0 -101 41t-41 101t41 101 t101 41q68 0 105 -48q5 -7 0 -12l-34 -32q-6 -6 -13 0q-25 22 -54 22q-31 0 -51 -20.5t-20 -51.5t20 -51.5t51 -20.5q29 0 54 22q7 6 13 0l34 -32q5 -5 0 -12q-37 -48 -105 -48z" glyph-name="copyright" horiz-adv-x="669" unicode="©"/><glyph d="M313 700h86v-359h-86l-8 38q-46 -38 -105 -38q-72 0 -119 52t-47 130t47 130t119 52q59 0 105 -38zM217 438q37 0 61.5 24t24.5 61t-24.5 61.5t-61.5 24.5t-61 -24.5t-24 -61.5t24 -61t61 -24z" glyph-name="ordfeminine" horiz-adv-x="434" unicode="ª"/><glyph d="M201 128q0 -9 -6 -10.5t-12 3.5l-130 93q-8 7 -8 17v84q0 10 8 17l130 93q6 5 12 3.5t6 -10.5v-73q0 -13 -8 -18l-84 -54l84 -55q8 -5 8 -18v-72zM388 128q0 -9 -6.5 -10.5t-12.5 3.5l-130 93q-8 7 -8 17v84q0 10 8 17l130 93q6 5 12.5 3.5t6.5 -10.5v-73q0 -13 -8 -18 l-85 -54l85 -55q8 -5 8 -18v-72z" glyph-name="guillemotleft" horiz-adv-x="432" unicode="«"/><glyph d="M366 127q-15 0 -15 15v58h-276q-15 0 -15 15v82q0 16 15 16h397q15 0 15 -16v-155q0 -15 -15 -15h-106z" glyph-name="logicalnot" horiz-adv-x="547" unicode="¬"/><glyph d="M365 333q15 0 15 -15v-82q0 -15 -15 -15h-300q-15 0 -15 15v82q0 15 15 15h300z" glyph-name="uni00AD" horiz-adv-x="430" unicode="­"/><glyph d="M334 708q118 0 201.5 -83t83.5 -203t-83.5 -203t-201.5 -83t-201.5 83t-83.5 203t83.5 203t201.5 83zM334 216q85 0 144 59.5t59 146.5t-59 146.5t-144 59.5t-143.5 -59.5t-58.5 -146.5t58.5 -146.5t143.5 -59.5zM402 377l64 -72q3 -4 1.5 -7t-5.5 -3h-63q-6 0 -10 4 l-63 73h-28v-69q0 -8 -7 -8h-55q-8 0 -8 8v240q0 8 8 8h119q112 0 112 -89q0 -67 -65 -85zM356 494h-58v-65h58q38 0 38 33q0 32 -38 32z" glyph-name="registered" horiz-adv-x="669" unicode="®"/><glyph d="M333 700q16 0 16 -15v-77q0 -15 -16 -15h-303q-15 0 -15 15v77q0 15 15 15h303z" glyph-name="macron" horiz-adv-x="364" unicode="¯"/><glyph d="M208 422q-62 0 -105 43t-43 105q0 61 43 103.5t105 42.5t105 -42.5t43 -103.5q0 -62 -43 -105t-105 -43zM208 505q30 0 46.5 20.5t16.5 44.5q0 23 -16.5 43t-46.5 20t-46.5 -20t-16.5 -43q0 -24 16.5 -44.5t46.5 -20.5z" glyph-name="degree" horiz-adv-x="416" unicode="°"/><glyph d="M404 367q15 0 15 -15v-72q0 -15 -15 -15h-111v-111q0 -15 -15 -15h-72q-15 0 -15 15v111h-111q-15 0 -15 15v72q0 15 15 15h111v111q0 15 15 15h72q15 0 15 -15v-111h111zM404 86q15 0 15 -15v-56q0 -15 -15 -15h-324q-15 0 -15 15v56q0 15 15 15h324z" glyph-name="plusminus" horiz-adv-x="484" unicode="±"/><glyph d="M129 704q43 0 68 -22t25 -54q0 -20 -11 -38.5t-22.5 -29.5t-44.5 -40l-35 -30h109v-50h-176v50l68 60q5 4 13.5 11.5t12 11t9.5 9t8.5 8.5t6 8t5 8.5t2.5 8t1 9.5q0 14 -11 23.5t-28 9.5q-15 0 -25.5 -10t-10.5 -26v-13h-53v14q0 38 23.5 60t65.5 22z" glyph-name="uni00B2" horiz-adv-x="262" unicode="²"/><glyph d="M136 703q42 0 67.5 -19t25.5 -51q0 -38 -38 -54q49 -18 49 -63q0 -38 -28 -59t-75 -21q-97 0 -97 90h52q0 -44 46 -44q21 0 34.5 9.5t13.5 26.5q0 20 -16 27.5t-51 7.5v39q57 0 57 35q0 13 -11 21.5t-30 8.5q-40 0 -40 -42h-52q-1 43 23.5 65.5t69.5 22.5z" glyph-name="uni00B3" horiz-adv-x="280" unicode="³"/><glyph d="M190 700q21 0 12 -17l-60 -114q-7 -12 -18 -12h-95q-21 0 -12 17l59 114q7 12 17 12h97z" glyph-name="acute" horiz-adv-x="219" unicode="´"/><glyph d="M507 490q15 0 15 -15v-460q0 -15 -15 -15h-104q-15 0 -15 16l-4 58q-48 -86 -148 -86q-23 0 -39 4v-167q0 -15 -15 -15h-108q-15 0 -15 15v548h1v102q0 15 15 15h107q16 0 16 -15v-254q0 -106 90 -106q44 0 70 27.5t26 78.5v254q0 15 15 15h108z" glyph-name="uni00B5" unicode="µ"/><glyph d="M506 0h-113q-15 0 -15 15v230h-83q-121 0 -183.5 61.5t-62.5 166.5q0 104 62.5 165.5t183.5 61.5h211q15 0 15 -15v-670q0 -15 -15 -15zM605 0q-15 0 -15 15v670q0 15 15 15h113q15 0 15 -15v-670q0 -15 -15 -15h-113zM378 372v201h-78q-114 0 -114 -100q0 -101 114 -101 h78z" glyph-name="paragraph" horiz-adv-x="803" unicode="¶"/><glyph d="M132 205q-34 0 -58 24t-24 58t24 58.5t58 24.5t58.5 -24t24.5 -59q0 -34 -24 -58t-59 -24z" glyph-name="periodcentered" horiz-adv-x="265" unicode="·"/><glyph d="M112 -33q36 -3 62.5 -25t26.5 -58q0 -42 -26.5 -68t-65.5 -33t-85 0q-9 1 -9 11v48q0 10 11 10q83 -9 83 26q0 14 -23.5 20.5t-58.5 -4.5q-12 -5 -12 7v50q0 9 5 12l39 37h90z" glyph-name="cedilla" horiz-adv-x="216" unicode="¸"/><glyph d="M116 701v-261h-53v210h-28v51h81z" glyph-name="uni00B9" horiz-adv-x="175" unicode="¹"/><glyph d="M217 341q-78 0 -130.5 52t-52.5 130t52.5 130t130.5 52t130.5 -52t52.5 -130t-52.5 -130t-130.5 -52zM217 438q37 0 61.5 24t24.5 61t-24.5 61.5t-61.5 24.5t-61 -24.5t-24 -61.5t24 -61t61 -24z" glyph-name="ordmasculine" horiz-adv-x="435" unicode="º"/><glyph d="M45 128v72q0 13 8 18l84 55l-84 54q-8 5 -8 18v73q0 9 6 10.5t12 -3.5l130 -93q8 -7 8 -17v-84q0 -10 -8 -17l-130 -93q-6 -5 -12 -3.5t-6 10.5zM231 128v72q0 13 8 18l84 55l-84 54q-8 5 -8 18v73q0 9 6 10.5t13 -3.5l130 -93q8 -7 8 -17v-84q0 -10 -8 -17l-130 -93 q-7 -5 -13 -3.5t-6 10.5z" glyph-name="guillemotright" horiz-adv-x="432" unicode="»"/><glyph d="M121 701v-261h-53v210h-28v51h81zM524 700l-413 -700h-59l413 700h59zM536 261v-156h27v-51h-27v-54h-53v54h-138l138 207h53zM483 187l-53 -82h53v82z" glyph-name="onequarter" horiz-adv-x="608" unicode="¼"/><glyph d="M121 701v-261h-53v210h-28v51h81zM524 700l-413 -700h-59l413 700h59zM451 264q43 0 67.5 -22t24.5 -54q0 -28 -16.5 -48.5t-61.5 -59.5l-34 -30h109v-50h-176v50l68 60q5 4 13.5 11.5t12 11t9.5 9t8.5 8.5t6 8t5 8.5t2.5 8t1 9.5q0 14 -11 23.5t-28 9.5q-16 0 -26 -10 t-10 -26v-13h-53v14q0 38 23.5 60t65.5 22z" glyph-name="onehalf" horiz-adv-x="588" unicode="½"/><glyph d="M136 703q42 0 67.5 -19t25.5 -51q0 -38 -38 -54q49 -18 49 -63q0 -38 -28 -59t-75 -21q-97 0 -97 90h52q0 -44 46 -44q21 0 34.5 9.5t13.5 26.5q0 20 -16 27.5t-51 7.5v39q57 0 57 35q0 13 -11 21.5t-30 8.5q-40 0 -40 -42h-52q-1 43 23.5 65.5t69.5 22.5zM555 700 l-413 -700h-59l413 700h59zM557 261v-156h27v-51h-27v-54h-53v54h-138l138 207h53zM504 187l-53 -82h53v82z" glyph-name="threequarters" horiz-adv-x="624" unicode="¾"/><glyph d="M224 533q34 0 58 -24t24 -58q0 -35 -24 -59.5t-58 -24.5t-58 24.5t-24 59.5q0 34 24 58t58 24zM268 304q15 0 15 -15l1 -38q1 -42 -11.5 -73t-31 -49.5t-37.5 -34t-32.5 -35t-13.5 -44.5q0 -32 21 -50.5t54 -18.5q61 0 93 75q8 14 24 4l62 -38q21 -12 16 -29 q-21 -65 -76.5 -105.5t-135.5 -40.5q-81 0 -139 44.5t-58 129.5q0 41 14 72.5t34.5 52.5t41 40t36.5 44t19 56l3 38q2 15 15 15h86z" glyph-name="questiondown" horiz-adv-x="464" unicode="¿"/><glyph d="M281 779l-60 114q-9 17 12 17h97q10 0 17 -12l59 -114q9 -17 -12 -17h-96q-10 0 -17 12zM662 17q3 -7 -1 -12t-12 -5h-118q-13 0 -17 12l-34 103h-264l-34 -103q-4 -12 -17 -12h-118q-19 0 -12 17l234 671q5 12 19 12h121q15 0 19 -12zM257 242h182l-91 278z" glyph-name="Agrave" horiz-adv-x="697" unicode="À"/><glyph d="M304 767q-21 0 -12 17l59 114q7 12 17 12h97q21 0 12 -17l-60 -114q-7 -12 -17 -12h-96zM662 17q3 -7 -1 -12t-12 -5h-118q-13 0 -17 12l-34 103h-264l-34 -103q-4 -12 -17 -12h-118q-19 0 -12 17l234 671q5 12 19 12h121q15 0 19 -12zM257 242h182l-91 278z" glyph-name="Aacute" horiz-adv-x="697" unicode="Á"/><glyph d="M203 775q-9 0 -11 6t4 12l91 109q7 8 17 8h88q10 0 17 -8l91 -109q4 -4 4.5 -8t-2.5 -7t-9 -3h-72q-11 0 -18 8l-55 66l-54 -66q-7 -8 -18 -8h-73zM662 17q3 -7 -1 -12t-12 -5h-118q-13 0 -17 12l-34 103h-264l-34 -103q-4 -12 -17 -12h-118q-19 0 -12 17l234 671 q5 12 19 12h121q15 0 19 -12zM257 242h182l-91 278z" glyph-name="Acircumflex" horiz-adv-x="697" unicode="Â"/><glyph d="M174 818q-10 0 -10 13q4 50 33 75.5t74 25.5q43 0 91.5 -35t72.5 -35q34 0 46 28q3 8 11 8h31q10 0 10 -10q-3 -51 -32.5 -78t-74.5 -27q-27 0 -51.5 11t-40 24.5t-35 24.5t-37.5 11q-34 0 -46 -28q-3 -8 -11 -8h-31zM662 17q3 -7 -1 -12t-12 -5h-118q-13 0 -17 12 l-34 103h-264l-34 -103q-4 -12 -17 -12h-118q-19 0 -12 17l234 671q5 12 19 12h121q15 0 19 -12zM257 242h182l-91 278z" glyph-name="Atilde" horiz-adv-x="697" unicode="Ã"/><glyph d="M238 776q-28 0 -48.5 20t-20.5 50q0 29 20.5 49t48.5 20q29 0 49 -20t20 -49q0 -30 -20 -50t-49 -20zM458 776q-29 0 -49 20t-20 50q0 29 20 49t49 20t49 -20t20 -49q0 -30 -20 -50t-49 -20zM662 17q3 -7 -1 -12t-12 -5h-118q-13 0 -17 12l-34 103h-264l-34 -103 q-4 -12 -17 -12h-118q-19 0 -12 17l234 671q5 12 19 12h121q15 0 19 -12zM257 242h182l-91 278z" glyph-name="Adieresis" horiz-adv-x="697" unicode="Ä"/><glyph d="M348 749q-46 0 -74.5 28.5t-28.5 71.5q0 42 29 72t74 30t74 -30t29 -72q0 -43 -28.5 -71.5t-74.5 -28.5zM348 874q-10 0 -17 -7t-7 -17t7 -17t17 -7t17 7t7 17t-7 17t-17 7zM662 17q3 -7 -1 -12t-12 -5h-118q-13 0 -17 12l-34 103h-264l-34 -103q-4 -12 -17 -12h-118 q-19 0 -12 17l234 671q5 12 19 12h121q15 0 19 -12zM257 242h182l-91 278z" glyph-name="Aring" horiz-adv-x="697" unicode="Å"/><glyph d="M785 573h-228v-155h215q15 0 15 -15v-97q0 -15 -15 -15h-215v-164h228q15 0 15 -15v-97q0 -15 -15 -15h-356q-15 0 -15 15v127h-178l-53 -130q-5 -12 -17 -12h-119q-19 0 -12 17l296 671q5 12 17 12h437q15 0 15 -15v-97q0 -15 -15 -15zM286 263h128v315z" glyph-name="AE" horiz-adv-x="859" unicode="Æ"/><glyph d="M585 184l70 -75q10 -10 0 -20q-89 -91 -217 -101l-24 -21q36 -3 62.5 -25t26.5 -58q0 -42 -26.5 -68t-65.5 -33t-85 0q-9 1 -9 11v48q0 10 11 10q83 -9 83 26q0 14 -23.5 20.5t-58.5 -4.5q-12 -5 -12 7v50q0 9 5 12l30 28q-131 21 -217 120t-86 236q0 153 105 257 t256 104q144 0 245 -101q10 -10 0 -21l-70 -75q-9 -11 -21 -1q-70 58 -154 58q-92 0 -154 -63t-62 -158t61.5 -157.5t154.5 -62.5q84 0 154 58q12 10 21 -1z" glyph-name="Ccedilla" horiz-adv-x="704" unicode="Ç"/><glyph d="M158 910h97q10 0 17 -12l59 -114q9 -17 -12 -17h-96q-10 0 -17 12l-60 114q-9 17 12 17zM84 0q-15 0 -15 15v670q0 15 15 15h356q15 0 15 -15v-97q0 -15 -15 -15h-228v-155h215q15 0 15 -15v-97q0 -15 -15 -15h-215v-164h228q15 0 15 -15v-97q0 -15 -15 -15h-356z" glyph-name="Egrave" horiz-adv-x="515" unicode="È"/><glyph d="M390 910q21 0 12 -17l-60 -114q-7 -12 -17 -12h-96q-21 0 -12 17l59 114q7 12 17 12h97zM84 0q-15 0 -15 15v670q0 15 15 15h356q15 0 15 -15v-97q0 -15 -15 -15h-228v-155h215q15 0 15 -15v-97q0 -15 -15 -15h-215v-164h228q15 0 15 -15v-97q0 -15 -15 -15h-356z" glyph-name="Eacute" horiz-adv-x="515" unicode="É"/><glyph d="M128 775q-9 0 -11 6t4 12l91 109q7 8 17 8h88q10 0 17 -8l91 -109q4 -4 4.5 -8t-2.5 -7t-9 -3h-72q-11 0 -18 8l-55 66l-54 -66q-7 -8 -18 -8h-73zM84 0q-15 0 -15 15v670q0 15 15 15h356q15 0 15 -15v-97q0 -15 -15 -15h-228v-155h215q15 0 15 -15v-97q0 -15 -15 -15 h-215v-164h228q15 0 15 -15v-97q0 -15 -15 -15h-356z" glyph-name="Ecircumflex" horiz-adv-x="515" unicode="Ê"/><glyph d="M163 776q-28 0 -48.5 20t-20.5 50q0 29 20.5 49t48.5 20q29 0 49 -20t20 -49q0 -30 -20 -50t-49 -20zM383 776q-29 0 -49 20t-20 50q0 29 20 49t49 20t49 -20t20 -49q0 -30 -20 -50t-49 -20zM84 0q-15 0 -15 15v670q0 15 15 15h356q15 0 15 -15v-97q0 -15 -15 -15h-228 v-155h215q15 0 15 -15v-97q0 -15 -15 -15h-215v-164h228q15 0 15 -15v-97q0 -15 -15 -15h-356z" glyph-name="Edieresis" horiz-adv-x="515" unicode="Ë"/><glyph d="M25 910h97q10 0 17 -12l59 -114q9 -17 -12 -17h-96q-10 0 -17 12l-60 114q-9 17 12 17zM84 0q-15 0 -15 15v670q0 15 15 15h113q15 0 15 -15v-670q0 -15 -15 -15h-113z" glyph-name="Igrave" horiz-adv-x="282" unicode="Ì"/><glyph d="M257 910q21 0 12 -17l-60 -114q-7 -12 -17 -12h-96q-21 0 -12 17l59 114q7 12 17 12h97zM84 0q-15 0 -15 15v670q0 15 15 15h113q15 0 15 -15v-670q0 -15 -15 -15h-113z" glyph-name="Iacute" horiz-adv-x="282" unicode="Í"/><glyph d="M-4 775q-9 0 -11 6t4 12l91 109q7 8 17 8h88q10 0 17 -8l91 -109q4 -4 4.5 -8t-2.5 -7t-9 -3h-72q-11 0 -18 8l-55 66l-54 -66q-7 -8 -18 -8h-73zM84 0q-15 0 -15 15v670q0 15 15 15h113q15 0 15 -15v-670q0 -15 -15 -15h-113z" glyph-name="Icircumflex" horiz-adv-x="282" unicode="Î"/><glyph d="M31 776q-28 0 -48.5 20t-20.5 50q0 29 20.5 49t48.5 20q29 0 49 -20t20 -49q0 -30 -20 -50t-49 -20zM251 776q-29 0 -49 20t-20 50q0 29 20 49t49 20t49 -20t20 -49q0 -30 -20 -50t-49 -20zM84 0q-15 0 -15 15v670q0 15 15 15h113q15 0 15 -15v-670q0 -15 -15 -15h-113z " glyph-name="Idieresis" horiz-adv-x="282" unicode="Ï"/><glyph d="M298 700q170 0 263.5 -98t93.5 -252t-93.5 -252t-263.5 -98h-206q-15 0 -15 15v276h-37q-15 0 -15 15v77q0 15 15 15h37v287q0 15 15 15h206zM296 127q106 0 160 57t54 166t-54 166t-160 57h-76v-175h123q16 0 16 -15v-77q0 -15 -16 -15h-123v-164h76z" glyph-name="Eth" horiz-adv-x="699" unicode="Ð"/><glyph d="M174 818q-10 0 -10 13q4 50 33 75.5t74 25.5q43 0 91.5 -35t72.5 -35q34 0 46 28q3 8 11 8h31q10 0 10 -10q-3 -51 -32.5 -78t-74.5 -27q-27 0 -51.5 11t-40 24.5t-35 24.5t-37.5 11q-34 0 -46 -28q-3 -8 -11 -8h-31zM613 700q15 0 15 -15v-670q0 -15 -15 -15h-133 q-12 0 -18 10l-250 461v-456q0 -15 -15 -15h-113q-15 0 -15 15v670q0 15 15 15h133q12 0 18 -10l250 -461v456q0 15 15 15h113z" glyph-name="Ntilde" horiz-adv-x="697" unicode="Ñ"/><glyph d="M294 910h97q10 0 17 -12l59 -114q9 -17 -12 -17h-96q-10 0 -17 12l-60 114q-9 17 12 17zM409 -13q-150 0 -255 104.5t-105 255.5q0 152 105 256.5t255 104.5t255 -104.5t105 -256.5q0 -151 -105 -255.5t-255 -104.5zM409 127q92 0 153.5 63t61.5 157q0 95 -61.5 158 t-153.5 63t-153.5 -63.5t-61.5 -157.5t61.5 -157t153.5 -63z" glyph-name="Ograve" horiz-adv-x="819" unicode="Ò"/><glyph d="M526 910q21 0 12 -17l-60 -114q-7 -12 -17 -12h-96q-21 0 -12 17l59 114q7 12 17 12h97zM409 -13q-150 0 -255 104.5t-105 255.5q0 152 105 256.5t255 104.5t255 -104.5t105 -256.5q0 -151 -105 -255.5t-255 -104.5zM409 127q92 0 153.5 63t61.5 157q0 95 -61.5 158 t-153.5 63t-153.5 -63.5t-61.5 -157.5t61.5 -157t153.5 -63z" glyph-name="Oacute" horiz-adv-x="819" unicode="Ó"/><glyph d="M264 775q-9 0 -11 6t4 12l91 109q7 8 17 8h88q10 0 17 -8l91 -109q4 -4 4.5 -8t-2.5 -7t-9 -3h-72q-11 0 -18 8l-55 66l-54 -66q-7 -8 -18 -8h-73zM409 -13q-150 0 -255 104.5t-105 255.5q0 152 105 256.5t255 104.5t255 -104.5t105 -256.5q0 -151 -105 -255.5 t-255 -104.5zM409 127q92 0 153.5 63t61.5 157q0 95 -61.5 158t-153.5 63t-153.5 -63.5t-61.5 -157.5t61.5 -157t153.5 -63z" glyph-name="Ocircumflex" horiz-adv-x="819" unicode="Ô"/><glyph d="M332 932q43 0 91.5 -35t72.5 -35q34 0 46 28q3 8 11 8h31q10 0 10 -10q-3 -51 -32.5 -78t-74.5 -27q-27 0 -51.5 11t-40 24.5t-35 24.5t-37.5 11q-34 0 -46 -28q-3 -8 -11 -8h-31q-10 0 -10 13q4 50 33 75.5t74 25.5zM409 -13q-150 0 -255 104.5t-105 255.5 q0 152 105 256.5t255 104.5t255 -104.5t105 -256.5q0 -151 -105 -255.5t-255 -104.5zM409 127q92 0 153.5 63t61.5 157q0 95 -61.5 158t-153.5 63t-153.5 -63.5t-61.5 -157.5t61.5 -157t153.5 -63z" glyph-name="Otilde" horiz-adv-x="819" unicode="Õ"/><glyph d="M299 776q-28 0 -48.5 20t-20.5 50q0 29 20.5 49t48.5 20q29 0 49 -20t20 -49q0 -30 -20 -50t-49 -20zM519 776q-29 0 -49 20t-20 50q0 29 20 49t49 20t49 -20t20 -49q0 -30 -20 -50t-49 -20zM409 -13q-150 0 -255 104.5t-105 255.5q0 152 105 256.5t255 104.5t255 -104.5 t105 -256.5q0 -151 -105 -255.5t-255 -104.5zM409 127q92 0 153.5 63t61.5 157q0 95 -61.5 158t-153.5 63t-153.5 -63.5t-61.5 -157.5t61.5 -157t153.5 -63z" glyph-name="Odieresis" horiz-adv-x="819" unicode="Ö"/><glyph d="M293 286l78 -79q9 -11 0 -22l-51 -50q-10 -12 -21 0l-78 79l-79 -79q-11 -11 -22 0l-50 50q-11 11 0 22l79 79l-79 78q-12 10 0 21l50 51q11 9 22 0l79 -78l78 78q11 10 21 0l51 -51q11 -11 0 -21z" glyph-name="multiply" horiz-adv-x="441" unicode="×"/><glyph d="M599 654q78 -48 124 -129t46 -178q0 -151 -105 -255.5t-255 -104.5q-58 0 -112 17l-20 -43q-5 -11 -17 -11h-64q-19 0 -11 18l34 72q-78 48 -124 129t-46 178q0 152 105 256.5t255 104.5q59 0 113 -18l20 44q5 11 17 11h63q19 0 11 -18zM194 347q0 -113 85 -177l183 392 q-26 6 -53 6q-92 0 -153.5 -63.5t-61.5 -157.5zM409 127q92 0 153.5 63t61.5 157q0 114 -85 178l-182 -392q25 -6 52 -6z" glyph-name="Oslash" horiz-adv-x="819" unicode="Ø"/><glyph d="M213 910h97q10 0 17 -12l59 -114q9 -17 -12 -17h-96q-10 0 -17 12l-60 114q-9 17 12 17zM329 -13q-120 0 -192.5 72.5t-72.5 206.5v419q0 15 15 15h113q15 0 15 -15v-416q0 -69 32 -105.5t90 -36.5q57 0 89 37t32 105v416q0 15 15 15h113q15 0 15 -15v-419 q0 -134 -72.5 -206.5t-191.5 -72.5z" glyph-name="Ugrave" horiz-adv-x="657" unicode="Ù"/><glyph d="M445 910q21 0 12 -17l-60 -114q-7 -12 -17 -12h-96q-21 0 -12 17l59 114q7 12 17 12h97zM329 -13q-120 0 -192.5 72.5t-72.5 206.5v419q0 15 15 15h113q15 0 15 -15v-416q0 -69 32 -105.5t90 -36.5q57 0 89 37t32 105v416q0 15 15 15h113q15 0 15 -15v-419 q0 -134 -72.5 -206.5t-191.5 -72.5z" glyph-name="Uacute" horiz-adv-x="657" unicode="Ú"/><glyph d="M183 775q-9 0 -11 6t4 12l91 109q7 8 17 8h88q10 0 17 -8l91 -109q4 -4 4.5 -8t-2.5 -7t-9 -3h-72q-11 0 -18 8l-55 66l-54 -66q-7 -8 -18 -8h-73zM329 -13q-120 0 -192.5 72.5t-72.5 206.5v419q0 15 15 15h113q15 0 15 -15v-416q0 -69 32 -105.5t90 -36.5q57 0 89 37 t32 105v416q0 15 15 15h113q15 0 15 -15v-419q0 -134 -72.5 -206.5t-191.5 -72.5z" glyph-name="Ucircumflex" horiz-adv-x="657" unicode="Û"/><glyph d="M219 776q-28 0 -48.5 20t-20.5 50q0 29 20.5 49t48.5 20q29 0 49 -20t20 -49q0 -30 -20 -50t-49 -20zM439 776q-29 0 -49 20t-20 50q0 29 20 49t49 20t49 -20t20 -49q0 -30 -20 -50t-49 -20zM329 -13q-120 0 -192.5 72.5t-72.5 206.5v419q0 15 15 15h113q15 0 15 -15 v-416q0 -69 32 -105.5t90 -36.5q57 0 89 37t32 105v416q0 15 15 15h113q15 0 15 -15v-419q0 -134 -72.5 -206.5t-191.5 -72.5z" glyph-name="Udieresis" horiz-adv-x="657" unicode="Ü"/><glyph d="M269 767q-21 0 -12 17l59 114q7 12 17 12h97q21 0 12 -17l-60 -114q-7 -12 -17 -12h-96zM580 700q20 0 10 -18l-205 -359v-308q0 -15 -15 -15h-113q-15 0 -15 15v309l-205 358q-10 18 10 18h118q12 0 18 -10l131 -235l130 235q6 10 18 10h118z" glyph-name="Yacute" horiz-adv-x="627" unicode="Ý"/><glyph d="M296 580q123 0 189.5 -60.5t66.5 -169.5t-66.5 -169.5t-189.5 -60.5h-84v-105q0 -15 -15 -15h-113q-15 0 -15 15v670q0 15 15 15h113q15 0 15 -15v-105h84zM285 247q64 0 97 22.5t33 80.5t-33 80.5t-97 22.5h-73v-206h73z" glyph-name="Thorn" horiz-adv-x="591" unicode="Þ"/><glyph d="M428 367q68 -8 111.5 -51t43.5 -125q0 -191 -256 -191h-54q-15 0 -15 15v78q0 15 15 15h46q69 0 100 22.5t31 74.5q0 53 -30.5 73t-100.5 20h-46q-15 0 -15 15v78q0 15 15 15h30q110 0 110 86q0 90 -104 90q-101 0 -101 -89v-478q0 -15 -15 -15h-109q-15 0 -15 15v485 q0 102 69 155t172 53q101 0 169 -49.5t68 -139.5q0 -68 -36 -107.5t-83 -44.5z" glyph-name="germandbls" horiz-adv-x="617" unicode="ß"/><glyph d="M237 569l-60 114q-9 17 12 17h97q10 0 17 -12l59 -114q9 -17 -12 -17h-96q-10 0 -17 12zM542 490q15 0 15 -15v-460q0 -15 -16 -15h-97q-15 0 -15 15l-2 54q-55 -81 -160 -81q-103 0 -168 73t-65 184q0 110 65.5 183.5t167.5 73.5q107 0 160 -81l2 54q0 15 15 15h98z M296 114q55 0 89.5 36t34.5 95t-34.5 95t-89.5 36t-91 -36.5t-36 -94.5q0 -59 36 -95t91 -36z" glyph-name="agrave" horiz-adv-x="617" unicode="à"/><glyph d="M260 557q-21 0 -12 17l59 114q7 12 17 12h97q21 0 12 -17l-60 -114q-7 -12 -17 -12h-96zM542 490q15 0 15 -15v-460q0 -15 -16 -15h-97q-15 0 -15 15l-2 54q-55 -81 -160 -81q-103 0 -168 73t-65 184q0 110 65.5 183.5t167.5 73.5q107 0 160 -81l2 54q0 15 15 15h98z M296 114q55 0 89.5 36t34.5 95t-34.5 95t-89.5 36t-91 -36.5t-36 -94.5q0 -59 36 -95t91 -36z" glyph-name="aacute" horiz-adv-x="617" unicode="á"/><glyph d="M160 565q-9 0 -11 6t4 12l91 109q7 8 17 8h88q10 0 17 -8l91 -109q4 -4 4.5 -8t-2.5 -7t-9 -3h-72q-11 0 -18 8l-55 66l-54 -66q-7 -8 -18 -8h-73zM542 490q15 0 15 -15v-460q0 -15 -16 -15h-97q-15 0 -15 15l-2 54q-55 -81 -160 -81q-103 0 -168 73t-65 184 q0 110 65.5 183.5t167.5 73.5q107 0 160 -81l2 54q0 15 15 15h98zM296 114q55 0 89.5 36t34.5 95t-34.5 95t-89.5 36t-91 -36.5t-36 -94.5q0 -59 36 -95t91 -36z" glyph-name="acircumflex" horiz-adv-x="617" unicode="â"/><glyph d="M130 608q-10 0 -10 13q4 50 33 75.5t74 25.5q43 0 91.5 -35t72.5 -35q34 0 46 28q3 8 11 8h31q10 0 10 -10q-3 -51 -32.5 -78t-74.5 -27q-27 0 -51.5 11t-40 24.5t-35 24.5t-37.5 11q-34 0 -46 -28q-3 -8 -11 -8h-31zM542 490q15 0 15 -15v-460q0 -15 -16 -15h-97 q-15 0 -15 15l-2 54q-55 -81 -160 -81q-103 0 -168 73t-65 184q0 110 65.5 183.5t167.5 73.5q107 0 160 -81l2 54q0 15 15 15h98zM296 114q55 0 89.5 36t34.5 95t-34.5 95t-89.5 36t-91 -36.5t-36 -94.5q0 -59 36 -95t91 -36z" glyph-name="atilde" horiz-adv-x="617" unicode="ã"/><glyph d="M195 566q-28 0 -48.5 20t-20.5 50q0 29 20.5 49t48.5 20q29 0 49 -20t20 -49q0 -30 -20 -50t-49 -20zM415 566q-29 0 -49 20t-20 50q0 29 20 49t49 20t49 -20t20 -49q0 -30 -20 -50t-49 -20zM542 490q15 0 15 -15v-460q0 -15 -16 -15h-97q-15 0 -15 15l-2 54 q-55 -81 -160 -81q-103 0 -168 73t-65 184q0 110 65.5 183.5t167.5 73.5q107 0 160 -81l2 54q0 15 15 15h98zM296 114q55 0 89.5 36t34.5 95t-34.5 95t-89.5 36t-91 -36.5t-36 -94.5q0 -59 36 -95t91 -36z" glyph-name="adieresis" horiz-adv-x="617" unicode="ä"/><glyph d="M305 539q-46 0 -74.5 28.5t-28.5 71.5q0 42 29 72t74 30t74 -30t29 -72q0 -43 -28.5 -71.5t-74.5 -28.5zM305 664q-10 0 -17 -7t-7 -17t7 -17t17 -7t17 7t7 17t-7 17t-17 7zM542 490q15 0 15 -15v-460q0 -15 -16 -15h-97q-15 0 -15 15l-2 54q-55 -81 -160 -81 q-103 0 -168 73t-65 184q0 110 65.5 183.5t167.5 73.5q107 0 160 -81l2 54q0 15 15 15h98zM296 114q55 0 89.5 36t34.5 95t-34.5 95t-89.5 36t-91 -36.5t-36 -94.5q0 -59 36 -95t91 -36z" glyph-name="aring" horiz-adv-x="617" unicode="å"/><glyph d="M908 268q0 -38 -11.5 -56.5t-42.5 -18.5h-297q23 -96 144 -96q62 0 114 30q10 6 17 -4l37 -51q8 -11 -5 -22q-62 -62 -174 -62q-74 0 -132 29.5t-93 81.5q-65 -111 -196 -111q-104 0 -169.5 73t-65.5 184q0 110 65.5 183.5t167.5 73.5q90 0 151 -55l1 28q0 15 15 15h75 q15 0 15 -15v-18q62 45 149 45q108 0 171.5 -68.5t63.5 -165.5zM674 388q-47 0 -79 -25t-40 -73h230q-6 48 -35.5 73t-75.5 25zM296 114q54 0 89 36t35 95t-34.5 95t-89.5 36t-91 -36.5t-36 -94.5q0 -59 36 -95t91 -36z" glyph-name="ae" horiz-adv-x="942" unicode="æ"/><glyph d="M479 97q11 -11 2 -21q-62 -79 -169 -87l-24 -22q36 -3 62.5 -25t26.5 -58q0 -42 -26.5 -68t-65.5 -33t-85 0q-9 1 -9 11v48q0 10 11 10q83 -9 83 26q0 14 -23.5 20.5t-58.5 -4.5q-12 -5 -12 7v50q0 9 5 12l34 32q-87 20 -141.5 89.5t-54.5 162.5q0 109 73 182t183 73 q122 0 190 -88q9 -10 -2 -21l-60 -59q-13 -13 -26 0q-41 41 -96 41q-58 0 -93.5 -36.5t-35.5 -91.5q0 -56 36.5 -94t95.5 -38q53 0 94 41q13 13 26 0z" glyph-name="ccedilla" horiz-adv-x="519" unicode="ç"/><glyph d="M215 569l-60 114q-9 17 12 17h97q10 0 17 -12l59 -114q9 -17 -12 -17h-96q-10 0 -17 12zM521 268q0 -38 -11.5 -56.5t-42.5 -18.5h-297q23 -96 144 -96q62 0 114 30q10 6 17 -4l37 -51q8 -11 -5 -22q-62 -62 -174 -62q-119 0 -194 73.5t-75 185.5q0 110 70 182.5 t182 72.5q108 0 171.5 -68.5t63.5 -165.5zM287 388q-47 0 -79 -25t-40 -73h230q-6 48 -35.5 73t-75.5 25z" glyph-name="egrave" horiz-adv-x="555" unicode="è"/><glyph d="M238 557q-21 0 -12 17l59 114q7 12 17 12h97q21 0 12 -17l-60 -114q-7 -12 -17 -12h-96zM521 268q0 -38 -11.5 -56.5t-42.5 -18.5h-297q23 -96 144 -96q62 0 114 30q10 6 17 -4l37 -51q8 -11 -5 -22q-62 -62 -174 -62q-119 0 -194 73.5t-75 185.5q0 110 70 182.5 t182 72.5q108 0 171.5 -68.5t63.5 -165.5zM287 388q-47 0 -79 -25t-40 -73h230q-6 48 -35.5 73t-75.5 25z" glyph-name="eacute" horiz-adv-x="555" unicode="é"/><glyph d="M138 565q-9 0 -11 6t4 12l91 109q7 8 17 8h88q10 0 17 -8l91 -109q4 -4 4.5 -8t-2.5 -7t-9 -3h-72q-11 0 -18 8l-55 66l-54 -66q-7 -8 -18 -8h-73zM521 268q0 -38 -11.5 -56.5t-42.5 -18.5h-297q23 -96 144 -96q62 0 114 30q10 6 17 -4l37 -51q8 -11 -5 -22 q-62 -62 -174 -62q-119 0 -194 73.5t-75 185.5q0 110 70 182.5t182 72.5q108 0 171.5 -68.5t63.5 -165.5zM287 388q-47 0 -79 -25t-40 -73h230q-6 48 -35.5 73t-75.5 25z" glyph-name="ecircumflex" horiz-adv-x="555" unicode="ê"/><glyph d="M173 566q-28 0 -48.5 20t-20.5 50q0 29 20.5 49t48.5 20q29 0 49 -20t20 -49q0 -30 -20 -50t-49 -20zM393 566q-29 0 -49 20t-20 50q0 29 20 49t49 20t49 -20t20 -49q0 -30 -20 -50t-49 -20zM521 268q0 -38 -11.5 -56.5t-42.5 -18.5h-297q23 -96 144 -96q62 0 114 30 q10 6 17 -4l37 -51q8 -11 -5 -22q-62 -62 -174 -62q-119 0 -194 73.5t-75 185.5q0 110 70 182.5t182 72.5q108 0 171.5 -68.5t63.5 -165.5zM287 388q-47 0 -79 -25t-40 -73h230q-6 48 -35.5 73t-75.5 25z" glyph-name="edieresis" horiz-adv-x="555" unicode="ë"/><glyph d="M10 700h97q10 0 17 -12l59 -114q9 -17 -12 -17h-96q-10 0 -17 12l-60 114q-9 17 12 17zM70 0q-15 0 -15 15v460q0 15 15 15h109q15 0 15 -15v-460q0 -15 -15 -15h-109z" glyph-name="igrave" horiz-adv-x="249" unicode="ì"/><glyph d="M242 700q21 0 12 -17l-60 -114q-7 -12 -17 -12h-96q-21 0 -12 17l59 114q7 12 17 12h97zM70 0q-15 0 -15 15v460q0 15 15 15h109q15 0 15 -15v-460q0 -15 -15 -15h-109z" glyph-name="iacute" horiz-adv-x="249" unicode="í"/><glyph d="M-20 565q-9 0 -11 6t4 12l91 109q7 8 17 8h88q10 0 17 -8l91 -109q4 -4 4.5 -8t-2.5 -7t-9 -3h-72q-11 0 -18 8l-55 66l-54 -66q-7 -8 -18 -8h-73zM70 0q-15 0 -15 15v460q0 15 15 15h109q15 0 15 -15v-460q0 -15 -15 -15h-109z" glyph-name="icircumflex" horiz-adv-x="249" unicode="î"/><glyph d="M15 566q-28 0 -48.5 20t-20.5 50q0 29 20.5 49t48.5 20q29 0 49 -20t20 -49q0 -30 -20 -50t-49 -20zM235 566q-29 0 -49 20t-20 50q0 29 20 49t49 20t49 -20t20 -49q0 -30 -20 -50t-49 -20zM70 0q-15 0 -15 15v460q0 15 15 15h109q15 0 15 -15v-460q0 -15 -15 -15h-109z " glyph-name="idieresis" horiz-adv-x="249" unicode="ï"/><glyph d="M578 652q16 2 16 -14v-57q0 -14 -14 -16l-23 -3v-547q0 -15 -16 -15h-97q-15 0 -15 15l-2 54q-55 -81 -160 -81q-103 0 -168 73t-65 184q0 110 65.5 183.5t167.5 73.5q98 0 151 -69v112l-60 -7q-16 -2 -16 14v57q0 14 14 16l62 8v67q0 15 15 15h109q15 0 15 -15v-51z M296 114q55 0 89.5 36t34.5 95t-34.5 95t-89.5 36t-91 -36.5t-36 -94.5q0 -59 36 -95t91 -36z" glyph-name="eth" horiz-adv-x="594" unicode="ð"/><glyph d="M119 608q-10 0 -10 13q4 50 33 75.5t74 25.5q43 0 91.5 -35t72.5 -35q34 0 46 28q3 8 11 8h31q10 0 10 -10q-3 -51 -32.5 -78t-74.5 -27q-27 0 -51.5 11t-40 24.5t-35 24.5t-37.5 11q-34 0 -46 -28q-3 -8 -11 -8h-31zM345 502q79 0 128 -54t49 -148v-285q0 -15 -16 -15 h-107q-15 0 -15 15v254q0 106 -91 106q-44 0 -70 -27.5t-26 -78.5v-254q0 -15 -15 -15h-108q-15 0 -15 15v460q0 15 15 15h104q15 0 15 -16l4 -58q48 86 148 86z" glyph-name="ntilde" unicode="ñ"/><glyph d="M175 700h97q10 0 17 -12l59 -114q9 -17 -12 -17h-96q-10 0 -17 12l-60 114q-9 17 12 17zM291 -12q-110 0 -183.5 74t-73.5 183t73.5 183t183.5 74t183 -74t73 -183t-73 -183t-183 -74zM291 115q53 0 88 35.5t35 94.5t-35 94.5t-88 35.5q-54 0 -89 -35.5t-35 -94.5 t35 -94.5t89 -35.5z" glyph-name="ograve" unicode="ò"/><glyph d="M407 700q21 0 12 -17l-60 -114q-7 -12 -17 -12h-96q-21 0 -12 17l59 114q7 12 17 12h97zM291 -12q-110 0 -183.5 74t-73.5 183t73.5 183t183.5 74t183 -74t73 -183t-73 -183t-183 -74zM291 115q53 0 88 35.5t35 94.5t-35 94.5t-88 35.5q-54 0 -89 -35.5t-35 -94.5 t35 -94.5t89 -35.5z" glyph-name="oacute" unicode="ó"/><glyph d="M145 565q-9 0 -11 6t4 12l91 109q7 8 17 8h88q10 0 17 -8l91 -109q4 -4 4.5 -8t-2.5 -7t-9 -3h-72q-11 0 -18 8l-55 66l-54 -66q-7 -8 -18 -8h-73zM291 -12q-110 0 -183.5 74t-73.5 183t73.5 183t183.5 74t183 -74t73 -183t-73 -183t-183 -74zM291 115q53 0 88 35.5 t35 94.5t-35 94.5t-88 35.5q-54 0 -89 -35.5t-35 -94.5t35 -94.5t89 -35.5z" glyph-name="ocircumflex" unicode="ô"/><glyph d="M213 722q43 0 91.5 -35t72.5 -35q34 0 46 28q3 8 11 8h31q10 0 10 -10q-3 -51 -32.5 -78t-74.5 -27q-27 0 -51.5 11t-40 24.5t-35 24.5t-37.5 11q-34 0 -46 -28q-3 -8 -11 -8h-31q-10 0 -10 13q4 50 33 75.5t74 25.5zM291 -12q-110 0 -183.5 74t-73.5 183t73.5 183 t183.5 74t183 -74t73 -183t-73 -183t-183 -74zM291 115q53 0 88 35.5t35 94.5t-35 94.5t-88 35.5q-54 0 -89 -35.5t-35 -94.5t35 -94.5t89 -35.5z" glyph-name="otilde" unicode="õ"/><glyph d="M180 566q-28 0 -48.5 20t-20.5 50q0 29 20.5 49t48.5 20q29 0 49 -20t20 -49q0 -30 -20 -50t-49 -20zM400 566q-29 0 -49 20t-20 50q0 29 20 49t49 20t49 -20t20 -49q0 -30 -20 -50t-49 -20zM291 -12q-110 0 -183.5 74t-73.5 183t73.5 183t183.5 74t183 -74t73 -183 t-73 -183t-183 -74zM291 115q53 0 88 35.5t35 94.5t-35 94.5t-88 35.5q-54 0 -89 -35.5t-35 -94.5t35 -94.5t89 -35.5z" glyph-name="odieresis" unicode="ö"/><glyph d="M252 394q-28 0 -47 19t-19 47q0 27 19 46.5t47 19.5q27 0 46 -19.5t19 -46.5q0 -28 -19 -47t-46 -19zM80 234q-15 0 -15 15v72q0 15 15 15h344q15 0 15 -15v-72q0 -15 -15 -15h-344zM252 55q-28 0 -47 19t-19 46t19 46.5t47 19.5q27 0 46 -19.5t19 -46.5t-19 -46t-46 -19 z" glyph-name="divide" horiz-adv-x="504" unicode="÷"/><glyph d="M427 465q56 -33 88 -91.5t32 -128.5q0 -109 -73 -183t-183 -74q-40 0 -74 10l-25 -57q-5 -11 -17 -11h-43q-18 0 -10 18l34 76q-57 33 -89.5 91.5t-32.5 129.5q0 109 73.5 183t183.5 74q36 0 74 -10l25 55q5 11 17 11h43q18 0 10 -18zM167 245q0 -66 43 -101l102 229 q-14 2 -21 2q-54 0 -89 -35.5t-35 -94.5zM291 115q53 0 88 35.5t35 94.5q0 64 -41 100l-102 -229q3 0 9.5 -0.5t10.5 -0.5z" glyph-name="oslash" unicode="ø"/><glyph d="M225 569l-60 114q-9 17 12 17h97q10 0 17 -12l59 -114q9 -17 -12 -17h-96q-10 0 -17 12zM507 490q15 0 15 -15v-460q0 -15 -15 -15h-104q-15 0 -15 16l-4 58q-48 -86 -148 -86q-78 0 -127 54t-49 148v285q0 15 15 15h107q16 0 16 -15v-254q0 -106 90 -106q44 0 70 27.5 t26 78.5v254q0 15 15 15h108z" glyph-name="ugrave" unicode="ù"/><glyph d="M248 557q-21 0 -12 17l59 114q7 12 17 12h97q21 0 12 -17l-60 -114q-7 -12 -17 -12h-96zM507 490q15 0 15 -15v-460q0 -15 -15 -15h-104q-15 0 -15 16l-4 58q-48 -86 -148 -86q-78 0 -127 54t-49 148v285q0 15 15 15h107q16 0 16 -15v-254q0 -106 90 -106q44 0 70 27.5 t26 78.5v254q0 15 15 15h108z" glyph-name="uacute" unicode="ú"/><glyph d="M147 565q-9 0 -11 6t4 12l91 109q7 8 17 8h88q10 0 17 -8l91 -109q4 -4 4.5 -8t-2.5 -7t-9 -3h-72q-11 0 -18 8l-55 66l-54 -66q-7 -8 -18 -8h-73zM507 490q15 0 15 -15v-460q0 -15 -15 -15h-104q-15 0 -15 16l-4 58q-48 -86 -148 -86q-78 0 -127 54t-49 148v285 q0 15 15 15h107q16 0 16 -15v-254q0 -106 90 -106q44 0 70 27.5t26 78.5v254q0 15 15 15h108z" glyph-name="ucircumflex" unicode="û"/><glyph d="M182 566q-28 0 -48.5 20t-20.5 50q0 29 20.5 49t48.5 20q29 0 49 -20t20 -49q0 -30 -20 -50t-49 -20zM402 566q-29 0 -49 20t-20 50q0 29 20 49t49 20t49 -20t20 -49q0 -30 -20 -50t-49 -20zM507 490q15 0 15 -15v-460q0 -15 -15 -15h-104q-15 0 -15 16l-4 58 q-48 -86 -148 -86q-78 0 -127 54t-49 148v285q0 15 15 15h107q16 0 16 -15v-254q0 -106 90 -106q44 0 70 27.5t26 78.5v254q0 15 15 15h108z" glyph-name="udieresis" unicode="ü"/><glyph d="M402 700q21 0 12 -17l-60 -114q-7 -12 -17 -12h-96q-21 0 -12 17l59 114q7 12 17 12h97zM160 -190q-20 0 -12 17l71 172l-189 474q-6 17 12 17h110q14 0 18 -12l117 -318l116 318q5 12 18 12h110q18 0 12 -17l-259 -651q-4 -12 -18 -12h-106z" glyph-name="yacute" horiz-adv-x="573" unicode="ý"/><glyph d="M350 502q102 0 167 -73.5t65 -183.5q0 -111 -65 -184t-167 -73q-100 0 -152 70v-233q0 -15 -15 -15h-109q-15 0 -15 15v875q0 15 15 15h109q15 0 15 -15v-268q52 70 152 70zM321 114q55 0 90.5 36t35.5 95q0 58 -35.5 94.5t-90.5 36.5q-56 0 -90.5 -36t-34.5 -95 t34.5 -95t90.5 -36z" glyph-name="thorn" horiz-adv-x="617" unicode="þ"/><glyph d="M175 566q-28 0 -48.5 20t-20.5 50q0 29 20.5 49t48.5 20q29 0 49 -20t20 -49q0 -30 -20 -50t-49 -20zM395 566q-29 0 -49 20t-20 50q0 29 20 49t49 20t49 -20t20 -49q0 -30 -20 -50t-49 -20zM160 -190q-20 0 -12 17l71 172l-189 474q-6 17 12 17h110q14 0 18 -12 l117 -318l116 318q5 12 18 12h110q18 0 12 -17l-259 -651q-4 -12 -18 -12h-106z" glyph-name="ydieresis" horiz-adv-x="573" unicode="ÿ"/><glyph d="M197 803q-15 0 -15 15v77q0 15 15 15h303q16 0 16 -15v-77q0 -15 -16 -15h-303zM662 17q3 -7 -1 -12t-12 -5h-118q-13 0 -17 12l-34 103h-264l-34 -103q-4 -12 -17 -12h-118q-19 0 -12 17l234 671q5 12 19 12h121q15 0 19 -12zM257 242h182l-91 278z" glyph-name="Amacron" horiz-adv-x="697" unicode="Ā"/><glyph d="M153 593q-15 0 -15 15v77q0 15 15 15h303q16 0 16 -15v-77q0 -15 -16 -15h-303zM542 490q15 0 15 -15v-460q0 -15 -16 -15h-97q-15 0 -15 15l-2 54q-55 -81 -160 -81q-103 0 -168 73t-65 184q0 110 65.5 183.5t167.5 73.5q107 0 160 -81l2 54q0 15 15 15h98zM296 114 q55 0 89.5 36t34.5 95t-34.5 95t-89.5 36t-91 -36.5t-36 -94.5q0 -59 36 -95t91 -36z" glyph-name="amacron" horiz-adv-x="617" unicode="ā"/><glyph d="M348 766q-68 0 -109.5 37t-47.5 92q-1 15 14 15h54q13 0 16 -14q5 -21 24 -36t49 -15t48.5 15t24.5 36q3 14 16 14h54q15 0 14 -15q-6 -55 -47.5 -92t-109.5 -37zM662 17q3 -7 -1 -12t-12 -5h-118q-13 0 -17 12l-34 103h-264l-34 -103q-4 -12 -17 -12h-118q-19 0 -12 17 l234 671q5 12 19 12h121q15 0 19 -12zM257 242h182l-91 278z" glyph-name="Abreve" horiz-adv-x="697" unicode="Ă"/><glyph d="M305 556q-68 0 -109.5 37t-47.5 92q-2 15 14 15h54q13 0 16 -14q5 -21 24 -36t49 -15t48.5 15t24.5 36q3 14 16 14h54q16 0 14 -15q-6 -55 -47.5 -92t-109.5 -37zM542 490q15 0 15 -15v-460q0 -15 -16 -15h-97q-15 0 -15 15l-2 54q-55 -81 -160 -81q-103 0 -168 73 t-65 184q0 110 65.5 183.5t167.5 73.5q107 0 160 -81l2 54q0 15 15 15h98zM296 114q55 0 89.5 36t34.5 95t-34.5 95t-89.5 36t-91 -36.5t-36 -94.5q0 -59 36 -95t91 -36z" glyph-name="abreve" horiz-adv-x="617" unicode="ă"/><glyph d="M662 17q3 -7 -1 -12t-12 -5h-5q-41 0 -65.5 -23t-24.5 -51q0 -22 16 -33.5t49 -4.5v-86q-22 -10 -52 -10t-58 9t-47.5 34t-19.5 61q0 70 72 117l-34 102h-264l-34 -103q-4 -12 -17 -12h-118q-19 0 -12 17l234 671q5 12 19 12h121q15 0 19 -12zM257 242h182l-91 278z" glyph-name="Aogonek" horiz-adv-x="697" unicode="Ą"/><glyph d="M542 490q15 0 15 -15v-460q0 -12 -11 -14v-1q-41 0 -65.5 -23t-24.5 -51q0 -22 16 -33.5t49 -4.5v-86q-22 -10 -52 -10t-58 9t-47.5 34t-19.5 61q0 77 85 125l-2 48q-55 -81 -160 -81q-103 0 -168 73t-65 184q0 110 65.5 183.5t167.5 73.5q107 0 160 -81l2 54q0 15 15 15 h98zM296 114q55 0 89.5 36t34.5 95t-34.5 95t-89.5 36t-91 -36.5t-36 -94.5q0 -59 36 -95t91 -36z" glyph-name="aogonek" horiz-adv-x="617" unicode="ą"/><glyph d="M519 910q21 0 12 -17l-60 -114q-7 -12 -17 -12h-96q-21 0 -12 17l59 114q7 12 17 12h97zM410 -13q-151 0 -256 103.5t-105 256.5t105 257t256 104q144 0 245 -101q10 -10 0 -21l-70 -75q-9 -11 -21 -1q-70 58 -154 58q-92 0 -154 -63t-62 -158t61.5 -157.5t154.5 -62.5 q84 0 154 58q12 10 21 -1l70 -75q10 -10 0 -20q-100 -102 -245 -102z" glyph-name="Cacute" horiz-adv-x="704" unicode="Ć"/><glyph d="M393 700q21 0 12 -17l-60 -114q-7 -12 -17 -12h-96q-21 0 -12 17l59 114q7 12 17 12h97zM293 -12q-111 0 -185 74t-74 185q0 109 73 182t183 73q122 0 190 -88q9 -10 -2 -21l-60 -59q-13 -13 -26 0q-41 41 -96 41q-58 0 -93.5 -36.5t-35.5 -91.5q0 -56 36.5 -94t95.5 -38 q53 0 94 41q13 13 26 0l60 -59q11 -11 2 -21q-68 -88 -188 -88z" glyph-name="cacute" horiz-adv-x="519" unicode="ć"/><glyph d="M402 776q-28 0 -48.5 20t-20.5 50q0 29 20.5 49t48.5 20q29 0 49 -20t20 -49q0 -30 -20 -50t-49 -20zM410 -13q-151 0 -256 103.5t-105 256.5t105 257t256 104q144 0 245 -101q10 -10 0 -21l-70 -75q-9 -11 -21 -1q-70 58 -154 58q-92 0 -154 -63t-62 -158t61.5 -157.5 t154.5 -62.5q84 0 154 58q12 10 21 -1l70 -75q10 -10 0 -20q-100 -102 -245 -102z" glyph-name="Cdotaccent" horiz-adv-x="704" unicode="Ċ"/><glyph d="M276 566q-28 0 -48.5 20t-20.5 50q0 29 20.5 49t48.5 20q29 0 49 -20t20 -49q0 -30 -20 -50t-49 -20zM293 -12q-111 0 -185 74t-74 185q0 109 73 182t183 73q122 0 190 -88q9 -10 -2 -21l-60 -59q-13 -13 -26 0q-41 41 -96 41q-58 0 -93.5 -36.5t-35.5 -91.5 q0 -56 36.5 -94t95.5 -38q53 0 94 41q13 13 26 0l60 -59q11 -11 2 -21q-68 -88 -188 -88z" glyph-name="cdotaccent" horiz-adv-x="519" unicode="ċ"/><glyph d="M257 911h73q11 0 18 -8l54 -66l55 66q7 8 18 8h72q9 0 11 -6t-4 -12l-91 -109q-7 -8 -17 -8h-88q-10 0 -17 8l-91 109q-6 6 -4 12t11 6zM410 -13q-151 0 -256 103.5t-105 256.5t105 257t256 104q144 0 245 -101q10 -10 0 -21l-70 -75q-9 -11 -21 -1q-70 58 -154 58 q-92 0 -154 -63t-62 -158t61.5 -157.5t154.5 -62.5q84 0 154 58q12 10 21 -1l70 -75q10 -10 0 -20q-100 -102 -245 -102z" glyph-name="Ccaron" horiz-adv-x="704" unicode="Č"/><glyph d="M131 701h73q11 0 18 -8l54 -66l55 66q7 8 18 8h72q9 0 11 -6t-4 -12l-91 -109q-7 -8 -17 -8h-88q-10 0 -17 8l-91 109q-6 6 -4 12t11 6zM293 -12q-111 0 -185 74t-74 185q0 109 73 182t183 73q122 0 190 -88q9 -10 -2 -21l-60 -59q-13 -13 -26 0q-41 41 -96 41 q-58 0 -93.5 -36.5t-35.5 -91.5q0 -56 36.5 -94t95.5 -38q53 0 94 41q13 13 26 0l60 -59q11 -11 2 -21q-68 -88 -188 -88z" glyph-name="ccaron" horiz-adv-x="519" unicode="č"/><glyph d="M193 911h73q11 0 18 -8l54 -66l55 66q7 8 18 8h72q9 0 11 -6t-4 -12l-91 -109q-7 -8 -17 -8h-88q-10 0 -17 8l-91 109q-6 6 -4 12t11 6zM84 0q-15 0 -15 15v670q0 15 15 15h206q170 0 263.5 -98t93.5 -252t-93.5 -252t-263.5 -98h-206zM212 127h76q106 0 160 57t54 166 t-54 166t-160 57h-76v-446z" glyph-name="Dcaron" horiz-adv-x="691" unicode="Ď"/><glyph d="M542 715q15 0 15 -15v-685q0 -15 -16 -15h-97q-15 0 -15 15l-2 54q-55 -81 -160 -81q-103 0 -168 73t-65 184q0 110 65.5 183.5t167.5 73.5q98 0 151 -69v267q0 15 15 15h109zM769 687q21 0 12 -17l-60 -114q-8 -12 -18 -12h-95q-21 0 -12 17l59 114q7 12 17 12h97z M296 114q55 0 89.5 36t34.5 95t-34.5 95t-89.5 36t-91 -36.5t-36 -94.5q0 -59 36 -95t91 -36z" glyph-name="dcaron" horiz-adv-x="681" unicode="ď"/><glyph d="M298 700q170 0 263.5 -98t93.5 -252t-93.5 -252t-263.5 -98h-206q-15 0 -15 15v276h-37q-15 0 -15 15v77q0 15 15 15h37v287q0 15 15 15h206zM296 127q106 0 160 57t54 166t-54 166t-160 57h-76v-175h123q16 0 16 -15v-77q0 -15 -16 -15h-123v-164h76z" glyph-name="Dcroat" horiz-adv-x="699" unicode="Đ"/><glyph d="M592 647q15 0 15 -16v-77q0 -15 -15 -15h-35v-524q0 -15 -16 -15h-97q-15 0 -15 15l-2 54q-55 -81 -160 -81q-103 0 -168 73t-65 184q0 110 65.5 183.5t167.5 73.5q98 0 151 -69v106h-129q-15 0 -15 15v77q0 16 15 16h129v53q0 15 15 15h109q15 0 15 -15v-53h35zM296 114 q55 0 89.5 36t34.5 95t-34.5 95t-89.5 36t-91 -36.5t-36 -94.5q0 -59 36 -95t91 -36z" glyph-name="dcroat" horiz-adv-x="622" unicode="đ"/><glyph d="M424 910q16 0 16 -15v-77q0 -15 -16 -15h-303q-15 0 -15 15v77q0 15 15 15h303zM84 0q-15 0 -15 15v670q0 15 15 15h356q15 0 15 -15v-97q0 -15 -15 -15h-228v-155h215q15 0 15 -15v-97q0 -15 -15 -15h-215v-164h228q15 0 15 -15v-97q0 -15 -15 -15h-356z" glyph-name="Emacron" horiz-adv-x="515" unicode="Ē"/><glyph d="M131 593q-15 0 -15 15v77q0 15 15 15h303q16 0 16 -15v-77q0 -15 -16 -15h-303zM521 268q0 -38 -11.5 -56.5t-42.5 -18.5h-297q23 -96 144 -96q62 0 114 30q10 6 17 -4l37 -51q8 -11 -5 -22q-62 -62 -174 -62q-119 0 -194 73.5t-75 185.5q0 110 70 182.5t182 72.5 q108 0 171.5 -68.5t63.5 -165.5zM287 388q-47 0 -79 -25t-40 -73h230q-6 48 -35.5 73t-75.5 25z" glyph-name="emacron" horiz-adv-x="555" unicode="ē"/><glyph d="M273 776q-28 0 -48.5 20t-20.5 50q0 29 20.5 49t48.5 20q29 0 49 -20t20 -49q0 -30 -20 -50t-49 -20zM84 0q-15 0 -15 15v670q0 15 15 15h356q15 0 15 -15v-97q0 -15 -15 -15h-228v-155h215q15 0 15 -15v-97q0 -15 -15 -15h-215v-164h228q15 0 15 -15v-97q0 -15 -15 -15 h-356z" glyph-name="Edotaccent" horiz-adv-x="515" unicode="Ė"/><glyph d="M283 566q-28 0 -48.5 20t-20.5 50q0 29 20.5 49t48.5 20q29 0 49 -20t20 -49q0 -30 -20 -50t-49 -20zM521 268q0 -38 -11.5 -56.5t-42.5 -18.5h-297q23 -96 144 -96q62 0 114 30q10 6 17 -4l37 -51q8 -11 -5 -22q-62 -62 -174 -62q-119 0 -194 73.5t-75 185.5 q0 110 70 182.5t182 72.5q108 0 171.5 -68.5t63.5 -165.5zM287 388q-47 0 -79 -25t-40 -73h230q-6 48 -35.5 73t-75.5 25z" glyph-name="edotaccent" horiz-adv-x="555" unicode="ė"/><glyph d="M440 573h-228v-155h215q15 0 15 -15v-97q0 -15 -15 -15h-215v-164h228q15 0 15 -15v-97q0 -7 -4 -11v-4q-41 0 -65.5 -23t-24.5 -51q0 -22 16 -33.5t49 -4.5v-86q-22 -10 -52 -10t-58 9t-47.5 34t-19.5 61q0 60 54 104h-219q-15 0 -15 15v670q0 15 15 15h356q15 0 15 -15 v-97q0 -15 -15 -15z" glyph-name="Eogonek" horiz-adv-x="515" unicode="Ę"/><glyph d="M521 268q0 -38 -11.5 -56.5t-42.5 -18.5h-297q23 -96 144 -96q62 0 114 30q10 6 17 -4l37 -51q8 -11 -5 -22q-27 -27 -71 -45q-90 -27 -90 -79q0 -22 16 -33.5t49 -4.5v-86q-22 -10 -52 -10t-58 9t-47.5 34t-19.5 61q0 56 47 96q-98 16 -157.5 86t-59.5 169 q0 110 70 182.5t182 72.5q108 0 171.5 -68.5t63.5 -165.5zM287 388q-47 0 -79 -25t-40 -73h230q-6 48 -35.5 73t-75.5 25z" glyph-name="eogonek" horiz-adv-x="555" unicode="ę"/><glyph d="M128 911h73q11 0 18 -8l54 -66l55 66q7 8 18 8h72q9 0 11 -6t-4 -12l-91 -109q-7 -8 -17 -8h-88q-10 0 -17 8l-91 109q-6 6 -4 12t11 6zM84 0q-15 0 -15 15v670q0 15 15 15h356q15 0 15 -15v-97q0 -15 -15 -15h-228v-155h215q15 0 15 -15v-97q0 -15 -15 -15h-215v-164 h228q15 0 15 -15v-97q0 -15 -15 -15h-356z" glyph-name="Ecaron" horiz-adv-x="515" unicode="Ě"/><glyph d="M222 574l-91 109q-6 6 -4 12t11 6h73q11 0 18 -8l54 -66l55 66q7 8 18 8h72q9 0 11 -6t-4 -12l-91 -109q-7 -8 -17 -8h-88q-10 0 -17 8zM521 268q0 -38 -11.5 -56.5t-42.5 -18.5h-297q23 -96 144 -96q62 0 114 30q10 6 17 -4l37 -51q8 -11 -5 -22q-62 -62 -174 -62 q-119 0 -194 73.5t-75 185.5q0 110 70 182.5t182 72.5q108 0 171.5 -68.5t63.5 -165.5zM287 388q-47 0 -79 -25t-40 -73h230q-6 48 -35.5 73t-75.5 25z" glyph-name="ecaron" horiz-adv-x="555" unicode="ě"/><glyph d="M407 766q-68 0 -109.5 37t-47.5 92q-2 15 14 15h54q13 0 16 -14q5 -21 24 -36t49 -15t48.5 15t24.5 36q3 14 16 14h54q16 0 14 -15q-6 -55 -47.5 -92t-109.5 -37zM719 398q15 0 15 -15v-65q0 -142 -87.5 -236.5t-234.5 -94.5q-152 0 -257.5 103.5t-105.5 256.5t105 257 t255 104q147 0 244 -99q12 -12 0 -26l-67 -71q-10 -12 -22 -2q-70 58 -154 58q-92 0 -154 -63t-62 -158t63 -157.5t160 -62.5q80 0 128.5 41t52.5 103h-181q-15 0 -15 15v97q0 15 15 15h302z" glyph-name="Gbreve" horiz-adv-x="774" unicode="Ğ"/><glyph d="M305 556q-68 0 -109.5 37t-47.5 92q-2 15 14 15h54q13 0 16 -14q5 -21 24 -36t49 -15t48.5 15t24.5 36q3 14 16 14h54q16 0 14 -15q-6 -55 -47.5 -92t-109.5 -37zM534 490q15 0 15 -15v-448q0 -63 -23 -110t-61.5 -72.5t-82.5 -37.5t-92 -12q-116 0 -191 56q-16 11 -6 29 l29 55q8 17 25 8q65 -36 130 -36q59 0 99.5 29t40.5 92v52q-51 -70 -152 -70q-103 0 -167 68.5t-64 177.5t64 177.5t167 68.5t153 -71l2 44q0 15 16 15h98zM292 134q53 0 86.5 33t33.5 89t-33.5 89t-86.5 33q-54 0 -88.5 -33.5t-34.5 -88.5t34.5 -88.5t88.5 -33.5z" glyph-name="gbreve" horiz-adv-x="608" unicode="ğ"/><glyph d="M407 776q-28 0 -48.5 20t-20.5 50q0 29 20.5 49t48.5 20q29 0 49 -20t20 -49q0 -30 -20 -50t-49 -20zM719 398q15 0 15 -15v-65q0 -142 -87.5 -236.5t-234.5 -94.5q-152 0 -257.5 103.5t-105.5 256.5t105 257t255 104q147 0 244 -99q12 -12 0 -26l-67 -71q-10 -12 -22 -2 q-70 58 -154 58q-92 0 -154 -63t-62 -158t63 -157.5t160 -62.5q80 0 128.5 41t52.5 103h-181q-15 0 -15 15v97q0 15 15 15h302z" glyph-name="Gdotaccent" horiz-adv-x="774" unicode="Ġ"/><glyph d="M305 566q-28 0 -48.5 20t-20.5 50q0 29 20.5 49t48.5 20q29 0 49 -20t20 -49q0 -30 -20 -50t-49 -20zM534 490q15 0 15 -15v-448q0 -63 -23 -110t-61.5 -72.5t-82.5 -37.5t-92 -12q-116 0 -191 56q-16 11 -6 29l29 55q8 17 25 8q65 -36 130 -36q59 0 99.5 29t40.5 92v52 q-51 -70 -152 -70q-103 0 -167 68.5t-64 177.5t64 177.5t167 68.5t153 -71l2 44q0 15 16 15h98zM292 134q53 0 86.5 33t33.5 89t-33.5 89t-86.5 33q-54 0 -88.5 -33.5t-34.5 -88.5t34.5 -88.5t88.5 -33.5z" glyph-name="gdotaccent" horiz-adv-x="608" unicode="ġ"/><glyph d="M719 398q15 0 15 -15v-65q0 -142 -87.5 -236.5t-234.5 -94.5q-152 0 -257.5 103.5t-105.5 256.5t105 257t255 104q147 0 244 -99q12 -12 0 -26l-67 -71q-10 -12 -22 -2q-70 58 -154 58q-92 0 -154 -63t-62 -158t63 -157.5t160 -62.5q80 0 128.5 41t52.5 103h-181 q-15 0 -15 15v97q0 15 15 15h302zM395 -23q38 0 65.5 -29t27.5 -83q0 -79 -56.5 -126t-118.5 -44v32q49 -1 80 42q21 30 8 41q-3 3 -8 3q-34 0 -58 24t-24 58t24.5 58t59.5 24z" glyph-name="Gcommaaccent" horiz-adv-x="774" unicode="Ģ"/><glyph d="M303 533q-38 0 -65.5 29.5t-27.5 83.5q0 79 57 126t119 44v-33q-49 1 -80 -41q-21 -29 -9 -41q3 -3 9 -3q33 0 57.5 -24t24.5 -58t-25 -58.5t-60 -24.5zM534 490q15 0 15 -15v-448q0 -63 -23 -110t-61.5 -72.5t-82.5 -37.5t-92 -12q-116 0 -191 56q-16 11 -6 29l29 55 q8 17 25 8q65 -36 130 -36q59 0 99.5 29t40.5 92v52q-51 -70 -152 -70q-103 0 -167 68.5t-64 177.5t64 177.5t167 68.5t153 -71l2 44q0 15 16 15h98zM292 134q53 0 86.5 33t33.5 89t-33.5 89t-86.5 33q-54 0 -88.5 -33.5t-34.5 -88.5t34.5 -88.5t88.5 -33.5z" glyph-name="gcommaaccent" horiz-adv-x="608" unicode="ģ"/><glyph d="M597 700q15 0 15 -15v-670q0 -15 -15 -15h-113q-15 0 -15 15v266h-257v-266q0 -15 -15 -15h-113q-15 0 -15 15v670q0 15 15 15h113q15 0 15 -15v-100h257v100q0 15 15 15h113zM212 407h257v63h-257v-63z" glyph-name="Hbar" horiz-adv-x="681" unicode="Ħ"/><glyph d="M355 502q79 0 128 -54t49 -148v-285q0 -15 -15 -15h-108q-15 0 -15 15v254q0 106 -91 106q-44 0 -69.5 -27.5t-25.5 -78.5v-254q0 -15 -16 -15h-107q-15 0 -15 15v513h-40q-15 0 -15 15v77q0 15 15 15h40v65q0 15 15 15h107q16 0 16 -15v-65h125q16 0 16 -15v-77 q0 -15 -16 -15h-125v-110q48 84 147 84z" glyph-name="hbar" horiz-adv-x="591" unicode="ħ"/><glyph d="M292 910q16 0 16 -15v-77q0 -15 -16 -15h-303q-15 0 -15 15v77q0 15 15 15h303zM84 0q-15 0 -15 15v670q0 15 15 15h113q15 0 15 -15v-670q0 -15 -15 -15h-113z" glyph-name="Imacron" horiz-adv-x="282" unicode="Ī"/><glyph d="M277 700q16 0 16 -15v-77q0 -15 -16 -15h-303q-15 0 -15 15v77q0 15 15 15h303zM70 0q-15 0 -15 15v460q0 15 15 15h109q15 0 15 -15v-460q0 -15 -15 -15h-109z" glyph-name="imacron" horiz-adv-x="249" unicode="ī"/><glyph d="M197 700q15 0 15 -15v-670q0 -15 -15 -15h-1q-41 0 -65.5 -23t-24.5 -51q0 -22 16 -33.5t49 -4.5v-86q-22 -10 -52 -10t-58 9t-47.5 34t-19.5 61q0 73 75 119v670q0 15 15 15h113z" glyph-name="Iogonek" horiz-adv-x="282" unicode="Į"/><glyph d="M125 566q-28 0 -48.5 20t-20.5 50q0 29 20.5 49t48.5 20q29 0 49 -20t20 -49q0 -30 -20 -50t-49 -20zM179 490q15 0 15 -15v-460q0 -15 -15 -15q-41 0 -65.5 -23t-24.5 -51q0 -22 16 -33.5t49 -4.5v-86q-22 -10 -52 -10t-58 9t-47.5 34t-19.5 61q0 74 78 121v458 q0 15 15 15h109z" glyph-name="iogonek" horiz-adv-x="249" unicode="į"/><glyph d="M141 776q-28 0 -48.5 20t-20.5 50q0 29 20.5 49t48.5 20q29 0 49 -20t20 -49q0 -30 -20 -50t-49 -20zM84 0q-15 0 -15 15v670q0 15 15 15h113q15 0 15 -15v-670q0 -15 -15 -15h-113z" glyph-name="Idotaccent" horiz-adv-x="282" unicode="İ"/><glyph d="M70 0q-15 0 -15 15v460q0 15 15 15h109q15 0 15 -15v-460q0 -15 -15 -15h-109z" glyph-name="dotlessi" horiz-adv-x="249" unicode="ı"/><glyph d="M84 0q-15 0 -15 15v670q0 15 15 15h113q15 0 15 -15v-670q0 -15 -15 -15h-113zM515 -13q-119 0 -183 76q-10 12 -1 25l59 78q9 11 21 1q50 -40 99 -40q107 0 107 133v425q0 15 15 15h113q15 0 15 -15v-419q0 -136 -67 -207.5t-178 -71.5z" glyph-name="IJ" horiz-adv-x="829" unicode="Ĳ"/><glyph d="M130 577q-33 0 -55 22.5t-22 54.5t22 54t55 22t54.5 -22t21.5 -54q0 -33 -21.5 -55t-54.5 -22zM398 577q-33 0 -55 22.5t-22 54.5t22 54t55 22t54.5 -22t21.5 -54q0 -33 -21.5 -55t-54.5 -22zM75 0q-15 0 -15 15v460q0 15 15 15h109q15 0 15 -15v-460q0 -15 -15 -15h-109 zM299 -200q-44 0 -75 15q-9 5 -9 15v91q0 9 13 7q27 -5 41 -5q34 0 46.5 15.5t12.5 45.5v491q0 15 15 15h109q15 0 15 -15v-510q0 -165 -168 -165z" glyph-name="ij" horiz-adv-x="527" unicode="ĳ"/><glyph d="M635 18q5 -8 2.5 -13t-11.5 -5h-131q-12 0 -18 9l-190 267l-75 -95v-166q0 -15 -15 -15h-113q-15 0 -15 15v670q0 15 15 15h113q15 0 15 -15v-309l232 316q7 8 18 8h137q9 0 11.5 -5.5t-3.5 -12.5l-232 -295zM361 -23q38 0 65.5 -29t27.5 -83q0 -79 -56.5 -126 t-118.5 -44v32q49 -1 80 42q21 30 8 41q-3 3 -8 3q-34 0 -58 24t-24 58t24.5 58t59.5 24z" glyph-name="Kcommaaccent" horiz-adv-x="668" unicode="Ķ"/><glyph d="M534 18q5 -8 2.5 -13t-11.5 -5h-116q-12 0 -18 9l-132 179l-61 -69v-104q0 -15 -15 -15h-109q-15 0 -15 15v685q0 15 15 15h109q15 0 15 -15v-409l161 191q7 8 18 8h123q10 0 12 -5t-4 -13l-166 -189zM294 -23q38 0 65.5 -29t27.5 -83q0 -79 -56.5 -126t-118.5 -44v32 q49 -1 80 42q21 30 8 41q-3 3 -8 3q-34 0 -58 24t-24 58t24.5 58t59.5 24z" glyph-name="kcommaaccent" horiz-adv-x="562" unicode="ķ"/><glyph d="M111 735q-21 0 -12 17l59 114q7 12 17 12h97q21 0 12 -17l-60 -114q-8 -12 -18 -12h-95zM426 127q15 0 15 -15v-97q0 -15 -15 -15h-342q-15 0 -15 15v670q0 15 15 15h113q15 0 15 -15v-558h214z" glyph-name="Lacute" horiz-adv-x="501" unicode="Ĺ"/><glyph d="M245 926q21 0 12 -17l-60 -114q-7 -12 -17 -12h-96q-21 0 -12 17l59 114q7 12 17 12h97zM74 0q-15 0 -15 15v685q0 15 15 15h109q15 0 15 -15v-685q0 -15 -15 -15h-109z" glyph-name="lacute" horiz-adv-x="258" unicode="ĺ"/><glyph d="M426 127q15 0 15 -15v-97q0 -15 -15 -15h-342q-15 0 -15 15v670q0 15 15 15h113q15 0 15 -15v-558h214zM251 -23q38 0 65.5 -29t27.5 -83q0 -79 -56.5 -126t-118.5 -44v32q49 -1 80 42q21 30 8 41q-3 3 -8 3q-34 0 -58 24t-24 58t24.5 58t59.5 24z" glyph-name="Lcommaaccent" horiz-adv-x="480" unicode="Ļ"/><glyph d="M74 0q-15 0 -15 15v685q0 15 15 15h109q15 0 15 -15v-685q0 -15 -15 -15h-109zM49 -305v32q49 -1 80 42q21 30 8 41q-3 3 -8 3q-34 0 -58 24t-24 58t24.5 58t59.5 24q38 0 65.5 -29t27.5 -83q0 -79 -56.5 -126t-118.5 -44z" glyph-name="lcommaaccent" horiz-adv-x="258" unicode="ļ"/><glyph d="M363 545q-34 0 -58 24.5t-24 58.5t24.5 58t59.5 24q38 0 65.5 -29t27.5 -83q0 -79 -56.5 -126t-118.5 -44v32q49 -1 79 41q21 29 10 41q-3 3 -9 3zM426 127q15 0 15 -15v-97q0 -15 -15 -15h-342q-15 0 -15 15v670q0 15 15 15h113q15 0 15 -15v-558h214z" glyph-name="Lcaron" horiz-adv-x="494" unicode="Ľ"/><glyph d="M241 468v32q49 -1 79 41q21 29 10 41q-3 3 -9 3q-34 0 -58.5 24.5t-24.5 58.5t25 58t60 24q38 0 65.5 -29t27.5 -83q0 -79 -56.5 -126t-118.5 -44zM74 0q-15 0 -15 15v685q0 15 15 15h109q15 0 15 -15v-685q0 -15 -15 -15h-109z" glyph-name="lcaron" horiz-adv-x="425" unicode="ľ"/><glyph d="M426 127q15 0 15 -15v-97q0 -15 -15 -15h-342q-15 0 -15 15v670q0 15 15 15h113q15 0 15 -15v-558h214zM406 457q34 0 58 -24.5t24 -58.5t-24 -58t-58 -24q-35 0 -59 24t-24 58t24.5 58.5t58.5 24.5z" glyph-name="Ldot" horiz-adv-x="525" unicode="Ŀ"/><glyph d="M74 0q-15 0 -15 15v685q0 15 15 15h109q15 0 15 -15v-685q0 -15 -15 -15h-109zM328 290q-34 0 -58 24t-24 58q0 35 24 59t58 24t58.5 -24.5t24.5 -58.5t-24 -58t-59 -24z" glyph-name="ldot" horiz-adv-x="330" unicode="ŀ"/><glyph d="M447 127q15 0 15 -15v-97q0 -15 -15 -15h-341q-15 0 -15 15v194l-43 -42q-8 -7 -13 -4.5t-5 12.5v91q0 11 8 19l53 52v348q0 15 15 15h113q15 0 15 -15v-208l90 88q8 7 13 4.5t5 -12.5v-90q0 -11 -8 -19l-100 -98v-223h213z" glyph-name="Lslash" horiz-adv-x="501" unicode="Ł"/><glyph d="M267 465l-66 -74v-376q0 -15 -15 -15h-109q-15 0 -15 15v219l-67 -75v88l67 75v378q0 15 15 15h109q15 0 15 -15v-221l65 73z" glyph-name="lslash" horiz-adv-x="262" unicode="ł"/><glyph d="M304 767q-21 0 -12 17l59 114q7 12 17 12h97q21 0 12 -17l-60 -114q-7 -12 -17 -12h-96zM613 700q15 0 15 -15v-670q0 -15 -15 -15h-133q-12 0 -18 10l-250 461v-456q0 -15 -15 -15h-113q-15 0 -15 15v670q0 15 15 15h133q12 0 18 -10l250 -461v456q0 15 15 15h113z" glyph-name="Nacute" horiz-adv-x="697" unicode="Ń"/><glyph d="M249 557q-21 0 -12 17l59 114q7 12 17 12h97q21 0 12 -17l-60 -114q-7 -12 -17 -12h-96zM345 502q79 0 128 -54t49 -148v-285q0 -15 -16 -15h-107q-15 0 -15 15v254q0 106 -91 106q-44 0 -70 -27.5t-26 -78.5v-254q0 -15 -15 -15h-108q-15 0 -15 15v460q0 15 15 15h104 q15 0 15 -16l4 -58q48 86 148 86z" glyph-name="nacute" unicode="ń"/><glyph d="M613 700q15 0 15 -15v-670q0 -15 -15 -15h-133q-12 0 -18 10l-250 461v-456q0 -15 -15 -15h-113q-15 0 -15 15v670q0 15 15 15h133q12 0 18 -10l250 -461v456q0 15 15 15h113zM351 -23q38 0 65.5 -29t27.5 -83q0 -79 -56.5 -126t-118.5 -44v32q49 -1 80 42q21 30 8 41 q-3 3 -8 3q-34 0 -58 24t-24 58t24.5 58t59.5 24z" glyph-name="Ncommaaccent" horiz-adv-x="697" unicode="Ņ"/><glyph d="M345 502q79 0 128 -54t49 -148v-285q0 -15 -16 -15h-107q-15 0 -15 15v254q0 106 -91 106q-44 0 -70 -27.5t-26 -78.5v-254q0 -15 -15 -15h-108q-15 0 -15 15v460q0 15 15 15h104q15 0 15 -16l4 -58q48 86 148 86zM296 -23q38 0 65.5 -29t27.5 -83q0 -79 -56.5 -126 t-118.5 -44v32q49 -1 80 42q21 30 8 41q-3 3 -8 3q-34 0 -58 24t-24 58t24.5 58t59.5 24z" glyph-name="ncommaaccent" unicode="ņ"/><glyph d="M287 784l-91 109q-6 6 -4 12t11 6h73q11 0 18 -8l54 -66l55 66q7 8 18 8h72q9 0 11 -6t-4 -12l-91 -109q-7 -8 -17 -8h-88q-10 0 -17 8zM613 700q15 0 15 -15v-670q0 -15 -15 -15h-133q-12 0 -18 10l-250 461v-456q0 -15 -15 -15h-113q-15 0 -15 15v670q0 15 15 15h133 q12 0 18 -10l250 -461v456q0 15 15 15h113z" glyph-name="Ncaron" horiz-adv-x="697" unicode="Ň"/><glyph d="M232 574l-91 109q-6 6 -4 12t11 6h73q11 0 18 -8l54 -66l55 66q7 8 18 8h72q9 0 11 -6t-4 -12l-91 -109q-7 -8 -17 -8h-88q-10 0 -17 8zM345 502q79 0 128 -54t49 -148v-285q0 -15 -16 -15h-107q-15 0 -15 15v254q0 106 -91 106q-44 0 -70 -27.5t-26 -78.5v-254 q0 -15 -15 -15h-108q-15 0 -15 15v460q0 15 15 15h104q15 0 15 -16l4 -58q48 86 148 86z" glyph-name="ncaron" unicode="ň"/><glyph d="M613 700q15 0 15 -15v-670v-1q-1 -134 -68 -203.5t-177 -69.5q-119 0 -183 76q-10 12 -1 25l59 78q9 11 21 1q50 -40 99 -40q101 0 107 119h-5q-12 0 -18 10l-250 461v-456q0 -15 -15 -15h-113q-15 0 -15 15v670q0 15 15 15h133q12 0 18 -10l250 -461v456q0 15 15 15h113 z" glyph-name="Eng" horiz-adv-x="697" unicode="Ŋ"/><glyph d="M345 502q79 0 128 -54t49 -148v-291q0 -100 -55.5 -153.5t-147.5 -53.5q-9 0 -12 8l-33 108q-4 11 7 11q43 0 73 27t30 80v233q0 106 -91 106q-44 0 -70 -27.5t-26 -78.5v-254q0 -15 -15 -15h-108q-15 0 -15 15v460q0 15 15 15h104q15 0 15 -16l4 -58q48 86 148 86z" glyph-name="eng" unicode="ŋ"/><glyph d="M561 910q16 0 16 -15v-77q0 -15 -16 -15h-303q-15 0 -15 15v77q0 15 15 15h303zM409 -13q-150 0 -255 104.5t-105 255.5q0 152 105 256.5t255 104.5t255 -104.5t105 -256.5q0 -151 -105 -255.5t-255 -104.5zM409 127q92 0 153.5 63t61.5 157q0 95 -61.5 158t-153.5 63 t-153.5 -63.5t-61.5 -157.5t61.5 -157t153.5 -63z" glyph-name="Omacron" horiz-adv-x="819" unicode="Ō"/><glyph d="M442 700q16 0 16 -15v-77q0 -15 -16 -15h-303q-15 0 -15 15v77q0 15 15 15h303zM291 -12q-110 0 -183.5 74t-73.5 183t73.5 183t183.5 74t183 -74t73 -183t-73 -183t-183 -74zM291 115q53 0 88 35.5t35 94.5t-35 94.5t-88 35.5q-54 0 -89 -35.5t-35 -94.5t35 -94.5 t89 -35.5z" glyph-name="omacron" unicode="ō"/><glyph d="M446 910q21 0 12 -17l-60 -114q-7 -12 -17 -12h-96q-21 0 -12 17l59 114q7 12 17 12h97zM633 910q21 0 12 -17l-60 -114q-7 -12 -17 -12h-95q-9 0 -13 4.5t1 12.5l59 114q7 12 17 12h96zM409 -13q-150 0 -255 104.5t-105 255.5q0 152 105 256.5t255 104.5t255 -104.5 t105 -256.5q0 -151 -105 -255.5t-255 -104.5zM409 127q92 0 153.5 63t61.5 157q0 95 -61.5 158t-153.5 63t-153.5 -63.5t-61.5 -157.5t61.5 -157t153.5 -63z" glyph-name="Ohungarumlaut" horiz-adv-x="819" unicode="Ő"/><glyph d="M327 700q21 0 12 -17l-60 -114q-7 -12 -17 -12h-96q-21 0 -12 17l59 114q7 12 17 12h97zM514 700q21 0 12 -17l-60 -114q-7 -12 -17 -12h-95q-9 0 -13 4.5t1 12.5l59 114q7 12 17 12h96zM291 -12q-110 0 -183.5 74t-73.5 183t73.5 183t183.5 74t183 -74t73 -183t-73 -183 t-183 -74zM291 115q53 0 88 35.5t35 94.5t-35 94.5t-88 35.5q-54 0 -89 -35.5t-35 -94.5t35 -94.5t89 -35.5z" glyph-name="ohungarumlaut" unicode="ő"/><glyph d="M996 573h-228v-155h215q15 0 15 -15v-97q0 -15 -15 -15h-215v-164h228q15 0 15 -15v-97q0 -15 -15 -15h-356q-15 0 -15 15v43q-95 -71 -216 -71q-150 0 -255 104.5t-105 255.5q0 152 105 256.5t255 104.5q121 0 216 -71v48q0 15 15 15h356q15 0 15 -15v-97q0 -15 -15 -15 zM409 127q92 0 153.5 63t61.5 157q0 95 -61.5 158t-153.5 63t-153.5 -63.5t-61.5 -157.5t61.5 -157t153.5 -63z" glyph-name="OE" horiz-adv-x="1071" unicode="Œ"/><glyph d="M902 268q0 -38 -11.5 -56.5t-41.5 -18.5h-297q23 -96 144 -96q61 0 113 30q10 6 17 -4l37 -51q8 -11 -5 -22q-62 -62 -174 -62q-126 0 -202 82q-74 -82 -191 -82q-110 0 -183.5 74t-73.5 183t73.5 183t183.5 74q116 0 188 -80q72 80 188 80q108 0 171.5 -68.5 t63.5 -165.5zM668 388q-46 0 -78 -25t-40 -73h230q-6 48 -36 73t-76 25zM291 115q53 0 88 35.5t35 94.5t-35 94.5t-88 35.5q-54 0 -89 -35.5t-35 -94.5t35 -94.5t89 -35.5z" glyph-name="oe" horiz-adv-x="937" unicode="œ"/><glyph d="M245 767q-21 0 -12 17l59 114q7 12 17 12h97q21 0 12 -17l-60 -114q-7 -12 -17 -12h-96zM559 18q11 -18 -10 -18h-120q-12 0 -18 10l-148 235h-51v-230q0 -15 -15 -15h-113q-15 0 -15 15v670q0 15 15 15h211q121 0 183.5 -61.5t62.5 -165.5q0 -163 -139 -212zM212 573 v-201h78q114 0 114 101q0 100 -114 100h-78z" glyph-name="Racute" horiz-adv-x="601" unicode="Ŕ"/><glyph d="M163 557q-21 0 -12 17l59 114q7 12 17 12h97q21 0 12 -17l-60 -114q-7 -12 -17 -12h-96zM348 490q9 -6 9 -20v-86q0 -17 -20 -12q-18 5 -36 5q-50 0 -77 -31.5t-27 -85.5v-245q0 -15 -15 -15h-108q-15 0 -15 15v460q0 15 15 15h104q15 0 15 -16l4 -63q30 91 106 91 q29 0 45 -12z" glyph-name="racute" horiz-adv-x="387" unicode="ŕ"/><glyph d="M559 18q11 -18 -10 -18h-120q-12 0 -18 10l-148 235h-51v-230q0 -15 -15 -15h-113q-15 0 -15 15v670q0 15 15 15h211q121 0 183.5 -61.5t62.5 -165.5q0 -163 -139 -212zM212 573v-201h78q114 0 114 101q0 100 -114 100h-78zM292 -23q38 0 65.5 -29t27.5 -83 q0 -79 -56.5 -126t-118.5 -44v32q49 -1 80 42q21 30 8 41q-3 3 -8 3q-34 0 -58 24t-24 58t24.5 58t59.5 24z" glyph-name="Rcommaaccent" horiz-adv-x="601" unicode="Ŗ"/><glyph d="M348 490q9 -6 9 -20v-86q0 -17 -20 -12q-18 5 -36 5q-50 0 -77 -31.5t-27 -85.5v-245q0 -15 -15 -15h-108q-15 0 -15 15v460q0 15 15 15h104q15 0 15 -16l4 -63q30 91 106 91q29 0 45 -12zM130 -23q38 0 65.5 -29t27.5 -83q0 -79 -56.5 -126t-118.5 -44v32q49 -1 80 42 q21 30 8 41q-3 3 -8 3q-34 0 -58 24t-24 58t24.5 58t59.5 24z" glyph-name="rcommaaccent" horiz-adv-x="387" unicode="ŗ"/><glyph d="M228 784l-91 109q-6 6 -4 12t11 6h73q11 0 18 -8l54 -66l55 66q7 8 18 8h72q9 0 11 -6t-4 -12l-91 -109q-7 -8 -17 -8h-88q-10 0 -17 8zM559 18q11 -18 -10 -18h-120q-12 0 -18 10l-148 235h-51v-230q0 -15 -15 -15h-113q-15 0 -15 15v670q0 15 15 15h211 q121 0 183.5 -61.5t62.5 -165.5q0 -163 -139 -212zM212 573v-201h78q114 0 114 101q0 100 -114 100h-78z" glyph-name="Rcaron" horiz-adv-x="601" unicode="Ř"/><glyph d="M352 701q9 0 11 -6t-4 -12l-91 -109q-7 -8 -17 -8h-88q-10 0 -17 8l-91 109q-6 6 -4 12t11 6h73q11 0 18 -8l54 -66l55 66q7 8 18 8h72zM348 490q9 -6 9 -20v-86q0 -17 -20 -12q-18 5 -36 5q-50 0 -77 -31.5t-27 -85.5v-245q0 -15 -15 -15h-108q-15 0 -15 15v460 q0 15 15 15h104q15 0 15 -16l4 -63q30 91 106 91q29 0 45 -12z" glyph-name="rcaron" horiz-adv-x="387" unicode="ř"/><glyph d="M384 910q21 0 12 -17l-60 -114q-7 -12 -17 -12h-96q-21 0 -12 17l59 114q7 12 17 12h97zM276 -12q-76 0 -134.5 31t-92.5 78q-8 11 1 21l60 69q10 12 22 1q67 -69 141 -69q45 0 71.5 19t26.5 56q0 32 -19.5 49t-64.5 37l-85 40q-140 64 -140 191q0 92 61.5 144.5 t154.5 52.5q119 0 205 -92q10 -10 1 -23l-57 -69q-10 -13 -22 -4q-65 57 -122 57q-38 0 -60.5 -18t-22.5 -49q0 -29 18 -45t64 -37l72 -33q34 -16 57 -30.5t48.5 -38.5t38 -57t12.5 -75q0 -100 -68.5 -153t-165.5 -53z" glyph-name="Sacute" horiz-adv-x="555" unicode="Ś"/><glyph d="M344 700q21 0 12 -17l-60 -114q-7 -12 -17 -12h-96q-21 0 -12 17l59 114q7 12 17 12h97zM226 -12q-114 0 -183 81q-9 11 2 29l35 49q10 15 25 4q63 -48 113 -48q55 0 55 41q0 17 -11.5 28t-39.5 23l-62 25q-107 42 -107 134q0 68 50 108t121 40q101 0 164 -75 q8 -10 -1 -21l-44 -53q-9 -11 -23 0q-49 41 -89 41q-23 0 -35 -11t-12 -28q0 -31 47 -48l69 -27q111 -45 110 -142q-1 -71 -53.5 -110.5t-130.5 -39.5z" glyph-name="sacute" horiz-adv-x="449" unicode="ś"/><glyph d="M510 194q0 -92 -59 -144.5t-147 -60.5l-25 -22q36 -3 62.5 -25t26.5 -58q0 -42 -26.5 -68t-65.5 -33t-85 0q-9 1 -9 11v48q0 10 11 10q83 -9 83 26q0 14 -23.5 20.5t-58.5 -4.5q-12 -5 -12 7v50q0 9 5 12l32 30q-110 21 -170 104q-8 11 1 21l60 69q10 12 22 1 q67 -69 141 -69q45 0 71.5 19t26.5 56q0 32 -19.5 49t-64.5 37l-85 40q-140 64 -140 191q0 92 61.5 144.5t154.5 52.5q119 0 205 -92q10 -10 1 -23l-57 -69q-10 -13 -22 -4q-65 57 -122 57q-38 0 -60.5 -18t-22.5 -49q0 -29 18 -45t64 -37l72 -33q34 -16 57 -30.5 t48.5 -38.5t38 -57t12.5 -75z" glyph-name="Scedilla" horiz-adv-x="555" unicode="Ş"/><glyph d="M300 280q111 -45 110 -142q-1 -61 -41 -99.5t-103 -47.5l-27 -24q36 -3 62.5 -25t26.5 -58q0 -42 -26.5 -68t-65.5 -33t-85 0q-9 1 -9 11v48q0 10 11 10q83 -9 83 26q0 14 -23.5 20.5t-58.5 -4.5q-12 -5 -12 7v50q0 9 5 12l31 29q-84 16 -135 77q-9 11 2 29l35 49 q10 15 25 4q63 -48 113 -48q55 0 55 41q0 17 -11.5 28t-39.5 23l-62 25q-107 42 -107 134q0 68 50 108t121 40q101 0 164 -75q8 -10 -1 -21l-44 -53q-9 -11 -23 0q-49 41 -89 41q-23 0 -35 -11t-12 -28q0 -31 47 -48z" glyph-name="scedilla" horiz-adv-x="449" unicode="ş"/><glyph d="M122 911h73q11 0 18 -8l54 -66l55 66q7 8 18 8h72q9 0 11 -6t-4 -12l-91 -109q-7 -8 -17 -8h-88q-10 0 -17 8l-91 109q-6 6 -4 12t11 6zM276 -12q-76 0 -134.5 31t-92.5 78q-8 11 1 21l60 69q10 12 22 1q67 -69 141 -69q45 0 71.5 19t26.5 56q0 32 -19.5 49t-64.5 37 l-85 40q-140 64 -140 191q0 92 61.5 144.5t154.5 52.5q119 0 205 -92q10 -10 1 -23l-57 -69q-10 -13 -22 -4q-65 57 -122 57q-38 0 -60.5 -18t-22.5 -49q0 -29 18 -45t64 -37l72 -33q34 -16 57 -30.5t48.5 -38.5t38 -57t12.5 -75q0 -100 -68.5 -153t-165.5 -53z" glyph-name="Scaron" horiz-adv-x="555" unicode="Š"/><glyph d="M82 701h73q11 0 18 -8l54 -66l55 66q7 8 18 8h72q9 0 11 -6t-4 -12l-91 -109q-7 -8 -17 -8h-88q-10 0 -17 8l-91 109q-6 6 -4 12t11 6zM226 -12q-114 0 -183 81q-9 11 2 29l35 49q10 15 25 4q63 -48 113 -48q55 0 55 41q0 17 -11.5 28t-39.5 23l-62 25q-107 42 -107 134 q0 68 50 108t121 40q101 0 164 -75q8 -10 -1 -21l-44 -53q-9 -11 -23 0q-49 41 -89 41q-23 0 -35 -11t-12 -28q0 -31 47 -48l69 -27q111 -45 110 -142q-1 -71 -53.5 -110.5t-130.5 -39.5z" glyph-name="scaron" horiz-adv-x="449" unicode="š"/><glyph d="M480 700q15 0 15 -15v-97q0 -15 -15 -15h-136v-558q0 -15 -15 -15h-8l-37 -33q36 -3 62.5 -25t26.5 -58q0 -42 -26.5 -68t-65.5 -33t-85 0q-9 1 -9 11v48q0 10 11 10q83 -9 83 26q0 14 -23.5 20.5t-58.5 -4.5q-12 -5 -12 7v50q0 9 5 12l39 37h-15q-15 0 -15 15v558h-137 q-15 0 -15 15v97q0 15 15 15h416z" glyph-name="Tcommaaccent" horiz-adv-x="545" unicode="Ţ"/><glyph d="M322 383h-77v-237q0 -43 43 -43q19 0 31 1q18 2 18 -14v-73q0 -25 -71 -29l-21 -18q36 -3 62.5 -25t26.5 -58q0 -42 -26.5 -68t-65.5 -33t-85 0q-9 2 -9 11v48q0 10 11 10q83 -9 83 26q0 14 -23.5 20.5t-58.5 -4.5q-12 -5 -12 7v50q0 9 5 12l34 33q-81 29 -81 132v252 h-62q-15 0 -15 15v77q0 15 15 15h62v115q0 15 15 15h109q15 0 15 -15v-115h77q15 0 15 -15v-77q0 -15 -15 -15z" glyph-name="tcommaaccent" horiz-adv-x="366" unicode="ţ"/><glyph d="M127 911h73q11 0 18 -8l54 -66l55 66q7 8 18 8h72q9 0 11 -6t-4 -12l-91 -109q-7 -8 -17 -8h-88q-10 0 -17 8l-91 109q-6 6 -4 12t11 6zM216 0q-15 0 -15 15v558h-137q-15 0 -15 15v97q0 15 15 15h416q15 0 15 -15v-97q0 -15 -15 -15h-136v-558q0 -15 -15 -15h-113z" glyph-name="Tcaron" horiz-adv-x="545" unicode="Ť"/><glyph d="M467 672q21 0 12 -17l-60 -114q-7 -12 -17 -12h-96q-21 0 -12 17l60 114q7 12 17 12h96zM322 490q15 0 15 -15v-77q0 -15 -15 -15h-77v-237q0 -43 43 -43q19 0 31 1q18 2 18 -14v-73q0 -29 -83 -29q-65 0 -106.5 34t-41.5 109v252h-62q-15 0 -15 15v77q0 15 15 15h62v115 q0 15 15 15h109q15 0 15 -15v-115h77z" glyph-name="tcaron" horiz-adv-x="497" unicode="ť"/><glyph d="M480 700q15 0 15 -15v-97q0 -15 -15 -15h-136v-83h80q15 0 15 -15v-77q0 -15 -15 -15h-80v-368q0 -15 -15 -15h-113q-15 0 -15 15v368h-80q-15 0 -15 15v77q0 15 15 15h80v83h-137q-15 0 -15 15v97q0 15 15 15h416z" glyph-name="Tbar" horiz-adv-x="545" unicode="Ŧ"/><glyph d="M322 383h-77v-51h77q15 0 15 -15v-82q0 -15 -15 -15h-77v-74q0 -43 43 -43q19 0 31 1q18 2 18 -14v-73q0 -29 -83 -29q-65 0 -106.5 34t-41.5 109v89h-62q-15 0 -15 15v82q0 15 15 15h62v51h-62q-15 0 -15 15v77q0 15 15 15h62v115q0 15 15 15h109q15 0 15 -15v-115h77 q15 0 15 -15v-77q0 -15 -15 -15z" glyph-name="tbar" horiz-adv-x="366" unicode="ŧ"/><glyph d="M251 932q43 0 91.5 -35t72.5 -35q34 0 46 28q3 8 11 8h31q10 0 10 -10q-3 -51 -32.5 -78t-74.5 -27q-27 0 -51.5 11t-40 24.5t-35 24.5t-37.5 11q-34 0 -46 -28q-3 -8 -11 -8h-31q-10 0 -10 13q4 50 33 75.5t74 25.5zM329 -13q-120 0 -192.5 72.5t-72.5 206.5v419 q0 15 15 15h113q15 0 15 -15v-416q0 -69 32 -105.5t90 -36.5q57 0 89 37t32 105v416q0 15 15 15h113q15 0 15 -15v-419q0 -134 -72.5 -206.5t-191.5 -72.5z" glyph-name="Utilde" horiz-adv-x="657" unicode="Ũ"/><glyph d="M118 608q-10 0 -10 13q4 50 33 75.5t74 25.5q43 0 91.5 -35t72.5 -35q34 0 46 28q3 8 11 8h31q10 0 10 -10q-3 -51 -32.5 -78t-74.5 -27q-27 0 -51.5 11t-40 24.5t-35 24.5t-37.5 11q-34 0 -46 -28q-3 -8 -11 -8h-31zM507 490q15 0 15 -15v-460q0 -15 -15 -15h-104 q-15 0 -15 16l-4 58q-48 -86 -148 -86q-78 0 -127 54t-49 148v285q0 15 15 15h107q16 0 16 -15v-254q0 -106 90 -106q44 0 70 27.5t26 78.5v254q0 15 15 15h108z" glyph-name="utilde" unicode="ũ"/><glyph d="M480 910q16 0 16 -15v-77q0 -15 -16 -15h-303q-15 0 -15 15v77q0 15 15 15h303zM329 -13q-120 0 -192.5 72.5t-72.5 206.5v419q0 15 15 15h113q15 0 15 -15v-416q0 -69 32 -105.5t90 -36.5q57 0 89 37t32 105v416q0 15 15 15h113q15 0 15 -15v-419q0 -134 -72.5 -206.5 t-191.5 -72.5z" glyph-name="Umacron" horiz-adv-x="657" unicode="Ū"/><glyph d="M141 593q-15 0 -15 15v77q0 15 15 15h303q16 0 16 -15v-77q0 -15 -16 -15h-303zM507 490q15 0 15 -15v-460q0 -15 -15 -15h-104q-15 0 -15 16l-4 58q-48 -86 -148 -86q-78 0 -127 54t-49 148v285q0 15 15 15h107q16 0 16 -15v-254q0 -106 90 -106q44 0 70 27.5t26 78.5 v254q0 15 15 15h108z" glyph-name="umacron" unicode="ū"/><glyph d="M402 896q3 14 16 14h54q16 0 14 -15q-6 -55 -47.5 -92t-109.5 -37t-109.5 37t-47.5 92q-2 15 14 15h54q13 0 16 -14q5 -21 24 -36t49 -15t48.5 15t24.5 36zM329 -13q-120 0 -192.5 72.5t-72.5 206.5v419q0 15 15 15h113q15 0 15 -15v-416q0 -69 32 -105.5t90 -36.5 q57 0 89 37t32 105v416q0 15 15 15h113q15 0 15 -15v-419q0 -134 -72.5 -206.5t-191.5 -72.5z" glyph-name="Ubreve" horiz-adv-x="657" unicode="Ŭ"/><glyph d="M292 556q-68 0 -109.5 37t-47.5 92q-1 15 14 15h54q13 0 16 -14q5 -21 24 -36t49 -15t48.5 15t24.5 36q3 14 16 14h54q15 0 14 -15q-6 -55 -47.5 -92t-109.5 -37zM507 490q15 0 15 -15v-460q0 -15 -15 -15h-104q-15 0 -15 16l-4 58q-48 -86 -148 -86q-78 0 -127 54 t-49 148v285q0 15 15 15h107q16 0 16 -15v-254q0 -106 90 -106q44 0 70 27.5t26 78.5v254q0 15 15 15h108z" glyph-name="ubreve" unicode="ŭ"/><glyph d="M329 951q45 0 74 -30t29 -72q0 -43 -28.5 -71.5t-74.5 -28.5t-74.5 28.5t-28.5 71.5q0 42 29 72t74 30zM329 826q10 0 17 7t7 17t-7 17t-17 7t-17 -7t-7 -17t7 -17t17 -7zM329 -13q-120 0 -192.5 72.5t-72.5 206.5v419q0 15 15 15h113q15 0 15 -15v-416q0 -69 32 -105.5 t90 -36.5q57 0 89 37t32 105v416q0 15 15 15h113q15 0 15 -15v-419q0 -134 -72.5 -206.5t-191.5 -72.5z" glyph-name="Uring" horiz-adv-x="657" unicode="Ů"/><glyph d="M292 539q-46 0 -74.5 28.5t-28.5 71.5q0 42 29 72t74 30t74 -30t29 -72q0 -43 -28.5 -71.5t-74.5 -28.5zM292 664q-10 0 -17 -7t-7 -17t7 -17t17 -7t17 7t7 17t-7 17t-17 7zM507 490q15 0 15 -15v-460q0 -15 -15 -15h-104q-15 0 -15 16l-4 58q-48 -86 -148 -86 q-78 0 -127 54t-49 148v285q0 15 15 15h107q16 0 16 -15v-254q0 -106 90 -106q44 0 70 27.5t26 78.5v254q0 15 15 15h108z" glyph-name="uring" unicode="ů"/><glyph d="M365 910q21 0 12 -17l-60 -114q-7 -12 -17 -12h-96q-21 0 -12 17l59 114q7 12 17 12h97zM552 910q21 0 12 -17l-60 -114q-7 -12 -17 -12h-95q-9 0 -13 4.5t1 12.5l59 114q7 12 17 12h96zM329 -13q-120 0 -192.5 72.5t-72.5 206.5v419q0 15 15 15h113q15 0 15 -15v-416 q0 -69 32 -105.5t90 -36.5q57 0 89 37t32 105v416q0 15 15 15h113q15 0 15 -15v-419q0 -134 -72.5 -206.5t-191.5 -72.5z" glyph-name="Uhungarumlaut" horiz-adv-x="657" unicode="Ű"/><glyph d="M168 557q-21 0 -12 17l59 114q7 12 17 12h97q21 0 12 -17l-60 -114q-7 -12 -17 -12h-96zM516 700q21 0 12 -17l-60 -114q-7 -12 -17 -12h-95q-9 0 -13 4.5t1 12.5l59 114q7 12 17 12h96zM507 490q15 0 15 -15v-460q0 -15 -15 -15h-104q-15 0 -15 16l-4 58 q-48 -86 -148 -86q-78 0 -127 54t-49 148v285q0 15 15 15h107q16 0 16 -15v-254q0 -106 90 -106q44 0 70 27.5t26 78.5v254q0 15 15 15h108z" glyph-name="uhungarumlaut" unicode="ű"/><glyph d="M578 700q15 0 15 -15v-419q0 -100 -41.5 -166.5t-114.5 -94.5q-90 -27 -90 -79q0 -22 15.5 -33.5t48.5 -4.5v-86q-22 -10 -52 -10t-58 9t-47.5 34t-19.5 61q0 55 45 95q-99 14 -157 85t-58 190v419q0 15 15 15h113q15 0 15 -15v-416q0 -69 32 -105.5t90 -36.5q57 0 89 37 t32 105v416q0 15 15 15h113z" glyph-name="Uogonek" horiz-adv-x="657" unicode="Ų"/><glyph d="M507 490q15 0 15 -15v-460q0 -15 -14 -15q-41 0 -65.5 -23t-24.5 -51q0 -22 16 -33.5t49 -4.5v-86q-22 -10 -52 -10t-58 9t-47.5 34t-19.5 61q0 76 82 123l-4 55q-48 -86 -148 -86q-78 0 -127 54t-49 148v285q0 15 15 15h107q16 0 16 -15v-254q0 -106 90 -106 q44 0 70 27.5t26 78.5v254q0 15 15 15h108z" glyph-name="uogonek" unicode="ų"/><glyph d="M395 775q-9 0 -11 6t4 12l91 109q7 8 17 8h88q10 0 17 -8l91 -109q4 -4 4.5 -8t-2.5 -7t-9 -3h-72q-11 0 -18 8l-55 66l-54 -66q-7 -8 -18 -8h-73zM1034 700q17 0 12 -17l-200 -671q-3 -12 -19 -12h-119q-16 0 -19 12l-148 509l-149 -509q-3 -12 -19 -12h-119 q-16 0 -19 12l-200 671q-5 17 12 17h117q16 0 17 -12l137 -494l151 494q4 12 17 12h109q13 0 17 -12l151 -494l137 494q3 12 17 12h117z" glyph-name="Wcircumflex" horiz-adv-x="1081" unicode="Ŵ"/><glyph d="M295 565q-9 0 -11 6t4 12l91 109q7 8 17 8h88q10 0 17 -8l91 -109q4 -4 4.5 -8t-2.5 -7t-9 -3h-72q-11 0 -18 8l-55 66l-54 -66q-7 -8 -18 -8h-73zM202 0q-14 0 -18 12l-154 461q-6 17 12 17h105q13 0 18 -12l98 -318l107 318q4 12 18 12h105q14 0 18 -12l106 -318 l98 318q5 12 19 12h104q18 0 12 -17l-153 -461q-5 -12 -18 -12h-111q-14 0 -18 12l-110 318l-109 -318q-5 -12 -18 -12h-111z" glyph-name="wcircumflex" horiz-adv-x="881" unicode="ŵ"/><glyph d="M168 775q-9 0 -11 6t4 12l91 109q7 8 17 8h88q10 0 17 -8l91 -109q4 -4 4.5 -8t-2.5 -7t-9 -3h-72q-11 0 -18 8l-55 66l-54 -66q-7 -8 -18 -8h-73zM580 700q20 0 10 -18l-205 -359v-308q0 -15 -15 -15h-113q-15 0 -15 15v309l-205 358q-10 18 10 18h118q12 0 18 -10 l131 -235l130 235q6 10 18 10h118z" glyph-name="Ycircumflex" horiz-adv-x="627" unicode="Ŷ"/><glyph d="M140 565q-9 0 -11 6t4 12l91 109q7 8 17 8h88q10 0 17 -8l91 -109q4 -4 4.5 -8t-2.5 -7t-9 -3h-72q-11 0 -18 8l-55 66l-54 -66q-7 -8 -18 -8h-73zM160 -190q-20 0 -12 17l71 172l-189 474q-6 17 12 17h110q14 0 18 -12l117 -318l116 318q5 12 18 12h110q18 0 12 -17 l-259 -651q-4 -12 -18 -12h-106z" glyph-name="ycircumflex" horiz-adv-x="573" unicode="ŷ"/><glyph d="M204 776q-28 0 -48.5 20t-20.5 50q0 29 20.5 49t48.5 20q29 0 49 -20t20 -49q0 -30 -20 -50t-49 -20zM424 776q-29 0 -49 20t-20 50q0 29 20 49t49 20t49 -20t20 -49q0 -30 -20 -50t-49 -20zM580 700q20 0 10 -18l-205 -359v-308q0 -15 -15 -15h-113q-15 0 -15 15v309 l-205 358q-10 18 10 18h118q12 0 18 -10l131 -235l130 235q6 10 18 10h118z" glyph-name="Ydieresis" horiz-adv-x="627" unicode="Ÿ"/><glyph d="M391 910q21 0 12 -17l-60 -114q-7 -12 -17 -12h-96q-21 0 -12 17l59 114q7 12 17 12h97zM59 0q-15 0 -15 15v102q0 9 6 18l300 438h-281q-15 0 -15 15v97q0 15 15 15h411q15 0 15 -15v-102q0 -9 -6 -18l-300 -438h301q15 0 15 -15v-97q0 -15 -15 -15h-431z" glyph-name="Zacute" horiz-adv-x="555" unicode="Ź"/><glyph d="M351 700q21 0 12 -17l-60 -114q-7 -12 -17 -12h-96q-21 0 -12 17l59 114q7 12 17 12h97zM54 0q-15 0 -15 15v86q0 12 7 19l230 258h-219q-15 0 -15 15v82q0 15 15 15h357q15 0 15 -15v-86q0 -12 -7 -19l-229 -258h222q15 0 15 -15v-82q0 -15 -15 -15h-361z" glyph-name="zacute" horiz-adv-x="470" unicode="ź"/><glyph d="M275 776q-28 0 -48.5 20t-20.5 50q0 29 20.5 49t48.5 20q29 0 49 -20t20 -49q0 -30 -20 -50t-49 -20zM59 0q-15 0 -15 15v102q0 9 6 18l300 438h-281q-15 0 -15 15v97q0 15 15 15h411q15 0 15 -15v-102q0 -9 -6 -18l-300 -438h301q15 0 15 -15v-97q0 -15 -15 -15h-431z " glyph-name="Zdotaccent" horiz-adv-x="555" unicode="Ż"/><glyph d="M235 566q-28 0 -48.5 20t-20.5 50q0 29 20.5 49t48.5 20q29 0 49 -20t20 -49q0 -30 -20 -50t-49 -20zM54 0q-15 0 -15 15v86q0 12 7 19l230 258h-219q-15 0 -15 15v82q0 15 15 15h357q15 0 15 -15v-86q0 -12 -7 -19l-229 -258h222q15 0 15 -15v-82q0 -15 -15 -15h-361z " glyph-name="zdotaccent" horiz-adv-x="470" unicode="ż"/><glyph d="M130 911h73q11 0 18 -8l54 -66l55 66q7 8 18 8h72q9 0 11 -6t-4 -12l-91 -109q-7 -8 -17 -8h-88q-10 0 -17 8l-91 109q-6 6 -4 12t11 6zM59 0q-15 0 -15 15v102q0 9 6 18l300 438h-281q-15 0 -15 15v97q0 15 15 15h411q15 0 15 -15v-102q0 -9 -6 -18l-300 -438h301 q15 0 15 -15v-97q0 -15 -15 -15h-431z" glyph-name="Zcaron" horiz-adv-x="555" unicode="Ž"/><glyph d="M90 701h73q11 0 18 -8l54 -66l55 66q7 8 18 8h72q9 0 11 -6t-4 -12l-91 -109q-7 -8 -17 -8h-88q-10 0 -17 8l-91 109q-6 6 -4 12t11 6zM54 0q-15 0 -15 15v86q0 12 7 19l230 258h-219q-15 0 -15 15v82q0 15 15 15h357q15 0 15 -15v-86q0 -12 -7 -19l-229 -258h222 q15 0 15 -15v-82q0 -15 -15 -15h-361z" glyph-name="zcaron" horiz-adv-x="470" unicode="ž"/><glyph d="M306 608q-34 0 -46.5 -15.5t-12.5 -45.5v-57h98q15 0 15 -15v-82q0 -15 -15 -15h-98v-403q0 -165 -168 -165q-45 0 -75 15q-9 5 -9 15v91q0 9 13 7q27 -5 40 -5q34 0 47 15.5t13 45.5v384h-58q-15 0 -15 15v82q0 15 15 15h58v76q0 165 168 165q44 0 75 -15q9 -4 9 -15 v-91q0 -9 -13 -7q-27 5 -41 5z" glyph-name="florin" horiz-adv-x="389" unicode="ƒ"/><glyph d="M287 784l-91 109q-6 6 -4 12t11 6h73q11 0 18 -8l54 -66l55 66q7 8 18 8h72q9 0 11 -6t-4 -12l-91 -109q-7 -8 -17 -8h-88q-10 0 -17 8zM662 17q3 -7 -1 -12t-12 -5h-118q-13 0 -17 12l-34 103h-264l-34 -103q-4 -12 -17 -12h-118q-19 0 -12 17l234 671q5 12 19 12h121 q15 0 19 -12zM257 242h182l-91 278z" glyph-name="uni01CD" horiz-adv-x="697" unicode="Ǎ"/><glyph d="M244 574l-91 109q-6 6 -4 12t11 6h73q11 0 18 -8l54 -66l55 66q7 8 18 8h72q9 0 11 -6t-4 -12l-91 -109q-7 -8 -17 -8h-88q-10 0 -17 8zM542 490q15 0 15 -15v-460q0 -15 -16 -15h-97q-15 0 -15 15l-2 54q-55 -81 -160 -81q-103 0 -168 73t-65 184q0 110 65.5 183.5 t167.5 73.5q107 0 160 -81l2 54q0 15 15 15h98zM296 114q55 0 89.5 36t34.5 95t-34.5 95t-89.5 36t-91 -36.5t-36 -94.5q0 -59 36 -95t91 -36z" glyph-name="uni01CE" horiz-adv-x="617" unicode="ǎ"/><glyph d="M-4 911h73q11 0 18 -8l54 -66l55 66q7 8 18 8h72q9 0 11 -6t-4 -12l-91 -109q-7 -8 -17 -8h-88q-10 0 -17 8l-91 109q-6 6 -4 12t11 6zM84 0q-15 0 -15 15v670q0 15 15 15h113q15 0 15 -15v-670q0 -15 -15 -15h-113z" glyph-name="uni01CF" horiz-adv-x="282" unicode="Ǐ"/><glyph d="M-20 701h73q11 0 18 -8l54 -66l55 66q7 8 18 8h72q9 0 11 -6t-4 -12l-91 -109q-7 -8 -17 -8h-88q-10 0 -17 8l-91 109q-6 6 -4 12t11 6zM70 0q-15 0 -15 15v460q0 15 15 15h109q15 0 15 -15v-460q0 -15 -15 -15h-109z" glyph-name="uni01D0" horiz-adv-x="249" unicode="ǐ"/><glyph d="M264 911h73q11 0 18 -8l54 -66l55 66q7 8 18 8h72q9 0 11 -6t-4 -12l-91 -109q-7 -8 -17 -8h-88q-10 0 -17 8l-91 109q-6 6 -4 12t11 6zM409 -13q-150 0 -255 104.5t-105 255.5q0 152 105 256.5t255 104.5t255 -104.5t105 -256.5q0 -151 -105 -255.5t-255 -104.5z M409 127q92 0 153.5 63t61.5 157q0 95 -61.5 158t-153.5 63t-153.5 -63.5t-61.5 -157.5t61.5 -157t153.5 -63z" glyph-name="uni01D1" horiz-adv-x="819" unicode="Ǒ"/><glyph d="M145 701h73q11 0 18 -8l54 -66l55 66q7 8 18 8h72q9 0 11 -6t-4 -12l-91 -109q-7 -8 -17 -8h-88q-10 0 -17 8l-91 109q-6 6 -4 12t11 6zM291 -12q-110 0 -183.5 74t-73.5 183t73.5 183t183.5 74t183 -74t73 -183t-73 -183t-183 -74zM291 115q53 0 88 35.5t35 94.5 t-35 94.5t-88 35.5q-54 0 -89 -35.5t-35 -94.5t35 -94.5t89 -35.5z" glyph-name="uni01D2" unicode="ǒ"/><glyph d="M183 911h73q11 0 18 -8l54 -66l55 66q7 8 18 8h72q9 0 11 -6t-4 -12l-91 -109q-7 -8 -17 -8h-88q-10 0 -17 8l-91 109q-6 6 -4 12t11 6zM329 -13q-120 0 -192.5 72.5t-72.5 206.5v419q0 15 15 15h113q15 0 15 -15v-416q0 -69 32 -105.5t90 -36.5q57 0 89 37t32 105v416 q0 15 15 15h113q15 0 15 -15v-419q0 -134 -72.5 -206.5t-191.5 -72.5z" glyph-name="uni01D3" horiz-adv-x="657" unicode="Ǔ"/><glyph d="M231 574l-91 109q-6 6 -4 12t11 6h73q11 0 18 -8l54 -66l55 66q7 8 18 8h72q9 0 11 -6t-4 -12l-91 -109q-7 -8 -17 -8h-88q-10 0 -17 8zM507 490q15 0 15 -15v-460q0 -15 -15 -15h-104q-15 0 -15 16l-4 58q-48 -86 -148 -86q-78 0 -127 54t-49 148v285q0 15 15 15h107 q16 0 16 -15v-254q0 -106 90 -106q44 0 70 27.5t26 78.5v254q0 15 15 15h108z" glyph-name="uni01D4" unicode="ǔ"/><glyph d="M769 347q0 -120 -68.5 -213t-177.5 -129q-90 -27 -90 -79q0 -22 15.5 -33.5t48.5 -4.5v-86q-22 -10 -52 -10t-58 9t-47.5 34t-19.5 61q0 53 44 94q-135 16 -225 117t-90 240q0 152 105 256.5t255 104.5t255 -104.5t105 -256.5zM409 127q92 0 153.5 63t61.5 157 q0 95 -61.5 158t-153.5 63t-153.5 -63.5t-61.5 -157.5t61.5 -157t153.5 -63z" glyph-name="uni01EA" horiz-adv-x="819" unicode="Ǫ"/><glyph d="M547 245q0 -82 -43 -146t-114 -92v-2q-90 -27 -90 -79q0 -22 16 -33.5t49 -4.5v-86q-23 -10 -52.5 -10t-57.5 9t-47.5 34t-19.5 61q0 58 48 97q-90 18 -146 88t-56 164q0 109 73.5 183t183.5 74t183 -74t73 -183zM291 115q53 0 88 35.5t35 94.5t-35 94.5t-88 35.5 q-54 0 -89 -35.5t-35 -94.5t35 -94.5t89 -35.5z" glyph-name="uni01EB" unicode="ǫ"/><glyph d="M276 -12q-76 0 -134.5 31t-92.5 78q-8 11 1 21l60 69q10 12 22 1q67 -69 141 -69q45 0 71.5 19t26.5 56q0 32 -19.5 49t-64.5 37l-85 40q-140 64 -140 191q0 92 61.5 144.5t154.5 52.5q119 0 205 -92q10 -10 1 -23l-57 -69q-10 -13 -22 -4q-65 57 -122 57 q-38 0 -60.5 -18t-22.5 -49q0 -29 18 -45t64 -37l72 -33q34 -16 57 -30.5t48.5 -38.5t38 -57t12.5 -75q0 -100 -68.5 -153t-165.5 -53zM188 -305v32q49 -1 80 42q21 30 8 41q-3 3 -8 3q-34 0 -58 24t-24 58t24.5 58t59.5 24q38 0 65.5 -29t27.5 -83q0 -79 -56.5 -126 t-118.5 -44z" glyph-name="Scommaaccent" horiz-adv-x="555" unicode="Ș"/><glyph d="M226 -12q-114 0 -183 81q-9 11 2 29l35 49q10 15 25 4q63 -48 113 -48q55 0 55 41q0 17 -11.5 28t-39.5 23l-62 25q-107 42 -107 134q0 68 50 108t121 40q101 0 164 -75q8 -10 -1 -21l-44 -53q-9 -11 -23 0q-49 41 -89 41q-23 0 -35 -11t-12 -28q0 -31 47 -48l69 -27 q111 -45 110 -142q-1 -71 -53.5 -110.5t-130.5 -39.5zM148 -305v32q49 -1 80 42q21 30 8 41q-3 3 -8 3q-34 0 -58 24t-24 58t24.5 58t59.5 24q38 0 65.5 -29t27.5 -83q0 -79 -56.5 -126t-118.5 -44z" glyph-name="scommaaccent" horiz-adv-x="449" unicode="ș"/><glyph d="M216 0q-15 0 -15 15v558h-137q-15 0 -15 15v97q0 15 15 15h416q15 0 15 -15v-97q0 -15 -15 -15h-136v-558q0 -15 -15 -15h-113zM193 -305v32q49 -1 80 42q21 30 8 41q-3 3 -8 3q-34 0 -58 24t-24 58t24.5 58t59.5 24q38 0 65.5 -29t27.5 -83q0 -79 -56.5 -126t-118.5 -44 z" glyph-name="uni021A" horiz-adv-x="545" unicode="Ț"/><glyph d="M322 383h-77v-237q0 -43 43 -43q19 0 31 1q18 2 18 -14v-73q0 -29 -83 -29q-65 0 -106.5 34t-41.5 109v252h-62q-15 0 -15 15v77q0 15 15 15h62v115q0 15 15 15h109q15 0 15 -15v-115h77q15 0 15 -15v-77q0 -15 -15 -15zM236 -20q38 0 65.5 -29t27.5 -83 q0 -79 -56.5 -126t-118.5 -44v32q49 -1 80 42q21 30 8 41q-3 3 -8 3q-34 0 -58 24t-24 58t24.5 58t59.5 24z" glyph-name="uni021B" horiz-adv-x="366" unicode="ț"/><glyph d="M82 490h108q15 0 15 -15v-465q0 -100 -54.5 -152.5t-148.5 -55.5q-10 0 -12 8l-34 110q-4 11 7 11q44 3 74 28.5t30 76.5v439q0 15 15 15z" glyph-name="uni0237" horiz-adv-x="259" unicode="ȷ"/><glyph d="M26 565q-9 0 -11 6t4 12l91 109q7 8 17 8h88q10 0 17 -8l91 -109q4 -4 4.5 -8t-2.5 -7t-9 -3h-72q-11 0 -18 8l-55 66l-54 -66q-7 -8 -18 -8h-73z" glyph-name="circumflex" horiz-adv-x="343" unicode="ˆ"/><glyph d="M26 701h73q11 0 18 -8l54 -66l55 66q7 8 18 8h72q9 0 11 -6t-4 -12l-91 -109q-7 -8 -17 -8h-88q-10 0 -17 8l-91 109q-6 6 -4 12t11 6z" glyph-name="caron" horiz-adv-x="343" unicode="ˇ"/><glyph d="M245 686q3 14 16 14h54q15 0 14 -15q-6 -55 -47.5 -92t-109.5 -37t-109.5 37t-47.5 92q-1 15 14 15h54q13 0 16 -14q5 -21 24 -36t49 -15t48.5 15t24.5 36z" glyph-name="breve" horiz-adv-x="344" unicode="˘"/><glyph d="M84 566q-28 0 -48.5 20t-20.5 50q0 29 20.5 49t48.5 20q29 0 49 -20t20 -49q0 -30 -20 -50t-49 -20z" glyph-name="dotaccent" horiz-adv-x="168" unicode="˙"/><glyph d="M118 741q45 0 74 -30t29 -72q0 -43 -28.5 -71.5t-74.5 -28.5t-74.5 28.5t-28.5 71.5q0 42 29 72t74 30zM118 616q10 0 17 7t7 17t-7 17t-17 7t-17 -7t-7 -17t7 -17t17 -7z" glyph-name="ring" horiz-adv-x="236" unicode="˚"/><glyph d="M212 0q-41 0 -65.5 -23t-24.5 -51q0 -22 16 -33.5t49 -4.5v-86q-22 -10 -52 -10t-58 9t-47.5 34t-19.5 61q0 38 22 70t55 50t66 28t59 10v-54z" glyph-name="ogonek" horiz-adv-x="222" unicode="˛"/><glyph d="M122 722q43 0 91.5 -35t72.5 -35q34 0 46 28q3 8 11 8h31q10 0 10 -10q-3 -51 -32.5 -78t-74.5 -27q-27 0 -51.5 11t-40 24.5t-35 24.5t-37.5 11q-34 0 -46 -28q-3 -8 -11 -8h-31q-10 0 -10 13q4 50 33 75.5t74 25.5z" glyph-name="tilde" horiz-adv-x="399" unicode="˜"/><glyph d="M190 700q21 0 12 -17l-60 -114q-7 -12 -18 -12h-95q-21 0 -12 17l59 114q7 12 17 12h97zM377 700q21 0 12 -17l-60 -114q-7 -12 -17 -12h-95q-9 0 -13 4.5t1 12.5l59 114q7 12 17 12h96z" glyph-name="hungarumlaut" horiz-adv-x="406" unicode="˝"/><glyph d="M-169 -305v32q49 -1 80 42q21 30 8 41q-3 3 -8 3q-34 0 -58 24t-24 58t24.5 58t59.5 24q38 0 66 -29t28 -83q0 -79 -57 -126t-119 -44z" glyph-name="uni0326" horiz-adv-x="0" unicode="̦"/><glyph d="M662 17q3 -7 -1 -12t-12 -5h-602q-19 0 -12 17l234 671q5 12 19 12h121q15 0 19 -12zM348 520l-133 -408h266z" glyph-name="Delta" horiz-adv-x="697" unicode="Δ"/><glyph d="M64 0q-15 0 -15 15v82q0 15 15 15h102v2q-61 43 -89 109.5t-28 137.5q0 148 103.5 247.5t253.5 99.5t254 -99.5t104 -247.5q0 -71 -28 -137.5t-89 -109.5v-2h102q15 0 15 -15v-82q0 -15 -15 -15h-230q-15 0 -15 15v143q53 28 85 81t32 119q0 93 -62 152.5t-153 59.5 q-90 0 -152 -59.5t-62 -152.5q0 -66 32 -119t85 -81v-143q0 -15 -15 -15h-230z" glyph-name="Omega" horiz-adv-x="813" unicode="Ω"/><glyph d="M507 490q15 0 15 -15v-460q0 -15 -15 -15h-104q-15 0 -15 16l-4 58q-48 -86 -148 -86q-23 0 -39 4v-167q0 -15 -15 -15h-108q-15 0 -15 15v548h1v102q0 15 15 15h107q16 0 16 -15v-254q0 -106 90 -106q44 0 70 27.5t26 78.5v254q0 15 15 15h108z" glyph-name="mu" unicode="μ"/><glyph d="M656 116q18 3 18 -14v-80q0 -29 -89 -29q-61 0 -101 34t-40 109v239h-147v-360q0 -15 -15 -15h-108q-15 0 -15 15v360h-78q-15 0 -15 15v85q0 15 15 15h564q15 0 15 -15v-85q0 -15 -15 -15h-63v-215q0 -45 39 -45q29 0 35 1z" glyph-name="pi" horiz-adv-x="703" unicode="π"/><glyph d="M163 776q-28 0 -48.5 20t-20.5 50q0 29 20.5 49t48.5 20q29 0 49 -20t20 -49q0 -30 -20 -50t-49 -20zM383 776q-29 0 -49 20t-20 50q0 29 20 49t49 20t49 -20t20 -49q0 -30 -20 -50t-49 -20zM84 0q-15 0 -15 15v670q0 15 15 15h356q15 0 15 -15v-97q0 -15 -15 -15h-228 v-155h215q15 0 15 -15v-97q0 -15 -15 -15h-215v-164h228q15 0 15 -15v-97q0 -15 -15 -15h-356z" glyph-name="afii10023" horiz-adv-x="515" unicode="Ё"/><glyph d="M210 767q-21 0 -12 17l59 114q7 12 17 12h97q21 0 12 -17l-60 -114q-7 -12 -17 -12h-96zM451 700q15 0 15 -15v-97q0 -15 -15 -15h-239v-558q0 -15 -15 -15h-113q-15 0 -15 15v670q0 15 15 15h367z" glyph-name="afii10052" horiz-adv-x="500" unicode="Ѓ"/><glyph d="M585 184l70 -75q10 -10 0 -20q-100 -102 -245 -102q-151 0 -256 103.5t-105 256.5t105 257t256 104q144 0 245 -101q10 -10 0 -21l-70 -75q-9 -11 -21 -1q-70 58 -154 58q-75 0 -131 -42.5t-76 -112.5h223q15 0 15 -15v-96q0 -15 -15 -15h-225q19 -72 75.5 -116 t133.5 -44q84 0 154 58q12 10 21 -1z" glyph-name="afii10053" horiz-adv-x="704" unicode="Є"/><glyph d="M84 0q-15 0 -15 15v670q0 15 15 15h113q15 0 15 -15v-670q0 -15 -15 -15h-113z" glyph-name="afii10055" horiz-adv-x="282" unicode="І"/><glyph d="M31 776q-28 0 -48.5 20t-20.5 50q0 29 20.5 49t48.5 20q29 0 49 -20t20 -49q0 -30 -20 -50t-49 -20zM251 776q-29 0 -49 20t-20 50q0 29 20 49t49 20t49 -20t20 -49q0 -30 -20 -50t-49 -20zM84 0q-15 0 -15 15v670q0 15 15 15h113q15 0 15 -15v-670q0 -15 -15 -15h-113z " glyph-name="afii10056" horiz-adv-x="282" unicode="Ї"/><glyph d="M286 767q-21 0 -12 17l59 114q7 12 17 12h97q21 0 12 -17l-60 -114q-7 -12 -17 -12h-96zM635 18q5 -8 2.5 -13t-11.5 -5h-131q-12 0 -18 9l-190 267l-75 -95v-166q0 -15 -15 -15h-113q-15 0 -15 15v670q0 15 15 15h113q15 0 15 -15v-309l232 316q7 8 18 8h137 q9 0 11.5 -5.5t-3.5 -12.5l-232 -295z" glyph-name="afii10061" horiz-adv-x="668" unicode="Ќ"/><glyph d="M343 766q-68 0 -109.5 37t-47.5 92q-2 15 14 15h54q13 0 16 -14q5 -21 24 -36t49 -15t48.5 15t24.5 36q3 14 16 14h54q16 0 14 -15q-6 -55 -47.5 -92t-109.5 -37zM639 700q9 0 12 -5t-1 -13l-391 -672q-6 -10 -18 -10h-119q-20 0 -10 18l157 271l-232 393q-5 8 -2 13 t12 5h119q13 0 19 -10l159 -272l158 272q6 10 18 10h119z" glyph-name="afii10062" horiz-adv-x="687" unicode="Ў"/><glyph d="M662 17q3 -7 -1 -12t-12 -5h-118q-13 0 -17 12l-34 103h-264l-34 -103q-4 -12 -17 -12h-118q-19 0 -12 17l234 671q5 12 19 12h121q15 0 19 -12zM257 242h182l-91 278z" glyph-name="afii10017" horiz-adv-x="697" unicode="А"/><glyph d="M295 455q121 0 183.5 -61.5t62.5 -166.5q0 -104 -62.5 -165.5t-183.5 -61.5h-211q-15 0 -15 15v670q0 15 15 15h370q15 0 15 -15v-97q0 -15 -15 -15h-242v-118h83zM290 127q114 0 114 100q0 101 -114 101h-78v-201h78z" glyph-name="afii10018" horiz-adv-x="575" unicode="Б"/><glyph d="M84 0q-15 0 -15 15v670q0 15 15 15h236q92 0 142.5 -50.5t50.5 -125.5q0 -53 -26 -91t-66 -56q59 -15 98 -61t39 -118q0 -91 -62.5 -144.5t-183.5 -53.5h-228zM210 422h82q86 0 86 79q0 73 -86 73h-82v-152zM210 126h92q111 0 111 93q0 92 -111 92h-92v-185z" glyph-name="afii10019" horiz-adv-x="592" unicode="В"/><glyph d="M451 700q15 0 15 -15v-97q0 -15 -15 -15h-239v-558q0 -15 -15 -15h-113q-15 0 -15 15v670q0 15 15 15h367z" glyph-name="afii10020" horiz-adv-x="500" unicode="Г"/><glyph d="M728 127q15 0 15 -15v-166q0 -15 -15 -15h-113q-15 0 -15 15v54h-417v-54q0 -15 -15 -15h-113q-15 0 -15 15v166q0 15 15 15h26q70 10 70 104v454q0 15 15 15h487q15 0 15 -15v-558h60zM294 205q0 -42 -11 -78h241v447h-230v-369z" glyph-name="afii10021" horiz-adv-x="763" unicode="Д"/><glyph d="M84 0q-15 0 -15 15v670q0 15 15 15h356q15 0 15 -15v-97q0 -15 -15 -15h-228v-155h215q15 0 15 -15v-97q0 -15 -15 -15h-215v-164h228q15 0 15 -15v-97q0 -15 -15 -15h-356z" glyph-name="afii10022" horiz-adv-x="515" unicode="Е"/><glyph d="M1021 18q5 -8 2.5 -13t-11.5 -5h-131q-12 0 -18 9l-190 267l-75 -95v-166q0 -15 -15 -15h-113q-15 0 -15 15v167l-74 94l-190 -267q-6 -9 -18 -9h-131q-9 0 -11.5 5t2.5 13l260 369l-232 295q-6 7 -3.5 12.5t11.5 5.5h137q11 0 18 -8l231 -315v308q0 15 15 15h113 q15 0 15 -15v-309l232 316q7 8 18 8h137q9 0 11.5 -5.5t-3.5 -12.5l-232 -295z" glyph-name="afii10024" horiz-adv-x="1053" unicode="Ж"/><glyph d="M249 -13q-72 0 -126 29t-85 77q-7 13 3 22l66 60q11 11 22 -2q48 -59 111 -59q48 0 76 28t28 69q0 39 -27 67.5t-78 28.5h-27q-16 0 -16 16v81q0 15 16 15h26q43 0 65 24t22 57q0 36 -25 58.5t-63 22.5q-62 0 -95 -56q-8 -14 -22 -2l-62 61q-12 10 -3 21q29 46 80.5 74.5 t116.5 28.5q87 0 147 -50.5t60 -133.5q0 -55 -28 -94t-70 -58q53 -21 88 -65.5t35 -111.5q0 -92 -67 -150t-168 -58z" glyph-name="afii10025" horiz-adv-x="519" unicode="З"/><glyph d="M613 700q15 0 15 -15v-670q0 -15 -15 -15h-113q-15 0 -15 15v456l-250 -461q-6 -10 -18 -10h-133q-15 0 -15 15v670q0 15 15 15h113q15 0 15 -15v-456l250 461q6 10 18 10h133z" glyph-name="afii10026" horiz-adv-x="697" unicode="И"/><glyph d="M348 765q-67 0 -109.5 37t-47.5 92q-1 15 14 15h54q13 0 16 -14q6 -21 25 -36t48 -15q30 0 49 15t25 36q3 14 16 14h53q15 0 14 -15q-6 -55 -47.5 -92t-109.5 -37zM613 700q15 0 15 -15v-670q0 -15 -15 -15h-113q-15 0 -15 15v456l-250 -461q-6 -10 -18 -10h-133 q-15 0 -15 15v670q0 15 15 15h113q15 0 15 -15v-456l250 461q6 10 18 10h133z" glyph-name="afii10027" horiz-adv-x="697" unicode="Й"/><glyph d="M635 18q5 -8 2.5 -13t-11.5 -5h-131q-12 0 -18 9l-190 267l-75 -95v-166q0 -15 -15 -15h-113q-15 0 -15 15v670q0 15 15 15h113q15 0 15 -15v-309l232 316q7 8 18 8h137q9 0 11.5 -5.5t-3.5 -12.5l-232 -295z" glyph-name="afii10028" horiz-adv-x="668" unicode="К"/><glyph d="M621 700q16 0 16 -15v-670q0 -15 -16 -15h-113q-15 0 -15 15v558h-230v-369q0 -101 -58 -155t-151 -54q-29 0 -29 18v100q0 12 11 12q38 0 61 25.5t23 78.5v456q0 15 15 15h486z" glyph-name="afii10029" horiz-adv-x="706" unicode="Л"/><glyph d="M798 700q15 0 15 -15v-670q0 -15 -15 -15h-113q-15 0 -15 15v417l-13 -43l-148 -377q-5 -12 -18 -12h-100q-13 0 -18 12l-148 377l-13 44v-418q0 -15 -15 -15h-113q-15 0 -15 15v670q0 15 15 15h131q13 0 17 -10l209 -525l209 525q4 10 17 10h131z" glyph-name="afii10030" horiz-adv-x="882" unicode="М"/><glyph d="M597 700q15 0 15 -15v-670q0 -15 -15 -15h-113q-15 0 -15 15v266h-257v-266q0 -15 -15 -15h-113q-15 0 -15 15v670q0 15 15 15h113q15 0 15 -15v-278h257v278q0 15 15 15h113z" glyph-name="afii10031" horiz-adv-x="681" unicode="Н"/><glyph d="M409 -13q-150 0 -255 104.5t-105 255.5q0 152 105 256.5t255 104.5t255 -104.5t105 -256.5q0 -151 -105 -255.5t-255 -104.5zM409 127q92 0 153.5 63t61.5 157q0 95 -61.5 158t-153.5 63t-153.5 -63.5t-61.5 -157.5t61.5 -157t153.5 -63z" glyph-name="afii10032" horiz-adv-x="819" unicode="О"/><glyph d="M582 700q15 0 15 -15v-670q0 -15 -15 -15h-113q-15 0 -15 15v558h-242v-558q0 -15 -15 -15h-113q-15 0 -15 15v670q0 15 15 15h498z" glyph-name="afii10033" horiz-adv-x="666" unicode="П"/><glyph d="M84 0q-15 0 -15 15v670q0 15 15 15h211q121 0 183.5 -61.5t62.5 -165.5q0 -105 -62.5 -166.5t-183.5 -61.5h-83v-230q0 -15 -15 -15h-113zM212 372h78q114 0 114 101q0 100 -114 100h-78v-201z" glyph-name="afii10034" horiz-adv-x="580" unicode="Р"/><glyph d="M410 -13q-151 0 -256 103.5t-105 256.5t105 257t256 104q144 0 245 -101q10 -10 0 -21l-70 -75q-9 -11 -21 -1q-70 58 -154 58q-92 0 -154 -63t-62 -158t61.5 -157.5t154.5 -62.5q84 0 154 58q12 10 21 -1l70 -75q10 -10 0 -20q-100 -102 -245 -102z" glyph-name="afii10035" horiz-adv-x="704" unicode="С"/><glyph d="M216 0q-15 0 -15 15v558h-137q-15 0 -15 15v97q0 15 15 15h416q15 0 15 -15v-97q0 -15 -15 -15h-136v-558q0 -15 -15 -15h-113z" glyph-name="afii10036" horiz-adv-x="545" unicode="Т"/><glyph d="M639 700q9 0 12 -5t-1 -13l-391 -672q-6 -10 -18 -10h-119q-20 0 -10 18l157 271l-232 393q-5 8 -2 13t12 5h119q13 0 19 -10l159 -272l158 272q6 10 18 10h119z" glyph-name="afii10037" horiz-adv-x="687" unicode="У"/><glyph d="M539 640q149 0 234 -86t85 -204t-85 -204t-234 -86h-22v-45q0 -15 -15 -15h-113q-15 0 -15 15v45h-21q-149 0 -234 86t-85 204t85 204t234 86h21v45q0 15 15 15h113q15 0 15 -15v-45h22zM353 187h21v326h-21q-84 0 -129 -45.5t-45 -117.5t45 -117.5t129 -45.5zM540 187 q84 0 128.5 45.5t44.5 117.5t-44.5 117.5t-128.5 45.5h-23v-326h23z" glyph-name="afii10038" horiz-adv-x="903" unicode="Ф"/><glyph d="M604 18q10 -18 -10 -18h-123q-12 0 -18 10l-127 216l-128 -216q-6 -10 -18 -10h-123q-20 0 -10 18l201 340l-191 324q-10 18 10 18h121q13 0 19 -10l119 -201l119 201q4 10 18 10h121q20 0 10 -18l-191 -324z" glyph-name="afii10039" horiz-adv-x="651" unicode="Х"/><glyph d="M673 127q15 0 15 -15v-166q0 -15 -15 -15h-113q-15 0 -15 15v54h-461q-15 0 -15 15v670q0 15 15 15h113q15 0 15 -15v-558h242v558q0 15 15 15h113q15 0 15 -15v-558h76z" glyph-name="afii10040" horiz-adv-x="708" unicode="Ц"/><glyph d="M552 700q15 0 15 -15v-670q0 -15 -15 -15h-113q-15 0 -15 15v266q-70 -94 -183 -94q-91 0 -148.5 61.5t-57.5 163.5v273q0 15 15 15h113q15 0 15 -15v-231q0 -63 34 -95t86 -32q53 0 89.5 32t36.5 95v231q0 15 15 15h113z" glyph-name="afii10041" horiz-adv-x="637" unicode="Ч"/><glyph d="M834 700q15 0 15 -15v-670q0 -15 -15 -15h-750q-15 0 -15 15v670q0 15 15 15h113q15 0 15 -15v-558h175v558q0 15 16 15h113q15 0 15 -15v-558h175v558q0 15 15 15h113z" glyph-name="afii10042" horiz-adv-x="918" unicode="Ш"/><glyph d="M926 127q15 0 15 -15v-166q0 -15 -15 -15h-113q-15 0 -15 15v54h-714q-15 0 -15 15v670q0 15 15 15h113q15 0 15 -15v-558h175v558q0 15 16 15h113q15 0 15 -15v-558h175v558q0 15 15 15h113q15 0 15 -15v-558h77z" glyph-name="afii10043" horiz-adv-x="961" unicode="Щ"/><glyph d="M355 455q121 0 183.5 -61.5t62.5 -166.5q0 -104 -62.5 -165.5t-183.5 -61.5h-211q-15 0 -15 15v558h-99q-16 0 -16 15v97q0 15 16 15h227q15 0 15 -15v-230h83zM350 127q114 0 114 100q0 101 -114 101h-78v-201h78z" glyph-name="afii10044" horiz-adv-x="635" unicode="Ъ"/><glyph d="M84 700h113q15 0 15 -15v-230h83q121 0 183.5 -61.5t62.5 -166.5q0 -104 -62.5 -165.5t-183.5 -61.5h-211q-15 0 -15 15v670q0 15 15 15zM626 0q-15 0 -15 15v670q0 15 15 15h113q15 0 15 -15v-670q0 -15 -15 -15h-113zM212 328v-201h78q114 0 114 100q0 101 -114 101 h-78z" glyph-name="afii10045" horiz-adv-x="823" unicode="Ы"/><glyph d="M84 700h113q15 0 15 -15v-230h83q121 0 183.5 -61.5t62.5 -166.5q0 -104 -62.5 -165.5t-183.5 -61.5h-211q-15 0 -15 15v670q0 15 15 15zM212 328v-201h78q114 0 114 100q0 101 -114 101h-78z" glyph-name="afii10046" horiz-adv-x="580" unicode="Ь"/><glyph d="M300 708q150 0 255 -104t105 -257t-105 -256.5t-255 -103.5q-146 0 -246 102q-10 10 0 20l70 75q9 11 21 1q70 -58 154 -58q77 0 133.5 44t75.5 116h-225q-15 0 -15 15v96q0 15 15 15h223q-20 70 -76 112.5t-131 42.5q-84 0 -154 -58q-12 -10 -21 1l-70 75q-10 11 0 21 q101 101 246 101z" glyph-name="afii10047" horiz-adv-x="704" unicode="Э"/><glyph d="M627 708q150 0 255 -104.5t105 -256.5q0 -151 -105 -255.5t-255 -104.5q-134 0 -234 85t-121 215h-60v-272q0 -15 -15 -15h-113q-15 0 -15 15v670q0 15 15 15h113q15 0 15 -15v-272h61q23 128 122.5 211.5t231.5 83.5zM627 127q92 0 153.5 63t61.5 157t-61.5 157.5 t-153.5 63.5t-153.5 -63.5t-61.5 -157.5t61.5 -157t153.5 -63z" glyph-name="afii10048" horiz-adv-x="1036" unicode="Ю"/><glyph d="M517 700q15 0 15 -15v-670q0 -15 -15 -15h-113q-15 0 -15 15v230h-51l-148 -235q-6 -10 -18 -10h-120q-21 0 -10 18l157 243q-139 49 -139 212q0 104 62.5 165.5t183.5 61.5h211zM389 372v201h-78q-114 0 -114 -100q0 -101 114 -101h78z" glyph-name="afii10049" horiz-adv-x="601" unicode="Я"/><glyph d="M542 490q15 0 15 -15v-460q0 -15 -16 -15h-97q-15 0 -15 15l-2 54q-55 -81 -160 -81q-103 0 -168 73t-65 184q0 110 65.5 183.5t167.5 73.5q107 0 160 -81l2 54q0 15 15 15h98zM296 114q55 0 89.5 36t34.5 95t-34.5 95t-89.5 36t-91 -36.5t-36 -94.5q0 -59 36 -95t91 -36 z" glyph-name="afii10065" horiz-adv-x="617" unicode="а"/><glyph d="M350 502q102 0 167 -73.5t65 -183.5q0 -111 -65 -184t-167 -73q-105 0 -160 81l-2 -54q0 -15 -15 -15h-98q-16 0 -16 15v505q0 180 167 180h131q47 0 55 20h112v-20q0 -66 -31.5 -93t-101.5 -27h-129q-36 0 -50 -16.5t-14 -52.5l1 -78q53 69 151 69zM321 114 q55 0 90.5 36t35.5 95q0 58 -35.5 94.5t-90.5 36.5q-56 0 -90.5 -36t-34.5 -95t34.5 -95t90.5 -36z" glyph-name="afii10066" horiz-adv-x="617" unicode="б"/><glyph d="M406 260q49 -11 75 -42t26 -78q0 -69 -55 -104.5t-147 -35.5h-231q-15 0 -15 15v460q0 15 15 15h236q71 0 118 -34.5t47 -94.5q0 -74 -69 -101zM350 337q0 41 -47 41h-105v-83h105q47 0 47 42zM317 112q58 0 58 48q0 47 -58 47h-119v-95h119z" glyph-name="afii10067" horiz-adv-x="541" unicode="в"/><glyph d="M391 490q15 0 15 -15v-82q0 -15 -15 -15h-194v-363q0 -15 -15 -15h-108q-15 0 -15 15v460q0 15 15 15h317z" glyph-name="afii10068" horiz-adv-x="441" unicode="г"/><glyph d="M657 112q16 0 16 -15v-140q0 -16 -16 -16h-107q-15 0 -15 16v43h-357v-43q0 -16 -15 -16h-108q-15 0 -15 16v43q-1 1 -1 4v98q0 3 2 7q1 4 7 4h1q79 0 79 106v256q0 15 15 15h428q15 0 15 -15v-363h71zM266 378v-195q0 -36 -10 -71h191v266h-181z" glyph-name="afii10069" horiz-adv-x="692" unicode="д"/><glyph d="M521 268q0 -38 -11.5 -56.5t-42.5 -18.5h-297q23 -96 144 -96q62 0 114 30q10 6 17 -4l37 -51q8 -11 -5 -22q-62 -62 -174 -62q-119 0 -194 73.5t-75 185.5q0 110 70 182.5t182 72.5q108 0 171.5 -68.5t63.5 -165.5zM287 388q-47 0 -79 -25t-40 -73h230q-6 48 -35.5 73 t-75.5 25z" glyph-name="afii10070" horiz-adv-x="555" unicode="е"/><glyph d="M874 18q6 -8 3.5 -13t-12.5 -5h-127q-11 0 -18 8l-149 180l-47 -49v-124q0 -15 -15 -15h-109q-15 0 -15 15v123l-48 50l-149 -180q-7 -8 -18 -8h-127q-10 0 -12.5 5t3.5 13l217 261l-184 193q-7 8 -4.5 13t12.5 5h129q12 0 19 -8l162 -175v168q0 15 15 15h109 q15 0 15 -15v-167l161 174q7 8 19 8h129q10 0 12.5 -5t-4.5 -13l-184 -193z" glyph-name="afii10072" horiz-adv-x="908" unicode="ж"/><glyph d="M295 262q80 -39 80 -121q0 -70 -53 -109.5t-133 -39.5q-97 0 -149 65q-11 14 2 30l37 44q11 15 26 3q37 -30 78 -30q28 0 48.5 13t20.5 39q0 23 -23 39t-71 16q-22 0 -22 21v47q0 23 22 23q76 0 76 43q0 19 -15.5 29.5t-39.5 10.5q-25 0 -63 -21q-23 -13 -33 0l-30 41 q-12 18 -1 30q23 27 62 44t84 17q66 0 114 -36t48 -96t-65 -102z" glyph-name="afii10073" horiz-adv-x="409" unicode="з"/><glyph d="M533 490q15 0 15 -15v-460q0 -15 -15 -15h-109q-15 0 -15 15v293l-190 -298q-7 -10 -19 -10h-126q-15 0 -15 15v460q0 15 15 15h109q15 0 15 -15v-293l190 298q7 10 19 10h126z" glyph-name="afii10074" horiz-adv-x="607" unicode="и"/><glyph d="M316 556q-68 0 -109.5 37t-47.5 92q-1 15 14 15h54q13 0 16 -14q5 -21 24 -36t49 -15t48.5 15t24.5 36q3 14 16 14h54q15 0 14 -15q-6 -55 -47.5 -92t-109.5 -37zM533 490q15 0 15 -15v-460q0 -15 -15 -15h-109q-15 0 -15 15v293l-190 -298q-7 -10 -19 -10h-126 q-15 0 -15 15v460q0 15 15 15h109q15 0 15 -15v-293l190 298q7 10 19 10h126z" glyph-name="afii10075" horiz-adv-x="607" unicode="й"/><glyph d="M549 18q6 -8 3.5 -13t-12.5 -5h-128q-11 0 -18 8l-149 180l-47 -49v-124q0 -15 -15 -15h-109q-15 0 -15 15v460q0 15 15 15h109q15 0 15 -15v-167l161 174q7 8 19 8h130q10 0 12.5 -5t-4.5 -13l-184 -193z" glyph-name="afii10076" horiz-adv-x="583" unicode="к"/><glyph d="M487 490q15 0 15 -15v-460q0 -15 -15 -15h-109q-15 0 -15 15v363h-181v-195q0 -94 -57 -141t-156 -47q-14 0 -14 9v98q0 11 10 11q79 0 79 106v256q0 15 15 15h428z" glyph-name="afii10077" horiz-adv-x="561" unicode="л"/><glyph d="M683 490q15 0 15 -15v-460q0 -15 -15 -15h-109q-15 0 -15 15v229l-107 -233q-5 -11 -17 -11h-114q-12 0 -17 11l-106 232v-228q0 -15 -15 -15h-109q-15 0 -15 15v460q0 15 15 15h130q12 0 17 -11l158 -336l156 336q5 11 17 11h131z" glyph-name="afii10078" horiz-adv-x="757" unicode="м"/><glyph d="M526 490q16 0 16 -15v-460q0 -15 -16 -15h-108q-16 0 -16 15v162h-204v-162q0 -15 -15 -15h-109q-15 0 -15 15v460q0 15 15 15h109q15 0 15 -15v-185h204v185q0 15 16 15h108z" glyph-name="afii10079" horiz-adv-x="601" unicode="н"/><glyph d="M291 -12q-110 0 -183.5 74t-73.5 183t73.5 183t183.5 74t183 -74t73 -183t-73 -183t-183 -74zM291 115q53 0 88 35.5t35 94.5t-35 94.5t-88 35.5q-54 0 -89 -35.5t-35 -94.5t35 -94.5t89 -35.5z" glyph-name="afii10080" unicode="о"/><glyph d="M531 490q15 0 15 -15v-460q0 -15 -15 -15h-109q-15 0 -15 15v359h-209v-359q0 -15 -15 -15h-109q-15 0 -15 15v460q0 15 15 15h457z" glyph-name="afii10081" horiz-adv-x="606" unicode="п"/><glyph d="M350 502q102 0 167 -73.5t65 -183.5q0 -111 -65 -184t-167 -73q-100 0 -152 70v-233q0 -15 -15 -15h-109q-15 0 -15 15v650q0 15 15 15h99q15 0 15 -15l2 -54q53 81 160 81zM321 114q55 0 90.5 36t35.5 95q0 58 -35.5 94.5t-90.5 36.5q-56 0 -90.5 -36t-34.5 -95 t34.5 -95t90.5 -36z" glyph-name="afii10082" horiz-adv-x="617" unicode="р"/><glyph d="M293 -12q-111 0 -185 74t-74 185q0 109 73 182t183 73q122 0 190 -88q9 -10 -2 -21l-60 -59q-13 -13 -26 0q-41 41 -96 41q-58 0 -93.5 -36.5t-35.5 -91.5q0 -56 36.5 -94t95.5 -38q53 0 94 41q13 13 26 0l60 -59q11 -11 2 -21q-68 -88 -188 -88z" glyph-name="afii10083" horiz-adv-x="519" unicode="с"/><glyph d="M417 490q15 0 15 -15v-86q0 -15 -15 -15h-112v-359q0 -15 -15 -15h-108q-15 0 -15 15v359h-112q-15 0 -15 15v86q0 15 15 15h362z" glyph-name="afii10084" horiz-adv-x="472" unicode="т"/><glyph d="M160 -190q-20 0 -12 17l71 172l-189 474q-6 17 12 17h110q14 0 18 -12l117 -318l116 318q5 12 18 12h110q18 0 12 -17l-259 -651q-4 -12 -18 -12h-106z" glyph-name="afii10085" horiz-adv-x="573" unicode="у"/><glyph d="M674 503q95 0 160 -74.5t65 -182.5t-65 -182.5t-160 -74.5q-81 0 -138 57v-221q0 -15 -15 -15h-108q-15 0 -15 15v222q-56 -58 -139 -58q-95 0 -160 74.5t-65 182.5t65 182.5t160 74.5q82 0 139 -60v222q0 15 15 15h108q15 0 15 -15v-221q57 59 138 59zM284 115 q51 0 82.5 38t31.5 92q0 56 -31.5 94t-82.5 38q-50 0 -83.5 -37.5t-33.5 -94.5q0 -56 33.5 -93t83.5 -37zM649 115q50 0 83.5 37t33.5 93q0 57 -33.5 94.5t-83.5 37.5q-51 0 -82 -38t-31 -94q0 -54 31 -92t82 -38z" glyph-name="afii10086" horiz-adv-x="933" unicode="ф"/><glyph d="M42 0q-9 0 -12 5t2 13l148 233l-142 221q-5 8 -2 13t12 5h118q12 0 18 -10l79 -131l78 131q6 10 18 10h118q9 0 12 -5t-2 -13l-141 -221l147 -233q5 -8 2 -13t-12 -5h-118q-12 0 -18 10l-84 143l-85 -143q-6 -10 -18 -10h-118z" glyph-name="afii10087" horiz-adv-x="526" unicode="х"/><glyph d="M597 112q15 0 15 -15v-140q0 -16 -15 -16h-105q-15 0 -15 16v43h-403q-15 0 -15 15v460q0 15 15 15h109q15 0 15 -15v-359h209v359q0 15 15 15h109q15 0 15 -15v-363h51z" glyph-name="afii10088" horiz-adv-x="632" unicode="ц"/><glyph d="M507 490q16 0 16 -15v-460q0 -15 -16 -15h-108q-16 0 -16 15v135q-52 -62 -152 -62q-88 0 -142.5 54.5t-54.5 167.5v165q0 15 15 15h108q15 0 15 -15v-153q0 -49 25.5 -79.5t76.5 -30.5t80 31t29 79v153q0 15 16 15h108z" glyph-name="afii10089" horiz-adv-x="582" unicode="ч"/><glyph d="M709 490q15 0 15 -15v-460q0 -15 -15 -15h-635q-15 0 -15 15v460q0 15 15 15h109q15 0 15 -15v-359h124v359q0 15 15 15h109q15 0 15 -15v-359h124v359q0 15 15 15h109z" glyph-name="afii10090" horiz-adv-x="783" unicode="ш"/><glyph d="M774 112q15 0 15 -15v-140q0 -16 -15 -16h-104q-15 0 -15 16v43h-581q-15 0 -15 15v460q0 15 15 15h109q15 0 15 -15v-359h124v359q0 15 15 15h109q15 0 15 -15v-359h124v359q0 15 15 15h109q15 0 15 -15v-363h50z" glyph-name="afii10091" horiz-adv-x="809" unicode="щ"/><glyph d="M357 345q189 0 189 -172q0 -173 -189 -173h-262q-15 0 -15 15v363h-56q-15 0 -15 15v82q0 15 15 15h179q16 0 16 -15v-130h138zM336 108q78 0 78 65q0 64 -78 64h-117v-129h117z" glyph-name="afii10092" unicode="ъ"/><glyph d="M336 345q190 0 190 -172q0 -173 -190 -173h-262q-15 0 -15 15v460q0 15 15 15h109q15 0 15 -15v-130h138zM724 490q15 0 15 -15v-460q0 -15 -15 -15h-109q-15 0 -15 15v460q0 15 15 15h109zM316 108q78 0 78 65q0 64 -78 64h-118v-129h118z" glyph-name="afii10093" horiz-adv-x="798" unicode="ы"/><glyph d="M336 345q190 0 190 -172q0 -173 -190 -173h-262q-15 0 -15 15v460q0 15 15 15h109q15 0 15 -15v-130h138zM316 108q78 0 78 65q0 64 -78 64h-118v-129h118z" glyph-name="afii10094" horiz-adv-x="560" unicode="ь"/><glyph d="M228 502q111 0 184 -73t73 -182q0 -111 -74 -185t-186 -74q-119 0 -187 88q-9 11 1 21l61 59q13 13 26 0q41 -41 94 -41q44 0 75.5 21.5t46.5 57.5h-145q-15 0 -15 15v70q0 15 15 15h147q-13 37 -45 59t-77 22q-54 0 -95 -41q-13 -13 -26 0l-61 59q-10 10 -1 21 q68 88 189 88z" glyph-name="afii10095" horiz-adv-x="519" unicode="э"/><glyph d="M511 502q110 0 183 -74t73 -183t-73 -183t-183 -74q-95 0 -164 56t-87 144h-62v-174q0 -15 -15 -15h-109q-15 0 -15 15v460q0 15 15 15h109q15 0 15 -15v-174h61q18 89 87 145.5t165 56.5zM511 115q53 0 88 35.5t35 94.5t-35 94.5t-88 35.5q-54 0 -89 -35.5t-35 -94.5 t35 -94.5t89 -35.5z" glyph-name="afii10096" horiz-adv-x="801" unicode="ю"/><glyph d="M490 490q15 0 15 -15v-460q0 -15 -15 -15h-109q-15 0 -15 15v130h-76l-114 -137q-7 -8 -18 -8h-112q-10 0 -12 5t4 13l115 136q-115 30 -115 163q0 173 190 173h262zM249 253h117v129h-117q-79 0 -79 -65q0 -64 79 -64z" glyph-name="afii10097" horiz-adv-x="564" unicode="я"/><glyph d="M188 596q-28 0 -48.5 20t-20.5 50q0 29 20.5 49t48.5 20q29 0 49 -20t20 -49q0 -30 -20 -50t-49 -20zM408 596q-29 0 -49 20t-20 50q0 29 20 49t49 20t49 -20t20 -49q0 -30 -20 -50t-49 -20zM521 268q0 -38 -11.5 -56.5t-42.5 -18.5h-297q23 -96 144 -96q62 0 114 30 q10 6 17 -4l37 -51q8 -11 -5 -22q-62 -62 -174 -62q-119 0 -194 73.5t-75 185.5q0 110 70 182.5t182 72.5q108 0 171.5 -68.5t63.5 -165.5zM287 388q-47 0 -79 -25t-40 -73h230q-6 48 -35.5 73t-75.5 25z" glyph-name="afii10071" horiz-adv-x="555" unicode="ё"/><glyph d="M179 557q-21 0 -12 17l59 114q7 12 17 12h97q21 0 12 -17l-60 -114q-7 -12 -17 -12h-96zM391 490q15 0 15 -15v-82q0 -15 -15 -15h-194v-363q0 -15 -15 -15h-108q-15 0 -15 15v460q0 15 15 15h317z" glyph-name="afii10100" horiz-adv-x="441" unicode="ѓ"/><glyph d="M479 97q11 -11 2 -21q-68 -88 -188 -88q-111 0 -185 74t-74 185q0 109 73 182t183 73q122 0 190 -88q9 -10 -2 -21l-60 -59q-13 -13 -26 0q-41 41 -96 41q-44 0 -76 -22t-45 -59h146q16 0 16 -15v-70q0 -15 -16 -15h-144q15 -36 46.5 -57.5t75.5 -21.5q53 0 94 41 q13 13 26 0z" glyph-name="afii10101" horiz-adv-x="519" unicode="є"/><glyph d="M130 577q-33 0 -55 22.5t-22 54.5t22 54t55 22t54.5 -22t21.5 -54q0 -33 -21.5 -55t-54.5 -22zM75 0q-15 0 -15 15v460q0 15 15 15h109q15 0 15 -15v-460q0 -15 -15 -15h-109z" glyph-name="afii10103" horiz-adv-x="260" unicode="і"/><glyph d="M15 566q-28 0 -48.5 20t-20.5 50q0 29 20.5 49t48.5 20q29 0 49 -20t20 -49q0 -30 -20 -50t-49 -20zM235 566q-29 0 -49 20t-20 50q0 29 20 49t49 20t49 -20t20 -49q0 -30 -20 -50t-49 -20zM70 0q-15 0 -15 15v460q0 15 15 15h109q15 0 15 -15v-460q0 -15 -15 -15h-109z " glyph-name="afii10104" horiz-adv-x="249" unicode="ї"/><glyph d="M255 557q-21 0 -12 17l59 114q7 12 17 12h97q21 0 12 -17l-60 -114q-7 -12 -17 -12h-96zM549 18q6 -8 3.5 -13t-12.5 -5h-128q-11 0 -18 8l-149 180l-47 -49v-124q0 -15 -15 -15h-109q-15 0 -15 15v460q0 15 15 15h109q15 0 15 -15v-167l161 174q7 8 19 8h130 q10 0 12.5 -5t-4.5 -13l-184 -193z" glyph-name="afii10109" horiz-adv-x="583" unicode="ќ"/><glyph d="M364 686q3 14 16 14h54q16 0 14 -15q-6 -55 -47.5 -92t-109.5 -37t-109.5 37t-47.5 92q-2 15 14 15h54q13 0 16 -14q5 -21 24 -36t49 -15t48.5 15t24.5 36zM160 -190q-20 0 -12 17l71 172l-189 474q-6 17 12 17h110q14 0 18 -12l117 -318l116 318q5 12 18 12h110 q18 0 12 -17l-259 -651q-4 -12 -18 -12h-106z" glyph-name="afii10110" horiz-adv-x="573" unicode="ў"/><glyph d="M469 736v-141h-3v-7q0 -15 -15 -15h-239v-558q0 -15 -15 -15h-113q-15 0 -15 15v670q0 15 15 15h259v36q0 15 15 15h96q15 0 15 -15z" glyph-name="afii10050" horiz-adv-x="503" unicode="Ґ"/><glyph d="M407 537v-103h-1v-41q0 -15 -15 -15h-194v-363q0 -15 -15 -15h-108q-15 0 -15 15v460q0 15 15 15h195v47q0 15 15 15h108q15 0 15 -15z" glyph-name="afii10098" horiz-adv-x="441" unicode="ґ"/><glyph d="M472 779l-60 114q-9 17 12 17h97q10 0 17 -12l59 -114q9 -17 -12 -17h-96q-10 0 -17 12zM1034 700q17 0 12 -17l-200 -671q-3 -12 -19 -12h-119q-16 0 -19 12l-148 509l-149 -509q-3 -12 -19 -12h-119q-16 0 -19 12l-200 671q-5 17 12 17h117q16 0 17 -12l137 -494 l151 494q4 12 17 12h109q13 0 17 -12l151 -494l137 494q3 12 17 12h117z" glyph-name="Wgrave" horiz-adv-x="1081" unicode="Ẁ"/><glyph d="M325 700h96q10 0 18 -12l59 -114q9 -17 -12 -17h-96q-10 0 -17 12l-60 114q-9 17 12 17zM202 0q-14 0 -18 12l-154 461q-6 17 12 17h105q13 0 18 -12l98 -318l107 318q4 12 18 12h105q14 0 18 -12l106 -318l98 318q5 12 19 12h104q18 0 12 -17l-153 -461q-5 -12 -18 -12 h-111q-14 0 -18 12l-110 318l-109 -318q-5 -12 -18 -12h-111z" glyph-name="wgrave" horiz-adv-x="881" unicode="ẁ"/><glyph d="M496 767q-21 0 -12 17l59 114q7 12 17 12h97q21 0 12 -17l-60 -114q-7 -12 -17 -12h-96zM1034 700q17 0 12 -17l-200 -671q-3 -12 -19 -12h-119q-16 0 -19 12l-148 509l-149 -509q-3 -12 -19 -12h-119q-16 0 -19 12l-200 671q-5 17 12 17h117q16 0 17 -12l137 -494 l151 494q4 12 17 12h109q13 0 17 -12l151 -494l137 494q3 12 17 12h117z" glyph-name="Wacute" horiz-adv-x="1081" unicode="Ẃ"/><glyph d="M557 700q21 0 12 -17l-60 -114q-7 -12 -17 -12h-96q-21 0 -12 17l59 114q7 12 17 12h97zM202 0q-14 0 -18 12l-154 461q-6 17 12 17h105q13 0 18 -12l98 -318l107 318q4 12 18 12h105q14 0 18 -12l106 -318l98 318q5 12 19 12h104q18 0 12 -17l-153 -461q-5 -12 -18 -12 h-111q-14 0 -18 12l-110 318l-109 -318q-5 -12 -18 -12h-111z" glyph-name="wacute" horiz-adv-x="881" unicode="ẃ"/><glyph d="M430 776q-28 0 -48.5 20t-20.5 50q0 29 20.5 49t48.5 20q29 0 49 -20t20 -49q0 -30 -20 -50t-49 -20zM650 776q-29 0 -49 20t-20 50q0 29 20 49t49 20t49 -20t20 -49q0 -30 -20 -50t-49 -20zM1034 700q17 0 12 -17l-200 -671q-3 -12 -19 -12h-119q-16 0 -19 12l-148 509 l-149 -509q-3 -12 -19 -12h-119q-16 0 -19 12l-200 671q-5 17 12 17h117q16 0 17 -12l137 -494l151 494q4 12 17 12h109q13 0 17 -12l151 -494l137 494q3 12 17 12h117z" glyph-name="Wdieresis" horiz-adv-x="1081" unicode="Ẅ"/><glyph d="M330 566q-28 0 -48.5 20t-20.5 50q0 29 20.5 49t48.5 20q29 0 49 -20t20 -49q0 -30 -20 -50t-49 -20zM550 566q-29 0 -49 20t-20 50q0 29 20 49t49 20t49 -20t20 -49q0 -30 -20 -50t-49 -20zM202 0q-14 0 -18 12l-154 461q-6 17 12 17h105q13 0 18 -12l98 -318l107 318 q4 12 18 12h105q14 0 18 -12l106 -318l98 318q5 12 19 12h104q18 0 12 -17l-153 -461q-5 -12 -18 -12h-111q-14 0 -18 12l-110 318l-109 -318q-5 -12 -18 -12h-111z" glyph-name="wdieresis" horiz-adv-x="881" unicode="ẅ"/><glyph d="M524 320q114 -62 114 -164q0 -78 -56.5 -123t-138.5 -45q-115 0 -185 84q-10 13 1 29l40 53q11 15 24 4q66 -49 110 -49q28 0 45 14.5t17 40.5q0 20 -12 33.5t-41 28.5l-63 37q-53 30 -79 64t-26 86q0 56 34.5 94t89.5 52q-32 23 -73 23q-52 0 -82.5 -27.5t-30.5 -82.5 v-457q0 -15 -15 -15h-113q-15 0 -15 15v478q0 102 69 154.5t177 52.5q131 0 201 -70v-170h-45q-29 0 -45.5 -13.5t-16.5 -33.5t11 -31.5t35 -23.5z" glyph-name="uni1E9E" horiz-adv-x="672" unicode="ẞ"/><glyph d="M246 779l-60 114q-9 17 12 17h97q10 0 17 -12l59 -114q9 -17 -12 -17h-96q-10 0 -17 12zM580 700q20 0 10 -18l-205 -359v-308q0 -15 -15 -15h-113q-15 0 -15 15v309l-205 358q-10 18 10 18h118q12 0 18 -10l131 -235l130 235q6 10 18 10h118z" glyph-name="Ygrave" horiz-adv-x="627" unicode="Ỳ"/><glyph d="M170 700h97q10 0 17 -12l59 -114q9 -17 -12 -17h-96q-10 0 -17 12l-60 114q-9 17 12 17zM160 -190q-20 0 -12 17l71 172l-189 474q-6 17 12 17h110q14 0 18 -12l117 -318l116 318q5 12 18 12h110q18 0 12 -17l-259 -651q-4 -12 -18 -12h-106z" glyph-name="ygrave" horiz-adv-x="573" unicode="ỳ"/><glyph d="M545 333q15 0 15 -15v-82q0 -15 -15 -15h-480q-15 0 -15 15v82q0 15 15 15h480z" glyph-name="endash" horiz-adv-x="610" unicode="–"/><glyph d="M605 333q15 0 15 -15v-82q0 -15 -15 -15h-540q-15 0 -15 15v82q0 15 15 15h540z" glyph-name="emdash" horiz-adv-x="670" unicode="—"/><glyph d="M205 715v-32q-49 1 -79 -41q-21 -29 -10 -41q3 -3 9 -3q34 0 58 -24.5t24 -58.5t-24.5 -58t-59.5 -24q-38 0 -65.5 29t-27.5 83q0 79 56.5 126t118.5 44z" glyph-name="quoteleft" horiz-adv-x="237" unicode="‘"/><glyph d="M32 436v32q49 -1 79 41q21 29 10 41q-3 3 -9 3q-34 0 -58 24.5t-24 58.5t24.5 58t59.5 24q38 0 65.5 -29t27.5 -83q0 -79 -56.5 -126t-118.5 -44z" glyph-name="quoteright" horiz-adv-x="237" unicode="’"/><glyph d="M42 -129v32q49 -1 79 41q21 29 10 41q-3 3 -9 3q-34 0 -58 24.5t-24 58.5t24.5 58t59.5 24q38 0 65.5 -29t27.5 -83q0 -79 -56.5 -126t-118.5 -44z" glyph-name="quotesinglbase" horiz-adv-x="257" unicode="‚"/><glyph d="M205 715v-32q-49 1 -79 -41q-21 -29 -10 -41q3 -3 9 -3q34 0 58 -24.5t24 -58.5t-24.5 -58t-59.5 -24q-38 0 -65.5 29t-27.5 83q0 79 56.5 126t118.5 44zM418 715v-32q-49 1 -79 -41q-21 -29 -10 -41q3 -3 9 -3q33 0 57.5 -24.5t24.5 -58.5t-24.5 -58t-59.5 -24 q-38 0 -65.5 29t-27.5 83q0 79 56.5 126t118.5 44z" glyph-name="quotedblleft" horiz-adv-x="450" unicode="“"/><glyph d="M32 436v32q49 -1 79 41q21 29 10 41q-3 3 -9 3q-34 0 -58 24.5t-24 58.5t24.5 58t59.5 24q38 0 65.5 -29t27.5 -83q0 -79 -56.5 -126t-118.5 -44zM245 436v32q49 -1 79 41q21 29 10 41q-3 3 -9 3q-34 0 -58.5 24.5t-24.5 58.5t25 58t60 24q38 0 65.5 -29t27.5 -83 q0 -79 -56.5 -126t-118.5 -44z" glyph-name="quotedblright" horiz-adv-x="450" unicode="”"/><glyph d="M42 -129v32q49 -1 79 41q21 29 10 41q-3 3 -9 3q-34 0 -58 24.5t-24 58.5t24.5 58t59.5 24q38 0 65.5 -29t27.5 -83q0 -79 -56.5 -126t-118.5 -44zM255 -129v32q49 -1 79 41q21 29 10 41q-3 3 -9 3q-34 0 -58.5 24.5t-24.5 58.5t25 58t60 24q38 0 65.5 -29t27.5 -83 q0 -79 -56.5 -126t-118.5 -44z" glyph-name="quotedblbase" horiz-adv-x="470" unicode="„"/><glyph d="M404 574q15 0 15 -15v-72q0 -15 -15 -15h-111v-111q0 -15 -15 -15h-72q-15 0 -15 15v111h-111q-15 0 -15 15v72q0 15 15 15h111v111q0 15 15 15h72q15 0 15 -15v-111h111z" glyph-name="dagger" horiz-adv-x="484" unicode="†"/><glyph d="M404 574q15 0 15 -15v-72q0 -15 -15 -15h-111v-111q0 -15 -15 -15h-72q-15 0 -15 15v111h-111q-15 0 -15 15v72q0 15 15 15h111v111q0 15 15 15h72q15 0 15 -15v-111h111zM404 163q15 0 15 -15v-72q0 -15 -15 -15h-111v-111q0 -15 -15 -15h-72q-15 0 -15 15v111h-111 q-15 0 -15 15v72q0 15 15 15h111v111q0 15 15 15h72q15 0 15 -15v-111h111z" glyph-name="daggerdbl" horiz-adv-x="484" unicode="‡"/><glyph d="M167 173q-42 0 -72 30t-30 72t30 72t72 30q41 0 71 -30t30 -72t-30 -72t-71 -30z" glyph-name="bullet" horiz-adv-x="333" unicode="•"/><glyph d="M122 -13q-34 0 -58 24t-24 58q0 35 24 59.5t58 24.5t58.5 -24.5t24.5 -59.5q0 -34 -24.5 -58t-58.5 -24zM351 -13q-34 0 -58.5 24t-24.5 58q0 35 24.5 59.5t58.5 24.5t58 -24.5t24 -59.5q0 -34 -24 -58t-58 -24zM579 -13q-34 0 -58 24t-24 58q0 35 24 59.5t58 24.5 t58 -24.5t24 -59.5q0 -34 -24 -58t-58 -24z" glyph-name="ellipsis" horiz-adv-x="701" unicode="…"/><glyph d="M187 433q-58 0 -97.5 39t-39.5 97t39.5 97t97.5 39t97.5 -39t39.5 -97t-39.5 -97t-97.5 -39zM174 8l-52 35q-13 9 -5 21l417 624q8 13 20 4l52 -35q13 -9 5 -21l-417 -624q-8 -13 -20 -4zM187 522q20 0 33 13.5t13 33.5t-13 33.5t-33 13.5t-33 -13.5t-13 -33.5t13 -33.5 t33 -13.5zM541 -5q-58 0 -97.5 39t-39.5 97t39.5 97t97.5 39t97.5 -39t39.5 -97t-39.5 -97t-97.5 -39zM864 -5q-58 0 -97.5 39t-39.5 97t39.5 97t97.5 39t97.5 -39t39.5 -97t-39.5 -97t-97.5 -39zM541 84q20 0 33 13.5t13 33.5t-13 33.5t-33 13.5t-33 -13.5t-13 -33.5 t13 -33.5t33 -13.5zM864 84q20 0 33 13.5t13 33.5t-13 33.5t-33 13.5t-33.5 -13.5t-13.5 -33.5t13.5 -33.5t33.5 -13.5z" glyph-name="perthousand" horiz-adv-x="1051" unicode="‰"/><glyph d="M201 128q0 -9 -6 -10.5t-12 3.5l-130 93q-8 7 -8 17v84q0 10 8 17l130 93q6 5 12 3.5t6 -10.5v-73q0 -13 -8 -18l-84 -54l84 -55q8 -5 8 -18v-72z" glyph-name="guilsinglleft" horiz-adv-x="246" unicode="‹"/><glyph d="M45 128v72q0 13 8 18l84 55l-84 54q-8 5 -8 18v73q0 9 6 10.5t12 -3.5l130 -93q8 -7 8 -17v-84q0 -10 -8 -17l-130 -93q-6 -5 -12 -3.5t-6 10.5z" glyph-name="guilsinglright" horiz-adv-x="246" unicode="›"/><glyph d="M312 700l-413 -700h-59l413 700h59z" glyph-name="fraction" horiz-adv-x="152" unicode="⁄"/><glyph d="M620 184l70 -75q10 -10 0 -20q-100 -102 -245 -102q-124 0 -219.5 72t-127.5 187h-43q-15 0 -15 15v49q0 15 15 15h30q-1 7 -1 22v15h-29q-15 0 -15 15v49q0 15 15 15h41q30 118 126.5 192.5t222.5 74.5q144 0 245 -101q10 -10 0 -21l-70 -75q-9 -11 -21 -1 q-70 58 -154 58q-67 0 -119.5 -34.5t-77.5 -92.5h141q15 0 15 -15v-49q0 -15 -15 -15h-160v-15q0 -15 1 -22h159q15 0 15 -15v-49q0 -15 -15 -15h-138q27 -55 78.5 -87t115.5 -32q84 0 154 58q12 10 21 -1z" glyph-name="Euro" horiz-adv-x="739" unicode="€"/><glyph d="M133 520q-5 0 -5 5v135h-58q-5 0 -5 5v30q0 5 5 5h163q5 0 5 -5v-30q0 -5 -5 -5h-58v-135q0 -5 -5 -5h-37zM275 520q-5 0 -5 5v170q0 5 5 5h42q5 0 6 -3l54 -118l56 118q1 3 6 3h41q5 0 5 -5v-170q0 -5 -5 -5h-37q-5 0 -5 5v96l-42 -98q-2 -3 -6 -3h-25q-5 0 -6 3l-41 98 v-96q0 -5 -5 -5h-38z" glyph-name="trademark" horiz-adv-x="550" unicode="™"/><glyph d="M121 701v-261h-53v210h-28v51h81zM538 700l-413 -700h-59l413 700h59zM514 263q42 0 67.5 -19t25.5 -51q0 -38 -38 -54q49 -18 49 -63q0 -38 -28 -59t-75 -21q-97 0 -97 90h52q0 -44 46 -44q21 0 34.5 9.5t13.5 26.5q0 20 -16 27.5t-51 7.5v39q57 0 57 35q0 13 -11 21.5 t-30 8.5q-40 0 -40 -42h-52q-1 43 23.5 65.5t69.5 22.5z" glyph-name="onethird" horiz-adv-x="658" unicode="⅓"/><glyph d="M121 701v-261h-53v210h-28v51h81zM524 700l-413 -700h-59l413 700h59zM452 -4q-38 0 -65 21t-27 57q0 49 44 68q-31 17 -31 53q0 28 20.5 48t58.5 20q39 0 59.5 -20t20.5 -48q0 -36 -32 -53q45 -20 45 -68q0 -36 -27.5 -57t-65.5 -21zM452 164q15 0 24 8.5t9 20.5 t-8.5 20t-24.5 8q-31 0 -31 -28q0 -12 8 -20.5t23 -8.5zM452 40q20 0 31.5 10.5t11.5 27.5q0 18 -12 29.5t-31 11.5t-30.5 -11.5t-11.5 -29.5q0 -17 11.5 -27.5t30.5 -10.5z" glyph-name="oneeighth" horiz-adv-x="590" unicode="⅛"/><glyph d="M136 703q42 0 67.5 -19t25.5 -51q0 -38 -38 -54q49 -18 49 -63q0 -38 -28 -59t-75 -21q-97 0 -97 90h52q0 -44 46 -44q21 0 34.5 9.5t13.5 26.5q0 20 -16 27.5t-51 7.5v39q57 0 57 35q0 13 -11 21.5t-30 8.5q-40 0 -40 -42h-52q-1 43 23.5 65.5t69.5 22.5zM547 700 l-413 -700h-59l413 700h59zM473 -4q-38 0 -65 21t-27 57q0 49 44 68q-31 17 -31 53q0 28 20.5 48t58.5 20q39 0 59.5 -20t20.5 -48q0 -36 -32 -53q45 -20 45 -68q0 -36 -27.5 -57t-65.5 -21zM473 164q15 0 24 8.5t9 20.5t-8.5 20t-24.5 8q-31 0 -31 -28q0 -12 8 -20.5 t23 -8.5zM473 40q20 0 31.5 10.5t11.5 27.5q0 18 -12 29.5t-31 11.5t-30.5 -11.5t-11.5 -29.5q0 -17 11.5 -27.5t30.5 -10.5z" glyph-name="threeeighths" horiz-adv-x="606" unicode="⅜"/><glyph d="M213 701v-50h-107l-5 -43q13 11 40 11q40 0 67 -25.5t27 -65.5q0 -41 -28.5 -66.5t-72.5 -25.5q-37 0 -62 18.5t-32 43.5l46 20q9 -36 48 -36q21 0 34.5 12t13.5 33q0 20 -13.5 33t-35.5 13q-29 0 -41 -23l-45 12l18 139h148zM547 700l-413 -700h-59l413 700h59zM475 -4 q-38 0 -65 21t-27 57q0 49 44 68q-31 17 -31 53q0 28 20.5 48t58.5 20q39 0 59.5 -20t20.5 -48q0 -36 -32 -53q45 -20 45 -68q0 -36 -27.5 -57t-65.5 -21zM475 164q15 0 24 8.5t9 20.5t-8.5 20t-24.5 8q-31 0 -31 -28q0 -12 8 -20.5t23 -8.5zM475 40q20 0 31.5 10.5 t11.5 27.5q0 18 -12 29.5t-31 11.5t-30.5 -11.5t-11.5 -29.5q0 -17 11.5 -27.5t30.5 -10.5z" glyph-name="fiveeighths" horiz-adv-x="608" unicode="⅝"/><glyph d="M221 701l-107 -261h-57l90 210h-107v51h181zM525 700l-413 -700h-59l413 700h59zM453 -4q-38 0 -65 21t-27 57q0 49 44 68q-31 17 -31 53q0 28 20.5 48t58.5 20q39 0 59.5 -20t20.5 -48q0 -36 -32 -53q45 -20 45 -68q0 -36 -27.5 -57t-65.5 -21zM453 164q15 0 24 8.5 t9 20.5t-8.5 20t-24.5 8q-31 0 -31 -28q0 -12 8 -20.5t23 -8.5zM453 40q20 0 31.5 10.5t11.5 27.5q0 18 -12 29.5t-31 11.5t-30.5 -11.5t-11.5 -29.5q0 -17 11.5 -27.5t30.5 -10.5z" glyph-name="seveneighths" unicode="⅞"/><glyph d="M444 433q86 -107 86 -206q0 -102 -71.5 -171t-176.5 -69q-104 0 -176 69t-72 172q0 99 62.5 164t159.5 75l-134 163q-9 10 3 21l74 65q11 9 21 -3zM282 114q49 0 81.5 33.5t32.5 84.5q0 50 -32.5 84t-81.5 34t-81.5 -34t-32.5 -84q0 -51 32 -84.5t82 -33.5z" glyph-name="partialdiff" horiz-adv-x="564" unicode="∂"/><glyph d="M70 -190q-15 0 -15 15v860q0 15 15 15h583q15 0 15 -15v-860q0 -15 -15 -15h-98q-15 0 -15 15v748h-358v-748q0 -15 -15 -15h-97z" glyph-name="product" horiz-adv-x="722" unicode="∏"/><glyph d="M70 -190q-15 0 -15 15v103q0 11 6 18l269 309l-269 309q-6 7 -6 18v103q0 15 15 15h542q15 0 15 -15v-98q0 -15 -15 -15h-395l268 -306q9 -11 0 -22l-268 -306h395q15 0 15 -15v-98q0 -15 -15 -15h-542z" glyph-name="summation" horiz-adv-x="682" unicode="∑"/><glyph d="M80 234q-15 0 -15 15v72q0 15 15 15h344q15 0 15 -15v-72q0 -15 -15 -15h-344z" glyph-name="minus" horiz-adv-x="504" unicode="−"/><glyph d="M271 -190q-14 0 -17 12l-105 383h-100q-15 0 -15 15v95q0 15 15 15h174q14 0 17 -13l91 -359l191 729q3 13 16 13h89q18 0 13 -17l-229 -860q-3 -13 -16 -13h-124z" glyph-name="radical" horiz-adv-x="675" unicode="√"/><glyph d="M610 428q74 0 126.5 -46.5t52.5 -119.5q0 -75 -52.5 -122t-126.5 -47q-101 0 -191 95q-90 -95 -190 -95q-75 0 -127.5 47t-52.5 122q0 73 52.5 119.5t127.5 46.5q100 0 190 -95q90 95 191 95zM237 183q67 0 124 78q-58 77 -124 77q-39 0 -62 -22t-23 -55t23 -55.5 t62 -22.5zM601 183q39 0 62 22.5t23 55.5t-23 55t-62 22q-66 0 -124 -77q57 -78 124 -78z" glyph-name="infinity" horiz-adv-x="838" unicode="∞"/><glyph d="M114 -190q-45 0 -76 15q-9 5 -9 15v91q0 9 13 7q27 -5 41 -5q34 0 46.5 15.5t12.5 45.5v572q0 165 168 165q45 0 75 -15q9 -4 9 -15v-91q0 -9 -13 -7q-27 5 -40 5q-34 0 -47 -15.5t-13 -45.5v-572q0 -165 -167 -165z" glyph-name="integral" horiz-adv-x="424" unicode="∫"/><glyph d="M351 272q-30 0 -58 12t-45.5 26.5t-39 26.5t-40.5 12q-39 0 -51 -31q-5 -9 -12 -9h-34q-11 0 -11 11q0 55 32.5 85t82.5 30q38 0 71 -19.5t60.5 -38.5t51.5 -19q18 0 32 9t19 21q5 9 12 9h33q11 0 11 -10q1 -56 -31.5 -85.5t-82.5 -29.5zM351 112q-30 0 -58 12 t-45.5 26.5t-39 26.5t-40.5 12q-39 0 -51 -31q-5 -9 -12 -9h-34q-11 0 -11 11q0 55 32.5 85t82.5 30q38 0 71 -19.5t60.5 -38.5t51.5 -19q18 0 32 9t19 21q5 9 12 9h33q11 0 11 -10q1 -56 -31.5 -85.5t-82.5 -29.5z" glyph-name="approxequal" horiz-adv-x="525" unicode="≈"/><glyph d="M424 315h-116l-22 -60h138q15 0 15 -15v-72q0 -15 -15 -15h-176l-52 -141q-4 -12 -18 -12h-52q-18 0 -12 17l50 136h-84q-15 0 -15 15v72q0 15 15 15h122l22 60h-144q-15 0 -15 15v72q0 15 15 15h181l49 132q4 12 18 12h52q18 0 12 -17l-47 -127h79q15 0 15 -15v-72 q0 -15 -15 -15z" glyph-name="notequal" horiz-adv-x="504" unicode="≠"/><glyph d="M405 172l-335 163q-10 7 -10 15v65q0 9 10 16l335 162q16 9 16 -8v-82q0 -10 -10 -13l-237 -107l237 -107q10 -5 10 -14v-82q0 -15 -16 -8zM75 0q-15 0 -15 15v56q0 15 15 15h331q15 0 15 -15v-56q0 -15 -15 -15h-331z" glyph-name="lessequal" horiz-adv-x="481" unicode="≤"/><glyph d="M82 172q-7 -3 -12 -1t-5 9v82q0 9 10 14l237 107l-237 107q-10 3 -10 13v82q0 17 17 8l334 -162q10 -6 10 -16v-65q0 -9 -10 -15zM412 0h-332q-15 0 -15 15v56q0 15 15 15h332q15 0 15 -15v-56q0 -15 -15 -15z" glyph-name="greaterequal" horiz-adv-x="492" unicode="≥"/><glyph d="M227 0q-13 0 -17 11l-146 329q-4 10 0 20l146 329q4 11 17 11h152q13 0 17 -11l146 -329q4 -10 0 -20l-146 -329q-4 -11 -17 -11h-152zM303 83l118 267l-118 267l-118 -267z" glyph-name="lozenge" horiz-adv-x="606" unicode="◊"/><glyph d="M771 586q11 -10 0 -21l-475 -474q-10 -11 -21 0l-242 242q-11 11 0 21l81 81q10 11 21 0l151 -152l384 383q10 10 21 0z" glyph-name="uni2713" horiz-adv-x="805" unicode="✓"/><glyph glyph-name="uniFEFF" horiz-adv-x="195" unicode="﻿"/><glyph d="M125 566q-28 0 -48.5 20t-20.5 50q0 29 20.5 49t48.5 20q29 0 49 -20t20 -49q0 -30 -20 -50t-49 -20zM70 0q-15 0 -15 15v460q0 15 15 15h109q15 0 15 -15v-460q0 -15 -15 -15h-109z" glyph-name="i.aalt" horiz-adv-x="249"/><glyph d="M498 103q13 -7 13 -19v-70q0 -7 -3 -11t-11.5 -6t-13.5 -2h-21q-90 0 -112 66q-66 -74 -167 -74q-71 0 -112.5 38.5t-41.5 107.5q0 68 41.5 103t126.5 44l145 16v30q0 35 -19.5 51t-62.5 16q-78 0 -82 -54q-2 -10 -14 -10h-96q-16 0 -15 15q5 158 212 158q112 0 164 -44 t52 -141v-173q0 -32 17 -41zM231 97q68 0 111 47v62l-127 -16q-49 -7 -49 -45q0 -48 65 -48z" glyph-name="a.salt" horiz-adv-x="555"/><glyph d="M227 557q-21 0 -12 17l59 114q7 12 17 12h97q21 0 12 -17l-60 -114q-7 -12 -17 -12h-96zM498 103q13 -7 13 -19v-70q0 -7 -3 -11t-11.5 -6t-13.5 -2h-21q-90 0 -112 66q-66 -74 -167 -74q-71 0 -112.5 38.5t-41.5 107.5q0 68 41.5 103t126.5 44l145 16v30q0 35 -19.5 51 t-62.5 16q-78 0 -82 -54q-2 -10 -14 -10h-96q-16 0 -15 15q5 158 212 158q112 0 164 -44t52 -141v-173q0 -32 17 -41zM231 97q68 0 111 47v62l-127 -16q-49 -7 -49 -45q0 -48 65 -48z" glyph-name="aacute.aalt" horiz-adv-x="555"/><glyph d="M271 556q-68 0 -109.5 37t-47.5 92q-2 15 14 15h54q13 0 16 -14q5 -21 24 -36t49 -15t48.5 15t24.5 36q3 14 16 14h54q16 0 14 -15q-6 -55 -47.5 -92t-109.5 -37zM498 103q13 -7 13 -19v-70q0 -7 -3 -11t-11.5 -6t-13.5 -2h-21q-90 0 -112 66q-66 -74 -167 -74 q-71 0 -112.5 38.5t-41.5 107.5q0 68 41.5 103t126.5 44l145 16v30q0 35 -19.5 51t-62.5 16q-78 0 -82 -54q-2 -10 -14 -10h-96q-16 0 -15 15q5 158 212 158q112 0 164 -44t52 -141v-173q0 -32 17 -41zM231 97q68 0 111 47v62l-127 -16q-49 -7 -49 -45q0 -48 65 -48z" glyph-name="abreve.aalt" horiz-adv-x="555"/><glyph d="M210 574l-91 109q-6 6 -4 12t11 6h73q11 0 18 -8l54 -66l55 66q7 8 18 8h72q9 0 11 -6t-4 -12l-91 -109q-7 -8 -17 -8h-88q-10 0 -17 8zM498 103q13 -7 13 -19v-70q0 -7 -3 -11t-11.5 -6t-13.5 -2h-21q-90 0 -112 66q-66 -74 -167 -74q-71 0 -112.5 38.5t-41.5 107.5 q0 68 41.5 103t126.5 44l145 16v30q0 35 -19.5 51t-62.5 16q-78 0 -82 -54q-2 -10 -14 -10h-96q-16 0 -15 15q5 158 212 158q112 0 164 -44t52 -141v-173q0 -32 17 -41zM231 97q68 0 111 47v62l-127 -16q-49 -7 -49 -45q0 -48 65 -48z" glyph-name="uni01CE.aalt" horiz-adv-x="555"/><glyph d="M126 565q-9 0 -11 6t4 12l91 109q7 8 17 8h88q10 0 17 -8l91 -109q4 -4 4.5 -8t-2.5 -7t-9 -3h-72q-11 0 -18 8l-55 66l-54 -66q-7 -8 -18 -8h-73zM498 103q13 -7 13 -19v-70q0 -7 -3 -11t-11.5 -6t-13.5 -2h-21q-90 0 -112 66q-66 -74 -167 -74q-71 0 -112.5 38.5 t-41.5 107.5q0 68 41.5 103t126.5 44l145 16v30q0 35 -19.5 51t-62.5 16q-78 0 -82 -54q-2 -10 -14 -10h-96q-16 0 -15 15q5 158 212 158q112 0 164 -44t52 -141v-173q0 -32 17 -41zM231 97q68 0 111 47v62l-127 -16q-49 -7 -49 -45q0 -48 65 -48z" glyph-name="acircumflex.aalt" horiz-adv-x="555"/><glyph d="M161 566q-28 0 -48.5 20t-20.5 50q0 29 20.5 49t48.5 20q29 0 49 -20t20 -49q0 -30 -20 -50t-49 -20zM381 566q-29 0 -49 20t-20 50q0 29 20 49t49 20t49 -20t20 -49q0 -30 -20 -50t-49 -20zM498 103q13 -7 13 -19v-70q0 -7 -3 -11t-11.5 -6t-13.5 -2h-21q-90 0 -112 66 q-66 -74 -167 -74q-71 0 -112.5 38.5t-41.5 107.5q0 68 41.5 103t126.5 44l145 16v30q0 35 -19.5 51t-62.5 16q-78 0 -82 -54q-2 -10 -14 -10h-96q-16 0 -15 15q5 158 212 158q112 0 164 -44t52 -141v-173q0 -32 17 -41zM231 97q68 0 111 47v62l-127 -16q-49 -7 -49 -45 q0 -48 65 -48z" glyph-name="adieresis.aalt" horiz-adv-x="555"/><glyph d="M204 569l-60 114q-9 17 12 17h97q10 0 17 -12l59 -114q9 -17 -12 -17h-96q-10 0 -17 12zM498 103q13 -7 13 -19v-70q0 -7 -3 -11t-11.5 -6t-13.5 -2h-21q-90 0 -112 66q-66 -74 -167 -74q-71 0 -112.5 38.5t-41.5 107.5q0 68 41.5 103t126.5 44l145 16v30q0 35 -19.5 51 t-62.5 16q-78 0 -82 -54q-2 -10 -14 -10h-96q-16 0 -15 15q5 158 212 158q112 0 164 -44t52 -141v-173q0 -32 17 -41zM231 97q68 0 111 47v62l-127 -16q-49 -7 -49 -45q0 -48 65 -48z" glyph-name="agrave.aalt" horiz-adv-x="555"/><glyph d="M119 593q-15 0 -15 15v77q0 15 15 15h303q16 0 16 -15v-77q0 -15 -16 -15h-303zM498 103q13 -7 13 -19v-70q0 -7 -3 -11t-11.5 -6t-13.5 -2h-21q-90 0 -112 66q-66 -74 -167 -74q-71 0 -112.5 38.5t-41.5 107.5q0 68 41.5 103t126.5 44l145 16v30q0 35 -19.5 51t-62.5 16 q-78 0 -82 -54q-2 -10 -14 -10h-96q-16 0 -15 15q5 158 212 158q112 0 164 -44t52 -141v-173q0 -32 17 -41zM231 97q68 0 111 47v62l-127 -16q-49 -7 -49 -45q0 -48 65 -48z" glyph-name="amacron.aalt" horiz-adv-x="555"/><glyph d="M498 103q13 -7 13 -19v-70q0 -16 -24 -19q-36 0 -58.5 -21t-22.5 -48q0 -22 16 -33.5t49 -4.5v-86q-22 -10 -52 -10t-58 9t-47.5 34t-19.5 61q0 78 85 123q-20 16 -29 42q-66 -74 -167 -74q-71 0 -112.5 38.5t-41.5 107.5q0 68 41.5 103t126.5 44l145 16v30 q0 35 -19.5 51t-62.5 16q-78 0 -82 -54q-2 -10 -14 -10h-96q-16 0 -15 15q5 158 212 158q112 0 164 -44t52 -141v-173q0 -32 17 -41zM231 97q68 0 111 47v62l-127 -16q-49 -7 -49 -45q0 -48 65 -48z" glyph-name="aogonek.aalt" horiz-adv-x="555"/><glyph d="M271 539q-46 0 -74.5 28.5t-28.5 71.5q0 42 29 72t74 30t74 -30t29 -72q0 -43 -28.5 -71.5t-74.5 -28.5zM271 664q-10 0 -17 -7t-7 -17t7 -17t17 -7t17 7t7 17t-7 17t-17 7zM498 103q13 -7 13 -19v-70q0 -7 -3 -11t-11.5 -6t-13.5 -2h-21q-90 0 -112 66q-66 -74 -167 -74 q-71 0 -112.5 38.5t-41.5 107.5q0 68 41.5 103t126.5 44l145 16v30q0 35 -19.5 51t-62.5 16q-78 0 -82 -54q-2 -10 -14 -10h-96q-16 0 -15 15q5 158 212 158q112 0 164 -44t52 -141v-173q0 -32 17 -41zM231 97q68 0 111 47v62l-127 -16q-49 -7 -49 -45q0 -48 65 -48z" glyph-name="aring.aalt" horiz-adv-x="555"/><glyph d="M97 608q-10 0 -10 13q4 50 33 75.5t74 25.5q43 0 91.5 -35t72.5 -35q34 0 46 28q3 8 11 8h31q10 0 10 -10q-3 -51 -32.5 -78t-74.5 -27q-27 0 -51.5 11t-40 24.5t-35 24.5t-37.5 11q-34 0 -46 -28q-3 -8 -11 -8h-31zM498 103q13 -7 13 -19v-70q0 -7 -3 -11t-11.5 -6 t-13.5 -2h-21q-90 0 -112 66q-66 -74 -167 -74q-71 0 -112.5 38.5t-41.5 107.5q0 68 41.5 103t126.5 44l145 16v30q0 35 -19.5 51t-62.5 16q-78 0 -82 -54q-2 -10 -14 -10h-96q-16 0 -15 15q5 158 212 158q112 0 164 -44t52 -141v-173q0 -32 17 -41zM231 97q68 0 111 47v62 l-127 -16q-49 -7 -49 -45q0 -48 65 -48z" glyph-name="atilde.aalt" horiz-adv-x="555"/><glyph d="M342 490q15 0 15 -15v-82q0 -15 -15 -15h-80v-363q0 -15 -15 -15h-108q-15 0 -15 15v363h-80q-15 0 -15 15v82q0 15 15 15h80v135q0 15 15 15h108q15 0 15 -15v-135h80z" glyph-name="t.aalt" horiz-adv-x="387"/><glyph d="M368 708q120 0 200.5 -91.5t80.5 -269.5t-80.5 -269t-200.5 -91q-119 0 -200 91.5t-81 268.5q0 91 23 162t63 113.5t89.5 64t105.5 21.5zM368 580q-74 0 -110.5 -63.5t-36.5 -169.5t36.5 -169t110.5 -63t110.5 63t36.5 169t-36.5 169.5t-110.5 63.5z" glyph-name="zero.tnum" horiz-adv-x="730"/><glyph d="M495 700q15 0 15 -15v-670q0 -15 -15 -15h-108q-15 0 -15 15v568h-115q-15 0 -15 15v87q0 15 15 15h238z" glyph-name="one.tnum" horiz-adv-x="730"/><glyph d="M574 117q15 0 15 -15v-87q0 -15 -15 -15h-403q-15 0 -15 15v86q0 11 7 19l210 220q1 1 10 10.5t11 11.5t10.5 11.5t11 14t9.5 14t10 15.5t8 15.5t7 17t3.5 17.5t1.5 19q0 42 -28.5 68.5t-74.5 26.5q-65 0 -115 -68q-10 -12 -22 0l-62 61q-10 10 -2 22q77 112 212 112 q100 0 163 -59.5t63 -150.5q0 -43 -17 -83.5t-33 -61.5t-37 -44l-6 -6l-175 -186h253z" glyph-name="two.tnum" horiz-adv-x="730"/><glyph d="M341 -13q-71 0 -125.5 29.5t-85.5 76.5q-7 13 3 22l67 60q10 10 21 -2q48 -59 112 -59q48 0 76 28t28 69q0 39 -27.5 67.5t-78.5 28.5h-26q-16 0 -16 16v81q0 15 16 15h25q43 0 65 24t22 57q0 36 -24.5 58.5t-62.5 22.5q-62 0 -95 -56q-8 -14 -22 -2l-63 61q-11 9 -3 21 q29 46 80.5 74.5t116.5 28.5q87 0 147 -50.5t60 -133.5q0 -56 -27.5 -94.5t-69.5 -57.5q53 -21 88 -65.5t35 -111.5q0 -92 -67.5 -150t-168.5 -58z" glyph-name="three.tnum" horiz-adv-x="730"/><glyph d="M605 249q15 0 15 -15v-84q0 -15 -15 -15h-61v-120q0 -15 -15 -15h-108q-15 0 -15 15v120h-281q-15 0 -15 15v89q0 10 5 19l285 432q6 10 18 10h111q15 0 15 -15v-436h61zM245 249h161v247z" glyph-name="four.tnum" horiz-adv-x="730"/><glyph d="M371 466q95 0 157 -67.5t62 -168.5q0 -109 -72.5 -176t-179.5 -67q-74 0 -128 31.5t-80 74.5q-7 14 6 24l72 54q13 10 24 -4q39 -53 104 -53q54 0 87.5 34.5t33.5 84.5q0 51 -33.5 84t-85.5 33q-53 0 -89 -38q-11 -12 -25 -7l-75 30q-13 6 -10 18l75 334q3 13 16 13h300 q16 0 16 -15v-87q0 -15 -16 -15h-213l-31 -134q40 17 85 17z" glyph-name="five.tnum" horiz-adv-x="730"/><glyph d="M392 467q97 -10 159 -75t62 -164q0 -103 -71.5 -172t-176.5 -69q-104 0 -176 69t-72 171q0 97 86 206l225 280q10 12 21 3l73 -65q13 -10 4 -21zM365 114q50 0 82 33.5t32 84.5q0 50 -32.5 84t-81.5 34t-81.5 -34t-32.5 -84q0 -51 32.5 -84.5t81.5 -33.5z" glyph-name="six.tnum" horiz-adv-x="730"/><glyph d="M576 700q8 0 11 -5.5t0 -13.5l-263 -666q-5 -15 -19 -15h-105q-18 0 -11 18l231 565h-275q-15 0 -15 15v87q0 15 15 15h431z" glyph-name="seven.tnum" horiz-adv-x="730"/><glyph d="M367 -13q-99 0 -171.5 60t-72.5 160q0 65 32.5 114.5t85.5 74.5q-72 52 -72 137q0 74 55 124.5t143 50.5q89 0 143.5 -50.5t54.5 -124.5q0 -85 -72 -137q53 -25 85.5 -74.5t32.5 -114.5q0 -99 -72.5 -159.5t-171.5 -60.5zM367 445q33 0 54.5 22.5t21.5 54.5 q0 33 -21.5 55t-54.5 22t-54.5 -22t-21.5 -55q0 -32 21.5 -54.5t54.5 -22.5zM367 113q46 0 76 27.5t30 73.5q0 48 -31.5 76.5t-74.5 28.5t-74.5 -28.5t-31.5 -76.5q0 -46 30 -73.5t76 -27.5z" glyph-name="eight.tnum" horiz-adv-x="730"/><glyph d="M386 708q105 0 176.5 -69t71.5 -171q0 -98 -85 -206l-225 -280q-10 -12 -21 -3l-74 65q-12 11 -3 21l134 163q-97 10 -159.5 75t-62.5 164q0 103 72 172t176 69zM386 345q49 0 81.5 34t32.5 84q0 51 -32.5 84.5t-81.5 33.5q-50 0 -82 -33.5t-32 -84.5q0 -50 32.5 -84 t81.5 -34z" glyph-name="nine.tnum" horiz-adv-x="730"/><glyph d="M150 263q50 0 80.5 -35t30.5 -91v-13q0 -56 -30.5 -91t-80.5 -35t-80 34.5t-30 91.5v13q0 57 30 91.5t80 34.5zM150 215q-27 0 -42 -21.5t-15 -56.5v-13q0 -36 15 -57.5t42 -21.5t42.5 21.5t15.5 57.5v13q0 35 -15.5 56.5t-42.5 21.5z" glyph-name="zero.dnom" horiz-adv-x="301"/><glyph d="M121 261v-261h-53v210h-28v51h81z" glyph-name="one.dnom" horiz-adv-x="166"/><glyph d="M129 264q43 0 68 -22t25 -54q0 -20 -11 -38.5t-22.5 -29.5t-44.5 -40l-35 -30h109v-50h-176v50l68 60q5 4 13.5 11.5t12 11t9.5 9t8.5 8.5t6 8t5 8.5t2.5 8t1 9.5q0 14 -11 23.5t-28 9.5q-15 0 -25.5 -10t-10.5 -26v-13h-53v14q0 38 23.5 60t65.5 22z" glyph-name="two.dnom" horiz-adv-x="262"/><glyph d="M136 263q42 0 67.5 -19t25.5 -51q0 -38 -38 -54q49 -18 49 -63q0 -38 -28 -59t-75 -21q-97 0 -97 90h52q0 -44 46 -44q21 0 34.5 9.5t13.5 26.5q0 20 -16 27.5t-51 7.5v39q57 0 57 35q0 13 -11 21.5t-30 8.5q-40 0 -40 -42h-52q-1 43 23.5 65.5t69.5 22.5z" glyph-name="three.dnom" horiz-adv-x="280"/><glyph d="M216 261v-156h27v-51h-27v-54h-53v54h-138l138 207h53zM163 187l-53 -82h53v82z" glyph-name="four.dnom" horiz-adv-x="283"/><glyph d="M213 261v-50h-107l-5 -43q13 11 40 11q40 0 67 -25.5t27 -65.5q0 -41 -28.5 -66.5t-72.5 -25.5q-37 0 -62 18.5t-32 43.5l46 20q9 -36 48 -36q21 0 34.5 12t13.5 33q0 20 -13.5 33t-35.5 13q-29 0 -41 -23l-45 12l18 139h148z" glyph-name="five.dnom" horiz-adv-x="275"/><glyph d="M209 261l-75 -97q3 1 7 1q31 0 56.5 -24t25.5 -60q0 -37 -26 -61t-65 -24t-65.5 24t-26.5 61q0 8 1.5 16t2.5 14t5 14t5.5 11.5t8 12t8 10.5t9.5 12t9 11l62 79h58zM132 120q-17 0 -29 -11t-12 -28q0 -18 12 -29t29 -11q18 0 29.5 11t11.5 29q0 17 -12 28t-29 11z" glyph-name="six.dnom" horiz-adv-x="263"/><glyph d="M221 261l-107 -261h-57l90 210h-107v51h181z" glyph-name="seven.dnom" horiz-adv-x="256"/><glyph d="M132 -4q-38 0 -65 21t-27 57q0 49 44 68q-31 17 -31 53q0 28 20.5 48t58.5 20q39 0 59.5 -20t20.5 -48q0 -36 -32 -53q45 -20 45 -68q0 -36 -27.5 -57t-65.5 -21zM132 164q15 0 24 8.5t9 20.5t-8.5 20t-24.5 8q-31 0 -31 -28q0 -12 8 -20.5t23 -8.5zM132 40 q20 0 31.5 10.5t11.5 27.5q0 18 -12 29.5t-31 11.5t-30.5 -11.5t-11.5 -29.5q0 -17 11.5 -27.5t30.5 -10.5z" glyph-name="eight.dnom" horiz-adv-x="265"/><glyph d="M54 0l75 97q-3 -1 -7 -1q-31 0 -56.5 24t-25.5 60q0 37 26 61t65 24t65.5 -24t26.5 -61q0 -8 -1.5 -16t-2.5 -14t-5 -14t-5.5 -11.5t-8 -12t-8 -10.5t-9.5 -12t-9 -11l-62 -79h-58zM131 141q18 0 30 11t12 28q0 18 -12 29t-30 11q-17 0 -28.5 -11t-11.5 -29 q0 -17 11.5 -28t28.5 -11z" glyph-name="nine.dnom" horiz-adv-x="263"/><glyph d="M150 703q50 0 80.5 -35t30.5 -91v-13q0 -56 -30.5 -91t-80.5 -35t-80 34.5t-30 91.5v13q0 57 30 91.5t80 34.5zM150 655q-27 0 -42 -21.5t-15 -56.5v-13q0 -36 15 -57.5t42 -21.5t42.5 21.5t15.5 57.5v13q0 35 -15.5 56.5t-42.5 21.5z" glyph-name="zero.numr" horiz-adv-x="301"/><glyph d="M121 701v-261h-53v210h-28v51h81z" glyph-name="one.numr" horiz-adv-x="166"/><glyph d="M129 704q43 0 68 -22t25 -54q0 -20 -11 -38.5t-22.5 -29.5t-44.5 -40l-35 -30h109v-50h-176v50l68 60q5 4 13.5 11.5t12 11t9.5 9t8.5 8.5t6 8t5 8.5t2.5 8t1 9.5q0 14 -11 23.5t-28 9.5q-15 0 -25.5 -10t-10.5 -26v-13h-53v14q0 38 23.5 60t65.5 22z" glyph-name="two.numr" horiz-adv-x="262"/><glyph d="M136 703q42 0 67.5 -19t25.5 -51q0 -38 -38 -54q49 -18 49 -63q0 -38 -28 -59t-75 -21q-97 0 -97 90h52q0 -44 46 -44q21 0 34.5 9.5t13.5 26.5q0 20 -16 27.5t-51 7.5v39q57 0 57 35q0 13 -11 21.5t-30 8.5q-40 0 -40 -42h-52q-1 43 23.5 65.5t69.5 22.5z" glyph-name="three.numr" horiz-adv-x="280"/><glyph d="M216 701v-156h27v-51h-27v-54h-53v54h-138l138 207h53zM163 627l-53 -82h53v82z" glyph-name="four.numr" horiz-adv-x="283"/><glyph d="M213 701v-50h-107l-5 -43q13 11 40 11q40 0 67 -25.5t27 -65.5q0 -41 -28.5 -66.5t-72.5 -25.5q-37 0 -62 18.5t-32 43.5l46 20q9 -36 48 -36q21 0 34.5 12t13.5 33q0 20 -13.5 33t-35.5 13q-29 0 -41 -23l-45 12l18 139h148z" glyph-name="five.numr" horiz-adv-x="275"/><glyph d="M209 701l-75 -97q3 1 7 1q31 0 56.5 -24t25.5 -60q0 -37 -26 -61t-65 -24t-65.5 24t-26.5 61q0 8 1.5 16t2.5 14t5 14t5.5 11.5t8 12t8 10.5t9.5 12t9 11l62 79h58zM132 560q-17 0 -29 -11t-12 -28q0 -18 12 -29t29 -11q18 0 29.5 11t11.5 29q0 17 -12 28t-29 11z" glyph-name="six.numr" horiz-adv-x="263"/><glyph d="M221 701l-107 -261h-57l90 210h-107v51h181z" glyph-name="seven.numr" horiz-adv-x="256"/><glyph d="M132 436q-38 0 -65 21t-27 57q0 49 44 68q-31 17 -31 53q0 28 20.5 48t58.5 20q39 0 59.5 -20t20.5 -48q0 -36 -32 -53q45 -20 45 -68q0 -36 -27.5 -57t-65.5 -21zM132 604q15 0 24 8.5t9 20.5t-8.5 20t-24.5 8q-31 0 -31 -28q0 -12 8 -20.5t23 -8.5zM132 480 q20 0 31.5 10.5t11.5 27.5q0 18 -12 29.5t-31 11.5t-30.5 -11.5t-11.5 -29.5q0 -17 11.5 -27.5t30.5 -10.5z" glyph-name="eight.numr" horiz-adv-x="265"/><glyph d="M54 440l75 97q-3 -1 -7 -1q-31 0 -56.5 24t-25.5 60q0 37 26 61t65 24t65.5 -24t26.5 -61q0 -8 -1.5 -16t-2.5 -14t-5 -14t-5.5 -11.5t-8 -12t-8 -10.5t-9.5 -12t-9 -11l-62 -79h-58zM131 581q18 0 30 11t12 28q0 18 -12 29t-30 11q-17 0 -28.5 -11t-11.5 -29 q0 -17 11.5 -28t28.5 -11z" glyph-name="nine.numr" horiz-adv-x="263"/><glyph d="M305 769q-9 0 -13 4.5t0 12.5l60 114q7 12 17 12h96q9 0 12.5 -5t-0.5 -13l-60 -113q-7 -12 -17 -12h-95zM662 17q3 -7 -1 -12t-12 -5h-118q-13 0 -17 12l-34 103h-264l-34 -103q-4 -12 -17 -12h-118q-19 0 -12 17l234 671q5 12 19 12h121q15 0 19 -12zM257 242h182 l-91 278z" glyph-name="glyph499" horiz-adv-x="698"/><glyph d="M390 912q9 0 12.5 -5t-0.5 -13l-60 -113q-7 -12 -17 -12h-96q-21 0 -12 17l59 114q7 12 17 12h97zM84 0q-15 0 -15 15v670q0 15 15 15h356q15 0 15 -15v-97q0 -15 -15 -15h-228v-155h215q15 0 15 -15v-97q0 -15 -15 -15h-215v-164h228q15 0 15 -15v-97q0 -15 -15 -15 h-356z" glyph-name="glyph500" horiz-adv-x="516"/><glyph d="M305 769q-21 0 -12 17l59 114q7 12 17 12h97q9 0 12.5 -5t-0.5 -13l-60 -113q-7 -12 -17 -12h-96zM613 700q15 0 15 -15v-670q0 -15 -15 -15h-113q-15 0 -15 15v456l-250 -461q-6 -10 -18 -10h-133q-15 0 -15 15v670q0 15 15 15h113q15 0 15 -15v-456l250 461q6 10 18 10 h133z" glyph-name="glyph501" horiz-adv-x="698"/><glyph d="M526 912q9 0 12.5 -5t-0.5 -13l-60 -113q-7 -12 -17 -12h-95q-9 0 -13 4.5t0 12.5l60 114q7 12 17 12h96zM409 -13q-150 0 -255 104.5t-105 255.5q0 152 105 256.5t255 104.5t255 -104.5t105 -256.5q0 -151 -105 -255.5t-255 -104.5zM409 127q92 0 153.5 63t61.5 157 q0 95 -61.5 158t-153.5 63t-153.5 -63.5t-61.5 -157.5t61.5 -157t153.5 -63z" glyph-name="glyph502" horiz-adv-x="820"/><glyph d="M298 769q-21 0 -12 17l60 114q7 12 17 12h96q9 0 12.5 -5t-0.5 -13l-60 -113q-7 -12 -17 -12h-96zM639 700q9 0 12 -5t-1 -13l-391 -672q-6 -10 -18 -10h-119q-20 0 -10 18l157 271l-232 393q-5 8 -2 13t12 5h119q13 0 19 -10l159 -272l158 272q6 10 18 10h119z" glyph-name="glyph503" horiz-adv-x="687"/><glyph d="M553 912q9 0 13 -5t-1 -13l-60 -113q-7 -12 -17 -12h-95q-21 0 -12 17l59 114q7 12 17 12h96zM84 700h113q15 0 15 -15v-230h83q121 0 183.5 -61.5t62.5 -166.5q0 -104 -62.5 -165.5t-183.5 -61.5h-211q-15 0 -15 15v670q0 15 15 15zM626 0q-15 0 -15 15v670q0 15 15 15 h113q15 0 15 -15v-670q0 -15 -15 -15h-113zM212 328v-201h78q114 0 114 100q0 101 -114 101h-78z" glyph-name="glyph504" horiz-adv-x="822"/><glyph d="M314 769q-21 0 -12 17l59 114q7 12 17 12h96q9 0 13 -5t0 -13l-61 -113q-7 -12 -17 -12h-95zM300 708q150 0 255 -104t105 -257t-105 -256.5t-255 -103.5q-146 0 -246 102q-10 10 0 20l70 75q9 11 21 1q70 -58 154 -58q77 0 133.5 44t75.5 116h-225q-15 0 -15 15v96 q0 15 15 15h223q-20 70 -76 112.5t-131 42.5q-84 0 -154 -58q-12 -10 -21 1l-70 75q-10 11 0 21q101 101 246 101z" glyph-name="glyph505" horiz-adv-x="706"/><glyph d="M469 769q-21 0 -12 17l59 114q7 12 17 12h97q9 0 12.5 -5t-0.5 -13l-60 -113q-7 -12 -17 -12h-96zM627 708q150 0 255 -104.5t105 -256.5q0 -151 -105 -255.5t-255 -104.5q-134 0 -234 85t-121 215h-60v-272q0 -15 -15 -15h-113q-15 0 -15 15v670q0 15 15 15h113 q15 0 15 -15v-272h61q23 128 122.5 211.5t231.5 83.5zM627 127q92 0 153.5 63t61.5 157t-61.5 157.5t-153.5 63.5t-153.5 -63.5t-61.5 -157.5t61.5 -157t153.5 -63z" glyph-name="glyph506" horiz-adv-x="1038"/><glyph d="M267 769q-21 0 -12 17l59 114q7 12 17 12h97q9 0 12.5 -5t-0.5 -13l-60 -113q-7 -12 -17 -12h-96zM517 700q15 0 15 -15v-670q0 -15 -15 -15h-113q-15 0 -15 15v230h-51l-148 -235q-6 -10 -18 -10h-120q-21 0 -10 18l157 243q-139 49 -139 212q0 104 62.5 165.5 t183.5 61.5h211zM389 372v201h-78q-114 0 -114 -100q0 -101 114 -101h78z" glyph-name="glyph507" horiz-adv-x="602"/><glyph d="M261 559q-21 0 -12 17l59 114q7 12 17 12h97q9 0 12.5 -5t-0.5 -13l-61 -113q-7 -12 -17 -12h-95zM542 490q15 0 15 -15v-460q0 -15 -16 -15h-97q-15 0 -15 15l-2 54q-55 -81 -160 -81q-103 0 -168 73t-65 184q0 110 65.5 183.5t167.5 73.5q107 0 160 -81l2 54 q0 15 15 15h98zM296 114q55 0 89.5 36t34.5 95t-34.5 95t-89.5 36t-91 -36.5t-36 -94.5q0 -59 36 -95t91 -36z" glyph-name="glyph508" horiz-adv-x="618"/><glyph d="M254 589q-21 0 -12 17l59 114q7 12 17 12h96q9 0 12.5 -5t-0.5 -13l-60 -113q-7 -12 -17 -12h-95zM521 268q0 -38 -11.5 -56.5t-42.5 -18.5h-297q23 -96 144 -96q62 0 114 30q10 6 17 -4l37 -51q8 -11 -5 -22q-62 -62 -174 -62q-119 0 -194 73.5t-75 185.5 q0 110 70 182.5t182 72.5q108 0 171.5 -68.5t63.5 -165.5zM287 388q-47 0 -79 -25t-40 -73h230q-6 48 -35.5 73t-75.5 25z" glyph-name="glyph509" horiz-adv-x="556"/><glyph d="M272 559q-21 0 -12 17l59 114q7 12 17 12h96q9 0 13 -5t-1 -13l-60 -113q-7 -12 -17 -12h-95zM533 490q15 0 15 -15v-460q0 -15 -15 -15h-109q-15 0 -15 15v293l-190 -298q-7 -10 -19 -10h-126q-15 0 -15 15v460q0 15 15 15h109q15 0 15 -15v-293l190 298q7 10 19 10h126 z" glyph-name="glyph510" horiz-adv-x="608"/><glyph d="M407 702q9 0 12.5 -5t-0.5 -13l-60 -113q-7 -12 -17 -12h-96q-21 0 -12 17l59 114q8 12 18 12h96zM291 -12q-110 0 -183.5 74t-73.5 183t73.5 183t183.5 74t183 -74t73 -183t-73 -183t-183 -74zM291 115q53 0 88 35.5t35 94.5t-35 94.5t-88 35.5q-54 0 -89 -35.5 t-35 -94.5t35 -94.5t89 -35.5z" glyph-name="glyph511" horiz-adv-x="582"/><glyph d="M407 702q9 0 13 -5t-1 -13l-60 -113q-7 -12 -17 -12h-95q-21 0 -12 17l59 114q7 12 17 12h96zM160 -190q-20 0 -12 17l71 172l-189 474q-6 17 12 17h110q14 0 18 -12l117 -318l116 318q5 12 18 12h110q18 0 12 -17l-259 -651q-4 -12 -18 -12h-106z" glyph-name="glyph512" horiz-adv-x="574"/><glyph d="M516 702q9 0 12.5 -5t-0.5 -13l-60 -113q-7 -12 -17 -12h-96q-21 0 -12 17l59 114q7 12 17 12h97zM336 345q190 0 190 -172q0 -173 -190 -173h-262q-15 0 -15 15v460q0 15 15 15h109q15 0 15 -15v-130h138zM724 490q15 0 15 -15v-460q0 -15 -15 -15h-109q-15 0 -15 15 v460q0 15 15 15h109zM316 108q78 0 78 65q0 64 -78 64h-118v-129h118z" glyph-name="glyph513" horiz-adv-x="798"/><glyph d="M210 559q-21 0 -12 17l59 114q7 12 17 12h96q9 0 13 -5t-1 -13l-60 -113q-7 -12 -17 -12h-95zM228 502q111 0 184 -73t73 -182q0 -111 -74 -185t-186 -74q-119 0 -187 88q-9 11 1 21l61 59q13 13 26 0q41 -41 94 -41q44 0 75.5 21.5t46.5 57.5h-145q-15 0 -15 15v70 q0 15 15 15h147q-13 37 -45 59t-77 22q-54 0 -95 -41q-13 -13 -26 0l-61 59q-10 10 -1 21q68 88 189 88z" glyph-name="glyph514" horiz-adv-x="520"/><glyph d="M357 559q-21 0 -12 17l59 114q7 12 17 12h96q9 0 12.5 -5t-0.5 -13l-60 -113q-7 -12 -17 -12h-95zM511 502q110 0 183 -74t73 -183t-73 -183t-183 -74q-95 0 -164 56t-87 144h-62v-174q0 -15 -15 -15h-109q-15 0 -15 15v460q0 15 15 15h109q15 0 15 -15v-174h61 q18 89 87 145.5t165 56.5zM511 115q53 0 88 35.5t35 94.5t-35 94.5t-88 35.5q-54 0 -89 -35.5t-35 -94.5t35 -94.5t89 -35.5z" glyph-name="glyph515" horiz-adv-x="803"/><glyph d="M222 559q-21 0 -12 17l59 114q8 12 18 12h96q9 0 12.5 -5t-0.5 -13l-60 -113q-7 -12 -17 -12h-96zM490 490q15 0 15 -15v-460q0 -15 -15 -15h-109q-15 0 -15 15v130h-76l-114 -137q-7 -8 -18 -8h-112q-10 0 -12 5t4 13l115 136q-115 30 -115 163q0 173 190 173h262z M249 253h117v129h-117q-79 0 -79 -65q0 -64 79 -64z" glyph-name="glyph516" horiz-adv-x="565"/></font>
</defs>
</svg>
