<?xml version="1.0" standalone="no"?>
<!DOCTYPE svg PUBLIC "-//W3C//DTD SVG 1.1//EN" "http://www.w3.org/Graphics/SVG/1.1/DTD/svg11.dtd">
<svg xmlns="http://www.w3.org/2000/svg"><metadata>This SVG WebFont was generated by YouWorkForThem.
</metadata><defs><font horiz-adv-x="555" id="ywftsvg"><font-face ascent="800" bbox="-160 -225 1104 926" cap-height="700" descent="-200" font-family="" font-stretch="normal" font-weight="100" panose-1="0 0 2 0 0 0 0 0 0 0" underline-position="0" underline-thickness="0" unicode-range="U+0020-FEFF" units-per-em="1000" x-height="490"/><missing-glyph d="M406 800v-990h-314v990h314zM330 734h-164v-33h65v-37h-66v-32h165v32h-66v37h66v33zM264 606h-99v-103h165v34h-66v69zM231 572v-35h-33v35h33zM330 476h-165v-32h66v-37h-66v-33h99v70h66v32zM330 417h-33v-65h-132v-34h165v99zM330 296h-99v-55h33v22h33v-46h-99v79 h-33v-112h165v112zM330 125h-165v-112h165v112zM297 92v-46h-99v46h99zM330 -10h-165v-32h70l-70 -47v-33h165v33h-101l69 47h32v32z" horiz-adv-x="495"/><glyph d="M406 800v-990h-314v990h314zM330 734h-164v-33h65v-37h-66v-32h165v32h-66v37h66v33zM264 606h-99v-103h165v34h-66v69zM231 572v-35h-33v35h33zM330 476h-165v-32h66v-37h-66v-33h99v70h66v32zM330 417h-33v-65h-132v-34h165v99zM330 296h-99v-55h33v22h33v-46h-99v79 h-33v-112h165v112zM330 125h-165v-112h165v112zM297 92v-46h-99v46h99zM330 -10h-165v-32h70l-70 -47v-33h165v33h-101l69 47h32v32z" glyph-name=".notdef" horiz-adv-x="495"/><glyph glyph-name="glyph1" horiz-adv-x="0"/><glyph glyph-name="glyph2" horiz-adv-x="333"/><glyph glyph-name="space" horiz-adv-x="203" unicode=" "/><glyph d="M95 172q-11 0 -11 13l-5 502q0 13 11 13h16q12 0 12 -13l-5 -502q0 -13 -12 -13h-6zM97 -13q-14 0 -24 9.5t-10 24.5q0 13 10.5 23.5t23.5 10.5q14 0 24.5 -10t10.5 -24q0 -15 -10 -24.5t-25 -9.5z" glyph-name="exclam" horiz-adv-x="195" unicode="!"/><glyph d="M71 700q13 0 14 -13l-3 -192q1 -12 -12 -12h-7q-13 0 -12 12l-3 192q1 13 14 13h9zM148 700q13 0 14 -13l-3 -192q1 -12 -12 -12h-7q-13 0 -12 12l-3 192q1 13 14 13h9z" glyph-name="quotedbl" horiz-adv-x="210" unicode="&quot;"/><glyph d="M602 487q13 0 10 -12l-2 -9q-3 -11 -15 -11h-88l-56 -210h87q12 0 10 -11l-2 -9q-3 -12 -15 -12h-88l-53 -201q-3 -12 -15 -12h-10q-13 0 -8 17l52 196h-212l-53 -201q-3 -12 -15 -12h-10q-13 0 -8 17l52 196h-88q-13 0 -10 12l2 9q2 11 15 11h89l56 210h-88 q-13 0 -10 11l2 9q3 12 15 12h89l53 201q3 12 14 12h10q14 0 9 -17l-52 -196h212l53 201q3 12 14 12h10q14 0 9 -17l-52 -196h87zM417 245l56 210h-212l-56 -210h212z" glyph-name="numbersign" horiz-adv-x="677" unicode="#"/><glyph d="M370 232q1 -58 -38.5 -93t-98.5 -41v-86q0 -12 -11 -12h-10q-12 0 -12 12v85q-80 6 -133 69q-10 12 -3 23l4 5q10 10 22 -3q46 -61 125 -61q54 0 88 26t34 73q0 40 -24 64.5t-68 43.5l-56 23q-53 23 -82.5 52t-29.5 77q0 51 35 83.5t88 37.5v78q0 12 12 12h10 q11 0 11 -12v-78q71 -6 114 -62q9 -10 -1 -23v1q-12 -13 -24 0q-45 51 -106 51q-43 0 -73.5 -21.5t-30.5 -63.5q0 -41 24.5 -62.5t79.5 -44.5l36 -15q57 -24 87.5 -54.5t30.5 -83.5z" glyph-name="dollar" horiz-adv-x="432" unicode="$"/><glyph d="M187 435q-56 0 -96.5 39t-40.5 95q0 57 40.5 96.5t96.5 39.5t96.5 -39.5t40.5 -96.5q0 -56 -40.5 -95t-96.5 -39zM134 1l-7 6q-8 7 -2 17l452 669q8 13 17 6l7 -6q8 -7 2 -17l-452 -669q-8 -13 -17 -6zM187 465q45 0 75 29.5t30 74.5q0 47 -30 76.5t-75 29.5t-75 -29.5 t-30 -76.5q0 -45 30 -74.5t75 -29.5zM541 -5q-56 0 -96.5 39t-40.5 95q0 57 40.5 96.5t96.5 39.5t96.5 -39.5t40.5 -96.5q0 -56 -40.5 -95t-96.5 -39zM541 25q45 0 75 29.5t30 74.5q0 47 -30 76.5t-75 29.5t-75 -29.5t-30 -76.5q0 -45 30 -74.5t75 -29.5z" glyph-name="percent" horiz-adv-x="728" unicode="%"/><glyph d="M617 21q8 -11 -2 -21l-3 -2q-11 -11 -20 1l-104 118q-92 -130 -230 -130q-87 0 -142.5 50.5t-55.5 138.5q0 70 38.5 122t123.5 107l9 6l-14 16q-73 82 -73 152q0 53 36 89t97 36q60 0 96.5 -36.5t36.5 -88.5q0 -89 -117 -168l-11 -7l201 -230l78 130q4 5 8 5h23 q3 0 5 -2.5t-1 -8.5l-87 -148l-2 -3zM179 578q0 -12 3 -24.5t6 -22t10.5 -22t11.5 -19.5t13.5 -19t12.5 -15.5t13 -14.5l10 -11l13 8q54 36 78.5 66.5t24.5 70.5q0 44 -27.5 70t-70.5 26t-70.5 -25.5t-27.5 -67.5zM260 22q120 0 205 122l-211 240l-31 -21q-43 -29 -66 -49 t-41.5 -55t-18.5 -78q0 -79 47 -119t116 -40z" glyph-name="ampersand" horiz-adv-x="675" unicode="&amp;"/><glyph d="M71 700q13 0 14 -13l-3 -192q1 -12 -12 -12h-7q-13 0 -12 12l-3 192q1 13 14 13h9z" glyph-name="quotesingle" horiz-adv-x="133" unicode="'"/><glyph d="M177 745q19 0 12 -18q-93 -178 -93 -407q0 -242 92 -432q8 -18 -11 -18h-1q-12 0 -18 10q-48 84 -71.5 203t-23.5 237q0 106 24.5 219t70.5 196q6 10 18 10h1z" glyph-name="parenleft" horiz-adv-x="254" unicode="("/><glyph d="M76 745h1q12 0 18 -10q46 -83 70.5 -196t24.5 -219q0 -118 -23.5 -237t-71.5 -203q-6 -10 -18 -10h-1q-19 0 -11 18q92 187 92 432q0 228 -92 407q-8 18 11 18z" glyph-name="parenright" horiz-adv-x="254" unicode=")"/><glyph d="M194 589l-5 111h43l-4 -111h-34zM183 554l-108 29l10 40l109 -34zM239 554l-11 35l109 34l10 -40zM149 439l-35 23l69 92l28 -23zM273 439l-62 92l28 23l69 -92z" glyph-name="asterisk" horiz-adv-x="422" unicode="*"/><glyph d="M322 303q13 0 13 -13v-13q0 -14 -13 -14h-101v-102q0 -13 -14 -13h-13q-13 0 -13 13v102h-103q-13 0 -13 14v13q0 13 13 13h103v101q0 13 13 13h13q14 0 14 -13v-101h101z" glyph-name="plus" horiz-adv-x="400" unicode="+"/><glyph d="M47 -122v23q41 2 56 41q10 30 -4 39q-4 2 -8 2q-20 -1 -30.5 8.5t-10.5 25.5q0 17 12 27.5t28 10.5q22 0 36.5 -20.5t14.5 -49.5q0 -39 -22 -72.5t-72 -34.5z" glyph-name="comma" horiz-adv-x="190" unicode=","/><glyph d="M368 304q12 0 12 -12v-11q0 -12 -12 -12h-298q-12 0 -12 12v11q0 12 12 12h298z" glyph-name="hyphen" horiz-adv-x="438" unicode="-"/><glyph d="M82 -13q-14 0 -24 9.5t-10 24.5q0 13 10 23.5t24 10.5t24.5 -10t10.5 -24q0 -15 -10 -24.5t-25 -9.5z" glyph-name="period" horiz-adv-x="165" unicode="."/><glyph d="M366 745q16 0 10 -17l-320 -846q-4 -12 -16 -12h-8q-16 0 -10 17l320 846q4 12 16 12h8z" glyph-name="slash" horiz-adv-x="398" unicode="/"/><glyph d="M300 708q120 0 183 -97t63 -264q0 -166 -63.5 -263t-182.5 -97q-120 0 -183.5 97t-63.5 263q0 167 63.5 264t183.5 97zM300 673q-98 0 -154.5 -84t-56.5 -242q0 -157 57 -241t154 -84t154 84t57 241q0 158 -57 242t-154 84z" glyph-name="zero" horiz-adv-x="600" unicode="0"/><glyph d="M179 700q12 0 12 -13v-674q0 -13 -12 -13h-11q-11 0 -11 13v654h-104q-10 0 -10 13v7q0 13 10 13h126z" glyph-name="one" horiz-adv-x="260" unicode="1"/><glyph d="M391 33q14 0 14 -13v-7q0 -13 -14 -13h-335q-14 0 -14 13v11q0 12 7 19l222 282q33 41 49.5 64.5t33.5 63t17 76.5q0 64 -40.5 104.5t-108.5 40.5q-92 0 -144 -85q-3 -6 -8.5 -6.5t-8.5 2.5l-8 6q-8 8 -1 22q59 95 170 95q85 0 134.5 -52t49.5 -127q0 -55 -26 -103.5 t-74 -107.5l-223 -285h308z" glyph-name="two" horiz-adv-x="481" unicode="2"/><glyph d="M226 -13q-115 0 -180 91q-7 8 3 18l8 7q8 8 15 -2q55 -80 156 -80q76 0 124.5 46.5t48.5 122.5q0 82 -55.5 127.5t-129.5 45.5h-12h-5t-4 0.5t-2.5 2l-1 3t-0.5 4.5v12q0 11 13 11h13q67 0 110 41.5t43 105.5q0 57 -37 94t-99 37q-86 0 -137 -78q-8 -10 -17 -2l-9 7 q-5 6 1 16q25 39 66.5 65t95.5 26q76 0 122.5 -47.5t46.5 -115.5q0 -52 -28 -95t-81 -70q65 -20 103.5 -71t38.5 -121q0 -85 -58.5 -143t-151.5 -58z" glyph-name="three" horiz-adv-x="496" unicode="3"/><glyph d="M463 218q10 0 10 -13v-7q0 -13 -10 -13h-81v-172q0 -13 -11 -13h-12q-11 0 -11 13v172h-285q-15 0 -15 15v13q0 7 4 12l290 465q7 10 16 10h11q13 0 13 -15v-467h81zM87 218h261v420z" glyph-name="four" horiz-adv-x="521" unicode="4"/><glyph d="M258 448q90 0 153.5 -61.5t63.5 -164.5q0 -106 -65 -170.5t-160 -64.5q-60 0 -108.5 24.5t-75.5 58.5q-8 12 0 18l9 9q9 6 18 -6q61 -70 157 -70q79 0 136 55t57 145q0 87 -53.5 140t-131.5 53q-102 0 -157 -76q-5 -9 -25 0h1q-13 5 -10 18l68 331q3 13 16 13h268 q10 0 10 -13v-7q0 -13 -10 -13h-256l-59 -288l2 7q25 30 66.5 46t85.5 16z" glyph-name="five" horiz-adv-x="535" unicode="5"/><glyph d="M284 434q87 0 146.5 -63t59.5 -156q0 -97 -60 -162.5t-155 -65.5t-155 64.5t-60 160.5q0 82 57 159l250 340q8 13 17 5l12 -6q7 -5 0 -16l-210 -280q40 20 98 20zM275 21q78 0 130 53t52 137t-52 136.5t-130 52.5t-129.5 -52.5t-51.5 -136.5t51.5 -137t129.5 -53z" glyph-name="six" horiz-adv-x="551" unicode="6"/><glyph d="M446 700q6 0 9 -5t0 -12l-283 -668q-8 -15 -16 -15h-10q-15 0 -9 16l278 651h-362q-10 0 -10 13v7q0 13 10 13h393z" glyph-name="seven" horiz-adv-x="486" unicode="7"/><glyph d="M261 -13q-91 0 -149.5 57.5t-58.5 143.5q0 74 42.5 126t103.5 69q-52 19 -80 62.5t-28 95.5q0 70 47.5 118.5t122.5 48.5t122.5 -48.5t47.5 -118.5q0 -52 -28 -95.5t-80 -62.5q61 -17 103.5 -69t42.5 -126q0 -87 -58 -144t-150 -57zM261 400q61 0 100 40t39 101 q0 60 -38 97.5t-101 37.5q-62 0 -100 -37.5t-38 -97.5q0 -61 38.5 -101t99.5 -40zM261 18q78 0 127.5 48.5t49.5 123.5t-51 123.5t-126 48.5q-74 0 -125 -48.5t-51 -123.5q0 -74 49 -123t127 -49z" glyph-name="eight" horiz-adv-x="522" unicode="8"/><glyph d="M275 708q95 0 155 -64.5t60 -160.5q0 -83 -56 -159l-250 -340q-8 -14 -18 -5l-12 6q-6 5 1 16l211 281q-39 -20 -99 -20q-87 0 -147 63t-60 155q0 97 60 162.5t155 65.5zM275 295q78 0 130 52.5t52 136.5t-52 137t-130 53q-77 0 -129 -53t-52 -137t51.5 -136.5 t129.5 -52.5z" glyph-name="nine" horiz-adv-x="551" unicode="9"/><glyph d="M82 434q-14 0 -24 10t-10 25q0 13 10 23t24 10t24.5 -10t10.5 -23q0 -15 -10.5 -25t-24.5 -10zM82 -12q-14 0 -24 9.5t-10 24.5q0 14 10 24t24 10t24.5 -10t10.5 -24q0 -15 -10 -24.5t-25 -9.5z" glyph-name="colon" horiz-adv-x="165" unicode=":"/><glyph d="M83 434q-14 0 -24 10t-10 25q0 13 10 23t24 10t24.5 -10t10.5 -23q0 -15 -10.5 -25t-24.5 -10zM47 -122v23q41 2 56 41q10 30 -4 39q-4 2 -8 2q-20 -1 -30.5 8.5t-10.5 25.5q0 17 12 27.5t28 10.5q22 0 36.5 -20.5t14.5 -49.5q0 -39 -22 -72.5t-72 -34.5z" glyph-name="semicolon" horiz-adv-x="190" unicode=";"/><glyph d="M439 20l-368 205q-11 5 -11 19v12q0 12 11 18l368 207q7 5 12.5 2t5.5 -11v-9q0 -12 -11 -17l-357 -195l357 -196q11 -6 11 -16v-10q0 -8 -5.5 -10.5t-12.5 1.5z" glyph-name="less" horiz-adv-x="517" unicode="&lt;"/><glyph d="M78 318q-13 0 -13 14v13q0 13 13 13h264q13 0 13 -13v-13q0 -14 -13 -14h-264zM78 210q-13 0 -13 14v13q0 13 13 13h264q13 0 13 -13v-13q0 -14 -13 -14h-264z" glyph-name="equal" horiz-adv-x="420" unicode="="/><glyph d="M78 20q-8 -4 -13 -1.5t-5 10.5v10q0 10 11 16l357 196l-357 195q-11 5 -11 17v9q0 8 5 11t13 -2l368 -207q11 -6 11 -18v-12q0 -14 -11 -19z" glyph-name="greater" horiz-adv-x="517" unicode=">"/><glyph d="M198 162q-12 0 -12 15l1 36q1 49 18 88.5t41 66.5t48 52.5t40.5 58t16.5 71.5q0 61 -36.5 92.5t-95.5 31.5q-104 0 -145 -99q-4 -10 -22 1q-11 6 -6 17q17 44 60 79.5t113 35.5q75 0 120 -42.5t45 -114.5q0 -42 -16.5 -77.5t-40.5 -62t-48 -54t-41 -65t-17 -82.5v-33 q2 -15 -11 -15h-12zM204 -13q-14 0 -24 9.5t-10 24.5q0 13 10 23.5t24 10.5t24 -10.5t10 -23.5q0 -15 -10 -24.5t-24 -9.5z" glyph-name="question" horiz-adv-x="445" unicode="?"/><glyph d="M438 708q148 0 251 -100.5t103 -267.5q0 -57 -13 -97t-35 -58t-42 -25t-42 -7q-75 0 -92 74q-53 -74 -148 -74q-82 0 -135 55t-53 135t53 134.5t135 54.5q53 0 95.5 -26t65.5 -70l13 79h34l-25 -243q-8 -86 63 -86q92 0 92 151q0 68 -18.5 125t-49 95t-72 64.5 t-86.5 38.5t-92 12q-61 0 -118 -20t-105.5 -58t-77.5 -101.5t-29 -143.5q0 -79 30 -143t78.5 -103t106 -59.5t115.5 -20.5q99 0 172 57l24 -26q-83 -67 -202 -67q-146 0 -252.5 101t-106.5 261q0 109 52.5 192.5t134.5 125t176 41.5zM419 187q69 0 111 43.5t42 112.5 q0 68 -42 111.5t-111 43.5t-109.5 -43.5t-40.5 -111.5q0 -69 40.5 -112.5t109.5 -43.5z" glyph-name="at" horiz-adv-x="868" unicode="@"/><glyph d="M610 17q7 -17 -11 -17h-11q-11 0 -15 12l-62 169h-350l-61 -169q-4 -12 -17 -12h-10q-17 0 -10 17l247 671q4 12 18 12h17q13 0 17 -12zM173 214h326l-163 449z" glyph-name="A" horiz-adv-x="673" unicode="A"/><glyph d="M108 0q-13 0 -13 13v674q0 13 13 13h184q53 0 91.5 -14.5t58.5 -39.5t29 -52t9 -58q0 -52 -25.5 -94.5t-81.5 -59.5q73 -16 110 -68t37 -121q0 -87 -58.5 -140t-168.5 -53h-185zM131 396h166q67 0 107 37.5t40 103.5q0 65 -39 97t-108 32h-166v-270zM131 34h159 q97 0 145.5 42t48.5 120q0 77 -49 121.5t-145 44.5h-159v-328z" glyph-name="B" horiz-adv-x="580" unicode="B"/><glyph d="M427 -13q-155 0 -253.5 103.5t-98.5 256.5t98.5 257t253.5 104q131 0 231 -84q15 -15 5 -25l-4 -6q-10 -9 -23 1q-92 79 -207 79q-137 0 -227 -92.5t-90 -233.5t90 -233t227 -92q115 0 207 79q13 10 21 2l6 -7q10 -10 -5 -25q-100 -84 -231 -84z" glyph-name="C" horiz-adv-x="739" unicode="C"/><glyph d="M108 0q-13 0 -13 13v674q0 13 13 13h123q178 0 266.5 -95t88.5 -255t-88.5 -255t-266.5 -95h-123zM131 34h100q162 0 240.5 82.5t78.5 233.5t-78.5 233.5t-240.5 82.5h-100v-632z" glyph-name="D" horiz-adv-x="657" unicode="D"/><glyph d="M108 0q-13 0 -13 13v674q0 13 13 13h324q13 0 13 -13v-7q0 -14 -13 -14h-301v-284h286q13 0 13 -13v-7q0 -14 -13 -14h-286v-314h302q14 0 14 -14v-7q0 -13 -14 -13h-325z" glyph-name="E" horiz-adv-x="532" unicode="E"/><glyph d="M108 0q-13 0 -13 13v674q0 13 13 13h312q13 0 13 -13v-7q0 -14 -13 -14h-289v-277h276q13 0 13 -14v-7q0 -13 -13 -13h-276v-342q0 -13 -13 -13h-10z" glyph-name="F" horiz-adv-x="513" unicode="F"/><glyph d="M755 309q-2 -141 -90.5 -231.5t-233.5 -90.5q-156 0 -256 104t-100 256q0 153 100 257t257 104q135 0 233 -91q7 -7 3 -13l-11 -15q-6 -6 -14 0q-96 84 -212 84q-137 0 -228 -93.5t-91 -232.5t91 -232t227 -93q126 0 207 78.5t81 203.5v5h-273q-14 0 -14 13v9q0 13 14 13 h295q15 0 15 -15v-13v-7z" glyph-name="G" horiz-adv-x="820" unicode="G"/><glyph d="M526 700q14 0 14 -13v-674q0 -13 -14 -13h-9q-13 0 -13 13v319h-373v-319q0 -13 -13 -13h-10q-13 0 -13 13v674q0 13 13 13h10q13 0 13 -13v-321h373v321q0 13 13 13h9z" glyph-name="H" horiz-adv-x="635" unicode="H"/><glyph d="M108 0q-13 0 -13 13v674q0 13 13 13h10q13 0 13 -13v-674q0 -13 -13 -13h-10z" glyph-name="I" horiz-adv-x="226" unicode="I"/><glyph d="M205 -13q-81 0 -140 63q-8 10 1 19l6 7q8 9 16 1q30 -28 55.5 -41.5t63.5 -13.5q138 0 138 186v479q0 13 13 13h10q13 0 13 -13v-485q0 -105 -46.5 -160t-129.5 -55z" glyph-name="J" horiz-adv-x="476" unicode="J"/><glyph d="M523 18q5 -8 2.5 -13t-11.5 -5h-11q-12 0 -18 9l-256 330l-98 -126v-200q0 -13 -13 -13h-10q-13 0 -13 13v674q0 13 13 13h10q13 0 13 -13v-422l325 427q7 8 18 8h13q10 0 12.5 -5t-4.5 -13l-245 -315z" glyph-name="K" horiz-adv-x="581" unicode="K"/><glyph d="M408 34q15 0 15 -15v-4q0 -15 -15 -15h-286h-4h-10q-13 0 -13 13v674q0 13 13 13h10q13 0 13 -13v-653h277z" glyph-name="L" horiz-adv-x="488" unicode="L"/><glyph d="M760 700q13 0 13 -13v-674q0 -13 -13 -13h-9q-14 0 -14 13v638l-16 -40l-260 -601q-4 -10 -16 -10h-21q-12 0 -16 10l-260 601l-17 42v-640q0 -13 -13 -13h-10q-13 0 -13 13v674q0 13 13 13h28q11 0 15 -10l283 -655l283 655q4 10 16 10h27z" glyph-name="M" horiz-adv-x="869" unicode="M"/><glyph d="M544 700q13 0 13 -13v-674q0 -13 -12 -13h-25q-12 0 -18 10l-371 648v-645q0 -13 -13 -13h-10q-13 0 -13 13v674q0 13 12 13h26q12 0 18 -10l370 -648v645q0 13 14 13h9z" glyph-name="N" horiz-adv-x="652" unicode="N"/><glyph d="M432 -13q-152 0 -254.5 104t-102.5 256q0 153 102.5 257t254.5 104q151 0 253.5 -104t102.5 -257q0 -152 -102.5 -256t-253.5 -104zM432 22q137 0 228.5 93t91.5 232q0 140 -91.5 233t-228.5 93t-228.5 -93t-91.5 -233q0 -139 91.5 -232t228.5 -93z" glyph-name="O" horiz-adv-x="864" unicode="O"/><glyph d="M108 0q-13 0 -13 13v674q0 13 13 13h180q105 0 163.5 -59t58.5 -153t-58.5 -153t-163.5 -59h-157v-263q0 -13 -13 -13h-10zM131 310h151q87 0 139 43.5t52 134.5t-52 134.5t-139 43.5h-151v-356z" glyph-name="P" horiz-adv-x="575" unicode="P"/><glyph d="M783 15q11 -11 2 -19l-5 -6q-11 -9 -21 2l-86 86q-101 -91 -241 -91q-152 0 -254.5 104t-102.5 256q0 153 102.5 257t254.5 104q151 0 253.5 -104t102.5 -257q0 -143 -92 -245zM432 22q127 0 216 81l-100 100q-11 11 -1 19l5 5q9 9 21 -1l99 -99q80 91 80 220 q0 140 -91.5 233t-228.5 93t-228.5 -93t-91.5 -233q0 -139 91.5 -232t228.5 -93z" glyph-name="Q" horiz-adv-x="864" unicode="Q"/><glyph d="M318 277l180 -259q11 -18 -10 -18h-9q-12 0 -18 10l-183 266h-147v-263q0 -13 -13 -13h-10q-13 0 -13 13v674q0 13 13 13h180q105 0 163.5 -59t58.5 -153q0 -87 -50 -144.5t-142 -66.5zM131 666v-356h151q87 0 139 43.5t52 134.5t-52 134.5t-139 43.5h-151z" glyph-name="R" horiz-adv-x="567" unicode="R"/><glyph d="M304 371q80 -40 122.5 -83.5t42.5 -116.5q0 -81 -55.5 -132t-150.5 -51q-133 0 -197 101q-8 13 1 21l3 3q15 13 24 -2q57 -89 171 -89q79 0 123.5 40.5t44.5 107.5q0 63 -38 100t-113 74l-85 42q-114 54 -114 160q0 72 52 117t130 45q111 0 175 -87q10 -12 -3 -25 q-11 -11 -24 3q-57 75 -148 75q-63 0 -104.5 -32.5t-41.5 -93.5q0 -85 97 -133zM437 596l-1 -1z" glyph-name="S" horiz-adv-x="531" unicode="S"/><glyph d="M259 0q-13 0 -13 13v653h-158q-13 0 -13 14v7q0 13 13 13h351q13 0 13 -13v-7q0 -14 -13 -14h-157v-653q0 -13 -14 -13h-9z" glyph-name="T" horiz-adv-x="527" unicode="T"/><glyph d="M306 -13q-98 0 -157 59.5t-59 163.5v477q0 13 13 13h10q13 0 13 -13v-466q0 -100 49.5 -149.5t130.5 -49.5t130.5 49.5t49.5 149.5v466q0 13 14 13h9q13 0 13 -13v-477q0 -105 -58.5 -164t-157.5 -59z" glyph-name="U" horiz-adv-x="612" unicode="U"/><glyph d="M328 0q-14 0 -18 12l-247 671q-7 17 10 17h10q13 0 17 -12l236 -651l237 651q4 12 15 12h11q18 0 11 -17l-248 -671q-4 -12 -17 -12h-17z" glyph-name="V" horiz-adv-x="673" unicode="V"/><glyph d="M1008 700q17 0 12 -17l-212 -671q-5 -12 -16 -12h-18q-11 0 -16 12l-217 641l-218 -641q-5 -12 -16 -12h-18q-11 0 -16 12l-212 671q-5 17 12 17h7q12 0 17 -12l201 -639l217 639q4 12 16 12h19q12 0 16 -12l217 -639l201 639q5 12 17 12h7z" glyph-name="W" horiz-adv-x="1081" unicode="W"/><glyph d="M543 18q12 -18 -6 -18h-12q-10 0 -16 10l-201 317l-200 -317q-7 -10 -16 -10h-12q-9 0 -10.5 5.5t3.5 12.5l215 341l-205 323q-5 7 -3.5 12.5t10.5 5.5h14q10 0 16 -10l188 -299l188 299q7 10 17 10h14q18 0 6 -18l-204 -323z" glyph-name="X" horiz-adv-x="617" unicode="X"/><glyph d="M508 700q9 0 11 -5.5t-3 -12.5l-208 -338v-331q0 -13 -14 -13h-9q-14 0 -14 13v329l-208 340q-5 7 -3 12.5t11 5.5h15q10 0 16 -10l188 -311l187 311q6 10 16 10h15z" glyph-name="Y" horiz-adv-x="579" unicode="Y"/><glyph d="M83 0q-13 0 -13 13v12q0 9 6 18l371 623h-354q-13 0 -13 14v7q0 13 13 13h380q14 0 14 -13v-12q0 -9 -6 -18l-371 -623h373q14 0 14 -14v-7q0 -13 -14 -13h-400z" glyph-name="Z" horiz-adv-x="572" unicode="Z"/><glyph d="M185 745q11 0 11 -12v-9q0 -12 -11 -12h-85v-809h85q11 0 11 -12v-9q0 -12 -11 -12h-110q-12 0 -12 12v851q0 12 12 12h110z" glyph-name="bracketleft" horiz-adv-x="260" unicode="["/><glyph d="M32 745h8q12 0 16 -12l320 -846q6 -17 -10 -17h-8q-12 0 -16 12l-320 846q-6 17 10 17z" glyph-name="backslash" horiz-adv-x="398" unicode="\"/><glyph d="M75 745h110q11 0 11 -12v-851q0 -12 -11 -12h-110q-12 0 -12 12v9q0 12 12 12h85v809h-85q-12 0 -12 12v9q0 12 12 12z" glyph-name="bracketright" horiz-adv-x="260" unicode="]"/><glyph d="M64 321l205 368q3 11 18 11h12q13 0 19 -11l206 -368q5 -7 2 -12.5t-11 -5.5h-9q-12 0 -17 11l-195 357l-195 -357q-8 -11 -17 -11h-9q-8 0 -11 5.5t2 12.5z" glyph-name="asciicircum" horiz-adv-x="588" unicode="^"/><glyph d="M548 0q12 0 12 -12v-11q0 -12 -12 -12h-476q-12 0 -12 12v11q0 12 12 12h476z" glyph-name="underscore" horiz-adv-x="620" unicode="_"/><glyph d="M24 700h15q11 0 16 -12l50 -116q7 -15 -7 -15h-14q-11 0 -15 12l-52 116q-3 8 -2 11.5t9 3.5z" glyph-name="grave" horiz-adv-x="122" unicode="`"/><glyph d="M535 490q12 0 12 -13v-464q0 -13 -11 -13h-11q-12 0 -12 13l-1 96q-29 -57 -82 -89t-123 -32q-109 0 -178 72.5t-69 184.5q0 111 69 184t178 73q70 0 123 -33.5t82 -91.5l1 100q0 13 12 13h10zM306 22q92 0 149.5 60.5t57.5 159.5q0 100 -58 163t-149 63q-93 0 -153 -62 t-60 -161t59.5 -161t153.5 -62z" glyph-name="a" horiz-adv-x="632" unicode="a"/><glyph d="M326 502q109 0 177.5 -73t68.5 -184q0 -112 -68.5 -184.5t-177.5 -72.5q-71 0 -124 32t-82 89l-1 -96q0 -13 -12 -13h-11q-11 0 -11 13v689q0 13 12 13h10q12 0 12 -13v-225l1 -101q29 59 82.5 92.5t123.5 33.5zM326 22q94 0 153.5 62t59.5 161t-60 161t-153 62 q-91 0 -149 -63t-58 -163q0 -99 57.5 -159.5t149.5 -60.5z" glyph-name="b" horiz-adv-x="632" unicode="b"/><glyph d="M312 -12q-107 0 -179.5 73t-72.5 183q0 111 73 184.5t181 73.5q114 0 181 -78q8 -13 2 -19l-5 -5q-10 -10 -21 1q-62 67 -156 67t-157 -62.5t-63 -161.5t63 -160.5t158 -61.5t154 65q13 13 23 3l5 -5q6 -6 -2 -19q-67 -78 -184 -78z" glyph-name="c" horiz-adv-x="562" unicode="c"/><glyph d="M535 715q12 0 12 -13v-689q0 -13 -11 -13h-11q-12 0 -12 13l-1 96q-29 -57 -82 -89t-123 -32q-109 0 -178 72.5t-69 184.5q0 111 69 184t178 73q70 0 123 -33.5t82 -91.5l1 100v225q0 13 12 13h10zM306 22q92 0 149.5 60.5t57.5 159.5q0 100 -58 163t-149 63 q-93 0 -153 -62t-60 -161t59.5 -161t153.5 -62z" glyph-name="d" horiz-adv-x="632" unicode="d"/><glyph d="M303 502q103 0 164.5 -68.5t61.5 -162.5q0 -23 -5 -30t-21 -7h-409q5 -91 63 -152t160 -61q90 0 157 56q8 8 14 1l6 -6q7 -9 -4 -20q-69 -64 -175 -64q-116 0 -185.5 75t-69.5 184t68 182t175 73zM302 467q-88 0 -144.5 -55.5t-62.5 -144.5h402q0 85 -52.5 142.5 t-142.5 57.5z" glyph-name="e" horiz-adv-x="590" unicode="e"/><glyph d="M234 696q-42 0 -57 -23t-15 -67v-116h100q13 0 13 -13v-7q0 -13 -13 -13h-100v-444q0 -13 -12 -13h-10q-12 0 -12 13v444h-60q-13 0 -13 13v7q0 13 13 13h60v130q0 111 106 111q14 0 32 -3q9 -3 9 -12v-14q0 -9 -11 -7q-11 1 -30 1z" glyph-name="f" horiz-adv-x="330" unicode="f"/><glyph d="M531 490q11 0 11 -13v-463q0 -106 -70 -162.5t-175 -56.5q-96 0 -160 41q-11 8 -8 16l8 12q5 9 13 3q61 -39 148 -39q91 0 150 46t59 146v99q-29 -55 -81.5 -85.5t-122.5 -30.5q-106 0 -174.5 70t-68.5 180q0 109 68.5 179t172.5 70q71 0 124 -31.5t82 -88.5l1 95 q0 13 12 13h11zM304 37q91 0 148 58t57 154q0 99 -57 159t-148 60t-151 -59t-60 -156q0 -98 60 -157t151 -59z" glyph-name="g" horiz-adv-x="627" unicode="g"/><glyph d="M288 502q83 0 132.5 -51t49.5 -148v-290q0 -13 -12 -13h-11q-12 0 -12 13v297q0 73 -39 115.5t-108 42.5q-72 0 -120 -43.5t-48 -114.5v-297q0 -13 -12 -13h-11q-12 0 -12 13v689q0 13 12 13h11q12 0 12 -13v-291q52 91 168 91z" glyph-name="h" unicode="h"/><glyph d="M102 639q-11 0 -19.5 8.5t-8.5 19.5q0 12 8.5 20.5t19.5 8.5t19 -8.5t8 -20.5q0 -11 -8 -19.5t-19 -8.5zM96 0q-12 0 -12 13v464q0 13 12 13h11q11 0 11 -13v-464q0 -13 -11 -13h-11z" glyph-name="i" horiz-adv-x="203" unicode="i"/><glyph d="M114 639q-11 0 -20 8.5t-9 19.5q0 12 9 20.5t20 8.5t18.5 -8.5t7.5 -20.5q0 -11 -8 -19.5t-18 -8.5zM24 -200q-14 0 -32 3q-9 3 -9 12v14q0 9 11 7q11 -1 30 -1q42 0 57 23t15 67v552q0 13 11 13h11q12 0 12 -13v-566q0 -111 -106 -111z" glyph-name="j" horiz-adv-x="214" unicode="j"/><glyph d="M457 15q4 -5 2 -10t-11 -5h-11q-12 0 -18 9l-202 247l-98 -101v-142q0 -13 -12 -13h-10q-12 0 -12 13v689q0 13 12 13h10q12 0 12 -13v-503l269 283q7 8 17 8h21q7 0 7.5 -4.5t-4.5 -8.5l-190 -198z" glyph-name="k" horiz-adv-x="510" unicode="k"/><glyph d="M97 0q-12 0 -12 13v689q0 13 12 13h10q12 0 12 -13v-689q0 -13 -12 -13h-10z" glyph-name="l" horiz-adv-x="204" unicode="l"/><glyph d="M562 502q75 0 116 -48t41 -144v-297q0 -13 -12 -13h-11q-12 0 -12 13v302q0 73 -30.5 113t-91.5 40q-63 0 -103 -41.5t-40 -111.5v-5v-297q0 -13 -11 -13h-12q-11 0 -11 13v302q0 72 -34 112.5t-95 40.5q-64 0 -100 -41t-36 -112v-302q0 -13 -12 -13h-11q-12 0 -12 13 v464q0 13 12 13h7q13 0 13 -14l2 -58q40 84 139 84q114 0 148 -104q40 104 156 104z" glyph-name="m" horiz-adv-x="804" unicode="m"/><glyph d="M288 502q83 0 132.5 -51t49.5 -148v-290q0 -13 -12 -13h-11q-12 0 -12 13v297q0 73 -39 115.5t-108 42.5q-72 0 -120 -43.5t-48 -114.5v-297q0 -13 -12 -13h-11q-12 0 -12 13v464q0 13 12 13h7q13 0 13 -14l3 -66q52 92 168 92z" glyph-name="n" unicode="n"/><glyph d="M308 -12q-106 0 -177 73.5t-71 183.5t71 183.5t177 73.5q105 0 176 -73.5t71 -183.5t-71 -183.5t-176 -73.5zM308 22q92 0 152.5 63t60.5 160t-60.5 160t-152.5 63t-152.5 -63t-60.5 -160t60.5 -160t152.5 -63z" glyph-name="o" horiz-adv-x="616" unicode="o"/><glyph d="M326 502q109 0 177.5 -73t68.5 -184q0 -112 -68.5 -184.5t-177.5 -72.5q-71 0 -124 32t-82 89l-1 -96v-190q0 -13 -12 -13h-10q-12 0 -12 13v654q0 13 12 13h10q12 0 12 -13l1 -101q29 59 82.5 92.5t123.5 33.5zM326 22q94 0 153.5 62t59.5 161t-60 161t-153 62 q-91 0 -149 -63t-58 -163q0 -99 57.5 -159.5t149.5 -60.5z" glyph-name="p" horiz-adv-x="632" unicode="p"/><glyph d="M535 490q12 0 12 -13v-654q0 -13 -12 -13h-10q-12 0 -12 13v190l-1 96q-29 -57 -82 -89t-123 -32q-109 0 -178 72.5t-69 184.5q0 111 69 184t178 73q70 0 123 -33.5t82 -91.5l1 100q0 13 12 13h10zM306 22q92 0 149.5 60.5t57.5 159.5q0 100 -58 163t-149 63 q-93 0 -153 -62t-60 -161t59.5 -161t153.5 -62z" glyph-name="q" horiz-adv-x="632" unicode="q"/><glyph d="M281 493q7 -4 7 -15v-6q0 -13 -17 -8t-34 5q-28 0 -50 -10.5t-34 -26t-20 -36t-10.5 -37.5t-2.5 -33v-313q0 -13 -12 -13h-11q-12 0 -12 13v464q0 13 12 13h7q13 0 13 -14l2 -50q35 76 117 76q30 0 45 -9z" glyph-name="r" horiz-adv-x="335" unicode="r"/><glyph d="M255 261q57 -23 87.5 -54t31.5 -84q0 -63 -46 -99t-112 -36q-91 0 -145 69q-11 12 -3 23l4 5q9 11 21 -3q46 -61 125 -61q55 0 88.5 26t33.5 73q0 40 -24 64.5t-68 43.5l-55 23q-53 23 -82.5 52t-29.5 77q0 55 39.5 88.5t98.5 33.5q82 0 131 -63q9 -11 -1 -23 q-12 -12 -24 1q-44 51 -106 51q-43 0 -73.5 -21.5t-30.5 -63.5q0 -41 24.5 -62.5t79.5 -44.5zM350 417l-1 -1z" glyph-name="s" horiz-adv-x="439" unicode="s"/><glyph d="M255 457h-87v-378q0 -33 10.5 -45.5t35.5 -12.5q17 0 31 2q13 2 16.5 -1t3.5 -11v-6q0 -17 -52 -17q-44 0 -61.5 22t-17.5 64v383h-66q-13 0 -13 13v7q0 13 13 13h66v117q0 13 11 13h11q12 0 12 -13v-117h87q13 0 13 -13v-7q0 -13 -13 -13z" glyph-name="t" horiz-adv-x="323" unicode="t"/><glyph d="M458 490q12 0 12 -13v-464q0 -13 -12 -13h-7q-13 0 -13 14l-3 66q-52 -92 -168 -92q-83 0 -132.5 51t-49.5 148v290q0 13 12 13h11q12 0 12 -13v-297q0 -73 39 -115.5t108 -42.5q72 0 120 43.5t48 114.5v297q0 13 12 13h11z" glyph-name="u" unicode="u"/><glyph d="M259 0q-13 0 -18 12l-183 461q-6 17 10 17h10q10 0 15 -12l172 -442l172 442q5 12 15 12h10q16 0 10 -17l-183 -461q-5 -12 -18 -12h-12z" glyph-name="v" horiz-adv-x="530" unicode="v"/><glyph d="M240 0q-14 0 -18 12l-164 461q-6 17 10 17h12q10 0 14 -12l154 -444l157 444q5 12 18 12h18q13 0 18 -12l156 -444l154 444q5 12 15 12h11q16 0 10 -17l-164 -461q-5 -12 -18 -12h-17q-14 0 -18 12l-156 444l-157 -444q-5 -12 -18 -12h-17z" glyph-name="w" horiz-adv-x="863" unicode="w"/><glyph d="M65 0q-20 0 -7 16l157 233l-149 225q-10 16 6 16h13q11 0 17 -10l133 -207l134 207q6 10 16 10h13q15 0 7 -16l-149 -225l156 -233q11 -16 -6 -16h-13q-11 0 -17 10l-141 217l-141 -217q-6 -10 -16 -10h-13z" glyph-name="x" horiz-adv-x="470" unicode="x"/><glyph d="M186 -190q-14 0 -9 14l68 173l-187 476q-6 17 10 17h10q10 0 15 -12l171 -443l172 443q5 12 14 12h10q17 0 11 -17l-258 -651q-5 -12 -16 -12h-11z" glyph-name="y" horiz-adv-x="528" unicode="y"/><glyph d="M78 0q-13 0 -13 13v11q0 5 7 17l309 416h-300q-13 0 -13 13v7q0 13 13 13h325q15 0 15 -13v-11q0 -5 -7 -17l-309 -416h303q14 0 14 -13v-7q0 -13 -14 -13h-330z" glyph-name="z" horiz-adv-x="487" unicode="z"/><glyph d="M198 745q12 0 12 -12v-9q0 -12 -12 -12h-23q-35 0 -35 -37v-291q0 -14 -4 -20l-28 -49q-5 -8 0 -19l28 -46q4 -8 4 -20v-290q0 -37 35 -37h23q12 0 12 -12v-9q0 -12 -12 -12h-36q-29 0 -43 18.5t-14 40.5v296q0 11 -5 19l-33 52q-6 11 -1 20l34 54q5 9 5 19v297 q0 22 13.5 40.5t43.5 18.5h36z" glyph-name="braceleft" horiz-adv-x="273" unicode="{"/><glyph d="M108 -190q-13 0 -13 13v964q0 13 13 13h10q13 0 13 -13v-964q0 -13 -13 -13h-10z" glyph-name="bar" horiz-adv-x="226" unicode="|"/><glyph d="M75 745h37q29 0 42.5 -18.5t13.5 -40.5v-297q0 -10 5 -19l34 -54q5 -9 -1 -20l-33 -52q-5 -8 -5 -19v-296q0 -22 -14 -40.5t-42 -18.5h-37q-12 0 -12 12v9q0 12 12 12h23q35 0 35 37v290q0 10 5 20l27 46q6 10 0 19l-27 49q-5 8 -5 20v291q0 37 -35 37h-23q-12 0 -12 12 v9q0 12 12 12z" glyph-name="braceright" horiz-adv-x="273" unicode="}"/><glyph d="M269 240q-34 0 -71 34.5t-64 34.5q-37 0 -43 -35q-1 -10 -12 -10h-10q-12 0 -9 16q5 29 26 44t49 15q30 0 52.5 -17t42 -34t41.5 -17q39 0 45 34q1 11 12 11h9q12 0 9 -16q-4 -28 -26 -44t-51 -16z" glyph-name="asciitilde" horiz-adv-x="406" unicode="~"/><glyph glyph-name="uni00A0" horiz-adv-x="203" unicode=" "/><glyph d="M97 533q15 0 25 -9.5t10 -24.5q0 -14 -10.5 -24t-24.5 -10q-13 0 -23.5 10.5t-10.5 23.5q0 15 10 24.5t24 9.5zM95 348h6q12 0 12 -13l5 -502q0 -13 -12 -13h-16q-11 0 -11 13l5 502q0 13 11 13z" glyph-name="exclamdown" horiz-adv-x="195" unicode="¡"/><glyph d="M459 208q7 -6 -2 -17q-58 -67 -160 -70v-109q0 -12 -11 -12h-8q-12 0 -12 12v110q-89 8 -147 72t-58 155t58 155.5t147 73.5v110q0 12 12 12h8q11 0 11 -12v-109q100 -1 159 -69q9 -11 3 -17l-5 -5q-10 -10 -19 2q-54 58 -138 59v-398q85 1 137 59q12 12 21 2zM92 349 q0 -81 49 -134.5t125 -61.5v394q-76 -8 -125 -62.5t-49 -135.5z" glyph-name="cent" horiz-adv-x="523" unicode="¢"/><glyph d="M425 33q14 0 14 -13v-7q0 -13 -14 -13h-350q-13 0 -13 13v20q108 79 108 201q0 32 -6 61h-88q-12 0 -12 12v10q0 11 12 11h79q-4 14 -37 86t-33 118q0 75 49.5 125.5t133.5 50.5q112 0 169 -95q9 -13 0 -22l-8 -6q-3 -3 -8.5 -2.5t-8.5 6.5q-52 85 -144 85 q-68 0 -108 -40t-40 -103q0 -33 11.5 -66t30.5 -72t27 -65h136q7 0 9.5 -2t2.5 -9v-10q0 -12 -12 -12h-127q7 -27 7 -60q0 -127 -93 -202h313z" glyph-name="sterling" horiz-adv-x="503" unicode="£"/><glyph d="M510 476q0 -90 -61 -154l52 -52l-18 -16l-51 51q-64 -53 -146 -53q-84 0 -147 55l-53 -53l-18 16l54 54q-60 65 -60 152t60 152l-54 54l18 16l53 -53q63 55 147 55q82 0 146 -53l51 51l18 -16l-52 -52q61 -64 61 -154zM86 476q0 -90 60.5 -145.5t139.5 -55.5q78 0 139 56 t61 145t-61 145t-139 56q-79 0 -139.5 -56t-60.5 -145z" glyph-name="currency" horiz-adv-x="569" unicode="¤"/><glyph d="M516 682l-208 -338v-3h94q13 0 13 -14v-6q0 -13 -13 -13h-94v-48h94q13 0 13 -13v-7q0 -13 -13 -13h-94v-214q0 -13 -14 -13h-9q-14 0 -14 13v214h-92q-14 0 -14 13v7q0 13 14 13h92v48h-92q-14 0 -14 13v6q0 14 14 14h92v1l-208 340q-5 7 -3 12.5t11 5.5h15q10 0 16 -10 l188 -311l187 311q6 10 16 10h15q9 0 11 -5.5t-3 -12.5z" glyph-name="yen" horiz-adv-x="579" unicode="¥"/><glyph d="M108 490q-13 0 -13 13v284q0 13 13 13h10q13 0 13 -13v-284q0 -13 -13 -13h-10zM108 -190q-13 0 -13 13v284q0 13 13 13h10q13 0 13 -13v-284q0 -13 -13 -13h-10z" glyph-name="brokenbar" horiz-adv-x="226" unicode="¦"/><glyph d="M282 207q96 -45 96 -123q0 -61 -44.5 -97t-113.5 -36q-89 0 -151 66q-13 14 -2 28l-2 -4q12 17 28 0q49 -57 130 -57q55 0 87.5 26t32.5 70q0 70 -93 106l-64 26q-51 21 -81.5 50.5t-30.5 79.5q0 47 31.5 78t80.5 39l-1 1q-51 20 -81.5 50t-30.5 80q0 55 42 87.5 t102 32.5q81 0 137 -62q9 -10 -1 -23v1q-12 -13 -24 0q-44 51 -113 51q-44 0 -75 -20.5t-31 -64.5q0 -42 22.5 -62.5t69.5 -40.5l53 -22q59 -25 90.5 -55t31.5 -80q0 -46 -26 -78.5t-69 -46.5zM111 344q0 -42 23 -62.5t70 -40.5l21 -9q53 1 85 27t32 69q0 36 -26 64 q-40 37 -99 37q-44 0 -75 -20.5t-31 -64.5z" glyph-name="section" horiz-adv-x="439" unicode="§"/><glyph d="M43 652q-11 0 -19.5 8t-8.5 19q0 10 8.5 18t19.5 8t19.5 -8t8.5 -18q0 -11 -8.5 -19t-19.5 -8zM202 652q-11 0 -19.5 8t-8.5 19q0 10 8.5 18t19.5 8t19.5 -8t8.5 -18q0 -11 -8.5 -19t-19.5 -8z" glyph-name="dieresis" horiz-adv-x="245" unicode="¨"/><glyph d="M358 136q-119 0 -201 83.5t-82 202.5t82 202.5t201 83.5q120 0 202 -83.5t82 -202.5t-82 -202.5t-202 -83.5zM358 171q105 0 176.5 73.5t71.5 177.5t-71.5 177.5t-176.5 73.5q-104 0 -175.5 -73.5t-71.5 -177.5t71.5 -177.5t175.5 -73.5zM362 251q-72 0 -120 49t-48 122 q0 74 48 123.5t120 49.5q75 0 124 -53q8 -8 0 -15l-8 -7q-9 -9 -18 2q-43 39 -96 39q-60 0 -97.5 -38t-37.5 -101q0 -61 38 -99.5t97 -38.5q54 0 96 40q8 10 18 2l8 -7q8 -8 0 -15q-49 -53 -124 -53z" glyph-name="copyright" horiz-adv-x="717" unicode="©"/><glyph d="M397 700h28v-359h-28l-4 78l2 13q-21 -44 -62.5 -67.5t-92.5 -23.5q-79 0 -129.5 51.5t-50.5 130.5t50.5 130.5t129.5 51.5q51 0 92 -23t63 -67l-2 9zM240 371q66 0 110.5 43t44.5 109t-44.5 109t-110.5 43q-65 0 -107 -43t-42 -109t42 -109t107 -43z" glyph-name="ordfeminine" horiz-adv-x="485" unicode="ª"/><glyph d="M170 178q0 -5 -4 -8t-7 1l-98 83q-8 7 -8 15v28q0 9 8 16l98 83q3 3 7 0.5t4 -7.5v-21q0 -7 -8 -15l-82 -70l82 -70q8 -8 8 -15v-20zM301 178q0 -5 -3.5 -8t-7.5 1l-97 83q-8 7 -8 15v28q0 9 8 16l97 83q4 3 7.5 0.5t3.5 -7.5v-21q0 -7 -8 -15l-82 -70l82 -70q8 -8 8 -15 v-20z" glyph-name="guillemotleft" horiz-adv-x="355" unicode="«"/><glyph d="M395 162q-13 0 -13 13v87h-309q-13 0 -13 14v6q0 13 13 13h332q13 0 13 -13v-107q0 -13 -13 -13h-10z" glyph-name="logicalnot" horiz-adv-x="478" unicode="¬"/><glyph d="M368 304q12 0 12 -12v-11q0 -12 -12 -12h-298q-12 0 -12 12v11q0 12 12 12h298z" glyph-name="uni00AD" horiz-adv-x="438" unicode="­"/><glyph d="M358 708q120 0 202 -83.5t82 -202.5t-82 -202.5t-202 -83.5q-119 0 -201 83.5t-82 202.5t82 202.5t201 83.5zM358 171q106 0 177 73.5t71 177.5t-71 177.5t-177 73.5q-105 0 -176 -73.5t-71 -177.5t71 -177.5t176 -73.5zM400 381l101 -102q9 -13 -8 -13h-22q-7 0 -11 7 l-103 107h-80v-105q0 -9 -10 -9h-16q-10 0 -10 9v292q0 10 10 10h16h1h118q53 0 82.5 -28t29.5 -72q0 -38 -26 -65t-72 -31zM277 542v-126h114q36 0 53 17.5t17 43.5q0 65 -70 65h-114z" glyph-name="registered" horiz-adv-x="717" unicode="®"/><glyph d="M283 700q14 0 14 -13v-7q0 -13 -14 -13h-255q-13 0 -13 13v7q0 13 13 13h255z" glyph-name="macron" horiz-adv-x="312" unicode="¯"/><glyph d="M205 429q-60 0 -102.5 41t-42.5 102t42.5 102.5t102.5 41.5q59 0 101.5 -41.5t42.5 -102.5t-42.5 -102t-101.5 -41zM205 462q44 0 76.5 29.5t32.5 80.5t-32.5 81t-76.5 30q-45 0 -77.5 -30t-32.5 -81t32.5 -80.5t77.5 -29.5z" glyph-name="degree" horiz-adv-x="409" unicode="°"/><glyph d="M322 267q13 0 13 -13v-14q0 -13 -13 -13h-101v-102q0 -14 -14 -14h-13q-13 0 -13 14v102h-103q-13 0 -13 13v14q0 13 13 13h103v101q0 13 13 13h13q14 0 14 -13v-101h101zM323 29q12 0 12 -12v-5q0 -12 -12 -12h-246q-12 0 -12 12v5q0 12 12 12h246z" glyph-name="plusminus" horiz-adv-x="400" unicode="±"/><glyph d="M121 704q38 0 59 -21.5t21 -52.5q0 -8 -1.5 -15.5t-6 -15.5t-7.5 -13.5t-12 -15.5t-13 -15t-17 -18t-18 -19l-53 -54h132v-24h-163v24l68 71q5 5 14 14.5t12.5 13t10 10.5t8.5 9.5t6.5 8t6 8.5t3.5 7.5t3 8t1.5 8t0.5 9.5q0 25 -15.5 37t-39.5 12q-56 0 -56 -57v-14h-25 v14q0 36 21.5 58t59.5 22z" glyph-name="uni00B2" horiz-adv-x="243" unicode="²"/><glyph d="M123 703q38 0 56.5 -19t18.5 -48q0 -36 -40 -57q51 -15 51 -68q0 -33 -22.5 -54t-61.5 -21q-42 0 -63.5 23.5t-21.5 54.5h24q0 -23 15.5 -39.5t45.5 -16.5q26 0 42.5 13.5t16.5 38.5q0 56 -80 56v21q33 0 51.5 14.5t18.5 37.5q0 41 -51 41q-52 0 -52 -53h-23 q-1 33 17 54.5t58 21.5z" glyph-name="uni00B3" horiz-adv-x="249" unicode="³"/><glyph d="M98 700q14 0 7 -15l-51 -116q-5 -12 -16 -12h-14q-8 0 -9 3.5t2 11.5l51 116q4 12 15 12h15z" glyph-name="acute" horiz-adv-x="122" unicode="´"/><glyph d="M458 490q12 0 12 -13v-464q0 -13 -12 -13h-7q-13 0 -13 14l-3 66q-52 -92 -168 -92q-99 0 -147 69v-234q0 -13 -14 -13h-8q-13 0 -13 13v654q0 13 12 13h11q12 0 12 -13v-297q0 -73 39 -115.5t108 -42.5q72 0 120 43.5t48 114.5v297q0 13 12 13h11z" glyph-name="uni00B5" unicode="µ"/><glyph d="M477 0h-10q-13 0 -13 13v263h-157q-105 0 -163.5 59t-58.5 153t58.5 153t163.5 59h180q13 0 13 -13v-674q0 -13 -13 -13zM598 0q-13 0 -13 13v674q0 13 13 13h10q13 0 13 -13v-674q0 -13 -13 -13h-10zM454 310v356h-151q-87 0 -139 -43.5t-52 -134.5t52 -134.5t139 -43.5 h151z" glyph-name="paragraph" horiz-adv-x="716" unicode="¶"/><glyph d="M84 256q-14 0 -24 9.5t-10 24.5q0 14 10 24t24 10t24 -10t10 -24q0 -15 -10 -24.5t-24 -9.5z" glyph-name="periodcentered" horiz-adv-x="168" unicode="·"/><glyph d="M74 -45q37 0 60.5 -19.5t23.5 -54.5q0 -51 -40 -72t-94 -16q-9 1 -9 11v12q0 10 11 10q96 -5 96 49q0 32 -29 44t-66 -1q-12 -2 -12 7v9q0 5 5 12l47 54h46l-39 -43v-2z" glyph-name="cedilla" horiz-adv-x="173" unicode="¸"/><glyph d="M98 701v-261h-25v238h-30v23h55z" glyph-name="uni00B9" horiz-adv-x="167" unicode="¹"/><glyph d="M243 341q-77 0 -130 53t-53 129t53 129t130 53t130 -53t53 -129t-53 -129t-130 -53zM243 371q64 0 108 44t44 108t-44 108t-108 44t-108 -44t-44 -108t44 -108t108 -44z" glyph-name="ordmasculine" horiz-adv-x="486" unicode="º"/><glyph d="M53 178v20q0 7 8 15l83 70l-83 70q-8 8 -8 15v21q0 5 4 7.5t8 -0.5l97 -83q8 -7 8 -16v-28q0 -8 -8 -15l-97 -83q-4 -4 -8 -1t-4 8zM185 178v20q0 7 8 15l82 70l-82 70q-8 8 -8 15v21q0 5 3.5 7.5t7.5 -0.5l97 -83q8 -7 8 -16v-28q0 -8 -8 -15l-97 -83q-4 -4 -7.5 -1 t-3.5 8z" glyph-name="guillemotright" horiz-adv-x="355" unicode="»"/><glyph d="M95 701v-261h-25v238h-30v23h55zM517 700l-434 -700h-31l434 700h31zM505 261v-174h27v-23h-27v-64h-25v64h-135l135 197h25zM480 223l-91 -136h91v136z" glyph-name="onequarter" horiz-adv-x="577" unicode="¼"/><glyph d="M95 701v-261h-25v238h-30v23h55zM517 700l-434 -700h-31l434 700h31zM448 264q38 0 59 -21.5t21 -52.5q0 -8 -1.5 -15.5t-6 -15.5t-7.5 -13.5t-12 -15.5t-13 -15t-17 -18t-18 -19l-53 -54h132v-24h-163v24l68 71q5 5 14 14.5t12.5 13t10 10.5t8.5 9.5t6.5 8t6 8.5 t3.5 7.5t3 8t1.5 8t0.5 9.5q0 25 -15.5 37t-39.5 12q-56 0 -56 -57v-14h-25v14q0 36 21.5 58t59.5 22z" glyph-name="onehalf" horiz-adv-x="575" unicode="½"/><glyph d="M123 703q38 0 56.5 -19t18.5 -48q0 -36 -40 -57q51 -15 51 -68q0 -33 -22.5 -54t-61.5 -21q-42 0 -63.5 23.5t-21.5 54.5h24q0 -23 15.5 -39.5t45.5 -16.5q26 0 42.5 13.5t16.5 38.5q0 56 -80 56v21q33 0 51.5 14.5t18.5 37.5q0 41 -51 41q-52 0 -52 -53h-23 q-1 33 17 54.5t58 21.5zM548 700l-434 -700h-31l434 700h31zM526 261v-174h27v-23h-27v-64h-25v64h-135l135 197h25zM501 223l-91 -136h91v136z" glyph-name="threequarters" horiz-adv-x="593" unicode="¾"/><glyph d="M226 533q14 0 24 -9.5t10 -24.5q0 -13 -10 -23.5t-24 -10.5t-24 10t-10 24q0 15 10 24.5t24 9.5zM232 358q11 0 11 -15v-36q-1 -49 -18 -88.5t-41 -66.5t-48 -52.5t-40.5 -58t-16.5 -71.5q0 -61 36.5 -92.5t94.5 -31.5q104 0 145 99q4 10 23 -1q10 -6 5 -17 q-15 -44 -58.5 -79.5t-113.5 -35.5q-75 0 -120.5 42.5t-45.5 114.5q0 42 17 77.5t41 62t48 54t41 65t17 82.5l-1 33q0 15 12 15h12z" glyph-name="questiondown" horiz-adv-x="445" unicode="¿"/><glyph d="M311 779l-52 116q-3 8 -2 11.5t9 3.5h15q11 0 16 -12l50 -116q7 -15 -7 -15h-14q-11 0 -15 12zM610 17q7 -17 -11 -17h-11q-11 0 -15 12l-62 169h-350l-61 -169q-4 -12 -17 -12h-10q-17 0 -10 17l247 671q4 12 18 12h17q13 0 17 -12zM173 214h326l-163 449z" glyph-name="Agrave" horiz-adv-x="673" unicode="À"/><glyph d="M334 767q-8 0 -9 3.5t2 11.5l51 116q4 12 15 12h15q14 0 7 -15l-51 -116q-5 -12 -16 -12h-14zM610 17q7 -17 -11 -17h-11q-11 0 -15 12l-62 169h-350l-61 -169q-4 -12 -17 -12h-10q-17 0 -10 17l247 671q4 12 18 12h17q13 0 17 -12zM173 214h326l-163 449z" glyph-name="Aacute" horiz-adv-x="673" unicode="Á"/><glyph d="M231 790q-5 0 -7.5 4t0.5 7l82 101q7 8 16 8h29q8 0 15 -8l83 -101q2 -3 0 -7t-7 -4h-21q-8 0 -15 8l-70 87l-70 -87q-7 -8 -15 -8h-20zM610 17q7 -17 -11 -17h-11q-11 0 -15 12l-62 169h-350l-61 -169q-4 -12 -17 -12h-10q-17 0 -10 17l247 671q4 12 18 12h17 q13 0 17 -12zM173 214h326l-163 449z" glyph-name="Acircumflex" horiz-adv-x="673" unicode="Â"/><glyph d="M217 858q-11 0 -8 11q4 26 23 41t46 15q32 0 66.5 -30.5t58.5 -30.5q30 0 39 31q3 10 11 10h6q10 0 10 -10q-4 -27 -23 -42.5t-41 -15.5q-35 0 -70 31t-59 31q-32 0 -41 -32q-3 -9 -11 -9h-7zM610 17q7 -17 -11 -17h-11q-11 0 -15 12l-62 169h-350l-61 -169 q-4 -12 -17 -12h-10q-17 0 -10 17l247 671q4 12 18 12h17q13 0 17 -12zM173 214h326l-163 449z" glyph-name="Atilde" horiz-adv-x="673" unicode="Ã"/><glyph d="M258 862q-11 0 -19.5 8t-8.5 19q0 10 8.5 18t19.5 8t19.5 -8t8.5 -18q0 -11 -8.5 -19t-19.5 -8zM417 862q-11 0 -19.5 8t-8.5 19q0 10 8.5 18t19.5 8t19.5 -8t8.5 -18q0 -11 -8.5 -19t-19.5 -8zM610 17q7 -17 -11 -17h-11q-11 0 -15 12l-62 169h-350l-61 -169 q-4 -12 -17 -12h-10q-17 0 -10 17l247 671q4 12 18 12h17q13 0 17 -12zM173 214h326l-163 449z" glyph-name="Adieresis" horiz-adv-x="673" unicode="Ä"/><glyph d="M336 785q-28 0 -47.5 18.5t-19.5 47.5q0 28 19.5 46t47.5 18t47.5 -18t19.5 -46q0 -29 -19.5 -47.5t-47.5 -18.5zM336 881q-14 0 -22.5 -8.5t-8.5 -22.5t8.5 -22.5t22.5 -8.5q13 0 22 9t9 22t-9 22t-22 9zM610 17q7 -17 -11 -17h-11q-11 0 -15 12l-62 169h-350l-61 -169 q-4 -12 -17 -12h-10q-17 0 -10 17l247 671q4 12 18 12h17q13 0 17 -12zM173 214h326l-163 449z" glyph-name="Aring" horiz-adv-x="673" unicode="Å"/><glyph d="M787 34q13 0 13 -14v-7q0 -13 -13 -13h-325q-13 0 -13 13v179h-251l-97 -180q-5 -12 -17 -12h-11q-8 0 -11 5t1 12l360 671q6 12 18 12h344q13 0 13 -13v-7q0 -14 -13 -14h-300v-284h285q14 0 14 -13v-7q0 -14 -14 -14h-285v-314h302zM217 227h232v432z" glyph-name="AE" horiz-adv-x="885" unicode="Æ"/><glyph d="M663 96q10 -10 -5 -25q-96 -80 -220 -84l-27 -30v-2q37 0 60.5 -19.5t23.5 -54.5q0 -51 -40 -72t-94 -16q-9 1 -9 11v12q0 10 11 10q96 -5 96 49q0 32 -28.5 44t-66.5 -1q-12 -2 -12 7v9q0 5 5 12l37 42q-142 12 -230.5 113.5t-88.5 245.5q0 153 98.5 257t253.5 104 q131 0 231 -84q15 -15 5 -25l-4 -6q-10 -9 -23 1q-92 79 -207 79q-137 0 -227 -92.5t-90 -233.5t90 -233t227 -92q115 0 207 79q13 10 21 2z" glyph-name="Ccedilla" horiz-adv-x="739" unicode="Ç"/><glyph d="M203 910h15q11 0 16 -12l50 -116q7 -15 -7 -15h-14q-11 0 -15 12l-52 116q-3 8 -2 11.5t9 3.5zM108 0q-13 0 -13 13v674q0 13 13 13h324q13 0 13 -13v-7q0 -14 -13 -14h-301v-284h286q13 0 13 -13v-7q0 -14 -13 -14h-286v-314h302q14 0 14 -14v-7q0 -13 -14 -13h-325z " glyph-name="Egrave" horiz-adv-x="532" unicode="È"/><glyph d="M344 910q14 0 7 -15l-51 -116q-5 -12 -16 -12h-14q-8 0 -9 3.5t2 11.5l51 116q4 12 15 12h15zM108 0q-13 0 -13 13v674q0 13 13 13h324q13 0 13 -13v-7q0 -14 -13 -14h-301v-284h286q13 0 13 -13v-7q0 -14 -13 -14h-286v-314h302q14 0 14 -14v-7q0 -13 -14 -13h-325z" glyph-name="Eacute" horiz-adv-x="532" unicode="É"/><glyph d="M168 790q-5 0 -7.5 4t0.5 7l82 101q7 8 16 8h29q8 0 15 -8l83 -101q2 -3 0 -7t-7 -4h-21q-8 0 -15 8l-70 87l-70 -87q-7 -8 -15 -8h-20zM108 0q-13 0 -13 13v674q0 13 13 13h324q13 0 13 -13v-7q0 -14 -13 -14h-301v-284h286q13 0 13 -13v-7q0 -14 -13 -14h-286v-314h302 q14 0 14 -14v-7q0 -13 -14 -13h-325z" glyph-name="Ecircumflex" horiz-adv-x="532" unicode="Ê"/><glyph d="M194 862q-11 0 -19.5 8t-8.5 19q0 10 8.5 18t19.5 8t19.5 -8t8.5 -18q0 -11 -8.5 -19t-19.5 -8zM353 862q-11 0 -19.5 8t-8.5 19q0 10 8.5 18t19.5 8t19.5 -8t8.5 -18q0 -11 -8.5 -19t-19.5 -8zM108 0q-13 0 -13 13v674q0 13 13 13h324q13 0 13 -13v-7q0 -14 -13 -14 h-301v-284h286q13 0 13 -13v-7q0 -14 -13 -14h-286v-314h302q14 0 14 -14v-7q0 -13 -14 -13h-325z" glyph-name="Edieresis" horiz-adv-x="532" unicode="Ë"/><glyph d="M43 910h15q11 0 16 -12l50 -116q7 -15 -7 -15h-14q-11 0 -15 12l-52 116q-3 8 -2 11.5t9 3.5zM108 0q-13 0 -13 13v674q0 13 13 13h10q13 0 13 -13v-674q0 -13 -13 -13h-10z" glyph-name="Igrave" horiz-adv-x="226" unicode="Ì"/><glyph d="M184 910q14 0 7 -15l-51 -116q-5 -12 -16 -12h-14q-8 0 -9 3.5t2 11.5l51 116q4 12 15 12h15zM108 0q-13 0 -13 13v674q0 13 13 13h10q13 0 13 -13v-674q0 -13 -13 -13h-10z" glyph-name="Iacute" horiz-adv-x="226" unicode="Í"/><glyph d="M8 790q-5 0 -7.5 4t0.5 7l82 101q7 8 16 8h29q8 0 15 -8l83 -101q2 -3 0 -7t-7 -4h-21q-8 0 -15 8l-70 87l-70 -87q-7 -8 -15 -8h-20zM108 0q-13 0 -13 13v674q0 13 13 13h10q13 0 13 -13v-674q0 -13 -13 -13h-10z" glyph-name="Icircumflex" horiz-adv-x="226" unicode="Î"/><glyph d="M35 862q-11 0 -19.5 8t-8.5 19q0 10 8.5 18t19.5 8t19.5 -8t8.5 -18q0 -11 -8.5 -19t-19.5 -8zM194 862q-11 0 -19.5 8t-8.5 19q0 10 8.5 18t19.5 8t19.5 -8t8.5 -18q0 -11 -8.5 -19t-19.5 -8zM108 0q-13 0 -13 13v674q0 13 13 13h10q13 0 13 -13v-674q0 -13 -13 -13h-10 z" glyph-name="Idieresis" horiz-adv-x="226" unicode="Ï"/><glyph d="M239 700q178 0 266.5 -95t88.5 -255t-88.5 -255t-266.5 -95h-123q-13 0 -13 13v324h-65q-13 0 -13 14v6q0 13 13 13h65v317q0 13 13 13h123zM239 34q162 0 240.5 82.5t78.5 233.5t-78.5 233.5t-240.5 82.5h-100v-296h154q14 0 14 -13v-6q0 -14 -14 -14h-154v-303h100z " glyph-name="Eth" horiz-adv-x="665" unicode="Ð"/><glyph d="M207 858q-11 0 -8 11q4 26 23 41t46 15q32 0 66.5 -30.5t58.5 -30.5q30 0 39 31q3 10 11 10h6q10 0 10 -10q-4 -27 -23 -42.5t-41 -15.5q-35 0 -70 31t-59 31q-32 0 -41 -32q-3 -9 -11 -9h-7zM544 700q13 0 13 -13v-674q0 -13 -12 -13h-25q-12 0 -18 10l-371 648v-645 q0 -13 -13 -13h-10q-13 0 -13 13v674q0 13 12 13h26q12 0 18 -10l370 -648v645q0 13 14 13h9z" glyph-name="Ntilde" horiz-adv-x="652" unicode="Ñ"/><glyph d="M361 910h15q11 0 16 -12l50 -116q7 -15 -7 -15h-14q-11 0 -15 12l-52 116q-3 8 -2 11.5t9 3.5zM432 -13q-152 0 -254.5 104t-102.5 256q0 153 102.5 257t254.5 104q151 0 253.5 -104t102.5 -257q0 -152 -102.5 -256t-253.5 -104zM432 22q137 0 228.5 93t91.5 232 q0 140 -91.5 233t-228.5 93t-228.5 -93t-91.5 -233q0 -139 91.5 -232t228.5 -93z" glyph-name="Ograve" horiz-adv-x="864" unicode="Ò"/><glyph d="M503 910q14 0 7 -15l-51 -116q-5 -12 -16 -12h-14q-8 0 -9 3.5t2 11.5l51 116q4 12 15 12h15zM432 -13q-152 0 -254.5 104t-102.5 256q0 153 102.5 257t254.5 104q151 0 253.5 -104t102.5 -257q0 -152 -102.5 -256t-253.5 -104zM432 22q137 0 228.5 93t91.5 232 q0 140 -91.5 233t-228.5 93t-228.5 -93t-91.5 -233q0 -139 91.5 -232t228.5 -93z" glyph-name="Oacute" horiz-adv-x="864" unicode="Ó"/><glyph d="M327 790q-5 0 -7.5 4t0.5 7l82 101q7 8 16 8h29q8 0 15 -8l83 -101q2 -3 0 -7t-7 -4h-21q-8 0 -15 8l-70 87l-70 -87q-7 -8 -15 -8h-20zM432 -13q-152 0 -254.5 104t-102.5 256q0 153 102.5 257t254.5 104q151 0 253.5 -104t102.5 -257q0 -152 -102.5 -256t-253.5 -104z M432 22q137 0 228.5 93t91.5 232q0 140 -91.5 233t-228.5 93t-228.5 -93t-91.5 -233q0 -139 91.5 -232t228.5 -93z" glyph-name="Ocircumflex" horiz-adv-x="864" unicode="Ô"/><glyph d="M373 925q32 0 66.5 -30.5t58.5 -30.5q30 0 39 31q3 10 11 10h6q10 0 10 -10q-4 -27 -23 -42.5t-41 -15.5q-28 0 -49.5 15.5t-40 31t-39.5 15.5q-32 0 -41 -32q-3 -9 -11 -9h-7q-11 0 -8 11q4 26 23 41t46 15zM432 -13q-152 0 -254.5 104t-102.5 256q0 153 102.5 257 t254.5 104q151 0 253.5 -104t102.5 -257q0 -152 -102.5 -256t-253.5 -104zM432 22q137 0 228.5 93t91.5 232q0 140 -91.5 233t-228.5 93t-228.5 -93t-91.5 -233q0 -139 91.5 -232t228.5 -93z" glyph-name="Otilde" horiz-adv-x="864" unicode="Õ"/><glyph d="M353 862q-11 0 -19.5 8t-8.5 19q0 10 8.5 18t19.5 8t19.5 -8t8.5 -18q0 -11 -8.5 -19t-19.5 -8zM512 862q-11 0 -19.5 8t-8.5 19q0 10 8.5 18t19.5 8t19.5 -8t8.5 -18q0 -11 -8.5 -19t-19.5 -8zM432 -13q-152 0 -254.5 104t-102.5 256q0 153 102.5 257t254.5 104 q151 0 253.5 -104t102.5 -257q0 -152 -102.5 -256t-253.5 -104zM432 22q137 0 228.5 93t91.5 232q0 140 -91.5 233t-228.5 93t-228.5 -93t-91.5 -233q0 -139 91.5 -232t228.5 -93z" glyph-name="Odieresis" horiz-adv-x="864" unicode="Ö"/><glyph d="M199 283l71 -72q10 -10 0 -19l-9 -9q-9 -10 -19 0l-71 72l-73 -73q-9 -10 -19 0l-9 9q-9 9 0 19l73 73l-73 72q-9 9 0 19l9 9q10 9 19 0l73 -72l71 71q10 9 19 0l9 -10q10 -9 0 -18z" glyph-name="multiply" horiz-adv-x="339" unicode="×"/><glyph d="M593 671q89 -45 142 -131.5t53 -192.5q0 -152 -102.5 -256t-253.5 -104q-68 0 -129 23l-21 -49q-6 -11 -14 -11h-13q-16 0 -8 18l24 56q-90 44 -143 130t-53 193q0 153 102.5 257t254.5 104q69 0 129 -23l22 49q6 11 14 11h13q16 0 8 -18zM112 347q0 -97 47 -174.5 t126 -117.5l262 598q-54 20 -115 20q-137 0 -228.5 -93t-91.5 -233zM432 22q137 0 228.5 93t91.5 232q0 98 -46.5 175t-126.5 117l-262 -597q55 -20 115 -20z" glyph-name="Oslash" horiz-adv-x="864" unicode="Ø"/><glyph d="M236 910h15q11 0 16 -12l50 -116q7 -15 -7 -15h-14q-11 0 -15 12l-52 116q-3 8 -2 11.5t9 3.5zM306 -13q-98 0 -157 59.5t-59 163.5v477q0 13 13 13h10q13 0 13 -13v-466q0 -100 49.5 -149.5t130.5 -49.5t130.5 49.5t49.5 149.5v466q0 13 14 13h9q13 0 13 -13v-477 q0 -105 -58.5 -164t-157.5 -59z" glyph-name="Ugrave" horiz-adv-x="612" unicode="Ù"/><glyph d="M377 910q14 0 7 -15l-51 -116q-5 -12 -16 -12h-14q-8 0 -9 3.5t2 11.5l51 116q4 12 15 12h15zM306 -13q-98 0 -157 59.5t-59 163.5v477q0 13 13 13h10q13 0 13 -13v-466q0 -100 49.5 -149.5t130.5 -49.5t130.5 49.5t49.5 149.5v466q0 13 14 13h9q13 0 13 -13v-477 q0 -105 -58.5 -164t-157.5 -59z" glyph-name="Uacute" horiz-adv-x="612" unicode="Ú"/><glyph d="M201 790q-5 0 -7.5 4t0.5 7l82 101q7 8 16 8h29q8 0 15 -8l83 -101q2 -3 0 -7t-7 -4h-21q-8 0 -15 8l-70 87l-70 -87q-7 -8 -15 -8h-20zM306 -13q-98 0 -157 59.5t-59 163.5v477q0 13 13 13h10q13 0 13 -13v-466q0 -100 49.5 -149.5t130.5 -49.5t130.5 49.5t49.5 149.5 v466q0 13 14 13h9q13 0 13 -13v-477q0 -105 -58.5 -164t-157.5 -59z" glyph-name="Ucircumflex" horiz-adv-x="612" unicode="Û"/><glyph d="M228 862q-11 0 -19.5 8t-8.5 19q0 10 8.5 18t19.5 8t19.5 -8t8.5 -18q0 -11 -8.5 -19t-19.5 -8zM387 862q-11 0 -19.5 8t-8.5 19q0 10 8.5 18t19.5 8t19.5 -8t8.5 -18q0 -11 -8.5 -19t-19.5 -8zM306 -13q-98 0 -157 59.5t-59 163.5v477q0 13 13 13h10q13 0 13 -13v-466 q0 -100 49.5 -149.5t130.5 -49.5t130.5 49.5t49.5 149.5v466q0 13 14 13h9q13 0 13 -13v-477q0 -105 -58.5 -164t-157.5 -59z" glyph-name="Udieresis" horiz-adv-x="612" unicode="Ü"/><glyph d="M287 767q-8 0 -9 3.5t2 11.5l51 116q4 12 15 12h15q14 0 7 -15l-51 -116q-5 -12 -16 -12h-14zM508 700q9 0 11 -5.5t-3 -12.5l-208 -338v-331q0 -13 -14 -13h-9q-14 0 -14 13v329l-208 340q-5 7 -3 12.5t11 5.5h15q10 0 16 -10l188 -311l187 311q6 10 16 10h15z" glyph-name="Yacute" horiz-adv-x="579" unicode="Ý"/><glyph d="M277 559q103 0 158.5 -60t55.5 -149t-55.5 -149t-158.5 -60h-146v-128q0 -13 -13 -13h-10q-13 0 -13 13v674q0 13 13 13h10q13 0 13 -13v-128h146zM272 178q82 0 132.5 42.5t50.5 129.5t-50.5 129.5t-132.5 42.5h-141v-344h141z" glyph-name="Thorn" horiz-adv-x="557" unicode="Þ"/><glyph d="M347 395q149 -29 149 -201q0 -103 -53.5 -148.5t-172.5 -45.5h-68q-11 0 -11 13v6q0 13 11 13h71q100 0 145 38t45 125q0 89 -45.5 134t-146.5 45h-69q-11 0 -11 13v6q0 13 11 13h63q74 0 115 37t41 105q0 127 -146 127q-86 0 -116 -35.5t-30 -98.5v-528q0 -13 -12 -13 h-10q-12 0 -12 13v530q0 35 7 61.5t25 51.5t55 38.5t92 13.5q181 0 181 -163q0 -116 -108 -150z" glyph-name="germandbls" horiz-adv-x="556" unicode="ß"/><glyph d="M288 569l-52 116q-3 8 -2 11.5t9 3.5h15q11 0 16 -12l50 -116q7 -15 -7 -15h-14q-11 0 -15 12zM535 490q12 0 12 -13v-464q0 -13 -11 -13h-11q-12 0 -12 13l-1 96q-29 -57 -82 -89t-123 -32q-109 0 -178 72.5t-69 184.5q0 111 69 184t178 73q70 0 123 -33.5t82 -91.5 l1 100q0 13 12 13h10zM306 22q92 0 149.5 60.5t57.5 159.5q0 100 -58 163t-149 63q-93 0 -153 -62t-60 -161t59.5 -161t153.5 -62z" glyph-name="agrave" horiz-adv-x="632" unicode="à"/><glyph d="M311 557q-8 0 -9 3.5t2 11.5l51 116q4 12 15 12h15q14 0 7 -15l-51 -116q-5 -12 -16 -12h-14zM535 490q12 0 12 -13v-464q0 -13 -11 -13h-11q-12 0 -12 13l-1 96q-29 -57 -82 -89t-123 -32q-109 0 -178 72.5t-69 184.5q0 111 69 184t178 73q70 0 123 -33.5t82 -91.5 l1 100q0 13 12 13h10zM306 22q92 0 149.5 60.5t57.5 159.5q0 100 -58 163t-149 63q-93 0 -153 -62t-60 -161t59.5 -161t153.5 -62z" glyph-name="aacute" horiz-adv-x="632" unicode="á"/><glyph d="M208 580q-5 0 -7.5 4t0.5 7l82 101q7 8 16 8h29q8 0 15 -8l83 -101q2 -3 0 -7t-7 -4h-21q-8 0 -15 8l-70 87l-70 -87q-7 -8 -15 -8h-20zM535 490q12 0 12 -13v-464q0 -13 -11 -13h-11q-12 0 -12 13l-1 96q-29 -57 -82 -89t-123 -32q-109 0 -178 72.5t-69 184.5 q0 111 69 184t178 73q70 0 123 -33.5t82 -91.5l1 100q0 13 12 13h10zM306 22q92 0 149.5 60.5t57.5 159.5q0 100 -58 163t-149 63q-93 0 -153 -62t-60 -161t59.5 -161t153.5 -62z" glyph-name="acircumflex" horiz-adv-x="632" unicode="â"/><glyph d="M194 648q-11 0 -8 11q4 26 23 41t46 15q32 0 66.5 -30.5t58.5 -30.5q30 0 39 31q3 10 11 10h6q10 0 10 -10q-4 -27 -23 -42.5t-41 -15.5q-28 0 -49.5 15.5t-40 31t-39.5 15.5q-32 0 -41 -32q-3 -9 -11 -9h-7zM535 490q12 0 12 -13v-464q0 -13 -11 -13h-11q-12 0 -12 13 l-1 96q-29 -57 -82 -89t-123 -32q-109 0 -178 72.5t-69 184.5q0 111 69 184t178 73q70 0 123 -33.5t82 -91.5l1 100q0 13 12 13h10zM306 22q92 0 149.5 60.5t57.5 159.5q0 100 -58 163t-149 63q-93 0 -153 -62t-60 -161t59.5 -161t153.5 -62z" glyph-name="atilde" horiz-adv-x="632" unicode="ã"/><glyph d="M235 652q-11 0 -19.5 8t-8.5 19q0 10 8.5 18t19.5 8t19.5 -8t8.5 -18q0 -11 -8.5 -19t-19.5 -8zM394 652q-11 0 -19.5 8t-8.5 19q0 10 8.5 18t19.5 8t19.5 -8t8.5 -18q0 -11 -8.5 -19t-19.5 -8zM535 490q12 0 12 -13v-464q0 -13 -11 -13h-11q-12 0 -12 13l-1 96 q-29 -57 -82 -89t-123 -32q-109 0 -178 72.5t-69 184.5q0 111 69 184t178 73q70 0 123 -33.5t82 -91.5l1 100q0 13 12 13h10zM306 22q92 0 149.5 60.5t57.5 159.5q0 100 -58 163t-149 63q-93 0 -153 -62t-60 -161t59.5 -161t153.5 -62z" glyph-name="adieresis" horiz-adv-x="632" unicode="ä"/><glyph d="M314 575q-28 0 -47.5 18.5t-19.5 47.5q0 28 19.5 46t47.5 18t47.5 -18t19.5 -46q0 -29 -19.5 -47.5t-47.5 -18.5zM314 671q-14 0 -22.5 -8.5t-8.5 -22.5t8.5 -22.5t22.5 -8.5q13 0 22 9t9 22t-9 22t-22 9zM535 490q12 0 12 -13v-464q0 -13 -11 -13h-11q-12 0 -12 13 l-1 96q-29 -57 -82 -89t-123 -32q-109 0 -178 72.5t-69 184.5q0 111 69 184t178 73q70 0 123 -33.5t82 -91.5l1 100q0 13 12 13h10zM306 22q92 0 149.5 60.5t57.5 159.5q0 100 -58 163t-149 63q-93 0 -153 -62t-60 -161t59.5 -161t153.5 -62z" glyph-name="aring" horiz-adv-x="632" unicode="å"/><glyph d="M757 502q103 0 165 -68.5t62 -162.5q0 -22 -5 -29.5t-21 -7.5h-409q4 -91 62.5 -152t160.5 -61q88 0 157 56q7 9 13 1l6 -6q7 -8 -3 -20q-70 -64 -176 -64q-88 0 -150.5 45t-88.5 119q-24 -75 -83.5 -119.5t-142.5 -44.5q-109 0 -176.5 72.5t-67.5 184.5q0 111 69 184 t178 73q74 0 127.5 -33.5t81.5 -93.5l1 102q0 13 12 13h11q12 0 12 -13v-88q32 53 85.5 83t119.5 30zM306 22q92 0 149.5 60.5t57.5 159.5q0 100 -58 163t-149 63q-93 0 -153 -62t-60 -161t59.5 -161t153.5 -62zM756 467q-82 0 -137 -48.5t-67 -128.5v-23h400 q0 85 -53 142.5t-143 57.5z" glyph-name="ae" horiz-adv-x="1044" unicode="æ"/><glyph d="M498 85q6 -6 -2 -19q-64 -75 -175 -78l-28 -31v-2q37 0 60.5 -19.5t23.5 -54.5q0 -51 -40 -72t-94 -16q-9 1 -9 11v12q0 10 11 10q96 -5 96 49q0 32 -28.5 44t-66.5 -1q-12 -2 -12 7v9q0 5 5 12l38 44q-94 12 -155.5 83t-61.5 171q0 111 73 184.5t181 73.5q114 0 181 -78 q8 -13 2 -19l-5 -5q-10 -10 -21 1q-62 67 -156 67t-157 -62.5t-63 -161.5t63 -160.5t158 -61.5t154 65q13 13 23 3z" glyph-name="ccedilla" horiz-adv-x="562" unicode="ç"/><glyph d="M266 569l-52 116q-3 8 -2 11.5t9 3.5h15q11 0 16 -12l50 -116q7 -15 -7 -15h-14q-11 0 -15 12zM303 502q103 0 164.5 -68.5t61.5 -162.5q0 -23 -5 -30t-21 -7h-409q5 -91 63 -152t160 -61q90 0 157 56q8 8 14 1l6 -6q7 -9 -4 -20q-69 -64 -175 -64q-116 0 -185.5 75 t-69.5 184t68 182t175 73zM302 467q-88 0 -144.5 -55.5t-62.5 -144.5h402q0 85 -52.5 142.5t-142.5 57.5z" glyph-name="egrave" horiz-adv-x="590" unicode="è"/><glyph d="M289 557q-8 0 -9 3.5t2 11.5l51 116q4 12 15 12h15q14 0 7 -15l-51 -116q-5 -12 -16 -12h-14zM303 502q103 0 164.5 -68.5t61.5 -162.5q0 -23 -5 -30t-21 -7h-409q5 -91 63 -152t160 -61q90 0 157 56q8 8 14 1l6 -6q7 -9 -4 -20q-69 -64 -175 -64q-116 0 -185.5 75 t-69.5 184t68 182t175 73zM302 467q-88 0 -144.5 -55.5t-62.5 -144.5h402q0 85 -52.5 142.5t-142.5 57.5z" glyph-name="eacute" horiz-adv-x="590" unicode="é"/><glyph d="M186 580q-5 0 -7.5 4t0.5 7l82 101q7 8 16 8h29q8 0 15 -8l83 -101q2 -3 0 -7t-7 -4h-21q-8 0 -15 8l-70 87l-70 -87q-7 -8 -15 -8h-20zM303 502q103 0 164.5 -68.5t61.5 -162.5q0 -23 -5 -30t-21 -7h-409q5 -91 63 -152t160 -61q90 0 157 56q8 8 14 1l6 -6q7 -9 -4 -20 q-69 -64 -175 -64q-116 0 -185.5 75t-69.5 184t68 182t175 73zM302 467q-88 0 -144.5 -55.5t-62.5 -144.5h402q0 85 -52.5 142.5t-142.5 57.5z" glyph-name="ecircumflex" horiz-adv-x="590" unicode="ê"/><glyph d="M213 652q-11 0 -19.5 8t-8.5 19q0 10 8.5 18t19.5 8t19.5 -8t8.5 -18q0 -11 -8.5 -19t-19.5 -8zM372 652q-11 0 -19.5 8t-8.5 19q0 10 8.5 18t19.5 8t19.5 -8t8.5 -18q0 -11 -8.5 -19t-19.5 -8zM303 502q103 0 164.5 -68.5t61.5 -162.5q0 -23 -5 -30t-21 -7h-409 q5 -91 63 -152t160 -61q90 0 157 56q8 8 14 1l6 -6q7 -9 -4 -20q-69 -64 -175 -64q-116 0 -185.5 75t-69.5 184t68 182t175 73zM302 467q-88 0 -144.5 -55.5t-62.5 -144.5h402q0 85 -52.5 142.5t-142.5 57.5z" glyph-name="edieresis" horiz-adv-x="590" unicode="ë"/><glyph d="M10 700h15q11 0 16 -12l50 -116q7 -15 -7 -15h-14q-11 0 -15 12l-52 116q-3 8 -2 11.5t9 3.5zM75 0q-12 0 -12 13v464q0 13 12 13h11q11 0 11 -13v-464q0 -13 -11 -13h-11z" glyph-name="igrave" horiz-adv-x="161" unicode="ì"/><glyph d="M152 700q14 0 7 -15l-51 -116q-5 -12 -16 -12h-14q-8 0 -9 3.5t2 11.5l51 116q4 12 15 12h15zM75 0q-12 0 -12 13v464q0 13 12 13h11q11 0 11 -13v-464q0 -13 -11 -13h-11z" glyph-name="iacute" horiz-adv-x="161" unicode="í"/><glyph d="M-25 580q-5 0 -7.5 4t0.5 7l82 101q7 8 16 8h29q8 0 15 -8l83 -101q2 -3 0 -7t-7 -4h-21q-8 0 -15 8l-70 87l-70 -87q-7 -8 -15 -8h-20zM75 0q-12 0 -12 13v464q0 13 12 13h11q11 0 11 -13v-464q0 -13 -11 -13h-11z" glyph-name="icircumflex" horiz-adv-x="161" unicode="î"/><glyph d="M2 652q-11 0 -19.5 8t-8.5 19q0 10 8.5 18t19.5 8t19.5 -8t8.5 -18q0 -11 -8.5 -19t-19.5 -8zM161 652q-11 0 -19.5 8t-8.5 19q0 10 8.5 18t19.5 8t19.5 -8t8.5 -18q0 -11 -8.5 -19t-19.5 -8zM75 0q-12 0 -12 13v464q0 13 12 13h11q11 0 11 -13v-464q0 -13 -11 -13h-11z " glyph-name="idieresis" horiz-adv-x="161" unicode="ï"/><glyph d="M573 614q16 2 16 -14v-4q0 -14 -14 -16l-28 -4v-563q0 -13 -11 -13h-11q-12 0 -12 13l-1 96q-29 -57 -82 -89t-123 -32q-109 0 -178 72.5t-69 184.5q0 111 69 184t178 73q70 0 123 -33.5t82 -91.5l1 100v93l-109 -17q-16 -2 -16 14v4q0 14 14 16l111 18v97q0 13 12 13h10 q12 0 12 -13v-92zM306 22q92 0 149.5 60.5t57.5 159.5q0 100 -58 163t-149 63q-93 0 -153 -62t-60 -161t59.5 -161t153.5 -62z" glyph-name="eth" horiz-adv-x="589" unicode="ð"/><glyph d="M168 648q-11 0 -8 11q4 26 23 41t46 15q32 0 66.5 -30.5t58.5 -30.5q30 0 39 31q3 10 11 10h6q10 0 10 -10q-4 -27 -23 -42.5t-41 -15.5q-28 0 -49.5 15.5t-40 31t-39.5 15.5q-32 0 -41 -32q-3 -9 -11 -9h-7zM288 502q83 0 132.5 -51t49.5 -148v-290q0 -13 -12 -13h-11 q-12 0 -12 13v297q0 73 -39 115.5t-108 42.5q-72 0 -120 -43.5t-48 -114.5v-297q0 -13 -12 -13h-11q-12 0 -12 13v464q0 13 12 13h7q13 0 13 -14l3 -66q52 92 168 92z" glyph-name="ntilde" unicode="ñ"/><glyph d="M237 700h15q11 0 16 -12l50 -116q7 -15 -7 -15h-14q-11 0 -15 12l-52 116q-3 8 -2 11.5t9 3.5zM308 -12q-106 0 -177 73.5t-71 183.5t71 183.5t177 73.5q105 0 176 -73.5t71 -183.5t-71 -183.5t-176 -73.5zM308 22q92 0 152.5 63t60.5 160t-60.5 160t-152.5 63 t-152.5 -63t-60.5 -160t60.5 -160t152.5 -63z" glyph-name="ograve" horiz-adv-x="616" unicode="ò"/><glyph d="M379 700q14 0 7 -15l-51 -116q-5 -12 -16 -12h-14q-8 0 -9 3.5t2 11.5l51 116q4 12 15 12h15zM308 -12q-106 0 -177 73.5t-71 183.5t71 183.5t177 73.5q105 0 176 -73.5t71 -183.5t-71 -183.5t-176 -73.5zM308 22q92 0 152.5 63t60.5 160t-60.5 160t-152.5 63t-152.5 -63 t-60.5 -160t60.5 -160t152.5 -63z" glyph-name="oacute" horiz-adv-x="616" unicode="ó"/><glyph d="M203 580q-5 0 -7.5 4t0.5 7l82 101q7 8 16 8h29q8 0 15 -8l83 -101q2 -3 0 -7t-7 -4h-21q-8 0 -15 8l-70 87l-70 -87q-7 -8 -15 -8h-20zM308 -12q-106 0 -177 73.5t-71 183.5t71 183.5t177 73.5q105 0 176 -73.5t71 -183.5t-71 -183.5t-176 -73.5zM308 22q92 0 152.5 63 t60.5 160t-60.5 160t-152.5 63t-152.5 -63t-60.5 -160t60.5 -160t152.5 -63z" glyph-name="ocircumflex" horiz-adv-x="616" unicode="ô"/><glyph d="M249 715q32 0 66.5 -30.5t58.5 -30.5q30 0 39 31q3 10 11 10h6q10 0 10 -10q-4 -27 -23 -42.5t-41 -15.5q-28 0 -49.5 15.5t-40 31t-39.5 15.5q-32 0 -41 -32q-3 -9 -11 -9h-7q-11 0 -8 11q4 26 23 41t46 15zM308 -12q-106 0 -177 73.5t-71 183.5t71 183.5t177 73.5 q105 0 176 -73.5t71 -183.5t-71 -183.5t-176 -73.5zM308 22q92 0 152.5 63t60.5 160t-60.5 160t-152.5 63t-152.5 -63t-60.5 -160t60.5 -160t152.5 -63z" glyph-name="otilde" horiz-adv-x="616" unicode="õ"/><glyph d="M229 652q-11 0 -19.5 8t-8.5 19q0 10 8.5 18t19.5 8t19.5 -8t8.5 -18q0 -11 -8.5 -19t-19.5 -8zM388 652q-11 0 -19.5 8t-8.5 19q0 10 8.5 18t19.5 8t19.5 -8t8.5 -18q0 -11 -8.5 -19t-19.5 -8zM308 -12q-106 0 -177 73.5t-71 183.5t71 183.5t177 73.5q105 0 176 -73.5 t71 -183.5t-71 -183.5t-176 -73.5zM308 22q92 0 152.5 63t60.5 160t-60.5 160t-152.5 63t-152.5 -63t-60.5 -160t60.5 -160t152.5 -63z" glyph-name="odieresis" horiz-adv-x="616" unicode="ö"/><glyph d="M208 369q-15 0 -25.5 10t-10.5 25t10.5 25.5t25.5 10.5q14 0 25 -10.5t11 -25.5t-10.5 -25t-25.5 -10zM80 263q-15 0 -15 15v10q0 15 15 15h260q15 0 15 -15v-10q0 -15 -15 -15h-260zM208 120q-15 0 -25.5 10t-10.5 26q0 14 10.5 25t25.5 11q14 0 25 -11t11 -25 q0 -15 -10.5 -25.5t-25.5 -10.5z" glyph-name="divide" horiz-adv-x="420" unicode="÷"/><glyph d="M430 471q58 -33 91.5 -92.5t33.5 -133.5q0 -110 -71 -183.5t-176 -73.5q-50 0 -93 17l-30 -64q-6 -11 -15 -11h-9q-16 0 -8 18l33 71q-58 33 -92 92.5t-34 133.5q0 110 71 183.5t177 73.5q47 0 92 -17l28 62q6 11 15 11h10q17 0 9 -18zM95 245q0 -64 28 -115.5t77 -79.5 l186 404q-37 14 -78 14q-92 0 -152.5 -63t-60.5 -160zM308 22q92 0 152.5 63t60.5 160q0 65 -28 116t-77 79l-187 -404q37 -14 79 -14z" glyph-name="oslash" horiz-adv-x="616" unicode="ø"/><glyph d="M253 569l-52 116q-3 8 -2 11.5t9 3.5h15q11 0 16 -12l50 -116q7 -15 -7 -15h-14q-11 0 -15 12zM458 490q12 0 12 -13v-464q0 -13 -12 -13h-7q-13 0 -13 14l-3 66q-52 -92 -168 -92q-83 0 -132.5 51t-49.5 148v290q0 13 12 13h11q12 0 12 -13v-297q0 -73 39 -115.5 t108 -42.5q72 0 120 43.5t48 114.5v297q0 13 12 13h11z" glyph-name="ugrave" unicode="ù"/><glyph d="M276 557q-8 0 -9 3.5t2 11.5l51 116q4 12 15 12h15q14 0 7 -15l-51 -116q-5 -12 -16 -12h-14zM458 490q12 0 12 -13v-464q0 -13 -12 -13h-7q-13 0 -13 14l-3 66q-52 -92 -168 -92q-83 0 -132.5 51t-49.5 148v290q0 13 12 13h11q12 0 12 -13v-297q0 -73 39 -115.5 t108 -42.5q72 0 120 43.5t48 114.5v297q0 13 12 13h11z" glyph-name="uacute" unicode="ú"/><glyph d="M173 580q-5 0 -7.5 4t0.5 7l82 101q7 8 16 8h29q8 0 15 -8l83 -101q2 -3 0 -7t-7 -4h-21q-8 0 -15 8l-70 87l-70 -87q-7 -8 -15 -8h-20zM458 490q12 0 12 -13v-464q0 -13 -12 -13h-7q-13 0 -13 14l-3 66q-52 -92 -168 -92q-83 0 -132.5 51t-49.5 148v290q0 13 12 13h11 q12 0 12 -13v-297q0 -73 39 -115.5t108 -42.5q72 0 120 43.5t48 114.5v297q0 13 12 13h11z" glyph-name="ucircumflex" unicode="û"/><glyph d="M200 652q-11 0 -19.5 8t-8.5 19q0 10 8.5 18t19.5 8t19.5 -8t8.5 -18q0 -11 -8.5 -19t-19.5 -8zM359 652q-11 0 -19.5 8t-8.5 19q0 10 8.5 18t19.5 8t19.5 -8t8.5 -18q0 -11 -8.5 -19t-19.5 -8zM458 490q12 0 12 -13v-464q0 -13 -12 -13h-7q-13 0 -13 14l-3 66 q-52 -92 -168 -92q-83 0 -132.5 51t-49.5 148v290q0 13 12 13h11q12 0 12 -13v-297q0 -73 39 -115.5t108 -42.5q72 0 120 43.5t48 114.5v297q0 13 12 13h11z" glyph-name="udieresis" unicode="ü"/><glyph d="M336 700q14 0 7 -15l-51 -116q-5 -12 -16 -12h-14q-8 0 -9 3.5t2 11.5l51 116q4 12 15 12h15zM186 -190q-14 0 -9 14l68 173l-187 476q-6 17 10 17h10q10 0 15 -12l171 -443l172 443q5 12 14 12h10q17 0 11 -17l-258 -651q-5 -12 -16 -12h-11z" glyph-name="yacute" horiz-adv-x="528" unicode="ý"/><glyph d="M326 502q109 0 177.5 -73t68.5 -184q0 -112 -68.5 -184.5t-177.5 -72.5q-71 0 -124 32t-82 89l-1 -96v-190q0 -13 -12 -13h-10q-12 0 -12 13v879q0 13 12 13h10q12 0 12 -13v-225l1 -101q29 59 82.5 92.5t123.5 33.5zM326 22q94 0 153.5 62t59.5 161t-60 161t-153 62 q-91 0 -149 -63t-58 -163q0 -99 57.5 -159.5t149.5 -60.5z" glyph-name="thorn" horiz-adv-x="632" unicode="þ"/><glyph d="M186 652q-11 0 -19.5 8t-8.5 19q0 10 8.5 18t19.5 8t19.5 -8t8.5 -18q0 -11 -8.5 -19t-19.5 -8zM345 652q-11 0 -19.5 8t-8.5 19q0 10 8.5 18t19.5 8t19.5 -8t8.5 -18q0 -11 -8.5 -19t-19.5 -8zM186 -190q-14 0 -9 14l68 173l-187 476q-6 17 10 17h10q10 0 15 -12 l171 -443l172 443q5 12 14 12h10q17 0 11 -17l-258 -651q-5 -12 -16 -12h-11z" glyph-name="ydieresis" horiz-adv-x="528" unicode="ÿ"/><glyph d="M208 877q-13 0 -13 13v7q0 13 13 13h255q14 0 14 -13v-7q0 -13 -14 -13h-255zM610 17q7 -17 -11 -17h-11q-11 0 -15 12l-62 169h-350l-61 -169q-4 -12 -17 -12h-10q-17 0 -10 17l247 671q4 12 18 12h17q13 0 17 -12zM173 214h326l-163 449z" glyph-name="Amacron" horiz-adv-x="673" unicode="Ā"/><glyph d="M186 667q-13 0 -13 13v7q0 13 13 13h255q14 0 14 -13v-7q0 -13 -14 -13h-255zM535 490q12 0 12 -13v-464q0 -13 -11 -13h-11q-12 0 -12 13l-1 96q-29 -57 -82 -89t-123 -32q-109 0 -178 72.5t-69 184.5q0 111 69 184t178 73q70 0 123 -33.5t82 -91.5l1 100q0 13 12 13h10 zM306 22q92 0 149.5 60.5t57.5 159.5q0 100 -58 163t-149 63q-93 0 -153 -62t-60 -161t59.5 -161t153.5 -62z" glyph-name="amacron" horiz-adv-x="632" unicode="ā"/><glyph d="M336 787q-52 0 -85.5 30t-38.5 78q-2 15 14 15h2q13 0 16 -14q6 -35 30.5 -56t61.5 -21t61.5 21t31.5 56q3 14 16 14h1q16 0 14 -15q-5 -48 -38.5 -78t-85.5 -30zM610 17q7 -17 -11 -17h-11q-11 0 -15 12l-62 169h-350l-61 -169q-4 -12 -17 -12h-10q-17 0 -10 17l247 671 q4 12 18 12h17q13 0 17 -12zM173 214h326l-163 449z" glyph-name="Abreve" horiz-adv-x="673" unicode="Ă"/><glyph d="M313 577q-52 0 -85.5 30t-38.5 78q-1 15 14 15h2q13 0 16 -14q6 -35 30.5 -56t61.5 -21t61.5 21t31.5 56q3 14 16 14h1q15 0 14 -15q-5 -48 -38.5 -78t-85.5 -30zM535 490q12 0 12 -13v-464q0 -13 -11 -13h-11q-12 0 -12 13l-1 96q-29 -57 -82 -89t-123 -32 q-109 0 -178 72.5t-69 184.5q0 111 69 184t178 73q70 0 123 -33.5t82 -91.5l1 100q0 13 12 13h10zM306 22q92 0 149.5 60.5t57.5 159.5q0 100 -58 163t-149 63q-93 0 -153 -62t-60 -161t59.5 -161t153.5 -62z" glyph-name="abreve" horiz-adv-x="632" unicode="ă"/><glyph d="M610 17q7 -15 -8 -17q-47 -2 -82 -31.5t-35 -75.5q0 -41 29 -57.5t75 -6.5v-27q-41 -18 -89 4t-48 83q0 53 35.5 87t82.5 45l-59 160h-350l-61 -169q-4 -12 -17 -12h-10q-17 0 -10 17l247 671q4 12 18 12h17q13 0 17 -12zM173 214h326l-163 449z" glyph-name="Aogonek" horiz-adv-x="673" unicode="Ą"/><glyph d="M535 490q12 0 12 -13v-464q0 -13 -11 -13h-11q-47 -2 -82 -31.5t-35 -75.5q0 -41 29 -57.5t76 -6.5v-27q-41 -18 -89.5 4t-48.5 83q0 59 44 95t94 40l-1 85q-29 -57 -82 -89t-123 -32q-109 0 -178 72.5t-69 184.5q0 111 69 184t178 73q70 0 123 -33.5t82 -91.5l1 100 q0 13 12 13h10zM306 22q92 0 149.5 60.5t57.5 159.5q0 100 -58 163t-149 63q-93 0 -153 -62t-60 -161t59.5 -161t153.5 -62z" glyph-name="aogonek" horiz-adv-x="632" unicode="ą"/><glyph d="M496 910q14 0 7 -15l-51 -116q-5 -12 -16 -12h-14q-8 0 -9 3.5t2 11.5l51 116q4 12 15 12h15zM427 -13q-155 0 -253.5 103.5t-98.5 256.5t98.5 257t253.5 104q131 0 231 -84q15 -15 5 -25l-4 -6q-10 -9 -23 1q-92 79 -207 79q-137 0 -227 -92.5t-90 -233.5t90 -233 t227 -92q115 0 207 79q13 10 21 2l6 -7q10 -10 -5 -25q-100 -84 -231 -84z" glyph-name="Cacute" horiz-adv-x="739" unicode="Ć"/><glyph d="M378 700q14 0 7 -15l-51 -116q-5 -12 -16 -12h-14q-8 0 -9 3.5t2 11.5l51 116q4 12 15 12h15zM312 -12q-107 0 -179.5 73t-72.5 183q0 111 73 184.5t181 73.5q114 0 181 -78q8 -13 2 -19l-5 -5q-10 -10 -21 1q-62 67 -156 67t-157 -62.5t-63 -161.5t63 -160.5t158 -61.5 t154 65q13 13 23 3l5 -5q6 -6 -2 -19q-67 -78 -184 -78z" glyph-name="cacute" horiz-adv-x="562" unicode="ć"/><glyph d="M425 862q-11 0 -19.5 8t-8.5 19q0 10 8.5 18t19.5 8t19.5 -8t8.5 -18q0 -11 -8.5 -19t-19.5 -8zM427 -13q-155 0 -253.5 103.5t-98.5 256.5t98.5 257t253.5 104q131 0 231 -84q15 -15 5 -25l-4 -6q-10 -9 -23 1q-92 79 -207 79q-137 0 -227 -92.5t-90 -233.5t90 -233 t227 -92q115 0 207 79q13 10 21 2l6 -7q10 -10 -5 -25q-100 -84 -231 -84z" glyph-name="Cdotaccent" horiz-adv-x="739" unicode="Ċ"/><glyph d="M307 652q-11 0 -19.5 8t-8.5 19q0 10 8.5 18t19.5 8t19.5 -8t8.5 -18q0 -11 -8.5 -19t-19.5 -8zM312 -12q-107 0 -179.5 73t-72.5 183q0 111 73 184.5t181 73.5q114 0 181 -78q8 -13 2 -19l-5 -5q-10 -10 -21 1q-62 67 -156 67t-157 -62.5t-63 -161.5t63 -160.5 t158 -61.5t154 65q13 13 23 3l5 -5q6 -6 -2 -19q-67 -78 -184 -78z" glyph-name="cdotaccent" horiz-adv-x="562" unicode="ċ"/><glyph d="M320 909h20q8 0 15 -8l70 -87l70 87q7 8 15 8h21q5 0 7 -3.5t0 -7.5l-83 -101q-7 -8 -15 -8h-29q-9 0 -16 8l-82 101q-3 4 -0.5 7.5t7.5 3.5zM427 -13q-155 0 -253.5 103.5t-98.5 256.5t98.5 257t253.5 104q131 0 231 -84q15 -15 5 -25l-4 -6q-10 -9 -23 1 q-92 79 -207 79q-137 0 -227 -92.5t-90 -233.5t90 -233t227 -92q115 0 207 79q13 10 21 2l6 -7q10 -10 -5 -25q-100 -84 -231 -84z" glyph-name="Ccaron" horiz-adv-x="739" unicode="Č"/><glyph d="M202 699h20q8 0 15 -8l70 -87l70 87q7 8 15 8h21q5 0 7 -3.5t0 -7.5l-83 -101q-7 -8 -15 -8h-29q-9 0 -16 8l-82 101q-3 4 -0.5 7.5t7.5 3.5zM312 -12q-107 0 -179.5 73t-72.5 183q0 111 73 184.5t181 73.5q114 0 181 -78q8 -13 2 -19l-5 -5q-10 -10 -21 1 q-62 67 -156 67t-157 -62.5t-63 -161.5t63 -160.5t158 -61.5t154 65q13 13 23 3l5 -5q6 -6 -2 -19q-67 -78 -184 -78z" glyph-name="ccaron" horiz-adv-x="562" unicode="č"/><glyph d="M223 909h20q8 0 15 -8l70 -87l70 87q7 8 15 8h21q5 0 7 -3.5t0 -7.5l-83 -101q-7 -8 -15 -8h-29q-9 0 -16 8l-82 101q-3 4 -0.5 7.5t7.5 3.5zM108 0q-13 0 -13 13v674q0 13 13 13h123q178 0 266.5 -95t88.5 -255t-88.5 -255t-266.5 -95h-123zM131 34h100 q162 0 240.5 82.5t78.5 233.5t-78.5 233.5t-240.5 82.5h-100v-632z" glyph-name="Dcaron" horiz-adv-x="657" unicode="Ď"/><glyph d="M535 715q12 0 12 -13v-689q0 -13 -11 -13h-11q-12 0 -12 13l-1 96q-29 -57 -82 -89t-123 -32q-109 0 -178 72.5t-69 184.5q0 111 69 184t178 73q70 0 123 -33.5t82 -91.5l1 100v225q0 13 12 13h10zM679 687q8 0 9 -3.5t-2 -11.5l-52 -116q-4 -12 -15 -12h-14q-14 0 -7 15 l50 116q5 12 16 12h15zM306 22q92 0 149.5 60.5t57.5 159.5q0 100 -58 163t-149 63q-93 0 -153 -62t-60 -161t59.5 -161t153.5 -62z" glyph-name="dcaron" horiz-adv-x="655" unicode="ď"/><glyph d="M239 700q178 0 266.5 -95t88.5 -255t-88.5 -255t-266.5 -95h-123q-13 0 -13 13v324h-65q-13 0 -13 14v6q0 13 13 13h65v317q0 13 13 13h123zM239 34q162 0 240.5 82.5t78.5 233.5t-78.5 233.5t-240.5 82.5h-100v-296h154q14 0 14 -13v-6q0 -14 -14 -14h-154v-303h100z " glyph-name="Dcroat" horiz-adv-x="665" unicode="Đ"/><glyph d="M590 629q14 0 14 -13v-6q0 -14 -14 -14h-43v-583q0 -13 -11 -13h-11q-12 0 -12 13l-1 96q-29 -57 -82 -89t-123 -32q-109 0 -178 72.5t-69 184.5q0 111 69 184t178 73q70 0 123 -33.5t82 -91.5l1 100v119h-178q-13 0 -13 14v6q0 13 13 13h178v73q0 13 12 13h10 q12 0 12 -13v-73h43zM306 22q92 0 149.5 60.5t57.5 159.5q0 100 -58 163t-149 63q-93 0 -153 -62t-60 -161t59.5 -161t153.5 -62z" glyph-name="dcroat" horiz-adv-x="619" unicode="đ"/><glyph d="M400 910q14 0 14 -13v-7q0 -13 -14 -13h-255q-13 0 -13 13v7q0 13 13 13h255zM108 0q-13 0 -13 13v674q0 13 13 13h324q13 0 13 -13v-7q0 -14 -13 -14h-301v-284h286q13 0 13 -13v-7q0 -14 -13 -14h-286v-314h302q14 0 14 -14v-7q0 -13 -14 -13h-325z" glyph-name="Emacron" horiz-adv-x="532" unicode="Ē"/><glyph d="M164 667q-13 0 -13 13v7q0 13 13 13h255q14 0 14 -13v-7q0 -13 -14 -13h-255zM303 502q103 0 164.5 -68.5t61.5 -162.5q0 -23 -5 -30t-21 -7h-409q5 -91 63 -152t160 -61q90 0 157 56q8 8 14 1l6 -6q7 -9 -4 -20q-69 -64 -175 -64q-116 0 -185.5 75t-69.5 184t68 182 t175 73zM302 467q-88 0 -144.5 -55.5t-62.5 -144.5h402q0 85 -52.5 142.5t-142.5 57.5z" glyph-name="emacron" horiz-adv-x="590" unicode="ē"/><glyph d="M273 862q-11 0 -19.5 8t-8.5 19q0 10 8.5 18t19.5 8t19.5 -8t8.5 -18q0 -11 -8.5 -19t-19.5 -8zM108 0q-13 0 -13 13v674q0 13 13 13h324q13 0 13 -13v-7q0 -14 -13 -14h-301v-284h286q13 0 13 -13v-7q0 -14 -13 -14h-286v-314h302q14 0 14 -14v-7q0 -13 -14 -13h-325z " glyph-name="Edotaccent" horiz-adv-x="532" unicode="Ė"/><glyph d="M292 652q-11 0 -19.5 8t-8.5 19q0 10 8.5 18t19.5 8t19.5 -8t8.5 -18q0 -11 -8.5 -19t-19.5 -8zM303 502q103 0 164.5 -68.5t61.5 -162.5q0 -23 -5 -30t-21 -7h-409q5 -91 63 -152t160 -61q90 0 157 56q8 8 14 1l6 -6q7 -9 -4 -20q-69 -64 -175 -64q-116 0 -185.5 75 t-69.5 184t68 182t175 73zM302 467q-88 0 -144.5 -55.5t-62.5 -144.5h402q0 85 -52.5 142.5t-142.5 57.5z" glyph-name="edotaccent" horiz-adv-x="590" unicode="ė"/><glyph d="M433 34q14 0 14 -14v-7q0 -13 -13 -13q-47 -2 -82 -31.5t-35 -75.5q0 -41 29 -57.5t75 -6.5v-27q-41 -18 -89 4t-48 83q0 71 66 111h-242q-13 0 -13 13v674q0 13 13 13h324q13 0 13 -13v-7q0 -14 -13 -14h-301v-284h286q13 0 13 -13v-7q0 -14 -13 -14h-286v-314h302z" glyph-name="Eogonek" horiz-adv-x="532" unicode="Ę"/><glyph d="M303 502q103 0 164.5 -68.5t61.5 -162.5q0 -23 -5 -30t-21 -7h-409q5 -91 63 -152t160 -61q28 0 48 4q14 6 31 12v-4q42 13 78 44q8 8 14 1l6 -6q7 -9 -4 -20q-53 -50 -135 -61q-77 -35 -77 -101q0 -84 105 -61v-27q-26 -8 -56.5 -6.5t-56 26.5t-25.5 66q0 59 55 100 q-110 6 -175 80t-65 179q0 109 68 182t175 73zM302 467q-88 0 -144.5 -55.5t-62.5 -144.5h402q0 85 -52.5 142.5t-142.5 57.5z" glyph-name="eogonek" horiz-adv-x="590" unicode="ę"/><glyph d="M168 909h20q8 0 15 -8l70 -87l70 87q7 8 15 8h21q5 0 7 -3.5t0 -7.5l-83 -101q-7 -8 -15 -8h-29q-9 0 -16 8l-82 101q-3 4 -0.5 7.5t7.5 3.5zM108 0q-13 0 -13 13v674q0 13 13 13h324q13 0 13 -13v-7q0 -14 -13 -14h-301v-284h286q13 0 13 -13v-7q0 -14 -13 -14h-286 v-314h302q14 0 14 -14v-7q0 -13 -14 -13h-325z" glyph-name="Ecaron" horiz-adv-x="532" unicode="Ě"/><glyph d="M261 587l-82 101q-3 4 -0.5 7.5t7.5 3.5h20q8 0 15 -8l70 -87l70 87q7 8 15 8h21q5 0 7 -3.5t0 -7.5l-83 -101q-7 -8 -15 -8h-29q-9 0 -16 8zM303 502q103 0 164.5 -68.5t61.5 -162.5q0 -23 -5 -30t-21 -7h-409q5 -91 63 -152t160 -61q90 0 157 56q8 8 14 1l6 -6 q7 -9 -4 -20q-69 -64 -175 -64q-116 0 -185.5 75t-69.5 184t68 182t175 73zM302 467q-88 0 -144.5 -55.5t-62.5 -144.5h402q0 85 -52.5 142.5t-142.5 57.5z" glyph-name="ecaron" horiz-adv-x="590" unicode="ě"/><glyph d="M428 787q-52 0 -85.5 30t-38.5 78q-2 15 14 15h2q13 0 16 -14q6 -35 30.5 -56t61.5 -21t61.5 21t31.5 56q3 14 16 14h1q16 0 14 -15q-5 -48 -38.5 -78t-85.5 -30zM755 309q-2 -141 -90.5 -231.5t-233.5 -90.5q-156 0 -256 104t-100 256q0 153 100 257t257 104 q135 0 233 -91q7 -7 3 -13l-11 -15q-6 -6 -14 0q-96 84 -212 84q-137 0 -228 -93.5t-91 -232.5t91 -232t227 -93q126 0 207 78.5t81 203.5v5h-273q-14 0 -14 13v9q0 13 14 13h295q15 0 15 -15v-13v-7z" glyph-name="Gbreve" horiz-adv-x="820" unicode="Ğ"/><glyph d="M313 577q-52 0 -85.5 30t-38.5 78q-1 15 14 15h2q13 0 16 -14q6 -35 30.5 -56t61.5 -21t61.5 21t31.5 56q3 14 16 14h1q15 0 14 -15q-5 -48 -38.5 -78t-85.5 -30zM531 490q11 0 11 -13v-463q0 -106 -70 -162.5t-175 -56.5q-96 0 -160 41q-11 8 -8 16l8 12q5 9 13 3 q61 -39 148 -39q91 0 150 46t59 146v99q-29 -55 -81.5 -85.5t-122.5 -30.5q-106 0 -174.5 70t-68.5 180q0 109 68.5 179t172.5 70q71 0 124 -31.5t82 -88.5l1 95q0 13 12 13h11zM304 37q91 0 148 58t57 154q0 99 -57 159t-148 60t-151 -59t-60 -156q0 -98 60 -157t151 -59z " glyph-name="gbreve" horiz-adv-x="627" unicode="ğ"/><glyph d="M428 862q-11 0 -19.5 8t-8.5 19q0 10 8.5 18t19.5 8t19.5 -8t8.5 -18q0 -11 -8.5 -19t-19.5 -8zM755 309q-2 -141 -90.5 -231.5t-233.5 -90.5q-156 0 -256 104t-100 256q0 153 100 257t257 104q135 0 233 -91q7 -7 3 -13l-11 -15q-6 -6 -14 0q-96 84 -212 84 q-137 0 -228 -93.5t-91 -232.5t91 -232t227 -93q126 0 207 78.5t81 203.5v5h-273q-14 0 -14 13v9q0 13 14 13h295q15 0 15 -15v-13v-7z" glyph-name="Gdotaccent" horiz-adv-x="820" unicode="Ġ"/><glyph d="M314 652q-11 0 -19.5 8t-8.5 19q0 10 8.5 18t19.5 8t19.5 -8t8.5 -18q0 -11 -8.5 -19t-19.5 -8zM531 490q11 0 11 -13v-463q0 -106 -70 -162.5t-175 -56.5q-96 0 -160 41q-11 8 -8 16l8 12q5 9 13 3q61 -39 148 -39q91 0 150 46t59 146v99q-29 -55 -81.5 -85.5 t-122.5 -30.5q-106 0 -174.5 70t-68.5 180q0 109 68.5 179t172.5 70q71 0 124 -31.5t82 -88.5l1 95q0 13 12 13h11zM304 37q91 0 148 58t57 154q0 99 -57 159t-148 60t-151 -59t-60 -156q0 -98 60 -157t151 -59z" glyph-name="gdotaccent" horiz-adv-x="627" unicode="ġ"/><glyph d="M755 309q-2 -141 -90.5 -231.5t-233.5 -90.5q-156 0 -256 104t-100 256q0 153 100 257t257 104q135 0 233 -91q7 -7 3 -13l-11 -15q-6 -6 -14 0q-96 84 -212 84q-137 0 -228 -93.5t-91 -232.5t91 -232t227 -93q126 0 207 78.5t81 203.5v5h-273q-14 0 -14 13v9q0 13 14 13 h295q15 0 15 -15v-13v-7zM433 -31q22 0 36.5 -20.5t14.5 -49.5q0 -39 -22 -72.5t-72 -34.5v23q41 2 56 41q10 30 -4 39q-4 2 -8 2q-20 -1 -30.5 8.5t-10.5 25.5q0 17 12 27.5t28 10.5z" glyph-name="Gcommaaccent" horiz-adv-x="820" unicode="Ģ"/><glyph d="M288 552q-23 0 -37.5 20.5t-14.5 49.5q0 39 22 72.5t72 34.5v-23q-41 -2 -55 -41q-10 -29 4 -39q3 -2 8 -2q40 3 40 -34q0 -17 -11.5 -27.5t-27.5 -10.5zM531 490q11 0 11 -13v-463q0 -106 -70 -162.5t-175 -56.5q-96 0 -160 41q-11 8 -8 16l8 12q5 9 13 3 q61 -39 148 -39q91 0 150 46t59 146v99q-29 -55 -81.5 -85.5t-122.5 -30.5q-106 0 -174.5 70t-68.5 180q0 109 68.5 179t172.5 70q71 0 124 -31.5t82 -88.5l1 95q0 13 12 13h11zM304 37q91 0 148 58t57 154q0 99 -57 159t-148 60t-151 -59t-60 -156q0 -98 60 -157t151 -59z " glyph-name="gcommaaccent" horiz-adv-x="627" unicode="ģ"/><glyph d="M526 700q14 0 14 -13v-674q0 -13 -14 -13h-9q-13 0 -13 13v319h-373v-319q0 -13 -13 -13h-10q-13 0 -13 13v674q0 13 13 13h10q13 0 13 -13v-163h373v163q0 13 13 13h9zM131 366h373v121h-373v-121z" glyph-name="Hbar" horiz-adv-x="635" unicode="Ħ"/><glyph d="M289 502q83 0 132.5 -51t49.5 -148v-290q0 -13 -11 -13h-11q-12 0 -12 13v297q0 73 -39 115.5t-108 42.5q-73 0 -121 -43.5t-48 -114.5v-297q0 -13 -11 -13h-12q-11 0 -11 13v589h-59q-13 0 -13 13v7q0 13 13 13h59v67q0 13 11 13h12q11 0 11 -13v-67h162q14 0 14 -13v-7 q0 -13 -14 -13h-162v-193q51 93 168 93z" glyph-name="hbar" horiz-adv-x="557" unicode="ħ"/><glyph d="M240 910q14 0 14 -13v-7q0 -13 -14 -13h-255q-13 0 -13 13v7q0 13 13 13h255zM108 0q-13 0 -13 13v674q0 13 13 13h10q13 0 13 -13v-674q0 -13 -13 -13h-10z" glyph-name="Imacron" horiz-adv-x="226" unicode="Ī"/><glyph d="M208 700q14 0 14 -13v-7q0 -13 -14 -13h-255q-13 0 -13 13v7q0 13 13 13h255zM75 0q-12 0 -12 13v464q0 13 12 13h11q11 0 11 -13v-464q0 -13 -11 -13h-11z" glyph-name="imacron" horiz-adv-x="161" unicode="ī"/><glyph d="M118 700q13 0 13 -13v-674q0 -13 -13 -13q-47 -2 -82 -31.5t-35 -75.5q0 -41 29 -57.5t75 -6.5v-27q-41 -18 -89 4t-48 83q0 56 39 90.5t88 43.5v664q0 13 13 13h10z" glyph-name="Iogonek" horiz-adv-x="226" unicode="Į"/><glyph d="M81 705q11 0 19.5 -8t8.5 -18q0 -11 -8.5 -19t-19.5 -8t-19.5 8t-8.5 19q0 10 8.5 18t19.5 8zM86 490q11 0 11 -13v-464q0 -13 -11 -13h-4q-47 -2 -82 -31.5t-35 -75.5q0 -41 29 -57.5t75 -6.5v-27q-41 -18 -89 4t-48 83q0 56 40.5 91.5t90.5 43.5v453q0 13 12 13h11z " glyph-name="iogonek" horiz-adv-x="161" unicode="į"/><glyph d="M113 862q-11 0 -19.5 8t-8.5 19q0 10 8.5 18t19.5 8t19.5 -8t8.5 -18q0 -11 -8.5 -19t-19.5 -8zM108 0q-13 0 -13 13v674q0 13 13 13h10q13 0 13 -13v-674q0 -13 -13 -13h-10z" glyph-name="Idotaccent" horiz-adv-x="226" unicode="İ"/><glyph d="M75 0q-12 0 -12 13v464q0 13 12 13h11q11 0 11 -13v-464q0 -13 -11 -13h-11z" glyph-name="dotlessi" horiz-adv-x="161" unicode="ı"/><glyph d="M108 0q-13 0 -13 13v674q0 13 13 13h10q13 0 13 -13v-674q0 -13 -13 -13h-10zM431 -13q-81 0 -140 63q-8 10 1 19l6 7q8 9 16 1q30 -28 55.5 -41.5t63.5 -13.5q138 0 138 186v479q0 13 13 13h10q13 0 13 -13v-485q0 -105 -46.5 -160t-129.5 -55z" glyph-name="IJ" horiz-adv-x="703" unicode="Ĳ"/><glyph d="M102 639q-11 0 -19.5 8.5t-8.5 19.5q0 12 8.5 20.5t19.5 8.5t19 -8.5t8 -20.5q0 -11 -8 -19.5t-19 -8.5zM317 639q-11 0 -20 8.5t-9 19.5q0 12 9 20.5t20 8.5t18.5 -8.5t7.5 -20.5q0 -11 -8 -19.5t-18 -8.5zM96 0q-12 0 -12 13v464q0 13 12 13h11q11 0 11 -13v-464 q0 -13 -11 -13h-11zM227 -200q-14 0 -32 3q-9 3 -9 12v14q0 9 11 7q11 -1 30 -1q42 0 57 23t15 67v552q0 13 11 13h11q12 0 12 -13v-566q0 -111 -106 -111z" glyph-name="ij" horiz-adv-x="417" unicode="ĳ"/><glyph d="M523 18q5 -8 2.5 -13t-11.5 -5h-11q-12 0 -18 9l-256 330l-98 -126v-200q0 -13 -13 -13h-10q-13 0 -13 13v674q0 13 13 13h10q13 0 13 -13v-422l325 427q7 8 18 8h13q10 0 12.5 -5t-4.5 -13l-245 -315zM226 -31q23 0 37.5 -20.5t14.5 -49.5q0 -39 -22 -72.5t-72 -34.5v23 q41 2 56 41q10 30 -4 39q-4 2 -8 2q-41 -3 -41 34q0 17 11.5 27.5t27.5 10.5z" glyph-name="Kcommaaccent" horiz-adv-x="581" unicode="Ķ"/><glyph d="M457 15q4 -5 2 -10t-11 -5h-11q-12 0 -18 9l-202 247l-98 -101v-142q0 -13 -12 -13h-10q-12 0 -12 13v689q0 13 12 13h10q12 0 12 -13v-503l269 283q7 8 17 8h21q7 0 7.5 -4.5t-4.5 -8.5l-190 -198zM270 -31q22 0 36.5 -20.5t14.5 -49.5q0 -39 -22 -72.5t-72 -34.5v23 q41 2 56 41q10 30 -4 39q-4 2 -8 2q-20 -1 -30.5 8.5t-10.5 25.5q0 17 12 27.5t28 10.5z" glyph-name="kcommaaccent" horiz-adv-x="510" unicode="ķ"/><glyph d="M108 735q-14 0 -7 15l50 116q5 12 16 12h15q8 0 9 -3.5t-2 -11.5l-52 -116q-4 -12 -15 -12h-14zM408 34q15 0 15 -15v-4q0 -15 -15 -15h-286h-4h-10q-13 0 -13 13v674q0 13 13 13h10q13 0 13 -13v-653h277z" glyph-name="Lacute" horiz-adv-x="475" unicode="Ĺ"/><glyph d="M174 926q14 0 7 -15l-51 -116q-5 -12 -16 -12h-14q-8 0 -9 3.5t2 11.5l51 116q4 12 15 12h15zM97 0q-12 0 -12 13v689q0 13 12 13h10q12 0 12 -13v-689q0 -13 -12 -13h-10z" glyph-name="lacute" horiz-adv-x="204" unicode="ĺ"/><glyph d="M408 34q15 0 15 -15v-4q0 -15 -15 -15h-286h-4h-10q-13 0 -13 13v674q0 13 13 13h10q13 0 13 -13v-653h277zM267 -31q22 0 36.5 -20.5t14.5 -49.5q0 -39 -22 -72.5t-72 -34.5v23q41 2 56 41q10 30 -4 39q-4 2 -8 2q-20 -1 -30.5 8.5t-10.5 25.5q0 17 12 27.5t28 10.5z " glyph-name="Lcommaaccent" horiz-adv-x="488" unicode="Ļ"/><glyph d="M97 0q-12 0 -12 13v689q0 13 12 13h10q12 0 12 -13v-689q0 -13 -12 -13h-10zM75 -208v23q41 2 56 41q10 30 -4 39q-4 2 -8 2q-20 -1 -30.5 8.5t-10.5 25.5q0 17 12 27.5t28 10.5q22 0 36.5 -20.5t14.5 -49.5q0 -39 -22 -72.5t-72 -34.5z" glyph-name="lcommaaccent" horiz-adv-x="204" unicode="ļ"/><glyph d="M315 641q0 -40 -22 -73.5t-72 -34.5v24q41 1 55 40q11 28 -3 39q-3 2 -8 2q-41 -1 -41 35q0 17 11.5 27t27.5 10q23 0 37.5 -20.5t14.5 -48.5zM408 34q15 0 15 -15v-4q0 -15 -15 -15h-286h-4h-10q-13 0 -13 13v674q0 13 13 13h10q13 0 13 -13v-653h277z" glyph-name="Lcaron" horiz-adv-x="479" unicode="Ľ"/><glyph d="M151 573v24q41 1 55 40q11 28 -3 39q-3 2 -8 2q-41 -1 -41 35q0 17 11.5 27t27.5 10q23 0 37.5 -20.5t14.5 -48.5q0 -40 -22 -73.5t-72 -34.5zM97 0q-12 0 -12 13v689q0 13 12 13h10q12 0 12 -13v-689q0 -13 -12 -13h-10z" glyph-name="lcaron" horiz-adv-x="241" unicode="ľ"/><glyph d="M408 34q15 0 15 -15v-4q0 -15 -15 -15h-286h-4h-10q-13 0 -13 13v674q0 13 13 13h10q13 0 13 -13v-653h277zM280 343q-14 0 -24 9.5t-10 24.5q0 14 10 24t24 10t24 -10t10 -24q0 -15 -10 -24.5t-24 -9.5z" glyph-name="Ldot" horiz-adv-x="459" unicode="Ŀ"/><glyph d="M97 0q-12 0 -12 13v689q0 13 12 13h10q12 0 12 -13v-689q0 -13 -12 -13h-10zM187 341q-14 0 -24 9.5t-10 24.5q0 14 10 24t24 10t24 -10t10 -24q0 -15 -10 -24.5t-24 -9.5z" glyph-name="ldot" horiz-adv-x="174" unicode="ŀ"/><glyph d="M421 34q15 0 15 -15v-4q0 -15 -15 -15h-286h-4h-10q-13 0 -13 13v263l-60 -58q-8 -7 -13 -4.5t-5 12.5v22q0 11 8 19l70 68v352q0 13 13 13h10q13 0 13 -13v-318l96 93q8 7 13 4.5t5 -12.5v-21q0 -12 -8 -19l-106 -103v-277h277z" glyph-name="Lslash" horiz-adv-x="501" unicode="Ł"/><glyph d="M249 465l-110 -117v-335q0 -13 -12 -13h-10q-12 0 -12 13v298l-110 -117v35l110 118v355q0 13 12 13h10q12 0 12 -13v-319l109 117z" glyph-name="lslash" horiz-adv-x="244" unicode="ł"/><glyph d="M323 767q-8 0 -9 3.5t2 11.5l51 116q4 12 15 12h15q14 0 7 -15l-51 -116q-5 -12 -16 -12h-14zM544 700q13 0 13 -13v-674q0 -13 -12 -13h-25q-12 0 -18 10l-371 648v-645q0 -13 -13 -13h-10q-13 0 -13 13v674q0 13 12 13h26q12 0 18 -10l370 -648v645q0 13 14 13h9z" glyph-name="Nacute" horiz-adv-x="652" unicode="Ń"/><glyph d="M285 557q-8 0 -9 3.5t2 11.5l51 116q4 12 15 12h15q14 0 7 -15l-51 -116q-5 -12 -16 -12h-14zM288 502q83 0 132.5 -51t49.5 -148v-290q0 -13 -12 -13h-11q-12 0 -12 13v297q0 73 -39 115.5t-108 42.5q-72 0 -120 -43.5t-48 -114.5v-297q0 -13 -12 -13h-11q-12 0 -12 13 v464q0 13 12 13h7q13 0 13 -14l3 -66q52 92 168 92z" glyph-name="nacute" unicode="ń"/><glyph d="M544 700q13 0 13 -13v-674q0 -13 -12 -13h-25q-12 0 -18 10l-371 648v-645q0 -13 -13 -13h-10q-13 0 -13 13v674q0 13 12 13h26q12 0 18 -10l370 -648v645q0 13 14 13h9zM341 -31q22 0 36.5 -20.5t14.5 -49.5q0 -39 -22 -72.5t-72 -34.5v23q41 2 56 41q10 30 -4 39 q-4 2 -8 2q-20 -1 -30.5 8.5t-10.5 25.5q0 17 12 27.5t28 10.5z" glyph-name="Ncommaaccent" horiz-adv-x="652" unicode="Ņ"/><glyph d="M288 502q83 0 132.5 -51t49.5 -148v-290q0 -13 -12 -13h-11q-12 0 -12 13v297q0 73 -39 115.5t-108 42.5q-72 0 -120 -43.5t-48 -114.5v-297q0 -13 -12 -13h-11q-12 0 -12 13v464q0 13 12 13h7q13 0 13 -14l3 -66q52 92 168 92zM303 -31q22 0 36.5 -20.5t14.5 -49.5 q0 -39 -22 -72.5t-72 -34.5v23q41 2 56 41q10 30 -4 39q-4 2 -8 2q-20 -1 -30.5 8.5t-10.5 25.5q0 17 12 27.5t28 10.5z" glyph-name="ncommaaccent" unicode="ņ"/><glyph d="M296 797l-82 101q-3 4 -0.5 7.5t7.5 3.5h20q8 0 15 -8l70 -87l70 87q7 8 15 8h21q5 0 7 -3.5t0 -7.5l-83 -101q-7 -8 -15 -8h-29q-9 0 -16 8zM544 700q13 0 13 -13v-674q0 -13 -12 -13h-25q-12 0 -18 10l-371 648v-645q0 -13 -13 -13h-10q-13 0 -13 13v674q0 13 12 13h26 q12 0 18 -10l370 -648v645q0 13 14 13h9z" glyph-name="Ncaron" horiz-adv-x="652" unicode="Ň"/><glyph d="M258 587l-82 101q-3 4 -0.5 7.5t7.5 3.5h20q8 0 15 -8l70 -87l70 87q7 8 15 8h21q5 0 7 -3.5t0 -7.5l-83 -101q-7 -8 -15 -8h-29q-9 0 -16 8zM288 502q83 0 132.5 -51t49.5 -148v-290q0 -13 -12 -13h-11q-12 0 -12 13v297q0 73 -39 115.5t-108 42.5q-72 0 -120 -43.5 t-48 -114.5v-297q0 -13 -12 -13h-11q-12 0 -12 13v464q0 13 12 13h7q13 0 13 -14l3 -66q52 92 168 92z" glyph-name="ncaron" unicode="ň"/><glyph d="M544 700q13 0 13 -13v-696q0 -105 -47 -160.5t-129 -55.5q-77 0 -140 63q-7 11 1 19l6 7q8 10 16 1q30 -28 55.5 -41.5t63.5 -13.5q67 0 102.5 47t35.5 139v4h-1q-12 0 -18 10l-371 648v-645q0 -13 -13 -13h-10q-13 0 -13 13v674q0 13 12 13h26q12 0 18 -10l370 -648v645 q0 13 14 13h9z" glyph-name="Eng" horiz-adv-x="652" unicode="Ŋ"/><glyph d="M288 502q83 0 132.5 -51t49.5 -148v-318q0 -183 -136 -183q-10 0 -10 10v11q-4 11 8 11q57 0 80 39.5t23 121.5v315q0 73 -39 115.5t-108 42.5q-72 0 -120 -43.5t-48 -114.5v-297q0 -13 -12 -13h-11q-12 0 -12 13v464q0 13 12 13h7q13 0 13 -14l3 -66q52 92 168 92z" glyph-name="eng" unicode="ŋ"/><glyph d="M559 910q14 0 14 -13v-7q0 -13 -14 -13h-255q-13 0 -13 13v7q0 13 13 13h255zM432 -13q-152 0 -254.5 104t-102.5 256q0 153 102.5 257t254.5 104q151 0 253.5 -104t102.5 -257q0 -152 -102.5 -256t-253.5 -104zM432 22q137 0 228.5 93t91.5 232q0 140 -91.5 233 t-228.5 93t-228.5 -93t-91.5 -233q0 -139 91.5 -232t228.5 -93z" glyph-name="Omacron" horiz-adv-x="864" unicode="Ō"/><glyph d="M435 700q14 0 14 -13v-7q0 -13 -14 -13h-255q-13 0 -13 13v7q0 13 13 13h255zM308 -12q-106 0 -177 73.5t-71 183.5t71 183.5t177 73.5q105 0 176 -73.5t71 -183.5t-71 -183.5t-176 -73.5zM308 22q92 0 152.5 63t60.5 160t-60.5 160t-152.5 63t-152.5 -63t-60.5 -160 t60.5 -160t152.5 -63z" glyph-name="omacron" horiz-adv-x="616" unicode="ō"/><glyph d="M438 910q14 0 7 -15l-51 -116q-5 -12 -16 -12h-14q-8 0 -9 3.5t2 11.5l51 116q4 12 15 12h15zM539 910q14 0 7 -15l-51 -116q-4 -12 -15 -12h-15q-8 0 -9 3.5t2 11.5l51 116q4 12 15 12h15zM432 -13q-152 0 -254.5 104t-102.5 256q0 153 102.5 257t254.5 104 q151 0 253.5 -104t102.5 -257q0 -152 -102.5 -256t-253.5 -104zM432 22q137 0 228.5 93t91.5 232q0 140 -91.5 233t-228.5 93t-228.5 -93t-91.5 -233q0 -139 91.5 -232t228.5 -93z" glyph-name="Ohungarumlaut" horiz-adv-x="864" unicode="Ő"/><glyph d="M314 700q14 0 7 -15l-51 -116q-5 -12 -16 -12h-14q-8 0 -9 3.5t2 11.5l51 116q4 12 15 12h15zM415 700q14 0 7 -15l-51 -116q-4 -12 -15 -12h-15q-8 0 -9 3.5t2 11.5l51 116q4 12 15 12h15zM308 -12q-106 0 -177 73.5t-71 183.5t71 183.5t177 73.5q105 0 176 -73.5 t71 -183.5t-71 -183.5t-176 -73.5zM308 22q92 0 152.5 63t60.5 160t-60.5 160t-152.5 63t-152.5 -63t-60.5 -160t60.5 -160t152.5 -63z" glyph-name="ohungarumlaut" horiz-adv-x="616" unicode="ő"/><glyph d="M1091 34q13 0 13 -14v-7q0 -13 -13 -13h-325q-13 0 -13 13v175q-43 -92 -129 -146.5t-192 -54.5q-152 0 -254.5 104t-102.5 256q0 153 102.5 257t254.5 104q106 0 192 -54.5t129 -146.5v180q0 13 13 13h323q14 0 14 -13v-7q0 -14 -14 -14h-300v-284h286q13 0 13 -13v-7 q0 -14 -13 -14h-286v-314h302zM432 22q137 0 228.5 93t91.5 232q0 140 -91.5 233t-228.5 93t-228.5 -93t-91.5 -233q0 -139 91.5 -232t228.5 -93z" glyph-name="OE" horiz-adv-x="1190" unicode="Œ"/><glyph d="M764 502q103 0 164.5 -68.5t61.5 -162.5q0 -23 -5 -30t-21 -7h-409q5 -91 63 -152t160 -61q90 0 157 56q8 8 14 1l6 -6q7 -9 -4 -20q-69 -64 -175 -64q-87 0 -149.5 44t-88.5 116q-26 -73 -88 -116.5t-142 -43.5q-106 0 -177 73.5t-71 183.5t71 183.5t177 73.5 q79 0 141 -43t88 -115q26 72 86.5 115t140.5 43zM308 22q92 0 152.5 63t60.5 160t-60.5 160t-152.5 63t-152.5 -63t-60.5 -160t60.5 -160t152.5 -63zM763 467q-88 0 -144.5 -55.5t-62.5 -144.5h403q0 85 -53 142.5t-143 57.5z" glyph-name="oe" horiz-adv-x="1051" unicode="œ"/><glyph d="M278 767q-8 0 -9 3.5t2 11.5l51 116q4 12 15 12h15q14 0 7 -15l-51 -116q-5 -12 -16 -12h-14zM318 277l180 -259q11 -18 -10 -18h-9q-12 0 -18 10l-183 266h-147v-263q0 -13 -13 -13h-10q-13 0 -13 13v674q0 13 13 13h180q105 0 163.5 -59t58.5 -153q0 -87 -50 -144.5 t-142 -66.5zM131 666v-356h151q87 0 139 43.5t52 134.5t-52 134.5t-139 43.5h-151z" glyph-name="Racute" horiz-adv-x="567" unicode="Ŕ"/><glyph d="M171 557q-8 0 -9 3.5t2 11.5l51 116q4 12 15 12h15q14 0 7 -15l-51 -116q-5 -12 -16 -12h-14zM281 493q7 -4 7 -15v-6q0 -13 -17 -8t-34 5q-28 0 -50 -10.5t-34 -26t-20 -36t-10.5 -37.5t-2.5 -33v-313q0 -13 -12 -13h-11q-12 0 -12 13v464q0 13 12 13h7q13 0 13 -14 l2 -50q35 76 117 76q30 0 45 -9z" glyph-name="racute" horiz-adv-x="335" unicode="ŕ"/><glyph d="M318 277l180 -259q11 -18 -10 -18h-9q-12 0 -18 10l-183 266h-147v-263q0 -13 -13 -13h-10q-13 0 -13 13v674q0 13 13 13h180q105 0 163.5 -59t58.5 -153q0 -87 -50 -144.5t-142 -66.5zM131 666v-356h151q87 0 139 43.5t52 134.5t-52 134.5t-139 43.5h-151zM296 -31 q22 0 36.5 -20.5t14.5 -49.5q0 -39 -22 -72.5t-72 -34.5v23q41 2 56 41q10 30 -4 39q-4 2 -8 2q-20 -1 -30.5 8.5t-10.5 25.5q0 17 12 27.5t28 10.5z" glyph-name="Rcommaaccent" horiz-adv-x="567" unicode="Ŗ"/><glyph d="M281 493q7 -4 7 -15v-6q0 -13 -17 -8t-34 5q-28 0 -50 -10.5t-34 -26t-20 -36t-10.5 -37.5t-2.5 -33v-313q0 -13 -12 -13h-11q-12 0 -12 13v464q0 13 12 13h7q13 0 13 -14l2 -50q35 76 117 76q30 0 45 -9zM119 -31q22 0 36.5 -20.5t14.5 -49.5q0 -39 -22 -72.5t-72 -34.5 v23q41 2 56 41q10 30 -4 39q-4 2 -8 2q-20 -1 -30.5 8.5t-10.5 25.5q0 17 12 27.5t28 10.5z" glyph-name="rcommaaccent" horiz-adv-x="335" unicode="ŗ"/><glyph d="M251 797l-82 101q-3 4 -0.5 7.5t7.5 3.5h20q8 0 15 -8l70 -87l70 87q7 8 15 8h21q5 0 7 -3.5t0 -7.5l-83 -101q-7 -8 -15 -8h-29q-9 0 -16 8zM318 277l180 -259q11 -18 -10 -18h-9q-12 0 -18 10l-183 266h-147v-263q0 -13 -13 -13h-10q-13 0 -13 13v674q0 13 13 13h180 q105 0 163.5 -59t58.5 -153q0 -87 -50 -144.5t-142 -66.5zM131 666v-356h151q87 0 139 43.5t52 134.5t-52 134.5t-139 43.5h-151z" glyph-name="Rcaron" horiz-adv-x="567" unicode="Ř"/><glyph d="M160 579q-9 0 -16 8l-82 101q-3 4 -0.5 7.5t7.5 3.5h20q8 0 15 -8l70 -87l70 87q7 8 15 8h21q5 0 7 -3.5t0 -7.5l-83 -101q-7 -8 -15 -8h-29zM281 493q7 -4 7 -15v-6q0 -13 -17 -8t-34 5q-28 0 -50 -10.5t-34 -26t-20 -36t-10.5 -37.5t-2.5 -33v-313q0 -13 -12 -13h-11 q-12 0 -12 13v464q0 13 12 13h7q13 0 13 -14l2 -50q35 76 117 76q30 0 45 -9z" glyph-name="rcaron" horiz-adv-x="335" unicode="ř"/><glyph d="M249 767q-8 0 -9 3.5t2 11.5l51 116q4 12 15 12h15q14 0 7 -15l-51 -116q-5 -12 -16 -12h-14zM304 371q80 -40 122.5 -83.5t42.5 -116.5q0 -81 -55.5 -132t-150.5 -51q-133 0 -197 101q-8 13 1 21l3 3q15 13 24 -2q57 -89 171 -89q79 0 123.5 40.5t44.5 107.5 q0 63 -38 100t-113 74l-85 42q-114 54 -114 160q0 72 52 117t130 45q111 0 175 -87q10 -12 -3 -25q-11 -11 -24 3q-57 75 -148 75q-63 0 -104.5 -32.5t-41.5 -93.5q0 -85 97 -133zM437 596l-1 -1z" glyph-name="Sacute" horiz-adv-x="531" unicode="Ś"/><glyph d="M207 557q-8 0 -9 3.5t2 11.5l51 116q4 12 15 12h15q14 0 7 -15l-51 -116q-5 -12 -16 -12h-14zM255 261q57 -23 87.5 -54t31.5 -84q0 -63 -46 -99t-112 -36q-91 0 -145 69q-11 12 -3 23l4 5q9 11 21 -3q46 -61 125 -61q55 0 88.5 26t33.5 73q0 40 -24 64.5t-68 43.5 l-55 23q-53 23 -82.5 52t-29.5 77q0 55 39.5 88.5t98.5 33.5q82 0 131 -63q9 -11 -1 -23q-12 -12 -24 1q-44 51 -106 51q-43 0 -73.5 -21.5t-30.5 -63.5q0 -41 24.5 -62.5t79.5 -44.5zM350 417l-1 -1z" glyph-name="sacute" horiz-adv-x="439" unicode="ś"/><glyph d="M266 -12l-28 -31v-2q37 0 60.5 -19.5t23.5 -54.5q0 -51 -40 -72t-94 -16q-9 1 -9 11v12q0 10 11 10q96 -5 96 49q0 32 -29 44t-66 -1q-12 -2 -12 7v9q0 5 5 12l39 45q-103 14 -157 98q-8 13 1 21l3 3q15 13 24 -2q57 -89 171 -89q79 0 123.5 40.5t44.5 107.5 q0 63 -38 100t-113 74l-85 42q-114 54 -114 160q0 72 52 117t130 45q111 0 175 -87q10 -12 -3 -25q-11 -11 -24 3q-57 75 -148 75q-63 0 -104.5 -32.5t-41.5 -93.5q0 -85 97 -133l88 -44q80 -40 122.5 -83.5t42.5 -116.5q0 -80 -54.5 -131t-148.5 -52zM437 596l-1 -1z" glyph-name="Scedilla" horiz-adv-x="531" unicode="Ş"/><glyph d="M224 -12l-28 -31v-2q37 0 60.5 -19.5t23.5 -54.5q0 -51 -40 -72t-94 -16q-9 1 -9 11v12q0 10 11 10q96 -5 96 49q0 32 -29 44t-66 -1q-12 -2 -12 7v9q0 5 5 12l39 45q-68 12 -110 66q-11 12 -3 23l4 5q9 11 21 -3q46 -61 125 -61q55 0 88.5 26t33.5 73q0 40 -24 64.5 t-68 43.5l-55 23q-53 23 -82.5 52t-29.5 77q0 55 39.5 88.5t98.5 33.5q82 0 131 -63q9 -11 -1 -23q-12 -12 -24 1q-44 51 -106 51q-43 0 -73.5 -21.5t-30.5 -63.5q0 -41 24.5 -62.5t79.5 -44.5l36 -15q57 -23 87.5 -54t31.5 -84q0 -61 -43 -97t-107 -38zM350 417l-1 -1z" glyph-name="scedilla" horiz-adv-x="439" unicode="ş"/><glyph d="M222 797l-82 101q-3 4 -0.5 7.5t7.5 3.5h20q8 0 15 -8l70 -87l70 87q7 8 15 8h21q5 0 7 -3.5t0 -7.5l-83 -101q-7 -8 -15 -8h-29q-9 0 -16 8zM304 371q80 -40 122.5 -83.5t42.5 -116.5q0 -81 -55.5 -132t-150.5 -51q-133 0 -197 101q-8 13 1 21l3 3q15 13 24 -2 q57 -89 171 -89q79 0 123.5 40.5t44.5 107.5q0 63 -38 100t-113 74l-85 42q-114 54 -114 160q0 72 52 117t130 45q111 0 175 -87q10 -12 -3 -25q-11 -11 -24 3q-57 75 -148 75q-63 0 -104.5 -32.5t-41.5 -93.5q0 -85 97 -133zM437 596l-1 -1z" glyph-name="Scaron" horiz-adv-x="531" unicode="Š"/><glyph d="M180 587l-82 101q-3 4 -0.5 7.5t7.5 3.5h20q8 0 15 -8l70 -87l70 87q7 8 15 8h21q5 0 7 -3.5t0 -7.5l-83 -101q-7 -8 -15 -8h-29q-9 0 -16 8zM255 261q57 -23 87.5 -54t31.5 -84q0 -63 -46 -99t-112 -36q-91 0 -145 69q-11 12 -3 23l4 5q9 11 21 -3q46 -61 125 -61 q55 0 88.5 26t33.5 73q0 40 -24 64.5t-68 43.5l-55 23q-53 23 -82.5 52t-29.5 77q0 55 39.5 88.5t98.5 33.5q82 0 131 -63q9 -11 -1 -23q-12 -12 -24 1q-44 51 -106 51q-43 0 -73.5 -21.5t-30.5 -63.5q0 -41 24.5 -62.5t79.5 -44.5zM350 417l-1 -1z" glyph-name="scaron" horiz-adv-x="439" unicode="š"/><glyph d="M439 700q13 0 13 -13v-7q0 -14 -13 -14h-157v-653q0 -13 -14 -13h20l-39 -43v-2q37 0 60.5 -19.5t23.5 -54.5q0 -51 -40 -72t-94 -16q-9 1 -9 11v12q0 10 11 10q96 -5 96 49q0 32 -28.5 44t-66.5 -1q-12 -2 -12 7v9q0 5 5 12l47 54h17q-13 0 -13 13v653h-158 q-13 0 -13 14v7q0 13 13 13h351z" glyph-name="Tcommaaccent" horiz-adv-x="527" unicode="Ţ"/><glyph d="M192 -47q37 0 60.5 -19.5t23.5 -54.5q0 -51 -40 -72t-94 -16q-9 1 -9 11v12q0 10 11 10q96 -5 96 49q0 32 -29 44t-66 -1q-12 -2 -12 7v9q0 5 5 12l42 48q-46 14 -46 82v383h-66q-13 0 -13 13v7q0 13 13 13h66v117q0 13 11 13h11q12 0 12 -13v-117h87q13 0 13 -13v-7 q0 -13 -13 -13h-87v-378q0 -33 10.5 -45.5t35.5 -12.5q17 0 31 2q13 2 16.5 -1t3.5 -11v-6q0 -15 -43 -17l-30 -33v-2z" glyph-name="tcommaaccent" horiz-adv-x="323" unicode="ţ"/><glyph d="M159 909h20q8 0 15 -8l70 -87l70 87q7 8 15 8h21q5 0 7 -3.5t0 -7.5l-83 -101q-7 -8 -15 -8h-29q-9 0 -16 8l-82 101q-3 4 -0.5 7.5t7.5 3.5zM259 0q-13 0 -13 13v653h-158q-13 0 -13 14v7q0 13 13 13h351q13 0 13 -13v-7q0 -14 -13 -14h-157v-653q0 -13 -14 -13h-9z" glyph-name="Tcaron" horiz-adv-x="527" unicode="Ť"/><glyph d="M296 674q13 0 7 -16l-51 -115q-5 -12 -16 -12h-14q-8 0 -9 3.5t2 11.5l51 116q4 12 15 12h15zM255 490q13 0 13 -13v-7q0 -13 -13 -13h-87v-378q0 -33 10.5 -45.5t35.5 -12.5q17 0 31 2q13 2 16.5 -1t3.5 -11v-6q0 -17 -52 -17q-44 0 -61.5 22t-17.5 64v383h-66 q-13 0 -13 13v7q0 13 13 13h66v117q0 13 11 13h11q12 0 12 -13v-117h87z" glyph-name="tcaron" horiz-adv-x="295" unicode="ť"/><glyph d="M439 700q13 0 13 -13v-7q0 -14 -13 -14h-157v-176h109q14 0 14 -13v-7q0 -13 -14 -13h-109v-444q0 -13 -14 -13h-9q-13 0 -13 13v444h-110q-13 0 -13 13v7q0 13 13 13h110v176h-158q-13 0 -13 14v7q0 13 13 13h351z" glyph-name="Tbar" horiz-adv-x="527" unicode="Ŧ"/><glyph d="M255 457h-87v-87h85q15 0 15 -15v-3q0 -15 -15 -15h-85v-258q0 -33 10.5 -45.5t35.5 -12.5q17 0 31 2q13 2 16.5 -1t3.5 -11v-6q0 -17 -52 -17q-44 0 -61.5 22t-17.5 64v263h-64q-15 0 -15 15v3q0 15 15 15h64v87h-66q-13 0 -13 13v7q0 13 13 13h66v117q0 13 11 13h11 q12 0 12 -13v-117h87q13 0 13 -13v-7q0 -13 -13 -13z" glyph-name="tbar" horiz-adv-x="323" unicode="ŧ"/><glyph d="M248 925q32 0 66.5 -30.5t58.5 -30.5q30 0 39 31q3 10 11 10h6q10 0 10 -10q-4 -27 -23 -42.5t-41 -15.5q-35 0 -70 31t-59 31q-32 0 -41 -32q-3 -9 -11 -9h-7q-11 0 -8 11q4 26 23 41t46 15zM306 -13q-98 0 -157 59.5t-59 163.5v477q0 13 13 13h10q13 0 13 -13v-466 q0 -100 49.5 -149.5t130.5 -49.5t130.5 49.5t49.5 149.5v466q0 13 14 13h9q13 0 13 -13v-477q0 -105 -58.5 -164t-157.5 -59z" glyph-name="Utilde" horiz-adv-x="612" unicode="Ũ"/><glyph d="M159 648q-11 0 -8 11q4 26 23 41t46 15q32 0 66.5 -30.5t58.5 -30.5q30 0 39 31q3 10 11 10h6q10 0 10 -10q-4 -27 -23 -42.5t-41 -15.5q-35 0 -70 31t-59 31q-32 0 -41 -32q-3 -9 -11 -9h-7zM458 490q12 0 12 -13v-464q0 -13 -12 -13h-7q-13 0 -13 14l-3 66 q-52 -92 -168 -92q-83 0 -132.5 51t-49.5 148v290q0 13 12 13h11q12 0 12 -13v-297q0 -73 39 -115.5t108 -42.5q72 0 120 43.5t48 114.5v297q0 13 12 13h11z" glyph-name="utilde" unicode="ũ"/><glyph d="M433 910q14 0 14 -13v-7q0 -13 -14 -13h-255q-13 0 -13 13v7q0 13 13 13h255zM306 -13q-98 0 -157 59.5t-59 163.5v477q0 13 13 13h10q13 0 13 -13v-466q0 -100 49.5 -149.5t130.5 -49.5t130.5 49.5t49.5 149.5v466q0 13 14 13h9q13 0 13 -13v-477q0 -105 -58.5 -164 t-157.5 -59z" glyph-name="Umacron" horiz-adv-x="612" unicode="Ū"/><glyph d="M151 667q-13 0 -13 13v7q0 13 13 13h255q14 0 14 -13v-7q0 -13 -14 -13h-255zM458 490q12 0 12 -13v-464q0 -13 -12 -13h-7q-13 0 -13 14l-3 66q-52 -92 -168 -92q-83 0 -132.5 51t-49.5 148v290q0 13 12 13h11q12 0 12 -13v-297q0 -73 39 -115.5t108 -42.5 q72 0 120 43.5t48 114.5v297q0 13 12 13h11z" glyph-name="umacron" unicode="ū"/><glyph d="M399 896q3 14 16 14h1q16 0 14 -15q-5 -48 -38.5 -78t-85.5 -30t-85.5 30t-38.5 78q-2 15 14 15h2q13 0 16 -14q6 -35 30.5 -56t61.5 -21t61.5 21t31.5 56zM306 -13q-98 0 -157 59.5t-59 163.5v477q0 13 13 13h10q13 0 13 -13v-466q0 -100 49.5 -149.5t130.5 -49.5 t130.5 49.5t49.5 149.5v466q0 13 14 13h9q13 0 13 -13v-477q0 -105 -58.5 -164t-157.5 -59z" glyph-name="Ubreve" horiz-adv-x="612" unicode="Ŭ"/><glyph d="M278 577q-52 0 -85.5 30t-38.5 78q-2 15 14 15h2q13 0 16 -14q6 -35 30.5 -56t61.5 -21t61.5 21t31.5 56q3 14 16 14h1q16 0 14 -15q-5 -48 -38.5 -78t-85.5 -30zM458 490q12 0 12 -13v-464q0 -13 -12 -13h-7q-13 0 -13 14l-3 66q-52 -92 -168 -92q-83 0 -132.5 51 t-49.5 148v290q0 13 12 13h11q12 0 12 -13v-297q0 -73 39 -115.5t108 -42.5q72 0 120 43.5t48 114.5v297q0 13 12 13h11z" glyph-name="ubreve" unicode="ŭ"/><glyph d="M306 915q28 0 47.5 -18t19.5 -46q0 -29 -19.5 -47.5t-47.5 -18.5t-47.5 18.5t-19.5 47.5q0 28 19.5 46t47.5 18zM306 819q13 0 22 9t9 22t-9 22t-22 9q-14 0 -22.5 -8.5t-8.5 -22.5t8.5 -22.5t22.5 -8.5zM306 -13q-98 0 -157 59.5t-59 163.5v477q0 13 13 13h10 q13 0 13 -13v-466q0 -100 49.5 -149.5t130.5 -49.5t130.5 49.5t49.5 149.5v466q0 13 14 13h9q13 0 13 -13v-477q0 -105 -58.5 -164t-157.5 -59z" glyph-name="Uring" horiz-adv-x="612" unicode="Ů"/><glyph d="M279 575q-28 0 -47.5 18.5t-19.5 47.5q0 28 19.5 46t47.5 18t47.5 -18t19.5 -46q0 -29 -19.5 -47.5t-47.5 -18.5zM279 671q-13 0 -22 -8.5t-9 -22.5t9 -22.5t22 -8.5t22 9t9 22t-9 22t-22 9zM458 490q12 0 12 -13v-464q0 -13 -12 -13h-7q-13 0 -13 14l-3 66 q-52 -92 -168 -92q-83 0 -132.5 51t-49.5 148v290q0 13 12 13h11q12 0 12 -13v-297q0 -73 39 -115.5t108 -42.5q72 0 120 43.5t48 114.5v297q0 13 12 13h11z" glyph-name="uring" unicode="ů"/><glyph d="M313 910q14 0 7 -15l-51 -116q-5 -12 -16 -12h-14q-8 0 -9 3.5t2 11.5l51 116q4 12 15 12h15zM414 910q14 0 7 -15l-51 -116q-4 -12 -15 -12h-15q-8 0 -9 3.5t2 11.5l51 116q4 12 15 12h15zM306 -13q-98 0 -157 59.5t-59 163.5v477q0 13 13 13h10q13 0 13 -13v-466 q0 -100 49.5 -149.5t130.5 -49.5t130.5 49.5t49.5 149.5v466q0 13 14 13h9q13 0 13 -13v-477q0 -105 -58.5 -164t-157.5 -59z" glyph-name="Uhungarumlaut" horiz-adv-x="612" unicode="Ű"/><glyph d="M211 557q-8 0 -9 3.5t2 11.5l51 116q4 12 15 12h15q14 0 7 -15l-51 -116q-5 -12 -16 -12h-14zM312 557q-8 0 -9 3.5t2 11.5l51 116q4 12 15 12h15q14 0 7 -15l-51 -116q-4 -12 -15 -12h-15zM458 490q12 0 12 -13v-464q0 -13 -12 -13h-7q-13 0 -13 14l-3 66 q-52 -92 -168 -92q-83 0 -132.5 51t-49.5 148v290q0 13 12 13h11q12 0 12 -13v-297q0 -73 39 -115.5t108 -42.5q72 0 120 43.5t48 114.5v297q0 13 12 13h11z" glyph-name="uhungarumlaut" unicode="ű"/><glyph d="M509 700q13 0 13 -13v-477q0 -149 -111 -201v-4q-118 -37 -118 -115q0 -84 105 -61v-27q-26 -8 -56.5 -6.5t-56 26.5t-25.5 66q0 57 53 99h-7q-98 0 -157 59.5t-59 163.5v477q0 13 13 13h10q13 0 13 -13v-466q0 -100 49.5 -149.5t130.5 -49.5t130.5 49.5t49.5 149.5v466 q0 13 14 13h9z" glyph-name="Uogonek" horiz-adv-x="612" unicode="Ų"/><glyph d="M458 490q12 0 12 -13v-464q0 -13 -12 -13h-7q-13 0 -13 14l-3 66q-52 -92 -168 -92q-83 0 -132.5 51t-49.5 148v290q0 13 12 13h11q12 0 12 -13v-297q0 -73 39 -115.5t108 -42.5q72 0 120 43.5t48 114.5v297q0 13 12 13h11zM283 -111q0 63 49 99.5t101 36.5v-25 q-47 -2 -82 -31.5t-35 -75.5q0 -41 29 -57.5t75 -6.5v-27q-41 -18 -89 4t-48 83z" glyph-name="uogonek" unicode="ų"/><glyph d="M437 790q-5 0 -7.5 4t0.5 7l82 101q7 8 16 8h29q8 0 15 -8l83 -101q2 -3 0 -7t-7 -4h-21q-8 0 -15 8l-70 87l-70 -87q-7 -8 -15 -8h-20zM1008 700q17 0 12 -17l-212 -671q-5 -12 -16 -12h-18q-11 0 -16 12l-217 641l-218 -641q-5 -12 -16 -12h-18q-11 0 -16 12l-212 671 q-5 17 12 17h7q12 0 17 -12l201 -639l217 639q4 12 16 12h19q12 0 16 -12l217 -639l201 639q5 12 17 12h7z" glyph-name="Wcircumflex" horiz-adv-x="1081" unicode="Ŵ"/><glyph d="M327 580q-5 0 -7.5 4t0.5 7l82 101q7 8 16 8h29q8 0 15 -8l83 -101q2 -3 0 -7t-7 -4h-21q-8 0 -15 8l-70 87l-70 -87q-7 -8 -15 -8h-20zM240 0q-14 0 -18 12l-164 461q-6 17 10 17h12q10 0 14 -12l154 -444l157 444q5 12 18 12h18q13 0 18 -12l156 -444l154 444 q5 12 15 12h11q16 0 10 -17l-164 -461q-5 -12 -18 -12h-17q-14 0 -18 12l-156 444l-157 -444q-5 -12 -18 -12h-17z" glyph-name="wcircumflex" horiz-adv-x="863" unicode="ŵ"/><glyph d="M184 790q-5 0 -7.5 4t0.5 7l82 101q7 8 16 8h29q8 0 15 -8l83 -101q2 -3 0 -7t-7 -4h-21q-8 0 -15 8l-70 87l-70 -87q-7 -8 -15 -8h-20zM508 700q9 0 11 -5.5t-3 -12.5l-208 -338v-331q0 -13 -14 -13h-9q-14 0 -14 13v329l-208 340q-5 7 -3 12.5t11 5.5h15q10 0 16 -10 l188 -311l187 311q6 10 16 10h15z" glyph-name="Ycircumflex" horiz-adv-x="579" unicode="Ŷ"/><glyph d="M160 580q-5 0 -7.5 4t0.5 7l82 101q7 8 16 8h29q8 0 15 -8l83 -101q2 -3 0 -7t-7 -4h-21q-8 0 -15 8l-70 87l-70 -87q-7 -8 -15 -8h-20zM186 -190q-14 0 -9 14l68 173l-187 476q-6 17 10 17h10q10 0 15 -12l171 -443l172 443q5 12 14 12h10q17 0 11 -17l-258 -651 q-5 -12 -16 -12h-11z" glyph-name="ycircumflex" horiz-adv-x="528" unicode="ŷ"/><glyph d="M211 862q-11 0 -19.5 8t-8.5 19q0 10 8.5 18t19.5 8t19.5 -8t8.5 -18q0 -11 -8.5 -19t-19.5 -8zM370 862q-11 0 -19.5 8t-8.5 19q0 10 8.5 18t19.5 8t19.5 -8t8.5 -18q0 -11 -8.5 -19t-19.5 -8zM508 700q9 0 11 -5.5t-3 -12.5l-208 -338v-331q0 -13 -14 -13h-9 q-14 0 -14 13v329l-208 340q-5 7 -3 12.5t11 5.5h15q10 0 16 -10l188 -311l187 311q6 10 16 10h15z" glyph-name="Ydieresis" horiz-adv-x="579" unicode="Ÿ"/><glyph d="M355 910q14 0 7 -15l-51 -116q-5 -12 -16 -12h-14q-8 0 -9 3.5t2 11.5l51 116q4 12 15 12h15zM83 0q-13 0 -13 13v12q0 9 6 18l371 623h-354q-13 0 -13 14v7q0 13 13 13h380q14 0 14 -13v-12q0 -9 -6 -18l-371 -623h373q14 0 14 -14v-7q0 -13 -14 -13h-400z" glyph-name="Zacute" horiz-adv-x="572" unicode="Ź"/><glyph d="M315 700q14 0 7 -15l-51 -116q-5 -12 -16 -12h-14q-8 0 -9 3.5t2 11.5l51 116q4 12 15 12h15zM78 0q-13 0 -13 13v11q0 5 7 17l309 416h-300q-13 0 -13 13v7q0 13 13 13h325q15 0 15 -13v-11q0 -5 -7 -17l-309 -416h303q14 0 14 -13v-7q0 -13 -14 -13h-330z" glyph-name="zacute" horiz-adv-x="487" unicode="ź"/><glyph d="M284 862q-11 0 -19.5 8t-8.5 19q0 10 8.5 18t19.5 8t19.5 -8t8.5 -18q0 -11 -8.5 -19t-19.5 -8zM83 0q-13 0 -13 13v12q0 9 6 18l371 623h-354q-13 0 -13 14v7q0 13 13 13h380q14 0 14 -13v-12q0 -9 -6 -18l-371 -623h373q14 0 14 -14v-7q0 -13 -14 -13h-400z" glyph-name="Zdotaccent" horiz-adv-x="572" unicode="Ż"/><glyph d="M244 652q-11 0 -19.5 8t-8.5 19q0 10 8.5 18t19.5 8t19.5 -8t8.5 -18q0 -11 -8.5 -19t-19.5 -8zM78 0q-13 0 -13 13v11q0 5 7 17l309 416h-300q-13 0 -13 13v7q0 13 13 13h325q15 0 15 -13v-11q0 -5 -7 -17l-309 -416h303q14 0 14 -13v-7q0 -13 -14 -13h-330z" glyph-name="zdotaccent" horiz-adv-x="487" unicode="ż"/><glyph d="M178 909h20q8 0 15 -8l70 -87l70 87q7 8 15 8h21q5 0 7 -3.5t0 -7.5l-83 -101q-7 -8 -15 -8h-29q-9 0 -16 8l-82 101q-3 4 -0.5 7.5t7.5 3.5zM83 0q-13 0 -13 13v12q0 9 6 18l371 623h-354q-13 0 -13 14v7q0 13 13 13h380q14 0 14 -13v-12q0 -9 -6 -18l-371 -623h373 q14 0 14 -14v-7q0 -13 -14 -13h-400z" glyph-name="Zcaron" horiz-adv-x="572" unicode="Ž"/><glyph d="M138 699h20q8 0 15 -8l70 -87l70 87q7 8 15 8h21q5 0 7 -3.5t0 -7.5l-83 -101q-7 -8 -15 -8h-29q-9 0 -16 8l-82 101q-3 4 -0.5 7.5t7.5 3.5zM78 0q-13 0 -13 13v11q0 5 7 17l309 416h-300q-13 0 -13 13v7q0 13 13 13h325q15 0 15 -13v-11q0 -5 -7 -17l-309 -416h303 q14 0 14 -13v-7q0 -13 -14 -13h-330z" glyph-name="zcaron" horiz-adv-x="487" unicode="ž"/><glyph d="M222 696q-42 0 -57 -23t-15 -67v-116h102q11 0 11 -12v-9q0 -12 -11 -12h-102v-536q0 -111 -105 -111q-15 0 -33 3q-9 4 -9 12v14q0 9 12 7q11 -1 30 -1q42 0 56.5 23t14.5 67v522h-61q-12 0 -12 12v9q0 12 12 12h61v130q0 111 106 111q14 0 32 -3q9 -3 9 -12v-14 q0 -9 -11 -7q-11 1 -30 1z" glyph-name="florin" horiz-adv-x="318" unicode="ƒ"/><glyph d="M306 797l-82 101q-3 4 -0.5 7.5t7.5 3.5h20q8 0 15 -8l70 -87l70 87q7 8 15 8h21q5 0 7 -3.5t0 -7.5l-83 -101q-7 -8 -15 -8h-29q-9 0 -16 8zM610 17q7 -17 -11 -17h-11q-11 0 -15 12l-62 169h-350l-61 -169q-4 -12 -17 -12h-10q-17 0 -10 17l247 671q4 12 18 12h17 q13 0 17 -12zM173 214h326l-163 449z" glyph-name="uni01CD" horiz-adv-x="673" unicode="Ǎ"/><glyph d="M283 587l-82 101q-3 4 -0.5 7.5t7.5 3.5h20q8 0 15 -8l70 -87l70 87q7 8 15 8h21q5 0 7 -3.5t0 -7.5l-83 -101q-7 -8 -15 -8h-29q-9 0 -16 8zM535 490q12 0 12 -13v-464q0 -13 -11 -13h-11q-12 0 -12 13l-1 96q-29 -57 -82 -89t-123 -32q-109 0 -178 72.5t-69 184.5 q0 111 69 184t178 73q70 0 123 -33.5t82 -91.5l1 100q0 13 12 13h10zM306 22q92 0 149.5 60.5t57.5 159.5q0 100 -58 163t-149 63q-93 0 -153 -62t-60 -161t59.5 -161t153.5 -62z" glyph-name="uni01CE" horiz-adv-x="632" unicode="ǎ"/><glyph d="M8 909h20q8 0 15 -8l70 -87l70 87q7 8 15 8h21q5 0 7 -3.5t0 -7.5l-83 -101q-7 -8 -15 -8h-29q-9 0 -16 8l-82 101q-3 4 -0.5 7.5t7.5 3.5zM108 0q-13 0 -13 13v674q0 13 13 13h10q13 0 13 -13v-674q0 -13 -13 -13h-10z" glyph-name="uni01CF" horiz-adv-x="226" unicode="Ǐ"/><glyph d="M-25 699h20q8 0 15 -8l70 -87l70 87q7 8 15 8h21q5 0 7 -3.5t0 -7.5l-83 -101q-7 -8 -15 -8h-29q-9 0 -16 8l-82 101q-3 4 -0.5 7.5t7.5 3.5zM75 0q-12 0 -12 13v464q0 13 12 13h11q11 0 11 -13v-464q0 -13 -11 -13h-11z" glyph-name="uni01D0" horiz-adv-x="161" unicode="ǐ"/><glyph d="M327 909h20q8 0 15 -8l70 -87l70 87q7 8 15 8h21q5 0 7 -3.5t0 -7.5l-83 -101q-7 -8 -15 -8h-29q-9 0 -16 8l-82 101q-3 4 -0.5 7.5t7.5 3.5zM432 -13q-152 0 -254.5 104t-102.5 256q0 153 102.5 257t254.5 104q151 0 253.5 -104t102.5 -257q0 -152 -102.5 -256 t-253.5 -104zM432 22q137 0 228.5 93t91.5 232q0 140 -91.5 233t-228.5 93t-228.5 -93t-91.5 -233q0 -139 91.5 -232t228.5 -93z" glyph-name="uni01D1" horiz-adv-x="864" unicode="Ǒ"/><glyph d="M203 699h20q8 0 15 -8l70 -87l70 87q7 8 15 8h21q5 0 7 -3.5t0 -7.5l-83 -101q-7 -8 -15 -8h-29q-9 0 -16 8l-82 101q-3 4 -0.5 7.5t7.5 3.5zM308 -12q-106 0 -177 73.5t-71 183.5t71 183.5t177 73.5q105 0 176 -73.5t71 -183.5t-71 -183.5t-176 -73.5zM308 22 q92 0 152.5 63t60.5 160t-60.5 160t-152.5 63t-152.5 -63t-60.5 -160t60.5 -160t152.5 -63z" glyph-name="uni01D2" horiz-adv-x="616" unicode="ǒ"/><glyph d="M201 909h20q8 0 15 -8l70 -87l70 87q7 8 15 8h21q5 0 7 -3.5t0 -7.5l-83 -101q-7 -8 -15 -8h-29q-9 0 -16 8l-82 101q-3 4 -0.5 7.5t7.5 3.5zM306 -13q-98 0 -157 59.5t-59 163.5v477q0 13 13 13h10q13 0 13 -13v-466q0 -100 49.5 -149.5t130.5 -49.5t130.5 49.5 t49.5 149.5v466q0 13 14 13h9q13 0 13 -13v-477q0 -105 -58.5 -164t-157.5 -59z" glyph-name="uni01D3" horiz-adv-x="612" unicode="Ǔ"/><glyph d="M248 587l-82 101q-3 4 -0.5 7.5t7.5 3.5h20q8 0 15 -8l70 -87l70 87q7 8 15 8h21q5 0 7 -3.5t0 -7.5l-83 -101q-7 -8 -15 -8h-29q-9 0 -16 8zM458 490q12 0 12 -13v-464q0 -13 -12 -13h-7q-13 0 -13 14l-3 66q-52 -92 -168 -92q-83 0 -132.5 51t-49.5 148v290q0 13 12 13 h11q12 0 12 -13v-297q0 -73 39 -115.5t108 -42.5q72 0 120 43.5t48 114.5v297q0 13 12 13h11z" glyph-name="uni01D4" unicode="ǔ"/><glyph d="M491 -8q-79 -34 -79 -102q0 -84 104 -61v-27q-17 -9 -40.5 -7.5t-45 9.5t-36.5 30.5t-15 53.5q0 58 53 99q-152 0 -254.5 104t-102.5 256q0 153 102.5 257t254.5 104q151 0 253.5 -104t102.5 -257q0 -136 -83.5 -235.5t-213.5 -119.5zM432 22q44 0 88 11q4 2 10 4v-1 q99 30 160.5 114.5t61.5 196.5q0 140 -91.5 233t-228.5 93t-228.5 -93t-91.5 -233q0 -139 91.5 -232t228.5 -93z" glyph-name="uni01EA" horiz-adv-x="864" unicode="Ǫ"/><glyph d="M346 -9q-77 -34 -77 -101q0 -84 104 -61v-27q-17 -9 -40.5 -7.5t-45 9.5t-36.5 30.5t-15 53.5q0 58 55 101q-100 6 -165.5 78.5t-65.5 177.5q0 110 71 183.5t177 73.5q105 0 176 -73.5t71 -183.5q0 -100 -58.5 -170t-150.5 -84zM308 22q29 0 59 8q4 1 11 3.5t9 3.5v-1 q61 24 97.5 79.5t36.5 129.5q0 97 -60.5 160t-152.5 63t-152.5 -63t-60.5 -160t60.5 -160t152.5 -63z" glyph-name="uni01EB" horiz-adv-x="616" unicode="ǫ"/><glyph d="M304 371q80 -40 122.5 -83.5t42.5 -116.5q0 -81 -55.5 -132t-150.5 -51q-133 0 -197 101q-8 13 1 21l3 3q15 13 24 -2q57 -89 171 -89q79 0 123.5 40.5t44.5 107.5q0 63 -38 100t-113 74l-85 42q-114 54 -114 160q0 72 52 117t130 45q111 0 175 -87q10 -12 -3 -25 q-11 -11 -24 3q-57 75 -148 75q-63 0 -104.5 -32.5t-41.5 -93.5q0 -85 97 -133zM437 596l-1 -1zM267 -31q22 0 36.5 -20.5t14.5 -49.5q0 -39 -22 -72.5t-72 -34.5v23q41 2 56 41q10 30 -4 39q-4 2 -8 2q-20 -1 -30.5 8.5t-10.5 25.5q0 17 12 27.5t28 10.5z" glyph-name="Scommaaccent" horiz-adv-x="531" unicode="Ș"/><glyph d="M255 261q57 -23 87.5 -54t31.5 -84q0 -63 -46 -99t-112 -36q-91 0 -145 69q-11 12 -3 23l4 5q9 11 21 -3q46 -61 125 -61q55 0 88.5 26t33.5 73q0 40 -24 64.5t-68 43.5l-55 23q-53 23 -82.5 52t-29.5 77q0 55 39.5 88.5t98.5 33.5q82 0 131 -63q9 -11 -1 -23 q-12 -12 -24 1q-44 51 -106 51q-43 0 -73.5 -21.5t-30.5 -63.5q0 -41 24.5 -62.5t79.5 -44.5zM350 417l-1 -1zM225 -31q22 0 36.5 -20.5t14.5 -49.5q0 -39 -22 -72.5t-72 -34.5v23q41 2 56 41q10 30 -4 39q-4 2 -8 2q-20 -1 -30.5 8.5t-10.5 25.5q0 17 12 27.5t28 10.5z" glyph-name="scommaaccent" horiz-adv-x="439" unicode="ș"/><glyph d="M259 0q-13 0 -13 13v653h-158q-13 0 -13 14v7q0 13 13 13h351q13 0 13 -13v-7q0 -14 -13 -14h-157v-653q0 -13 -14 -13h-9zM236 -208v23q41 2 56 41q10 30 -4 39q-4 2 -8 2q-20 -1 -30.5 8.5t-10.5 25.5q0 17 12 27.5t28 10.5q22 0 36.5 -20.5t14.5 -49.5 q0 -39 -22 -72.5t-72 -34.5z" glyph-name="uni021A" horiz-adv-x="527" unicode="Ț"/><glyph d="M265 5q0 -17 -52 -17q-44 0 -61.5 22t-17.5 64v383h-66q-13 0 -13 13v7q0 13 13 13h66v117q0 13 11 13h11q12 0 12 -13v-117h87q13 0 13 -13v-7q0 -13 -13 -13h-87v-378q0 -33 10.5 -45.5t35.5 -12.5q17 0 31 2q13 2 16.5 -1t3.5 -11v-6zM221 -33q22 0 36.5 -20.5 t14.5 -49.5q0 -39 -22 -72.5t-72 -34.5v23q41 2 56 41q10 30 -4 39q-4 2 -8 2q-20 -1 -30.5 8.5t-10.5 25.5q0 17 12 27.5t28 10.5z" glyph-name="uni021B" horiz-adv-x="323" unicode="ț"/><glyph d="M110 490h4q15 0 15 -15v-473q0 -194 -135 -200q-9 0 -11 10l1 6q-4 11 8 11q60 4 81.5 42t21.5 122v482q0 15 15 15z" glyph-name="uni0237" horiz-adv-x="203" unicode="ȷ"/><glyph d="M23 580q-5 0 -7.5 4t0.5 7l82 101q7 8 16 8h29q8 0 15 -8l83 -101q2 -3 0 -7t-7 -4h-21q-8 0 -15 8l-70 87l-70 -87q-7 -8 -15 -8h-20z" glyph-name="circumflex" horiz-adv-x="256" unicode="ˆ"/><glyph d="M23 699h20q8 0 15 -8l70 -87l70 87q7 8 15 8h21q5 0 7 -3.5t0 -7.5l-83 -101q-7 -8 -15 -8h-29q-9 0 -16 8l-82 101q-3 4 -0.5 7.5t7.5 3.5z" glyph-name="caron" horiz-adv-x="256" unicode="ˇ"/><glyph d="M232 686q3 14 16 14h1q15 0 14 -15q-5 -48 -38.5 -78t-85.5 -30t-85.5 30t-38.5 78q-1 15 14 15h2q13 0 16 -14q6 -35 30.5 -56t61.5 -21t61.5 21t31.5 56z" glyph-name="breve" horiz-adv-x="278" unicode="˘"/><glyph d="M43 652q-11 0 -19.5 8t-8.5 19q0 10 8.5 18t19.5 8t19.5 -8t8.5 -18q0 -11 -8.5 -19t-19.5 -8z" glyph-name="dotaccent" horiz-adv-x="86" unicode="˙"/><glyph d="M82 705q28 0 47.5 -18t19.5 -46q0 -29 -19.5 -47.5t-47.5 -18.5t-47.5 18.5t-19.5 47.5q0 28 19.5 46t47.5 18zM82 609q13 0 22 9t9 22t-9 22t-22 9q-14 0 -22.5 -8.5t-8.5 -22.5t8.5 -22.5t22.5 -8.5z" glyph-name="ring" horiz-adv-x="164" unicode="˚"/><glyph d="M160 0q-47 -2 -82 -31.5t-35 -75.5q0 -41 29 -57.5t75 -6.5v-27q-41 -18 -89 4t-48 83q0 63 49 99.5t101 36.5v-25z" glyph-name="ogonek" horiz-adv-x="170" unicode="˛"/><glyph d="M84 715q32 0 66.5 -30.5t58.5 -30.5q30 0 39 31q3 10 11 10h6q10 0 10 -10q-4 -27 -23 -42.5t-41 -15.5q-35 0 -70 31t-59 31q-32 0 -41 -32q-3 -9 -11 -9h-7q-11 0 -8 11q4 26 23 41t46 15z" glyph-name="tilde" horiz-adv-x="290" unicode="˜"/><glyph d="M98 700q14 0 7 -15l-51 -116q-5 -12 -16 -12h-14q-8 0 -9 3.5t2 11.5l51 116q4 12 15 12h15zM199 700q14 0 7 -15l-51 -116q-4 -12 -15 -12h-15q-8 0 -9 3.5t2 11.5l51 116q4 12 15 12h15z" glyph-name="hungarumlaut" horiz-adv-x="223" unicode="˝"/><glyph d="M-77 -208v23q41 2 56 41q10 30 -4 39q-4 2 -8 2q-20 -1 -30.5 8.5t-10.5 25.5q0 17 12 27.5t28 10.5q22 0 36.5 -20.5t14.5 -49.5q0 -39 -22 -72.5t-72 -34.5z" glyph-name="uni0326" horiz-adv-x="0" unicode="̦"/><glyph d="M610 17q7 -17 -11 -17h-11h-1h-528v33h10l241 655q4 12 18 12h17q13 0 17 -12zM336 663l-228 -630h457z" glyph-name="Delta" horiz-adv-x="673" unicode="Δ"/><glyph d="M112 0q-15 0 -15 15v3q0 15 15 15h104v43q-141 124 -141 290q0 146 100.5 244t249.5 98t250 -98.5t101 -243.5q0 -166 -141 -290v-43h104q15 0 15 -15v-3q0 -15 -15 -15h-120q-15 0 -15 15v79q137 106 137 271q0 137 -90.5 223t-225.5 86t-225 -86t-90 -223 q0 -165 137 -271v-79q0 -15 -15 -15h-120z" glyph-name="Omega" horiz-adv-x="851" unicode="Ω"/><glyph d="M458 490q12 0 12 -13v-464q0 -13 -12 -13h-7q-13 0 -13 14l-3 66q-52 -92 -168 -92q-99 0 -147 69v-234q0 -13 -14 -13h-8q-13 0 -13 13v654q0 13 12 13h11q12 0 12 -13v-297q0 -73 39 -115.5t108 -42.5q72 0 120 43.5t48 114.5v297q0 13 12 13h11z" glyph-name="mu" unicode="μ"/><glyph d="M531 490q14 0 14 -13v-6q0 -14 -14 -14h-99v-385q0 -44 39 -44q20 0 40 4q11 1 14.5 -1t3.5 -10v-11q0 -8 -18.5 -12.5t-37.5 -4.5q-41 0 -58 20t-17 62v382h-211v-444q0 -13 -14 -13h-7q-14 0 -14 13v444h-90q-14 0 -14 14v6q0 13 14 13h469z" glyph-name="pi" horiz-adv-x="591" unicode="π"/><glyph d="M194 862q-11 0 -19.5 8t-8.5 19q0 10 8.5 18t19.5 8t19.5 -8t8.5 -18q0 -11 -8.5 -19t-19.5 -8zM353 862q-11 0 -19.5 8t-8.5 19q0 10 8.5 18t19.5 8t19.5 -8t8.5 -18q0 -11 -8.5 -19t-19.5 -8zM108 0q-13 0 -13 13v674q0 13 13 13h324q13 0 13 -13v-7q0 -14 -13 -14 h-301v-284h286q13 0 13 -13v-7q0 -14 -13 -14h-286v-314h302q14 0 14 -14v-7q0 -13 -14 -13h-325z" glyph-name="afii10023" horiz-adv-x="532" unicode="Ё"/><glyph d="M233 767q-8 0 -9 3.5t2 11.5l51 116q4 12 15 12h15q14 0 7 -15l-51 -116q-5 -12 -16 -12h-14zM417 700q15 0 15 -15v-7q0 -15 -15 -15h-286v-650q0 -13 -13 -13h-10q-13 0 -13 13v674q0 8 4 11v2h318z" glyph-name="afii10052" horiz-adv-x="492" unicode="Ѓ"/><glyph d="M663 96q10 -10 -5 -25q-100 -84 -231 -84q-155 0 -253.5 103.5t-98.5 256.5t98.5 257t253.5 104q131 0 231 -84q15 -15 5 -25l-4 -6q-10 -9 -23 1q-92 79 -207 79q-131 0 -220 -86t-96 -219h277q13 0 13 -13v-10q0 -13 -13 -13h-278q5 -135 94.5 -222.5t222.5 -87.5 q115 0 207 79q13 10 21 2z" glyph-name="afii10053" horiz-adv-x="739" unicode="Є"/><glyph d="M108 0q-13 0 -13 13v674q0 13 13 13h10q13 0 13 -13v-674q0 -13 -13 -13h-10z" glyph-name="afii10055" horiz-adv-x="226" unicode="І"/><glyph d="M35 862q-11 0 -19.5 8t-8.5 19q0 10 8.5 18t19.5 8t19.5 -8t8.5 -18q0 -11 -8.5 -19t-19.5 -8zM194 862q-11 0 -19.5 8t-8.5 19q0 10 8.5 18t19.5 8t19.5 -8t8.5 -18q0 -11 -8.5 -19t-19.5 -8zM108 0q-13 0 -13 13v674q0 13 13 13h10q13 0 13 -13v-674q0 -13 -13 -13h-10 z" glyph-name="afii10056" horiz-adv-x="226" unicode="Ї"/><glyph d="M274 767q-8 0 -9 3.5t2 11.5l51 116q4 12 15 12h15q14 0 7 -15l-51 -116q-5 -12 -16 -12h-14zM523 18q5 -8 2.5 -13t-11.5 -5h-11q-12 0 -18 9l-256 330l-98 -126v-200q0 -13 -13 -13h-10q-13 0 -13 13v674q0 13 13 13h10q13 0 13 -13v-422l325 427q7 8 18 8h13 q10 0 12.5 -5t-4.5 -13l-245 -315z" glyph-name="afii10061" horiz-adv-x="581" unicode="Ќ"/><glyph d="M313 787q-52 0 -85.5 30t-38.5 78q-1 15 14 15h2q13 0 16 -14q6 -35 30.5 -56t61.5 -21t61.5 21t31.5 56q3 14 16 14h1q15 0 14 -15q-5 -48 -38.5 -78t-85.5 -30zM555 700q19 0 8 -18l-407 -672q-6 -10 -17 -10h-10q-19 0 -9 18l174 286l-231 378q-11 18 8 18h11 q10 0 16 -10l215 -353l215 353q6 10 16 10h11z" glyph-name="afii10062" horiz-adv-x="626" unicode="Ў"/><glyph d="M610 17q7 -17 -11 -17h-11q-11 0 -15 12l-62 169h-350l-61 -169q-4 -12 -17 -12h-10q-17 0 -10 17l247 671q4 12 18 12h17q13 0 17 -12zM173 214h326l-163 449z" glyph-name="afii10017" horiz-adv-x="673" unicode="А"/><glyph d="M288 424q105 0 163.5 -59t58.5 -153t-58.5 -153t-163.5 -59h-180q-13 0 -13 13v674q0 13 13 13h10h1h1h296q15 0 15 -15v-7q0 -15 -15 -15h-285v-239h157zM282 34q87 0 139 43.5t52 134.5t-52 134.5t-139 43.5h-151v-356h151z" glyph-name="afii10018" horiz-adv-x="570" unicode="Б"/><glyph d="M108 0q-13 0 -13 13v674q0 13 13 13h184q53 0 91.5 -14.5t58.5 -39.5t29 -52t9 -58q0 -52 -25.5 -94.5t-81.5 -59.5q73 -16 110 -68t37 -121q0 -87 -58.5 -140t-168.5 -53h-185zM131 396h166q67 0 107 37.5t40 103.5q0 65 -39 97t-108 32h-166v-270zM131 34h159 q97 0 145.5 42t48.5 120q0 77 -49 121.5t-145 44.5h-159v-328z" glyph-name="afii10019" horiz-adv-x="580" unicode="В"/><glyph d="M417 700q15 0 15 -15v-7q0 -15 -15 -15h-286v-650q0 -13 -13 -13h-10q-13 0 -13 13v674q0 8 4 11v2h318z" glyph-name="afii10020" horiz-adv-x="492" unicode="Г"/><glyph d="M625 37q15 0 15 -15v-76q0 -15 -15 -15h-7q-15 0 -15 15v54h-527v-54q0 -15 -15 -15h-6q-15 0 -15 15v76q0 15 15 15h9q60 0 78.5 33t18.5 115v500q0 15 15 15h6q4 0 6 -1v1h388v-36h-379v-507q0 -82 -34 -120h415v650q0 13 13 13h10q13 0 13 -13v-650h11z" glyph-name="afii10021" horiz-adv-x="676" unicode="Д"/><glyph d="M108 0q-13 0 -13 13v674q0 13 13 13h324q13 0 13 -13v-7q0 -14 -13 -14h-301v-284h286q13 0 13 -13v-7q0 -14 -13 -14h-286v-314h302q14 0 14 -14v-7q0 -13 -14 -13h-325z" glyph-name="afii10022" horiz-adv-x="532" unicode="Е"/><glyph d="M92 700q11 0 18 -8l330 -434v-54l-104 134l-255 -329q-6 -9 -18 -9h-13q-9 0 -11.5 5t2.5 13l272 350l-244 314q-13 18 8 18h15zM878 18q5 -8 2.5 -13t-11.5 -5h-11q-12 0 -18 9l-256 330l-98 -126v-200q0 -13 -13 -13h-10q-13 0 -13 13v674q0 13 13 13h10q13 0 13 -13 v-422l325 427q7 8 18 8h13q10 0 12.5 -5t-4.5 -13l-245 -315z" glyph-name="afii10024" horiz-adv-x="936" unicode="Ж"/><glyph d="M226 -13q-115 0 -180 91q-7 8 3 18l8 7q8 8 15 -2q55 -80 156 -80q76 0 124.5 46.5t48.5 122.5q0 82 -55.5 127.5t-129.5 45.5h-12h-5t-4 0.5t-2.5 2l-1 3t-0.5 4.5v12q0 11 13 11h13q67 0 110 41.5t43 105.5q0 57 -37 94t-99 37q-86 0 -137 -78q-8 -10 -17 -2l-9 7 q-5 6 1 16q25 39 66.5 65t95.5 26q76 0 122.5 -47.5t46.5 -115.5q0 -52 -28 -95t-81 -70q65 -20 103.5 -71t38.5 -121q0 -85 -58.5 -143t-151.5 -58z" glyph-name="afii10025" horiz-adv-x="496" unicode="З"/><glyph d="M545 700q12 0 12 -13v-674q0 -13 -13 -13h-9q-14 0 -14 13v645l-370 -648q-6 -10 -18 -10h-26q-12 0 -12 13v674q0 13 13 13h10q13 0 13 -13v-645l371 648q6 10 18 10h25z" glyph-name="afii10026" horiz-adv-x="652" unicode="И"/><glyph d="M336 786q-52 0 -85.5 30t-38.5 78q-2 15 14 15h2q13 0 16 -14q7 -35 31.5 -56t60.5 -21q37 0 61.5 21t31.5 56q3 14 16 14h1q16 0 14 -15q-5 -48 -38 -78t-86 -30zM545 700q12 0 12 -13v-674q0 -13 -13 -13h-9q-14 0 -14 13v645l-370 -648q-6 -10 -18 -10h-26 q-12 0 -12 13v674q0 13 13 13h10q13 0 13 -13v-645l371 648q6 10 18 10h25z" glyph-name="afii10027" horiz-adv-x="652" unicode="Й"/><glyph d="M523 18q5 -8 2.5 -13t-11.5 -5h-11q-12 0 -18 9l-256 330l-98 -126v-200q0 -13 -13 -13h-10q-13 0 -13 13v674q0 13 13 13h10q13 0 13 -13v-422l325 427q7 8 18 8h13q10 0 12.5 -5t-4.5 -13l-245 -315z" glyph-name="afii10028" horiz-adv-x="581" unicode="К"/><glyph d="M159 699v1h387v-37h-378v-511q0 -79 -31.5 -118t-100.5 -39q-11 0 -11 10v15q0 10 9 10q60 0 79 33.5t19 115.5v506q0 15 15 15h6q4 0 6 -1zM571 700q14 0 14 -13v-674q0 -13 -14 -13h-9q-13 0 -13 13v674q0 13 13 13h9z" glyph-name="afii10029" horiz-adv-x="680" unicode="Л"/><glyph d="M760 700q13 0 13 -13v-674q0 -13 -13 -13h-9q-14 0 -14 13v638l-16 -40l-260 -601q-4 -10 -16 -10h-21q-12 0 -16 10l-260 601l-17 42v-640q0 -13 -13 -13h-10q-13 0 -13 13v674q0 13 13 13h28q11 0 15 -10l283 -655l283 655q4 10 16 10h27z" glyph-name="afii10030" horiz-adv-x="869" unicode="М"/><glyph d="M526 700q14 0 14 -13v-674q0 -13 -14 -13h-9q-13 0 -13 13v319h-373v-319q0 -13 -13 -13h-10q-13 0 -13 13v674q0 13 13 13h10q13 0 13 -13v-321h373v321q0 13 13 13h9z" glyph-name="afii10031" horiz-adv-x="635" unicode="Н"/><glyph d="M432 -13q-152 0 -254.5 104t-102.5 256q0 153 102.5 257t254.5 104q151 0 253.5 -104t102.5 -257q0 -152 -102.5 -256t-253.5 -104zM432 22q137 0 228.5 93t91.5 232q0 140 -91.5 233t-228.5 93t-228.5 -93t-91.5 -233q0 -139 91.5 -232t228.5 -93z" glyph-name="afii10032" horiz-adv-x="864" unicode="О"/><glyph d="M528 700q13 0 13 -13v-674q0 -13 -13 -13h-9q-14 0 -14 13v650h-374v-650q0 -13 -13 -13h-10q-13 0 -13 13v674q0 9 6 12v1h406v-5q3 5 12 5h9z" glyph-name="afii10033" horiz-adv-x="637" unicode="П"/><glyph d="M108 0q-13 0 -13 13v674q0 13 13 13h180q105 0 163.5 -59t58.5 -153t-58.5 -153t-163.5 -59h-157v-263q0 -13 -13 -13h-10zM131 310h151q87 0 139 43.5t52 134.5t-52 134.5t-139 43.5h-151v-356z" glyph-name="afii10034" horiz-adv-x="575" unicode="Р"/><glyph d="M427 -13q-155 0 -253.5 103.5t-98.5 256.5t98.5 257t253.5 104q131 0 231 -84q15 -15 5 -25l-4 -6q-10 -9 -23 1q-92 79 -207 79q-137 0 -227 -92.5t-90 -233.5t90 -233t227 -92q115 0 207 79q13 10 21 2l6 -7q10 -10 -5 -25q-100 -84 -231 -84z" glyph-name="afii10035" horiz-adv-x="739" unicode="С"/><glyph d="M259 0q-13 0 -13 13v653h-158q-13 0 -13 14v7q0 13 13 13h351q13 0 13 -13v-7q0 -14 -13 -14h-157v-653q0 -13 -14 -13h-9z" glyph-name="afii10036" horiz-adv-x="527" unicode="Т"/><glyph d="M555 700q19 0 8 -18l-407 -672q-6 -10 -17 -10h-10q-19 0 -9 18l174 286l-231 378q-11 18 8 18h11q10 0 16 -10l215 -353l215 353q6 10 16 10h11z" glyph-name="afii10037" horiz-adv-x="626" unicode="У"/><glyph d="M746 350q0 -121 -76.5 -203t-231.5 -87v-47q0 -13 -13 -13h-10q-13 0 -13 13v47h-16q-84 0 -148.5 23.5t-102 64.5t-56.5 92t-19 110t19 110t56.5 92t102 64.5t148.5 23.5h16v47q0 13 13 13h10q13 0 13 -13v-47q155 -5 231.5 -87t76.5 -203zM388 97h14v506h-14 q-148 0 -219.5 -70t-71.5 -183t71.5 -183t219.5 -70zM438 97q138 5 205 74.5t67 178.5t-67 178.5t-205 74.5v-506z" glyph-name="afii10038" horiz-adv-x="816" unicode="Ф"/><glyph d="M543 18q12 -18 -6 -18h-12q-10 0 -16 10l-201 317l-200 -317q-7 -10 -16 -10h-12q-9 0 -10.5 5.5t3.5 12.5l215 341l-205 323q-5 7 -3.5 12.5t10.5 5.5h14q10 0 16 -10l188 -299l188 299q7 10 17 10h14q18 0 6 -18l-204 -323z" glyph-name="afii10039" horiz-adv-x="617" unicode="Х"/><glyph d="M563 37q13 0 13 -13v-80q0 -13 -13 -13h-10q-13 0 -13 13v56h-439v1q-6 3 -6 12v674q0 13 13 13h10q13 0 13 -13v-650h374v650q0 13 14 13h9q13 0 13 -13v-650h22z" glyph-name="afii10040" horiz-adv-x="613" unicode="Ц"/><glyph d="M475 700q15 0 15 -15v-670q0 -15 -15 -15h-7q-15 0 -15 15v289q-31 -44 -82.5 -73.5t-121.5 -28.5q-89 2 -143 55.5t-54 147.5v280q0 15 15 15h6q15 0 15 -15v-288q0 -74 46 -117t121 -43q78 0 138 44t60 116v288q0 15 15 15h7z" glyph-name="afii10041" horiz-adv-x="585" unicode="Ч"/><glyph d="M879 700q13 0 13 -13v-674q0 -13 -13 -13h-778v1q-6 3 -6 12v674q0 13 13 13h10q13 0 13 -13v-650h344v650q0 13 14 13h9q14 0 14 -13v-650h344v650q0 13 13 13h10z" glyph-name="afii10042" horiz-adv-x="987" unicode="Ш"/><glyph d="M914 37q14 0 14 -13v-80q0 -13 -14 -13h-9q-14 0 -14 13v56h-790v1q-6 3 -6 12v674q0 13 13 13h10q13 0 13 -13v-650h344v650q0 13 14 13h9q14 0 14 -13v-650h344v650q0 13 13 13h10q13 0 13 -13v-650h22z" glyph-name="afii10043" horiz-adv-x="964" unicode="Щ"/><glyph d="M345 424q105 0 163.5 -59t58.5 -153t-58.5 -153t-163.5 -59h-180q-13 0 -13 13v653h-107q-13 0 -13 14v7q0 13 13 13h115v-1q1 1 5 1h10q13 0 13 -13v-263h157zM338 34q87 0 139.5 43.5t52.5 134.5t-52.5 134.5t-139.5 43.5h-150v-356h150z" glyph-name="afii10044" horiz-adv-x="627" unicode="Ъ"/><glyph d="M108 700h10q13 0 13 -13v-263h157q105 0 163.5 -59t58.5 -153t-58.5 -153t-163.5 -59h-180q-13 0 -13 13v674q0 13 13 13zM602 0q-14 0 -14 13v674q0 13 14 13h9q13 0 13 -13v-674q0 -13 -13 -13h-9zM131 390v-356h151q87 0 139 43.5t52 134.5t-52 134.5t-139 43.5h-151z " glyph-name="afii10045" horiz-adv-x="720" unicode="Ы"/><glyph d="M108 700h10q13 0 13 -13v-263h157q105 0 163.5 -59t58.5 -153t-58.5 -153t-163.5 -59h-180q-13 0 -13 13v674q0 13 13 13zM131 390v-356h151q87 0 139 43.5t52 134.5t-52 134.5t-139 43.5h-151z" glyph-name="afii10046" horiz-adv-x="575" unicode="Ь"/><glyph d="M317 708q155 0 253 -104t98 -257t-98 -256.5t-253 -103.5q-132 0 -232 84q-15 15 -5 25l6 7q9 9 21 -2q92 -79 207 -79q133 0 223 87.5t95 222.5h-278q-14 0 -14 13v10q0 13 14 13h277q-7 133 -96.5 219t-220.5 86q-115 0 -207 -79q-13 -10 -23 -1l-4 6q-9 11 5 25 q100 84 232 84z" glyph-name="afii10047" horiz-adv-x="739" unicode="Э"/><glyph d="M598 708q151 0 253.5 -104t102.5 -257q0 -152 -102.5 -256t-253.5 -104q-152 0 -254.5 104t-102.5 256q0 153 102.5 257t254.5 104zM131 687v-319h104v-36h-104v-319q0 -13 -13 -13h-10q-13 0 -13 13v674q0 13 13 13h10q13 0 13 -13zM598 22q137 0 228.5 93t91.5 232 q0 140 -91.5 233t-228.5 93t-229 -93t-92 -233q0 -139 92 -232t229 -93z" glyph-name="afii10048" horiz-adv-x="1029" unicode="Ю"/><glyph d="M459 700q13 0 13 -13v-674q0 -13 -13 -13h-10q-13 0 -13 13v263h-147l-183 -266q-6 -10 -18 -10h-9q-21 0 -10 18l180 259q-92 9 -142 66.5t-50 144.5q0 94 58.5 153t163.5 59h180zM436 310v356h-151q-87 0 -139 -43.5t-52 -134.5t52 -134.5t139 -43.5h151z" glyph-name="afii10049" horiz-adv-x="567" unicode="Я"/><glyph d="M535 490q12 0 12 -13v-464q0 -13 -11 -13h-11q-12 0 -12 13l-1 96q-29 -57 -82 -89t-123 -32q-109 0 -178 72.5t-69 184.5q0 111 69 184t178 73q70 0 123 -33.5t82 -91.5l1 100q0 13 12 13h10zM306 22q92 0 149.5 60.5t57.5 159.5q0 100 -58 163t-149 63q-93 0 -153 -62 t-60 -161t59.5 -161t153.5 -62z" glyph-name="afii10065" horiz-adv-x="632" unicode="а"/><glyph d="M326 502q109 0 177.5 -73t68.5 -184q0 -112 -68.5 -184.5t-177.5 -72.5q-71 0 -124 32t-82 89l-1 -96q0 -13 -12 -13h-11q-11 0 -11 13v538q0 75 35 112t121 37h202q16 0 21.5 4t9.5 16h27v-12q0 -21 -15.5 -30.5t-37.5 -9.5h-210q-63 0 -91 -28t-28 -93v-65v-5l1 -101 q29 59 82.5 92.5t123.5 33.5zM326 22q94 0 153.5 62t59.5 161t-60 161t-153 62q-91 0 -149 -63t-58 -163q0 -99 57.5 -159.5t149.5 -60.5z" glyph-name="afii10066" horiz-adv-x="632" unicode="б"/><glyph d="M337 270q51 -10 80 -44t29 -84q0 -26 -8 -49t-26 -45t-53.5 -35t-84.5 -13h-177q-12 0 -12 13v464q0 13 12 13h182q65 0 97.5 -31.5t32.5 -80.5q0 -39 -20.5 -68.5t-51.5 -39.5zM376 375q0 82 -99 82h-158v-172h158q50 0 74.5 24.5t24.5 65.5zM258 33q88 0 122.5 28.5 t34.5 77.5q0 114 -174 114h-122v-220h139z" glyph-name="afii10067" horiz-adv-x="507" unicode="в"/><glyph d="M348 490q15 0 15 -15v-3q0 -15 -15 -15h-228v-442q0 -15 -15 -15h-5q-15 0 -15 15v460q0 15 15 15h5q3 0 5 -1v1h238z" glyph-name="afii10068" horiz-adv-x="407" unicode="г"/><glyph d="M573 33q13 0 13 -13v-82q0 -14 -13 -14h-8q-13 0 -13 14v62h-458q-14 -2 -20 -2v-60q0 -14 -13 -14h-8q-13 0 -13 14v80q0 14 15 14h12q54 0 74 34.5t20 95.5v312q0 14 15 14h369v-2q3 -3 3 -11v-442h25zM195 164q0 -91 -37 -131h356v423h-319v-292z" glyph-name="afii10069" horiz-adv-x="623" unicode="д"/><glyph d="M303 502q103 0 164.5 -68.5t61.5 -162.5q0 -23 -5 -30t-21 -7h-409q5 -91 63 -152t160 -61q90 0 157 56q8 8 14 1l6 -6q7 -9 -4 -20q-69 -64 -175 -64q-116 0 -185.5 75t-69.5 184t68 182t175 73zM302 467q-88 0 -144.5 -55.5t-62.5 -144.5h402q0 85 -52.5 142.5 t-142.5 57.5z" glyph-name="afii10070" horiz-adv-x="590" unicode="е"/><glyph d="M92 490q10 0 19 -8l277 -283v-45l-88 89l-227 -235q-7 -8 -18 -8h-12q-10 0 -12 6t5 12l240 249l-204 205q-8 8 -6 13t12 5h14zM769 18q7 -6 5 -12t-12 -6h-12q-11 0 -18 8l-228 234l-77 -78v-151q0 -13 -11 -13h-11q-12 0 -12 13v464q0 13 12 13h11q11 0 11 -13v-268 l266 273q9 8 19 8h14q10 0 12 -5t-6 -13l-204 -206z" glyph-name="afii10072" horiz-adv-x="805" unicode="ж"/><glyph d="M249 265q47 -16 75 -51t28 -81q0 -59 -43.5 -101.5t-114.5 -42.5q-90 0 -142 65q-12 15 -3 21l11 10q7 9 21 -10q43 -50 114 -50q56 0 87.5 30.5t31.5 76.5q0 52 -42.5 83t-103.5 31q-8 0 -8 7v21q0 7 8 7q53 0 90 26t37 71q0 40 -29.5 65.5t-74.5 25.5q-58 0 -104 -51 q-13 -14 -22 0l-5 6q-7 8 5 21q50 59 130 59q65 0 100.5 -38t35.5 -85q0 -36 -22 -66.5t-60 -49.5z" glyph-name="afii10073" horiz-adv-x="412" unicode="з"/><glyph d="M469 490q8 -1 8 -13v-464q0 -13 -11 -13h-11q-11 0 -11 13v440l-296 -443q-7 -10 -19 -10h-32q-12 0 -12 13v464q0 13 12 13h10q12 0 12 -13v-450l304 453q5 10 18 10h28z" glyph-name="afii10074" horiz-adv-x="562" unicode="и"/><glyph d="M278 577q-52 0 -85.5 30t-38.5 78q-2 15 14 15h2q13 0 16 -14q6 -35 30.5 -56t61.5 -21t61.5 21t31.5 56q3 14 16 14h1q16 0 14 -15q-5 -48 -38.5 -78t-85.5 -30zM469 490q8 -1 8 -13v-464q0 -13 -11 -13h-11q-11 0 -11 13v440l-296 -443q-7 -10 -19 -10h-32 q-12 0 -12 13v464q0 13 12 13h10q12 0 12 -13v-450l304 453q5 10 18 10h28z" glyph-name="afii10075" horiz-adv-x="562" unicode="й"/><glyph d="M461 18q7 -6 4.5 -12t-12.5 -6h-12q-11 0 -18 8l-227 235l-77 -78v-152q0 -13 -12 -13h-10q-12 0 -12 13v464q0 13 12 13h10q12 0 12 -13v-267l266 272q9 8 19 8h14q10 0 12 -5t-6 -13l-204 -205z" glyph-name="afii10076" horiz-adv-x="496" unicode="к"/><glyph d="M471 488q3 -3 3 -11v-464q0 -13 -11 -13h-11q-12 0 -12 13v444h-319v-295q0 -167 -128 -167q-10 0 -10 7v19q0 8 10 8q54 0 74 34.5t20 96.5v315q0 15 15 15h369v-2z" glyph-name="afii10077" horiz-adv-x="559" unicode="л"/><glyph d="M620 490q7 -1 7 -13v-464q0 -13 -11 -13h-11q-11 0 -11 13v425l-213 -427q-5 -11 -17 -11h-15q-12 0 -17 11l-213 427v-425q0 -13 -12 -13h-10q-12 0 -12 13v464q0 12 8 13h27q12 0 17 -11l219 -445l220 445q8 11 17 11h27z" glyph-name="afii10078" horiz-adv-x="712" unicode="м"/><glyph d="M478 490q12 0 12 -13v-464q0 -13 -12 -13h-10q-12 0 -12 13v205h-337v-205q0 -13 -12 -13h-10q-12 0 -12 13v464q0 13 12 13h10q12 0 12 -13v-225h337v225q0 13 12 13h10z" glyph-name="afii10079" horiz-adv-x="575" unicode="н"/><glyph d="M308 -12q-106 0 -177 73.5t-71 183.5t71 183.5t177 73.5q105 0 176 -73.5t71 -183.5t-71 -183.5t-176 -73.5zM308 22q92 0 152.5 63t60.5 160t-60.5 160t-152.5 63t-152.5 -63t-60.5 -160t60.5 -160t152.5 -63z" glyph-name="afii10080" horiz-adv-x="616" unicode="о"/><glyph d="M499 488q4 -3 4 -11v-464q0 -13 -12 -13h-10q-12 0 -12 13v445h-350v-445q0 -13 -12 -13h-10q-12 0 -12 13v464q0 13 12 13h402v-2z" glyph-name="afii10081" horiz-adv-x="588" unicode="п"/><glyph d="M326 502q109 0 177.5 -73t68.5 -184q0 -112 -68.5 -184.5t-177.5 -72.5q-71 0 -124 32t-82 89l-1 -96v-190q0 -13 -12 -13h-10q-12 0 -12 13v654q0 13 12 13h10q12 0 12 -13l1 -101q29 59 82.5 92.5t123.5 33.5zM326 22q94 0 153.5 62t59.5 161t-60 161t-153 62 q-91 0 -149 -63t-58 -163q0 -99 57.5 -159.5t149.5 -60.5z" glyph-name="afii10082" horiz-adv-x="632" unicode="р"/><glyph d="M312 -12q-107 0 -179.5 73t-72.5 183q0 111 73 184.5t181 73.5q114 0 181 -78q8 -13 2 -19l-5 -5q-10 -10 -21 1q-62 67 -156 67t-157 -62.5t-63 -161.5t63 -160.5t158 -61.5t154 65q13 13 23 3l5 -5q6 -6 -2 -19q-67 -78 -184 -78z" glyph-name="afii10083" horiz-adv-x="562" unicode="с"/><glyph d="M377 490q15 0 15 -15v-2q0 -15 -15 -15h-139v-443q0 -15 -15 -15h-5q-15 0 -15 15v443h-140q-15 0 -15 15v2q0 15 15 15h314z" glyph-name="afii10084" horiz-adv-x="441" unicode="т"/><glyph d="M186 -190q-14 0 -9 14l68 173l-187 476q-6 17 10 17h10q10 0 15 -12l171 -443l172 443q5 12 14 12h10q17 0 11 -17l-258 -651q-5 -12 -16 -12h-11z" glyph-name="afii10085" horiz-adv-x="528" unicode="у"/><glyph d="M709 498q101 0 165.5 -73t64.5 -182t-64.5 -182.5t-165.5 -73.5q-68 0 -117.5 34t-74.5 95v-293q0 -13 -14 -13h-8q-13 0 -13 13v293q-25 -61 -74.5 -95t-117.5 -34q-101 0 -165.5 73.5t-64.5 182.5t64.5 182t165.5 73q140 0 192 -126v291q0 14 13 14h8q14 0 14 -14v-291 q52 126 192 126zM286 18q84 0 140 65.5t56 158.5t-56 159t-140 66t-138.5 -64t-54.5 -161q0 -96 54.5 -160t138.5 -64zM713 18q84 0 138.5 64t54.5 160q0 97 -54.5 161t-138.5 64t-140 -66t-56 -159t56 -158.5t140 -65.5z" glyph-name="afii10086" horiz-adv-x="999" unicode="ф"/><glyph d="M65 0q-20 0 -7 16l157 233l-149 225q-10 16 6 16h13q11 0 17 -10l133 -207l134 207q6 10 16 10h13q15 0 7 -16l-149 -225l156 -233q11 -16 -6 -16h-13q-11 0 -17 10l-141 217l-141 -217q-6 -10 -16 -10h-13z" glyph-name="afii10087" horiz-adv-x="470" unicode="х"/><glyph d="M521 33q14 0 14 -13v-82q0 -14 -14 -14h-5q-13 0 -13 14v62h-406q-12 0 -12 13v464q0 13 12 13h10q12 0 12 -13v-445h350v445q0 13 12 13h10q12 0 12 -13v-444h18z" glyph-name="afii10088" horiz-adv-x="571" unicode="ц"/><glyph d="M425 490q11 0 11 -13v-464q0 -13 -11 -13h-11q-12 0 -12 13v194q-23 -38 -67.5 -61t-96.5 -23q-30 0 -58.5 8t-56.5 26.5t-45.5 56t-17.5 89.5v174q0 13 12 13h11q12 0 12 -13v-168q0 -151 143 -151q68 0 116 36.5t48 114.5v168q0 13 12 13h11z" glyph-name="afii10089" horiz-adv-x="521" unicode="ч"/><glyph d="M574 490q12 0 12 -13v-464q0 -13 -12 -13h-10h-4h-448v1q-1 -1 -5 -1h-10q-12 0 -12 13v464q0 13 12 13h10q12 0 12 -13v-445h200v445q0 13 11 13h11q11 0 11 -13v-445h200v445q0 13 12 13h10z" glyph-name="afii10090" horiz-adv-x="671" unicode="ш"/><glyph d="M588 33q13 0 13 -13v-82q0 -14 -13 -14h-10q-13 0 -13 14v62h-453v1q-1 -1 -5 -1h-10q-12 0 -12 13v464q0 13 12 13h10q12 0 12 -13v-445h200v445q0 13 11 13h11q11 0 11 -13v-445h186v1h14v444q0 13 12 13h10q12 0 12 -13v-444h2z" glyph-name="afii10091" horiz-adv-x="638" unicode="щ"/><glyph d="M334 307q86 0 127.5 -41t41.5 -112q0 -72 -41.5 -113t-127.5 -41h-207v2q-4 -2 -8 -2h-11q-11 0 -11 13v444h-49q-13 0 -13 13v7q0 13 13 13h71q12 0 12 -13v-170h203zM339 34q129 0 129 120q0 119 -129 119h-208v-239h208z" glyph-name="afii10092" horiz-adv-x="563" unicode="ъ"/><glyph d="M323 307q86 0 127.5 -41t41.5 -112q0 -72 -41.5 -113t-127.5 -41h-208v2q-4 -2 -8 -2h-10q-12 0 -12 13v464q0 13 12 13h10q12 0 12 -13v-170h204zM589 490q12 0 12 -13v-464q0 -13 -12 -13h-10q-12 0 -12 13v464q0 13 12 13h10zM328 34q128 0 128 120q0 119 -128 119 h-209v-239h209z" glyph-name="afii10093" horiz-adv-x="686" unicode="ы"/><glyph d="M323 307q86 0 127.5 -41t41.5 -112q0 -72 -41.5 -113t-127.5 -41h-208v2q-4 -2 -8 -2h-10q-12 0 -12 13v464q0 13 12 13h10q12 0 12 -13v-170h204zM328 34q128 0 128 120q0 119 -128 119h-209v-239h209z" glyph-name="afii10094" horiz-adv-x="552" unicode="ь"/><glyph d="M247 502q108 0 181.5 -73.5t73.5 -184.5q0 -110 -72.5 -183t-180.5 -73q-116 0 -183 78q-9 13 -3 19l6 5q10 10 23 -3q59 -65 154 -65q91 0 153.5 57t67.5 150h-213q-11 0 -11 13v4q0 14 11 14h213q-6 93 -68.5 150.5t-152.5 57.5q-93 0 -155 -67q-12 -10 -21 -1l-6 5 q-6 6 3 19q67 78 180 78z" glyph-name="afii10095" horiz-adv-x="562" unicode="э"/><glyph d="M459 502q105 0 176 -73.5t71 -183.5t-71 -183.5t-176 -73.5q-102 0 -172 68.5t-76 172.5h-92v-217q0 -13 -12 -13h-10q-12 0 -12 13v464q0 13 12 13h10q12 0 12 -13v-216h92q5 104 75.5 173t172.5 69zM459 22q92 0 152.5 63t60.5 160t-60.5 160t-152.5 63t-152.5 -63 t-60.5 -160t60.5 -160t152.5 -63z" glyph-name="afii10096" horiz-adv-x="767" unicode="ю"/><glyph d="M452 490q12 0 12 -13v-464q0 -13 -12 -13h-10q-12 0 -12 13v170h-152l-159 -175q-7 -8 -17 -8h-15q-10 0 -11.5 5t5.5 13l153 165h-8q-86 0 -127.5 41t-41.5 112q0 72 41.5 113t127.5 41h208v-2q4 2 8 2h10zM221 217h209v239h-209q-128 0 -128 -120q0 -119 128 -119z" glyph-name="afii10097" horiz-adv-x="549" unicode="я"/><glyph d="M219 682q-11 0 -19.5 8t-8.5 19q0 10 8.5 18t19.5 8t19.5 -8t8.5 -18q0 -11 -8.5 -19t-19.5 -8zM378 682q-11 0 -19.5 8t-8.5 19q0 10 8.5 18t19.5 8t19.5 -8t8.5 -18q0 -11 -8.5 -19t-19.5 -8zM303 502q103 0 164.5 -68.5t61.5 -162.5q0 -23 -5 -30t-21 -7h-409 q5 -91 63 -152t160 -61q90 0 157 56q8 8 14 1l6 -6q7 -9 -4 -20q-69 -64 -175 -64q-116 0 -185.5 75t-69.5 184t68 182t175 73zM302 467q-88 0 -144.5 -55.5t-62.5 -144.5h402q0 85 -52.5 142.5t-142.5 57.5z" glyph-name="afii10071" horiz-adv-x="590" unicode="ё"/><glyph d="M220 557q-8 0 -9 3.5t2 11.5l51 116q4 12 15 12h15q14 0 7 -15l-51 -116q-5 -12 -16 -12h-14zM348 490q15 0 15 -15v-3q0 -15 -15 -15h-228v-442q0 -15 -15 -15h-5q-15 0 -15 15v460q0 15 15 15h5q3 0 5 -1v1h238z" glyph-name="afii10100" horiz-adv-x="407" unicode="ѓ"/><glyph d="M498 85q6 -6 -2 -19q-67 -78 -184 -78q-107 0 -179.5 73t-72.5 183q0 111 73 184.5t181 73.5q114 0 181 -78q8 -13 2 -19l-5 -5q-10 -10 -21 1q-62 67 -156 67q-90 0 -152 -57.5t-68 -150.5h213q11 0 11 -14v-4q0 -13 -11 -13h-213q5 -93 67.5 -150t153.5 -57 q95 0 154 65q13 13 23 3z" glyph-name="afii10101" horiz-adv-x="562" unicode="є"/><glyph d="M102 639q-11 0 -19.5 8.5t-8.5 19.5q0 12 8.5 20.5t19.5 8.5t19 -8.5t8 -20.5q0 -11 -8 -19.5t-19 -8.5zM96 0q-12 0 -12 13v464q0 13 12 13h11q11 0 11 -13v-464q0 -13 -11 -13h-11z" glyph-name="afii10103" horiz-adv-x="203" unicode="і"/><glyph d="M2 652q-11 0 -19.5 8t-8.5 19q0 10 8.5 18t19.5 8t19.5 -8t8.5 -18q0 -11 -8.5 -19t-19.5 -8zM161 652q-11 0 -19.5 8t-8.5 19q0 10 8.5 18t19.5 8t19.5 -8t8.5 -18q0 -11 -8.5 -19t-19.5 -8zM75 0q-12 0 -12 13v464q0 13 12 13h11q11 0 11 -13v-464q0 -13 -11 -13h-11z " glyph-name="afii10104" horiz-adv-x="161" unicode="ї"/><glyph d="M260 557q-8 0 -9 3.5t2 11.5l51 116q4 12 15 12h15q14 0 7 -15l-51 -116q-5 -12 -16 -12h-14zM461 18q7 -6 4.5 -12t-12.5 -6h-12q-11 0 -18 8l-227 235l-77 -78v-152q0 -13 -12 -13h-10q-12 0 -12 13v464q0 13 12 13h10q12 0 12 -13v-267l266 272q9 8 19 8h14 q10 0 12 -5t-6 -13l-204 -205z" glyph-name="afii10109" horiz-adv-x="496" unicode="ќ"/><glyph d="M343 686q3 14 16 14h1q16 0 14 -15q-5 -48 -38.5 -78t-85.5 -30t-85.5 30t-38.5 78q-2 15 14 15h2q13 0 16 -14q6 -35 30.5 -56t61.5 -21t61.5 21t31.5 56zM186 -190q-14 0 -9 14l68 173l-187 476q-6 17 10 17h10q10 0 15 -12l171 -443l172 443q5 12 14 12h10 q17 0 11 -17l-258 -651q-5 -12 -16 -12h-11z" glyph-name="afii10110" horiz-adv-x="528" unicode="ў"/><glyph d="M431 691q1 -2 1 -6v-7q0 -15 -15 -15h-286v-650q0 -13 -13 -13h-10q-13 0 -13 13v674q0 8 4 11v2h295v36q0 15 15 15h7q15 0 15 -15v-45z" glyph-name="afii10050" horiz-adv-x="491" unicode="Ґ"/><glyph d="M348 490q15 0 15 -15v-3q0 -15 -15 -15h-228v-442q0 -15 -15 -15h-5q-15 0 -15 15v460q0 15 15 15h5q3 0 5 -1v1h202v47q0 15 15 15h4q15 0 15 -15v-47h2z" glyph-name="afii10098" horiz-adv-x="407" unicode="ґ"/><glyph d="M516 779l-52 116q-3 8 -2 11.5t9 3.5h15q11 0 16 -12l50 -116q7 -15 -7 -15h-14q-11 0 -15 12zM1008 700q17 0 12 -17l-212 -671q-5 -12 -16 -12h-18q-11 0 -16 12l-217 641l-218 -641q-5 -12 -16 -12h-18q-11 0 -16 12l-212 671q-5 17 12 17h7q12 0 17 -12l201 -639 l217 639q4 12 16 12h19q12 0 16 -12l217 -639l201 639q5 12 17 12h7z" glyph-name="Wgrave" horiz-adv-x="1081" unicode="Ẁ"/><glyph d="M361 700h15q11 0 16 -12l50 -116q7 -15 -7 -15h-14q-11 0 -15 12l-52 116q-3 8 -2 11.5t9 3.5zM240 0q-14 0 -18 12l-164 461q-6 17 10 17h12q10 0 14 -12l154 -444l157 444q5 12 18 12h18q13 0 18 -12l156 -444l154 444q5 12 15 12h11q16 0 10 -17l-164 -461 q-5 -12 -18 -12h-17q-14 0 -18 12l-156 444l-157 -444q-5 -12 -18 -12h-17z" glyph-name="wgrave" horiz-adv-x="863" unicode="ẁ"/><glyph d="M539 767q-8 0 -9 3.5t2 11.5l51 116q4 12 15 12h15q14 0 7 -15l-51 -116q-5 -12 -16 -12h-14zM1008 700q17 0 12 -17l-212 -671q-5 -12 -16 -12h-18q-11 0 -16 12l-217 641l-218 -641q-5 -12 -16 -12h-18q-11 0 -16 12l-212 671q-5 17 12 17h7q12 0 17 -12l201 -639 l217 639q4 12 16 12h19q12 0 16 -12l217 -639l201 639q5 12 17 12h7z" glyph-name="Wacute" horiz-adv-x="1081" unicode="Ẃ"/><glyph d="M503 700q14 0 7 -15l-51 -116q-5 -12 -16 -12h-14q-8 0 -9 3.5t2 11.5l51 116q4 12 15 12h15zM240 0q-14 0 -18 12l-164 461q-6 17 10 17h12q10 0 14 -12l154 -444l157 444q5 12 18 12h18q13 0 18 -12l156 -444l154 444q5 12 15 12h11q16 0 10 -17l-164 -461 q-5 -12 -18 -12h-17q-14 0 -18 12l-156 444l-157 -444q-5 -12 -18 -12h-17z" glyph-name="wacute" horiz-adv-x="863" unicode="ẃ"/><glyph d="M463 862q-11 0 -19.5 8t-8.5 19q0 10 8.5 18t19.5 8t19.5 -8t8.5 -18q0 -11 -8.5 -19t-19.5 -8zM622 862q-11 0 -19.5 8t-8.5 19q0 10 8.5 18t19.5 8t19.5 -8t8.5 -18q0 -11 -8.5 -19t-19.5 -8zM1008 700q17 0 12 -17l-212 -671q-5 -12 -16 -12h-18q-11 0 -16 12 l-217 641l-218 -641q-5 -12 -16 -12h-18q-11 0 -16 12l-212 671q-5 17 12 17h7q12 0 17 -12l201 -639l217 639q4 12 16 12h19q12 0 16 -12l217 -639l201 639q5 12 17 12h7z" glyph-name="Wdieresis" horiz-adv-x="1081" unicode="Ẅ"/><glyph d="M353 652q-11 0 -19.5 8t-8.5 19q0 10 8.5 18t19.5 8t19.5 -8t8.5 -18q0 -11 -8.5 -19t-19.5 -8zM512 652q-11 0 -19.5 8t-8.5 19q0 10 8.5 18t19.5 8t19.5 -8t8.5 -18q0 -11 -8.5 -19t-19.5 -8zM240 0q-14 0 -18 12l-164 461q-6 17 10 17h12q10 0 14 -12l154 -444 l157 444q5 12 18 12h18q13 0 18 -12l156 -444l154 444q5 12 15 12h11q16 0 10 -17l-164 -461q-5 -12 -18 -12h-17q-14 0 -18 12l-156 444l-157 -444q-5 -12 -18 -12h-17z" glyph-name="wdieresis" horiz-adv-x="863" unicode="ẅ"/><glyph d="M410 320q60 -33 92.5 -72t32.5 -97q0 -73 -50 -118t-123 -45q-89 0 -149 72q-10 11 -2 20l7 7q10 11 21 -3q48 -59 125 -59q60 0 97 33t37 88q0 87 -97 139l-55 29q-36 20 -56.5 35.5t-38 44.5t-17.5 65q0 65 43.5 100t113.5 35h20q-19 69 -129 69q-151 0 -151 -148v-502 q0 -13 -11 -13h-13q-12 0 -12 13v513q0 82 51.5 128t135.5 46q74 0 114 -28t51 -71v-43h-58q-49 0 -83.5 -22t-34.5 -75q0 -40 24 -66t79 -55z" glyph-name="uni1E9E" horiz-adv-x="595" unicode="ẞ"/><glyph d="M264 779l-52 116q-3 8 -2 11.5t9 3.5h15q11 0 16 -12l50 -116q7 -15 -7 -15h-14q-11 0 -15 12zM508 700q9 0 11 -5.5t-3 -12.5l-208 -338v-331q0 -13 -14 -13h-9q-14 0 -14 13v329l-208 340q-5 7 -3 12.5t11 5.5h15q10 0 16 -10l188 -311l187 311q6 10 16 10h15z" glyph-name="Ygrave" horiz-adv-x="579" unicode="Ỳ"/><glyph d="M194 700h15q11 0 16 -12l50 -116q7 -15 -7 -15h-14q-11 0 -15 12l-52 116q-3 8 -2 11.5t9 3.5zM186 -190q-14 0 -9 14l68 173l-187 476q-6 17 10 17h10q10 0 15 -12l171 -443l172 443q5 12 14 12h10q17 0 11 -17l-258 -651q-5 -12 -16 -12h-11z" glyph-name="ygrave" horiz-adv-x="528" unicode="ỳ"/><glyph d="M557 304q11 0 11 -12v-11q0 -12 -11 -12h-487q-12 0 -12 12v11q0 12 12 12h487z" glyph-name="endash" horiz-adv-x="627" unicode="–"/><glyph d="M617 304q11 0 11 -12v-11q0 -12 -11 -12h-547q-12 0 -12 12v11q0 12 12 12h547z" glyph-name="emdash" horiz-adv-x="687" unicode="—"/><glyph d="M133 715v-24q-41 -1 -55 -40q-11 -28 3 -39q3 -2 8 -2q20 1 30.5 -8.5t10.5 -25.5q0 -17 -11.5 -27.5t-28.5 -10.5q-23 0 -37.5 20.5t-14.5 48.5q0 40 22.5 73.5t72.5 34.5z" glyph-name="quoteleft" horiz-adv-x="170" unicode="‘"/><glyph d="M37 541v24q41 1 55 40q11 28 -3 39q-3 2 -8 2q-41 -2 -41 35q0 17 12 27t28 10q22 0 36.5 -20.5t14.5 -48.5q0 -40 -22 -73.5t-72 -34.5z" glyph-name="quoteright" horiz-adv-x="170" unicode="’"/><glyph d="M47 -122v23q41 2 56 41q10 30 -4 39q-4 2 -8 2q-20 -1 -30.5 8.5t-10.5 25.5q0 17 12 27.5t28 10.5q22 0 36.5 -20.5t14.5 -49.5q0 -39 -22 -72.5t-72 -34.5z" glyph-name="quotesinglbase" horiz-adv-x="190" unicode="‚"/><glyph d="M133 715v-24q-41 -1 -55 -40q-11 -28 3 -39q3 -2 8 -2q20 1 30.5 -8.5t10.5 -25.5q0 -17 -11.5 -27.5t-28.5 -10.5q-23 0 -37.5 20.5t-14.5 48.5q0 40 22.5 73.5t72.5 34.5zM249 715v-24q-41 -1 -55 -40q-11 -28 3 -39q3 -2 8 -2q20 1 30.5 -8.5t10.5 -25.5 q0 -17 -11.5 -27.5t-28.5 -10.5q-23 0 -37 20t-14 49q0 40 22 73.5t72 34.5z" glyph-name="quotedblleft" horiz-adv-x="286" unicode="“"/><glyph d="M37 541v24q41 1 55 40q11 28 -3 39q-3 2 -8 2q-41 -2 -41 35q0 17 12 27t28 10q22 0 36.5 -20.5t14.5 -48.5q0 -40 -22 -73.5t-72 -34.5zM153 541v24q41 1 55 40q11 28 -3 39q-3 2 -8 2q-41 -2 -41 35q0 17 12 27t28 10q23 0 37.5 -20.5t14.5 -48.5q0 -40 -22.5 -73.5 t-72.5 -34.5z" glyph-name="quotedblright" horiz-adv-x="286" unicode="”"/><glyph d="M47 -122v23q41 2 56 41q10 30 -4 39q-4 2 -8 2q-20 -1 -30.5 8.5t-10.5 25.5q0 17 12 27.5t28 10.5q22 0 36.5 -20.5t14.5 -49.5q0 -39 -22 -72.5t-72 -34.5zM163 -122v23q41 2 56 41q10 30 -4 39q-4 2 -8 2q-20 -1 -30.5 8.5t-10.5 25.5q0 17 12 27.5t28 10.5 q23 0 37.5 -20.5t14.5 -49.5q0 -39 -22.5 -72.5t-72.5 -34.5z" glyph-name="quotedblbase" horiz-adv-x="306" unicode="„"/><glyph d="M322 586q13 0 13 -14v-13q0 -13 -13 -13h-101v-103q0 -13 -14 -13h-13q-13 0 -13 13v103h-103q-13 0 -13 13v13q0 14 13 14h103v101q0 13 13 13h13q14 0 14 -13v-101h101z" glyph-name="dagger" horiz-adv-x="400" unicode="†"/><glyph d="M322 586q13 0 13 -14v-13q0 -13 -13 -13h-101v-103q0 -13 -14 -13h-13q-13 0 -13 13v103h-103q-13 0 -13 13v13q0 14 13 14h103v101q0 13 13 13h13q14 0 14 -13v-101h101zM322 273q13 0 13 -13v-13q0 -13 -13 -13h-101v-103q0 -13 -14 -13h-13q-13 0 -13 13v103h-103 q-13 0 -13 13v13q0 13 13 13h103v101q0 13 13 13h13q14 0 14 -13v-101h101z" glyph-name="daggerdbl" horiz-adv-x="400" unicode="‡"/><glyph d="M113 229q-20 0 -34 13t-14 33t14 33t34 13q19 0 32.5 -13t13.5 -33t-13.5 -33t-32.5 -13z" glyph-name="bullet" horiz-adv-x="224" unicode="•"/><glyph d="M82 -13q-14 0 -24 9.5t-10 24.5q0 13 10 23.5t24 10.5t24.5 -10t10.5 -24q0 -15 -10 -24.5t-25 -9.5zM226 -13q-14 0 -24 9.5t-10 24.5q0 13 10 23.5t24 10.5t24.5 -10t10.5 -24q0 -15 -10 -24.5t-25 -9.5zM370 -13q-14 0 -24 9.5t-10 24.5q0 13 10 23.5t24 10.5t24 -10 t10 -24q0 -15 -10 -24.5t-24 -9.5z" glyph-name="ellipsis" horiz-adv-x="453" unicode="…"/><glyph d="M187 435q-56 0 -96.5 39t-40.5 95q0 57 40.5 96.5t96.5 39.5t96.5 -39.5t40.5 -96.5q0 -56 -40.5 -95t-96.5 -39zM134 1l-7 6q-8 7 -2 17l452 669q8 13 17 6l7 -6q8 -7 2 -17l-452 -669q-8 -13 -17 -6zM187 465q45 0 75 29.5t30 74.5q0 47 -30 76.5t-75 29.5t-75 -29.5 t-30 -76.5q0 -45 30 -74.5t75 -29.5zM541 -5q-56 0 -96.5 39t-40.5 95q0 57 40.5 96.5t96.5 39.5t96.5 -39.5t40.5 -96.5q0 -56 -40.5 -95t-96.5 -39zM846 -5q-55 0 -96 39t-41 95q0 57 40.5 96.5t96.5 39.5t96.5 -39.5t40.5 -96.5q0 -56 -40.5 -95t-96.5 -39zM541 25 q45 0 75 29.5t30 74.5q0 47 -30 76.5t-75 29.5t-75 -29.5t-30 -76.5q0 -45 30 -74.5t75 -29.5zM846 25q45 0 75 29.5t30 74.5q0 47 -30 76.5t-75 29.5t-75 -29.5t-30 -76.5q0 -45 30 -74.5t75 -29.5z" glyph-name="perthousand" horiz-adv-x="1033" unicode="‰"/><glyph d="M170 178q0 -5 -4 -8t-7 1l-98 83q-8 7 -8 15v28q0 9 8 16l98 83q3 3 7 0.5t4 -7.5v-21q0 -7 -8 -15l-82 -70l82 -70q8 -8 8 -15v-20z" glyph-name="guilsinglleft" horiz-adv-x="223" unicode="‹"/><glyph d="M53 178v20q0 7 8 15l83 70l-83 70q-8 8 -8 15v21q0 5 4 7.5t8 -0.5l97 -83q8 -7 8 -16v-28q0 -8 -8 -15l-97 -83q-4 -4 -8 -1t-4 8z" glyph-name="guilsinglright" horiz-adv-x="223" unicode="›"/><glyph d="M305 700l-434 -700h-31l434 700h31z" glyph-name="fraction" horiz-adv-x="145" unicode="⁄"/><glyph d="M698 96q10 -10 -5 -25q-100 -84 -231 -84q-137 0 -231.5 82.5t-115.5 211.5h-62q-13 0 -13 11v13q0 12 13 12h58q-1 10 -1 30q0 15 1 23h-58q-13 0 -13 12v13q0 12 13 12h61q20 131 114.5 216t233.5 85q131 0 231 -84q15 -15 5 -25l-4 -6q-10 -9 -23 1q-92 79 -207 79 q-121 0 -207 -74t-105 -192h171q14 0 14 -12v-13q0 -12 -14 -12h-175q-1 -8 -1 -23q0 -20 1 -30h175q14 0 14 -12v-13q0 -11 -14 -11h-170q20 -115 106 -187t205 -72q115 0 207 79q13 10 21 2z" glyph-name="Euro" horiz-adv-x="774" unicode="€"/><glyph d="M143 520q-5 0 -5 5v152h-68q-5 0 -5 5v13q0 5 5 5h160q5 0 5 -5v-13q0 -5 -5 -5h-68v-152q0 -5 -5 -5h-14zM273 520q-5 0 -5 5v170q0 5 5 5h18q3 0 6 -5l75 -149l76 149q2 5 6 5h18q5 0 5 -5v-170q0 -5 -5 -5h-14q-5 0 -5 5v129l-67 -129q-2 -5 -6 -5h-15q-3 0 -6 5 l-67 129v-129q0 -5 -5 -5h-14z" glyph-name="trademark" horiz-adv-x="542" unicode="™"/><glyph d="M95 701v-261h-25v238h-30v23h55zM505 700l-434 -700h-31l434 700h31zM468 263q38 0 56.5 -19t18.5 -48q0 -36 -40 -57q51 -15 51 -68q0 -33 -22.5 -54t-61.5 -21q-42 0 -63.5 23.5t-21.5 54.5h24q0 -23 15.5 -39.5t45.5 -16.5q26 0 42.5 13.5t16.5 38.5q0 56 -80 56v21 q33 0 51.5 14.5t18.5 37.5q0 41 -51 41q-52 0 -52 -53h-23q-1 33 17 54.5t58 21.5z" glyph-name="onethird" horiz-adv-x="594" unicode="⅓"/><glyph d="M95 701v-261h-25v238h-30v23h55zM517 700l-434 -700h-31l434 700h31zM444 -4q-37 0 -60.5 22t-23.5 56q0 47 41 70q-26 20 -26 54q0 26 19 45.5t50 19.5t50 -19.5t19 -45.5q0 -34 -26 -54q40 -23 40 -70q0 -34 -23.5 -56t-59.5 -22zM444 154q19 0 31.5 12.5t12.5 31.5 q0 18 -12 30t-32 12q-21 0 -33.5 -12t-12.5 -30q0 -19 13 -31.5t33 -12.5zM444 17q24 0 41.5 16t17.5 40q0 27 -17 43t-42 16t-42.5 -16t-17.5 -43q0 -24 18 -40t42 -16z" glyph-name="oneeighth" horiz-adv-x="572" unicode="⅛"/><glyph d="M123 703q38 0 56.5 -19t18.5 -48q0 -36 -40 -57q51 -15 51 -68q0 -33 -22.5 -54t-61.5 -21q-42 0 -63.5 23.5t-21.5 54.5h24q0 -23 15.5 -39.5t45.5 -16.5q26 0 42.5 13.5t16.5 38.5q0 56 -80 56v21q33 0 51.5 14.5t18.5 37.5q0 41 -51 41q-52 0 -52 -53h-23 q-1 33 17 54.5t58 21.5zM540 700l-434 -700h-31l434 700h31zM465 -4q-37 0 -60.5 22t-23.5 56q0 47 41 70q-26 20 -26 54q0 26 19 45.5t50 19.5t50 -19.5t19 -45.5q0 -34 -26 -54q40 -23 40 -70q0 -34 -23.5 -56t-59.5 -22zM465 154q19 0 31.5 12.5t12.5 31.5q0 18 -12 30 t-32 12q-21 0 -33.5 -12t-12.5 -30q0 -19 13 -31.5t33 -12.5zM465 17q24 0 41.5 16t17.5 40q0 27 -17 43t-42 16t-42.5 -16t-17.5 -43q0 -24 18 -40t42 -16z" glyph-name="threeeighths" horiz-adv-x="588" unicode="⅜"/><glyph d="M195 701v-24h-107l-11 -77q21 21 57 21q37 0 61.5 -25t24.5 -66q0 -42 -25 -68t-68 -26q-35 0 -58 17.5t-29 44.5l22 12q4 -20 21.5 -34.5t43.5 -14.5q30 0 49 18.5t19 50.5q0 31 -18.5 48.5t-46.5 17.5q-36 0 -61 -33l-20 9l18 129h128zM540 700l-434 -700h-31l434 700 h31zM467 -4q-37 0 -60.5 22t-23.5 56q0 47 41 70q-26 20 -26 54q0 26 19 45.5t50 19.5t50 -19.5t19 -45.5q0 -34 -26 -54q40 -23 40 -70q0 -34 -23.5 -56t-59.5 -22zM467 154q19 0 31.5 12.5t12.5 31.5q0 18 -12 30t-32 12q-21 0 -33.5 -12t-12.5 -30q0 -19 13 -31.5 t33 -12.5zM467 17q24 0 41.5 16t17.5 40q0 27 -17 43t-42 16t-42.5 -16t-17.5 -43q0 -24 18 -40t42 -16z" glyph-name="fiveeighths" horiz-adv-x="590" unicode="⅝"/><glyph d="M195 701l-112 -261h-26l103 238h-120v23h155zM518 700l-434 -700h-31l434 700h31zM445 -4q-37 0 -60.5 22t-23.5 56q0 47 41 70q-26 20 -26 54q0 26 19 45.5t50 19.5t50 -19.5t19 -45.5q0 -34 -26 -54q40 -23 40 -70q0 -34 -23.5 -56t-59.5 -22zM445 154q19 0 31.5 12.5 t12.5 31.5q0 18 -12 30t-32 12q-21 0 -33.5 -12t-12.5 -30q0 -19 13 -31.5t33 -12.5zM445 17q24 0 41.5 16t17.5 40q0 27 -17 43t-42 16t-42.5 -16t-17.5 -43q0 -24 18 -40t42 -16z" glyph-name="seveneighths" horiz-adv-x="563" unicode="⅞"/><glyph d="M434 371q56 -76 56 -159q0 -96 -60 -160.5t-155 -64.5t-155 65.5t-60 162.5q0 93 60 156t147 63q59 0 99 -21l-211 281q-7 11 -1 16l12 6q10 9 18 -5zM275 21q78 0 130 53t52 137t-52 136.5t-130 52.5t-129.5 -52.5t-51.5 -136.5t52 -137t129 -53z" glyph-name="partialdiff" horiz-adv-x="551" unicode="∂"/><glyph d="M77 -190q-14 0 -14 13v864q0 13 14 13h486q13 0 13 -13v-864q0 -13 -13 -13h-13q-13 0 -13 13v838h-434v-838q0 -13 -10 -13h-16z" glyph-name="product" horiz-adv-x="640" unicode="∏"/><glyph d="M78 -190q-15 0 -15 15v11q0 6 6 18l269 401l-269 401q-6 12 -6 18v11q0 15 15 15h473q15 0 15 -15v-8q0 -15 -15 -15h-441l268 -398q5 -9 0 -18l-268 -398h441q15 0 15 -15v-8q0 -15 -15 -15h-473z" glyph-name="summation" horiz-adv-x="630" unicode="∑"/><glyph d="M78 263q-13 0 -13 14v13q0 13 13 13h264q13 0 13 -13v-13q0 -14 -13 -14h-264z" glyph-name="minus" horiz-adv-x="420" unicode="−"/><glyph d="M314 -190q-14 0 -17 14l-124 471h-98q-15 0 -15 15v8q0 15 15 15h115q14 0 17 -13l121 -462l184 829q3 13 16 13h9q15 0 13 -17l-191 -860q-3 -13 -16 -13h-29z" glyph-name="radical" horiz-adv-x="609" unicode="√"/><glyph d="M610 421q65 0 107.5 -45.5t42.5 -115.5q0 -69 -42.5 -114.5t-107.5 -45.5q-58 0 -101 35.5t-91 106.5q-49 -71 -92 -106.5t-100 -35.5q-65 0 -108 45.5t-43 114.5q0 70 43 115.5t108 45.5q57 0 100 -35.5t92 -106.5q48 71 91 106.5t101 35.5zM224 129q28 0 53.5 11 t48 33.5t36.5 40t34 47.5q-39 61 -78.5 96t-93.5 35q-52 0 -86 -36.5t-34 -94.5q0 -57 34.5 -94.5t85.5 -37.5zM611 129q51 0 85.5 37.5t34.5 94.5q0 58 -34.5 94.5t-85.5 36.5q-54 0 -94 -35.5t-78 -95.5q26 -39 45 -62.5t54 -46.5t73 -23z" glyph-name="infinity" horiz-adv-x="835" unicode="∞"/><glyph d="M96 -190q-14 0 -32 3q-9 3 -9 12v14q0 9 11 7q11 -1 30 -1q42 0 57 23t15 67v685q0 111 106 111q14 0 32 -3q9 -3 9 -12v-14q0 -9 -11 -7q-11 1 -30 1q-42 0 -57 -23t-15 -67v-685q0 -111 -106 -111z" glyph-name="integral" horiz-adv-x="370" unicode="∫"/><glyph d="M269 308q-34 0 -71 34.5t-64 34.5q-37 0 -43 -35q-1 -10 -12 -10h-10q-12 0 -9 16q5 29 26 44t49 15q30 0 52.5 -17t42 -34t41.5 -17q39 0 45 34q1 11 12 11h9q12 0 9 -16q-4 -28 -26 -44t-51 -16zM269 148q-34 0 -71 34.5t-64 34.5q-37 0 -43 -35q-1 -10 -12 -10h-10 q-12 0 -9 16q5 29 26 44t49 15q30 0 52.5 -17t42 -34t41.5 -17q39 0 45 34q1 11 12 11h9q12 0 9 -16q-4 -28 -26 -44t-51 -16z" glyph-name="approxequal" horiz-adv-x="406" unicode="≈"/><glyph d="M342 318h-97l-26 -68h123q13 0 13 -13v-13q0 -14 -13 -14h-138l-75 -198q-5 -12 -18 -12h-11q-16 0 -10 17l73 193h-85q-13 0 -13 14v13q0 13 13 13h100l26 68h-126q-13 0 -13 14v13q0 13 13 13h141l72 191q5 12 18 12h10q17 0 11 -17l-70 -186h82q13 0 13 -13v-13 q0 -14 -13 -14z" glyph-name="notequal" horiz-adv-x="420" unicode="≠"/><glyph d="M360 175l-283 187q-8 3 -8 16v11q0 11 8 17l283 187q5 4 9 2t4 -10v-8q0 -12 -8 -15l-274 -178l274 -177q8 -6 8 -15v-8q0 -8 -4 -10.5t-9 1.5zM80 0q-12 0 -12 12v5q0 12 12 12h281q12 0 12 -12v-5q0 -12 -12 -12h-281z" glyph-name="lessequal" horiz-adv-x="441" unicode="≤"/><glyph d="M78 175q-5 -4 -9 -1.5t-4 10.5v8q0 9 8 15l274 177l-274 178q-8 3 -8 15v8q0 8 4 10t9 -2l283 -187q8 -6 8 -17v-11q0 -13 -8 -16zM358 0h-281q-12 0 -12 12v5q0 12 12 12h281q12 0 12 -12v-5q0 -12 -12 -12z" glyph-name="greaterequal" horiz-adv-x="435" unicode="≥"/><glyph d="M227 0q-13 0 -17 11l-146 329q-4 10 0 20l146 329q4 11 17 11h31q13 0 17 -11l146 -329q4 -10 0 -20l-146 -329q-4 -11 -17 -11h-31zM242 24l145 326l-145 326l-144 -326z" glyph-name="lozenge" horiz-adv-x="485" unicode="◊"/><glyph d="M761 621q10 -10 0 -20l-472 -475q-9 -10 -19 0l-209 212q-9 10 0 19l8 7q6 6 9 6t9 -6l194 -196l455 458q9 10 19 0z" glyph-name="uni2713" horiz-adv-x="822" unicode="✓"/><glyph glyph-name="uniFEFF" horiz-adv-x="203" unicode="﻿"/><glyph d="M81 652q-11 0 -19.5 8t-8.5 19q0 10 8.5 18t19.5 8t19.5 -8t8.5 -18q0 -11 -8.5 -19t-19.5 -8zM75 0q-12 0 -12 13v464q0 13 12 13h11q11 0 11 -13v-464q0 -13 -11 -13h-11z" glyph-name="i.aalt" horiz-adv-x="161"/><glyph d="M464 27q2 -1 5.5 -2.5t4.5 -3t1 -6.5v-8q0 -10 -15 -10q-44 0 -44 64v33q-33 -50 -92.5 -78.5t-119.5 -28.5q-74 0 -111.5 39.5t-37.5 99.5q0 121 152 133l209 17v67q0 66 -33 95t-115 29q-71 0 -108.5 -22t-43.5 -73q-1 -14 -14 -14h-10q-12 0 -11 15q10 129 186 129 q183 0 183 -145v-292q0 -19 2.5 -26t11.5 -12zM210 23q64 0 118 30t88 85v104l-204 -17q-69 -6 -94.5 -31t-25.5 -67q0 -104 118 -104z" glyph-name="a.salt" horiz-adv-x="545"/><glyph d="M262 557q-8 0 -9 3.5t2 11.5l51 116q4 12 15 12h15q14 0 7 -15l-51 -116q-5 -12 -16 -12h-14zM464 27q2 -1 5.5 -2.5t4.5 -3t1 -6.5v-8q0 -10 -15 -10q-44 0 -44 64v33q-33 -50 -92.5 -78.5t-119.5 -28.5q-74 0 -111.5 39.5t-37.5 99.5q0 121 152 133l209 17v67 q0 66 -33 95t-115 29q-71 0 -108.5 -22t-43.5 -73q-1 -14 -14 -14h-10q-12 0 -11 15q10 129 186 129q183 0 183 -145v-292q0 -19 2.5 -26t11.5 -12zM210 23q64 0 118 30t88 85v104l-204 -17q-69 -6 -94.5 -31t-25.5 -67q0 -104 118 -104z" glyph-name="aacute.aalt" horiz-adv-x="545"/><glyph d="M264 577q-52 0 -85.5 30t-38.5 78q-2 15 14 15h2q13 0 16 -14q6 -35 30.5 -56t61.5 -21t61.5 21t31.5 56q3 14 16 14h1q16 0 14 -15q-5 -48 -38.5 -78t-85.5 -30zM464 27q2 -1 5.5 -2.5t4.5 -3t1 -6.5v-8q0 -10 -15 -10q-44 0 -44 64v33q-33 -50 -92.5 -78.5 t-119.5 -28.5q-74 0 -111.5 39.5t-37.5 99.5q0 121 152 133l209 17v67q0 66 -33 95t-115 29q-71 0 -108.5 -22t-43.5 -73q-1 -14 -14 -14h-10q-12 0 -11 15q10 129 186 129q183 0 183 -145v-292q0 -19 2.5 -26t11.5 -12zM210 23q64 0 118 30t88 85v104l-204 -17 q-69 -6 -94.5 -31t-25.5 -67q0 -104 118 -104z" glyph-name="abreve.aalt" horiz-adv-x="545"/><glyph d="M234 587l-82 101q-3 4 -0.5 7.5t7.5 3.5h20q8 0 15 -8l70 -87l70 87q7 8 15 8h21q5 0 7 -3.5t0 -7.5l-83 -101q-7 -8 -15 -8h-29q-9 0 -16 8zM464 27q2 -1 5.5 -2.5t4.5 -3t1 -6.5v-8q0 -10 -15 -10q-44 0 -44 64v33q-33 -50 -92.5 -78.5t-119.5 -28.5q-74 0 -111.5 39.5 t-37.5 99.5q0 121 152 133l209 17v67q0 66 -33 95t-115 29q-71 0 -108.5 -22t-43.5 -73q-1 -14 -14 -14h-10q-12 0 -11 15q10 129 186 129q183 0 183 -145v-292q0 -19 2.5 -26t11.5 -12zM210 23q64 0 118 30t88 85v104l-204 -17q-69 -6 -94.5 -31t-25.5 -67q0 -104 118 -104 z" glyph-name="uni01CE.aalt" horiz-adv-x="545"/><glyph d="M159 580q-5 0 -7.5 4t0.5 7l82 101q7 8 16 8h29q8 0 15 -8l83 -101q2 -3 0 -7t-7 -4h-21q-8 0 -15 8l-70 87l-70 -87q-7 -8 -15 -8h-20zM464 27q2 -1 5.5 -2.5t4.5 -3t1 -6.5v-8q0 -10 -15 -10q-44 0 -44 64v33q-33 -50 -92.5 -78.5t-119.5 -28.5q-74 0 -111.5 39.5 t-37.5 99.5q0 121 152 133l209 17v67q0 66 -33 95t-115 29q-71 0 -108.5 -22t-43.5 -73q-1 -14 -14 -14h-10q-12 0 -11 15q10 129 186 129q183 0 183 -145v-292q0 -19 2.5 -26t11.5 -12zM210 23q64 0 118 30t88 85v104l-204 -17q-69 -6 -94.5 -31t-25.5 -67q0 -104 118 -104 z" glyph-name="acircumflex.aalt" horiz-adv-x="545"/><glyph d="M186 652q-11 0 -19.5 8t-8.5 19q0 10 8.5 18t19.5 8t19.5 -8t8.5 -18q0 -11 -8.5 -19t-19.5 -8zM345 652q-11 0 -19.5 8t-8.5 19q0 10 8.5 18t19.5 8t19.5 -8t8.5 -18q0 -11 -8.5 -19t-19.5 -8zM464 27q2 -1 5.5 -2.5t4.5 -3t1 -6.5v-8q0 -10 -15 -10q-44 0 -44 64v33 q-33 -50 -92.5 -78.5t-119.5 -28.5q-74 0 -111.5 39.5t-37.5 99.5q0 121 152 133l209 17v67q0 66 -33 95t-115 29q-71 0 -108.5 -22t-43.5 -73q-1 -14 -14 -14h-10q-12 0 -11 15q10 129 186 129q183 0 183 -145v-292q0 -19 2.5 -26t11.5 -12zM210 23q64 0 118 30t88 85v104 l-204 -17q-69 -6 -94.5 -31t-25.5 -67q0 -104 118 -104z" glyph-name="adieresis.aalt" horiz-adv-x="545"/><glyph d="M239 569l-52 116q-3 8 -2 11.5t9 3.5h15q11 0 16 -12l50 -116q7 -15 -7 -15h-14q-11 0 -15 12zM464 27q2 -1 5.5 -2.5t4.5 -3t1 -6.5v-8q0 -10 -15 -10q-44 0 -44 64v33q-33 -50 -92.5 -78.5t-119.5 -28.5q-74 0 -111.5 39.5t-37.5 99.5q0 121 152 133l209 17v67 q0 66 -33 95t-115 29q-71 0 -108.5 -22t-43.5 -73q-1 -14 -14 -14h-10q-12 0 -11 15q10 129 186 129q183 0 183 -145v-292q0 -19 2.5 -26t11.5 -12zM210 23q64 0 118 30t88 85v104l-204 -17q-69 -6 -94.5 -31t-25.5 -67q0 -104 118 -104z" glyph-name="agrave.aalt" horiz-adv-x="545"/><glyph d="M136 667q-13 0 -13 13v7q0 13 13 13h255q14 0 14 -13v-7q0 -13 -14 -13h-255zM464 27q2 -1 5.5 -2.5t4.5 -3t1 -6.5v-8q0 -10 -15 -10q-44 0 -44 64v33q-33 -50 -92.5 -78.5t-119.5 -28.5q-74 0 -111.5 39.5t-37.5 99.5q0 121 152 133l209 17v67q0 66 -33 95t-115 29 q-71 0 -108.5 -22t-43.5 -73q-1 -14 -14 -14h-10q-12 0 -11 15q10 129 186 129q183 0 183 -145v-292q0 -19 2.5 -26t11.5 -12zM210 23q64 0 118 30t88 85v104l-204 -17q-69 -6 -94.5 -31t-25.5 -67q0 -104 118 -104z" glyph-name="amacron.aalt" horiz-adv-x="545"/><glyph d="M464 27q2 -1 5.5 -2.5t4.5 -3t1 -6.5v-8q0 -10 -15 -10q-8 0 -16 3v-3q-51 -2 -86.5 -29.5t-35.5 -74.5q0 -41 29 -57.5t75 -6.5v-27q-41 -18 -89 4t-48 83q0 57 41.5 91.5t93.5 39.5q-8 15 -8 41v33q-33 -50 -92.5 -78.5t-119.5 -28.5q-74 0 -111.5 39.5t-37.5 99.5 q0 121 152 133l209 17v67q0 66 -33 95t-115 29q-71 0 -108.5 -22t-43.5 -73q-1 -14 -14 -14h-10q-12 0 -11 15q10 129 186 129q183 0 183 -145v-292q0 -19 2.5 -26t11.5 -12zM210 23q64 0 118 30t88 85v104l-204 -17q-69 -6 -94.5 -31t-25.5 -67q0 -104 118 -104z" glyph-name="aogonek.aalt" horiz-adv-x="545"/><glyph d="M264 575q-28 0 -47.5 18.5t-19.5 47.5q0 28 19.5 46t47.5 18t47.5 -18t19.5 -46q0 -29 -19.5 -47.5t-47.5 -18.5zM264 671q-14 0 -22.5 -8.5t-8.5 -22.5t8.5 -22.5t22.5 -8.5q13 0 22 9t9 22t-9 22t-22 9zM464 27q2 -1 5.5 -2.5t4.5 -3t1 -6.5v-8q0 -10 -15 -10 q-44 0 -44 64v33q-33 -50 -92.5 -78.5t-119.5 -28.5q-74 0 -111.5 39.5t-37.5 99.5q0 121 152 133l209 17v67q0 66 -33 95t-115 29q-71 0 -108.5 -22t-43.5 -73q-1 -14 -14 -14h-10q-12 0 -11 15q10 129 186 129q183 0 183 -145v-292q0 -19 2.5 -26t11.5 -12zM210 23 q64 0 118 30t88 85v104l-204 -17q-69 -6 -94.5 -31t-25.5 -67q0 -104 118 -104z" glyph-name="aring.aalt" horiz-adv-x="545"/><glyph d="M145 648q-11 0 -8 11q4 26 23 41t46 15q32 0 66.5 -30.5t58.5 -30.5q30 0 39 31q3 10 11 10h6q10 0 10 -10q-4 -27 -23 -42.5t-41 -15.5q-35 0 -70 31t-59 31q-32 0 -41 -32q-3 -9 -11 -9h-7zM464 27q2 -1 5.5 -2.5t4.5 -3t1 -6.5v-8q0 -10 -15 -10q-44 0 -44 64v33 q-33 -50 -92.5 -78.5t-119.5 -28.5q-74 0 -111.5 39.5t-37.5 99.5q0 121 152 133l209 17v67q0 66 -33 95t-115 29q-71 0 -108.5 -22t-43.5 -73q-1 -14 -14 -14h-10q-12 0 -11 15q10 129 186 129q183 0 183 -145v-292q0 -19 2.5 -26t11.5 -12zM210 23q64 0 118 30t88 85v104 l-204 -17q-69 -6 -94.5 -31t-25.5 -67q0 -104 118 -104z" glyph-name="atilde.aalt" horiz-adv-x="545"/><glyph d="M265 490q15 0 15 -15v-3q0 -15 -15 -15h-80v-442q0 -15 -15 -15h-5q-15 0 -15 15v442h-80q-15 0 -15 15v3q0 15 15 15h80v135q0 15 15 15h5q15 0 15 -15v-135h80z" glyph-name="t.aalt" horiz-adv-x="335"/><glyph d="M368 708q120 0 183.5 -97t63.5 -264q0 -165 -64 -262.5t-183 -97.5q-120 0 -183 97t-63 263q0 167 63 264t183 97zM368 673q-97 0 -154 -84t-57 -242q0 -157 57 -241t154 -84t154 84t57 241q0 158 -57 242t-154 84z" glyph-name="zero.tnum" horiz-adv-x="730"/><glyph d="M454 700q11 0 11 -13v-674q0 -13 -11 -13h-11q-12 0 -12 13v654h-103q-10 0 -10 13v7q0 13 10 13h126z" glyph-name="one.tnum" horiz-adv-x="730"/><glyph d="M492 33q13 0 13 -13v-7q0 -13 -13 -13h-336q-13 0 -13 13v11q0 12 7 19l221 282q33 40 50.5 64.5t34 63.5t16.5 76q0 64 -41 104.5t-108 40.5q-41 0 -72.5 -16t-44.5 -30.5t-28 -38.5q-6 -13 -17 -4l-8 6q-9 9 0 22q57 95 169 95q85 0 135 -52t50 -127q0 -55 -26.5 -104 t-74.5 -107l-223 -285h309z" glyph-name="two.tnum" horiz-adv-x="730"/><glyph d="M334 -13q-115 0 -180 91q-7 8 3 18l8 7q9 7 15 -2q55 -80 156 -80q76 0 124.5 46.5t48.5 122.5q0 82 -55.5 127.5t-129.5 45.5h-12h-5t-4 0.5t-2.5 2l-1 3t-0.5 4.5v12q0 11 13 11h13q67 0 110 41.5t43 105.5q0 57 -37 94t-99 37q-86 0 -136 -78q-9 -10 -17 -2l-10 7 q-4 5 1 16q25 39 66.5 65t95.5 26q76 0 122.5 -47.5t46.5 -115.5q0 -52 -28 -95t-81 -70q65 -20 103.5 -71t38.5 -121q0 -85 -58.5 -143t-151.5 -58z" glyph-name="three.tnum" horiz-adv-x="730"/><glyph d="M569 218q10 0 10 -13v-7q0 -13 -10 -13h-81v-172q0 -13 -11 -13h-11q-12 0 -12 13v172h-284q-15 0 -15 15v13q0 8 3 12l290 465q9 10 16 10h11q13 0 13 -15v-467h81zM193 218h261v420z" glyph-name="four.tnum" horiz-adv-x="730"/><glyph d="M358 448q90 0 153.5 -61.5t63.5 -164.5q0 -106 -65 -170.5t-160 -64.5q-60 0 -108.5 24.5t-75.5 58.5q-8 12 -1 18l10 9q8 6 17 -6q63 -70 157 -70q80 0 137 55t57 145q0 87 -54 140t-132 53q-101 0 -156 -76q-5 -9 -25 0h1q-13 5 -10 18l68 331q3 13 16 13h267 q10 0 10 -13v-7q0 -13 -10 -13h-255l-59 -288l2 7q25 30 66.5 46t85.5 16z" glyph-name="five.tnum" horiz-adv-x="730"/><glyph d="M395 434q87 0 146.5 -63t59.5 -156q0 -97 -60 -162.5t-155 -65.5t-155 64.5t-60 160.5q0 81 56 159l251 340q8 13 17 5l12 -6q7 -5 0 -16l-210 -280q40 20 98 20zM386 21q78 0 129.5 53t51.5 137t-51.5 136.5t-129.5 52.5t-129.5 -52.5t-51.5 -136.5t51.5 -137t129.5 -53 z" glyph-name="six.tnum" horiz-adv-x="730"/><glyph d="M557 700q6 0 9 -5t0 -12l-283 -668q-8 -15 -16 -15h-10q-15 0 -9 16l278 651h-362q-10 0 -10 13v7q0 13 10 13h393z" glyph-name="seven.tnum" horiz-adv-x="730"/><glyph d="M364 -13q-92 0 -150 57.5t-58 143.5q0 74 42.5 126t103.5 69q-52 19 -80.5 62.5t-28.5 95.5q0 70 47.5 118.5t123.5 48.5q75 0 122.5 -48.5t47.5 -118.5q0 -52 -28.5 -95.5t-79.5 -62.5q60 -17 102.5 -69t42.5 -126q0 -86 -58 -143.5t-149 -57.5zM364 400q61 0 99.5 40 t38.5 101q0 60 -38 97.5t-100 37.5q-63 0 -101 -37.5t-38 -97.5q0 -61 39 -101t100 -40zM364 18q78 0 127 48.5t49 123.5t-51 123.5t-125 48.5q-75 0 -126 -48.5t-51 -123.5q0 -74 49 -123t128 -49z" glyph-name="eight.tnum" horiz-adv-x="730"/><glyph d="M373 708q95 0 155 -64.5t60 -160.5q0 -82 -57 -159l-250 -340q-8 -14 -18 -5l-11 6q-7 5 0 16l211 280q-39 -19 -99 -19q-87 0 -147 63t-60 155q0 97 60.5 162.5t155.5 65.5zM373 295q78 0 129.5 52.5t51.5 136.5t-51.5 137t-129.5 53t-130 -53t-52 -137t52 -136.5 t130 -52.5z" glyph-name="nine.tnum" horiz-adv-x="730"/><glyph d="M142 263q45 0 73 -35t28 -91v-13q0 -56 -28 -91t-73 -35q-46 0 -74 35t-28 91v13q0 56 28 91t74 35zM142 238q-32 0 -54.5 -26t-22.5 -75v-13q0 -48 22.5 -74t54.5 -26t54 26t22 74v13q0 49 -22 75t-54 26z" glyph-name="zero.dnom" horiz-adv-x="283"/><glyph d="M95 261v-261h-25v238h-30v23h55z" glyph-name="one.dnom" horiz-adv-x="140"/><glyph d="M121 264q38 0 59 -21.5t21 -52.5q0 -8 -1.5 -15.5t-6 -15.5t-7.5 -13.5t-12 -15.5t-13 -15t-17 -18t-18 -19l-53 -54h132v-24h-163v24l68 71q5 5 14 14.5t12.5 13t10 10.5t8.5 9.5t6.5 8t6 8.5t3.5 7.5t3 8t1.5 8t0.5 9.5q0 25 -15.5 37t-39.5 12q-56 0 -56 -57v-14h-25 v14q0 36 21.5 58t59.5 22z" glyph-name="two.dnom" horiz-adv-x="243"/><glyph d="M123 263q38 0 56.5 -19t18.5 -48q0 -36 -40 -57q51 -15 51 -68q0 -33 -22.5 -54t-61.5 -21q-42 0 -63.5 23.5t-21.5 54.5h24q0 -23 15.5 -39.5t45.5 -16.5q26 0 42.5 13.5t16.5 38.5q0 56 -80 56v21q33 0 51.5 14.5t18.5 37.5q0 41 -51 41q-52 0 -52 -53h-23 q-1 33 17 54.5t58 21.5z" glyph-name="three.dnom" horiz-adv-x="249"/><glyph d="M185 261v-174h27v-23h-27v-64h-25v64h-135l135 197h25zM160 223l-91 -136h91v136z" glyph-name="four.dnom" horiz-adv-x="252"/><glyph d="M195 261v-24h-107l-11 -77q21 21 57 21q37 0 61.5 -25t24.5 -66q0 -42 -25 -68t-68 -26q-35 0 -58 17.5t-29 44.5l22 12q4 -20 21.5 -34.5t43.5 -14.5q30 0 49 18.5t19 50.5q0 31 -18.5 48.5t-46.5 17.5q-36 0 -61 -33l-20 9l18 129h128z" glyph-name="five.dnom" horiz-adv-x="260"/><glyph d="M176 261l-76 -102q6 6 26 6q36 0 60 -25t24 -61q0 -35 -24 -59t-61 -24t-61 24.5t-24 58.5q0 20 8 39.5t14.5 29.5t23.5 34l60 79h30zM124 143q-25 0 -42 -18t-17 -44q0 -27 16.5 -44t42.5 -17t43.5 17t17.5 44q0 26 -17.5 44t-43.5 18z" glyph-name="six.dnom" horiz-adv-x="250"/><glyph d="M195 261l-112 -261h-26l103 238h-120v23h155z" glyph-name="seven.dnom" horiz-adv-x="230"/><glyph d="M124 -4q-37 0 -60.5 22t-23.5 56q0 47 41 70q-26 20 -26 54q0 26 19 45.5t50 19.5t50 -19.5t19 -45.5q0 -34 -26 -54q40 -23 40 -70q0 -34 -23.5 -56t-59.5 -22zM124 154q19 0 31.5 12.5t12.5 31.5q0 18 -12 30t-32 12q-21 0 -33.5 -12t-12.5 -30q0 -19 13 -31.5 t33 -12.5zM124 17q24 0 41.5 16t17.5 40q0 27 -17 43t-42 16t-42.5 -16t-17.5 -43q0 -24 18 -40t42 -16z" glyph-name="eight.dnom" horiz-adv-x="247"/><glyph d="M73 -2l77 102q-8 -6 -26 -6q-36 0 -60 25t-24 61q0 35 23.5 59t60.5 24q38 0 62 -24t24 -59q0 -8 -1 -15.5t-2.5 -13.5t-5 -13.5t-5.5 -12t-7.5 -13t-7.5 -11.5t-8.5 -12.5t-8.5 -11.5l-60 -79h-31zM126 117q25 0 42 17.5t17 43.5q0 27 -16.5 44t-42.5 17t-43.5 -17 t-17.5 -44q0 -26 17.5 -43.5t43.5 -17.5z" glyph-name="nine.dnom" horiz-adv-x="250"/><glyph d="M142 703q45 0 73 -35t28 -91v-13q0 -56 -28 -91t-73 -35q-46 0 -74 35t-28 91v13q0 56 28 91t74 35zM142 678q-32 0 -54.5 -26t-22.5 -75v-13q0 -48 22.5 -74t54.5 -26t54 26t22 74v13q0 49 -22 75t-54 26z" glyph-name="zero.numr" horiz-adv-x="283"/><glyph d="M95 701v-261h-25v238h-30v23h55z" glyph-name="one.numr" horiz-adv-x="140"/><glyph d="M121 704q38 0 59 -21.5t21 -52.5q0 -8 -1.5 -15.5t-6 -15.5t-7.5 -13.5t-12 -15.5t-13 -15t-17 -18t-18 -19l-53 -54h132v-24h-163v24l68 71q5 5 14 14.5t12.5 13t10 10.5t8.5 9.5t6.5 8t6 8.5t3.5 7.5t3 8t1.5 8t0.5 9.5q0 25 -15.5 37t-39.5 12q-56 0 -56 -57v-14h-25 v14q0 36 21.5 58t59.5 22z" glyph-name="two.numr" horiz-adv-x="243"/><glyph d="M123 703q38 0 56.5 -19t18.5 -48q0 -36 -40 -57q51 -15 51 -68q0 -33 -22.5 -54t-61.5 -21q-42 0 -63.5 23.5t-21.5 54.5h24q0 -23 15.5 -39.5t45.5 -16.5q26 0 42.5 13.5t16.5 38.5q0 56 -80 56v21q33 0 51.5 14.5t18.5 37.5q0 41 -51 41q-52 0 -52 -53h-23 q-1 33 17 54.5t58 21.5z" glyph-name="three.numr" horiz-adv-x="249"/><glyph d="M185 701v-174h27v-23h-27v-64h-25v64h-135l135 197h25zM160 663l-91 -136h91v136z" glyph-name="four.numr" horiz-adv-x="252"/><glyph d="M195 701v-24h-107l-11 -77q21 21 57 21q37 0 61.5 -25t24.5 -66q0 -42 -25 -68t-68 -26q-35 0 -58 17.5t-29 44.5l22 12q4 -20 21.5 -34.5t43.5 -14.5q30 0 49 18.5t19 50.5q0 31 -18.5 48.5t-46.5 17.5q-36 0 -61 -33l-20 9l18 129h128z" glyph-name="five.numr" horiz-adv-x="260"/><glyph d="M176 701l-76 -102q6 6 26 6q36 0 60 -25t24 -61q0 -35 -24 -59t-61 -24t-61 24.5t-24 58.5q0 20 8 39.5t14.5 29.5t23.5 34l60 79h30zM124 583q-25 0 -42 -18t-17 -44q0 -27 16.5 -44t42.5 -17t43.5 17t17.5 44q0 26 -17.5 44t-43.5 18z" glyph-name="six.numr" horiz-adv-x="250"/><glyph d="M195 701l-112 -261h-26l103 238h-120v23h155z" glyph-name="seven.numr" horiz-adv-x="230"/><glyph d="M124 436q-37 0 -60.5 22t-23.5 56q0 47 41 70q-26 20 -26 54q0 26 19 45.5t50 19.5t50 -19.5t19 -45.5q0 -34 -26 -54q40 -23 40 -70q0 -34 -23.5 -56t-59.5 -22zM124 594q19 0 31.5 12.5t12.5 31.5q0 18 -12 30t-32 12q-21 0 -33.5 -12t-12.5 -30q0 -19 13 -31.5 t33 -12.5zM124 457q24 0 41.5 16t17.5 40q0 27 -17 43t-42 16t-42.5 -16t-17.5 -43q0 -24 18 -40t42 -16z" glyph-name="eight.numr" horiz-adv-x="247"/><glyph d="M73 438l77 102q-8 -6 -26 -6q-36 0 -60 25t-24 61q0 35 23.5 59t60.5 24q38 0 62 -24t24 -59q0 -8 -1 -15.5t-2.5 -13.5t-5 -13.5t-5.5 -12t-7.5 -13t-7.5 -11.5t-8.5 -12.5t-8.5 -11.5l-60 -79h-31zM126 557q25 0 42 17.5t17 43.5q0 27 -16.5 44t-42.5 17t-43.5 -17 t-17.5 -44q0 -26 17.5 -43.5t43.5 -17.5z" glyph-name="nine.numr" horiz-adv-x="250"/><glyph d="M320 717q-8 0 -9 3.5t2 11.5l51 116q4 12 15 12h15q14 0 7 -16l-51 -115q-5 -12 -16 -12h-14zM610 17q7 -17 -11 -17h-11q-11 0 -15 12l-62 169h-350l-61 -169q-4 -12 -17 -12h-10q-17 0 -10 17l247 671q4 12 18 12h17q13 0 17 -12zM173 214h326l-163 449z" glyph-name="glyph499" horiz-adv-x="622"/><glyph d="M331 860q13 0 7 -16l-52 -115q-4 -12 -15 -12h-14q-8 0 -9 3.5t2 11.5l50 116q5 12 16 12h15zM108 0q-13 0 -13 13v674q0 13 13 13h324q13 0 13 -13v-7q0 -14 -13 -14h-301v-284h286q13 0 13 -13v-7q0 -14 -13 -14h-286v-314h302q14 0 14 -14v-7q0 -13 -14 -13h-325z" glyph-name="glyph500" horiz-adv-x="498"/><glyph d="M331 717q-8 0 -9 3.5t2 11.5l51 116q4 12 15 12h15q14 0 7 -16l-51 -115q-5 -12 -16 -12h-14zM545 700q12 0 12 -13v-674q0 -13 -13 -13h-9q-14 0 -14 13v645l-370 -648q-6 -10 -18 -10h-26q-12 0 -12 13v674q0 13 13 13h10q13 0 13 -13v-645l371 648q6 10 18 10h25z" glyph-name="glyph501" horiz-adv-x="629"/><glyph d="M490 860q13 0 7 -16l-52 -115q-4 -12 -15 -12h-14q-14 0 -7 15l50 116q5 12 16 12h15zM432 -13q-152 0 -254.5 104t-102.5 256q0 153 102.5 257t254.5 104q151 0 253.5 -104t102.5 -257q0 -152 -102.5 -256t-253.5 -104zM432 22q137 0 228.5 93t91.5 232q0 140 -91.5 233 t-228.5 93t-228.5 -93t-91.5 -233q0 -139 91.5 -232t228.5 -93z" glyph-name="glyph502" horiz-adv-x="812"/><glyph d="M316 717q-14 0 -7 15l50 116q5 12 16 12h15q13 0 7 -16l-52 -115q-4 -12 -15 -12h-14zM555 700q19 0 8 -18l-407 -672q-6 -10 -17 -10h-10q-19 0 -9 18l174 286l-231 378q-11 18 8 18h11q10 0 16 -10l215 -353l215 353q6 10 16 10h11z" glyph-name="glyph503" horiz-adv-x="611"/><glyph d="M439 860q14 0 7 -16l-51 -115q-5 -12 -16 -12h-14q-8 0 -9 3.5t2 11.5l51 116q4 12 15 12h15zM108 700h10q13 0 13 -13v-263h157q105 0 163.5 -59t58.5 -153t-58.5 -153t-163.5 -59h-180q-13 0 -13 13v674q0 13 13 13zM602 0q-14 0 -14 13v674q0 13 14 13h9q13 0 13 -13 v-674q0 -13 -13 -13h-9zM131 390v-356h151q87 0 139 43.5t52 134.5t-52 134.5t-139 43.5h-151z" glyph-name="glyph504" horiz-adv-x="763"/><glyph d="M354 717q-14 0 -7 15l50 116q5 12 16 12h15q13 0 7 -16l-52 -115q-4 -12 -15 -12h-14zM317 708q155 0 253 -104t98 -257t-98 -256.5t-253 -103.5q-132 0 -232 84q-15 15 -5 25l6 7q9 9 21 -2q92 -79 207 -79q133 0 223 87.5t95 222.5h-278q-14 0 -14 13v10q0 13 14 13 h277q-7 133 -96.5 219t-220.5 86q-115 0 -207 -79q-13 -10 -23 -1l-4 6q-9 11 5 25q100 84 232 84z" glyph-name="glyph505" horiz-adv-x="678"/><glyph d="M493 717q-8 0 -9 3.5t2 11.5l51 116q4 12 15 12h16q13 0 7 -16l-52 -115q-4 -12 -15 -12h-15zM598 708q151 0 253.5 -104t102.5 -257q0 -152 -102.5 -256t-253.5 -104q-152 0 -254.5 104t-102.5 256q0 153 102.5 257t254.5 104zM131 687v-319h104v-36h-104v-319 q0 -13 -13 -13h-10q-13 0 -13 13v674q0 13 13 13h10q13 0 13 -13zM598 22q137 0 228.5 93t91.5 232q0 140 -91.5 233t-228.5 93t-229 -93t-92 -233q0 -139 92 -232t229 -93z" glyph-name="glyph506" horiz-adv-x="977"/><glyph d="M291 717q-8 0 -9 3.5t2 11.5l51 116q4 12 15 12h16q13 0 7 -16l-52 -115q-4 -12 -15 -12h-15zM459 700q13 0 13 -13v-674q0 -13 -13 -13h-10q-13 0 -13 13v263h-147l-183 -266q-6 -10 -18 -10h-9q-21 0 -10 18l180 259q-92 9 -142 66.5t-50 144.5q0 94 58.5 153t163.5 59 h180zM436 310v356h-151q-87 0 -139 -43.5t-52 -134.5t52 -134.5t139 -43.5h151z" glyph-name="glyph507" horiz-adv-x="538"/><glyph d="M296 507q-14 0 -7 15l50 116q4 12 15 12h16q13 0 7 -16l-52 -115q-4 -12 -15 -12h-14zM535 490q12 0 12 -13v-464q0 -13 -11 -13h-11q-12 0 -12 13l-1 96q-29 -57 -82 -89t-123 -32q-109 0 -178 72.5t-69 184.5q0 111 69 184t178 73q70 0 123 -33.5t82 -91.5l1 100 q0 13 12 13h10zM306 22q92 0 149.5 60.5t57.5 159.5q0 100 -58 163t-149 63q-93 0 -153 -62t-60 -161t59.5 -161t153.5 -62z" glyph-name="glyph508" horiz-adv-x="577"/><glyph d="M299 537q-14 0 -7 15l50 116q5 12 16 12h15q13 0 7 -16l-52 -115q-4 -12 -15 -12h-14zM303 502q103 0 164.5 -68.5t61.5 -162.5q0 -23 -5 -30t-21 -7h-409q5 -91 63 -152t160 -61q90 0 157 56q8 8 14 1l6 -6q7 -9 -4 -20q-69 -64 -175 -64q-116 0 -185.5 75t-69.5 184 t68 182t175 73zM302 467q-88 0 -144.5 -55.5t-62.5 -144.5h402q0 85 -52.5 142.5t-142.5 57.5z" glyph-name="glyph509" horiz-adv-x="563"/><glyph d="M279 507q-14 0 -7 15l50 116q5 12 16 12h15q13 0 7 -16l-52 -115q-4 -12 -15 -12h-14zM469 490q8 -1 8 -13v-464q0 -13 -11 -13h-11q-11 0 -11 13v440l-296 -443q-7 -10 -19 -10h-32q-12 0 -12 13v464q0 13 12 13h10q12 0 12 -13v-450l304 453q5 10 18 10h28z" glyph-name="glyph510" horiz-adv-x="546"/><glyph d="M378 650q13 0 6 -16l-51 -115q-4 -12 -15 -12h-15q-8 0 -9 3.5t2 11.5l51 116q4 12 15 12h16zM308 -12q-106 0 -177 73.5t-71 183.5t71 183.5t177 73.5q105 0 176 -73.5t71 -183.5t-71 -183.5t-176 -73.5zM308 22q92 0 152.5 63t60.5 160t-60.5 160t-152.5 63t-152.5 -63 t-60.5 -160t60.5 -160t152.5 -63z" glyph-name="glyph511" horiz-adv-x="589"/><glyph d="M328 650q13 0 7 -16l-52 -115q-4 -12 -15 -12h-14q-14 0 -7 15l50 116q5 12 16 12h15zM186 -190q-14 0 -9 14l68 173l-187 476q-6 17 10 17h10q10 0 15 -12l171 -443l172 443q5 12 14 12h10q17 0 11 -17l-258 -651q-5 -12 -16 -12h-11z" glyph-name="glyph512" horiz-adv-x="497"/><glyph d="M348 507q-8 0 -9 3.5t2 11.5l51 116q4 12 15 12h16q13 0 7 -16l-52 -115q-4 -12 -15 -12h-15zM323 307q86 0 127.5 -41t41.5 -112q0 -72 -41.5 -113t-127.5 -41h-208v2q-4 -2 -8 -2h-10q-12 0 -12 13v464q0 13 12 13h10q12 0 12 -13v-170h204zM589 490q12 0 12 -13v-464 q0 -13 -12 -13h-10q-12 0 -12 13v464q0 13 12 13h10zM328 34q128 0 128 120q0 119 -128 119h-209v-239h209z" glyph-name="glyph513" horiz-adv-x="696"/><glyph d="M286 507q-14 0 -7 15l50 116q5 12 16 12h15q13 0 7 -16l-52 -115q-4 -12 -15 -12h-14zM247 502q108 0 181.5 -73.5t73.5 -184.5q0 -110 -72.5 -183t-180.5 -73q-116 0 -183 78q-9 13 -3 19l6 5q10 10 23 -3q59 -65 154 -65q91 0 153.5 57t67.5 150h-213q-11 0 -11 13v4 q0 14 11 14h213q-6 93 -68.5 150.5t-152.5 57.5q-93 0 -155 -67q-12 -10 -21 -1l-6 5q-6 6 3 19q67 78 180 78z" glyph-name="glyph514" horiz-adv-x="528"/><glyph d="M367 507q-8 0 -9 3.5t2 11.5l51 116q4 12 15 12h15q14 0 7 -16l-51 -115q-5 -12 -16 -12h-14zM459 502q105 0 176 -73.5t71 -183.5t-71 -183.5t-176 -73.5q-102 0 -172 68.5t-76 172.5h-92v-217q0 -13 -12 -13h-10q-12 0 -12 13v464q0 13 12 13h10q12 0 12 -13v-216h92 q5 104 75.5 173t172.5 69zM459 22q92 0 152.5 63t60.5 160t-60.5 160t-152.5 63t-152.5 -63t-60.5 -160t60.5 -160t152.5 -63z" glyph-name="glyph515" horiz-adv-x="716"/><glyph d="M279 507q-8 0 -9 3.5t2 11.5l51 116q4 12 15 12h16q13 0 7 -16l-52 -115q-4 -12 -15 -12h-15zM452 490q12 0 12 -13v-464q0 -13 -12 -13h-10q-12 0 -12 13v170h-152l-159 -175q-7 -8 -17 -8h-15q-10 0 -11.5 5t5.5 13l153 165h-8q-86 0 -127.5 41t-41.5 112 q0 72 41.5 113t127.5 41h208v-2q4 2 8 2h10zM221 217h209v239h-209q-128 0 -128 -120q0 -119 128 -119z" glyph-name="glyph516" horiz-adv-x="520"/></font>
</defs>
</svg>
