<?xml version="1.0" standalone="no"?>
<!DOCTYPE svg PUBLIC "-//W3C//DTD SVG 1.1//EN" "http://www.w3.org/Graphics/SVG/1.1/DTD/svg11.dtd">
<svg xmlns="http://www.w3.org/2000/svg"><metadata>This SVG WebFont was generated by YouWorkForThem.
Copyright Â© 2018 by Connary Fagen. All rights reserved.</metadata><defs><font horiz-adv-x="580" id="ywftsvg"><font-face ascent="800" bbox="-268 -305.256 1110.04 951" cap-height="700" descent="-200" font-family="" font-stretch="normal" font-weight="700" panose-1="0 0 8 0 0 0 0 0 0 0" underline-position="0" underline-thickness="0" unicode-range="U+0020-FEFF" units-per-em="1000" x-height="490"/><missing-glyph d="M406 800v-990h-314v990h314zM330 734h-164v-33h65v-37h-66v-32h165v32h-66v37h66v33zM264 606h-99v-103h165v34h-66v69zM231 572v-35h-33v35h33zM330 476h-165v-32h66v-37h-66v-33h99v70h66v32zM330 417h-33v-65h-132v-34h165v99zM330 296h-99v-55h33v22h33v-46h-99v79 h-33v-112h165v112zM330 125h-165v-112h165v112zM297 92v-46h-99v46h99zM330 -10h-165v-32h70l-70 -47v-33h165v33h-101l69 47h32v32z" horiz-adv-x="495"/><glyph d="M406 800v-990h-314v990h314zM330 734h-164v-33h65v-37h-66v-32h165v32h-66v37h66v33zM264 606h-99v-103h165v34h-66v69zM231 572v-35h-33v35h33zM330 476h-165v-32h66v-37h-66v-33h99v70h66v32zM330 417h-33v-65h-132v-34h165v99zM330 296h-99v-55h33v22h33v-46h-99v79 h-33v-112h165v112zM330 125h-165v-112h165v112zM297 92v-46h-99v46h99zM330 -10h-165v-32h70l-70 -47v-33h165v33h-101l69 47h32v32z" glyph-name=".notdef" horiz-adv-x="495"/><glyph glyph-name="glyph1" horiz-adv-x="0"/><glyph glyph-name="glyph2" horiz-adv-x="333"/><glyph glyph-name="space" horiz-adv-x="195" unicode=" "/><glyph d="M93 215q-16 0 -13 15l49 455q2 15 17 15h111q15 0 13 -15l-79 -455q-5 -15 -18 -15h-80zM113 -13q-34 0 -58 24t-24 58q0 35 24 59.5t58 24.5t58.5 -24.5t24.5 -59.5q0 -34 -24.5 -58t-58.5 -24z" glyph-name="exclam" horiz-adv-x="276" unicode="!"/><glyph d="M147 700q7 0 11.5 -4t3.5 -11l-11 -195q-2 -15 -15 -15h-70q-13 0 -15 15l-11 195q-1 7 3.5 11t11.5 4h92zM309 700q7 0 11.5 -4t3.5 -11l-12 -195q-2 -15 -15 -15h-69q-13 0 -16 15l-11 195q-1 7 3.5 11t11.5 4h93z" glyph-name="quotedbl" horiz-adv-x="363" unicode="&quot;"/><glyph d="M612 487q16 0 11 -15l-16 -40q-5 -15 -17 -15h-87l-49 -134h84q15 0 10 -15l-15 -40q-5 -15 -16 -15h-89l-74 -201q-4 -12 -20 -12h-41q-16 0 -10 17l72 196h-135l-74 -201q-4 -12 -20 -12h-41q-16 0 -10 17l72 196h-83q-16 0 -11 15l14 40q5 15 17 15h89l50 134h-86 q-15 0 -10 15l15 40q5 15 15 15h92l74 201q5 12 19 12h41q16 0 10 -17l-72 -196h136l74 201q5 12 19 12h41q16 0 10 -17l-72 -196h83zM381 283l50 134h-136l-49 -134h135z" glyph-name="numbersign" horiz-adv-x="645" unicode="#"/><glyph d="M272 493q-26 0 -40 -13t-14 -31q0 -29 42 -45l65 -28q91 -38 91 -122q0 -64 -45 -108t-115 -56l-11 -75q-2 -15 -17 -15h-67q-15 0 -13 15l11 78q-79 17 -120 75q-8 11 5 26l43 52q12 14 26 4q54 -48 104 -48q61 0 61 44q0 32 -44 50l-58 25q-90 38 -90 119 q0 58 40.5 101t102.5 55l13 89q2 15 17 15h67q15 0 13 -15l-12 -90q69 -18 105 -70q8 -11 -4 -22l-53 -52q-11 -11 -23 0q-38 42 -80 42z" glyph-name="dollar" horiz-adv-x="460" unicode="$"/><glyph d="M220 433q-55 0 -90 34.5t-35 88.5q0 62 44.5 105.5t106.5 43.5q55 0 90 -34.5t35 -88.5q0 -62 -44.5 -105.5t-106.5 -43.5zM141 8l-48 35q-11 9 -2 21l505 624q9 12 21 4l47 -35q11 -9 2 -21l-505 -624q-9 -12 -20 -4zM229 522q21 0 35.5 14.5t14.5 36.5q0 19 -12.5 31 t-30.5 12q-21 0 -35 -14.5t-14 -36.5q0 -19 12 -31t30 -12zM511 -5q-55 0 -90 34.5t-35 88.5q0 62 44.5 105.5t106.5 43.5q55 0 90 -34.5t35 -88.5q0 -62 -44.5 -105.5t-106.5 -43.5zM520 84q21 0 35.5 14.5t14.5 36.5q0 19 -12.5 31t-30.5 12q-21 0 -35 -14.5t-14 -36.5 q0 -19 12 -31t30 -12z" glyph-name="percent" horiz-adv-x="728" unicode="%"/><glyph d="M643 352q7 0 8.5 -5t-3.5 -11l-120 -160l80 -98q9 -11 -3 -22l-68 -61q-13 -11 -22 -1l-70 86q-99 -93 -220 -93q-88 0 -144 46t-56 132q0 77 43 127t125 97q-53 71 -53 135q0 76 57.5 128t143.5 52q75 0 122.5 -40.5t47.5 -107.5q0 -59 -37 -101.5t-104 -85.5l87 -107 l62 75q12 15 22 15h102zM329 592q-28 0 -45.5 -18.5t-17.5 -43.5q0 -32 38 -80q79 46 79 92q0 22 -15 36t-39 14zM258 110q56 0 116 57l-112 137q-45 -28 -68.5 -54t-23.5 -61q0 -36 24.5 -57.5t63.5 -21.5z" glyph-name="ampersand" horiz-adv-x="667" unicode="&amp;"/><glyph d="M147 700q7 0 11.5 -4t3.5 -11l-11 -195q-2 -15 -15 -15h-70q-13 0 -15 15l-11 195q-1 7 3.5 11t11.5 4h92z" glyph-name="quotesingle" horiz-adv-x="202" unicode="'"/><glyph d="M354 745q19 0 8 -18q-122 -180 -153 -407q-34 -241 36 -432q5 -18 -14 -18h-106q-12 0 -16 10q-79 188 -43 440q32 237 163 415q7 10 19 10h106z" glyph-name="parenleft" horiz-adv-x="352" unicode="("/><glyph d="M15 -130q-19 0 -8 18q122 180 153 407q34 241 -36 432q-5 18 14 18h106q12 0 16 -10q79 -188 43 -440q-32 -237 -163 -415q-7 -10 -19 -10h-106z" glyph-name="parenright" horiz-adv-x="351" unicode=")"/><glyph d="M263 568l13 132h49l-22 -132h-40zM244 526l-125 34l20 50l124 -42zM310 526l-7 42l133 42l6 -50zM183 391l-36 28l97 107l29 -26zM332 391l-59 109l37 26l66 -107z" glyph-name="asterisk" horiz-adv-x="474" unicode="*"/><glyph d="M418 336q15 0 13 -15l-11 -72q-2 -15 -17 -15h-112l-15 -111q-2 -15 -17 -15h-72q-15 0 -13 15l16 111h-111q-15 0 -13 15l10 72q2 15 17 15h111l16 111q2 15 17 15h71q15 0 13 -15l-15 -111h112z" glyph-name="plus" horiz-adv-x="484" unicode="+"/><glyph d="M-9 -129l6 32q49 0 84 43q24 29 13 39q-3 3 -8 3q-31 0 -51 21t-20 52q0 37 27.5 64.5t66.5 27.5q35 0 59 -24t24 -69q0 -76 -63.5 -134.5t-137.5 -54.5z" glyph-name="comma" horiz-adv-x="259" unicode=","/><glyph d="M377 333q15 0 13 -15l-11 -82q-2 -15 -17 -15h-300q-15 0 -13 15l11 82q2 15 17 15h300z" glyph-name="hyphen" horiz-adv-x="430" unicode="-"/><glyph d="M98 -13q-34 0 -58 24t-24 58q0 35 24 59.5t58 24.5t58.5 -24.5t24.5 -59.5q0 -34 -24.5 -58t-58.5 -24z" glyph-name="period" horiz-adv-x="246" unicode="."/><glyph d="M550 745q19 0 10 -17l-447 -846q-6 -12 -20 -12h-113q-18 0 -9 17l447 846q6 12 19 12h113z" glyph-name="slash" horiz-adv-x="514" unicode="/"/><glyph d="M388 708q106 0 172.5 -70.5t66.5 -210.5q0 -116 -39 -215t-116.5 -162t-178.5 -63q-106 0 -172.5 70.5t-66.5 210.5q0 116 39 215t116.5 162t178.5 63zM373 580q-60 0 -103.5 -46t-62.5 -112t-19 -139q0 -80 29.5 -124t89.5 -44t104 46.5t63 112.5t19 140q0 78 -30 122 t-90 44z" glyph-name="zero" horiz-adv-x="651" unicode="0"/><glyph d="M352 700q15 0 13 -15l-94 -670q-2 -15 -16 -15h-108q-16 0 -14 15l80 568h-115q-16 0 -14 15l13 87q2 15 17 15h238z" glyph-name="one" horiz-adv-x="363" unicode="1"/><glyph d="M450 117q15 0 13 -15l-13 -87q-2 -15 -17 -15h-403q-15 0 -13 15l12 86q2 12 10 19l239 222q26 24 37.5 35t31 34t27.5 44t8 44q0 38 -24 60t-66 22q-39 0 -67 -18t-56 -50q-11 -12 -22 0l-55 60q-9 12 1 22q92 113 226 113q92 0 146.5 -50.5t54.5 -132.5q0 -66 -33 -117 t-91 -105l-196 -186h250z" glyph-name="two" horiz-adv-x="533" unicode="2"/><glyph d="M215 -13q-72 0 -123 29.5t-75 77.5q-6 12 6 21l75 60q12 10 21 -2q39 -59 106 -59q50 0 82.5 31.5t32.5 76.5q0 37 -23 61t-70 24h-25q-16 0 -15 16l12 82q2 14 16 14h27q44 0 71.5 26.5t27.5 64.5q0 32 -22 51.5t-56 19.5q-56 0 -101 -56q-11 -14 -23 -2l-52 58 q-11 13 -1 24q36 46 90 74.5t118 28.5q80 0 132.5 -43.5t52.5 -117.5q0 -58 -32 -105t-88 -71q100 -41 100 -154q0 -98 -77 -164t-187 -66z" glyph-name="three" horiz-adv-x="520" unicode="3"/><glyph d="M532 249q16 0 14 -16l-9 -76q-3 -22 -23 -22h-58l-17 -120q-2 -15 -16 -15h-107q-7 0 -11.5 4t-3.5 11l17 120h-278q-15 0 -13 15l12 89q1 10 8 19l343 432q7 10 21 10h109q15 0 13 -15l-61 -436h60zM175 249h159l34 245z" glyph-name="four" horiz-adv-x="589" unicode="4"/><glyph d="M511 700q15 0 13 -15l-12 -87q-2 -15 -17 -15h-213l-50 -134q42 17 85 17q86 0 138.5 -57t52.5 -148q0 -115 -82 -194.5t-201 -79.5q-74 0 -126.5 31.5t-72.5 74.5q-4 14 10 24l78 54q15 10 24 -4q32 -53 99 -53q57 0 96 38.5t39 94.5q0 47 -28.5 75t-74.5 28 q-53 0 -93 -38q-12 -12 -26 -7l-71 31q-12 5 -8 17l122 334q5 13 18 13h300z" glyph-name="five" horiz-adv-x="544" unicode="5"/><glyph d="M339 467q86 -8 139 -62.5t53 -139.5q0 -113 -85 -195.5t-200 -82.5q-95 0 -156 58.5t-61 149.5q0 111 117 238l264 281q11 12 21 2l66 -63q10 -10 0 -21zM265 114q54 0 92 40t38 95q0 45 -27 73t-71 28q-55 0 -93.5 -40t-38.5 -96q0 -45 27.5 -72.5t72.5 -27.5z" glyph-name="six" horiz-adv-x="565" unicode="6"/><glyph d="M543 700q8 0 10 -5.5t-2 -13.5l-354 -666q-8 -15 -21 -15h-105q-7 0 -10 4.5t1 13.5l308 565h-271q-17 0 -15 15l13 87q2 15 18 15h428z" glyph-name="seven" horiz-adv-x="521" unicode="7"/><glyph d="M261 -13q-94 0 -158.5 52t-64.5 142q0 71 41 128t110 87q-59 43 -59 120q0 79 61.5 135.5t156.5 56.5q81 0 130 -44t49 -111q0 -100 -97 -160q101 -47 101 -163q0 -104 -80 -173.5t-190 -69.5zM319 445q37 0 62 25t25 61q0 30 -19.5 49t-50.5 19q-36 0 -61 -25t-25 -61 q0 -30 19 -49t50 -19zM274 111q50 0 84.5 32t34.5 83q0 44 -27.5 68.5t-69.5 24.5q-50 0 -84.5 -32t-34.5 -83q0 -44 27.5 -68.5t69.5 -24.5z" glyph-name="eight" horiz-adv-x="581" unicode="8"/><glyph d="M348 708q95 0 156 -58.5t61 -148.5q0 -114 -117 -239l-264 -281q-11 -12 -21 -2l-66 63q-10 10 0 21l158 165q-86 8 -139 62.5t-53 139.5q0 113 85 195.5t200 82.5zM297 345q55 0 93.5 40t38.5 96q0 45 -27 72.5t-72 27.5q-55 0 -93 -39.5t-38 -95.5q0 -45 27 -73t71 -28 z" glyph-name="nine" horiz-adv-x="565" unicode="9"/><glyph d="M147 336q-34 0 -58 24t-24 59q0 34 24 58.5t58 24.5t58 -24.5t24 -58.5q0 -35 -24 -59t-58 -24zM98 -12q-34 0 -58 24t-24 58q0 35 24 59.5t58 24.5t58.5 -24.5t24.5 -59.5q0 -34 -24.5 -58t-58.5 -24z" glyph-name="colon" horiz-adv-x="245" unicode=":"/><glyph d="M149 336q-34 0 -58 24t-24 59q0 34 24 58.5t58 24.5t58 -24.5t24 -58.5q0 -35 -24 -59t-58 -24zM-9 -129l6 32q49 0 84 43q24 29 13 39q-3 3 -8 3q-31 0 -51 21t-20 52q0 37 27.5 64.5t66.5 27.5q35 0 59 -24t24 -69q0 -76 -63.5 -134.5t-137.5 -54.5z" glyph-name="semicolon" horiz-adv-x="259" unicode=";"/><glyph d="M407 17l-343 179q-10 5 -8 17l9 72q1 11 14 17l393 179q8 4 13 1.5t4 -10.5l-12 -91q-1 -10 -14 -15l-278 -119l243 -116q13 -6 12 -17l-14 -88q-3 -18 -19 -9z" glyph-name="less" horiz-adv-x="519" unicode="&lt;"/><glyph d="M449 417q15 0 13 -15l-11 -72q-2 -15 -17 -15h-344q-15 0 -13 15l10 72q2 15 17 15h345zM425 255q15 0 13 -15l-10 -72q-2 -15 -17 -15h-344q-15 0 -13 15l10 72q2 15 17 15h344z" glyph-name="equal" horiz-adv-x="504" unicode="="/><glyph d="M113 481l343 -179q10 -5 8 -17l-9 -72q-1 -11 -14 -17l-393 -179q-8 -4 -13 -1.5t-4 10.5l12 91q1 10 15 15l277 119l-243 116q-13 6 -12 17l14 88q3 18 19 9z" glyph-name="greater" horiz-adv-x="519" unicode=">"/><glyph d="M177 216q-15 0 -13 15l2 16q5 43 24 78t42 56.5t45.5 40.5t37.5 41t15 47q0 29 -18 47t-50 18q-60 0 -95 -76q-8 -14 -25 -4l-64 36q-21 12 -14 31q25 66 82 106t136 40q81 0 135 -42t54 -119q0 -42 -17 -77.5t-42.5 -61t-51.5 -48.5t-47 -51t-27 -58l-4 -20 q-3 -15 -17 -15h-88zM207 -13q-34 0 -58.5 24t-24.5 58q0 35 24.5 59.5t58.5 24.5t58 -24.5t24 -59.5q0 -34 -24 -58t-58 -24z" glyph-name="question" horiz-adv-x="465" unicode="?"/><glyph d="M475 708q136 0 225.5 -79.5t89.5 -209.5q0 -104 -52.5 -177.5t-140.5 -73.5q-67 0 -84 45q-50 -45 -119 -45q-68 0 -108.5 43t-40.5 111q0 82 56.5 142t138.5 60q68 0 106 -44l18 23h58l-44 -186q-13 -54 27 -54q36 0 54 42t18 94q0 94 -57.5 149t-152.5 55 q-122 0 -207 -85.5t-85 -204.5q0 -101 62.5 -161t159.5 -60q72 0 132 34l52 -75q-26 -25 -79.5 -44.5t-117.5 -19.5q-135 0 -229 86.5t-94 229.5q0 168 122 286.5t292 118.5zM412 263q40 0 67 27.5t27 67.5q0 32 -19.5 51.5t-52.5 19.5q-38 0 -65 -27t-27 -67 q0 -33 18.5 -52.5t51.5 -19.5z" glyph-name="at" horiz-adv-x="819" unicode="@"/><glyph d="M630 17q3 -17 -14 -17h-119q-12 0 -15 12l-19 103h-264l-48 -103q-4 -12 -19 -12h-119q-19 0 -10 17l329 671q6 12 20 12h121q15 0 18 -12zM258 242h181l-52 278z" glyph-name="A" horiz-adv-x="697" unicode="A"/><glyph d="M50 0q-15 0 -13 15l94 670q2 15 17 15h225q89 0 134 -43.5t45 -112.5q0 -61 -33.5 -104t-82.5 -64q51 -14 83 -55t32 -106q0 -102 -78 -158.5t-206 -56.5h-217zM235 423h79q45 0 72 22t27 64q0 65 -78 65h-78zM194 126h89q57 0 91 26.5t34 74.5q0 83 -99 83h-90z" glyph-name="B" horiz-adv-x="592" unicode="B"/><glyph d="M377 -13q-139 0 -227.5 88t-88.5 227q0 164 120 285t288 121q149 0 234 -101q8 -9 -4 -21l-75 -75q-12 -11 -22 -1q-60 58 -146 58q-104 0 -176 -72t-72 -175q0 -87 52 -140.5t137 -53.5q84 0 160 58q13 10 21 -1l60 -74q8 -11 -3 -21q-115 -102 -258 -102z" glyph-name="C" horiz-adv-x="706" unicode="C"/><glyph d="M50 0q-15 0 -13 15l94 670q2 15 17 15h206q152 0 231 -83.5t79 -220.5q0 -173 -114 -284.5t-294 -111.5h-206zM196 127h75q119 0 183.5 70t64.5 185q0 191 -184 191h-76z" glyph-name="D" horiz-adv-x="691" unicode="D"/><glyph d="M50 0q-15 0 -13 15l94 670q2 15 17 15h356q15 0 13 -15l-13 -97q-2 -15 -17 -15h-228l-22 -155h214q16 0 14 -15l-14 -97q-2 -15 -17 -15h-215l-23 -164h228q15 0 13 -15l-14 -97q-2 -15 -17 -15h-356z" glyph-name="E" horiz-adv-x="515" unicode="E"/><glyph d="M50 0q-15 0 -13 15l94 670q2 15 17 15h351q16 0 14 -15l-14 -97q-2 -15 -17 -15h-223l-21 -150h210q15 0 13 -15l-14 -97q-2 -15 -18 -15h-210l-39 -281q-2 -15 -17 -15h-113z" glyph-name="F" horiz-adv-x="505" unicode="F"/><glyph d="M743 398q15 0 13 -15l-10 -65q-19 -141 -120 -236t-249 -95q-139 0 -227.5 88t-88.5 227q0 164 120 285t288 121q149 0 234 -101q8 -9 -4 -21l-75 -75q-12 -11 -22 -1q-60 58 -146 58q-104 0 -176 -72t-72 -175q0 -87 52 -140.5t137 -53.5q83 0 138 41t68 103h-180 q-15 0 -13 15l13 97q2 15 17 15h303z" glyph-name="G" horiz-adv-x="776" unicode="G"/><glyph d="M661 700q15 0 13 -15l-94 -670q-2 -15 -17 -15h-113q-15 0 -13 15l37 266h-257l-37 -266q-2 -15 -17 -15h-113q-15 0 -13 15l94 670q2 15 17 15h113q15 0 13 -15l-39 -278h257l39 278q2 15 17 15h113z" glyph-name="H" horiz-adv-x="681" unicode="H"/><glyph d="M50 0q-15 0 -13 15l94 670q2 15 17 15h113q15 0 13 -15l-94 -670q-2 -15 -17 -15h-113z" glyph-name="I" horiz-adv-x="282" unicode="I"/><glyph d="M200 -12q-62 0 -107 21.5t-68 53.5q-8 14 2 26l64 78q11 13 21 1q43 -40 95 -40q107 0 125 133l59 425q2 15 17 15h113q16 0 14 -15l-61 -438q-18 -127 -91.5 -193.5t-182.5 -66.5z" glyph-name="J" horiz-adv-x="543" unicode="J"/><glyph d="M664 700q9 0 10 -5.5t-6 -12.5l-272 -295l207 -369q5 -8 2 -13t-11 -5h-131q-11 0 -16 9l-153 269l-91 -99l-23 -164q-2 -15 -17 -15h-113q-15 0 -13 15l94 670q2 15 17 15h113q15 0 13 -15l-42 -301l275 308q8 8 18 8h139z" glyph-name="K" horiz-adv-x="664" unicode="K"/><glyph d="M409 127q15 0 13 -15l-13 -97q-2 -15 -17 -15h-342q-15 0 -13 15l94 670q2 15 17 15h113q15 0 13 -15l-78 -558h213z" glyph-name="L" horiz-adv-x="480" unicode="L"/><glyph d="M861 700q15 0 13 -15l-94 -670q-2 -15 -17 -15h-113q-15 0 -13 15l59 419l-20 -45l-197 -377q-6 -12 -19 -12h-101q-14 0 -17 12l-97 377l-7 45l-58 -419q-2 -15 -17 -15h-113q-15 0 -13 15l94 670q2 15 17 15h130q13 0 17 -15l132 -520l283 525q6 10 18 10h133z" glyph-name="M" horiz-adv-x="881" unicode="M"/><glyph d="M677 700q15 0 13 -15l-94 -670q-2 -15 -17 -15h-134q-13 0 -17 10l-183 470l-65 -465q-2 -15 -17 -15h-113q-15 0 -13 15l94 670q2 15 17 15h132q13 0 17 -10l184 -473l66 468q2 15 17 15h113z" glyph-name="N" horiz-adv-x="697" unicode="N"/><glyph d="M376 -13q-138 0 -227 88t-89 223q0 166 122.5 288t290.5 122q138 0 226.5 -88t88.5 -223q0 -166 -122 -288t-290 -122zM395 127q103 0 175 73.5t72 178.5q0 85 -52 137t-135 52q-103 0 -175.5 -73t-72.5 -177q0 -85 52 -138t136 -53z" glyph-name="O" horiz-adv-x="820" unicode="O"/><glyph d="M50 0q-15 0 -13 15l94 670q2 15 17 15h211q108 0 162.5 -51.5t54.5 -144.5q0 -116 -76.5 -187.5t-204.5 -71.5h-83l-32 -230q-2 -15 -17 -15h-113zM231 372h78q62 0 95.5 30.5t33.5 83.5q0 87 -101 87h-78z" glyph-name="P" horiz-adv-x="581" unicode="P"/><glyph d="M694 140l49 -56q9 -10 -3 -21l-87 -76q-12 -10 -21 0l-49 57q-97 -57 -207 -57q-138 0 -227 88t-89 223q0 166 122.5 288t290.5 122q138 0 226.5 -88t88.5 -223q0 -144 -94 -257zM395 127q54 0 99 21l-67 77q-11 14 2 25l85 74q13 11 23 -2l67 -78q38 62 38 135 q0 85 -52 137t-135 52q-103 0 -175.5 -73t-72.5 -177q0 -85 52 -138t136 -53z" glyph-name="Q" horiz-adv-x="820" unicode="Q"/><glyph d="M404 261l123 -243q4 -8 0.5 -13t-12.5 -5h-120q-13 0 -17 10l-115 235h-51l-32 -230q-2 -15 -17 -15h-113q-15 0 -13 15l94 670q2 15 17 15h211q108 0 162.5 -51.5t54.5 -144.5q0 -88 -45.5 -152t-126.5 -91zM259 573l-28 -201h78q62 0 95.5 30.5t33.5 83.5q0 87 -101 87 h-78z" glyph-name="R" horiz-adv-x="601" unicode="R"/><glyph d="M252 -12q-78 0 -137.5 31.5t-86.5 77.5q-6 11 4 21l70 69q11 11 23 1q58 -69 135 -69q47 0 75.5 21.5t28.5 60.5q0 31 -16.5 46.5t-55.5 35.5l-70 36q-124 64 -124 174q0 94 68 154.5t172 60.5q125 0 197 -92q10 -12 -3 -25l-66 -68q-12 -12 -23 -3q-57 57 -118 57 q-41 0 -64.5 -19.5t-23.5 -51.5q0 -25 17 -41.5t62 -38.5l58 -30q41 -21 65 -39t45 -54.5t21 -85.5q0 -102 -71.5 -165.5t-181.5 -63.5z" glyph-name="S" horiz-adv-x="556" unicode="S"/><glyph d="M182 0q-15 0 -13 15l78 558h-136q-15 0 -13 15l13 97q2 15 17 15h416q15 0 13 -15l-13 -97q-2 -15 -17 -15h-137l-78 -558q-2 -15 -17 -15h-113z" glyph-name="T" horiz-adv-x="545" unicode="T"/><glyph d="M296 -13q-121 0 -184.5 72.5t-43.5 206.5l58 419q2 15 17 15h113q15 0 13 -15l-58 -416q-10 -68 17 -105t85 -37q57 0 93.5 36.5t46.5 105.5l59 416q2 15 17 15h113q15 0 13 -15l-59 -419q-19 -135 -100 -207t-200 -72z" glyph-name="U" horiz-adv-x="657" unicode="U"/><glyph d="M254 0q-15 0 -18 12l-139 671q-3 17 14 17h118q12 0 15 -12l96 -508l235 508q5 12 19 12h120q18 0 10 -17l-329 -671q-6 -12 -20 -12h-121z" glyph-name="V" horiz-adv-x="698" unicode="V"/><glyph d="M1098 700q17 0 10 -17l-294 -671q-4 -12 -20 -12h-120q-16 0 -18 12l-78 507l-218 -507q-4 -12 -20 -12h-120q-16 0 -18 12l-105 671q-3 17 14 17h117q14 0 15 -12l68 -492l219 492q5 12 19 12h110q17 0 17 -12l81 -489l205 489q5 12 19 12h117z" glyph-name="W" horiz-adv-x="1081" unicode="W"/><glyph d="M648 700q8 0 10 -5.5t-3 -12.5l-239 -324l155 -340q8 -18 -12 -18h-121q-13 0 -17 10l-98 222l-158 -222q-7 -10 -19 -10h-125q-8 0 -10 5.5t3 12.5l251 341l-148 323q-8 18 13 18h119q14 0 17 -10l91 -205l147 205q6 10 19 10h125z" glyph-name="X" horiz-adv-x="650" unicode="X"/><glyph d="M644 700q20 0 7 -18l-254 -360l-43 -307q-2 -15 -17 -15h-113q-15 0 -13 15l43 308l-156 359q-8 18 13 18h118q14 0 17 -10l95 -235l163 235q7 10 19 10h121z" glyph-name="Y" horiz-adv-x="627" unicode="Y"/><glyph d="M25 0q-15 0 -13 15l15 102q1 10 8 18l358 438h-277q-15 0 -13 15l13 97q2 15 17 15h411q15 0 13 -15l-14 -102q-1 -9 -9 -18l-357 -438h297q15 0 13 -15l-14 -97q-2 -15 -17 -15h-431z" glyph-name="Z" horiz-adv-x="555" unicode="Z"/><glyph d="M332 745q15 0 13 -15l-11 -82q-2 -15 -17 -15h-64l-92 -651h65q15 0 13 -15l-13 -82q-2 -15 -17 -15h-192q-15 0 -13 15l119 845q2 15 17 15h192z" glyph-name="bracketleft" horiz-adv-x="332" unicode="["/><glyph d="M104 745h113q14 0 17 -12l209 -846q5 -17 -15 -17h-113q-13 0 -16 12l-209 846q-5 17 14 17z" glyph-name="backslash" horiz-adv-x="515" unicode="\"/><glyph d="M18 -130q-15 0 -13 15l11 82q2 15 17 15h65l91 651h-64q-14 0 -14 15l13 82q2 15 17 15h192q15 0 13 -15l-119 -845q-2 -15 -17 -15h-192z" glyph-name="bracketright" horiz-adv-x="333" unicode="]"/><glyph d="M72 321l226 368q8 11 19 11h76q12 0 15 -11l126 -368q5 -18 -12 -18h-90q-10 0 -13 11l-78 253l-153 -253q-6 -11 -17 -11h-90q-8 0 -11 5.5t2 12.5z" glyph-name="asciicircum" horiz-adv-x="585" unicode="^"/><glyph d="M501 0q14 0 12 -15l-12 -82q-2 -15 -17 -15h-469q-16 0 -14 15l12 82q2 15 18 15h470z" glyph-name="underscore" horiz-adv-x="600" unicode="_"/><glyph d="M92 700h96q10 0 18 -12l59 -114q9 -17 -12 -17h-97q-10 0 -17 12l-59 114q-9 17 12 17z" glyph-name="grave" horiz-adv-x="237" unicode="`"/><glyph d="M575 490q16 0 13 -15l-64 -460q-3 -15 -18 -15h-97q-16 0 -13 15l4 52q-64 -79 -169 -79q-94 0 -146.5 59.5t-52.5 157.5q0 121 75.5 209t191.5 88q108 0 151 -82l10 55q3 15 17 15h98zM277 114q56 0 95.5 36t46.5 95q8 59 -22 95t-85 36q-64 0 -104 -44t-40 -106 q0 -52 29.5 -82t79.5 -30z" glyph-name="a" horiz-adv-x="616" unicode="a"/><glyph d="M386 502q93 0 146 -60t53 -160q0 -122 -75 -208t-190 -86q-102 0 -147 76l-7 -49q-3 -15 -17 -15h-109q-16 0 -13 15l96 685q2 15 17 15h109q15 0 13 -15l-38 -269q63 71 162 71zM306 114q64 0 103.5 43.5t39.5 105.5q0 52 -29.5 82.5t-79.5 30.5q-52 0 -91 -33.5 t-49 -88.5l-3 -16q-5 -56 25 -90t84 -34z" glyph-name="b" horiz-adv-x="618" unicode="b"/><glyph d="M260 -12q-102 0 -164.5 63.5t-62.5 163.5q0 118 83 202.5t202 84.5q123 0 183 -87q8 -11 -3 -21l-67 -60q-15 -14 -27 0q-39 41 -94 41q-61 0 -102 -43t-41 -103q0 -51 31.5 -82.5t85.5 -31.5q55 0 101 41q14 12 26 -1l47 -57q10 -12 -1 -23q-80 -87 -197 -87z" glyph-name="c" horiz-adv-x="520" unicode="c"/><glyph d="M607 715q15 0 13 -15l-96 -685q-3 -15 -18 -15h-97q-16 0 -13 15l4 52q-64 -79 -169 -79q-94 0 -146.5 59.5t-52.5 157.5q0 121 75.5 209t191.5 88q105 0 148 -77l34 275q2 15 17 15h109zM277 114q56 0 95.5 36t46.5 95q8 59 -22 95t-85 36q-64 0 -104 -44t-40 -106 q0 -52 29.5 -82t79.5 -30z" glyph-name="d" horiz-adv-x="616" unicode="d"/><glyph d="M319 502q107 0 161.5 -68.5t40.5 -166.5q-11 -74 -60 -74h-297q11 -94 125 -94q53 0 109 28q14 7 23 -8l26 -43q10 -16 -4 -26q-70 -62 -176 -62t-170.5 62t-64.5 163q0 118 83.5 203.5t203.5 85.5zM303 388q-46 0 -79.5 -25t-48.5 -73h226q1 48 -25 73t-73 25z" glyph-name="e" horiz-adv-x="552" unicode="e"/><glyph d="M409 717q11 -5 9 -17l-12 -90q-1 -9 -14 -7q-27 5 -40 5q-34 0 -49 -15.5t-19 -45.5l-8 -57h97q15 0 13 -15l-11 -77q-2 -15 -17 -15h-97l-52 -368q-2 -15 -17 -15h-109q-15 0 -13 15l51 368h-57q-15 0 -13 15l10 77q2 15 17 15h58l11 76q23 165 191 165q40 0 71 -14z " glyph-name="f" horiz-adv-x="384" unicode="f"/><glyph d="M568 490q15 0 13 -15l-63 -448q-9 -63 -38 -110t-71 -72.5t-86.5 -37.5t-92.5 -12q-116 0 -184 55q-15 12 -4 30l36 55q12 17 26 8q60 -36 126 -36q59 0 104 29t53 92l7 52q-60 -70 -162 -70q-92 0 -145.5 56t-53.5 151q0 119 76.5 202t190.5 83q102 0 144 -71l8 44 q3 15 18 15h98zM276 134q54 0 92.5 33t45.5 89t-22 89t-83 33q-61 0 -100.5 -41.5t-39.5 -99.5q0 -48 29 -75.5t78 -27.5z" glyph-name="g" horiz-adv-x="608" unicode="g"/><glyph d="M379 502q79 0 121.5 -54t29.5 -148l-40 -285q-2 -15 -18 -15h-107q-15 0 -13 15l35 254q7 51 -14 78.5t-65 27.5q-43 0 -71 -27.5t-35 -78.5l-36 -254q-2 -15 -17 -15h-108q-15 0 -13 15l95 685q2 15 17 15h108q15 0 13 -15l-39 -283q61 85 157 85z" glyph-name="h" horiz-adv-x="581" unicode="h"/><glyph d="M189 577q-33 0 -55 22.5t-22 54.5t22 54t55 22q32 0 53.5 -22t21.5 -54t-21.5 -54.5t-53.5 -22.5zM44 0q-17 0 -14 15l64 460q3 15 18 15h108q16 0 13 -15l-64 -460q-3 -15 -17 -15h-108z" glyph-name="i" horiz-adv-x="262" unicode="i"/><glyph d="M194 577q-33 0 -55 22.5t-22 54.5t22 54t55 22q31 0 53 -22t22 -54t-22 -54.5t-53 -22.5zM-23 -200q-44 0 -73 15q-9 4 -7 15l13 91q1 9 14 7q23 -5 40 -5q60 0 67 61l69 491q2 15 17 15h109q15 0 13 -15l-72 -510q-23 -165 -190 -165z" glyph-name="j" horiz-adv-x="267" unicode="j"/><glyph d="M534 490q10 0 12 -5.5t-6 -12.5l-193 -190l155 -264q4 -8 1 -13t-12 -5h-116q-12 0 -17 9l-107 179l-71 -70l-14 -103q-2 -15 -17 -15h-109q-15 0 -13 15l96 685q2 15 17 15h109q15 0 13 -15l-57 -408l187 190q8 8 19 8h123z" glyph-name="k" horiz-adv-x="562" unicode="k"/><glyph d="M40 0q-16 0 -13 15l96 685q2 15 17 15h109q15 0 13 -15l-96 -685q-3 -15 -17 -15h-109z" glyph-name="l" horiz-adv-x="258" unicode="l"/><glyph d="M658 502q80 0 118 -52.5t25 -147.5l-40 -287q-2 -15 -17 -15h-108q-15 0 -13 15l36 255q15 105 -66 105q-80 0 -94 -105l-36 -255q-2 -15 -17 -15h-108q-15 0 -13 15l36 255q15 105 -66 105q-80 0 -94 -105l-36 -255q-2 -15 -17 -15h-108q-15 0 -13 15l64 460q2 15 17 15 h104q15 0 13 -15l-4 -50q56 77 145 77q99 0 130 -85q59 85 162 85z" glyph-name="m" horiz-adv-x="852" unicode="m"/><glyph d="M378 502q79 0 121.5 -54t29.5 -148l-40 -285q-2 -15 -18 -15h-107q-15 0 -13 15l35 254q7 51 -14 78.5t-65 27.5q-43 0 -71 -27.5t-35 -78.5l-36 -254q-2 -15 -17 -15h-108q-15 0 -13 15l64 460q2 15 17 15h104q15 0 13 -15l-4 -58q59 85 157 85z" glyph-name="n" unicode="n"/><glyph d="M258 -12q-101 0 -163.5 62t-62.5 160q0 118 86.5 205t207.5 87q100 0 162.5 -62t62.5 -160q0 -118 -86.5 -205t-206.5 -87zM275 115q58 0 100 41t42 106q0 52 -30 82.5t-79 30.5q-58 0 -100 -41t-42 -105q0 -53 30 -83.5t79 -30.5z" glyph-name="o" horiz-adv-x="583" unicode="o"/><glyph d="M384 502q92 0 145.5 -60t53.5 -160q0 -122 -75 -208t-190 -86q-101 0 -146 73l-33 -236q-2 -15 -17 -15h-109q-15 0 -13 15l91 650q2 15 17 15h99q15 0 13 -15l-5 -53q64 80 169 80zM304 114q64 0 103.5 43.5t39.5 105.5q0 52 -29.5 82.5t-79.5 30.5q-54 0 -94 -36 t-48 -95q-7 -59 22.5 -95t85.5 -36z" glyph-name="p" horiz-adv-x="616" unicode="p"/><glyph d="M575 490q16 0 13 -15l-64 -460l-26 -190q-2 -15 -17 -15h-109q-15 0 -13 15l33 232q-64 -69 -161 -69q-94 0 -146.5 59.5t-52.5 157.5q0 121 75.5 209t191.5 88q108 0 151 -82l10 55q3 15 17 15h98zM277 114q56 0 95.5 36t46.5 95q8 59 -22 95t-85 36q-64 0 -104 -44 t-40 -106q0 -52 29.5 -82t79.5 -30z" glyph-name="q" horiz-adv-x="617" unicode="q"/><glyph d="M382 490q8 -7 7 -20l-12 -86q-3 -18 -24 -12q-15 5 -38 5q-99 0 -115 -116l-34 -246q-2 -15 -17 -15h-109q-15 0 -13 15l64 460q2 15 17 15h104q15 0 13 -15l-5 -65q42 92 117 92q31 0 45 -12z" glyph-name="r" horiz-adv-x="387" unicode="r"/><glyph d="M195 -12q-58 0 -104.5 22.5t-71.5 58.5q-7 10 5 27l43 51q13 14 27 4q54 -48 104 -48q61 0 61 44q0 32 -44 50l-58 25q-90 38 -90 119q0 69 55.5 115t132.5 46q105 0 158 -75q7 -11 -4 -22l-53 -53q-11 -11 -23 0q-38 42 -80 42q-26 0 -40 -13t-14 -31q0 -28 42 -45 l64 -27q92 -39 92 -122q0 -74 -58.5 -121t-143.5 -47z" glyph-name="s" horiz-adv-x="450" unicode="s"/><glyph d="M356 490q15 0 13 -15l-12 -77q-2 -15 -17 -15h-75l-34 -237q-6 -43 37 -43q19 0 31 1q8 1 12.5 -3t3.5 -11l-10 -73q-4 -29 -87 -29q-65 0 -101.5 34t-26.5 109l36 252h-62q-15 0 -13 15l10 77q2 15 17 15h63l16 115q2 15 17 15h109q15 0 13 -15l-16 -115h76z" glyph-name="t" horiz-adv-x="366" unicode="t"/><glyph d="M540 490q15 0 13 -15l-64 -460q-2 -15 -17 -15h-104q-15 0 -13 15l4 58q-59 -85 -157 -85q-79 0 -121.5 54t-29.5 148l40 285q2 15 18 15h107q15 0 13 -15l-35 -254q-7 -51 14 -78.5t65 -27.5q43 0 71 27.5t35 78.5l36 254q2 15 17 15h108z" glyph-name="u" unicode="u"/><glyph d="M198 0q-14 0 -17 12l-118 461q-5 17 14 17h110q14 0 17 -12l69 -319l161 319q6 12 19 12h111q19 0 10 -17l-246 -461q-6 -12 -19 -12h-111z" glyph-name="v" horiz-adv-x="572" unicode="v"/><glyph d="M168 0q-14 0 -17 12l-89 461q-3 17 14 17h105q15 0 17 -12l53 -318l150 318q6 12 19 12h107q14 0 17 -12l61 -318l142 318q6 12 19 12h106q18 0 10 -17l-216 -461q-6 -12 -19 -12h-113q-14 0 -17 12l-64 318l-153 -318q-6 -12 -19 -12h-113z" glyph-name="w" horiz-adv-x="881" unicode="w"/><glyph d="M8 0q-9 0 -11 5t3 13l180 233l-110 221q-4 8 -0.5 13t12.5 5h118q13 0 17 -10l60 -132l97 132q7 10 19 10h118q9 0 11.5 -5t-3.5 -13l-173 -221l115 -233q4 -8 0.5 -13t-12.5 -5h-118q-13 0 -17 10l-65 144l-103 -144q-7 -10 -19 -10h-119z" glyph-name="x" horiz-adv-x="526" unicode="x"/><glyph d="M100 -190q-19 0 -10 17l94 173l-121 473q-5 17 14 17h110q14 0 17 -12l69 -319l164 319q6 12 19 12h110q19 0 10 -17l-351 -651q-6 -12 -20 -12h-105z" glyph-name="y" horiz-adv-x="574" unicode="y"/><glyph d="M20 0q-15 0 -13 15l12 86q2 12 10 19l266 258h-219q-15 0 -13 15l11 82q2 15 17 15h357q15 0 13 -15l-11 -86q-2 -12 -10 -19l-266 -258h223q15 0 13 -15l-12 -82q-2 -15 -17 -15h-361z" glyph-name="z" horiz-adv-x="470" unicode="z"/><glyph d="M365 745q15 0 13 -15l-11 -82q-2 -15 -17 -15h-20q-35 0 -40 -32l-30 -217q-1 -9 -9 -18l-43 -49q-9 -11 -3 -21l29 -48q5 -8 4 -18l-31 -216q-2 -15 6.5 -23.5t24.5 -8.5h20q15 0 13 -15l-12 -82q-2 -15 -17 -15h-99q-40 0 -66 23.5t-19 76.5l36 255q2 12 -2 19l-26 52 q-5 11 2 20l42 54q5 7 7 19l36 256q7 53 40.5 76.5t72.5 23.5h99z" glyph-name="braceleft" horiz-adv-x="365" unicode="{"/><glyph d="M145 785q2 15 17 15h113q15 0 13 -15l-135 -960q-2 -15 -17 -15h-113q-15 0 -13 15z" glyph-name="bar" horiz-adv-x="282" unicode="|"/><glyph d="M18 -130q-15 0 -13 15l11 82q2 15 17 15h20q35 0 40 32l30 217q1 9 9 18l43 49q9 10 3 21l-29 48q-5 8 -4 18l30 216q2 15 -6.5 23.5t-24.5 8.5h-19q-14 0 -14 15l13 82q2 15 17 15h99q40 0 66 -23.5t19 -76.5l-36 -255q-2 -12 2 -19l26 -52q5 -11 -2 -20l-42 -54 q-5 -8 -7 -19l-36 -256q-7 -53 -40.5 -76.5t-72.5 -23.5h-99z" glyph-name="braceright" horiz-adv-x="365" unicode="}"/><glyph d="M191 367q38 0 68.5 -19.5t55 -38.5t48.5 -19q36 0 55 30q4 9 13 9h33q11 0 9 -10q-8 -57 -44 -86t-85 -29q-38 0 -69 19.5t-55.5 38.5t-47.5 19q-37 0 -54 -31q-6 -9 -13 -9h-34q-12 0 -10 11q8 55 44.5 85t85.5 30z" glyph-name="asciitilde" horiz-adv-x="523" unicode="~"/><glyph glyph-name="uni00A0" horiz-adv-x="195" unicode=" "/><glyph d="M167 533q34 0 58 -24t24 -58q0 -35 -24 -59.5t-58 -24.5t-58 24.5t-24 59.5q0 34 24 58t58 24zM187 305q16 0 13 -15l-48 -455q-2 -15 -17 -15h-111q-15 0 -13 15l79 455q3 15 17 15h80z" glyph-name="exclamdown" horiz-adv-x="276" unicode="¡"/><glyph d="M474 502q6 -11 -3 -19l-62 -53q-14 -12 -24 0q-26 28 -65 35l-32 -231q43 4 80 37q12 11 24 -1l43 -50q9 -11 -1 -21q-72 -72 -162 -77l-15 -107q-2 -15 -17 -15h-22q-15 0 -13 15l15 108q-79 11 -125.5 66t-46.5 135q0 98 68 171.5t168 82.5l15 107q2 15 17 15h22 q15 0 13 -15l-15 -108q90 -9 138 -75zM170 336q0 -35 17.5 -60.5t49.5 -35.5l31 222q-44 -10 -71 -45.5t-27 -80.5z" glyph-name="cent" horiz-adv-x="479" unicode="¢"/><glyph d="M552 596q8 -13 -6 -24l-69 -59q-14 -12 -22 0q-40 68 -107 68q-49 0 -80 -30.5t-31 -77.5q0 -19 5 -36.5t15.5 -41t14.5 -34.5h138q15 0 13 -15l-8 -61q-2 -15 -17 -15h-114q-10 -89 -94 -153h272q15 0 13 -15l-12 -87q-2 -15 -17 -15h-417q-16 0 -13 15l14 102 q53 25 88 64.5t36 88.5h-90q-16 0 -14 15l9 61q2 16 17 16h55q-28 75 -28 119q0 98 72 162.5t178 64.5q138 0 199 -112z" glyph-name="sterling" horiz-adv-x="550" unicode="£"/><glyph d="M542 585q15 -36 15 -80q0 -75 -45 -139l40 -48l-82 -71l-38 44q-62 -39 -132 -39q-67 0 -119 38l-49 -43l-62 71l52 46q-17 39 -17 83q0 76 48 142l-38 45l82 71l37 -42q63 37 130 37q70 0 120 -39l51 44l62 -71zM199 460q0 -46 29.5 -81t87.5 -35q66 0 106.5 46 t40.5 102q0 46 -28.5 81t-86.5 35q-67 0 -108 -46t-41 -102z" glyph-name="currency" horiz-adv-x="602" unicode="¤"/><glyph d="M644 700q20 0 7 -18l-251 -357h78q15 0 13 -15l-9 -62q-2 -15 -17 -15h-80l-5 -31h81q15 0 13 -15l-9 -61q-2 -15 -18 -15h-79l-14 -96q-2 -15 -17 -15h-113q-15 0 -13 15l13 96h-80q-15 0 -13 15l9 61q2 15 17 15h80l4 31h-80q-15 0 -13 15l10 62q2 15 17 15h78 l-155 357q-8 18 13 18h118q14 0 17 -10l95 -235l163 235q7 10 19 10h121z" glyph-name="yen" horiz-adv-x="627" unicode="¥"/><glyph d="M275 800q15 0 13 -15l-39 -280q-2 -15 -18 -15h-113q-14 0 -12 15l39 280q2 15 17 15h113zM179 120q15 0 13 -15l-39 -280q-2 -15 -17 -15h-113q-15 0 -13 15l39 280q2 15 17 15h113z" glyph-name="brokenbar" horiz-adv-x="282" unicode="¦"/><glyph d="M297 601q-24 0 -39 -10.5t-15 -29.5q0 -27 42 -44l65 -27q44 -19 68.5 -45.5t24.5 -74.5q0 -81 -66 -128q27 -32 27 -78q0 -75 -56.5 -122.5t-141.5 -47.5q-59 0 -107.5 22.5t-73.5 57.5q-8 11 3 23l47 57q9 12 23 1q62 -46 110 -46q28 0 44.5 12t16.5 32q0 15 -11 24 t-38 21l-47 20q-100 42 -100 122q0 78 70 128q-32 37 -32 86q0 69 53.5 112.5t132.5 43.5q51 0 94.5 -19.5t68.5 -54.5q7 -10 -4 -21l-51 -53q-11 -11 -23 0q-43 39 -85 39zM204 355q0 -24 41 -42q28 1 45 13t17 32q0 21 -29 36q-12 2 -20 2q-23 0 -38.5 -11t-15.5 -30z" glyph-name="section" horiz-adv-x="470" unicode="§"/><glyph d="M131 566q-27 0 -44 17t-17 45q0 31 23.5 54t55.5 23q27 0 44 -17t17 -44q0 -32 -23.5 -55t-55.5 -23zM351 566q-27 0 -44 17t-17 45q0 31 23.5 54t55.5 23q27 0 44 -17t17 -44q0 -32 -23.5 -55t-55.5 -23z" glyph-name="dieresis" horiz-adv-x="389" unicode="¨"/><glyph d="M321 136q-109 0 -179.5 70.5t-70.5 177.5q0 129 97.5 226.5t228.5 97.5q109 0 179.5 -70.5t70.5 -178.5q0 -127 -98.5 -225t-227.5 -98zM333 216q93 0 162 70.5t69 163.5q0 77 -50.5 127.5t-128.5 50.5q-94 0 -162 -70t-68 -164q0 -78 50.5 -128t127.5 -50zM348 280 q-55 0 -90 35.5t-35 90.5q0 67 48.5 112.5t113.5 45.5q69 0 99 -48q5 -6 -1 -12l-39 -32q-8 -6 -13 0q-22 22 -51 22q-36 0 -59 -24.5t-23 -57.5q0 -28 16.5 -45t45.5 -17q30 0 57 22q7 6 13 0l29 -32q5 -5 -1 -12q-45 -48 -110 -48z" glyph-name="copyright" horiz-adv-x="670" unicode="©"/><glyph d="M377 700h86l-51 -359h-86l-2 39q-54 -39 -112 -39q-63 0 -102 43t-39 111q0 83 56.5 146.5t136.5 63.5q61 0 100 -39zM245 438q41 0 69.5 27.5t28.5 68.5q0 34 -20.5 54.5t-54.5 20.5q-41 0 -69 -28t-28 -70q0 -33 20.5 -53t53.5 -20z" glyph-name="ordfeminine" horiz-adv-x="434" unicode="ª"/><glyph d="M169 128q-1 -9 -7.5 -11t-11.5 4l-101 91q-8 6 -6 17l12 88q2 11 10 17l127 91q8 5 13.5 3.5t4.5 -10.5l-11 -73q-2 -12 -10 -18l-79 -54l63 -55q8 -6 6 -18zM351 128q-1 -9 -7.5 -11t-12.5 4l-101 91q-8 6 -6 17l12 88q2 11 10 17l128 91q7 5 12.5 3.5t4.5 -10.5 l-10 -73q-2 -12 -10 -18l-80 -54l64 -55q8 -6 6 -18z" glyph-name="guillemotleft" horiz-adv-x="412" unicode="«"/><glyph d="M481 313q15 0 13 -16l-21 -155q-2 -15 -17 -15h-106q-15 0 -13 15l8 58h-276q-15 0 -13 15l11 82q2 16 17 16h397z" glyph-name="logicalnot" horiz-adv-x="547" unicode="¬"/><glyph d="M377 333q15 0 13 -15l-11 -82q-2 -15 -17 -15h-300q-15 0 -13 15l11 82q2 15 17 15h300z" glyph-name="uni00AD" horiz-adv-x="430" unicode="­"/><glyph d="M397 708q109 0 179.5 -70.5t70.5 -178.5q0 -127 -98.5 -225t-227.5 -98q-109 0 -179.5 70.5t-70.5 177.5q0 129 97.5 226.5t228.5 97.5zM333 216q93 0 162 70.5t69 163.5q0 77 -50.5 127.5t-127.5 50.5q-94 0 -162.5 -70t-68.5 -164q0 -78 50.5 -128t127.5 -50zM398 551 q100 0 100 -80q0 -34 -21 -58.5t-57 -34.5l54 -73q3 -4 1.5 -7t-6.5 -3h-57q-7 0 -10 4l-51 73h-35l-10 -69q-2 -8 -8 -8h-55q-9 0 -7 8l34 240q2 8 8 8h120zM383 429q41 0 41 35q0 30 -33 30h-58l-9 -65h59z" glyph-name="registered" horiz-adv-x="670" unicode="®"/><glyph d="M397 700q16 0 14 -15l-12 -77q-2 -15 -17 -15h-303q-15 0 -13 15l11 77q2 15 17 15h303z" glyph-name="macron" horiz-adv-x="364" unicode="¯"/><glyph d="M236 418q-58 0 -95 37t-37 94q0 65 46.5 110.5t111.5 45.5q58 0 95 -36.5t37 -92.5q0 -65 -46.5 -111.5t-111.5 -46.5zM244 506q24 0 42 18t18 44q0 22 -14.5 35.5t-36.5 13.5q-25 0 -42 -17.5t-17 -42.5q0 -23 14.5 -37t35.5 -14z" glyph-name="degree" horiz-adv-x="410" unicode="°"/><glyph d="M422 367q15 0 13 -15l-10 -72q-2 -15 -17 -15h-112l-16 -111q-2 -15 -17 -15h-71q-16 0 -14 15l16 111h-111q-15 0 -13 15l10 72q2 15 17 15h111l16 111q2 15 17 15h71q16 0 14 -15l-16 -111h112zM382 86q15 0 13 -15l-9 -56q-2 -15 -17 -15h-323q-15 0 -13 15l8 56 q2 15 17 15h324z" glyph-name="plusminus" horiz-adv-x="484" unicode="±"/><glyph d="M194 704q39 0 61 -18.5t22 -46.5q0 -23 -16 -46t-28.5 -33.5t-49.5 -39.5l-40 -30h110l-7 -50h-176l6 50l77 60q4 3 15 12t15 12t12 10t11.5 11t7.5 10t5.5 12t1.5 12q0 12 -9.5 20t-24.5 8q-34 0 -41 -36l-2 -13h-53l2 14q5 38 32 60t69 22z" glyph-name="uni00B2" horiz-adv-x="262" unicode="²"/><glyph d="M168 436q-50 0 -72 24t-16 66h52q-6 -44 41 -44q22 0 37 10t15 29q0 32 -63 32l6 39q62 0 62 36q0 29 -38 29q-39 0 -45 -42h-52q4 43 31.5 65.5t71.5 22.5q39 0 63 -17t24 -46q0 -20 -13.5 -37.5t-34.5 -25.5q42 -17 42 -59q0 -38 -31.5 -60t-79.5 -22z" glyph-name="uni00B3" horiz-adv-x="281" unicode="³"/><glyph d="M258 700q7 0 9 -5t-2 -12l-78 -114q-8 -12 -19 -12h-97q-7 0 -9.5 5t1.5 12l77 114q8 12 19 12h99z" glyph-name="acute" horiz-adv-x="220" unicode="´"/><glyph d="M540 490q15 0 13 -15l-64 -460q-2 -15 -17 -15h-104q-15 0 -13 15l4 58q-59 -85 -157 -85q-24 0 -41 4l-23 -167q-2 -15 -17 -15h-107q-15 0 -13 15l48 346q0 7 2 19l40 285q2 15 18 15h107q15 0 13 -15l-35 -254q-7 -51 14 -78.5t65 -27.5q43 0 71 27.5t35 78.5l36 254 q2 15 17 15h108z" glyph-name="uni00B5" unicode="µ"/><glyph d="M359 0q-16 0 -13 15l32 230h-81q-108 0 -162.5 53t-54.5 147q0 115 76.5 185t204.5 70h209q15 0 13 -15l-94 -670q-3 -15 -17 -15h-113zM553 0q-15 0 -13 15l94 670q2 15 17 15h113q15 0 13 -15l-94 -670q-2 -15 -17 -15h-113zM320 372h76l29 201h-76q-63 0 -97 -30.5 t-34 -83.5q0 -87 102 -87z" glyph-name="paragraph" horiz-adv-x="784" unicode="¶"/><glyph d="M139 205q-34 0 -58 24t-24 58t24 58.5t58 24.5q35 0 59 -24t24 -59q0 -34 -24 -58t-59 -24z" glyph-name="periodcentered" horiz-adv-x="267" unicode="·"/><glyph d="M74 -34q33 -2 55.5 -22.5t22.5 -57.5q0 -58 -57.5 -86.5t-133.5 -16.5q-10 2 -9 13l6 46q2 12 14 10q86 -8 86 25q0 17 -22 23t-57 -6q-6 -2 -9 0t-2 7l7 50q2 9 6 12l45 37h90z" glyph-name="cedilla" horiz-adv-x="218" unicode="¸"/><glyph d="M180 701l-36 -261h-53l29 210h-28l7 51h81z" glyph-name="uni00B9" horiz-adv-x="176" unicode="¹"/><glyph d="M233 341q-71 0 -116 44t-45 116q0 85 62 144.5t147 59.5q71 0 116 -44t45 -116q0 -85 -62 -144.5t-147 -59.5zM247 438q39 0 68 28t29 68q0 34 -20.5 54.5t-54.5 20.5q-41 0 -69.5 -28.5t-28.5 -68.5q0 -33 21 -53.5t55 -20.5z" glyph-name="ordmasculine" horiz-adv-x="437" unicode="º"/><glyph d="M69 418q1 9 7.5 11t11.5 -4l102 -91q8 -6 6 -17l-13 -88q-2 -11 -10 -17l-127 -91q-7 -5 -12.5 -3.5t-4.5 10.5l10 72q2 12 10 18l79 55l-63 54q-8 6 -6 18zM250 418q1 9 7.5 11t11.5 -4l102 -91q8 -6 6 -17l-12 -88q-2 -11 -10 -17l-128 -91q-7 -5 -12.5 -3.5t-4.5 10.5 l10 72q2 12 10 18l80 55l-64 54q-8 6 -6 18z" glyph-name="guillemotright" horiz-adv-x="412" unicode="»"/><glyph d="M185 701l-36 -261h-53l29 210h-28l7 51h81zM588 700l-511 -700h-59l511 700h59zM538 261l-22 -156h27l-7 -51h-27l-7 -54h-53l7 54h-138l167 207h53zM475 187l-65 -82h53z" glyph-name="onequarter" horiz-adv-x="607" unicode="¼"/><glyph d="M185 701l-36 -261h-53l29 210h-28l7 51h81zM588 700l-511 -700h-59l511 700h59zM454 264q39 0 60.5 -18.5t21.5 -46.5q0 -23 -16 -46t-28.5 -33.5t-49.5 -39.5l-39 -30h109l-6 -50h-176l6 50l77 60q4 3 15 12t15 12t12 10t11.5 11t7.5 10t5.5 12t1.5 12q0 12 -9.5 20 t-24.5 8q-34 0 -41 -36l-2 -13h-53l2 14q5 38 32 60t69 22z" glyph-name="onehalf" horiz-adv-x="587" unicode="½"/><glyph d="M168 436q-50 0 -72 24t-16 66h52q-6 -44 41 -44q22 0 37 10t15 29q0 32 -63 32l6 39q62 0 62 36q0 29 -38 29q-39 0 -45 -42h-52q4 43 31.5 65.5t71.5 22.5q39 0 63 -17t24 -46q0 -20 -13.5 -37.5t-34.5 -25.5q42 -17 42 -59q0 -38 -31.5 -60t-79.5 -22zM619 700 l-511 -700h-59l511 700h59zM559 261l-22 -156h27l-7 -51h-27l-7 -54h-53l7 54h-138l167 207h53zM496 187l-65 -82h53z" glyph-name="threequarters" horiz-adv-x="624" unicode="¾"/><glyph d="M248 533q34 0 58 -24t24 -58q0 -35 -24 -59.5t-58 -24.5t-58 24.5t-24 59.5q0 34 24 58t58 24zM278 304q15 0 13 -14l-2 -17q-5 -43 -24 -78t-42 -56.5t-45.5 -40.5t-37.5 -41t-15 -47q0 -29 18 -47t50 -18q62 0 94 76q8 14 25 4l64 -36q22 -13 15 -31 q-26 -66 -82.5 -106t-135.5 -40q-82 0 -136 42t-54 119q0 42 17 77.5t42.5 61t51.5 49t47.5 51t27.5 57.5l4 20q3 15 17 15h88z" glyph-name="questiondown" horiz-adv-x="466" unicode="¿"/><glyph d="M345 779l-59 114q-9 17 12 17h96q10 0 18 -12l59 -114q9 -17 -12 -17h-97q-10 0 -17 12zM630 17q3 -17 -14 -17h-119q-12 0 -15 12l-19 103h-264l-48 -103q-4 -12 -19 -12h-119q-19 0 -10 17l329 671q6 12 20 12h121q15 0 18 -12zM258 242h181l-52 278z" glyph-name="Agrave" horiz-adv-x="697" unicode="À"/><glyph d="M374 767q-7 0 -9.5 5t1.5 12l77 114q8 12 19 12h99q7 0 9 -5t-2 -12l-78 -114q-8 -12 -19 -12h-97zM630 17q3 -17 -14 -17h-119q-12 0 -15 12l-19 103h-264l-48 -103q-4 -12 -19 -12h-119q-19 0 -10 17l329 671q6 12 20 12h121q15 0 18 -12zM258 242h181l-52 278z" glyph-name="Aacute" horiz-adv-x="697" unicode="Á"/><glyph d="M278 776q-9 0 -9.5 6t5.5 12l102 108q8 8 18 8h94q11 0 16 -8l74 -108q5 -6 2 -12t-12 -6h-72q-12 0 -17 8l-46 67l-61 -67q-8 -8 -19 -8h-75zM630 17q3 -17 -14 -17h-119q-12 0 -15 12l-19 103h-264l-48 -103q-4 -12 -19 -12h-119q-19 0 -10 17l329 671q6 12 20 12h121 q15 0 18 -12zM258 242h181l-52 278z" glyph-name="Acircumflex" horiz-adv-x="697" unicode="Â"/><glyph d="M258 818q-13 0 -10 13q11 50 43.5 75.5t75.5 25.5q28 0 51.5 -11t37 -24t31.5 -24t36 -11q35 0 50 28q4 8 14 8h28q13 0 10 -12q-10 -50 -43.5 -76.5t-76.5 -26.5q-28 0 -51.5 11t-37 24.5t-31.5 24.5t-36 11q-34 0 -50 -28q-5 -8 -13 -8h-28zM630 17q3 -17 -14 -17h-119 q-12 0 -15 12l-19 103h-264l-48 -103q-4 -12 -19 -12h-119q-19 0 -10 17l329 671q6 12 20 12h121q15 0 18 -12zM258 242h181l-52 278z" glyph-name="Atilde" horiz-adv-x="697" unicode="Ã"/><glyph d="M315 776q-27 0 -44 17t-17 45q0 31 23.5 54t55.5 23q27 0 44 -17t17 -44q0 -32 -23.5 -55t-55.5 -23zM535 776q-27 0 -44 17t-17 45q0 31 23.5 54t55.5 23q27 0 44 -17t17 -44q0 -32 -23.5 -55t-55.5 -23zM630 17q3 -17 -14 -17h-119q-12 0 -15 12l-19 103h-264l-48 -103 q-4 -12 -19 -12h-119q-19 0 -10 17l329 671q6 12 20 12h121q15 0 18 -12zM258 242h181l-52 278z" glyph-name="Adieresis" horiz-adv-x="697" unicode="Ä"/><glyph d="M424 748q-43 0 -68.5 25.5t-25.5 64.5q0 45 33 79t82 34q42 0 67.5 -25.5t25.5 -64.5q0 -45 -32.5 -79t-81.5 -34zM436 874q-11 0 -18.5 -8t-7.5 -19q0 -9 6 -15.5t16 -6.5q11 0 18.5 8t7.5 19q0 9 -6 15.5t-16 6.5zM630 17q3 -17 -14 -17h-119q-12 0 -15 12l-19 103 h-264l-48 -103q-4 -12 -19 -12h-119q-19 0 -10 17l329 671q6 12 20 12h121q15 0 18 -12zM258 242h181l-52 278z" glyph-name="Aring" horiz-adv-x="697" unicode="Å"/><glyph d="M849 700q15 0 13 -15l-13 -97q-2 -15 -17 -15h-228l-23 -155h215q15 0 13 -15l-13 -97q-2 -15 -17 -15h-215l-23 -164h227q15 0 13 -15l-13 -97q-2 -15 -17 -15h-356q-15 0 -13 15l18 127h-179l-71 -130q-7 -12 -18 -12h-118q-8 0 -11 5t1 12l380 671q6 12 19 12h446z M286 263h131l45 323z" glyph-name="AE" horiz-adv-x="859" unicode="Æ"/><glyph d="M456 568q-104 0 -176 -72t-72 -175q0 -87 52 -140.5t137 -53.5q84 0 160 58q13 10 21 -1l60 -74q8 -11 -3 -21q-106 -93 -231 -101l-27 -22q33 -2 55.5 -22.5t22.5 -57.5q0 -58 -57.5 -86.5t-133.5 -16.5q-10 2 -9 13l6 46q2 12 14 10q86 -8 86 25q0 17 -22.5 23 t-56.5 -6q-6 -2 -9 0t-2 7l7 50q2 9 6 12l35 29q-116 18 -187 102.5t-71 207.5q0 164 120 285t288 121q149 0 234 -101q8 -9 -4 -21l-75 -75q-12 -11 -22 -1q-60 58 -146 58z" glyph-name="Ccedilla" horiz-adv-x="706" unicode="Ç"/><glyph d="M222 910h96q10 0 18 -12l59 -114q9 -17 -12 -17h-97q-10 0 -17 12l-59 114q-9 17 12 17zM50 0q-15 0 -13 15l94 670q2 15 17 15h356q15 0 13 -15l-13 -97q-2 -15 -17 -15h-228l-22 -155h214q16 0 14 -15l-14 -97q-2 -15 -17 -15h-215l-23 -164h228q15 0 13 -15l-14 -97 q-2 -15 -17 -15h-356z" glyph-name="Egrave" horiz-adv-x="515" unicode="È"/><glyph d="M485 910q7 0 9 -5t-2 -12l-78 -114q-8 -12 -19 -12h-97q-7 0 -9.5 5t1.5 12l77 114q8 12 19 12h99zM50 0q-15 0 -13 15l94 670q2 15 17 15h356q15 0 13 -15l-13 -97q-2 -15 -17 -15h-228l-22 -155h214q16 0 14 -15l-14 -97q-2 -15 -17 -15h-215l-23 -164h228q15 0 13 -15 l-14 -97q-2 -15 -17 -15h-356z" glyph-name="Eacute" horiz-adv-x="515" unicode="É"/><glyph d="M202 776q-9 0 -9.5 6t5.5 12l102 108q8 8 18 8h94q11 0 16 -8l74 -108q5 -6 2 -12t-12 -6h-72q-12 0 -17 8l-46 67l-61 -67q-8 -8 -19 -8h-75zM50 0q-15 0 -13 15l94 670q2 15 17 15h356q15 0 13 -15l-13 -97q-2 -15 -17 -15h-228l-22 -155h214q16 0 14 -15l-14 -97 q-2 -15 -17 -15h-215l-23 -164h228q15 0 13 -15l-14 -97q-2 -15 -17 -15h-356z" glyph-name="Ecircumflex" horiz-adv-x="515" unicode="Ê"/><glyph d="M239 776q-27 0 -44 17t-17 45q0 31 23.5 54t55.5 23q27 0 44 -17t17 -44q0 -32 -23.5 -55t-55.5 -23zM459 776q-27 0 -44 17t-17 45q0 31 23.5 54t55.5 23q27 0 44 -17t17 -44q0 -32 -23.5 -55t-55.5 -23zM50 0q-15 0 -13 15l94 670q2 15 17 15h356q15 0 13 -15l-13 -97 q-2 -15 -17 -15h-228l-22 -155h214q16 0 14 -15l-14 -97q-2 -15 -17 -15h-215l-23 -164h228q15 0 13 -15l-14 -97q-2 -15 -17 -15h-356z" glyph-name="Edieresis" horiz-adv-x="515" unicode="Ë"/><glyph d="M89 910h96q10 0 18 -12l59 -114q9 -17 -12 -17h-97q-10 0 -17 12l-59 114q-9 17 12 17zM50 0q-15 0 -13 15l94 670q2 15 17 15h113q15 0 13 -15l-94 -670q-2 -15 -17 -15h-113z" glyph-name="Igrave" horiz-adv-x="282" unicode="Ì"/><glyph d="M352 910q7 0 9 -5t-2 -12l-78 -114q-8 -12 -19 -12h-97q-7 0 -9.5 5t1.5 12l77 114q8 12 19 12h99zM50 0q-15 0 -13 15l94 670q2 15 17 15h113q15 0 13 -15l-94 -670q-2 -15 -17 -15h-113z" glyph-name="Iacute" horiz-adv-x="282" unicode="Í"/><glyph d="M70 776q-9 0 -9.5 6t5.5 12l102 108q8 8 18 8h94q11 0 16 -8l74 -108q5 -6 2 -12t-12 -6h-72q-12 0 -17 8l-46 67l-61 -67q-8 -8 -19 -8h-75zM50 0q-15 0 -13 15l94 670q2 15 17 15h113q15 0 13 -15l-94 -670q-2 -15 -17 -15h-113z" glyph-name="Icircumflex" horiz-adv-x="282" unicode="Î"/><glyph d="M107 776q-27 0 -44 17t-17 45q0 31 23.5 54t55.5 23q27 0 44 -17t17 -44q0 -32 -23.5 -55t-55.5 -23zM327 776q-27 0 -44 17t-17 45q0 31 23.5 54t55.5 23q27 0 44 -17t17 -44q0 -32 -23.5 -55t-55.5 -23zM50 0q-15 0 -13 15l94 670q2 15 17 15h113q15 0 13 -15l-94 -670 q-2 -15 -17 -15h-113z" glyph-name="Idieresis" horiz-adv-x="282" unicode="Ï"/><glyph d="M362 700q152 0 231 -83.5t79 -220.5q0 -173 -114 -284.5t-294 -111.5h-206q-15 0 -13 15l39 276h-37q-15 0 -13 15l11 77q2 15 17 15h37l40 287q2 15 17 15h206zM279 127q119 0 183.5 70t64.5 185q0 191 -184 191h-76l-25 -175h124q15 0 13 -15l-12 -77q-2 -15 -17 -15 h-123l-23 -164h75z" glyph-name="Eth" horiz-adv-x="699" unicode="Ð"/><glyph d="M256 818q-13 0 -10 13q11 50 43.5 75.5t75.5 25.5q28 0 51.5 -11t37 -24t31.5 -24t36 -11q35 0 50 28q4 8 14 8h28q13 0 10 -12q-10 -50 -43.5 -76.5t-76.5 -26.5q-28 0 -51.5 11t-37 24.5t-31.5 24.5t-36 11q-34 0 -50 -28q-5 -8 -13 -8h-28zM677 700q15 0 13 -15 l-94 -670q-2 -15 -17 -15h-134q-13 0 -17 10l-183 470l-65 -465q-2 -15 -17 -15h-113q-15 0 -13 15l94 670q2 15 17 15h132q13 0 17 -10l184 -473l66 468q2 15 17 15h113z" glyph-name="Ntilde" horiz-adv-x="697" unicode="Ñ"/><glyph d="M359 910h96q10 0 18 -12l59 -114q9 -17 -12 -17h-97q-10 0 -17 12l-59 114q-9 17 12 17zM376 -13q-138 0 -227 88t-89 223q0 166 122.5 288t290.5 122q138 0 226.5 -88t88.5 -223q0 -166 -122 -288t-290 -122zM395 127q103 0 175 73.5t72 178.5q0 85 -52 137t-135 52 q-103 0 -175.5 -73t-72.5 -177q0 -85 52 -138t136 -53z" glyph-name="Ograve" horiz-adv-x="820" unicode="Ò"/><glyph d="M622 910q7 0 9 -5t-2 -12l-78 -114q-8 -12 -19 -12h-97q-7 0 -9.5 5t1.5 12l77 114q8 12 19 12h99zM376 -13q-138 0 -227 88t-89 223q0 166 122.5 288t290.5 122q138 0 226.5 -88t88.5 -223q0 -166 -122 -288t-290 -122zM395 127q103 0 175 73.5t72 178.5q0 85 -52 137 t-135 52q-103 0 -175.5 -73t-72.5 -177q0 -85 52 -138t136 -53z" glyph-name="Oacute" horiz-adv-x="820" unicode="Ó"/><glyph d="M339 776q-9 0 -9.5 6t5.5 12l102 108q8 8 18 8h94q11 0 16 -8l74 -108q5 -6 2 -12t-12 -6h-72q-12 0 -17 8l-46 67l-61 -67q-8 -8 -19 -8h-75zM376 -13q-138 0 -227 88t-89 223q0 166 122.5 288t290.5 122q138 0 226.5 -88t88.5 -223q0 -166 -122 -288t-290 -122z M395 127q103 0 175 73.5t72 178.5q0 85 -52 137t-135 52q-103 0 -175.5 -73t-72.5 -177q0 -85 52 -138t136 -53z" glyph-name="Ocircumflex" horiz-adv-x="820" unicode="Ô"/><glyph d="M428 932q28 0 51.5 -11t37 -24t31.5 -24t36 -11q35 0 50 28q4 8 14 8h28q13 0 10 -12q-10 -50 -43.5 -76.5t-76.5 -26.5q-28 0 -51.5 11t-37 24.5t-31.5 24.5t-36 11q-34 0 -50 -28q-5 -8 -13 -8h-28q-13 0 -10 13q11 50 43.5 75.5t75.5 25.5zM376 -13q-138 0 -227 88 t-89 223q0 166 122.5 288t290.5 122q138 0 226.5 -88t88.5 -223q0 -166 -122 -288t-290 -122zM395 127q103 0 175 73.5t72 178.5q0 85 -52 137t-135 52q-103 0 -175.5 -73t-72.5 -177q0 -85 52 -138t136 -53z" glyph-name="Otilde" horiz-adv-x="820" unicode="Õ"/><glyph d="M376 776q-27 0 -44 17t-17 45q0 31 23.5 54t55.5 23q27 0 44 -17t17 -44q0 -32 -23.5 -55t-55.5 -23zM596 776q-27 0 -44 17t-17 45q0 31 23.5 54t55.5 23q27 0 44 -17t17 -44q0 -32 -23.5 -55t-55.5 -23zM376 -13q-138 0 -227 88t-89 223q0 166 122.5 288t290.5 122 q138 0 226.5 -88t88.5 -223q0 -166 -122 -288t-290 -122zM395 127q103 0 175 73.5t72 178.5q0 85 -52 137t-135 52q-103 0 -175.5 -73t-72.5 -177q0 -85 52 -138t136 -53z" glyph-name="Odieresis" horiz-adv-x="820" unicode="Ö"/><glyph d="M392 385q10 -10 -3 -21l-90 -79l68 -79q9 -11 -3 -22l-57 -49q-12 -11 -21 0l-68 79l-91 -79q-12 -11 -21 0l-44 50q-10 9 3 22l90 79l-68 79q-9 11 3 21l57 49q12 12 22 1l68 -79l90 79q11 10 21 0z" glyph-name="multiply" horiz-adv-x="443" unicode="×"/><glyph d="M658 654q61 -41 95.5 -108t34.5 -149q0 -166 -122 -288t-290 -122q-60 0 -112 18l-26 -44q-6 -11 -19 -11h-64q-19 0 -8 18l44 72q-62 42 -96.5 109t-34.5 149q0 166 122.5 288t290.5 122q59 0 112 -18l26 44q6 11 19 11h63q20 0 9 -18zM207 318q0 -94 62 -148l238 392 q-24 6 -52 6q-103 0 -175.5 -73t-72.5 -177zM395 127q103 0 175 73.5t72 178.5q0 94 -62 146l-238 -392q25 -6 53 -6z" glyph-name="Oslash" horiz-adv-x="820" unicode="Ø"/><glyph d="M277 910h96q10 0 18 -12l59 -114q9 -17 -12 -17h-97q-10 0 -17 12l-59 114q-9 17 12 17zM296 -13q-121 0 -184.5 72.5t-43.5 206.5l58 419q2 15 17 15h113q15 0 13 -15l-58 -416q-10 -68 17 -105t85 -37q57 0 93.5 36.5t46.5 105.5l59 416q2 15 17 15h113q15 0 13 -15 l-59 -419q-19 -135 -100 -207t-200 -72z" glyph-name="Ugrave" horiz-adv-x="657" unicode="Ù"/><glyph d="M540 910q7 0 9 -5t-2 -12l-78 -114q-8 -12 -19 -12h-97q-7 0 -9.5 5t1.5 12l77 114q8 12 19 12h99zM296 -13q-121 0 -184.5 72.5t-43.5 206.5l58 419q2 15 17 15h113q15 0 13 -15l-58 -416q-10 -68 17 -105t85 -37q57 0 93.5 36.5t46.5 105.5l59 416q2 15 17 15h113 q15 0 13 -15l-59 -419q-19 -135 -100 -207t-200 -72z" glyph-name="Uacute" horiz-adv-x="657" unicode="Ú"/><glyph d="M257 776q-9 0 -9.5 6t5.5 12l102 108q8 8 18 8h94q11 0 16 -8l74 -108q5 -6 2 -12t-12 -6h-72q-12 0 -17 8l-46 67l-61 -67q-8 -8 -19 -8h-75zM296 -13q-121 0 -184.5 72.5t-43.5 206.5l58 419q2 15 17 15h113q15 0 13 -15l-58 -416q-10 -68 17 -105t85 -37 q57 0 93.5 36.5t46.5 105.5l59 416q2 15 17 15h113q15 0 13 -15l-59 -419q-19 -135 -100 -207t-200 -72z" glyph-name="Ucircumflex" horiz-adv-x="657" unicode="Û"/><glyph d="M294 776q-27 0 -44 17t-17 45q0 31 23.5 54t55.5 23q27 0 44 -17t17 -44q0 -32 -23.5 -55t-55.5 -23zM514 776q-27 0 -44 17t-17 45q0 31 23.5 54t55.5 23q27 0 44 -17t17 -44q0 -32 -23.5 -55t-55.5 -23zM296 -13q-121 0 -184.5 72.5t-43.5 206.5l58 419q2 15 17 15h113 q15 0 13 -15l-58 -416q-10 -68 17 -105t85 -37q57 0 93.5 36.5t46.5 105.5l59 416q2 15 17 15h113q15 0 13 -15l-59 -419q-19 -135 -100 -207t-200 -72z" glyph-name="Udieresis" horiz-adv-x="657" unicode="Ü"/><glyph d="M338 767q-7 0 -9.5 5t1.5 12l77 114q8 12 19 12h99q7 0 9 -5t-2 -12l-78 -114q-8 -12 -19 -12h-97zM644 700q20 0 7 -18l-254 -360l-43 -307q-2 -15 -17 -15h-113q-15 0 -13 15l43 308l-156 359q-8 18 13 18h118q14 0 17 -10l95 -235l163 235q7 10 19 10h121z" glyph-name="Yacute" horiz-adv-x="627" unicode="Ý"/><glyph d="M342 580q111 0 169 -50.5t58 -148.5q0 -119 -79.5 -190t-212.5 -71h-82l-15 -105q-2 -15 -17 -15h-113q-15 0 -13 15l94 670q2 15 17 15h113q15 0 13 -15l-15 -105h83zM285 247q146 0 146 116q0 51 -29.5 70.5t-87.5 19.5h-73l-28 -206h72z" glyph-name="Thorn" horiz-adv-x="591" unicode="Þ"/><glyph d="M50 0q-15 0 -13 15l68 484q14 103 88 156t176 53q95 0 156.5 -45t61.5 -126q0 -67 -41 -117t-101 -56q131 -16 131 -151q0 -104 -76 -158.5t-207 -54.5h-54q-15 0 -13 15l10 78q2 15 17 15h47q146 0 146 109q0 46 -28 63t-92 17h-46q-15 0 -13 15l11 78q2 15 17 15h30 q122 0 122 97q0 80 -92 80q-99 0 -112 -90l-67 -477q-2 -15 -17 -15h-109z" glyph-name="germandbls" horiz-adv-x="618" unicode="ß"/><glyph d="M272 569l-59 114q-9 17 12 17h96q10 0 18 -12l59 -114q9 -17 -12 -17h-97q-10 0 -17 12zM575 490q16 0 13 -15l-64 -460q-3 -15 -18 -15h-97q-16 0 -13 15l4 52q-64 -79 -169 -79q-94 0 -146.5 59.5t-52.5 157.5q0 121 75.5 209t191.5 88q108 0 151 -82l10 55q3 15 17 15 h98zM277 114q56 0 95.5 36t46.5 95q8 59 -22 95t-85 36q-64 0 -104 -44t-40 -106q0 -52 29.5 -82t79.5 -30z" glyph-name="agrave" horiz-adv-x="616" unicode="à"/><glyph d="M301 557q-7 0 -9.5 5t1.5 12l77 114q8 12 19 12h99q7 0 9 -5t-2 -12l-78 -114q-8 -12 -19 -12h-97zM575 490q16 0 13 -15l-64 -460q-3 -15 -18 -15h-97q-16 0 -13 15l4 52q-64 -79 -169 -79q-94 0 -146.5 59.5t-52.5 157.5q0 121 75.5 209t191.5 88q108 0 151 -82l10 55 q3 15 17 15h98zM277 114q56 0 95.5 36t46.5 95q8 59 -22 95t-85 36q-64 0 -104 -44t-40 -106q0 -52 29.5 -82t79.5 -30z" glyph-name="aacute" horiz-adv-x="616" unicode="á"/><glyph d="M205 566q-9 0 -9.5 6t5.5 12l102 108q8 8 18 8h94q11 0 16 -8l74 -108q5 -6 2 -12t-12 -6h-72q-12 0 -17 8l-46 67l-61 -67q-8 -8 -19 -8h-75zM575 490q16 0 13 -15l-64 -460q-3 -15 -18 -15h-97q-16 0 -13 15l4 52q-64 -79 -169 -79q-94 0 -146.5 59.5t-52.5 157.5 q0 121 75.5 209t191.5 88q108 0 151 -82l10 55q3 15 17 15h98zM277 114q56 0 95.5 36t46.5 95q8 59 -22 95t-85 36q-64 0 -104 -44t-40 -106q0 -52 29.5 -82t79.5 -30z" glyph-name="acircumflex" horiz-adv-x="616" unicode="â"/><glyph d="M185 608q-13 0 -10 13q11 50 43.5 75.5t75.5 25.5q28 0 51.5 -11t37 -24t31.5 -24t36 -11q35 0 50 28q4 8 14 8h28q13 0 10 -12q-10 -50 -43.5 -76.5t-76.5 -26.5q-28 0 -51.5 11t-37 24.5t-31.5 24.5t-36 11q-34 0 -50 -28q-5 -8 -13 -8h-28zM575 490q16 0 13 -15 l-64 -460q-3 -15 -18 -15h-97q-16 0 -13 15l4 52q-64 -79 -169 -79q-94 0 -146.5 59.5t-52.5 157.5q0 121 75.5 209t191.5 88q108 0 151 -82l10 55q3 15 17 15h98zM277 114q56 0 95.5 36t46.5 95q8 59 -22 95t-85 36q-64 0 -104 -44t-40 -106q0 -52 29.5 -82t79.5 -30z" glyph-name="atilde" horiz-adv-x="616" unicode="ã"/><glyph d="M242 566q-27 0 -44 17t-17 45q0 31 23.5 54t55.5 23q27 0 44 -17t17 -44q0 -32 -23.5 -55t-55.5 -23zM462 566q-27 0 -44 17t-17 45q0 31 23.5 54t55.5 23q27 0 44 -17t17 -44q0 -32 -23.5 -55t-55.5 -23zM575 490q16 0 13 -15l-64 -460q-3 -15 -18 -15h-97q-16 0 -13 15 l4 52q-64 -79 -169 -79q-94 0 -146.5 59.5t-52.5 157.5q0 121 75.5 209t191.5 88q108 0 151 -82l10 55q3 15 17 15h98zM277 114q56 0 95.5 36t46.5 95q8 59 -22 95t-85 36q-64 0 -104 -44t-40 -106q0 -52 29.5 -82t79.5 -30z" glyph-name="adieresis" horiz-adv-x="616" unicode="ä"/><glyph d="M351 538q-43 0 -68.5 25.5t-25.5 64.5q0 45 33 79t82 34q42 0 67.5 -25.5t25.5 -64.5q0 -45 -32.5 -79t-81.5 -34zM363 664q-11 0 -18.5 -8t-7.5 -19q0 -9 6 -15.5t16 -6.5q11 0 18.5 8t7.5 19q0 9 -6 15.5t-16 6.5zM575 490q16 0 13 -15l-64 -460q-3 -15 -18 -15h-97 q-16 0 -13 15l4 52q-64 -79 -169 -79q-94 0 -146.5 59.5t-52.5 157.5q0 121 75.5 209t191.5 88q108 0 151 -82l10 55q3 15 17 15h98zM277 114q56 0 95.5 36t46.5 95q8 59 -22 95t-85 36q-64 0 -104 -44t-40 -106q0 -52 29.5 -82t79.5 -30z" glyph-name="aring" horiz-adv-x="616" unicode="å"/><glyph d="M706 502q107 0 161.5 -68.5t40.5 -166.5q-11 -74 -60 -74h-297q11 -94 125 -94q53 0 109 28q14 7 23 -8l26 -43q10 -16 -4 -26q-70 -62 -176 -62q-76 0 -132 33.5t-83 92.5q-61 -126 -200 -126q-95 0 -151 60t-56 160q0 119 75.5 206.5t190.5 87.5q98 0 142 -71l9 44 q3 15 17 15h68q15 0 13 -15l-3 -24q72 51 162 51zM690 388q-46 0 -79.5 -25t-48.5 -73h226q1 48 -25 73t-73 25zM278 114q63 0 103 45t40 106q0 51 -29.5 81t-79.5 30q-64 0 -104 -44t-40 -106q0 -52 30 -82t80 -30z" glyph-name="ae" horiz-adv-x="939" unicode="æ"/><glyph d="M501 415q8 -11 -3 -21l-67 -60q-15 -14 -27 0q-39 41 -94 41q-61 0 -102 -43t-41 -103q0 -51 31.5 -82.5t85.5 -31.5q55 0 101 41q14 12 26 -1l47 -57q10 -12 -1 -23q-72 -79 -176 -86l-28 -23q33 -2 55.5 -22.5t22.5 -57.5q0 -58 -57.5 -86.5t-133.5 -16.5q-10 2 -9 13 l6 46q2 12 14 10q86 -8 86 25q0 17 -22.5 23t-56.5 -6q-6 -2 -9 0t-2 7l7 50q2 9 6 12l39 32q-76 18 -121 77.5t-45 142.5q0 118 83 202.5t202 84.5q123 0 183 -87z" glyph-name="ccedilla" horiz-adv-x="520" unicode="ç"/><glyph d="M247 569l-59 114q-9 17 12 17h96q10 0 18 -12l59 -114q9 -17 -12 -17h-97q-10 0 -17 12zM319 502q107 0 161.5 -68.5t40.5 -166.5q-11 -74 -60 -74h-297q11 -94 125 -94q53 0 109 28q14 7 23 -8l26 -43q10 -16 -4 -26q-70 -62 -176 -62t-170.5 62t-64.5 163 q0 118 83.5 203.5t203.5 85.5zM303 388q-46 0 -79.5 -25t-48.5 -73h226q1 48 -25 73t-73 25z" glyph-name="egrave" horiz-adv-x="552" unicode="è"/><glyph d="M276 557q-7 0 -9.5 5t1.5 12l77 114q8 12 19 12h99q7 0 9 -5t-2 -12l-78 -114q-8 -12 -19 -12h-97zM319 502q107 0 161.5 -68.5t40.5 -166.5q-11 -74 -60 -74h-297q11 -94 125 -94q53 0 109 28q14 7 23 -8l26 -43q10 -16 -4 -26q-70 -62 -176 -62t-170.5 62t-64.5 163 q0 118 83.5 203.5t203.5 85.5zM303 388q-46 0 -79.5 -25t-48.5 -73h226q1 48 -25 73t-73 25z" glyph-name="eacute" horiz-adv-x="552" unicode="é"/><glyph d="M181 566q-9 0 -9.5 6t5.5 12l102 108q8 8 18 8h94q11 0 16 -8l74 -108q5 -6 2 -12t-12 -6h-72q-12 0 -17 8l-46 67l-61 -67q-8 -8 -19 -8h-75zM319 502q107 0 161.5 -68.5t40.5 -166.5q-11 -74 -60 -74h-297q11 -94 125 -94q53 0 109 28q14 7 23 -8l26 -43q10 -16 -4 -26 q-70 -62 -176 -62t-170.5 62t-64.5 163q0 118 83.5 203.5t203.5 85.5zM303 388q-46 0 -79.5 -25t-48.5 -73h226q1 48 -25 73t-73 25z" glyph-name="ecircumflex" horiz-adv-x="552" unicode="ê"/><glyph d="M218 566q-27 0 -44 17t-17 45q0 31 23.5 54t55.5 23q27 0 44 -17t17 -44q0 -32 -23.5 -55t-55.5 -23zM438 566q-27 0 -44 17t-17 45q0 31 23.5 54t55.5 23q27 0 44 -17t17 -44q0 -32 -23.5 -55t-55.5 -23zM319 502q107 0 161.5 -68.5t40.5 -166.5q-11 -74 -60 -74h-297 q11 -94 125 -94q53 0 109 28q14 7 23 -8l26 -43q10 -16 -4 -26q-70 -62 -176 -62t-170.5 62t-64.5 163q0 118 83.5 203.5t203.5 85.5zM303 388q-46 0 -79.5 -25t-48.5 -73h226q1 48 -25 73t-73 25z" glyph-name="edieresis" horiz-adv-x="552" unicode="ë"/><glyph d="M44 700h96q10 0 18 -12l59 -114q9 -17 -12 -17h-97q-10 0 -17 12l-59 114q-9 17 12 17zM36 0q-15 0 -13 15l64 460q2 15 17 15h109q15 0 13 -15l-64 -460q-2 -15 -17 -15h-109z" glyph-name="igrave" horiz-adv-x="249" unicode="ì"/><glyph d="M307 700q7 0 9 -5t-2 -12l-78 -114q-8 -12 -19 -12h-97q-7 0 -9.5 5t1.5 12l77 114q8 12 19 12h99zM36 0q-15 0 -13 15l64 460q2 15 17 15h109q15 0 13 -15l-64 -460q-2 -15 -17 -15h-109z" glyph-name="iacute" horiz-adv-x="249" unicode="í"/><glyph d="M24 566q-9 0 -9.5 6t5.5 12l102 108q8 8 18 8h94q11 0 16 -8l74 -108q5 -6 2 -12t-12 -6h-72q-12 0 -17 8l-46 67l-61 -67q-8 -8 -19 -8h-75zM36 0q-15 0 -13 15l64 460q2 15 17 15h109q15 0 13 -15l-64 -460q-2 -15 -17 -15h-109z" glyph-name="icircumflex" horiz-adv-x="249" unicode="î"/><glyph d="M61 566q-27 0 -44 17t-17 45q0 31 23.5 54t55.5 23q27 0 44 -17t17 -44q0 -32 -23.5 -55t-55.5 -23zM281 566q-27 0 -44 17t-17 45q0 31 23.5 54t55.5 23q27 0 44 -17t17 -44q0 -32 -23.5 -55t-55.5 -23zM36 0q-15 0 -13 15l64 460q2 15 17 15h109q15 0 13 -15l-64 -460 q-2 -15 -17 -15h-109z" glyph-name="idieresis" horiz-adv-x="249" unicode="ï"/><glyph d="M635 652q8 1 11.5 -3t2.5 -11l-10 -68q-2 -14 -16 -16l-24 -3l-75 -536q-3 -15 -18 -15h-97q-16 0 -13 15l4 52q-64 -79 -169 -79q-94 0 -146.5 59.5t-52.5 157.5q0 121 75.5 209t191.5 88q105 0 148 -77l13 110l-63 -8q-8 -1 -12 3t-2 11l10 68q2 14 16 16l64 8l8 67 q2 15 17 15h109q15 0 13 -15l-7 -51zM277 114q56 0 95.5 36t46.5 95q8 59 -22 95t-85 36q-64 0 -104 -44t-40 -106q0 -52 29.5 -82t79.5 -30z" glyph-name="eth" horiz-adv-x="594" unicode="ð"/><glyph d="M529 688q13 0 10 -12q-10 -50 -43.5 -76.5t-76.5 -26.5q-28 0 -51.5 11t-37 24.5t-31.5 24.5t-36 11q-34 0 -50 -28q-5 -8 -13 -8h-28q-13 0 -10 13q11 50 43.5 75.5t75.5 25.5q28 0 51.5 -11t37 -24t31.5 -24t36 -11q35 0 50 28q4 8 14 8h28zM378 502q79 0 121.5 -54 t29.5 -148l-40 -285q-2 -15 -18 -15h-107q-15 0 -13 15l35 254q7 51 -14 78.5t-65 27.5q-43 0 -71 -27.5t-35 -78.5l-36 -254q-2 -15 -17 -15h-108q-15 0 -13 15l64 460q2 15 17 15h104q15 0 13 -15l-4 -58q59 85 157 85z" glyph-name="ntilde" unicode="ñ"/><glyph d="M210 700h96q10 0 18 -12l59 -114q9 -17 -12 -17h-97q-10 0 -17 12l-59 114q-9 17 12 17zM258 -12q-101 0 -163.5 62t-62.5 160q0 118 86.5 205t207.5 87q100 0 162.5 -62t62.5 -160q0 -118 -86.5 -205t-206.5 -87zM275 115q58 0 100 41t42 106q0 52 -30 82.5t-79 30.5 q-58 0 -100 -41t-42 -105q0 -53 30 -83.5t79 -30.5z" glyph-name="ograve" horiz-adv-x="583" unicode="ò"/><glyph d="M473 700q7 0 9 -5t-2 -12l-78 -114q-8 -12 -19 -12h-97q-7 0 -9.5 5t1.5 12l77 114q8 12 19 12h99zM258 -12q-101 0 -163.5 62t-62.5 160q0 118 86.5 205t207.5 87q100 0 162.5 -62t62.5 -160q0 -118 -86.5 -205t-206.5 -87zM275 115q58 0 100 41t42 106q0 52 -30 82.5 t-79 30.5q-58 0 -100 -41t-42 -105q0 -53 30 -83.5t79 -30.5z" glyph-name="oacute" horiz-adv-x="583" unicode="ó"/><glyph d="M190 566q-9 0 -9.5 6t5.5 12l102 108q8 8 18 8h94q11 0 16 -8l74 -108q5 -6 2 -12t-12 -6h-72q-12 0 -17 8l-46 67l-61 -67q-8 -8 -19 -8h-75zM258 -12q-101 0 -163.5 62t-62.5 160q0 118 86.5 205t207.5 87q100 0 162.5 -62t62.5 -160q0 -118 -86.5 -205t-206.5 -87z M275 115q58 0 100 41t42 106q0 52 -30 82.5t-79 30.5q-58 0 -100 -41t-42 -105q0 -53 30 -83.5t79 -30.5z" glyph-name="ocircumflex" horiz-adv-x="583" unicode="ô"/><glyph d="M279 722q28 0 51.5 -11t37 -24t31.5 -24t36 -11q35 0 50 28q4 8 14 8h28q13 0 10 -12q-10 -50 -43.5 -76.5t-76.5 -26.5q-28 0 -51.5 11t-37 24.5t-31.5 24.5t-36 11q-34 0 -50 -28q-5 -8 -13 -8h-28q-13 0 -10 13q11 50 43.5 75.5t75.5 25.5zM258 -12q-101 0 -163.5 62 t-62.5 160q0 118 86.5 205t207.5 87q100 0 162.5 -62t62.5 -160q0 -118 -86.5 -205t-206.5 -87zM275 115q58 0 100 41t42 106q0 52 -30 82.5t-79 30.5q-58 0 -100 -41t-42 -105q0 -53 30 -83.5t79 -30.5z" glyph-name="otilde" horiz-adv-x="583" unicode="õ"/><glyph d="M227 566q-27 0 -44 17t-17 45q0 31 23.5 54t55.5 23q27 0 44 -17t17 -44q0 -32 -23.5 -55t-55.5 -23zM447 566q-27 0 -44 17t-17 45q0 31 23.5 54t55.5 23q27 0 44 -17t17 -44q0 -32 -23.5 -55t-55.5 -23zM258 -12q-101 0 -163.5 62t-62.5 160q0 118 86.5 205t207.5 87 q100 0 162.5 -62t62.5 -160q0 -118 -86.5 -205t-206.5 -87zM275 115q58 0 100 41t42 106q0 52 -30 82.5t-79 30.5q-58 0 -100 -41t-42 -105q0 -53 30 -83.5t79 -30.5z" glyph-name="odieresis" horiz-adv-x="583" unicode="ö"/><glyph d="M281 390q-26 0 -45 18.5t-19 44.5q0 27 19 46t45 19q27 0 45.5 -19t18.5 -46q0 -26 -18.5 -44.5t-45.5 -18.5zM438 336q15 0 13 -15l-11 -72q-2 -15 -17 -15h-344q-15 0 -13 15l10 72q2 15 17 15h345zM234 55q-27 0 -45.5 18.5t-18.5 45.5q0 26 18.5 45t45.5 19 q26 0 45 -19t19 -45q0 -27 -19 -45.5t-45 -18.5z" glyph-name="divide" horiz-adv-x="504" unicode="÷"/><glyph d="M457 466q94 -62 94 -186q0 -118 -86.5 -205t-206.5 -87q-36 0 -74 10l-33 -57q-6 -11 -18 -11h-43q-18 0 -8 18l44 76q-94 62 -94 186q0 118 86.5 205t207.5 87q42 0 73 -10l32 55q6 11 18 11h43q18 0 8 -18zM166 229q0 -55 31 -84l133 228q-14 2 -22 2q-58 0 -100 -41 t-42 -105zM275 115q58 0 100 41t42 106q0 54 -31 83l-133 -228q14 -2 22 -2z" glyph-name="oslash" horiz-adv-x="583" unicode="ø"/><glyph d="M256 569l-59 114q-9 17 12 17h96q10 0 18 -12l59 -114q9 -17 -12 -17h-97q-10 0 -17 12zM540 490q15 0 13 -15l-64 -460q-2 -15 -17 -15h-104q-15 0 -13 15l4 58q-59 -85 -157 -85q-79 0 -121.5 54t-29.5 148l40 285q2 15 18 15h107q15 0 13 -15l-35 -254 q-7 -51 14 -78.5t65 -27.5q43 0 71 27.5t35 78.5l36 254q2 15 17 15h108z" glyph-name="ugrave" unicode="ù"/><glyph d="M285 557q-7 0 -9.5 5t1.5 12l77 114q8 12 19 12h99q7 0 9 -5t-2 -12l-78 -114q-8 -12 -19 -12h-97zM540 490q15 0 13 -15l-64 -460q-2 -15 -17 -15h-104q-15 0 -13 15l4 58q-59 -85 -157 -85q-79 0 -121.5 54t-29.5 148l40 285q2 15 18 15h107q15 0 13 -15l-35 -254 q-7 -51 14 -78.5t65 -27.5q43 0 71 27.5t35 78.5l36 254q2 15 17 15h108z" glyph-name="uacute" unicode="ú"/><glyph d="M189 566q-9 0 -9.5 6t5.5 12l102 108q8 8 18 8h94q11 0 16 -8l74 -108q5 -6 2 -12t-12 -6h-72q-12 0 -17 8l-46 67l-61 -67q-8 -8 -19 -8h-75zM540 490q15 0 13 -15l-64 -460q-2 -15 -17 -15h-104q-15 0 -13 15l4 58q-59 -85 -157 -85q-79 0 -121.5 54t-29.5 148l40 285 q2 15 18 15h107q15 0 13 -15l-35 -254q-7 -51 14 -78.5t65 -27.5q43 0 71 27.5t35 78.5l36 254q2 15 17 15h108z" glyph-name="ucircumflex" unicode="û"/><glyph d="M226 566q-27 0 -44 17t-17 45q0 31 23.5 54t55.5 23q27 0 44 -17t17 -44q0 -32 -23.5 -55t-55.5 -23zM446 566q-27 0 -44 17t-17 45q0 31 23.5 54t55.5 23q27 0 44 -17t17 -44q0 -32 -23.5 -55t-55.5 -23zM540 490q15 0 13 -15l-64 -460q-2 -15 -17 -15h-104 q-15 0 -13 15l4 58q-59 -85 -157 -85q-79 0 -121.5 54t-29.5 148l40 285q2 15 18 15h107q15 0 13 -15l-35 -254q-7 -51 14 -78.5t65 -27.5q43 0 71 27.5t35 78.5l36 254q2 15 17 15h108z" glyph-name="udieresis" unicode="ü"/><glyph d="M468 700q7 0 9 -5t-2 -12l-78 -114q-8 -12 -19 -12h-97q-7 0 -9.5 5t1.5 12l77 114q8 12 19 12h99zM100 -190q-19 0 -10 17l94 173l-121 473q-5 17 14 17h110q14 0 17 -12l69 -319l164 319q6 12 19 12h110q19 0 10 -17l-351 -651q-6 -12 -20 -12h-105z" glyph-name="yacute" horiz-adv-x="574" unicode="ý"/><glyph d="M386 502q93 0 146 -60t53 -160q0 -122 -75 -208t-190 -86h-1h-1q-102 0 -146 73l-6 -46v-2l-27 -188q-2 -15 -17 -15h-109q-15 0 -13 15l91 650q0 1 0.5 2.5t0.5 2.5l31 220q2 15 17 15h109q15 0 13 -15l-37 -266q62 68 159 68h1h1zM197 238q-4 -56 25.5 -90t82.5 -34 q63 1 102.5 44t39.5 105q0 52 -29.5 82.5t-78.5 30.5q-52 0 -90.5 -33.5t-48.5 -88.5z" glyph-name="thorn" horiz-adv-x="618" unicode="þ"/><glyph d="M222 566q-27 0 -44 17t-17 45q0 31 23.5 54t55.5 23q27 0 44 -17t17 -44q0 -32 -23.5 -55t-55.5 -23zM442 566q-27 0 -44 17t-17 45q0 31 23.5 54t55.5 23q27 0 44 -17t17 -44q0 -32 -23.5 -55t-55.5 -23zM100 -190q-19 0 -10 17l94 173l-121 473q-5 17 14 17h110 q14 0 17 -12l69 -319l164 319q6 12 19 12h110q19 0 10 -17l-351 -651q-6 -12 -20 -12h-105z" glyph-name="ydieresis" horiz-adv-x="574" unicode="ÿ"/><glyph d="M276 803q-15 0 -13 15l11 77q2 15 17 15h303q16 0 14 -15l-12 -77q-2 -15 -17 -15h-303zM630 17q3 -17 -14 -17h-119q-12 0 -15 12l-19 103h-264l-48 -103q-4 -12 -19 -12h-119q-19 0 -10 17l329 671q6 12 20 12h121q15 0 18 -12zM258 242h181l-52 278z" glyph-name="Amacron" horiz-adv-x="697" unicode="Ā"/><glyph d="M203 593q-15 0 -13 15l11 77q2 15 17 15h303q16 0 14 -15l-12 -77q-2 -15 -17 -15h-303zM575 490q16 0 13 -15l-64 -460q-3 -15 -18 -15h-97q-16 0 -13 15l4 52q-64 -79 -169 -79q-94 0 -146.5 59.5t-52.5 157.5q0 121 75.5 209t191.5 88q108 0 151 -82l10 55q3 15 17 15 h98zM277 114q56 0 95.5 36t46.5 95q8 59 -22 95t-85 36q-64 0 -104 -44t-40 -106q0 -52 29.5 -82t79.5 -30z" glyph-name="amacron" horiz-adv-x="616" unicode="ā"/><glyph d="M426 766q-69 0 -106.5 37t-35.5 92q0 15 16 15h53q12 0 14 -14q3 -21 20 -36t48 -15q57 0 77 51q5 14 19 14h55q15 0 12 -15q-10 -55 -56.5 -92t-115.5 -37zM630 17q3 -17 -14 -17h-119q-12 0 -15 12l-19 103h-264l-48 -103q-4 -12 -19 -12h-119q-19 0 -10 17l329 671 q6 12 20 12h121q15 0 18 -12zM258 242h181l-52 278z" glyph-name="Abreve" horiz-adv-x="697" unicode="Ă"/><glyph d="M354 556q-69 0 -106.5 37t-35.5 92q0 15 16 15h53q12 0 14 -14q3 -21 20 -36t48 -15q57 0 77 51q5 14 19 14h55q15 0 12 -15q-10 -55 -56.5 -92t-115.5 -37zM575 490q16 0 13 -15l-64 -460q-3 -15 -18 -15h-97q-16 0 -13 15l4 52q-64 -79 -169 -79q-94 0 -146.5 59.5 t-52.5 157.5q0 121 75.5 209t191.5 88q108 0 151 -82l10 55q3 15 17 15h98zM277 114q56 0 95.5 36t46.5 95q8 59 -22 95t-85 36q-64 0 -104 -44t-40 -106q0 -52 29.5 -82t79.5 -30z" glyph-name="abreve" horiz-adv-x="616" unicode="ă"/><glyph d="M630 17q3 -17 -14 -17h-2q-41 0 -71.5 -23.5t-30.5 -53.5q0 -20 15 -30.5t46 -4.5l-12 -86q-32 -10 -68.5 -9.5t-66.5 26t-30 67.5q0 74 86 127l-19 102h-264l-48 -103q-4 -12 -19 -12h-119q-19 0 -10 17l329 671q6 12 20 12h121q15 0 18 -12zM258 242h181l-52 278z" glyph-name="Aogonek" horiz-adv-x="697" unicode="Ą"/><glyph d="M575 490q16 0 13 -15l-64 -460q-3 -15 -17 -15q-41 0 -71.5 -23.5t-30.5 -53.5q0 -20 15 -30.5t46 -4.5l-12 -86q-32 -10 -68.5 -9.5t-66.5 26t-30 67.5q0 43 30 79.5t78 59.5l3 42q-64 -79 -169 -79q-94 0 -146.5 59.5t-52.5 157.5q0 121 75.5 209t191.5 88 q108 0 151 -82l10 55q3 15 17 15h98zM277 114q56 0 95.5 36t46.5 95q8 59 -22 95t-85 36q-64 0 -104 -44t-40 -106q0 -52 29.5 -82t79.5 -30z" glyph-name="aogonek" horiz-adv-x="616" unicode="ą"/><glyph d="M616 910q7 0 9 -5t-2 -12l-78 -114q-8 -12 -19 -12h-97q-7 0 -9.5 5t1.5 12l77 114q8 12 19 12h99zM377 -13q-139 0 -227.5 88t-88.5 227q0 164 120 285t288 121q149 0 234 -101q8 -9 -4 -21l-75 -75q-12 -11 -22 -1q-60 58 -146 58q-104 0 -176 -72t-72 -175 q0 -87 52 -140.5t137 -53.5q84 0 160 58q13 10 21 -1l60 -74q8 -11 -3 -21q-115 -102 -258 -102z" glyph-name="Cacute" horiz-adv-x="706" unicode="Ć"/><glyph d="M462 700q7 0 9 -5t-2 -12l-78 -114q-8 -12 -19 -12h-97q-7 0 -9.5 5t1.5 12l77 114q8 12 19 12h99zM260 -12q-102 0 -164.5 63.5t-62.5 163.5q0 118 83 202.5t202 84.5q123 0 183 -87q8 -11 -3 -21l-67 -60q-15 -14 -27 0q-39 41 -94 41q-61 0 -102 -43t-41 -103 q0 -51 31.5 -82.5t85.5 -31.5q55 0 101 41q14 12 26 -1l47 -57q10 -12 -1 -23q-80 -87 -197 -87z" glyph-name="cacute" horiz-adv-x="520" unicode="ć"/><glyph d="M481 776q-27 0 -44 17t-17 45q0 31 23.5 54t55.5 23q27 0 44 -17t17 -44q0 -32 -23.5 -55t-55.5 -23zM377 -13q-139 0 -227.5 88t-88.5 227q0 164 120 285t288 121q149 0 234 -101q8 -9 -4 -21l-75 -75q-12 -11 -22 -1q-60 58 -146 58q-104 0 -176 -72t-72 -175 q0 -87 52 -140.5t137 -53.5q84 0 160 58q13 10 21 -1l60 -74q8 -11 -3 -21q-115 -102 -258 -102z" glyph-name="Cdotaccent" horiz-adv-x="706" unicode="Ċ"/><glyph d="M327 566q-27 0 -44 17t-17 45q0 31 23.5 54t55.5 23q27 0 44 -17t17 -44q0 -32 -23.5 -55t-55.5 -23zM260 -12q-102 0 -164.5 63.5t-62.5 163.5q0 118 83 202.5t202 84.5q123 0 183 -87q8 -11 -3 -21l-67 -60q-15 -14 -27 0q-39 41 -94 41q-61 0 -102 -43t-41 -103 q0 -51 31.5 -82.5t85.5 -31.5q55 0 101 41q14 12 26 -1l47 -57q10 -12 -1 -23q-80 -87 -197 -87z" glyph-name="cdotaccent" horiz-adv-x="520" unicode="ċ"/><glyph d="M638 910q9 0 10 -6t-6 -12l-102 -108q-8 -8 -18 -8h-94q-11 0 -16 8l-74 108q-5 6 -2 12t12 6h73q12 0 17 -8l45 -67l62 67q8 8 19 8h74zM377 -13q-139 0 -227.5 88t-88.5 227q0 164 120 285t288 121q149 0 234 -101q8 -9 -4 -21l-75 -75q-12 -11 -22 -1q-60 58 -146 58 q-104 0 -176 -72t-72 -175q0 -87 52 -140.5t137 -53.5q84 0 160 58q13 10 21 -1l60 -74q8 -11 -3 -21q-115 -102 -258 -102z" glyph-name="Ccaron" horiz-adv-x="706" unicode="Č"/><glyph d="M484 700q9 0 10 -6t-6 -12l-102 -108q-8 -8 -18 -8h-94q-11 0 -16 8l-74 108q-5 6 -2 12t12 6h73q12 0 17 -8l45 -67l62 67q8 8 19 8h74zM260 -12q-102 0 -164.5 63.5t-62.5 163.5q0 118 83 202.5t202 84.5q123 0 183 -87q8 -11 -3 -21l-67 -60q-15 -14 -27 0 q-39 41 -94 41q-61 0 -102 -43t-41 -103q0 -51 31.5 -82.5t85.5 -31.5q55 0 101 41q14 12 26 -1l47 -57q10 -12 -1 -23q-80 -87 -197 -87z" glyph-name="ccaron" horiz-adv-x="520" unicode="č"/><glyph d="M572 910q9 0 10 -6t-6 -12l-102 -108q-8 -8 -18 -8h-94q-11 0 -16 8l-74 108q-5 6 -2 12t12 6h73q12 0 17 -8l45 -67l62 67q8 8 19 8h74zM50 0q-15 0 -13 15l94 670q2 15 17 15h206q152 0 231 -83.5t79 -220.5q0 -173 -114 -284.5t-294 -111.5h-206zM196 127h75 q119 0 183.5 70t64.5 185q0 191 -184 191h-76z" glyph-name="Dcaron" horiz-adv-x="691" unicode="Ď"/><glyph d="M607 715q15 0 13 -15l-96 -685q-3 -15 -18 -15h-97q-16 0 -13 15l4 52q-64 -79 -169 -79q-94 0 -146.5 59.5t-52.5 157.5q0 121 75.5 209t191.5 88q105 0 148 -77l34 275q2 15 17 15h109zM881 687q7 0 9 -5t-2 -12l-77 -114q-8 -12 -19 -12h-97q-7 0 -9.5 5t1.5 12 l77 114q8 12 19 12h98zM277 114q56 0 95.5 36t46.5 95q8 59 -22 95t-85 36q-64 0 -104 -44t-40 -106q0 -52 29.5 -82t79.5 -30z" glyph-name="dcaron" horiz-adv-x="671" unicode="ď"/><glyph d="M362 700q152 0 231 -83.5t79 -220.5q0 -173 -114 -284.5t-294 -111.5h-206q-15 0 -13 15l39 276h-37q-15 0 -13 15l11 77q2 15 17 15h37l40 287q2 15 17 15h206zM279 127q119 0 183.5 70t64.5 185q0 191 -184 191h-76l-25 -175h124q15 0 13 -15l-12 -77q-2 -15 -17 -15 h-123l-23 -164h75z" glyph-name="Dcroat" horiz-adv-x="699" unicode="Đ"/><glyph d="M656 647q15 0 13 -16l-11 -77q-2 -15 -17 -15h-44l-73 -524q-3 -15 -18 -15h-97q-16 0 -13 15l4 52q-64 -79 -169 -79q-94 0 -146.5 59.5t-52.5 157.5q0 121 75.5 209t191.5 88q105 0 148 -77l14 114h-124q-15 0 -13 15l12 77q2 16 17 16h121l7 53q2 15 17 15h109 q15 0 13 -15l-7 -53h43zM277 114q56 0 95.5 36t46.5 95q8 59 -22 95t-85 36q-64 0 -104 -44t-40 -106q0 -52 29.5 -82t79.5 -30z" glyph-name="dcroat" horiz-adv-x="622" unicode="đ"/><glyph d="M517 910q16 0 14 -15l-12 -77q-2 -15 -17 -15h-303q-15 0 -13 15l11 77q2 15 17 15h303zM50 0q-15 0 -13 15l94 670q2 15 17 15h356q15 0 13 -15l-13 -97q-2 -15 -17 -15h-228l-22 -155h214q16 0 14 -15l-14 -97q-2 -15 -17 -15h-215l-23 -164h228q15 0 13 -15l-14 -97 q-2 -15 -17 -15h-356z" glyph-name="Emacron" horiz-adv-x="515" unicode="Ē"/><glyph d="M178 593q-15 0 -13 15l11 77q2 15 17 15h303q16 0 14 -15l-12 -77q-2 -15 -17 -15h-303zM319 502q107 0 161.5 -68.5t40.5 -166.5q-11 -74 -60 -74h-297q11 -94 125 -94q53 0 109 28q14 7 23 -8l26 -43q10 -16 -4 -26q-70 -62 -176 -62t-170.5 62t-64.5 163 q0 118 83.5 203.5t203.5 85.5zM303 388q-46 0 -79.5 -25t-48.5 -73h226q1 48 -25 73t-73 25z" glyph-name="emacron" horiz-adv-x="552" unicode="ē"/><glyph d="M350 776q-27 0 -44 17t-17 45q0 31 23.5 54t55.5 23q27 0 44 -17t17 -44q0 -32 -23.5 -55t-55.5 -23zM50 0q-15 0 -13 15l94 670q2 15 17 15h356q15 0 13 -15l-13 -97q-2 -15 -17 -15h-228l-22 -155h214q16 0 14 -15l-14 -97q-2 -15 -17 -15h-215l-23 -164h228 q15 0 13 -15l-14 -97q-2 -15 -17 -15h-356z" glyph-name="Edotaccent" horiz-adv-x="515" unicode="Ė"/><glyph d="M329 566q-27 0 -44 17t-17 45q0 31 23.5 54t55.5 23q27 0 44 -17t17 -44q0 -32 -23.5 -55t-55.5 -23zM319 502q107 0 161.5 -68.5t40.5 -166.5q-11 -74 -60 -74h-297q11 -94 125 -94q53 0 109 28q14 7 23 -8l26 -43q10 -16 -4 -26q-70 -62 -176 -62t-170.5 62t-64.5 163 q0 118 83.5 203.5t203.5 85.5zM303 388q-46 0 -79.5 -25t-48.5 -73h226q1 48 -25 73t-73 25z" glyph-name="edotaccent" horiz-adv-x="552" unicode="ė"/><glyph d="M504 700q15 0 13 -15l-13 -97q-2 -15 -17 -15h-228l-22 -155h214q16 0 14 -15l-14 -97q-2 -15 -17 -15h-215l-23 -164h228q15 0 13 -15l-14 -97q0 -6 -5 -11l-1 -4q-41 0 -71.5 -23.5t-30.5 -53.5q0 -20 15 -30.5t46 -4.5l-12 -86q-32 -10 -68.5 -9.5t-66.5 26t-30 67.5 q0 64 67 114h-216q-15 0 -13 15l94 670q2 15 17 15h356z" glyph-name="Eogonek" horiz-adv-x="515" unicode="Ę"/><glyph d="M319 502q107 0 161.5 -68.5t40.5 -166.5q-11 -74 -60 -74h-297q11 -94 125 -94q53 0 109 28q14 7 23 -8l26 -43q10 -16 -4 -26q-36 -33 -94 -51q-91 -29 -91 -76q0 -20 15 -30.5t46 -4.5l-12 -86q-32 -10 -68.5 -9.5t-66.5 26t-30 67.5q0 61 60 109q-78 18 -124 76 t-46 142q0 118 83.5 203.5t203.5 85.5zM303 388q-46 0 -79.5 -25t-48.5 -73h226q1 48 -25 73t-73 25z" glyph-name="eogonek" horiz-adv-x="552" unicode="ę"/><glyph d="M507 910q9 0 10 -6t-6 -12l-102 -108q-8 -8 -18 -8h-94q-11 0 -16 8l-74 108q-5 6 -2 12t12 6h73q12 0 17 -8l45 -67l62 67q8 8 19 8h74zM50 0q-15 0 -13 15l94 670q2 15 17 15h356q15 0 13 -15l-13 -97q-2 -15 -17 -15h-228l-22 -155h214q16 0 14 -15l-14 -97 q-2 -15 -17 -15h-215l-23 -164h228q15 0 13 -15l-14 -97q-2 -15 -17 -15h-356z" glyph-name="Ecaron" horiz-adv-x="515" unicode="Ě"/><glyph d="M259 574l-74 108q-5 6 -2 12t12 6h73q12 0 17 -8l45 -67l62 67q8 8 19 8h74q9 0 10 -6t-6 -12l-102 -108q-8 -8 -18 -8h-94q-11 0 -16 8zM319 502q107 0 161.5 -68.5t40.5 -166.5q-11 -74 -60 -74h-297q11 -94 125 -94q53 0 109 28q14 7 23 -8l26 -43q10 -16 -4 -26 q-70 -62 -176 -62t-170.5 62t-64.5 163q0 118 83.5 203.5t203.5 85.5zM303 388q-46 0 -79.5 -25t-48.5 -73h226q1 48 -25 73t-73 25z" glyph-name="ecaron" horiz-adv-x="552" unicode="ě"/><glyph d="M486 766q-69 0 -106.5 37t-35.5 92q0 15 16 15h53q12 0 14 -14q3 -21 20 -36t48 -15q57 0 77 51q5 14 19 14h55q15 0 12 -15q-10 -55 -56.5 -92t-115.5 -37zM743 398q15 0 13 -15l-10 -65q-19 -141 -120 -236t-249 -95q-139 0 -227.5 88t-88.5 227q0 164 120 285t288 121 q149 0 234 -101q8 -9 -4 -21l-75 -75q-12 -11 -22 -1q-60 58 -146 58q-104 0 -176 -72t-72 -175q0 -87 52 -140.5t137 -53.5q83 0 138 41t68 103h-180q-15 0 -13 15l13 97q2 15 17 15h303z" glyph-name="Gbreve" horiz-adv-x="776" unicode="Ğ"/><glyph d="M377 555q-69 0 -106.5 37t-34.5 92q0 15 16 15h53q12 0 14 -14q3 -21 20 -36t47 -15q56 0 78 51q5 14 18 14h55q15 0 12 -15q-10 -55 -56.5 -92t-115.5 -37zM568 490q15 0 13 -15l-63 -448q-9 -63 -38 -110t-71 -72.5t-86.5 -37.5t-92.5 -12q-116 0 -184 55q-15 12 -4 30 l36 55q12 17 26 8q60 -36 126 -36q59 0 104 29t53 92l7 52q-60 -70 -162 -70q-92 0 -145.5 56t-53.5 151q0 119 76.5 202t190.5 83q102 0 144 -71l8 44q3 15 18 15h98zM276 134q54 0 92.5 33t45.5 89t-22 89t-83 33q-61 0 -100.5 -41.5t-39.5 -99.5q0 -48 29 -75.5t78 -27.5 z" glyph-name="gbreve" horiz-adv-x="615" unicode="ğ"/><glyph d="M486 776q-27 0 -44 17t-17 45q0 31 23.5 54t55.5 23q27 0 44 -17t17 -44q0 -32 -23.5 -55t-55.5 -23zM743 398q15 0 13 -15l-10 -65q-19 -141 -120 -236t-249 -95q-139 0 -227.5 88t-88.5 227q0 164 120 285t288 121q149 0 234 -101q8 -9 -4 -21l-75 -75q-12 -11 -22 -1 q-60 58 -146 58q-104 0 -176 -72t-72 -175q0 -87 52 -140.5t137 -53.5q83 0 138 41t68 103h-180q-15 0 -13 15l13 97q2 15 17 15h303z" glyph-name="Gdotaccent" horiz-adv-x="776" unicode="Ġ"/><glyph d="M377 566q-27 0 -44 17t-17 45q0 31 24 54t55 23q27 0 44.5 -17t17.5 -44q0 -32 -24 -55t-56 -23zM568 490q15 0 13 -15l-63 -448q-9 -63 -38 -110t-71 -72.5t-86.5 -37.5t-92.5 -12q-116 0 -184 55q-15 12 -4 30l36 55q12 17 26 8q60 -36 126 -36q59 0 104 29t53 92l7 52 q-60 -70 -162 -70q-92 0 -145.5 56t-53.5 151q0 119 76.5 202t190.5 83q102 0 144 -71l8 44q3 15 18 15h98zM276 134q54 0 92.5 33t45.5 89t-22 89t-83 33q-61 0 -100.5 -41.5t-39.5 -99.5q0 -48 29 -75.5t78 -27.5z" glyph-name="gdotaccent" horiz-adv-x="615" unicode="ġ"/><glyph d="M743 398q15 0 13 -15l-10 -65q-19 -141 -120 -236t-249 -95q-139 0 -227.5 88t-88.5 227q0 164 120 285t288 121q149 0 234 -101q8 -9 -4 -21l-75 -75q-12 -11 -22 -1q-60 58 -146 58q-104 0 -176 -72t-72 -175q0 -87 52 -140.5t137 -53.5q83 0 138 41t68 103h-180 q-15 0 -13 15l13 97q2 15 17 15h303zM353 -23q35 0 58.5 -24t23.5 -69q0 -76 -63 -134.5t-137 -54.5l6 32q49 0 84 44q24 29 13 39q-3 3 -8 3q-31 0 -51 20.5t-20 52.5q0 36 27 63.5t67 27.5z" glyph-name="Gcommaaccent" horiz-adv-x="776" unicode="Ģ"/><glyph d="M332 533q-34 0 -58 24.5t-24 68.5q0 76 63.5 135t137.5 55l-6 -33q-50 0 -85 -43q-23 -29 -12 -39q3 -3 8 -3q30 0 50.5 -21t20.5 -52q0 -37 -27.5 -64.5t-67.5 -27.5zM568 490q15 0 13 -15l-63 -448q-9 -63 -38 -110t-71 -72.5t-86.5 -37.5t-92.5 -12q-116 0 -184 55 q-15 12 -4 30l36 55q12 17 26 8q60 -36 126 -36q59 0 104 29t53 92l7 52q-60 -70 -162 -70q-92 0 -145.5 56t-53.5 151q0 119 76.5 202t190.5 83q102 0 144 -71l8 44q3 15 18 15h98zM276 134q54 0 92.5 33t45.5 89t-22 89t-83 33q-61 0 -100.5 -41.5t-39.5 -99.5 q0 -48 29 -75.5t78 -27.5z" glyph-name="gcommaaccent" horiz-adv-x="608" unicode="ģ"/><glyph d="M661 700q15 0 13 -15l-94 -670q-2 -15 -17 -15h-113q-15 0 -13 15l37 266h-257l-37 -266q-2 -15 -17 -15h-113q-15 0 -13 15l94 670q2 15 17 15h113q15 0 13 -15l-14 -100h257l14 100q2 15 17 15h113zM235 407h257l9 63h-257z" glyph-name="Hbar" horiz-adv-x="681" unicode="Ħ"/><glyph d="M389 502q79 0 121.5 -54t29.5 -148l-40 -285q-2 -15 -17 -15h-108q-15 0 -13 15l36 254q7 51 -14.5 78.5t-65.5 27.5q-83 0 -103 -90l-38 -270q-2 -15 -18 -15h-107q-15 0 -13 15l71 513h-31q-15 0 -13 15l11 77q2 15 17 15h31l9 65q2 15 17 15h107q16 0 14 -15l-9 -65 h134q16 0 14 -15l-12 -77q-2 -15 -17 -15h-134l-15 -110q60 84 156 84z" glyph-name="hbar" horiz-adv-x="591" unicode="ħ"/><glyph d="M385 910q16 0 14 -15l-12 -77q-2 -15 -17 -15h-303q-15 0 -13 15l11 77q2 15 17 15h303zM50 0q-15 0 -13 15l94 670q2 15 17 15h113q15 0 13 -15l-94 -670q-2 -15 -17 -15h-113z" glyph-name="Imacron" horiz-adv-x="282" unicode="Ī"/><glyph d="M340 700q16 0 14 -15l-12 -77q-2 -15 -17 -15h-303q-15 0 -13 15l11 77q2 15 17 15h303zM36 0q-15 0 -13 15l64 460q2 15 17 15h109q15 0 13 -15l-64 -460q-2 -15 -17 -15h-109z" glyph-name="imacron" horiz-adv-x="249" unicode="ī"/><glyph d="M261 700q15 0 13 -15l-94 -670q-2 -15 -17 -15h-1q-41 0 -71.5 -23.5t-30.5 -53.5q0 -20 15 -30.5t46 -4.5l-12 -86q-32 -10 -68.5 -9.5t-66.5 26t-30 67.5q0 79 93 131l94 668q2 15 17 15h113z" glyph-name="Iogonek" horiz-adv-x="282" unicode="Į"/><glyph d="M190 705q27 0 44 -17t17 -44q0 -32 -23.5 -55t-55.5 -23q-27 0 -44 17t-17 45q0 31 23.5 54t55.5 23zM213 490q15 0 13 -15l-64 -460q-2 -15 -17 -15q-41 0 -71.5 -23.5t-30.5 -53.5q0 -20 15 -30.5t46 -4.5l-12 -86q-32 -10 -68.5 -9.5t-66.5 26t-30 67.5q0 41 27 75.5 t70 57.5l63 456q2 15 17 15h109z" glyph-name="iogonek" horiz-adv-x="249" unicode="į"/><glyph d="M218 776q-27 0 -44 17t-17 45q0 31 23.5 54t55.5 23q27 0 44 -17t17 -44q0 -32 -23.5 -55t-55.5 -23zM50 0q-15 0 -13 15l94 670q2 15 17 15h113q15 0 13 -15l-94 -670q-2 -15 -17 -15h-113z" glyph-name="Idotaccent" horiz-adv-x="282" unicode="İ"/><glyph d="M36 0q-15 0 -13 15l64 460q2 15 17 15h109q15 0 13 -15l-64 -460q-2 -15 -17 -15h-109z" glyph-name="dotlessi" horiz-adv-x="249" unicode="ı"/><glyph d="M482 -12q-62 0 -107 21.5t-68 53.5q-8 14 2 26l64 78q11 13 21 1q42 -40 95 -40q107 0 125 133l59 425q2 15 17 15h113q16 0 14 -15l-61 -438q-18 -127 -91.5 -193.5t-182.5 -66.5zM50 0q-15 0 -13 15l94 670q2 15 17 15h113q15 0 13 -15l-94 -670q-2 -15 -17 -15h-113z " glyph-name="IJ" horiz-adv-x="824" unicode="Ĳ"/><glyph d="M189 577q-33 0 -55 22.5t-22 54.5t22 54t55 22q32 0 53.5 -22t21.5 -54t-21.5 -54.5t-53.5 -22.5zM456 577q-33 0 -55 22.5t-22 54.5t22 54t55 22q31 0 53 -22t22 -54t-22 -54.5t-53 -22.5zM44 0q-17 0 -14 15l64 460q3 15 18 15h108q16 0 13 -15l-64 -460 q-3 -15 -17 -15h-108zM240 -200q-45 0 -74 15q-9 4 -7 15l13 91q1 9 14 7q23 -5 40 -5q60 0 67 61l69 491q2 15 17 15h109q15 0 13 -15l-72 -510q-23 -165 -189 -165z" glyph-name="ij" horiz-adv-x="528" unicode="ĳ"/><glyph d="M664 700q9 0 10 -5.5t-6 -12.5l-272 -295l207 -369q5 -8 2 -13t-11 -5h-131q-11 0 -16 9l-153 269l-91 -99l-23 -164q-2 -15 -17 -15h-113q-15 0 -13 15l94 670q2 15 17 15h113q15 0 13 -15l-42 -301l275 308q8 8 18 8h139zM332 -23q35 0 58.5 -24t23.5 -69 q0 -76 -63 -134.5t-137 -54.5l6 32q49 0 84 44q24 29 13 39q-3 3 -8 3q-31 0 -51 20.5t-20 52.5q0 36 27 63.5t67 27.5z" glyph-name="Kcommaaccent" horiz-adv-x="664" unicode="Ķ"/><glyph d="M534 490q10 0 12 -5.5t-6 -12.5l-193 -190l155 -264q4 -8 1 -13t-12 -5h-116q-12 0 -17 9l-107 179l-71 -70l-14 -103q-2 -15 -17 -15h-109q-15 0 -13 15l96 685q2 15 17 15h109q15 0 13 -15l-57 -408l187 190q8 8 19 8h123zM250 -23q35 0 58.5 -24t23.5 -69 q0 -76 -63 -134.5t-137 -54.5l6 32q49 0 84 44q24 29 13 39q-3 3 -8 3q-31 0 -51 20.5t-20 52.5q0 36 27 63.5t67 27.5z" glyph-name="kcommaaccent" horiz-adv-x="562" unicode="ķ"/><glyph d="M153 735q-7 0 -9.5 5t1.5 12l77 114q8 12 19 12h99q7 0 9 -5t-2 -12l-78 -114q-8 -12 -19 -12h-97zM409 127q15 0 13 -15l-13 -97q-2 -15 -17 -15h-342q-15 0 -13 15l94 670q2 15 17 15h113q15 0 13 -15l-78 -558h213z" glyph-name="Lacute" horiz-adv-x="501" unicode="Ĺ"/><glyph d="M342 926q7 0 9 -5t-2 -12l-78 -114q-8 -12 -19 -12h-97q-7 0 -9.5 5t1.5 12l77 114q8 12 19 12h99zM40 0q-16 0 -13 15l96 685q2 15 17 15h109q15 0 13 -15l-96 -685q-3 -15 -17 -15h-109z" glyph-name="lacute" horiz-adv-x="258" unicode="ĺ"/><glyph d="M409 127q15 0 13 -15l-13 -97q-2 -15 -17 -15h-342q-15 0 -13 15l94 670q2 15 17 15h113q15 0 13 -15l-78 -558h213zM207 -23q35 0 58.5 -24t23.5 -69q0 -76 -63 -134.5t-137 -54.5l6 32q49 0 84 44q24 29 13 39q-3 3 -8 3q-31 0 -51 20.5t-20 52.5q0 36 27 63.5t67 27.5 z" glyph-name="Lcommaaccent" horiz-adv-x="480" unicode="Ļ"/><glyph d="M40 0q-16 0 -13 15l96 685q2 15 17 15h109q15 0 13 -15l-96 -685q-3 -15 -17 -15h-109zM-30 -305l6 32q49 0 84 44q24 29 13 39q-3 3 -8 3q-31 0 -51 20.5t-20 52.5q0 36 27 63.5t67 27.5q35 0 58.5 -24t23.5 -69q0 -76 -63 -134.5t-137 -54.5z" glyph-name="lcommaaccent" horiz-adv-x="258" unicode="ļ"/><glyph d="M428 710q35 0 59 -24t24 -69q0 -76 -63.5 -134.5t-137.5 -54.5l6 32q49 0 84 43q24 29 13 39q-3 3 -8 3q-31 0 -51 21t-20 53q0 36 27.5 63.5t66.5 27.5zM409 127q15 0 13 -15l-13 -97q-2 -15 -17 -15h-342q-15 0 -13 15l94 670q2 15 17 15h113q15 0 13 -15l-78 -558h213 z" glyph-name="Lcaron" horiz-adv-x="496" unicode="Ľ"/><glyph d="M269 468l6 32q50 0 85 43q23 29 12 39q-3 3 -8 3q-30 0 -50.5 21.5t-20.5 52.5q0 36 27.5 63.5t67.5 27.5q35 0 58.5 -24t23.5 -69q0 -76 -63.5 -134.5t-137.5 -54.5zM40 0q-16 0 -13 15l96 685q2 15 17 15h109q15 0 13 -15l-96 -685q-3 -15 -17 -15h-109z" glyph-name="lcaron" horiz-adv-x="425" unicode="ľ"/><glyph d="M409 127q15 0 13 -15l-13 -97q-2 -15 -17 -15h-342q-15 0 -13 15l94 670q2 15 17 15h113q15 0 13 -15l-78 -558h213zM413 457q34 0 58 -24.5t24 -58.5t-24 -58t-58 -24q-35 0 -59 24t-24 58t24 58.5t59 24.5z" glyph-name="Ldot" horiz-adv-x="514" unicode="Ŀ"/><glyph d="M40 0q-16 0 -13 15l96 685q2 15 17 15h109q15 0 13 -15l-96 -685q-3 -15 -17 -15h-109zM346 290q-34 0 -58 24t-24 58q0 35 24 59t58 24t58 -24t24 -59q0 -34 -24 -58t-58 -24z" glyph-name="ldot" horiz-adv-x="287" unicode="ŀ"/><glyph d="M430 127q15 0 13 -15l-13 -97q-2 -15 -17 -15h-341q-15 0 -13 15l26 189l-37 -37q-8 -7 -13 -4.5t-5 12.5v91q0 11 8 19l68 67l47 333q2 15 17 15h113q15 0 13 -15l-24 -171l52 51q8 7 13 4.5t5 -12.5v-90q0 -11 -8 -19l-83 -81l-33 -240h212z" glyph-name="Lslash" horiz-adv-x="501" unicode="Ł"/><glyph d="M310 552l-12 -87l-86 -83l-51 -367q-3 -15 -17 -15h-109q-16 0 -13 15l30 211l-69 -67l12 88l69 67l54 386q2 15 17 15h109q15 0 13 -15l-32 -231z" glyph-name="lslash" horiz-adv-x="262" unicode="ł"/><glyph d="M372 767q-7 0 -9.5 5t1.5 12l77 114q8 12 19 12h99q7 0 9 -5t-2 -12l-78 -114q-8 -12 -19 -12h-97zM677 700q15 0 13 -15l-94 -670q-2 -15 -17 -15h-134q-13 0 -17 10l-183 470l-65 -465q-2 -15 -17 -15h-113q-15 0 -13 15l94 670q2 15 17 15h132q13 0 17 -10l184 -473 l66 468q2 15 17 15h113z" glyph-name="Nacute" horiz-adv-x="697" unicode="Ń"/><glyph d="M288 557q-7 0 -9.5 5t1.5 12l77 114q8 12 19 12h99q7 0 9 -5t-2 -12l-78 -114q-8 -12 -19 -12h-97zM378 502q79 0 121.5 -54t29.5 -148l-40 -285q-2 -15 -18 -15h-107q-15 0 -13 15l35 254q7 51 -14 78.5t-65 27.5q-43 0 -71 -27.5t-35 -78.5l-36 -254q-2 -15 -17 -15 h-108q-15 0 -13 15l64 460q2 15 17 15h104q15 0 13 -15l-4 -58q59 85 157 85z" glyph-name="nacute" unicode="ń"/><glyph d="M677 700q15 0 13 -15l-94 -670q-2 -15 -17 -15h-134q-13 0 -17 10l-183 470l-65 -465q-2 -15 -17 -15h-113q-15 0 -13 15l94 670q2 15 17 15h132q13 0 17 -10l184 -473l66 468q2 15 17 15h113zM306 -23q35 0 58.5 -24t23.5 -69q0 -76 -63 -134.5t-137 -54.5l6 32 q49 0 84 44q24 29 13 39q-3 3 -8 3q-31 0 -51 20.5t-20 52.5q0 36 27 63.5t67 27.5z" glyph-name="Ncommaaccent" horiz-adv-x="697" unicode="Ņ"/><glyph d="M378 502q79 0 121.5 -54t29.5 -148l-40 -285q-2 -15 -18 -15h-107q-15 0 -13 15l35 254q7 51 -14 78.5t-65 27.5q-43 0 -71 -27.5t-35 -78.5l-36 -254q-2 -15 -17 -15h-108q-15 0 -13 15l64 460q2 15 17 15h104q15 0 13 -15l-4 -58q59 85 157 85zM252 -23q35 0 58.5 -24 t23.5 -69q0 -76 -63 -134.5t-137 -54.5l6 32q49 0 84 44q24 29 13 39q-3 3 -8 3q-31 0 -51 20.5t-20 52.5q0 36 27 63.5t67 27.5z" glyph-name="ncommaaccent" unicode="ņ"/><glyph d="M355 784l-74 108q-5 6 -2 12t12 6h73q12 0 17 -8l45 -67l62 67q8 8 19 8h74q9 0 10 -6t-6 -12l-102 -108q-8 -8 -18 -8h-94q-11 0 -16 8zM677 700q15 0 13 -15l-94 -670q-2 -15 -17 -15h-134q-13 0 -17 10l-183 470l-65 -465q-2 -15 -17 -15h-113q-15 0 -13 15l94 670 q2 15 17 15h132q13 0 17 -10l184 -473l66 468q2 15 17 15h113z" glyph-name="Ncaron" horiz-adv-x="697" unicode="Ň"/><glyph d="M271 574l-74 108q-5 6 -2 12t12 6h73q12 0 17 -8l45 -67l62 67q8 8 19 8h74q9 0 10 -6t-6 -12l-102 -108q-8 -8 -18 -8h-94q-11 0 -16 8zM378 502q79 0 121.5 -54t29.5 -148l-40 -285q-2 -15 -18 -15h-107q-15 0 -13 15l35 254q7 51 -14 78.5t-65 27.5q-43 0 -71 -27.5 t-35 -78.5l-36 -254q-2 -15 -17 -15h-108q-15 0 -13 15l64 460q2 15 17 15h104q15 0 13 -15l-4 -58q59 85 157 85z" glyph-name="ncaron" unicode="ň"/><glyph d="M677 700q15 0 13 -15l-34 -242v-3l-61 -438q-17 -127 -91 -193.5t-183 -66.5q-61 0 -107 21.5t-68 53.5q-9 13 2 26l65 78q11 13 21 1q42 -40 94 -40q101 0 123 118h-6q-13 0 -17 10l-183 470l-65 -465q-2 -15 -17 -15h-113q-15 0 -13 15l94 670q2 15 17 15h132 q13 0 17 -10l184 -473l66 468q2 15 17 15h113z" glyph-name="Eng" horiz-adv-x="698" unicode="Ŋ"/><glyph d="M378 502q79 0 121.5 -54t29.5 -148l-40 -285v-2l-1 -5q-13 -100 -76.5 -153t-156.5 -53q-9 0 -12 8l-18 109q-2 11 9 11q43 0 77.5 27.5t42.5 80.5l3 17l29 214q7 51 -14 78.5t-65 27.5q-43 0 -71 -27.5t-35 -78.5l-36 -254q-2 -15 -17 -15h-108q-15 0 -13 15l64 460 q2 15 17 15h104q15 0 13 -15l-4 -58q59 85 157 85z" glyph-name="eng" unicode="ŋ"/><glyph d="M655 910q16 0 14 -15l-12 -77q-2 -15 -17 -15h-303q-15 0 -13 15l11 77q2 15 17 15h303zM376 -13q-138 0 -227 88t-89 223q0 166 122.5 288t290.5 122q138 0 226.5 -88t88.5 -223q0 -166 -122 -288t-290 -122zM395 127q103 0 175 73.5t72 178.5q0 85 -52 137t-135 52 q-103 0 -175.5 -73t-72.5 -177q0 -85 52 -138t136 -53z" glyph-name="Omacron" horiz-adv-x="820" unicode="Ō"/><glyph d="M506 700q16 0 14 -15l-12 -77q-2 -15 -17 -15h-303q-15 0 -13 15l11 77q2 15 17 15h303zM258 -12q-101 0 -163.5 62t-62.5 160q0 118 86.5 205t207.5 87q100 0 162.5 -62t62.5 -160q0 -118 -86.5 -205t-206.5 -87zM275 115q58 0 100 41t42 106q0 52 -30 82.5t-79 30.5 q-58 0 -100 -41t-42 -105q0 -53 30 -83.5t79 -30.5z" glyph-name="omacron" horiz-adv-x="583" unicode="ō"/><glyph d="M538 910q7 0 9 -5t-2 -12l-78 -114q-8 -12 -19 -12h-97q-7 0 -9.5 5t1.5 12l77 114q8 12 19 12h99zM725 910q7 0 9 -5t-2 -12l-77 -114q-8 -12 -19 -12h-97q-7 0 -9.5 5t1.5 12l77 114q8 12 19 12h98zM376 -13q-138 0 -227 88t-89 223q0 166 122.5 288t290.5 122 q138 0 226.5 -88t88.5 -223q0 -166 -122 -288t-290 -122zM395 127q103 0 175 73.5t72 178.5q0 85 -52 137t-135 52q-103 0 -175.5 -73t-72.5 -177q0 -85 52 -138t136 -53z" glyph-name="Ohungarumlaut" horiz-adv-x="820" unicode="Ő"/><glyph d="M389 700q7 0 9 -5t-2 -12l-78 -114q-8 -12 -19 -12h-97q-7 0 -9.5 5t1.5 12l77 114q8 12 19 12h99zM576 700q7 0 9 -5t-2 -12l-77 -114q-8 -12 -19 -12h-97q-7 0 -9.5 5t1.5 12l77 114q8 12 19 12h98zM258 -12q-101 0 -163.5 62t-62.5 160q0 118 86.5 205t207.5 87 q100 0 162.5 -62t62.5 -160q0 -118 -86.5 -205t-206.5 -87zM275 115q58 0 100 41t42 106q0 52 -30 82.5t-79 30.5q-58 0 -100 -41t-42 -105q0 -53 30 -83.5t79 -30.5z" glyph-name="ohungarumlaut" horiz-adv-x="583" unicode="ő"/><glyph d="M1062 700q15 0 13 -15l-13 -97q-2 -15 -17 -15h-228l-22 -155h215q15 0 13 -15l-14 -97q-2 -15 -17 -15h-215l-23 -164h228q15 0 13 -15l-14 -97q-2 -15 -17 -15h-356q-15 0 -13 15l6 41q-104 -69 -225 -69q-138 0 -227 88t-89 223q0 166 122.5 288t290.5 122 q124 0 209 -72l7 49q2 15 17 15h356zM395 127q103 0 175 73.5t72 178.5q0 85 -52 137t-135 52q-103 0 -175.5 -73t-72.5 -177q0 -85 52 -138t136 -53z" glyph-name="OE" horiz-adv-x="1073" unicode="Œ"/><glyph d="M701 502q107 0 162 -68.5t41 -166.5q-12 -74 -60 -74h-297q11 -94 125 -94q53 0 108 28q13 7 24 -8l26 -43q10 -15 -4 -26q-71 -62 -177 -62q-124 0 -188 83q-86 -83 -203 -83q-101 0 -163.5 62t-62.5 160q0 118 86.5 205t207.5 87q115 0 178 -79q84 79 197 79zM686 388 q-46 0 -79.5 -25t-48.5 -73h226q1 48 -25.5 73t-72.5 25zM275 115q58 0 100 41t42 106q0 52 -30 82.5t-79 30.5q-58 0 -100 -41t-42 -105q0 -53 30 -83.5t79 -30.5z" glyph-name="oe" horiz-adv-x="935" unicode="œ"/><glyph d="M314 767q-7 0 -9.5 5t1.5 12l77 114q8 12 19 12h99q7 0 9 -5t-2 -12l-78 -114q-8 -12 -19 -12h-97zM404 261l123 -243q4 -8 0.5 -13t-12.5 -5h-120q-13 0 -17 10l-115 235h-51l-32 -230q-2 -15 -17 -15h-113q-15 0 -13 15l94 670q2 15 17 15h211q108 0 162.5 -51.5 t54.5 -144.5q0 -88 -45.5 -152t-126.5 -91zM259 573l-28 -201h78q62 0 95.5 30.5t33.5 83.5q0 87 -101 87h-78z" glyph-name="Racute" horiz-adv-x="601" unicode="Ŕ"/><glyph d="M389 700q7 0 9 -5t-2 -12l-78 -114q-8 -12 -19 -12h-97q-7 0 -9.5 5t1.5 12l77 114q8 12 19 12h99zM382 490q8 -7 7 -20l-12 -86q-3 -18 -24 -12q-15 5 -38 5q-99 0 -115 -116l-34 -246q-2 -15 -17 -15h-109q-15 0 -13 15l64 460q2 15 17 15h104q15 0 13 -15l-5 -65 q42 92 117 92q31 0 45 -12z" glyph-name="racute" horiz-adv-x="387" unicode="ŕ"/><glyph d="M404 261l123 -243q4 -8 0.5 -13t-12.5 -5h-120q-13 0 -17 10l-115 235h-51l-32 -230q-2 -15 -17 -15h-113q-15 0 -13 15l94 670q2 15 17 15h211q108 0 162.5 -51.5t54.5 -144.5q0 -88 -45.5 -152t-126.5 -91zM259 573l-28 -201h78q62 0 95.5 30.5t33.5 83.5q0 87 -101 87 h-78zM248 -23q35 0 58.5 -24t23.5 -69q0 -76 -63 -134.5t-137 -54.5l6 32q49 0 84 44q24 29 13 39q-3 3 -8 3q-31 0 -51 20.5t-20 52.5q0 36 27 63.5t67 27.5z" glyph-name="Rcommaaccent" horiz-adv-x="601" unicode="Ŗ"/><glyph d="M382 490q8 -7 7 -20l-12 -86q-3 -18 -24 -12q-15 5 -38 5q-99 0 -115 -116l-34 -246q-2 -15 -17 -15h-109q-15 0 -13 15l64 460q2 15 17 15h104q15 0 13 -15l-5 -65q42 92 117 92q31 0 45 -12zM87 -23q35 0 58.5 -24t23.5 -69q0 -76 -63 -134.5t-137 -54.5l6 32 q49 0 84 44q24 29 13 39q-3 3 -8 3q-31 0 -51 20.5t-20 52.5q0 36 27 63.5t67 27.5z" glyph-name="rcommaaccent" horiz-adv-x="387" unicode="ŗ"/><glyph d="M297 784l-74 108q-5 6 -2 12t12 6h73q12 0 17 -8l45 -67l62 67q8 8 19 8h74q9 0 10 -6t-6 -12l-102 -108q-8 -8 -18 -8h-94q-11 0 -16 8zM404 261l123 -243q4 -8 0.5 -13t-12.5 -5h-120q-13 0 -17 10l-115 235h-51l-32 -230q-2 -15 -17 -15h-113q-15 0 -13 15l94 670 q2 15 17 15h211q108 0 162.5 -51.5t54.5 -144.5q0 -88 -45.5 -152t-126.5 -91zM259 573l-28 -201h78q62 0 95.5 30.5t33.5 83.5q0 87 -101 87h-78z" glyph-name="Rcaron" horiz-adv-x="601" unicode="Ř"/><glyph d="M411 700q9 0 10 -6t-6 -12l-102 -108q-8 -8 -18 -8h-94q-11 0 -16 8l-74 108q-5 6 -2 12t12 6h73q12 0 17 -8l45 -67l62 67q8 8 19 8h74zM382 490q8 -7 7 -20l-12 -86q-3 -18 -24 -12q-15 5 -38 5q-99 0 -115 -116l-34 -246q-2 -15 -17 -15h-109q-15 0 -13 15l64 460 q2 15 17 15h104q15 0 13 -15l-5 -65q42 92 117 92q31 0 45 -12z" glyph-name="rcaron" horiz-adv-x="387" unicode="ř"/><glyph d="M479 910q7 0 9 -5t-2 -12l-78 -114q-8 -12 -19 -12h-97q-7 0 -9.5 5t1.5 12l77 114q8 12 19 12h99zM252 -12q-78 0 -137.5 31.5t-86.5 77.5q-6 11 4 21l70 69q11 11 23 1q58 -69 135 -69q47 0 75.5 21.5t28.5 60.5q0 31 -16.5 46.5t-55.5 35.5l-70 36q-124 64 -124 174 q0 94 68 154.5t172 60.5q125 0 197 -92q10 -12 -3 -25l-66 -68q-12 -12 -23 -3q-57 57 -118 57q-41 0 -64.5 -19.5t-23.5 -51.5q0 -25 17 -41.5t62 -38.5l58 -30q41 -21 65 -39t45 -54.5t21 -85.5q0 -102 -71.5 -165.5t-181.5 -63.5z" glyph-name="Sacute" horiz-adv-x="556" unicode="Ś"/><glyph d="M409 700q7 0 9 -5t-2 -12l-78 -114q-8 -12 -19 -12h-97q-7 0 -9.5 5t1.5 12l77 114q8 12 19 12h99zM195 -12q-58 0 -104.5 22.5t-71.5 58.5q-7 10 5 27l43 51q13 14 27 4q54 -48 104 -48q61 0 61 44q0 32 -44 50l-58 25q-90 38 -90 119q0 69 55.5 115t132.5 46 q105 0 158 -75q7 -11 -4 -22l-53 -53q-11 -11 -23 0q-38 42 -80 42q-26 0 -40 -13t-14 -31q0 -28 42 -45l64 -27q92 -39 92 -122q0 -74 -58.5 -121t-143.5 -47z" glyph-name="sacute" horiz-adv-x="450" unicode="ś"/><glyph d="M325 577q-41 0 -64.5 -19.5t-23.5 -51.5q0 -25 17 -41.5t62 -38.5l58 -30q41 -21 65 -39t45 -54.5t21 -85.5q0 -98 -67 -161t-171 -68l-27 -22q33 -2 55.5 -22.5t22.5 -57.5q0 -58 -57.5 -86.5t-133.5 -16.5q-10 2 -9 13l6 46q2 12 14 10q86 -8 86 25q0 17 -22 23t-57 -6 q-6 -2 -9 0t-2 7l7 50q2 9 6 12l39 32q-111 23 -158 102q-6 11 4 21l70 69q11 11 23 1q58 -69 135 -69q47 0 75.5 21.5t28.5 60.5q0 31 -16.5 46.5t-55.5 35.5l-70 36q-124 64 -124 174q0 94 68 154.5t172 60.5q125 0 197 -92q10 -12 -3 -25l-66 -68q-12 -12 -23 -3 q-57 57 -118 57z" glyph-name="Scedilla" horiz-adv-x="556" unicode="Ş"/><glyph d="M253 394q-26 0 -40 -13t-14 -31q0 -28 42 -45l64 -27q92 -39 92 -122q0 -66 -47 -111t-120 -55l-30 -24q33 -2 55.5 -22.5t22.5 -57.5q0 -58 -57.5 -86.5t-133.5 -16.5q-10 2 -9 13l6 46q2 12 14 10q86 -8 86 25q0 17 -22 23t-57 -6q-6 -2 -9 0t-2 7l7 50q2 9 6 12l37 30 q-83 18 -125 76q-7 10 5 27l43 51q13 14 27 4q54 -48 104 -48q61 0 61 44q0 32 -44 50l-58 25q-90 38 -90 119q0 69 55.5 115t132.5 46q105 0 158 -75q7 -11 -4 -22l-53 -53q-11 -11 -23 0q-38 42 -80 42z" glyph-name="scedilla" horiz-adv-x="450" unicode="ş"/><glyph d="M501 910q9 0 10 -6t-6 -12l-102 -108q-8 -8 -18 -8h-94q-11 0 -16 8l-74 108q-5 6 -2 12t12 6h73q12 0 17 -8l45 -67l62 67q8 8 19 8h74zM252 -12q-78 0 -137.5 31.5t-86.5 77.5q-6 11 4 21l70 69q11 11 23 1q58 -69 135 -69q47 0 75.5 21.5t28.5 60.5q0 31 -16.5 46.5 t-55.5 35.5l-70 36q-124 64 -124 174q0 94 68 154.5t172 60.5q125 0 197 -92q10 -12 -3 -25l-66 -68q-12 -12 -23 -3q-57 57 -118 57q-41 0 -64.5 -19.5t-23.5 -51.5q0 -25 17 -41.5t62 -38.5l58 -30q41 -21 65 -39t45 -54.5t21 -85.5q0 -102 -71.5 -165.5t-181.5 -63.5z " glyph-name="Scaron" horiz-adv-x="556" unicode="Š"/><glyph d="M431 700q9 0 10 -6t-6 -12l-102 -108q-8 -8 -18 -8h-94q-11 0 -16 8l-74 108q-5 6 -2 12t12 6h73q12 0 17 -8l45 -67l62 67q8 8 19 8h74zM195 -12q-58 0 -104.5 22.5t-71.5 58.5q-7 10 5 27l43 51q13 14 27 4q54 -48 104 -48q61 0 61 44q0 32 -44 50l-58 25 q-90 38 -90 119q0 69 55.5 115t132.5 46q105 0 158 -75q7 -11 -4 -22l-53 -53q-11 -11 -23 0q-38 42 -80 42q-26 0 -40 -13t-14 -31q0 -28 42 -45l64 -27q92 -39 92 -122q0 -74 -58.5 -121t-143.5 -47z" glyph-name="scaron" horiz-adv-x="450" unicode="š"/><glyph d="M544 700q15 0 13 -15l-13 -97q-2 -15 -17 -15h-137l-78 -558q-2 -15 -17 -15h-8l-42 -34q33 -2 55.5 -22.5t22.5 -57.5q0 -58 -57.5 -86.5t-133.5 -16.5q-10 2 -9 13l6 46q2 12 14 10q86 -8 86 25q0 17 -22.5 23t-56.5 -6q-6 -2 -9 0t-2 7l7 50q2 9 6 12l45 37h-15 q-15 0 -13 15l78 558h-136q-15 0 -13 15l13 97q2 15 17 15h416z" glyph-name="Tcommaaccent" horiz-adv-x="545" unicode="Ţ"/><glyph d="M356 490q15 0 13 -15l-12 -77q-2 -15 -17 -15h-75l-34 -237q-6 -43 37 -43q19 0 31 1q8 1 12.5 -3t3.5 -11l-10 -73q-4 -24 -76 -29l-23 -19q33 -2 55.5 -22.5t22.5 -57.5q0 -58 -57.5 -86.5t-133.5 -16.5q-10 2 -9 13l6 46q2 12 14 10q86 -8 86 25q0 17 -22 23t-57 -6 q-6 -2 -9 0t-2 7l7 50q2 9 6 12l40 33q-77 29 -63 132l36 252h-62q-15 0 -13 15l10 77q2 15 17 15h63l16 115q2 15 17 15h109q15 0 13 -15l-16 -115h76z" glyph-name="tcommaaccent" horiz-adv-x="366" unicode="ţ"/><glyph d="M506 910q9 0 10 -6t-6 -12l-102 -108q-8 -8 -18 -8h-94q-11 0 -16 8l-74 108q-5 6 -2 12t12 6h73q12 0 17 -8l45 -67l62 67q8 8 19 8h74zM182 0q-15 0 -13 15l78 558h-136q-15 0 -13 15l13 97q2 15 17 15h416q15 0 13 -15l-13 -97q-2 -15 -17 -15h-137l-78 -558 q-2 -15 -17 -15h-113z" glyph-name="Tcaron" horiz-adv-x="545" unicode="Ť"/><glyph d="M573 672q7 0 9 -5t-2 -12l-77 -114q-8 -12 -20 -12h-97q-7 0 -9.5 5t1.5 12l77 114q8 12 19 12h99zM356 490q15 0 13 -15l-12 -77q-2 -15 -17 -15h-75l-34 -237q-6 -43 37 -43q19 0 31 1q8 1 12.5 -3t3.5 -11l-10 -73q-4 -29 -87 -29q-65 0 -101.5 34t-26.5 109l36 252 h-62q-15 0 -13 15l10 77q2 15 17 15h63l16 115q2 15 17 15h109q15 0 13 -15l-16 -115h76z" glyph-name="tcaron" horiz-adv-x="497" unicode="ť"/><glyph d="M544 700q15 0 13 -15l-13 -97q-2 -15 -17 -15h-137l-12 -83h81q15 0 13 -15l-11 -77q-2 -15 -17 -15h-81l-51 -368q-2 -15 -17 -15h-113q-15 0 -13 15l51 368h-80q-15 0 -13 15l12 77q2 15 17 15h79l12 83h-136q-15 0 -13 15l13 97q2 15 17 15h416z" glyph-name="Tbar" horiz-adv-x="545" unicode="Ŧ"/><glyph d="M356 490q15 0 13 -15l-12 -77q-2 -15 -17 -15h-75l-8 -51h77q15 0 13 -15l-11 -82q-2 -15 -17 -15h-78l-10 -74q-6 -43 37 -43q19 0 31 1q8 1 12.5 -3t3.5 -11l-10 -73q-4 -29 -87 -29q-65 0 -101.5 34t-26.5 109l13 89h-62q-15 0 -13 15l11 82q2 15 17 15h62l8 51h-62 q-15 0 -13 15l10 77q2 15 17 15h63l16 115q2 15 17 15h109q15 0 13 -15l-16 -115h76z" glyph-name="tbar" horiz-adv-x="366" unicode="ŧ"/><glyph d="M346 932q28 0 51.5 -11t37 -24t31.5 -24t36 -11q35 0 50 28q4 8 14 8h28q13 0 10 -12q-10 -50 -43.5 -76.5t-76.5 -26.5q-28 0 -51.5 11t-37 24.5t-31.5 24.5t-36 11q-34 0 -50 -28q-5 -8 -13 -8h-28q-13 0 -10 13q11 50 43.5 75.5t75.5 25.5zM296 -13 q-121 0 -184.5 72.5t-43.5 206.5l58 419q2 15 17 15h113q15 0 13 -15l-58 -416q-10 -68 17 -105t85 -37q57 0 93.5 36.5t46.5 105.5l59 416q2 15 17 15h113q15 0 13 -15l-59 -419q-19 -135 -100 -207t-200 -72z" glyph-name="Utilde" horiz-adv-x="657" unicode="Ũ"/><glyph d="M169 608q-13 0 -10 13q11 50 43.5 75.5t75.5 25.5q28 0 51.5 -11t37 -24t31.5 -24t36 -11q35 0 50 28q4 8 14 8h28q13 0 10 -12q-10 -50 -43.5 -76.5t-76.5 -26.5q-28 0 -51.5 11t-37 24.5t-31.5 24.5t-36 11q-34 0 -50 -28q-5 -8 -13 -8h-28zM540 490q15 0 13 -15 l-64 -460q-2 -15 -17 -15h-104q-15 0 -13 15l4 58q-59 -85 -157 -85q-79 0 -121.5 54t-29.5 148l40 285q2 15 18 15h107q15 0 13 -15l-35 -254q-7 -51 14 -78.5t65 -27.5q43 0 71 27.5t35 78.5l36 254q2 15 17 15h108z" glyph-name="utilde" unicode="ũ"/><glyph d="M573 910q16 0 14 -15l-12 -77q-2 -15 -17 -15h-303q-15 0 -13 15l11 77q2 15 17 15h303zM296 -13q-121 0 -184.5 72.5t-43.5 206.5l58 419q2 15 17 15h113q15 0 13 -15l-58 -416q-10 -68 17 -105t85 -37q57 0 93.5 36.5t46.5 105.5l59 416q2 15 17 15h113q15 0 13 -15 l-59 -419q-19 -135 -100 -207t-200 -72z" glyph-name="Umacron" horiz-adv-x="657" unicode="Ū"/><glyph d="M187 593q-15 0 -13 15l11 77q2 15 17 15h303q16 0 14 -15l-12 -77q-2 -15 -17 -15h-303zM540 490q15 0 13 -15l-64 -460q-2 -15 -17 -15h-104q-15 0 -13 15l4 58q-59 -85 -157 -85q-79 0 -121.5 54t-29.5 148l40 285q2 15 18 15h107q15 0 13 -15l-35 -254 q-7 -51 14 -78.5t65 -27.5q43 0 71 27.5t35 78.5l36 254q2 15 17 15h108z" glyph-name="umacron" unicode="ū"/><glyph d="M492 896q5 14 19 14h55q15 0 12 -15q-10 -55 -56.5 -92t-115.5 -37t-106.5 37t-35.5 92q0 15 16 15h53q12 0 14 -14q3 -21 20 -36t48 -15q57 0 77 51zM296 -13q-121 0 -184.5 72.5t-43.5 206.5l58 419q2 15 17 15h113q15 0 13 -15l-58 -416q-10 -68 17 -105t85 -37 q57 0 93.5 36.5t46.5 105.5l59 416q2 15 17 15h113q15 0 13 -15l-59 -419q-19 -135 -100 -207t-200 -72z" glyph-name="Ubreve" horiz-adv-x="657" unicode="Ŭ"/><glyph d="M337 556q-69 0 -106.5 37t-35.5 92q0 15 16 15h53q12 0 14 -14q3 -21 20 -36t48 -15q57 0 77 51q5 14 19 14h55q15 0 12 -15q-10 -55 -56.5 -92t-115.5 -37zM540 490q15 0 13 -15l-64 -460q-2 -15 -17 -15h-104q-15 0 -13 15l4 58q-59 -85 -157 -85q-79 0 -121.5 54 t-29.5 148l40 285q2 15 18 15h107q15 0 13 -15l-35 -254q-7 -51 14 -78.5t65 -27.5q43 0 71 27.5t35 78.5l36 254q2 15 17 15h108z" glyph-name="ubreve" unicode="ŭ"/><glyph d="M404 748q-43 0 -68.5 25.5t-25.5 64.5q0 45 33 79t82 34q42 0 67.5 -25.5t25.5 -64.5q0 -45 -32.5 -79t-81.5 -34zM412 825q11 0 18.5 8t7.5 19q0 9 -6 15.5t-16 6.5q-11 0 -18.5 -8t-7.5 -19q0 -9 6 -15.5t16 -6.5zM296 -13q-121 0 -184.5 72.5t-43.5 206.5l58 419 q2 15 17 15h113q15 0 13 -15l-58 -416q-10 -68 17 -105t85 -37q57 0 93.5 36.5t46.5 105.5l59 416q2 15 17 15h113q15 0 13 -15l-59 -419q-19 -135 -100 -207t-200 -72z" glyph-name="Uring" horiz-adv-x="657" unicode="Ů"/><glyph d="M335 538q-43 0 -68.5 25.5t-25.5 64.5q0 45 33 79t82 34q42 0 67.5 -25.5t25.5 -64.5q0 -45 -32.5 -79t-81.5 -34zM347 664q-11 0 -18.5 -8t-7.5 -19q0 -9 6 -15.5t16 -6.5q11 0 18.5 8t7.5 19q0 9 -6 15.5t-16 6.5zM540 490q15 0 13 -15l-64 -460q-2 -15 -17 -15h-104 q-15 0 -13 15l4 58q-59 -85 -157 -85q-79 0 -121.5 54t-29.5 148l40 285q2 15 18 15h107q15 0 13 -15l-35 -254q-7 -51 14 -78.5t65 -27.5q43 0 71 27.5t35 78.5l36 254q2 15 17 15h108z" glyph-name="uring" unicode="ů"/><glyph d="M456 910q7 0 9 -5t-2 -12l-78 -114q-8 -12 -19 -12h-97q-7 0 -9.5 5t1.5 12l77 114q8 12 19 12h99zM643 910q7 0 9 -5t-2 -12l-77 -114q-8 -12 -19 -12h-97q-7 0 -9.5 5t1.5 12l77 114q8 12 19 12h98zM296 -13q-121 0 -184.5 72.5t-43.5 206.5l58 419q2 15 17 15h113 q15 0 13 -15l-58 -416q-10 -68 17 -105t85 -37q57 0 93.5 36.5t46.5 105.5l59 416q2 15 17 15h113q15 0 13 -15l-59 -419q-19 -135 -100 -207t-200 -72z" glyph-name="Uhungarumlaut" horiz-adv-x="657" unicode="Ű"/><glyph d="M201 557q-7 0 -9.5 5t1.5 12l77 114q8 12 19 12h99q7 0 9 -5t-2 -12l-78 -114q-8 -12 -19 -12h-97zM575 700q7 0 9 -5t-2 -12l-77 -114q-8 -12 -19 -12h-97q-7 0 -9.5 5t1.5 12l77 114q8 12 19 12h98zM540 490q15 0 13 -15l-64 -460q-2 -15 -17 -15h-104q-15 0 -13 15 l4 58q-59 -85 -157 -85q-79 0 -121.5 54t-29.5 148l40 285q2 15 18 15h107q15 0 13 -15l-35 -254q-7 -51 14 -78.5t65 -27.5q43 0 71 27.5t35 78.5l36 254q2 15 17 15h108z" glyph-name="uhungarumlaut" unicode="ű"/><glyph d="M642 700q15 0 13 -15l-59 -419q-15 -110 -73.5 -179t-147.5 -91q-80 -28 -80 -73q0 -20 14.5 -30.5t45.5 -4.5l-12 -86q-32 -10 -68.5 -9.5t-66.5 26t-30 67.5q0 61 57 106q-93 18 -138.5 88.5t-28.5 185.5l58 419q2 15 17 15h113q15 0 13 -15l-58 -416q-10 -68 17 -105 t85 -37q57 0 93.5 36.5t46.5 105.5l59 416q2 15 17 15h113z" glyph-name="Uogonek" horiz-adv-x="657" unicode="Ų"/><glyph d="M540 490q15 0 13 -15l-64 -460q-2 -15 -16 -15q-41 0 -71.5 -23.5t-30.5 -53.5q0 -20 15 -30.5t46 -4.5l-12 -86q-32 -10 -68.5 -9.5t-66.5 26t-30 67.5q0 82 100 135l4 52q-59 -85 -157 -85q-79 0 -121.5 54t-29.5 148l40 285q2 15 18 15h107q15 0 13 -15l-35 -254 q-7 -51 14 -78.5t65 -27.5q43 0 71 27.5t35 78.5l36 254q2 15 17 15h108z" glyph-name="uogonek" unicode="ų"/><glyph d="M469 776q-9 0 -9.5 6t5.5 12l102 108q8 8 18 8h94q11 0 16 -8l74 -108q5 -6 2 -12t-12 -6h-72q-12 0 -17 8l-46 67l-61 -67q-8 -8 -19 -8h-75zM1098 700q17 0 10 -17l-294 -671q-4 -12 -20 -12h-120q-16 0 -18 12l-78 507l-218 -507q-4 -12 -20 -12h-120q-16 0 -18 12 l-105 671q-3 17 14 17h117q14 0 15 -12l68 -492l219 492q5 12 19 12h110q17 0 17 -12l81 -489l205 489q5 12 19 12h117z" glyph-name="Wcircumflex" horiz-adv-x="1081" unicode="Ŵ"/><glyph d="M339 566q-9 0 -9.5 6t5.5 12l102 108q8 8 18 8h94q11 0 16 -8l74 -108q5 -6 2 -12t-12 -6h-72q-12 0 -17 8l-46 67l-61 -67q-8 -8 -19 -8h-75zM168 0q-14 0 -17 12l-89 461q-3 17 14 17h105q15 0 17 -12l53 -318l150 318q6 12 19 12h107q14 0 17 -12l61 -318l142 318 q6 12 19 12h106q18 0 10 -17l-216 -461q-6 -12 -19 -12h-113q-14 0 -17 12l-64 318l-153 -318q-6 -12 -19 -12h-113z" glyph-name="wcircumflex" horiz-adv-x="881" unicode="ŵ"/><glyph d="M243 776q-9 0 -9.5 6t5.5 12l102 108q8 8 18 8h94q11 0 16 -8l74 -108q5 -6 2 -12t-12 -6h-72q-12 0 -17 8l-46 67l-61 -67q-8 -8 -19 -8h-75zM644 700q20 0 7 -18l-254 -360l-43 -307q-2 -15 -17 -15h-113q-15 0 -13 15l43 308l-156 359q-8 18 13 18h118q14 0 17 -10 l95 -235l163 235q7 10 19 10h121z" glyph-name="Ycircumflex" horiz-adv-x="627" unicode="Ŷ"/><glyph d="M185 566q-9 0 -9.5 6t5.5 12l102 108q8 8 18 8h94q11 0 16 -8l74 -108q5 -6 2 -12t-12 -6h-72q-12 0 -17 8l-46 67l-61 -67q-8 -8 -19 -8h-75zM100 -190q-19 0 -10 17l94 173l-121 473q-5 17 14 17h110q14 0 17 -12l69 -319l164 319q6 12 19 12h110q19 0 10 -17 l-351 -651q-6 -12 -20 -12h-105z" glyph-name="ycircumflex" horiz-adv-x="574" unicode="ŷ"/><glyph d="M280 776q-27 0 -44 17t-17 45q0 31 23.5 54t55.5 23q27 0 44 -17t17 -44q0 -32 -23.5 -55t-55.5 -23zM500 776q-27 0 -44 17t-17 45q0 31 23.5 54t55.5 23q27 0 44 -17t17 -44q0 -32 -23.5 -55t-55.5 -23zM644 700q20 0 7 -18l-254 -360l-43 -307q-2 -15 -17 -15h-113 q-15 0 -13 15l43 308l-156 359q-8 18 13 18h118q14 0 17 -10l95 -235l163 235q7 10 19 10h121z" glyph-name="Ydieresis" horiz-adv-x="627" unicode="Ÿ"/><glyph d="M486 910q7 0 9 -5t-2 -12l-78 -114q-8 -12 -19 -12h-97q-7 0 -9.5 5t1.5 12l77 114q8 12 19 12h99zM25 0q-15 0 -13 15l15 102q1 10 8 18l358 438h-277q-15 0 -13 15l13 97q2 15 17 15h411q15 0 13 -15l-14 -102q-1 -9 -9 -18l-357 -438h297q15 0 13 -15l-14 -97 q-2 -15 -17 -15h-431z" glyph-name="Zacute" horiz-adv-x="555" unicode="Ź"/><glyph d="M416 700q7 0 9 -5t-2 -12l-78 -114q-8 -12 -19 -12h-97q-7 0 -9.5 5t1.5 12l77 114q8 12 19 12h99zM20 0q-15 0 -13 15l12 86q2 12 10 19l266 258h-219q-15 0 -13 15l11 82q2 15 17 15h357q15 0 13 -15l-11 -86q-2 -12 -10 -19l-266 -258h223q15 0 13 -15l-12 -82 q-2 -15 -17 -15h-361z" glyph-name="zacute" horiz-adv-x="470" unicode="ź"/><glyph d="M352 776q-27 0 -44 17t-17 45q0 31 23.5 54t55.5 23q27 0 44 -17t17 -44q0 -32 -23.5 -55t-55.5 -23zM25 0q-15 0 -13 15l15 102q1 10 8 18l358 438h-277q-15 0 -13 15l13 97q2 15 17 15h411q15 0 13 -15l-14 -102q-1 -9 -9 -18l-357 -438h297q15 0 13 -15l-14 -97 q-2 -15 -17 -15h-431z" glyph-name="Zdotaccent" horiz-adv-x="555" unicode="Ż"/><glyph d="M282 566q-27 0 -44 17t-17 45q0 31 23.5 54t55.5 23q27 0 44 -17t17 -44q0 -32 -23.5 -55t-55.5 -23zM20 0q-15 0 -13 15l12 86q2 12 10 19l266 258h-219q-15 0 -13 15l11 82q2 15 17 15h357q15 0 13 -15l-11 -86q-2 -12 -10 -19l-266 -258h223q15 0 13 -15l-12 -82 q-2 -15 -17 -15h-361z" glyph-name="zdotaccent" horiz-adv-x="470" unicode="ż"/><glyph d="M508 910q9 0 10 -6t-6 -12l-102 -108q-8 -8 -18 -8h-94q-11 0 -16 8l-74 108q-5 6 -2 12t12 6h73q12 0 17 -8l45 -67l62 67q8 8 19 8h74zM25 0q-15 0 -13 15l15 102q1 10 8 18l358 438h-277q-15 0 -13 15l13 97q2 15 17 15h411q15 0 13 -15l-14 -102q-1 -9 -9 -18 l-357 -438h297q15 0 13 -15l-14 -97q-2 -15 -17 -15h-431z" glyph-name="Zcaron" horiz-adv-x="555" unicode="Ž"/><glyph d="M438 700q9 0 10 -6t-6 -12l-102 -108q-8 -8 -18 -8h-94q-11 0 -16 8l-74 108q-5 6 -2 12t12 6h73q12 0 17 -8l45 -67l62 67q8 8 19 8h74zM20 0q-15 0 -13 15l12 86q2 12 10 19l266 258h-219q-15 0 -13 15l11 82q2 15 17 15h357q15 0 13 -15l-11 -86q-2 -12 -10 -19 l-266 -258h223q15 0 13 -15l-12 -82q-2 -15 -17 -15h-361z" glyph-name="zcaron" horiz-adv-x="470" unicode="ž"/><glyph d="M415 717q11 -5 9 -17l-13 -90q-1 -9 -14 -7q-27 5 -40 5q-34 0 -48.5 -15.5t-18.5 -45.5l-8 -57h97q15 0 13 -15l-11 -82q-2 -15 -18 -15h-97l-57 -403q-23 -165 -191 -165q-40 0 -71 14q-11 5 -9 17l12 90q1 9 14 7q27 -5 41 -5q34 0 48.5 15.5t18.5 45.5l54 384h-57 q-16 0 -14 15l12 82q2 15 17 15h58l11 76q23 165 191 165q39 0 71 -14z" glyph-name="florin" horiz-adv-x="389" unicode="ƒ"/><glyph d="M357 784l-74 108q-5 6 -2 12t12 6h73q12 0 17 -8l45 -67l62 67q8 8 19 8h74q9 0 10 -6t-6 -12l-102 -108q-8 -8 -18 -8h-94q-11 0 -16 8zM630 17q3 -17 -14 -17h-119q-12 0 -15 12l-19 103h-264l-48 -103q-4 -12 -19 -12h-119q-19 0 -10 17l329 671q6 12 20 12h121 q15 0 18 -12zM258 242h181l-52 278z" glyph-name="uni01CD" horiz-adv-x="697" unicode="Ǎ"/><glyph d="M284 574l-74 108q-5 6 -2 12t12 6h73q12 0 17 -8l45 -67l62 67q8 8 19 8h74q9 0 10 -6t-6 -12l-102 -108q-8 -8 -18 -8h-94q-11 0 -16 8zM575 490q16 0 13 -15l-64 -460q-3 -15 -18 -15h-97q-16 0 -13 15l4 52q-64 -79 -169 -79q-94 0 -146.5 59.5t-52.5 157.5 q0 121 75.5 209t191.5 88q108 0 151 -82l10 55q3 15 17 15h98zM277 114q56 0 95.5 36t46.5 95q8 59 -22 95t-85 36q-64 0 -104 -44t-40 -106q0 -52 29.5 -82t79.5 -30z" glyph-name="uni01CE" horiz-adv-x="616" unicode="ǎ"/><glyph d="M374 910q9 0 10 -6t-6 -12l-102 -108q-8 -8 -18 -8h-94q-11 0 -16 8l-74 108q-5 6 -2 12t12 6h73q12 0 17 -8l45 -67l62 67q8 8 19 8h74zM50 0q-15 0 -13 15l94 670q2 15 17 15h113q15 0 13 -15l-94 -670q-2 -15 -17 -15h-113z" glyph-name="uni01CF" horiz-adv-x="282" unicode="Ǐ"/><glyph d="M329 700q9 0 10 -6t-6 -12l-102 -108q-8 -8 -18 -8h-94q-11 0 -16 8l-74 108q-5 6 -2 12t12 6h73q12 0 17 -8l45 -67l62 67q8 8 19 8h74zM36 0q-15 0 -13 15l64 460q2 15 17 15h109q15 0 13 -15l-64 -460q-2 -15 -17 -15h-109z" glyph-name="uni01D0" horiz-adv-x="249" unicode="ǐ"/><glyph d="M644 910q9 0 10 -6t-6 -12l-102 -108q-8 -8 -18 -8h-94q-11 0 -16 8l-74 108q-5 6 -2 12t12 6h73q12 0 17 -8l45 -67l62 67q8 8 19 8h74zM376 -13q-138 0 -227 88t-89 223q0 166 122.5 288t290.5 122q138 0 226.5 -88t88.5 -223q0 -166 -122 -288t-290 -122zM395 127 q103 0 175 73.5t72 178.5q0 85 -52 137t-135 52q-103 0 -175.5 -73t-72.5 -177q0 -85 52 -138t136 -53z" glyph-name="uni01D1" horiz-adv-x="820" unicode="Ǒ"/><glyph d="M495 700q9 0 10 -6t-6 -12l-102 -108q-8 -8 -18 -8h-94q-11 0 -16 8l-74 108q-5 6 -2 12t12 6h73q12 0 17 -8l45 -67l62 67q8 8 19 8h74zM258 -12q-101 0 -163.5 62t-62.5 160q0 118 86.5 205t207.5 87q100 0 162.5 -62t62.5 -160q0 -118 -86.5 -205t-206.5 -87zM275 115 q58 0 100 41t42 106q0 52 -30 82.5t-79 30.5q-58 0 -100 -41t-42 -105q0 -53 30 -83.5t79 -30.5z" glyph-name="uni01D2" horiz-adv-x="583" unicode="ǒ"/><glyph d="M562 910q9 0 10 -6t-6 -12l-102 -108q-8 -8 -18 -8h-94q-11 0 -16 8l-74 108q-5 6 -2 12t12 6h73q12 0 17 -8l45 -67l62 67q8 8 19 8h74zM296 -13q-121 0 -184.5 72.5t-43.5 206.5l58 419q2 15 17 15h113q15 0 13 -15l-58 -416q-10 -68 17 -105t85 -37q57 0 93.5 36.5 t46.5 105.5l59 416q2 15 17 15h113q15 0 13 -15l-59 -419q-19 -135 -100 -207t-200 -72z" glyph-name="uni01D3" horiz-adv-x="657" unicode="Ǔ"/><glyph d="M268 574l-74 108q-5 6 -2 12t12 6h73q12 0 17 -8l45 -67l62 67q8 8 19 8h74q9 0 10 -6t-6 -12l-102 -108q-8 -8 -18 -8h-94q-11 0 -16 8zM540 490q15 0 13 -15l-64 -460q-2 -15 -17 -15h-104q-15 0 -13 15l4 58q-59 -85 -157 -85q-79 0 -121.5 54t-29.5 148l40 285 q2 15 18 15h107q15 0 13 -15l-35 -254q-7 -51 14 -78.5t65 -27.5q43 0 71 27.5t35 78.5l36 254q2 15 17 15h108z" glyph-name="uni01D4" unicode="ǔ"/><glyph d="M478 0q-93 -29 -93 -77q0 -20 15 -30.5t46 -4.5l-12 -86q-23 -9 -51 -9.5t-53.5 8t-43 31t-17.5 54.5q0 58 54 105q-117 17 -190 101.5t-73 205.5q0 166 122.5 288t290.5 122q138 0 226.5 -88t88.5 -223q0 -138 -88 -249.5t-222 -147.5zM207 318q0 -85 52 -138t136 -53 q103 0 175 73.5t72 178.5q0 85 -52 137t-135 52q-103 0 -175.5 -73t-72.5 -177z" glyph-name="uni01EA" horiz-adv-x="820" unicode="Ǫ"/><glyph d="M335 -1q-89 -30 -89 -76q0 -20 15 -30.5t46 -4.5l-12 -86q-32 -10 -68.5 -9.5t-66.5 26t-30 67.5q0 63 61 110q-74 20 -116.5 77.5t-42.5 136.5q0 118 86.5 205t207.5 87q100 0 162.5 -62t62.5 -160t-61 -176.5t-155 -104.5zM308 375q-58 0 -100 -41t-42 -105 q0 -53 30 -83.5t79 -30.5q58 0 100 41t42 106q0 52 -30 82.5t-79 30.5z" glyph-name="uni01EB" horiz-adv-x="583" unicode="ǫ"/><glyph d="M252 -12q-78 0 -137.5 31.5t-86.5 77.5q-6 11 4 21l70 69q11 11 23 1q58 -69 135 -69q47 0 75.5 21.5t28.5 60.5q0 31 -16.5 46.5t-55.5 35.5l-70 36q-124 64 -124 174q0 94 68 154.5t172 60.5q125 0 197 -92q10 -12 -3 -25l-66 -68q-12 -12 -23 -3q-57 57 -118 57 q-41 0 -64.5 -19.5t-23.5 -51.5q0 -25 17 -41.5t62 -38.5l58 -30q41 -21 65 -39t45 -54.5t21 -85.5q0 -102 -71.5 -165.5t-181.5 -63.5zM108 -305l6 32q49 0 84 44q24 29 13 39q-3 3 -8 3q-31 0 -51 20.5t-20 52.5q0 36 27 63.5t67 27.5q35 0 58.5 -24t23.5 -69 q0 -76 -63 -134.5t-137 -54.5z" glyph-name="Scommaaccent" horiz-adv-x="556" unicode="Ș"/><glyph d="M195 -12q-58 0 -104.5 22.5t-71.5 58.5q-7 10 5 27l43 51q13 14 27 4q54 -48 104 -48q61 0 61 44q0 32 -44 50l-58 25q-90 38 -90 119q0 69 55.5 115t132.5 46q105 0 158 -75q7 -11 -4 -22l-53 -53q-11 -11 -23 0q-38 42 -80 42q-26 0 -40 -13t-14 -31q0 -28 42 -45 l64 -27q92 -39 92 -122q0 -74 -58.5 -121t-143.5 -47zM68 -305l6 32q49 0 84 44q24 29 13 39q-3 3 -8 3q-31 0 -51 20.5t-20 52.5q0 36 27 63.5t67 27.5q35 0 58.5 -24t23.5 -69q0 -76 -63 -134.5t-137 -54.5z" glyph-name="scommaaccent" horiz-adv-x="450" unicode="ș"/><glyph d="M182 0q-15 0 -13 15l78 558h-136q-15 0 -13 15l13 97q2 15 17 15h416q15 0 13 -15l-13 -97q-2 -15 -17 -15h-137l-78 -558q-2 -15 -17 -15h-113zM113 -305l6 32q49 0 84 44q24 29 13 39q-3 3 -8 3q-31 0 -51 20.5t-20 52.5q0 36 27 63.5t67 27.5q35 0 58.5 -24t23.5 -69 q0 -76 -63 -134.5t-137 -54.5z" glyph-name="uni021A" horiz-adv-x="545" unicode="Ț"/><glyph d="M356 490q15 0 13 -15l-12 -77q-2 -15 -17 -15h-75l-34 -237q-6 -43 37 -43q19 0 31 1q8 1 12.5 -3t3.5 -11l-10 -73q-4 -29 -87 -29q-65 0 -101.5 34t-26.5 109l36 252h-62q-15 0 -13 15l10 77q2 15 17 15h63l16 115q2 15 17 15h109q15 0 13 -15l-16 -115h76zM192 -20 q35 0 58.5 -24t23.5 -69q0 -76 -63 -134.5t-137 -54.5l6 32q49 0 84 44q24 29 13 39q-3 3 -8 3q-31 0 -51 20.5t-20 52.5q0 36 27 63.5t67 27.5z" glyph-name="uni021B" horiz-adv-x="366" unicode="ț"/><glyph d="M-23 -200q-44 0 -73 15q-9 4 -7 15l13 91q1 9 14 7q23 -5 40 -5q60 0 67 61l69 491q2 15 17 15h109q15 0 13 -15l-72 -510q-23 -165 -190 -165z" glyph-name="uni0237" horiz-adv-x="262" unicode="ȷ"/><glyph d="M71 566q-9 0 -9.5 6t5.5 12l102 108q8 8 18 8h94q11 0 16 -8l74 -108q5 -6 2 -12t-12 -6h-72q-12 0 -17 8l-46 67l-61 -67q-8 -8 -19 -8h-75z" glyph-name="circumflex" horiz-adv-x="342" unicode="ˆ"/><glyph d="M380 700q9 0 10 -6t-6 -12l-102 -108q-8 -8 -18 -8h-94q-11 0 -16 8l-74 108q-5 6 -2 12t12 6h73q12 0 17 -8l45 -67l62 67q8 8 19 8h74z" glyph-name="caron" horiz-adv-x="342" unicode="ˇ"/><glyph d="M305 686q5 14 19 14h55q15 0 12 -15q-10 -55 -56.5 -92t-115.5 -37t-106.5 37t-35.5 92q0 15 16 15h53q12 0 14 -14q3 -21 20 -36t48 -15q57 0 77 51z" glyph-name="breve" horiz-adv-x="344" unicode="˘"/><glyph d="M131 566q-27 0 -44 17t-17 45q0 31 23.5 54t55.5 23q27 0 44 -17t17 -44q0 -32 -23.5 -55t-55.5 -23z" glyph-name="dotaccent" horiz-adv-x="169" unicode="˙"/><glyph d="M164 538q-43 0 -68.5 25.5t-25.5 64.5q0 45 33 79t82 34q42 0 67.5 -25.5t25.5 -64.5q0 -45 -32.5 -79t-81.5 -34zM172 615q11 0 18.5 8t7.5 19q0 9 -6 15.5t-16 6.5q-11 0 -18.5 -8t-7.5 -19q0 -9 6 -15.5t16 -6.5z" glyph-name="ring" horiz-adv-x="237" unicode="˚"/><glyph d="M179 0q-41 0 -71.5 -23.5t-30.5 -53.5q0 -20 15 -30.5t46 -4.5l-12 -86q-32 -10 -68.5 -9.5t-66.5 26t-30 67.5q0 48 37.5 88t88.5 60t99 20z" glyph-name="ogonek" horiz-adv-x="223" unicode="˛"/><glyph d="M187 722q28 0 51.5 -11t37 -24t31.5 -24t36 -11q35 0 50 28q4 8 14 8h28q13 0 10 -12q-10 -50 -43.5 -76.5t-76.5 -26.5q-28 0 -51.5 11t-37 24.5t-31.5 24.5t-36 11q-34 0 -50 -28q-5 -8 -13 -8h-28q-13 0 -10 13q11 50 43.5 75.5t75.5 25.5z" glyph-name="tilde" horiz-adv-x="400" unicode="˜"/><glyph d="M256 700q7 0 9 -5t-2 -12l-78 -114q-8 -12 -19 -12h-97q-7 0 -9.5 5t1.5 12l77 114q8 12 19 12h99zM443 700q7 0 9 -5t-2 -12l-77 -114q-8 -12 -19 -12h-97q-7 0 -9.5 5t1.5 12l77 114q8 12 19 12h98z" glyph-name="hungarumlaut" horiz-adv-x="407" unicode="˝"/><glyph d="M-268 -305l6 32q49 0 84 44q24 29 13 39q-3 3 -8 3q-31 0 -51 20.5t-20 52.5q0 36 27 63.5t67 27.5q35 0 58.5 -24t23.5 -69q0 -76 -63 -134.5t-137 -54.5z" glyph-name="uni0326" horiz-adv-x="0" unicode="̦"/><glyph d="M630 17q3 -17 -14 -17h-603q-19 0 -10 17l329 671q6 12 20 12h121q15 0 18 -12zM387 520l-190 -408h266z" glyph-name="Delta" horiz-adv-x="697" unicode="Δ"/><glyph d="M33 0q-15 0 -14 16l11 82q1 14 16 14h105v2q-87 72 -87 210q0 159 120 271.5t286 112.5q140 0 228 -83.5t88 -214.5q0 -88 -42 -169t-117 -127l1 -2h104q15 0 14 -16l-12 -82q-1 -14 -16 -14h-230q-15 0 -14 16l19 142q67 33 107.5 95.5t40.5 133.5q0 82 -53.5 132.5 t-136.5 50.5q-102 0 -173 -72t-71 -171q0 -55 24.5 -100t66.5 -69l-19 -144q-1 -14 -16 -14h-230z" glyph-name="Omega" horiz-adv-x="815" unicode="Ω"/><glyph d="M540 490q15 0 13 -15l-64 -460q-2 -15 -17 -15h-104q-15 0 -13 15l4 58q-59 -85 -157 -85q-24 0 -41 4l-23 -167q-2 -15 -17 -15h-107q-15 0 -13 15l48 346q0 7 2 19l40 285q2 15 18 15h107q15 0 13 -15l-35 -254q-7 -51 14 -78.5t65 -27.5q43 0 71 27.5t35 78.5l36 254 q2 15 17 15h108z" glyph-name="mu" unicode="μ"/><glyph d="M679 490q15 0 13 -15l-11 -85q-2 -15 -17 -15h-63l-30 -215q-6 -45 32 -45q29 0 36 1q8 2 12.5 -2.5t3.5 -11.5l-12 -80q-4 -29 -93 -29q-61 0 -96.5 34.5t-24.5 108.5l34 239h-147l-51 -360q-2 -15 -17 -15h-108q-15 0 -13 15l51 360h-79q-15 0 -13 15l12 85q2 15 17 15 h564z" glyph-name="pi" horiz-adv-x="703" unicode="π"/><glyph d="M239 776q-27 0 -44 17t-17 45q0 31 23.5 54t55.5 23q27 0 44 -17t17 -44q0 -32 -23.5 -55t-55.5 -23zM459 776q-27 0 -44 17t-17 45q0 31 23.5 54t55.5 23q27 0 44 -17t17 -44q0 -32 -23.5 -55t-55.5 -23zM50 0q-15 0 -13 15l94 670q2 15 17 15h356q15 0 13 -15l-13 -97 q-2 -15 -17 -15h-228l-22 -155h214q16 0 14 -15l-14 -97q-2 -15 -17 -15h-215l-23 -164h228q15 0 13 -15l-14 -97q-2 -15 -17 -15h-356z" glyph-name="afii10023" horiz-adv-x="515" unicode="Ё"/><glyph d="M275 767q-7 0 -9.5 5t1.5 12l77 114q8 12 19 12h99q7 0 9 -5t-2 -12l-78 -114q-8 -12 -19 -12h-97zM515 700q15 0 13 -15l-13 -97q-2 -15 -17 -15h-240l-78 -558q-2 -15 -17 -15h-113q-15 0 -13 15l94 670q2 15 17 15h367z" glyph-name="afii10052" horiz-adv-x="501" unicode="Ѓ"/><glyph d="M456 568q-79 0 -141.5 -43t-89.5 -112h230q15 0 13 -15l-14 -96q-2 -15 -17 -15h-227q11 -73 61 -116.5t126 -43.5q84 0 160 58q13 10 21 -1l60 -74q8 -11 -3 -21q-115 -102 -258 -102q-139 0 -227.5 88t-88.5 227q0 164 120 285t288 121q149 0 234 -101q8 -9 -4 -21 l-75 -75q-12 -11 -22 -1q-60 58 -146 58z" glyph-name="afii10053" horiz-adv-x="706" unicode="Є"/><glyph d="M50 0q-15 0 -13 15l94 670q2 15 17 15h113q15 0 13 -15l-94 -670q-2 -15 -17 -15h-113z" glyph-name="afii10055" horiz-adv-x="282" unicode="І"/><glyph d="M107 776q-27 0 -44 17t-17 45q0 31 23.5 54t55.5 23q27 0 44 -17t17 -44q0 -32 -23.5 -55t-55.5 -23zM327 776q-27 0 -44 17t-17 45q0 31 23.5 54t55.5 23q27 0 44 -17t17 -44q0 -32 -23.5 -55t-55.5 -23zM50 0q-15 0 -13 15l94 670q2 15 17 15h113q15 0 13 -15l-94 -670 q-2 -15 -17 -15h-113z" glyph-name="afii10056" horiz-adv-x="282" unicode="Ї"/><glyph d="M291 767q-7 0 -9.5 5t1.5 12l77 114q8 12 19 12h99q7 0 9 -5t-2 -12l-78 -114q-8 -12 -19 -12h-97zM664 700q9 0 10 -5.5t-6 -12.5l-272 -295l207 -369q5 -8 2 -13t-11 -5h-131q-11 0 -16 9l-153 269l-91 -99l-23 -164q-2 -15 -17 -15h-113q-15 0 -13 15l94 670 q2 15 17 15h113q15 0 13 -15l-42 -301l275 308q8 8 18 8h139z" glyph-name="afii10061" horiz-adv-x="664" unicode="Ќ"/><glyph d="M420 766q-69 0 -106.5 37t-35.5 92q0 15 16 15h53q12 0 14 -14q3 -21 20 -36t48 -15q57 0 77 51q5 14 19 14h55q15 0 12 -15q-10 -55 -56.5 -92t-115.5 -37zM703 700q9 0 11.5 -5t-3.5 -13l-485 -672q-7 -10 -19 -10h-119q-19 0 -8 18l197 273l-179 391q-7 18 13 18h119 q14 0 18 -10l121 -272l196 272q7 10 19 10h119z" glyph-name="afii10062" horiz-adv-x="687" unicode="Ў"/><glyph d="M630 17q3 -17 -14 -17h-119q-12 0 -15 12l-19 103h-264l-48 -103q-4 -12 -19 -12h-119q-19 0 -10 17l329 671q6 12 20 12h121q15 0 18 -12zM258 242h181l-52 278z" glyph-name="afii10017" horiz-adv-x="697" unicode="А"/><glyph d="M324 455q108 0 162 -51.5t54 -146.5q0 -116 -75.5 -186.5t-203.5 -70.5h-211q-15 0 -13 15l94 670q2 15 17 15h370q15 0 13 -15l-13 -97q-2 -15 -17 -15h-243l-17 -118h83zM274 127q62 0 95 30.5t33 82.5q0 88 -100 88h-78l-28 -201h78z" glyph-name="afii10018" horiz-adv-x="575" unicode="Б"/><glyph d="M50 0q-15 0 -13 15l94 670q2 15 17 15h225q89 0 134 -43.5t45 -112.5q0 -61 -33.5 -104t-82.5 -64q51 -14 83 -55t32 -106q0 -102 -78 -158.5t-206 -56.5h-217zM235 423h79q45 0 72 22t27 64q0 65 -78 65h-78zM194 126h89q57 0 91 26.5t34 74.5q0 83 -99 83h-90z" glyph-name="afii10019" horiz-adv-x="592" unicode="В"/><glyph d="M515 700q15 0 13 -15l-13 -97q-2 -15 -17 -15h-240l-78 -558q-2 -15 -17 -15h-113q-15 0 -13 15l94 670q2 15 17 15h367z" glyph-name="afii10020" horiz-adv-x="501" unicode="Г"/><glyph d="M713 127q15 0 13 -15l-23 -166q-2 -15 -17 -15h-113q-15 0 -13 15l8 54h-424l-8 -54q-2 -15 -17 -15h-113q-16 0 -14 15l24 166q2 15 17 15h17q70 10 83 104l64 454q2 15 17 15h487q15 0 13 -15l-79 -558h78zM273 205q-6 -40 -22 -78h241l63 447h-230z" glyph-name="afii10021" horiz-adv-x="764" unicode="Д"/><glyph d="M50 0q-15 0 -13 15l94 670q2 15 17 15h356q15 0 13 -15l-13 -97q-2 -15 -17 -15h-228l-22 -155h214q16 0 14 -15l-14 -97q-2 -15 -17 -15h-215l-23 -164h228q15 0 13 -15l-14 -97q-2 -15 -17 -15h-356z" glyph-name="afii10022" horiz-adv-x="515" unicode="Е"/><glyph d="M1045 700q9 0 10 -5.5t-6 -12.5l-272 -295l207 -369q4 -8 1.5 -13t-10.5 -5h-131q-11 0 -16 9l-153 269l-91 -99l-23 -164q-2 -15 -17 -15h-113q-15 0 -13 15l23 165l-62 96l-226 -267q-8 -9 -19 -9h-132q-9 0 -11 5t4 13l312 369l-191 295q-4 7 -1 12.5t12 5.5h138 q12 0 17 -8l187 -315l43 308q2 15 17 15h113q15 0 13 -15l-42 -301l275 308q8 8 18 8h139z" glyph-name="afii10024" horiz-adv-x="1044" unicode="Ж"/><glyph d="M215 -13q-72 0 -123 29.5t-75 77.5q-6 12 6 21l75 60q12 10 21 -2q39 -59 106 -59q50 0 82.5 31.5t32.5 76.5q0 37 -23 61t-70 24h-25q-16 0 -15 16l12 82q2 14 16 14h27q44 0 71.5 26.5t27.5 64.5q0 32 -22 51.5t-56 19.5q-56 0 -101 -56q-11 -14 -23 -2l-52 58 q-11 13 -1 24q36 46 90 74.5t118 28.5q80 0 132.5 -43.5t52.5 -117.5q0 -58 -32 -105t-88 -71q100 -41 100 -154q0 -98 -77 -164t-187 -66z" glyph-name="afii10025" horiz-adv-x="520" unicode="З"/><glyph d="M653 700q15 0 13 -15l-94 -670q-2 -15 -17 -15h-113q-15 0 -13 15l62 442l-293 -447q-7 -10 -19 -10h-129q-15 0 -13 15l94 670q2 15 17 15h113q15 0 13 -15l-62 -440l292 445q9 10 20 10h129z" glyph-name="afii10026" horiz-adv-x="674" unicode="И"/><glyph d="M415 765q-69 0 -106.5 37t-35.5 92q0 15 16 15h54q12 0 14 -14q3 -21 19.5 -36t47.5 -15q56 0 78 51q5 14 18 14h55q15 0 12 -15q-10 -55 -56.5 -92t-115.5 -37zM653 700q15 0 13 -15l-94 -670q-2 -15 -17 -15h-113q-15 0 -13 15l62 442l-293 -447q-7 -10 -19 -10h-129 q-15 0 -13 15l94 670q2 15 17 15h113q15 0 13 -15l-62 -440l292 445q9 10 20 10h129z" glyph-name="afii10027" horiz-adv-x="674" unicode="Й"/><glyph d="M664 700q9 0 10 -5.5t-6 -12.5l-272 -295l207 -369q5 -8 2 -13t-11 -5h-131q-11 0 -16 9l-153 269l-91 -99l-23 -164q-2 -15 -17 -15h-113q-15 0 -13 15l94 670q2 15 17 15h113q15 0 13 -15l-42 -301l275 308q8 8 18 8h139z" glyph-name="afii10028" horiz-adv-x="664" unicode="К"/><glyph d="M685 700q16 0 14 -15l-94 -670q-2 -15 -18 -15h-113q-15 0 -13 15l78 558h-230l-52 -369q-14 -101 -79.5 -155t-158.5 -54q-15 0 -21.5 3.5t-5.5 14.5l14 100q2 12 13 12q38 0 64.5 25.5t34.5 78.5l64 456q2 15 17 15h486z" glyph-name="afii10029" horiz-adv-x="706" unicode="Л"/><glyph d="M861 700q15 0 13 -15l-94 -670q-2 -15 -17 -15h-113q-15 0 -13 15l59 419l-20 -45l-197 -377q-6 -12 -19 -12h-101q-14 0 -17 12l-97 377l-7 45l-58 -419q-2 -15 -17 -15h-113q-15 0 -13 15l94 670q2 15 17 15h130q13 0 17 -15l132 -520l283 525q6 10 18 10h133z" glyph-name="afii10030" horiz-adv-x="881" unicode="М"/><glyph d="M661 700q15 0 13 -15l-94 -670q-2 -15 -17 -15h-113q-15 0 -13 15l37 266h-257l-37 -266q-2 -15 -17 -15h-113q-15 0 -13 15l94 670q2 15 17 15h113q15 0 13 -15l-39 -278h257l39 278q2 15 17 15h113z" glyph-name="afii10031" horiz-adv-x="681" unicode="Н"/><glyph d="M376 -13q-138 0 -227 88t-89 223q0 166 122.5 288t290.5 122q138 0 226.5 -88t88.5 -223q0 -166 -122 -288t-290 -122zM395 127q103 0 175 73.5t72 178.5q0 85 -52 137t-135 52q-103 0 -175.5 -73t-72.5 -177q0 -85 52 -138t136 -53z" glyph-name="afii10032" horiz-adv-x="820" unicode="О"/><glyph d="M641 700q15 0 13 -15l-94 -670q-2 -15 -17 -15h-113q-15 0 -13 15l78 558h-237l-78 -558q-2 -15 -17 -15h-113q-15 0 -13 15l94 670q2 15 17 15h493z" glyph-name="afii10033" horiz-adv-x="661" unicode="П"/><glyph d="M50 0q-15 0 -13 15l94 670q2 15 17 15h211q108 0 162.5 -51.5t54.5 -144.5q0 -116 -76.5 -187.5t-204.5 -71.5h-83l-32 -230q-2 -15 -17 -15h-113zM231 372h78q62 0 95.5 30.5t33.5 83.5q0 87 -101 87h-78z" glyph-name="afii10034" horiz-adv-x="581" unicode="Р"/><glyph d="M377 -13q-139 0 -227.5 88t-88.5 227q0 164 120 285t288 121q149 0 234 -101q8 -9 -4 -21l-75 -75q-12 -11 -22 -1q-60 58 -146 58q-104 0 -176 -72t-72 -175q0 -87 52 -140.5t137 -53.5q84 0 160 58q13 10 21 -1l60 -74q8 -11 -3 -21q-115 -102 -258 -102z" glyph-name="afii10035" horiz-adv-x="706" unicode="С"/><glyph d="M182 0q-15 0 -13 15l78 558h-136q-15 0 -13 15l13 97q2 15 17 15h416q15 0 13 -15l-13 -97q-2 -15 -17 -15h-137l-78 -558q-2 -15 -17 -15h-113z" glyph-name="afii10036" horiz-adv-x="545" unicode="Т"/><glyph d="M703 700q9 0 11.5 -5t-3.5 -13l-485 -672q-7 -10 -19 -10h-119q-19 0 -8 18l197 273l-179 391q-7 18 13 18h119q14 0 18 -10l121 -272l196 272q7 10 19 10h119z" glyph-name="afii10037" horiz-adv-x="687" unicode="У"/><glyph d="M595 640q136 0 209 -72.5t73 -181.5q0 -137 -105.5 -231.5t-255.5 -94.5h-22l-6 -45q-2 -15 -17 -15h-113q-15 0 -13 15l6 45h-21q-136 0 -209.5 72.5t-73.5 181.5q0 137 105 231.5t256 94.5h25l6 45q2 15 17 15h113q15 0 13 -15l-6 -45h19zM345 187h24l46 326h-23 q-90 0 -144.5 -53t-54.5 -134q0 -64 38.5 -101.5t113.5 -37.5zM532 187q93 0 146 54.5t53 133.5q0 63 -38.5 100.5t-114.5 37.5h-20l-46 -326h20z" glyph-name="afii10038" horiz-adv-x="905" unicode="Ф"/><glyph d="M648 700q8 0 10 -5.5t-3 -12.5l-239 -324l155 -340q8 -18 -12 -18h-121q-13 0 -17 10l-98 222l-158 -222q-7 -10 -19 -10h-125q-8 0 -10 5.5t3 12.5l251 341l-148 323q-8 18 13 18h119q14 0 17 -10l91 -205l147 205q6 10 19 10h125z" glyph-name="afii10039" horiz-adv-x="650" unicode="Х"/><glyph d="M652 127q14 0 12 -15l-23 -166q-2 -15 -18 -15h-113q-14 0 -12 15l7 54h-455q-15 0 -13 15l94 670q2 15 17 15h113q15 0 13 -15l-78 -558h237l78 558q2 15 17 15h113q15 0 13 -15l-78 -558h76z" glyph-name="afii10040" horiz-adv-x="703" unicode="Ц"/><glyph d="M616 700q15 0 13 -15l-94 -670q-2 -15 -17 -15h-113q-15 0 -13 15l37 264q-82 -92 -195 -92q-91 0 -141.5 62t-35.5 163l39 273q2 15 17 15h113q15 0 13 -15l-33 -240q-10 -63 18 -90.5t75 -27.5q58 0 102.5 36.5t50.5 81.5l34 240q2 15 17 15h113z" glyph-name="afii10041" horiz-adv-x="637" unicode="Ч"/><glyph d="M898 700q15 0 13 -15l-94 -670q-2 -15 -17 -15h-750q-15 0 -13 15l94 670q2 15 17 15h113q15 0 13 -15l-78 -558h175l78 558q2 15 17 15h114q15 0 13 -15l-78 -558h175l78 558q2 15 17 15h113z" glyph-name="afii10042" horiz-adv-x="918" unicode="Ш"/><glyph d="M898 700q15 0 13 -15l-94 -670q-2 -15 -17 -15h-750q-15 0 -13 15l94 670q2 15 17 15h113q15 0 13 -15l-78 -558h175l78 558q2 15 17 15h114q15 0 13 -15l-78 -558h175l78 558q2 15 17 15h113zM1084 127q15 0 15 -15v-166q0 -15 -15 -15h-113q-15 0 -15 15v54h-92v127 h220z" glyph-name="afii10043" horiz-adv-x="1161" unicode="Щ"/><glyph d="M403 455q108 0 160.5 -53.5t52.5 -149.5q0 -115 -73 -183.5t-201 -68.5h-216q-15 0 -13 15l78 558h-115q-15 0 -13 15l15 97q2 15 17 15h242q15 0 13 -15l-33 -230h86zM350 127q62 0 95 30.5t33 82.5q0 88 -100 88h-78l-28 -201h78z" glyph-name="afii10044" horiz-adv-x="652" unicode="Ъ"/><glyph d="M50 0q-15 0 -13 15l94 670q2 15 17 15h113q15 0 13 -15l-33 -230h86q108 0 160.5 -53.5t52.5 -149.5q0 -115 -73 -183.5t-200 -68.5h-217zM592 0q-15 0 -13 15l94 670q2 15 17 15h113q15 0 13 -15l-94 -670q-2 -15 -17 -15h-113zM196 127h78q62 0 95 30.5t33 82.5 q0 88 -100 88h-78z" glyph-name="afii10045" horiz-adv-x="823" unicode="Ы"/><glyph d="M50 0q-15 0 -13 15l94 670q2 15 17 15h113q15 0 13 -15l-33 -230h86q108 0 160.5 -53.5t52.5 -149.5q0 -115 -73 -183.5t-200 -68.5h-217zM196 127h78q62 0 95 30.5t33 82.5q0 88 -100 88h-78z" glyph-name="afii10046" unicode="Ь"/><glyph d="M365 708q137 0 225 -88t88 -227q0 -166 -121 -286t-288 -120q-151 0 -236 100q-11 13 1 23l80 75q12 11 23 0q60 -58 150 -58q78 0 139.5 45t88.5 115h-251q-15 0 -13 15l13 96q2 15 17 15h248q-11 71 -61 113t-125 42q-84 0 -160 -58q-13 -10 -21 1l-60 75q-8 11 3 21 q116 101 260 101z" glyph-name="afii10047" horiz-adv-x="705" unicode="Э"/><glyph d="M691 708q138 0 226.5 -88t88.5 -223q0 -166 -122 -288t-290 -122q-135 0 -223.5 84.5t-92.5 215.5h-60l-38 -272q-2 -15 -17 -15h-113q-15 0 -13 15l94 670q2 15 17 15h113q15 0 13 -15l-38 -272h59q40 127 150 211t246 84zM612 127q103 0 175.5 74t72.5 178 q0 85 -52 137t-136 52q-103 0 -175 -73t-72 -177q0 -85 52 -138t135 -53z" glyph-name="afii10048" horiz-adv-x="1037" unicode="Ю"/><glyph d="M571 700q15 0 13 -15l-94 -670q-2 -15 -17 -15h-113q-15 0 -13 15l33 230h-54l-158 -235q-7 -10 -18 -10h-120q-9 0 -12.5 5t2.5 13l170 244q-109 44 -109 186q0 115 73 183.5t201 68.5h216zM397 372l29 201h-79q-62 0 -95 -30.5t-33 -82.5q0 -88 100 -88h78z" glyph-name="afii10049" horiz-adv-x="591" unicode="Я"/><glyph d="M575 490q16 0 13 -15l-64 -460q-3 -15 -18 -15h-97q-16 0 -13 15l4 52q-64 -79 -169 -79q-94 0 -146.5 59.5t-52.5 157.5q0 121 75.5 209t191.5 88q108 0 151 -82l10 55q3 15 17 15h98zM277 114q56 0 95.5 36t46.5 95q8 59 -22 95t-85 36q-64 0 -104 -44t-40 -106 q0 -52 29.5 -82t79.5 -30z" glyph-name="afii10065" horiz-adv-x="616" unicode="а"/><glyph d="M384 502q92 0 145.5 -60t53.5 -160q0 -122 -75 -208t-190 -86q-101 0 -146 73l-6 -46q-2 -15 -17 -15h-109q-15 0 -13 15l71 505q25 180 190 180h153q21 0 29 4.5t13 15.5h108q-8 -81 -41.5 -110.5t-108.5 -29.5h-127q-39 0 -56 -16.5t-22 -52.5l-11 -76q62 67 159 67z M304 114q64 0 103.5 43.5t39.5 105.5q0 52 -29.5 82.5t-79.5 30.5q-54 0 -94 -36t-48 -95q-7 -59 22.5 -95t85.5 -36z" glyph-name="afii10066" horiz-adv-x="616" unicode="б"/><glyph d="M408 260q85 -20 85 -100q0 -79 -61.5 -119.5t-160.5 -40.5h-231q-15 0 -13 15l64 460q2 15 17 15h236q66 0 107 -29.5t41 -81.5q0 -87 -84 -119zM310 295q29 0 41.5 15t12.5 35q0 33 -42 33h-105l-12 -83h105zM298 112q31 0 48.5 15t17.5 40q0 40 -52 40h-119l-14 -95 h119z" glyph-name="afii10067" horiz-adv-x="541" unicode="в"/><glyph d="M425 490q15 0 13 -15l-12 -82q-2 -15 -17 -15h-193l-51 -363q-2 -15 -17 -15h-108q-15 0 -13 15l64 460q2 15 17 15h317z" glyph-name="afii10068" horiz-adv-x="441" unicode="г"/><glyph d="M685 490q15 0 13 -15l-64 -460q-2 -15 -17 -15h-17l-6 -43q-2 -16 -17 -16h-107q-16 0 -14 16l7 43h-297q-10 -2 -28 -4l-6 -39q-2 -16 -17 -16h-108q-15 0 -13 16l21 148q2 8 9 8h94q79 0 93 106l35 256q2 15 17 15h422zM323 112h185l38 266h-175l-27 -195 q-6 -39 -21 -71z" glyph-name="afii10069" horiz-adv-x="685" unicode="д"/><glyph d="M319 502q107 0 161.5 -68.5t40.5 -166.5q-11 -74 -60 -74h-297q11 -94 125 -94q53 0 109 28q14 7 23 -8l26 -43q10 -16 -4 -26q-70 -62 -176 -62t-170.5 62t-64.5 163q0 118 83.5 203.5t203.5 85.5zM303 388q-46 0 -79.5 -25t-48.5 -73h226q1 48 -25 73t-73 25z" glyph-name="afii10070" horiz-adv-x="552" unicode="е"/><glyph d="M843 490q10 0 11.5 -5t-5.5 -13l-196 -188l165 -266q5 -8 2 -13t-13 -5h-117q-12 0 -17 8l-114 186l-54 -52l-18 -127q-2 -15 -17 -15h-109q-15 0 -13 15l18 128l-37 45l-174 -180q-8 -8 -19 -8h-127q-10 0 -12 5t5 13l253 261l-156 193q-6 8 -3 13t13 5h129q13 0 18 -8 l133 -169l23 162q2 15 17 15h109q15 0 13 -15l-23 -163l165 170q8 8 20 8h130z" glyph-name="afii10072" horiz-adv-x="884" unicode="ж"/><glyph d="M163 -8q-106 0 -149 65q-10 14 6 30l43 44q12 15 26 3q34 -30 78 -30q32 0 52 14.5t20 41.5q0 51 -86 51q-22 0 -19 20l7 49q3 22 25 22q82 0 82 46q0 38 -48 38q-29 0 -71 -23q-21 -10 -28 2l-26 43q-9 14 3 27q61 61 153 61q61 0 104 -32t43 -86q0 -71 -83 -118 q67 -34 67 -103q0 -74 -56 -119.5t-143 -45.5z" glyph-name="afii10073" horiz-adv-x="410" unicode="з"/><glyph d="M542 490q15 0 13 -15l-64 -460q-2 -15 -17 -15h-109q-15 0 -13 15l40 287l-187 -292q-7 -10 -19 -10h-146q-15 0 -13 15l64 460q2 15 17 15h109q15 0 13 -15l-40 -288l188 293q7 10 19 10h145z" glyph-name="afii10074" horiz-adv-x="583" unicode="и"/><glyph d="M338 556q-69 0 -106.5 37t-35.5 92q0 15 16 15h53q12 0 14 -14q3 -21 20 -36t48 -15q57 0 77 51q5 14 19 14h55q15 0 12 -15q-10 -55 -56.5 -92t-115.5 -37zM542 490q15 0 13 -15l-64 -460q-2 -15 -17 -15h-109q-15 0 -13 15l40 287l-187 -292q-7 -10 -19 -10h-146 q-15 0 -13 15l64 460q2 15 17 15h109q15 0 13 -15l-40 -288l188 293q7 10 19 10h145z" glyph-name="afii10075" horiz-adv-x="583" unicode="й"/><glyph d="M522 490q10 0 11.5 -5t-5.5 -13l-196 -188l165 -266q5 -8 2 -13t-13 -5h-117q-12 0 -17 8l-114 186l-54 -52l-18 -127q-2 -15 -17 -15h-109q-15 0 -13 15l64 460q2 15 17 15h109q15 0 13 -15l-23 -163l165 170q8 8 20 8h130z" glyph-name="afii10076" horiz-adv-x="563" unicode="к"/><glyph d="M604 490q15 0 13 -15l-64 -460q-2 -15 -17 -15h-109q-15 0 -13 15l51 363h-175l-27 -195q-13 -94 -76 -141t-162 -47q-7 0 -10.5 3t-2.5 9l14 95q2 11 12 11q78 0 92 106l36 256q2 15 17 15h421z" glyph-name="afii10077" horiz-adv-x="645" unicode="л"/><glyph d="M717 490q15 0 13 -15l-64 -460q-2 -15 -17 -15h-109q-15 0 -13 15l31 226l-136 -230q-6 -11 -18 -11h-114q-13 0 -16 11l-76 235l-32 -231q-2 -15 -17 -15h-109q-15 0 -13 15l64 460q2 15 17 15h129q13 0 16 -11l111 -336l202 336q6 11 18 11h133z" glyph-name="afii10078" horiz-adv-x="757" unicode="м"/><glyph d="M560 490q16 0 14 -15l-64 -460q-2 -15 -18 -15h-108q-16 0 -14 15l23 162h-204l-23 -162q-2 -15 -17 -15h-109q-15 0 -13 15l64 460q2 15 17 15h109q15 0 13 -15l-26 -185h204l26 185q2 15 18 15h108z" glyph-name="afii10079" horiz-adv-x="601" unicode="н"/><glyph d="M258 -12q-101 0 -163.5 62t-62.5 160q0 118 86.5 205t207.5 87q100 0 162.5 -62t62.5 -160q0 -118 -86.5 -205t-206.5 -87zM275 115q58 0 100 41t42 106q0 52 -30 82.5t-79 30.5q-58 0 -100 -41t-42 -105q0 -53 30 -83.5t79 -30.5z" glyph-name="afii10080" horiz-adv-x="583" unicode="о"/><glyph d="M565 490q15 0 13 -15l-64 -460q-2 -15 -17 -15h-109q-15 0 -13 15l50 359h-209l-50 -359q-2 -15 -17 -15h-109q-15 0 -13 15l64 460q2 15 17 15h457z" glyph-name="afii10081" horiz-adv-x="606" unicode="п"/><glyph d="M384 502q92 0 145.5 -60t53.5 -160q0 -122 -75 -208t-190 -86q-101 0 -146 73l-33 -236q-2 -15 -17 -15h-109q-15 0 -13 15l91 650q2 15 17 15h99q15 0 13 -15l-5 -53q64 80 169 80zM304 114q64 0 103.5 43.5t39.5 105.5q0 52 -29.5 82.5t-79.5 30.5q-54 0 -94 -36 t-48 -95q-7 -59 22.5 -95t85.5 -36z" glyph-name="afii10082" horiz-adv-x="616" unicode="р"/><glyph d="M260 -12q-102 0 -164.5 63.5t-62.5 163.5q0 118 83 202.5t202 84.5q123 0 183 -87q8 -11 -3 -21l-67 -60q-15 -14 -27 0q-39 41 -94 41q-61 0 -102 -43t-41 -103q0 -51 31.5 -82.5t85.5 -31.5q55 0 101 41q14 12 26 -1l47 -57q10 -12 -1 -23q-80 -87 -197 -87z" glyph-name="afii10083" horiz-adv-x="520" unicode="с"/><glyph d="M451 490q15 0 13 -15l-11 -86q-2 -15 -18 -15h-112l-50 -359q-2 -15 -17 -15h-108q-15 0 -13 15l50 359h-113q-14 0 -12 15l12 86q2 15 17 15h362z" glyph-name="afii10084" horiz-adv-x="472" unicode="т"/><glyph d="M100 -190q-19 0 -10 17l94 173l-121 473q-5 17 14 17h110q14 0 17 -12l69 -319l164 319q6 12 19 12h110q19 0 10 -17l-351 -651q-6 -12 -20 -12h-105z" glyph-name="afii10085" horiz-adv-x="574" unicode="у"/><glyph d="M710 503q85 0 138.5 -61.5t53.5 -157.5q0 -118 -78.5 -206.5t-185.5 -88.5q-79 0 -130 56l-31 -220q-2 -15 -17 -15h-108q-15 0 -13 15l31 222q-65 -58 -147 -58q-85 0 -138.5 61t-53.5 155q0 117 79 207.5t185 90.5q81 0 131 -60l31 222q2 15 17 15h108q15 0 13 -15 l-31 -221q66 59 146 59zM265 115q51 0 88 38t45 92q7 56 -19 94t-76 38q-58 0 -98 -47t-40 -106q0 -48 28 -78.5t72 -30.5zM632 115q57 0 96.5 46t39.5 106q0 49 -27.5 79.5t-72.5 30.5q-50 0 -86.5 -36.5t-44.5 -90.5l-1 -5q-8 -54 18.5 -92t77.5 -38z" glyph-name="afii10086" horiz-adv-x="934" unicode="ф"/><glyph d="M8 0q-9 0 -11 5t3 13l180 233l-110 221q-4 8 -0.5 13t12.5 5h118q13 0 17 -10l60 -132l97 132q7 10 19 10h118q9 0 11.5 -5t-3.5 -13l-173 -221l115 -233q4 -8 0.5 -13t-12.5 -5h-118q-13 0 -17 10l-65 144l-103 -144q-7 -10 -19 -10h-119z" glyph-name="afii10087" horiz-adv-x="526" unicode="х"/><glyph d="M592 112q15 0 13 -15l-21 -140q-2 -16 -17 -16h-106q-15 0 -13 16l7 43h-415q-15 0 -13 15l64 460q2 15 17 15h109q15 0 13 -15l-50 -359h209l50 359q2 15 17 15h109q15 0 13 -15l-51 -363h65z" glyph-name="afii10088" horiz-adv-x="645" unicode="ц"/><glyph d="M541 490q16 0 14 -15l-64 -460q-2 -15 -18 -15h-108q-16 0 -14 15l19 136q-60 -63 -160 -63q-88 0 -135.5 54.5t-31.5 167.5l23 165q3 15 17 15h108q16 0 13 -15l-21 -153q-6 -49 15 -79.5t71 -30.5q46 0 78.5 26t43.5 66l24 171q2 15 18 15h108z" glyph-name="afii10089" horiz-adv-x="582" unicode="ч"/><glyph d="M743 490q15 0 13 -15l-64 -460q-2 -15 -17 -15h-635q-15 0 -13 15l64 460q2 15 17 15h109q15 0 13 -15l-50 -359h124l50 359q2 15 17 15h109q15 0 13 -15l-50 -359h124l50 359q2 15 17 15h109z" glyph-name="afii10090" horiz-adv-x="783" unicode="ш"/><glyph d="M770 112q15 0 13 -15l-22 -140q-2 -16 -17 -16h-105q-16 0 -14 16l7 43h-592q-15 0 -13 15l64 460q2 15 17 15h109q15 0 13 -15l-50 -359h124l50 359q2 15 17 15h109q15 0 13 -15l-50 -359h124l50 359q2 15 17 15h109q15 0 13 -15l-51 -363h65z" glyph-name="afii10091" horiz-adv-x="823" unicode="щ"/><glyph d="M360 345q172 0 172 -150q0 -91 -57.5 -143t-160.5 -52h-258q-15 0 -13 15l51 363h-46q-15 0 -13 15l13 82q2 15 17 15h168q15 0 13 -15l-18 -130h132zM308 108q90 0 90 72q0 30 -17 43.5t-54 13.5h-114l-18 -129h113z" glyph-name="afii10092" horiz-adv-x="576" unicode="ъ"/><glyph d="M344 345q172 0 172 -150q0 -91 -57.5 -143t-160.5 -52h-258q-15 0 -13 15l64 460q2 15 17 15h109q15 0 13 -15l-18 -130h132zM758 490q15 0 13 -15l-64 -460q-2 -15 -17 -15h-109q-15 0 -13 15l64 460q2 15 17 15h109zM293 108q89 0 89 72q0 30 -17 43.5t-53 13.5h-115 l-18 -129h114z" glyph-name="afii10093" horiz-adv-x="798" unicode="ы"/><glyph d="M344 345q172 0 172 -150q0 -91 -57.5 -143t-160.5 -52h-258q-15 0 -13 15l64 460q2 15 17 15h109q15 0 13 -15l-18 -130h132zM293 108q89 0 89 72q0 30 -17 43.5t-53 13.5h-115l-18 -129h114z" glyph-name="afii10094" horiz-adv-x="560" unicode="ь"/><glyph d="M265 502q99 0 160 -61.5t61 -159.5q0 -119 -87 -206t-209 -87q-117 0 -176 87q-8 11 4 21l67 61q13 12 24 -1q35 -41 94 -41q46 0 81.5 22.5t52.5 60.5h-141q-16 0 -13 15l11 62q3 15 17 15h139q-7 39 -35 62t-73 23q-55 0 -103 -41q-15 -13 -26 0l-51 59q-10 11 1 22 q82 87 202 87z" glyph-name="afii10095" horiz-adv-x="519" unicode="э"/><glyph d="M546 502q100 0 162.5 -62t62.5 -160q0 -118 -86.5 -205t-206.5 -87q-95 0 -156 55.5t-69 144.5h-63l-24 -174q-2 -15 -17 -15h-109q-15 0 -13 15l64 460q2 15 17 15h109q15 0 13 -15l-24 -174h61q30 88 106.5 145t172.5 57zM495 115q58 0 100 41t42 106q0 52 -30 82.5 t-79 30.5q-58 0 -100 -41t-42 -105q0 -53 30 -83.5t79 -30.5z" glyph-name="afii10096" horiz-adv-x="803" unicode="ю"/><glyph d="M520 490q15 0 13 -15l-64 -460q-2 -15 -17 -15h-109q-15 0 -13 15l18 130h-51l-126 -137q-5 -8 -18 -8h-111q-10 0 -12.5 5t4.5 13l124 132q-114 22 -114 145q0 91 57.5 143t160.5 52h258zM267 382q-42 0 -65.5 -18.5t-23.5 -53.5q0 -30 17 -43.5t54 -13.5h114l18 129 h-114z" glyph-name="afii10097" horiz-adv-x="560" unicode="я"/><glyph d="M200 596q-27 0 -44 17t-17 45q0 31 23.5 54t55.5 23q27 0 44 -17t17 -44q0 -32 -23.5 -55t-55.5 -23zM420 596q-27 0 -44 17t-17 45q0 31 23.5 54t55.5 23q27 0 44 -17t17 -44q0 -32 -23.5 -55t-55.5 -23zM319 502q107 0 161.5 -68.5t40.5 -166.5q-11 -74 -60 -74h-297 q11 -94 125 -94q53 0 109 28q14 7 23 -8l26 -43q10 -16 -4 -26q-70 -62 -176 -62t-170.5 62t-64.5 163q0 118 83.5 203.5t203.5 85.5zM303 388q-46 0 -79.5 -25t-48.5 -73h226q1 48 -25 73t-73 25z" glyph-name="afii10071" horiz-adv-x="552" unicode="ё"/><glyph d="M218 557q-7 0 -9.5 5t1.5 12l77 114q8 12 19 12h99q7 0 9 -5t-2 -12l-78 -114q-8 -12 -19 -12h-97zM425 490q15 0 13 -15l-12 -82q-2 -15 -17 -15h-193l-51 -363q-2 -15 -17 -15h-108q-15 0 -13 15l64 460q2 15 17 15h317z" glyph-name="afii10100" horiz-adv-x="441" unicode="ѓ"/><glyph d="M501 415q8 -11 -3 -21l-67 -60q-15 -14 -27 0q-39 41 -94 41q-44 0 -78.5 -23.5t-51.5 -61.5h149q16 0 13 -15l-12 -62q-3 -15 -17 -15h-143q9 -38 38.5 -60.5t75.5 -22.5q55 0 101 41q14 12 26 -1l47 -57q10 -12 -1 -23q-80 -87 -197 -87q-102 0 -164.5 63.5 t-62.5 163.5q0 118 83 202.5t202 84.5q123 0 183 -87z" glyph-name="afii10101" horiz-adv-x="520" unicode="є"/><glyph d="M189 577q-33 0 -55 22.5t-22 54.5t22 54t55 22q32 0 53.5 -22t21.5 -54t-21.5 -54.5t-53.5 -22.5zM44 0q-17 0 -14 15l64 460q3 15 18 15h108q16 0 13 -15l-64 -460q-3 -15 -17 -15h-108z" glyph-name="afii10103" horiz-adv-x="262" unicode="і"/><glyph d="M61 566q-27 0 -44 17t-17 45q0 31 23.5 54t55.5 23q27 0 44 -17t17 -44q0 -32 -23.5 -55t-55.5 -23zM281 566q-27 0 -44 17t-17 45q0 31 23.5 54t55.5 23q27 0 44 -17t17 -44q0 -32 -23.5 -55t-55.5 -23zM36 0q-15 0 -13 15l64 460q2 15 17 15h109q15 0 13 -15l-64 -460 q-2 -15 -17 -15h-109z" glyph-name="afii10104" horiz-adv-x="249" unicode="ї"/><glyph d="M276 557q-7 0 -9.5 5t1.5 12l77 114q8 12 19 12h99q7 0 9 -5t-2 -12l-78 -114q-8 -12 -19 -12h-97zM522 490q10 0 11.5 -5t-5.5 -13l-196 -188l165 -266q5 -8 2 -13t-13 -5h-117q-12 0 -17 8l-114 186l-54 -52l-18 -127q-2 -15 -17 -15h-109q-15 0 -13 15l64 460 q2 15 17 15h109q15 0 13 -15l-23 -163l165 170q8 8 20 8h130z" glyph-name="afii10109" horiz-adv-x="563" unicode="ќ"/><glyph d="M421 686q5 14 19 14h55q15 0 12 -15q-10 -55 -56.5 -92t-115.5 -37t-106.5 37t-35.5 92q0 15 16 15h53q12 0 14 -14q3 -21 20 -36t48 -15q57 0 77 51zM100 -190q-19 0 -10 17l94 173l-121 473q-5 17 14 17h110q14 0 17 -12l69 -319l164 319q6 12 19 12h110q19 0 10 -17 l-351 -651q-6 -12 -20 -12h-105z" glyph-name="afii10110" horiz-adv-x="574" unicode="ў"/><glyph d="M523 751q15 0 13 -15l-21 -148q-2 -15 -17 -15h-240l-78 -558q-2 -15 -17 -15h-113q-15 0 -13 15l94 670q2 15 17 15h257l5 36q2 15 17 15h96z" glyph-name="afii10050" horiz-adv-x="502" unicode="Ґ"/><glyph d="M435 552q15 0 13 -15l-22 -144q-2 -15 -17 -15h-193l-51 -363q-2 -15 -17 -15h-108q-15 0 -13 15l64 460q2 15 17 15h195l7 47q2 15 17 15h108z" glyph-name="afii10098" horiz-adv-x="442" unicode="ґ"/><glyph d="M536 779l-59 114q-9 17 12 17h96q10 0 18 -12l59 -114q9 -17 -12 -17h-97q-10 0 -17 12zM1098 700q17 0 10 -17l-294 -671q-4 -12 -20 -12h-120q-16 0 -18 12l-78 507l-218 -507q-4 -12 -20 -12h-120q-16 0 -18 12l-105 671q-3 17 14 17h117q14 0 15 -12l68 -492l219 492 q5 12 19 12h110q17 0 17 -12l81 -489l205 489q5 12 19 12h117z" glyph-name="Wgrave" horiz-adv-x="1081" unicode="Ẁ"/><glyph d="M359 700h96q10 0 18 -12l59 -114q9 -17 -12 -17h-97q-10 0 -17 12l-59 114q-9 17 12 17zM168 0q-14 0 -17 12l-89 461q-3 17 14 17h105q15 0 17 -12l53 -318l150 318q6 12 19 12h107q14 0 17 -12l61 -318l142 318q6 12 19 12h106q18 0 10 -17l-216 -461q-6 -12 -19 -12 h-113q-14 0 -17 12l-64 318l-153 -318q-6 -12 -19 -12h-113z" glyph-name="wgrave" horiz-adv-x="881" unicode="ẁ"/><glyph d="M565 767q-7 0 -9.5 5t1.5 12l77 114q8 12 19 12h99q7 0 9 -5t-2 -12l-78 -114q-8 -12 -19 -12h-97zM1098 700q17 0 10 -17l-294 -671q-4 -12 -20 -12h-120q-16 0 -18 12l-78 507l-218 -507q-4 -12 -20 -12h-120q-16 0 -18 12l-105 671q-3 17 14 17h117q14 0 15 -12 l68 -492l219 492q5 12 19 12h110q17 0 17 -12l81 -489l205 489q5 12 19 12h117z" glyph-name="Wacute" horiz-adv-x="1081" unicode="Ẃ"/><glyph d="M622 700q7 0 9 -5t-2 -12l-78 -114q-8 -12 -19 -12h-97q-7 0 -9.5 5t1.5 12l77 114q8 12 19 12h99zM168 0q-14 0 -17 12l-89 461q-3 17 14 17h105q15 0 17 -12l53 -318l150 318q6 12 19 12h107q14 0 17 -12l61 -318l142 318q6 12 19 12h106q18 0 10 -17l-216 -461 q-6 -12 -19 -12h-113q-14 0 -17 12l-64 318l-153 -318q-6 -12 -19 -12h-113z" glyph-name="wacute" horiz-adv-x="881" unicode="ẃ"/><glyph d="M506 776q-27 0 -44 17t-17 45q0 31 23.5 54t55.5 23q27 0 44 -17t17 -44q0 -32 -23.5 -55t-55.5 -23zM726 776q-27 0 -44 17t-17 45q0 31 23.5 54t55.5 23q27 0 44 -17t17 -44q0 -32 -23.5 -55t-55.5 -23zM1098 700q17 0 10 -17l-294 -671q-4 -12 -20 -12h-120 q-16 0 -18 12l-78 507l-218 -507q-4 -12 -20 -12h-120q-16 0 -18 12l-105 671q-3 17 14 17h117q14 0 15 -12l68 -492l219 492q5 12 19 12h110q17 0 17 -12l81 -489l205 489q5 12 19 12h117z" glyph-name="Wdieresis" horiz-adv-x="1081" unicode="Ẅ"/><glyph d="M376 566q-27 0 -44 17t-17 45q0 31 23.5 54t55.5 23q27 0 44 -17t17 -44q0 -32 -23.5 -55t-55.5 -23zM596 566q-27 0 -44 17t-17 45q0 31 23.5 54t55.5 23q27 0 44 -17t17 -44q0 -32 -23.5 -55t-55.5 -23zM168 0q-14 0 -17 12l-89 461q-3 17 14 17h105q15 0 17 -12 l53 -318l150 318q6 12 19 12h107q14 0 17 -12l61 -318l142 318q6 12 19 12h106q18 0 10 -17l-216 -461q-6 -12 -19 -12h-113q-14 0 -17 12l-64 318l-153 -318q-6 -12 -19 -12h-113z" glyph-name="wdieresis" horiz-adv-x="881" unicode="ẅ"/><glyph d="M535 320q92 -53 92 -144q0 -83 -62 -135.5t-152 -52.5q-59 0 -106 23t-73 61q-9 14 6 29l47 53q13 15 24 4q57 -49 103 -49q31 0 50.5 16t19.5 42q0 34 -44 59l-58 37q-43 26 -64.5 56t-21.5 74q0 62 40.5 106.5t104.5 59.5q-28 23 -71 23q-51 0 -84.5 -28t-41.5 -82 l-64 -457q-2 -15 -17 -15h-113q-15 0 -13 15l67 478q14 102 90.5 154.5t184.5 52.5q131 0 191 -70l-23 -170h-48q-31 0 -49 -14t-18 -38q0 -28 39 -50z" glyph-name="uni1E9E" horiz-adv-x="673" unicode="ẞ"/><glyph d="M309 779l-59 114q-9 17 12 17h96q10 0 18 -12l59 -114q9 -17 -12 -17h-97q-10 0 -17 12zM644 700q20 0 7 -18l-254 -360l-43 -307q-2 -15 -17 -15h-113q-15 0 -13 15l43 308l-156 359q-8 18 13 18h118q14 0 17 -10l95 -235l163 235q7 10 19 10h121z" glyph-name="Ygrave" horiz-adv-x="627" unicode="Ỳ"/><glyph d="M205 700h96q10 0 18 -12l59 -114q9 -17 -12 -17h-97q-10 0 -17 12l-59 114q-9 17 12 17zM100 -190q-19 0 -10 17l94 173l-121 473q-5 17 14 17h110q14 0 17 -12l69 -319l164 319q6 12 19 12h110q19 0 10 -17l-351 -651q-6 -12 -20 -12h-105z" glyph-name="ygrave" horiz-adv-x="574" unicode="ỳ"/><glyph d="M557 333q15 0 13 -15l-11 -82q-2 -15 -18 -15h-479q-15 0 -13 15l11 82q2 15 17 15h480z" glyph-name="endash" horiz-adv-x="610" unicode="–"/><glyph d="M617 333q15 0 13 -15l-11 -82q-2 -15 -18 -15h-539q-15 0 -13 15l11 82q2 15 17 15h540z" glyph-name="emdash" horiz-adv-x="670" unicode="—"/><glyph d="M271 715l-6 -32q-49 0 -84 -43q-24 -29 -13 -39q3 -3 8 -3q31 0 51 -21t20 -53q0 -36 -27.5 -63.5t-66.5 -27.5q-35 0 -59 24t-24 69q0 76 63.5 134.5t137.5 54.5z" glyph-name="quoteleft" horiz-adv-x="238" unicode="‘"/><glyph d="M60 436l7 32q49 0 84 43q24 29 13 39q-3 3 -8 3q-31 0 -51 21t-20 53q0 36 27 63.5t67 27.5q35 0 58.5 -24t23.5 -69q0 -76 -63.5 -134.5t-137.5 -54.5z" glyph-name="quoteright" horiz-adv-x="239" unicode="’"/><glyph d="M-9 -129l6 32q49 0 84 43q24 29 13 39q-3 3 -8 3q-31 0 -51 21t-20 52q0 37 27.5 64.5t66.5 27.5q35 0 59 -24t24 -69q0 -76 -63.5 -134.5t-137.5 -54.5z" glyph-name="quotesinglbase" horiz-adv-x="259" unicode="‚"/><glyph d="M271 715l-6 -32q-49 0 -84 -43q-24 -29 -13 -39q3 -3 8 -3q31 0 51 -21t20 -53q0 -36 -27.5 -63.5t-67.5 -27.5q-35 0 -58.5 24t-23.5 69q0 76 63.5 134.5t137.5 54.5zM482 715l-6 -32q-50 0 -85 -43q-23 -29 -12 -39q3 -3 8 -3q30 0 50.5 -21.5t20.5 -52.5 q0 -36 -27.5 -63.5t-67.5 -27.5q-35 0 -58.5 24t-23.5 69q0 76 63.5 134.5t137.5 54.5z" glyph-name="quotedblleft" horiz-adv-x="449" unicode="“"/><glyph d="M60 436l7 32q49 0 84 43q24 29 13 39q-3 3 -8 3q-31 0 -51 21t-20 53q0 36 27 63.5t67 27.5q35 0 58.5 -24t23.5 -69q0 -76 -63.5 -134.5t-137.5 -54.5zM271 436l6 32q50 0 85 43q23 29 12 39q-3 3 -8 3q-30 0 -50.5 21.5t-20.5 52.5q0 36 27.5 63.5t67.5 27.5 q35 0 58.5 -24t23.5 -69q0 -76 -63.5 -134.5t-137.5 -54.5z" glyph-name="quotedblright" horiz-adv-x="450" unicode="”"/><glyph d="M-9 -129l6 32q49 0 84 43q24 29 13 39q-3 3 -8 3q-31 0 -51 21t-20 52q0 37 27.5 64.5t66.5 27.5q35 0 59 -24t24 -69q0 -76 -63.5 -134.5t-137.5 -54.5zM202 -129l6 32q49 0 84 43q24 29 13 39q-3 3 -8 3q-31 0 -51 21t-20 52q0 37 27 64.5t67 27.5q35 0 58.5 -24 t23.5 -69q0 -76 -63 -134.5t-137 -54.5z" glyph-name="quotedblbase" horiz-adv-x="470" unicode="„"/><glyph d="M450 574q15 0 13 -15l-10 -72q-2 -15 -17 -15h-112l-15 -111q-2 -15 -17 -15h-72q-15 0 -13 15l15 111h-110q-15 0 -13 15l10 72q2 15 17 15h111l15 111q2 15 17 15h72q15 0 13 -15l-15 -111h111z" glyph-name="dagger" horiz-adv-x="484" unicode="†"/><glyph d="M450 574q15 0 13 -15l-10 -72q-2 -15 -17 -15h-112l-15 -111q-2 -15 -17 -15h-72q-15 0 -13 15l15 111h-110q-15 0 -13 15l10 72q2 15 17 15h111l15 111q2 15 17 15h72q15 0 13 -15l-15 -111h111zM393 163q15 0 13 -15l-10 -72q-2 -15 -17 -15h-112l-16 -111 q-2 -15 -17 -15h-71q-15 0 -13 15l15 111h-111q-15 0 -13 15l11 72q2 15 17 15h111l15 111q2 15 17 15h72q15 0 13 -15l-16 -111h112z" glyph-name="daggerdbl" horiz-adv-x="484" unicode="‡"/><glyph d="M156 173q-38 0 -63 25.5t-25 62.5q0 46 35.5 81t81.5 35q38 0 63 -25t25 -63q0 -46 -35.5 -81t-81.5 -35z" glyph-name="bullet" horiz-adv-x="333" unicode="•"/><glyph d="M98 -13q-34 0 -58 24t-24 58q0 35 24 59.5t58 24.5t58.5 -24.5t24.5 -59.5q0 -34 -24.5 -58t-58.5 -24zM327 -13q-34 0 -58.5 24t-24.5 58q0 35 24.5 59.5t58.5 24.5t58 -24.5t24 -59.5q0 -34 -24 -58t-58 -24zM555 -13q-34 0 -58 24t-24 58q0 35 24 59.5t58 24.5 t58.5 -24.5t24.5 -59.5q0 -34 -24.5 -58t-58.5 -24z" glyph-name="ellipsis" horiz-adv-x="703" unicode="…"/><glyph d="M220 433q-55 0 -90 34.5t-35 88.5q0 62 44.5 105.5t106.5 43.5q55 0 90 -34.5t35 -88.5q0 -62 -44.5 -105.5t-106.5 -43.5zM141 8l-48 35q-11 9 -2 21l505 624q9 12 21 4l47 -35q11 -9 2 -21l-505 -624q-9 -12 -20 -4zM229 522q21 0 35.5 14.5t14.5 36.5q0 19 -12.5 31 t-30.5 12q-21 0 -35 -14.5t-14 -36.5q0 -19 12 -31t30 -12zM511 -5q-55 0 -90 34.5t-35 88.5q0 62 44.5 105.5t106.5 43.5q55 0 90 -34.5t35 -88.5q0 -62 -44.5 -105.5t-106.5 -43.5zM833 -5q-55 0 -90 34.5t-35 88.5q0 62 44.5 105.5t106.5 43.5q55 0 90 -34.5t35 -88.5 q0 -62 -44.5 -105.5t-106.5 -43.5zM520 84q21 0 35.5 14.5t14.5 36.5q0 19 -12.5 31t-30.5 12q-21 0 -35 -14.5t-14 -36.5q0 -19 12 -31t30 -12zM842 84q21 0 35.5 14.5t14.5 36.5q0 19 -12.5 31t-30.5 12q-21 0 -35 -14.5t-14 -36.5q0 -19 12 -31t30 -12z" glyph-name="perthousand" horiz-adv-x="1050" unicode="‰"/><glyph d="M169 128q-1 -9 -7.5 -11t-11.5 4l-101 91q-8 6 -6 17l12 88q2 11 10 17l127 91q8 5 13.5 3.5t4.5 -10.5l-11 -73q-2 -12 -10 -18l-79 -54l63 -55q8 -6 6 -18z" glyph-name="guilsinglleft" horiz-adv-x="230" unicode="‹"/><glyph d="M69 418q1 9 7.5 11t11.5 -4l102 -91q8 -6 6 -17l-13 -88q-2 -11 -10 -17l-127 -91q-7 -5 -12.5 -3.5t-4.5 10.5l10 72q2 12 10 18l79 55l-63 54q-8 6 -6 18z" glyph-name="guilsinglright" horiz-adv-x="230" unicode="›"/><glyph d="M376 700l-511 -700h-59l511 700h59z" glyph-name="fraction" horiz-adv-x="152" unicode="⁄"/><glyph d="M491 568q-70 0 -127.5 -34.5t-89.5 -91.5h128q15 0 13 -15l-7 -50q-2 -15 -17 -15h-145q-3 -18 -3 -37h142q15 0 13 -15l-7 -50q-2 -15 -17 -15h-119q20 -55 66.5 -86.5t110.5 -31.5q84 0 160 58q13 10 21 -1l60 -74q8 -11 -3 -21q-115 -102 -258 -102q-123 0 -208.5 71 t-103.5 187h-60q-15 0 -13 15l7 50q2 15 17 15h46q0 13 4 37h-44q-15 0 -13 15l7 50q2 15 17 15h54q44 117 148.5 191.5t233.5 74.5q149 0 234 -101q8 -9 -4 -21l-75 -75q-11 -11 -22 -1q-60 58 -146 58z" glyph-name="Euro" horiz-adv-x="741" unicode="€"/><glyph d="M297 700q4 0 4 -5l-4 -30q0 -5 -6 -5h-58l-19 -135q0 -5 -5 -5h-37q-5 0 -5 5l19 135h-58q-4 0 -4 5l4 30q0 5 6 5h163zM545 700q4 0 4 -5l-24 -170q0 -5 -5 -5h-38q-5 0 -5 5l14 95l-56 -97q-1 -3 -6 -3h-25q-4 0 -6 3l-27 97l-14 -95q0 -5 -5 -5h-38q-5 0 -5 5l24 170 q0 5 6 5h42q5 0 6 -3l37 -118l73 118q1 3 6 3h42z" glyph-name="trademark" horiz-adv-x="551" unicode="™"/><glyph d="M185 701l-36 -261h-53l29 210h-28l7 51h81zM602 700l-511 -700h-59l511 700h59zM484 -4q-50 0 -72 24t-16 66h52q-6 -44 41 -44q22 0 37 10t15 29q0 32 -63 32l6 39q62 0 62 36q0 29 -38 29q-39 0 -45 -42h-52q4 43 31.5 65.5t71.5 22.5q39 0 63 -17t24 -46 q0 -20 -13.5 -37.5t-34.5 -25.5q42 -17 42 -59q0 -38 -31.5 -60t-79.5 -22z" glyph-name="onethird" horiz-adv-x="659" unicode="⅓"/><glyph d="M185 701l-36 -261h-53l29 210h-28l7 51h81zM588 700l-511 -700h-59l511 700h59zM417 -4q-34 0 -58 18t-24 49q0 28 15.5 48.5t39.5 30.5q-25 14 -25 43q0 30 24 54t66 24q35 0 53 -16.5t18 -41.5q0 -43 -40 -63q36 -18 36 -56q0 -42 -32 -66t-73 -24zM441 164 q16 0 26.5 10t10.5 23q0 24 -29 24q-17 0 -26 -9.5t-9 -22.5q0 -25 27 -25zM423 40q21 0 35 12t14 31q0 16 -10 26t-28 10q-21 0 -34.5 -13.5t-13.5 -32.5q0 -33 37 -33z" glyph-name="oneeighth" horiz-adv-x="589" unicode="⅛"/><glyph d="M168 436q-50 0 -72 24t-16 66h52q-6 -44 41 -44q22 0 37 10t15 29q0 32 -63 32l6 39q62 0 62 36q0 29 -38 29q-39 0 -45 -42h-52q4 43 31.5 65.5t71.5 22.5q39 0 63 -17t24 -46q0 -20 -13.5 -37.5t-34.5 -25.5q42 -17 42 -59q0 -38 -31.5 -60t-79.5 -22zM611 700 l-511 -700h-59l511 700h59zM438 -4q-34 0 -58 18t-24 49q0 28 15.5 48.5t39.5 30.5q-25 14 -25 43q0 30 24 54t66 24q35 0 53 -16.5t18 -41.5q0 -43 -40 -63q36 -18 36 -56q0 -42 -32 -66t-73 -24zM462 164q16 0 26.5 10t10.5 23q0 24 -29 24q-17 0 -26 -9.5t-9 -22.5 q0 -25 27 -25zM444 40q21 0 35 12t14 31q0 16 -10 26t-28 10q-21 0 -34.5 -13.5t-13.5 -32.5q0 -33 37 -33z" glyph-name="threeeighths" horiz-adv-x="606" unicode="⅜"/><glyph d="M277 701l-8 -50h-107l-10 -43q14 11 42 11q36 0 59 -21t23 -56q0 -47 -33 -76.5t-82 -29.5q-39 0 -61 18t-24 44l49 20q2 -16 13 -26t29 -10q25 0 40.5 16t15.5 37q0 17 -12 27.5t-32 10.5q-30 0 -44 -23l-43 12l37 139h148zM611 700l-511 -700h-59l511 700h59zM440 -4 q-34 0 -58 18t-24 49q0 28 15.5 48.5t39.5 30.5q-25 14 -25 43q0 30 24 54t66 24q35 0 53 -16.5t18 -41.5q0 -43 -40 -63q36 -18 36 -56q0 -42 -32 -66t-73 -24zM464 164q16 0 26.5 10t10.5 23q0 24 -29 24q-17 0 -26 -9.5t-9 -22.5q0 -25 27 -25zM446 40q21 0 35 12t14 31 q0 16 -10 26t-28 10q-21 0 -34.5 -13.5t-13.5 -32.5q0 -33 37 -33z" glyph-name="fiveeighths" horiz-adv-x="608" unicode="⅝"/><glyph d="M285 701l-143 -261h-57l117 210h-105l7 51h181zM589 700l-511 -700h-59l511 700h59zM418 -4q-34 0 -58 18t-24 49q0 28 15.5 48.5t39.5 30.5q-25 14 -25 43q0 30 24 54t66 24q35 0 53 -16.5t18 -41.5q0 -43 -40 -63q36 -18 36 -56q0 -42 -32 -66t-73 -24zM442 164 q16 0 26.5 10t10.5 23q0 24 -29 24q-17 0 -26 -9.5t-9 -22.5q0 -25 27 -25zM424 40q21 0 35 12t14 31q0 16 -10 26t-28 10q-21 0 -34.5 -13.5t-13.5 -32.5q0 -33 37 -33z" glyph-name="seveneighths" horiz-adv-x="581" unicode="⅞"/><glyph d="M471 433q59 -89 59 -169q0 -113 -84.5 -195t-199.5 -82q-95 0 -156 57.5t-61 147.5q0 108 74 186t184 89l-111 163q-7 11 6 21l83 65q12 9 21 -3zM264 114q55 0 93 40.5t38 96.5q0 44 -27 71.5t-71 27.5q-55 0 -93.5 -40.5t-38.5 -97.5q0 -44 27 -71t72 -27z" glyph-name="partialdiff" horiz-adv-x="564" unicode="∂"/><glyph d="M117 685q2 15 17 15h583q15 0 13 -15l-121 -860q-2 -15 -17 -15h-98q-15 0 -13 15l106 748h-358l-106 -748q-2 -15 -17 -15h-97q-15 0 -13 15z" glyph-name="product" horiz-adv-x="722" unicode="∏"/><glyph d="M676 700q15 0 13 -15l-15 -98q-2 -15 -17 -15h-394l225 -306q8 -11 -3 -22l-308 -306h391q15 0 13 -15l-13 -98q-2 -15 -17 -15h-542q-15 0 -13 15l14 103q2 10 9 18l312 312l-226 306q-5 7 -3 18l15 103q2 15 17 15h542z" glyph-name="summation" horiz-adv-x="682" unicode="∑"/><glyph d="M438 336q15 0 13 -15l-11 -72q-2 -15 -17 -15h-344q-15 0 -13 15l10 72q2 15 17 15h345z" glyph-name="minus" horiz-adv-x="504" unicode="−"/><glyph d="M691 700q17 0 11 -17l-350 -860q-5 -13 -18 -13h-124q-14 0 -15 12l-51 383h-100q-15 0 -13 15l13 95q2 15 17 15h174q14 0 15 -13l41 -359l293 729q5 13 18 13h89z" glyph-name="radical" horiz-adv-x="675" unicode="√"/><glyph d="M637 428q68 0 112.5 -40t44.5 -107q0 -80 -62 -134t-142 -54q-102 0 -178 95q-103 -95 -203 -95q-68 0 -113.5 40t-45.5 107q0 80 62.5 134t143.5 54q101 0 176 -95q103 95 205 95zM230 183q66 0 134 78q-47 77 -113 77q-42 0 -69.5 -26t-27.5 -61q0 -30 20 -49t56 -19z M593 183q42 0 69.5 26.5t27.5 61.5q0 29 -20 48t-56 19q-65 0 -134 -77q47 -78 113 -78z" glyph-name="infinity" horiz-adv-x="840" unicode="∞"/><glyph d="M53 -190q-40 0 -72 14q-11 5 -9 17l13 90q1 9 14 7q27 -5 40 -5q34 0 49 15.5t19 45.5l80 572q23 165 191 165q40 0 71 -14q11 -5 9 -17l-12 -90q-1 -9 -14 -7q-27 5 -40 5q-34 0 -49 -15.5t-19 -45.5l-80 -572q-25 -165 -191 -165z" glyph-name="integral" horiz-adv-x="424" unicode="∫"/><glyph d="M201 435q38 0 68.5 -19.5t55 -38.5t48.5 -19q36 0 55 30q4 9 13 9h33q11 0 9 -10q-8 -57 -44 -86t-85 -29q-30 0 -56.5 12t-41.5 26.5t-35 26.5t-39 12q-37 0 -54 -31q-6 -9 -13 -9h-34q-12 0 -10 11q8 55 44.5 85t85.5 30zM178 275q38 0 68.5 -19.5t55 -38.5t47.5 -19 q35 0 56 30q5 9 13 9h33q11 0 9 -10q-8 -57 -44 -86t-85 -29q-30 0 -56.5 12t-41.5 26.5t-35 26.5t-39 12q-37 0 -54 -31q-6 -9 -13 -9h-34q-12 0 -10 11q8 55 44.5 85t85.5 30z" glyph-name="approxequal" horiz-adv-x="523" unicode="≈"/><glyph d="M449 417q15 0 13 -15l-11 -72q-2 -15 -17 -15h-124l-22 -60h137q15 0 13 -15l-10 -72q-2 -15 -17 -15h-161l-52 -141q-4 -12 -18 -12h-52q-18 0 -12 17l50 136h-99q-15 0 -13 15l10 72q2 15 17 15h123l22 60h-136q-15 0 -13 15l10 72q2 15 17 15h159l49 132q4 12 18 12 h52q18 0 12 -17l-47 -127h102z" glyph-name="notequal" horiz-adv-x="504" unicode="≠"/><glyph d="M393 172l-310 163q-8 4 -8 16l9 64q1 10 12 16l356 162q8 4 12 1.5t3 -9.5l-11 -83q-1 -10 -12 -13l-252 -108l220 -105q12 -4 11 -15l-12 -80q-3 -16 -18 -9zM41 0q-15 0 -13 15l8 56q2 15 17 15h330q15 0 13 -15l-8 -56q-2 -15 -17 -15h-330z" glyph-name="lessequal" horiz-adv-x="481" unicode="≤"/><glyph d="M132 594l310 -163q9 -4 7 -15l-8 -65q-1 -10 -13 -16l-355 -162q-8 -4 -12.5 -1.5t-3.5 9.5l11 83q1 10 13 13l252 108l-221 105q-12 6 -11 15l13 80q3 16 18 9zM46 0q-15 0 -13 15l8 56q2 15 17 15h330q15 0 13 -15l-8 -56q-2 -15 -17 -15h-330z" glyph-name="greaterequal" horiz-adv-x="491" unicode="≥"/><glyph d="M192 0q-13 0 -16 11l-100 329q-2 9 3 20l192 329q7 11 19 11h152q14 0 15 -11l100 -329q2 -9 -3 -20l-193 -329q-5 -11 -18 -11h-151zM279 83l156 267l-80 267l-157 -267z" glyph-name="lozenge" horiz-adv-x="603" unicode="◊"/><glyph d="M819 586q9 -11 -3 -21l-541 -474q-12 -11 -21 0l-208 242q-10 10 3 21l92 81q12 11 21 0l127 -150l437 385q12 10 21 0z" glyph-name="uni2713" horiz-adv-x="805" unicode="✓"/><glyph glyph-name="uniFEFF" horiz-adv-x="195" unicode="﻿"/><glyph d="M172 566q-27 0 -44 17t-17 45q0 31 23.5 54t55.5 23q27 0 44 -17t17 -44q0 -32 -23.5 -55t-55.5 -23zM36 0q-15 0 -13 15l64 460q2 15 17 15h109q15 0 13 -15l-64 -460q-2 -15 -17 -15h-109z" glyph-name="i.aalt" horiz-adv-x="249"/><glyph d="M492 317l-24 -173q-5 -32 11 -41q11 -6 10 -19l-9 -70q-1 -7 -4.5 -11t-12.5 -6t-14 -2h-21q-88 0 -103 66q-75 -74 -176 -74q-64 0 -100.5 32.5t-36.5 94.5q0 76 48.5 115t140.5 50l149 16l4 31q5 35 -12 51t-60 16q-78 0 -90 -54q-2 -10 -15 -10h-96q-16 0 -13 15 q25 158 231 158q113 0 159.5 -44t33.5 -141zM153 140q0 -43 58 -43q68 0 118 46l8 63l-129 -16q-55 -7 -55 -50z" glyph-name="a.salt" horiz-adv-x="556"/><glyph d="M267 557q-7 0 -9.5 5t1.5 12l77 114q8 12 19 12h99q7 0 9 -5t-2 -12l-78 -114q-8 -12 -19 -12h-97zM492 317l-24 -173q-5 -32 11 -41q11 -6 10 -19l-9 -70q-1 -7 -4.5 -11t-12.5 -6t-14 -2h-21q-88 0 -103 66q-75 -74 -176 -74q-64 0 -100.5 32.5t-36.5 94.5 q0 76 48.5 115t140.5 50l149 16l4 31q5 35 -12 51t-60 16q-78 0 -90 -54q-2 -10 -15 -10h-96q-16 0 -13 15q25 158 231 158q113 0 159.5 -44t33.5 -141zM153 140q0 -43 58 -43q68 0 118 46l8 63l-129 -16q-55 -7 -55 -50z" glyph-name="aacute.aalt" horiz-adv-x="556"/><glyph d="M319 556q-69 0 -106.5 37t-35.5 92q0 15 16 15h53q12 0 14 -14q3 -21 20 -36t48 -15q57 0 77 51q5 14 19 14h55q15 0 12 -15q-10 -55 -56.5 -92t-115.5 -37zM492 317l-24 -173q-5 -32 11 -41q11 -6 10 -19l-9 -70q-1 -7 -4.5 -11t-12.5 -6t-14 -2h-21q-88 0 -103 66 q-75 -74 -176 -74q-64 0 -100.5 32.5t-36.5 94.5q0 76 48.5 115t140.5 50l149 16l4 31q5 35 -12 51t-60 16q-78 0 -90 -54q-2 -10 -15 -10h-96q-16 0 -13 15q25 158 231 158q113 0 159.5 -44t33.5 -141zM153 140q0 -43 58 -43q68 0 118 46l8 63l-129 -16q-55 -7 -55 -50z " glyph-name="abreve.aalt" horiz-adv-x="556"/><glyph d="M250 574l-74 108q-5 6 -2 12t12 6h73q12 0 17 -8l45 -67l62 67q8 8 19 8h74q9 0 10 -6t-6 -12l-102 -108q-8 -8 -18 -8h-94q-11 0 -16 8zM492 317l-24 -173q-5 -32 11 -41q11 -6 10 -19l-9 -70q-1 -7 -4.5 -11t-12.5 -6t-14 -2h-21q-88 0 -103 66q-75 -74 -176 -74 q-64 0 -100.5 32.5t-36.5 94.5q0 76 48.5 115t140.5 50l149 16l4 31q5 35 -12 51t-60 16q-78 0 -90 -54q-2 -10 -15 -10h-96q-16 0 -13 15q25 158 231 158q113 0 159.5 -44t33.5 -141zM153 140q0 -43 58 -43q68 0 118 46l8 63l-129 -16q-55 -7 -55 -50z" glyph-name="uni01CE.aalt" horiz-adv-x="556"/><glyph d="M171 566q-9 0 -9.5 6t5.5 12l102 108q8 8 18 8h94q11 0 16 -8l74 -108q5 -6 2 -12t-12 -6h-72q-12 0 -17 8l-46 67l-61 -67q-8 -8 -19 -8h-75zM492 317l-24 -173q-5 -32 11 -41q11 -6 10 -19l-9 -70q-1 -7 -4.5 -11t-12.5 -6t-14 -2h-21q-88 0 -103 66q-75 -74 -176 -74 q-64 0 -100.5 32.5t-36.5 94.5q0 76 48.5 115t140.5 50l149 16l4 31q5 35 -12 51t-60 16q-78 0 -90 -54q-2 -10 -15 -10h-96q-16 0 -13 15q25 158 231 158q113 0 159.5 -44t33.5 -141zM153 140q0 -43 58 -43q68 0 118 46l8 63l-129 -16q-55 -7 -55 -50z" glyph-name="acircumflex.aalt" horiz-adv-x="556"/><glyph d="M208 566q-27 0 -44 17t-17 45q0 31 23.5 54t55.5 23q27 0 44 -17t17 -44q0 -32 -23.5 -55t-55.5 -23zM428 566q-27 0 -44 17t-17 45q0 31 23.5 54t55.5 23q27 0 44 -17t17 -44q0 -32 -23.5 -55t-55.5 -23zM299 502q113 0 159.5 -44t33.5 -141l-24 -173q-5 -32 11 -41 q11 -6 10 -19l-9 -70q-1 -7 -4.5 -11t-12.5 -6t-14 -2h-21q-88 0 -103 66q-75 -74 -176 -74q-64 0 -100.5 32.5t-36.5 94.5q0 76 48.5 115t140.5 50l149 16l4 31q5 35 -12 51t-60 16q-78 0 -90 -54q-2 -10 -15 -10h-96q-16 0 -13 15q25 158 231 158zM153 140q0 -43 58 -43 q68 0 118 46l8 63l-129 -16q-55 -7 -55 -50z" glyph-name="adieresis.aalt" horiz-adv-x="556"/><glyph d="M238 569l-59 114q-9 17 12 17h96q10 0 18 -12l59 -114q9 -17 -12 -17h-97q-10 0 -17 12zM492 317l-24 -173q-5 -32 11 -41q11 -6 10 -19l-9 -70q-1 -7 -4.5 -11t-12.5 -6t-14 -2h-21q-88 0 -103 66q-75 -74 -176 -74q-64 0 -100.5 32.5t-36.5 94.5q0 76 48.5 115 t140.5 50l149 16l4 31q5 35 -12 51t-60 16q-78 0 -90 -54q-2 -10 -15 -10h-96q-16 0 -13 15q25 158 231 158q113 0 159.5 -44t33.5 -141zM153 140q0 -43 58 -43q68 0 118 46l8 63l-129 -16q-55 -7 -55 -50z" glyph-name="agrave.aalt" horiz-adv-x="556"/><glyph d="M486 700q16 0 14 -15l-12 -77q-2 -15 -17 -15h-303q-15 0 -13 15l11 77q2 15 17 15h303zM299 502q113 0 159.5 -44t33.5 -141l-24 -173q-5 -32 11 -41q11 -6 10 -19l-9 -70q-1 -7 -4.5 -11t-12.5 -6t-14 -2h-21q-88 0 -103 66q-75 -74 -176 -74q-64 0 -100.5 32.5 t-36.5 94.5q0 76 48.5 115t140.5 50l149 16l4 31q5 35 -12 51t-60 16q-78 0 -90 -54q-2 -10 -15 -10h-96q-16 0 -13 15q25 158 231 158zM153 140q0 -43 58 -43q68 0 118 46l8 63l-129 -16q-55 -7 -55 -50z" glyph-name="amacron.aalt" horiz-adv-x="556"/><glyph d="M492 317l-24 -173q-5 -32 11 -41q11 -6 10 -19l-9 -70q-2 -19 -36 -19q-35 0 -61.5 -17t-26.5 -45q0 -20 15 -30.5t46 -4.5l-12 -86q-32 -10 -69 -9.5t-67 26t-30 67.5q0 81 105 128q-14 14 -19 37q-75 -74 -176 -74q-64 0 -100.5 32.5t-36.5 94.5q0 76 48.5 115 t140.5 50l149 16l4 31q5 35 -12 51t-60 16q-78 0 -90 -54q-2 -10 -15 -10h-96q-16 0 -13 15q25 158 231 158q113 0 159.5 -44t33.5 -141zM153 140q0 -43 58 -43q68 0 118 46l8 63l-129 -16q-55 -7 -55 -50z" glyph-name="aogonek.aalt" horiz-adv-x="556"/><glyph d="M317 538q-43 0 -68.5 25.5t-25.5 64.5q0 45 33 79t82 34q42 0 67.5 -25.5t25.5 -64.5q0 -45 -32.5 -79t-81.5 -34zM329 664q-11 0 -18.5 -8t-7.5 -19q0 -9 6 -15.5t16 -6.5q11 0 18.5 8t7.5 19q0 9 -6 15.5t-16 6.5zM492 317l-24 -173q-5 -32 11 -41q11 -6 10 -19l-9 -70 q-1 -7 -4.5 -11t-12.5 -6t-14 -2h-21q-88 0 -103 66q-75 -74 -176 -74q-64 0 -100.5 32.5t-36.5 94.5q0 76 48.5 115t140.5 50l149 16l4 31q5 35 -12 51t-60 16q-78 0 -90 -54q-2 -10 -15 -10h-96q-16 0 -13 15q25 158 231 158q113 0 159.5 -44t33.5 -141zM153 140 q0 -43 58 -43q68 0 118 46l8 63l-129 -16q-55 -7 -55 -50z" glyph-name="aring.aalt" horiz-adv-x="556"/><glyph d="M508 688q13 0 10 -12q-10 -50 -43.5 -76.5t-76.5 -26.5q-28 0 -51.5 11t-37 24.5t-31.5 24.5t-36 11q-34 0 -50 -28q-5 -8 -13 -8h-28q-13 0 -10 13q11 50 43.5 75.5t75.5 25.5q28 0 51.5 -11t37 -24t31.5 -24t36 -11q35 0 50 28q4 8 14 8h28zM299 502q113 0 159.5 -44 t33.5 -141l-24 -173q-5 -32 11 -41q11 -6 10 -19l-9 -70q-1 -7 -4.5 -11t-12.5 -6t-14 -2h-21q-88 0 -103 66q-75 -74 -176 -74q-64 0 -100.5 32.5t-36.5 94.5q0 76 48.5 115t140.5 50l149 16l4 31q5 35 -12 51t-60 16q-78 0 -90 -54q-2 -10 -15 -10h-96q-16 0 -13 15 q25 158 231 158zM153 140q0 -43 58 -43q68 0 118 46l8 63l-129 -16q-55 -7 -55 -50z" glyph-name="atilde.aalt" horiz-adv-x="556"/><glyph d="M376 490q15 0 13 -15l-11 -82q-2 -15 -17 -15h-80l-50 -363q-2 -15 -17 -15h-109q-15 0 -13 15l50 363h-79q-15 0 -13 15l11 82q2 15 17 15h79l19 135q2 15 17 15h109q15 0 13 -15l-19 -135h80z" glyph-name="t.aalt" horiz-adv-x="387"/><glyph d="M430 708q106 0 172.5 -70.5t66.5 -210.5q0 -116 -39 -215t-116.5 -162t-178.5 -63q-106 0 -172.5 70.5t-66.5 210.5q0 116 39 215t116.5 162t178.5 63zM416 580q-60 0 -104 -46t-63 -112t-19 -139q0 -80 29.5 -124t89.5 -44t104 46.5t63 112.5t19 140q0 78 -29.5 122 t-89.5 44z" glyph-name="zero.tnum" horiz-adv-x="730"/><glyph d="M559 700q15 0 13 -15l-94 -670q-2 -15 -16 -15h-108q-16 0 -14 15l80 568h-115q-16 0 -14 15l13 87q2 15 17 15h238z" glyph-name="one.tnum" horiz-adv-x="730"/><glyph d="M557 117q15 0 13 -15l-13 -87q-2 -15 -17 -15h-403q-15 0 -13 15l12 86q2 11 10 19l239 222q26 24 37.5 35t31 34t27.5 44t8 44q0 38 -23.5 60t-65.5 22q-40 0 -68 -18t-56 -50q-11 -12 -22 0l-55 60q-9 12 1 22q92 113 226 113q92 0 146.5 -50.5t54.5 -132.5 q0 -66 -33 -117t-90 -105l-197 -186h250z" glyph-name="two.tnum" horiz-adv-x="730"/><glyph d="M308 -13q-73 0 -124 29.5t-75 77.5q-6 12 6 21l75 60q12 10 22 -2q39 -59 105 -59q51 0 83.5 31.5t32.5 76.5q0 37 -23.5 61t-69.5 24h-25q-17 0 -16 16l13 82q2 14 16 14h26q44 0 72 26.5t28 64.5q0 33 -22 52t-57 19q-56 0 -100 -56q-12 -14 -24 -2l-52 58 q-11 13 -1 24q36 46 90 74.5t118 28.5q80 0 133 -43.5t53 -117.5q0 -58 -32.5 -105t-88.5 -71q45 -18 73 -56.5t28 -97.5q0 -98 -77.5 -164t-186.5 -66z" glyph-name="three.tnum" horiz-adv-x="730"/><glyph d="M602 249q16 0 14 -16l-9 -76q-3 -22 -23 -22h-58l-17 -120q-2 -15 -16 -15h-107q-7 0 -11.5 4t-3.5 11l17 120h-279q-15 0 -13 15l13 89q1 10 8 19l343 432q7 10 21 10h109q15 0 13 -15l-61 -436h60zM245 249h158l35 245z" glyph-name="four.tnum" horiz-adv-x="730"/><glyph d="M594 700q15 0 13 -15l-13 -87q-2 -15 -17 -15h-213l-50 -134q42 17 86 17q85 0 138 -57.5t53 -147.5q0 -115 -82.5 -194.5t-200.5 -79.5q-75 0 -127 31.5t-73 74.5q-4 14 11 24l78 54q15 10 24 -4q32 -53 98 -53q58 0 97 38.5t39 94.5q0 47 -28.5 75t-74.5 28 q-53 0 -93 -38q-13 -13 -27 -7l-70 31q-12 5 -8 17l122 334q5 13 18 13h300z" glyph-name="five.tnum" horiz-adv-x="730"/><glyph d="M422 467q86 -8 139 -62.5t53 -139.5q0 -114 -85 -196t-200 -82q-94 0 -155 58.5t-61 149.5q0 113 117 238l263 281q12 12 22 2l65 -63q10 -10 0 -21zM348 114q54 0 92.5 40t38.5 95q0 45 -27.5 73t-71.5 28q-54 0 -92.5 -40t-38.5 -96q0 -45 27 -72.5t72 -27.5z" glyph-name="six.tnum" horiz-adv-x="730"/><glyph d="M638 700q19 0 9 -19l-355 -666q-8 -15 -21 -15h-105q-8 0 -11 4.5t2 13.5l309 565h-272q-16 0 -14 15l12 87q2 15 19 15h427z" glyph-name="seven.tnum" horiz-adv-x="730"/><glyph d="M339 -13q-94 0 -158.5 52t-64.5 142q0 71 41.5 128t109.5 87q-59 43 -59 120q0 78 62 135t156 57q82 0 131 -44t49 -111q0 -99 -97 -160q100 -47 100 -163q0 -104 -80 -173.5t-190 -69.5zM397 445q37 0 62 25t25 61q0 30 -19 49t-50 19q-37 0 -62 -25t-25 -61 q0 -30 19 -49t50 -19zM352 111q50 0 84.5 32t34.5 83q0 44 -27.5 68.5t-69.5 24.5q-50 0 -84.5 -32t-34.5 -83q0 -44 27.5 -68.5t69.5 -24.5z" glyph-name="eight.tnum" horiz-adv-x="730"/><glyph d="M453 708q94 0 155 -58.5t61 -148.5q0 -114 -117 -239l-264 -281q-11 -12 -21 -2l-65 63q-10 10 0 21l158 165q-87 8 -140 63t-53 139q0 113 85.5 195.5t200.5 82.5zM402 345q54 0 92.5 40t38.5 96q0 45 -27 72.5t-72 27.5q-55 0 -93 -39.5t-38 -95.5q0 -45 27.5 -73 t71.5 -28z" glyph-name="nine.tnum" horiz-adv-x="730"/><glyph d="M153 263q50 0 76 -35t17 -91l-2 -13q-9 -57 -44 -91.5t-85 -34.5t-75.5 35t-16.5 91l2 13q9 57 43.5 91.5t84.5 34.5zM146 215q-26 0 -44.5 -21.5t-23.5 -56.5l-2 -13q-5 -36 7 -57.5t39 -21.5t45.5 21.5t23.5 57.5l2 13q5 35 -7.5 56.5t-39.5 21.5z" glyph-name="zero.dnom" horiz-adv-x="301"/><glyph d="M123 261l-36 -261h-53l29 210h-28l7 51h81z" glyph-name="one.dnom" horiz-adv-x="166"/><glyph d="M132 264q39 0 61 -18.5t22 -46.5q0 -23 -16 -46t-28.5 -33.5t-49.5 -39.5l-40 -30h110l-7 -50h-176l6 50l77 60q4 3 15 12t15 12t12 10t11.5 11t7.5 10t5.5 12t1.5 12q0 12 -9.5 20t-24.5 8q-34 0 -41 -36l-2 -13h-53l2 14q5 38 32 60t69 22z" glyph-name="two.dnom" horiz-adv-x="262"/><glyph d="M106 -4q-50 0 -72 24t-16 66h52q-6 -44 41 -44q22 0 37 10t15 29q0 32 -63 32l6 39q62 0 62 36q0 29 -38 29q-39 0 -45 -42h-52q4 43 31.5 65.5t71.5 22.5q39 0 63 -17t24 -46q0 -20 -13.5 -37.5t-34.5 -25.5q42 -17 42 -59q0 -38 -31.5 -60t-79.5 -22z" glyph-name="three.dnom" horiz-adv-x="281"/><glyph d="M218 261l-22 -156h27l-7 -51h-27l-7 -54h-53l7 54h-138l167 207h53zM155 187l-65 -82h53z" glyph-name="four.dnom" horiz-adv-x="283"/><glyph d="M215 261l-8 -50h-107l-10 -43q14 11 42 11q36 0 59 -21t23 -56q0 -47 -33 -76.5t-82 -29.5q-39 0 -61 18t-24 44l49 20q2 -16 13 -26t29 -10q25 0 40.5 16t15.5 37q0 17 -12 27.5t-32 10.5q-30 0 -44 -23l-43 12l37 139h148z" glyph-name="five.dnom" horiz-adv-x="275"/><glyph d="M211 261l-88 -97q3 1 8 1q27 0 48.5 -20.5t21.5 -51.5q0 -41 -31 -69t-73 -28q-36 0 -58.5 20.5t-22.5 52.5q0 7 1 14.5t2.5 13t5 12.5t5 11t7 11.5t7.5 10.5t9 10.5t8.5 9.5t9.5 10.5t9 9.5l73 79h58zM115 120q-19 0 -33 -13t-14 -32q0 -15 10 -24.5t25 -9.5q19 0 33 13 t14 33q0 15 -9.5 24t-25.5 9z" glyph-name="six.dnom" horiz-adv-x="263"/><glyph d="M223 261l-143 -261h-57l117 210h-105l7 51h181z" glyph-name="seven.dnom" horiz-adv-x="256"/><glyph d="M97 -4q-34 0 -58 18t-24 49q0 28 15.5 48.5t39.5 30.5q-25 14 -25 43q0 30 24 54t66 24q35 0 53 -16.5t18 -41.5q0 -43 -40 -63q36 -18 36 -56q0 -42 -32 -66t-73 -24zM121 164q16 0 26.5 10t10.5 23q0 24 -29 24q-17 0 -26 -9.5t-9 -22.5q0 -25 27 -25zM103 40 q21 0 35 12t14 31q0 16 -10 26t-28 10q-21 0 -34.5 -13.5t-13.5 -32.5q0 -33 37 -33z" glyph-name="eight.dnom" horiz-adv-x="265"/><glyph d="M20 0l88 97q-3 -1 -7 -1q-28 0 -49.5 20.5t-21.5 51.5q0 41 31 69t73 28q36 0 58.5 -20.5t22.5 -52.5q0 -7 -1 -14.5t-2.5 -13t-5 -12.5t-5 -11t-7 -11.5t-7.5 -10.5t-9 -10.5t-8.5 -9.5t-9.5 -10.5t-9 -9.5l-73 -79h-58zM116 141q20 0 34 13t14 32q0 16 -10 25t-26 9 q-19 0 -32.5 -13t-13.5 -33q0 -15 9.5 -24t24.5 -9z" glyph-name="nine.dnom" horiz-adv-x="263"/><glyph d="M215 703q50 0 76 -35t17 -91l-2 -13q-9 -57 -44 -91.5t-85 -34.5t-75.5 35t-16.5 91l2 13q9 57 43.5 91.5t84.5 34.5zM208 655q-26 0 -44.5 -21.5t-23.5 -56.5l-2 -13q-5 -36 7 -57.5t39 -21.5t45.5 21.5t23.5 57.5l2 13q5 35 -7.5 56.5t-39.5 21.5z" glyph-name="zero.numr" horiz-adv-x="301"/><glyph d="M185 701l-36 -261h-53l29 210h-28l7 51h81z" glyph-name="one.numr" horiz-adv-x="166"/><glyph d="M194 704q39 0 61 -18.5t22 -46.5q0 -23 -16 -46t-28.5 -33.5t-49.5 -39.5l-40 -30h110l-7 -50h-176l6 50l77 60q4 3 15 12t15 12t12 10t11.5 11t7.5 10t5.5 12t1.5 12q0 12 -9.5 20t-24.5 8q-34 0 -41 -36l-2 -13h-53l2 14q5 38 32 60t69 22z" glyph-name="two.numr" horiz-adv-x="262"/><glyph d="M168 436q-50 0 -72 24t-16 66h52q-6 -44 41 -44q22 0 37 10t15 29q0 32 -63 32l6 39q62 0 62 36q0 29 -38 29q-39 0 -45 -42h-52q4 43 31.5 65.5t71.5 22.5q39 0 63 -17t24 -46q0 -20 -13.5 -37.5t-34.5 -25.5q42 -17 42 -59q0 -38 -31.5 -60t-79.5 -22z" glyph-name="three.numr" horiz-adv-x="281"/><glyph d="M280 701l-22 -156h27l-7 -51h-27l-7 -54h-53l7 54h-138l167 207h53zM217 627l-65 -82h53z" glyph-name="four.numr" horiz-adv-x="283"/><glyph d="M277 701l-8 -50h-107l-10 -43q14 11 42 11q36 0 59 -21t23 -56q0 -47 -33 -76.5t-82 -29.5q-39 0 -61 18t-24 44l49 20q2 -16 13 -26t29 -10q25 0 40.5 16t15.5 37q0 17 -12 27.5t-32 10.5q-30 0 -44 -23l-43 12l37 139h148z" glyph-name="five.numr" horiz-adv-x="275"/><glyph d="M273 701l-88 -97q3 1 8 1q27 0 48.5 -20.5t21.5 -51.5q0 -41 -31 -69t-73 -28q-36 0 -58.5 20.5t-22.5 52.5q0 7 1 14.5t2.5 13t5 12.5t5 11t7 11.5t7.5 10.5t9 10.5t8.5 9.5t9.5 10.5t9 9.5l73 79h58zM177 560q-19 0 -33 -13t-14 -32q0 -15 10 -24.5t25 -9.5q19 0 33 13 t14 33q0 15 -9.5 24t-25.5 9z" glyph-name="six.numr" horiz-adv-x="263"/><glyph d="M285 701l-143 -261h-57l117 210h-105l7 51h181z" glyph-name="seven.numr" horiz-adv-x="256"/><glyph d="M159 436q-34 0 -58 18t-24 49q0 28 15.5 48.5t39.5 30.5q-25 14 -25 43q0 30 24 54t66 24q35 0 53 -16.5t18 -41.5q0 -43 -40 -63q36 -18 36 -56q0 -42 -32 -66t-73 -24zM183 604q16 0 26.5 10t10.5 23q0 24 -29 24q-17 0 -26 -9.5t-9 -22.5q0 -25 27 -25zM165 480 q21 0 35 12t14 31q0 16 -10 26t-28 10q-21 0 -34.5 -13.5t-13.5 -32.5q0 -33 37 -33z" glyph-name="eight.numr" horiz-adv-x="265"/><glyph d="M82 440l88 97q-3 -1 -7 -1q-28 0 -49.5 20.5t-21.5 51.5q0 41 31 69t73 28q36 0 58.5 -20.5t22.5 -52.5q0 -7 -1 -14.5t-2.5 -13t-5 -12.5t-5 -11t-7 -11.5t-7.5 -10.5t-9 -10.5t-8.5 -9.5t-9.5 -10.5t-9 -9.5l-73 -79h-58zM178 581q20 0 34 13t14 32q0 16 -10 25t-26 9 q-19 0 -32.5 -13t-13.5 -33q0 -15 9.5 -24t24.5 -9z" glyph-name="nine.numr" horiz-adv-x="263"/><glyph d="M376 769q-7 0 -9.5 5t1.5 12l77 114q8 12 19 12h98q8 0 10 -5.5t-2 -12.5l-78 -113q-8 -12 -19 -12h-97zM630 17q3 -17 -14 -17h-119q-12 0 -15 12l-19 103h-264l-48 -103q-4 -12 -19 -12h-119q-19 0 -10 17l329 671q6 12 20 12h121q15 0 18 -12zM258 242h181l-52 278z " glyph-name="glyph499" horiz-adv-x="698"/><glyph d="M486 912q7 0 9 -5.5t-2 -12.5l-77 -113q-8 -12 -19 -12h-97q-8 0 -10.5 5t1.5 12l78 114q8 12 19 12h98zM50 0q-15 0 -13 15l94 670q2 15 17 15h356q15 0 13 -15l-13 -97q-2 -15 -17 -15h-228l-22 -155h214q16 0 14 -15l-14 -97q-2 -15 -17 -15h-215l-23 -164h228 q15 0 13 -15l-14 -97q-2 -15 -17 -15h-356z" glyph-name="glyph500" horiz-adv-x="516"/><glyph d="M362 769q-7 0 -9.5 5t1.5 12l77 114q8 12 19 12h98q8 0 10 -5.5t-2 -12.5l-78 -113q-8 -12 -19 -12h-97zM653 700q15 0 13 -15l-94 -670q-2 -15 -17 -15h-113q-15 0 -13 15l62 442l-293 -447q-7 -10 -19 -10h-129q-15 0 -13 15l94 670q2 15 17 15h113q15 0 13 -15 l-62 -440l292 445q9 10 20 10h129z" glyph-name="glyph501" horiz-adv-x="673"/><glyph d="M623 912q7 0 10 -5.5t-2 -12.5l-78 -113q-8 -12 -19 -12h-97q-7 0 -9.5 5t1.5 12l77 114q8 12 19 12h98zM376 -13q-138 0 -227 88t-89 223q0 166 122.5 288t290.5 122q138 0 226.5 -88t88.5 -223q0 -166 -122 -288t-290 -122zM395 127q103 0 175 73.5t72 178.5 q0 85 -52 137t-135 52q-103 0 -175.5 -73t-72.5 -177q0 -85 52 -138t136 -53z" glyph-name="glyph502" horiz-adv-x="821"/><glyph d="M369 769q-7 0 -9.5 5t1.5 12l77 114q8 12 19 12h98q7 0 9 -5.5t-2 -12.5l-77 -113q-8 -12 -19 -12h-97zM703 700q9 0 11.5 -5t-3.5 -13l-485 -672q-7 -10 -19 -10h-119q-19 0 -8 18l197 273l-179 391q-7 18 13 18h119q14 0 18 -10l121 -272l196 272q7 10 19 10h119z" glyph-name="glyph503" horiz-adv-x="687"/><glyph d="M582 912q8 0 10 -5.5t-2 -12.5l-78 -113q-8 -12 -19 -12h-97q-7 0 -9.5 5t1.5 12l77 114q8 12 19 12h98zM50 0q-15 0 -13 15l94 670q2 15 17 15h113q15 0 13 -15l-33 -230h86q108 0 160.5 -53.5t52.5 -149.5q0 -115 -73 -183.5t-200 -68.5h-217zM592 0q-15 0 -13 15 l94 670q2 15 17 15h113q15 0 13 -15l-94 -670q-2 -15 -17 -15h-113zM196 127h78q62 0 95 30.5t33 82.5q0 88 -100 88h-78z" glyph-name="glyph504" horiz-adv-x="822"/><glyph d="M295 769q-7 0 -9.5 5t1.5 12l77 114q8 12 19 12h98q7 0 10 -5.5t-2 -12.5l-78 -113q-8 -12 -19 -12h-97zM365 708q137 0 225 -88t88 -227q0 -166 -121 -286t-288 -120q-151 0 -236 100q-11 13 1 23l80 75q12 11 23 0q60 -58 150 -58q78 0 139.5 45t88.5 115h-251 q-15 0 -13 15l13 96q2 15 17 15h248q-11 71 -61 113t-125 42q-84 0 -160 -58q-13 -10 -21 1l-60 75q-8 11 3 21q116 101 260 101z" glyph-name="glyph505" horiz-adv-x="790"/><glyph d="M546 769q-7 0 -9.5 5t1.5 12l77 114q8 12 19 12h98q8 0 10 -5.5t-2 -12.5l-78 -113q-8 -12 -19 -12h-97zM691 708q138 0 226.5 -88t88.5 -223q0 -166 -122 -288t-290 -122q-135 0 -223.5 84.5t-92.5 215.5h-60l-38 -272q-2 -15 -17 -15h-113q-15 0 -13 15l94 670 q2 15 17 15h113q15 0 13 -15l-38 -272h59q40 127 150 211t246 84zM612 127q103 0 175.5 74t72.5 178q0 85 -52 137t-136 52q-103 0 -175 -73t-72 -177q0 -85 52 -138t135 -53z" glyph-name="glyph506" horiz-adv-x="1039"/><glyph d="M203 769q-7 0 -9.5 5t1.5 12l77 114q8 12 19 12h99q7 0 9 -5.5t-2 -12.5l-77 -113q-8 -12 -19 -12h-98zM571 700q15 0 13 -15l-94 -670q-2 -15 -17 -15h-113q-15 0 -13 15l33 230h-54l-158 -235q-7 -10 -18 -10h-120q-9 0 -12.5 5t2.5 13l170 244q-109 44 -109 186 q0 115 73 183.5t201 68.5h216zM397 372l29 201h-79q-62 0 -95 -30.5t-33 -82.5q0 -88 100 -88h78z" glyph-name="glyph507" horiz-adv-x="602"/><glyph d="M302 559q-7 0 -9.5 5t1.5 12l77 114q8 12 19 12h98q8 0 10 -5.5t-2 -12.5l-78 -113q-8 -12 -19 -12h-97zM575 490q16 0 13 -15l-64 -460q-3 -15 -18 -15h-97q-16 0 -13 15l4 52q-64 -79 -169 -79q-94 0 -146.5 59.5t-52.5 157.5q0 121 75.5 209t191.5 88q108 0 151 -82 l10 55q3 15 17 15h98zM277 114q56 0 95.5 36t46.5 95q8 59 -22 95t-85 36q-64 0 -104 -44t-40 -106q0 -52 29.5 -82t79.5 -30z" glyph-name="glyph508" horiz-adv-x="617"/><glyph d="M257 589q-7 0 -9.5 5t1.5 12l77 114q8 12 19 12h98q7 0 9 -5.5t-2 -12.5l-77 -113q-8 -12 -19 -12h-97zM319 502q107 0 161.5 -68.5t40.5 -166.5q-11 -74 -60 -74h-297q11 -94 125 -94q53 0 109 28q14 7 23 -8l26 -43q10 -16 -4 -26q-70 -62 -176 -62t-170.5 62 t-64.5 163q0 118 83.5 203.5t203.5 85.5zM303 388q-46 0 -79.5 -25t-48.5 -73h226q1 48 -25 73t-73 25z" glyph-name="glyph509" horiz-adv-x="553"/><glyph d="M284 559q-7 0 -9.5 5t1.5 12l78 114q8 12 19 12h98q7 0 9 -5.5t-2 -12.5l-77 -113q-8 -12 -19 -12h-98zM542 490q15 0 13 -15l-64 -460q-2 -15 -17 -15h-109q-15 0 -13 15l40 287l-187 -292q-7 -10 -19 -10h-146q-15 0 -13 15l64 460q2 15 17 15h109q15 0 13 -15 l-40 -288l188 293q7 10 19 10h145z" glyph-name="glyph510" horiz-adv-x="581"/><glyph d="M473 702q7 0 9 -5.5t-2 -12.5l-77 -113q-8 -12 -19 -12h-98q-7 0 -9.5 5t1.5 12l77 114q8 12 19 12h99zM258 -12q-101 0 -163.5 62t-62.5 160q0 118 86.5 205t207.5 87q100 0 162.5 -62t62.5 -160q0 -118 -86.5 -205t-206.5 -87zM275 115q58 0 100 41t42 106 q0 52 -30 82.5t-79 30.5q-58 0 -100 -41t-42 -105q0 -53 30 -83.5t79 -30.5z" glyph-name="glyph511" horiz-adv-x="584"/><glyph d="M469 702q7 0 9 -5.5t-2 -12.5l-77 -113q-8 -12 -19 -12h-97q-8 0 -10.5 5t1.5 12l78 114q8 12 19 12h98zM100 -190q-19 0 -10 17l94 173l-121 473q-5 17 14 17h110q14 0 17 -12l69 -319l164 319q6 12 19 12h110q19 0 10 -17l-351 -651q-6 -12 -20 -12h-105z" glyph-name="glyph512" horiz-adv-x="575"/><glyph d="M394 559q-7 0 -9.5 5t1.5 12l77 114q8 12 19 12h99q7 0 9 -5.5t-2 -12.5l-78 -113q-8 -12 -19 -12h-97zM344 345q172 0 172 -150q0 -91 -57.5 -143t-160.5 -52h-258q-15 0 -13 15l64 460q2 15 17 15h109q15 0 13 -15l-18 -130h132zM758 490q15 0 13 -15l-64 -460 q-2 -15 -17 -15h-109q-15 0 -13 15l64 460q2 15 17 15h109zM293 108q89 0 89 72q0 30 -17 43.5t-53 13.5h-115l-18 -129h114z" glyph-name="glyph513" horiz-adv-x="798"/><glyph d="M258 559q-7 0 -9.5 5t1.5 12l77 114q8 12 19 12h99q7 0 9 -5.5t-2 -12.5l-78 -113q-8 -12 -19 -12h-97zM265 502q99 0 160 -61.5t61 -159.5q0 -119 -87 -206t-209 -87q-117 0 -176 87q-8 11 4 21l67 61q13 12 24 -1q35 -41 94 -41q46 0 81.5 22.5t52.5 60.5h-141 q-16 0 -13 15l11 62q3 15 17 15h139q-7 39 -35 62t-73 23q-55 0 -103 -41q-15 -13 -26 0l-51 59q-10 11 1 22q82 87 202 87z" glyph-name="glyph514" horiz-adv-x="573"/><glyph d="M360 559q-7 0 -9.5 5t1.5 12l77 114q8 12 19 12h98q7 0 9 -5.5t-2 -12.5l-77 -113q-8 -12 -19 -12h-97zM546 502q100 0 162.5 -62t62.5 -160q0 -118 -86.5 -205t-206.5 -87q-95 0 -156 55.5t-69 144.5h-63l-24 -174q-2 -15 -17 -15h-109q-15 0 -13 15l64 460q2 15 17 15 h109q15 0 13 -15l-24 -174h61q30 88 106.5 145t172.5 57zM495 115q58 0 100 41t42 106q0 52 -30 82.5t-79 30.5q-58 0 -100 -41t-42 -105q0 -53 30 -83.5t79 -30.5z" glyph-name="glyph515" horiz-adv-x="805"/><glyph d="M265 559q-7 0 -9.5 5t1.5 12l78 114q8 12 19 12h98q7 0 9 -5.5t-2 -12.5l-77 -113q-8 -12 -19 -12h-98zM520 490q15 0 13 -15l-64 -460q-2 -15 -17 -15h-109q-15 0 -13 15l18 130h-51l-126 -137q-5 -8 -18 -8h-111q-10 0 -12.5 5t4.5 13l124 132q-114 22 -114 145 q0 91 57.5 143t160.5 52h258zM267 382q-42 0 -65.5 -18.5t-23.5 -53.5q0 -30 17 -43.5t54 -13.5h114l18 129h-114z" glyph-name="glyph516" horiz-adv-x="561"/></font>
</defs>
</svg>
