<?xml version="1.0" standalone="no"?>
<!DOCTYPE svg PUBLIC "-//W3C//DTD SVG 1.1//EN" "http://www.w3.org/Graphics/SVG/1.1/DTD/svg11.dtd">
<svg xmlns="http://www.w3.org/2000/svg"><metadata>This SVG WebFont was generated by YouWorkForThem.
Copyright Â© 2018 by Connary Fagen. All rights reserved.</metadata><defs><font horiz-adv-x="584" id="ywftsvg"><font-face ascent="800" bbox="-281 -319.373 1119 956" cap-height="700" descent="-200" font-family="" font-stretch="normal" font-weight="800" panose-1="0 0 9 0 0 0 0 0 0 0" underline-position="0" underline-thickness="0" unicode-range="U+0020-FEFF" units-per-em="1000" x-height="490"/><missing-glyph d="M406 800v-990h-314v990h314zM330 734h-164v-33h65v-37h-66v-32h165v32h-66v37h66v33zM264 606h-99v-103h165v34h-66v69zM231 572v-35h-33v35h33zM330 476h-165v-32h66v-37h-66v-33h99v70h66v32zM330 417h-33v-65h-132v-34h165v99zM330 296h-99v-55h33v22h33v-46h-99v79 h-33v-112h165v112zM330 125h-165v-112h165v112zM297 92v-46h-99v46h99zM330 -10h-165v-32h70l-70 -47v-33h165v33h-101l69 47h32v32z" horiz-adv-x="495"/><glyph d="M406 800v-990h-314v990h314zM330 734h-164v-33h65v-37h-66v-32h165v32h-66v37h66v33zM264 606h-99v-103h165v34h-66v69zM231 572v-35h-33v35h33zM330 476h-165v-32h66v-37h-66v-33h99v70h66v32zM330 417h-33v-65h-132v-34h165v99zM330 296h-99v-55h33v22h33v-46h-99v79 h-33v-112h165v112zM330 125h-165v-112h165v112zM297 92v-46h-99v46h99zM330 -10h-165v-32h70l-70 -47v-33h165v33h-101l69 47h32v32z" glyph-name=".notdef" horiz-adv-x="495"/><glyph glyph-name="glyph1" horiz-adv-x="0"/><glyph glyph-name="glyph2" horiz-adv-x="333"/><glyph glyph-name="space" horiz-adv-x="194" unicode=" "/><glyph d="M95 221q-7 0 -11 4.5t-3 11.5l46 448q2 15 18 15h124q16 0 14 -15l-80 -448q-4 -16 -18 -16h-90zM120 -13q-37 0 -63 26t-26 63q0 38 26 64.5t63 26.5t63.5 -26.5t26.5 -64.5q0 -37 -26.5 -63t-63.5 -26z" glyph-name="exclam" horiz-adv-x="288" unicode="!"/><glyph d="M158 700q7 0 12 -4t4 -11l-13 -196q-2 -15 -16 -15h-78q-14 0 -16 15l-12 196q-1 6 3.5 10.5t11.5 4.5h104zM332 700q7 0 11.5 -4.5t3.5 -10.5l-12 -196q-3 -15 -16 -15h-79q-13 0 -15 15l-13 196q-1 7 4 11t12 4h104z" glyph-name="quotedbl" horiz-adv-x="386" unicode="&quot;"/><glyph d="M609 487q17 0 12 -16l-17 -44q-5 -16 -17 -16h-88l-45 -122h84q7 0 10 -4.5t1 -10.5l-17 -45q-5 -16 -16 -16h-90l-74 -201q-4 -12 -20 -12h-46q-16 0 -10 17l72 196h-124l-74 -201q-4 -12 -21 -12h-45q-17 0 -11 17l72 196h-82q-16 0 -11 16l16 44q6 16 16 16h90l45 122 h-85q-15 0 -10 16l16 45q6 15 15 15h92l74 201q5 12 20 12h45q17 0 11 -17l-72 -196h125l74 201q4 12 19 12h46q16 0 10 -17l-72 -196h82zM377 289l45 122h-125l-45 -122h125z" glyph-name="numbersign" horiz-adv-x="642" unicode="#"/><glyph d="M275 480q-22 0 -34 -10.5t-12 -24.5q0 -25 35 -39l69 -29q90 -37 90 -121q0 -65 -45 -110t-116 -57l-10 -73q-2 -16 -17 -16h-76q-16 0 -14 16l11 76q-81 18 -120 77q-8 10 6 26l48 58q12 15 28 6q55 -46 102 -46q50 0 50 34q0 27 -39 43l-59 25q-89 37 -89 119 q0 58 40.5 101.5t103.5 57.5l12 91q2 16 18 16h76q15 0 13 -16l-13 -92q69 -18 106 -70q7 -10 -5 -23l-60 -59q-11 -11 -23 0q-37 40 -76 40z" glyph-name="dollar" horiz-adv-x="464" unicode="$"/><glyph d="M220 433q-55 0 -90 34.5t-35 88.5q0 61 44.5 105t106.5 44q55 0 90 -34.5t35 -88.5q0 -61 -44.5 -105t-106.5 -44zM147 9l-54 39q-12 9 -3 22l499 617q10 13 22 4l53 -39q12 -10 3 -22l-499 -617q-8 -11 -21 -4zM230 530q16 0 28.5 12t12.5 30q0 15 -10.5 25.5 t-25.5 10.5q-17 0 -28 -11.5t-11 -30.5q0 -16 10 -26t24 -10zM511 -5q-55 0 -90 34.5t-35 88.5q0 61 44.5 105t106.5 44q55 0 90 -34.5t35 -88.5q0 -61 -44.5 -105t-106.5 -44zM521 92q16 0 28.5 12t12.5 30q0 15 -10.5 25.5t-25.5 10.5q-17 0 -28 -11.5t-11 -29.5 q0 -16 10 -26.5t24 -10.5z" glyph-name="percent" horiz-adv-x="728" unicode="%"/><glyph d="M649 359q7 0 9 -5.5t-3 -11.5l-122 -162l78 -94q9 -11 -3 -22l-77 -70q-13 -11 -22 -1l-68 82q-99 -88 -216 -88q-90 0 -146.5 45.5t-56.5 133.5q0 75 41 124.5t120 94.5q-51 69 -51 133q0 78 60.5 132t149.5 54q77 0 126.5 -41.5t49.5 -110.5q0 -59 -37 -102t-103 -85 l76 -91l57 67q14 18 24 18h114zM328 580q-26 0 -41 -16.5t-15 -38.5q0 -28 34 -72q71 40 71 83q0 20 -13 32t-36 12zM262 122q50 0 100 47l-102 123q-37 -24 -57 -46.5t-20 -52.5q0 -31 21.5 -51t57.5 -20z" glyph-name="ampersand" horiz-adv-x="665" unicode="&amp;"/><glyph d="M158 700q7 0 12 -4t4 -11l-13 -196q-2 -15 -16 -15h-78q-14 0 -16 15l-12 196q-1 6 3.5 10.5t11.5 4.5h104z" glyph-name="quotesingle" horiz-adv-x="212" unicode="'"/><glyph d="M370 745q20 0 7 -18q-122 -180 -153 -407q-34 -243 37 -432q5 -18 -14 -18h-122q-12 0 -16 10q-81 192 -44 440q31 237 164 415q7 10 19 10h122z" glyph-name="parenleft" horiz-adv-x="366" unicode="("/><glyph d="M14 -130q-9 0 -11.5 5t3.5 13q122 180 153 407q34 242 -36 432q-5 18 14 18h121q12 0 16 -10q80 -191 45 -440q-33 -238 -165 -415q-7 -10 -19 -10h-121z" glyph-name="parenright" horiz-adv-x="365" unicode=")"/><glyph d="M266 565l13 135h50l-22 -135h-41zM246 522l-128 35l21 51l127 -43zM314 522l-7 43l136 43l6 -51zM184 384l-36 29l98 109l30 -26zM336 384l-60 112l38 26l68 -109z" glyph-name="asterisk" horiz-adv-x="481" unicode="*"/><glyph d="M430 341q16 0 14 -16l-12 -80q-2 -15 -17 -15h-113l-16 -113q-2 -15 -18 -15h-79q-16 0 -14 15l16 113h-112q-16 0 -14 15l12 80q2 16 17 16h112l16 113q2 15 17 15h80q16 0 14 -15l-16 -113h113z" glyph-name="plus" horiz-adv-x="497" unicode="+"/><glyph d="M-10 -130l7 34q51 -1 88 43q25 30 13 40q-2 2 -7 2q-33 0 -55 22.5t-22 56.5q0 39 30 69t73 30q37 0 62 -25t25 -73q0 -81 -68 -142.5t-146 -56.5z" glyph-name="comma" horiz-adv-x="269" unicode=","/><glyph d="M377 337q16 0 14 -15l-13 -93q-2 -15 -18 -15h-300q-16 0 -14 15l13 93q2 15 18 15h300z" glyph-name="hyphen" horiz-adv-x="429" unicode="-"/><glyph d="M105 -13q-37 0 -63 26t-26 63q0 38 26 64.5t63 26.5t63.5 -26.5t26.5 -64.5q0 -37 -26.5 -63t-63.5 -26z" glyph-name="period" horiz-adv-x="258" unicode="."/><glyph d="M567 745q19 0 10 -17l-449 -846q-6 -12 -20 -12h-128q-18 0 -9 17l448 846q7 12 20 12h128z" glyph-name="slash" horiz-adv-x="531" unicode="/"/><glyph d="M391 708q107 0 175.5 -70t68.5 -211q0 -117 -40 -216.5t-118.5 -161.5t-179.5 -62q-107 0 -176 70t-69 211q0 117 40 216.5t119 161.5t180 62zM375 567q-83 0 -129 -85.5t-46 -196.5q0 -73 28 -115t84 -42q57 0 98 43.5t59 106t18 133.5q0 72 -27.5 114t-84.5 42z" glyph-name="zero" horiz-adv-x="658" unicode="0"/><glyph d="M368 700q16 0 14 -15l-94 -670q-2 -15 -17 -15h-122q-16 0 -14 15l78 555h-118q-16 0 -14 16l15 99q2 15 17 15h255z" glyph-name="one" horiz-adv-x="378" unicode="1"/><glyph d="M462 130q16 0 14 -16l-15 -99q0 -15 -17 -15h-412q-16 0 -14 15l13 98q1 10 10 19l237 213q31 27 47.5 43t34.5 46t18 58q0 35 -22.5 55.5t-61.5 20.5q-37 0 -63.5 -17t-55.5 -49q-12 -12 -23 1l-62 68q-9 10 1 22q97 115 233 115q94 0 150.5 -51.5t56.5 -135.5 q0 -66 -33 -117t-90 -104l-187 -170h241z" glyph-name="two" horiz-adv-x="540" unicode="2"/><glyph d="M217 -13q-74 0 -126 30.5t-75 78.5q-7 14 6 21l85 69q12 10 22 -2q37 -57 99 -57q46 0 75 28t29 69q0 32 -19.5 53.5t-63.5 21.5h-27q-18 0 -16 16l14 92q2 15 17 15h28q39 0 64 24t25 57q0 29 -20.5 47t-51.5 18q-50 0 -95 -54q-12 -14 -24 -2l-58 66q-12 13 -1 25 q36 46 92 75.5t121 29.5q81 0 135 -43.5t54 -119.5q0 -58 -31.5 -104.5t-86.5 -70.5q98 -41 98 -151q0 -100 -79 -166t-190 -66z" glyph-name="three" horiz-adv-x="522" unicode="3"/><glyph d="M542 253q17 0 15 -16l-10 -85q-4 -25 -26 -25h-53l-16 -112q-2 -15 -17 -15h-122q-16 0 -14 15l16 112h-278q-15 0 -13 15l14 101q1 10 8 19l341 427q7 11 21 11h124q16 0 14 -15l-62 -432h58zM188 253h143l31 220z" glyph-name="four" horiz-adv-x="598" unicode="4"/><glyph d="M517 700q16 0 14 -15l-14 -99q-2 -16 -18 -16h-208l-43 -115q35 13 76 13q86 0 138.5 -57.5t52.5 -147.5q0 -116 -84 -196t-204 -80q-76 0 -128.5 32.5t-73.5 76.5q-5 15 11 25l88 61q17 11 26 -4q30 -51 91 -51q51 0 87 35t36 85q0 42 -26 68t-68 26q-46 0 -83 -32 q-13 -13 -28 -8l-80 34q-12 5 -8 17l123 335q5 13 18 13h305z" glyph-name="five" horiz-adv-x="546" unicode="5"/><glyph d="M354 470q84 -12 134 -65.5t50 -136.5q0 -115 -87 -198t-204 -83q-96 0 -158.5 59.5t-62.5 150.5q0 115 122 245l259 272q10 12 22 2l73 -70q11 -11 1 -22zM268 127q50 0 84.5 36t34.5 87q0 41 -25 66.5t-65 25.5q-50 0 -85 -36t-35 -87q0 -41 25 -66.5t66 -25.5z" glyph-name="six" horiz-adv-x="567" unicode="6"/><glyph d="M547 700q19 0 9 -19l-351 -666q-8 -15 -22 -15h-118q-8 0 -11 4.5t2 13.5l300 552h-259q-17 0 -15 16l14 98q2 16 19 16h432z" glyph-name="seven" horiz-adv-x="526" unicode="7"/><glyph d="M264 -13q-94 0 -160.5 52.5t-66.5 143.5q0 69 40 126t108 89q-55 43 -55 117q0 79 63 136t158 57q83 0 133 -44t50 -112q0 -95 -92 -157q98 -47 98 -162q0 -105 -82 -175.5t-194 -70.5zM323 452q32 0 54 22t22 54q0 27 -16.5 43t-44.5 16q-32 0 -54 -22t-22 -54 q0 -26 17 -42.5t44 -16.5zM279 124q44 0 75.5 28.5t31.5 75.5q0 41 -25 63t-62 22q-44 0 -76 -29t-32 -76q0 -40 25.5 -62t62.5 -22z" glyph-name="eight" horiz-adv-x="588" unicode="8"/><glyph d="M350 708q96 0 158.5 -59.5t62.5 -150.5q0 -115 -122 -245l-259 -272q-11 -13 -22 -2l-74 70q-10 11 0 23l148 153q-83 12 -133 66t-50 136q0 115 87 198t204 83zM300 353q50 0 85 36t35 87q0 41 -25 66.5t-66 25.5q-50 0 -84.5 -36t-34.5 -87q0 -41 25 -66.5t65 -25.5z " glyph-name="nine" horiz-adv-x="568" unicode="9"/><glyph d="M152 322q-37 0 -63.5 26t-26.5 63q0 38 26.5 64.5t63.5 26.5t63 -26.5t26 -64.5q0 -37 -26 -63t-63 -26zM105 -12q-37 0 -63.5 26t-26.5 63q0 38 26.5 64.5t63.5 26.5t63 -26.5t26 -64.5q0 -37 -26 -63t-63 -26z" glyph-name="colon" horiz-adv-x="257" unicode=":"/><glyph d="M154 322q-37 0 -63 26t-26 63q0 38 26 64.5t63 26.5t63.5 -26.5t26.5 -64.5q0 -37 -26.5 -63t-63.5 -26zM-10 -130l7 34q51 -1 88 43q25 30 13 40q-2 2 -7 2q-33 0 -55 22.5t-22 56.5q0 39 30 69t73 30q37 0 62 -25t25 -73q0 -81 -68 -142.5t-146 -56.5z" glyph-name="semicolon" horiz-adv-x="269" unicode=";"/><glyph d="M407 16l-344 176q-10 5 -8 17l10 79q1 11 15 18l391 175q9 4 14 1.5t4 -11.5l-14 -102q-1 -10 -14 -15l-263 -107l231 -104q14 -6 13 -17l-16 -100q-3 -19 -19 -10z" glyph-name="less" horiz-adv-x="520" unicode="&lt;"/><glyph d="M462 425q15 0 13 -15l-11 -80q-2 -16 -18 -16h-356q-15 0 -13 16l12 80q2 15 17 15h356zM437 256q16 0 14 -15l-12 -81q-2 -15 -17 -15h-356q-15 0 -13 15l11 81q2 15 17 15h356z" glyph-name="equal" horiz-adv-x="517" unicode="="/><glyph d="M114 481l343 -176q10 -3 8 -17l-10 -78q-1 -12 -14 -18l-392 -175q-8 -4 -13 -1.5t-4 10.5l13 103q1 10 15 15l262 106l-231 105q-14 6 -13 17l16 100q3 18 20 9z" glyph-name="greater" horiz-adv-x="520" unicode=">"/><glyph d="M175 223q-15 0 -13 15l1 15q4 42 22 75t40.5 53.5t44.5 38.5t36.5 38.5t14.5 44.5q0 25 -16 41.5t-45 16.5q-55 0 -86 -72q-9 -14 -25 -5l-74 41q-23 14 -15 33q25 70 83.5 110t139.5 40q82 0 138.5 -42.5t56.5 -120.5q0 -52 -26 -95t-57.5 -68t-62 -58t-36.5 -65l-4 -21 q-3 -15 -18 -15h-99zM210 -13q-37 0 -63 26t-26 63q0 38 26 64.5t63 26.5t63 -26.5t26 -64.5q0 -37 -26 -63t-63 -26z" glyph-name="question" horiz-adv-x="467" unicode="?"/><glyph d="M473 708q135 0 224.5 -79t89.5 -207q0 -105 -55 -178t-143 -73q-65 0 -83 42q-48 -42 -115 -42t-106.5 42.5t-39.5 109.5q0 81 56 140.5t137 59.5q63 0 100 -40l16 18h61l-41 -177q-11 -49 24 -49q33 0 49 38.5t16 85.5q0 88 -54.5 141t-145.5 53q-117 0 -199 -82.5 t-82 -195.5q0 -97 60 -155t154 -58q66 0 125 31l56 -83q-22 -24 -75.5 -43.5t-119.5 -19.5q-136 0 -230 86.5t-94 229.5q0 169 122.5 287t292.5 118zM412 274q34 0 58 24t24 59q0 28 -17 45t-46 17q-33 0 -56.5 -23.5t-23.5 -58.5q0 -29 16.5 -46t44.5 -17z" glyph-name="at" horiz-adv-x="811" unicode="@"/><glyph d="M637 17q3 -17 -14 -17h-134q-12 0 -15 12l-17 94h-250l-43 -94q-5 -12 -20 -12h-134q-18 0 -10 17l326 671q6 12 20 12h136q16 0 19 -12zM271 246h161l-46 253z" glyph-name="A" horiz-adv-x="701" unicode="A"/><glyph d="M47 0q-15 0 -13 15l93 670q3 15 18 15h230q89 0 135 -44t46 -114q0 -61 -33 -103t-80 -64q49 -13 81 -53t32 -107q0 -103 -79.5 -159t-209.5 -56h-220zM247 427h66q89 0 89 75q0 59 -70 59h-65zM207 139h79q50 0 81 23.5t31 66.5q0 73 -88 73h-80z" glyph-name="B" horiz-adv-x="594" unicode="B"/><glyph d="M374 -13q-139 0 -227.5 88t-88.5 227q0 164 119.5 285t288.5 121q150 0 235 -104q8 -9 -5 -21l-85 -84q-12 -12 -22 -2q-58 56 -139 56q-96 0 -162.5 -66.5t-66.5 -162.5q0 -82 48.5 -132t126.5 -50q81 0 152 56q14 10 22 -1l67 -85q8 -12 -2 -21q-117 -104 -261 -104z " glyph-name="C" horiz-adv-x="701" unicode="C"/><glyph d="M47 0q-15 0 -13 15l93 670q3 15 18 15h217q151 0 231 -84t80 -221q0 -172 -115 -283.5t-294 -111.5h-217zM210 140h71q111 0 171 66.5t60 173.5q0 180 -170 180h-73z" glyph-name="D" horiz-adv-x="698" unicode="D"/><glyph d="M47 0q-15 0 -13 15l93 670q3 15 18 15h361q15 0 13 -15l-15 -110q-2 -15 -18 -15h-217l-20 -137h205q15 0 13 -15l-15 -110q-2 -15 -17 -15h-205l-20 -143h217q15 0 13 -15l-16 -110q0 -15 -17 -15h-360z" glyph-name="E" horiz-adv-x="512" unicode="E"/><glyph d="M47 0q-15 0 -13 15l93 670q3 15 18 15h357q15 0 13 -15l-15 -110q-2 -15 -17 -15h-214l-19 -132h201q15 0 13 -15l-15 -110q-2 -15 -19 -15h-200l-38 -273q-2 -15 -17 -15h-128z" glyph-name="F" horiz-adv-x="504" unicode="F"/><glyph d="M741 406q15 0 13 -15l-11 -72q-19 -141 -120.5 -236.5t-248.5 -95.5q-139 0 -227.5 88t-88.5 227q0 164 119.5 285t288.5 121q150 0 235 -104q8 -9 -5 -21l-85 -84q-12 -12 -22 -2q-58 56 -139 56q-96 0 -162.5 -66.5t-66.5 -162.5q0 -82 48 -132t127 -50q77 0 126.5 35 t61.5 88h-166q-15 0 -13 16l15 109q2 16 17 16h304z" glyph-name="G" horiz-adv-x="769" unicode="G"/><glyph d="M671 700q16 0 14 -15l-94 -670q-2 -15 -18 -15h-128q-15 0 -13 15l36 258h-240l-36 -258q-2 -15 -17 -15h-128q-15 0 -13 15l93 670q3 15 18 15h128q15 0 13 -15l-38 -272h240l38 272q2 15 17 15h128z" glyph-name="H" horiz-adv-x="688" unicode="H"/><glyph d="M47 0q-15 0 -13 15l93 670q3 15 18 15h128q15 0 13 -15l-94 -670q-2 -15 -17 -15h-128z" glyph-name="I" horiz-adv-x="290" unicode="I"/><glyph d="M202 -12q-62 0 -110 23t-70 55q-8 12 3 27l72 87q4 5 10.5 5.5t11.5 -4.5q1 -1 5 -4.5t5.5 -4.5t6.5 -4.5t7.5 -5t8 -4.5t9.5 -4.5t10.5 -3.5t12 -3t13 -2t14.5 -1q103 0 119 124l58 418q2 15 18 15h128q15 0 13 -15l-59 -431q-18 -130 -95.5 -198.5t-190.5 -68.5z" glyph-name="J" horiz-adv-x="552" unicode="J"/><glyph d="M680 700q6 0 8.5 -2.5t1.5 -6.5t-5 -9l-271 -292l206 -372q4 -8 1.5 -13t-10.5 -5h-149q-11 0 -16 9l-143 260l-89 -95l-22 -159q-2 -15 -17 -15h-128q-15 0 -13 15l93 670q3 15 18 15h128q15 0 13 -15l-40 -284l259 291q8 8 18 8h157z" glyph-name="K" horiz-adv-x="676" unicode="K"/><glyph d="M413 140q15 0 13 -15l-15 -110q-2 -15 -17 -15h-347q-15 0 -13 15l93 670q3 15 18 15h128q15 0 13 -15l-76 -545h203z" glyph-name="L" horiz-adv-x="479" unicode="L"/><glyph d="M867 700q15 0 13 -15l-94 -670q-2 -15 -17 -15h-128q-15 0 -13 15l54 385l-19 -44l-177 -344q-6 -12 -19 -12h-112q-14 0 -17 12l-86 344l-7 44l-53 -385q-2 -15 -17 -15h-128q-15 0 -13 15l93 670q3 15 18 15h145q13 0 17 -16l124 -500l270 506q6 10 18 10h148z" glyph-name="M" horiz-adv-x="884" unicode="M"/><glyph d="M687 700q15 0 13 -15l-94 -670q-2 -15 -17 -15h-150q-13 0 -17 10l-169 440l-61 -435q-2 -15 -17 -15h-128q-15 0 -13 15l93 670q3 15 18 15h147q13 0 17 -10l171 -446l62 441q2 15 17 15h128z" glyph-name="N" horiz-adv-x="704" unicode="N"/><glyph d="M373 -13q-138 0 -227.5 88t-89.5 223q0 165 123 287.5t291 122.5q138 0 227 -88t89 -223q0 -166 -122.5 -288t-290.5 -122zM394 142q96 0 163 68.5t67 165.5q0 79 -48.5 128t-125.5 49q-96 0 -163 -68t-67 -165q0 -79 48.5 -128.5t125.5 -49.5z" glyph-name="O" horiz-adv-x="813" unicode="O"/><glyph d="M47 0q-15 0 -13 15l93 670q3 15 18 15h215q110 0 165 -52t55 -145q0 -118 -77.5 -190t-207.5 -72h-72l-31 -226q-2 -15 -17 -15h-128zM244 381h67q56 0 86.5 27t30.5 74q0 78 -92 78h-67z" glyph-name="P" horiz-adv-x="582" unicode="P"/><glyph d="M697 146l45 -52q9 -11 -4 -22l-98 -86q-12 -10 -21 0l-47 54q-92 -53 -199 -53q-138 0 -227.5 88t-89.5 223q0 165 123 287.5t291 122.5q138 0 227 -88t89 -223q0 -138 -89 -251zM394 142q41 0 78 14l-62 72q-11 14 2 26l96 84q13 12 24 -2l64 -73q28 51 28 113 q0 79 -48.5 128t-125.5 49q-96 0 -163 -68t-67 -165q0 -79 48.5 -128.5t125.5 -49.5z" glyph-name="Q" horiz-adv-x="813" unicode="Q"/><glyph d="M415 261l121 -243q4 -8 0.5 -13t-12.5 -5h-137q-13 0 -17 10l-111 231h-36l-31 -226q-2 -15 -17 -15h-128q-15 0 -13 15l93 670q3 15 18 15h215q110 0 165 -52t55 -145q0 -87 -43.5 -150.5t-121.5 -91.5zM269 560l-25 -179h67q56 0 86.5 27t30.5 74q0 78 -92 78h-67z" glyph-name="R" horiz-adv-x="606" unicode="R"/><glyph d="M254 -12q-79 0 -140 32.5t-89 78.5q-6 11 5 22l79 77q12 13 23 2q61 -67 131 -67q41 0 67 18t26 52q0 12 -4 21.5t-6.5 14.5t-15 13.5t-16 10.5t-22.5 12l-72 36q-125 63 -125 176q0 96 70 158.5t176 62.5q125 0 200 -92q12 -12 -3 -27l-75 -77q-11 -11 -23 -4 q-57 55 -114 55q-37 0 -57 -16.5t-20 -44.5q0 -23 15.5 -37t59.5 -36l57 -29q24 -13 39 -22t34.5 -25t30.5 -33t19 -42.5t8 -55.5q0 -105 -73.5 -169.5t-184.5 -64.5z" glyph-name="S" horiz-adv-x="560" unicode="S"/><glyph d="M176 0q-16 0 -14 15l77 545h-133q-16 0 -14 15l15 110q3 15 18 15h425q16 0 14 -15l-16 -110q-2 -15 -17 -15h-133l-77 -545q-2 -15 -17 -15h-128z" glyph-name="T" horiz-adv-x="547" unicode="T"/><glyph d="M299 -13q-124 0 -189 74.5t-45 212.5l57 411q3 15 18 15h128q15 0 13 -15l-58 -409q-8 -64 16.5 -99t78.5 -35t88 35t43 99l58 409q2 15 17 15h128q15 0 13 -15l-57 -411q-20 -139 -103 -213t-206 -74z" glyph-name="U" horiz-adv-x="664" unicode="U"/><glyph d="M248 0q-15 0 -18 12l-136 671q-3 17 14 17h134q12 0 15 -12l88 -487l222 487q5 12 19 12h135q19 0 10 -17l-326 -671q-6 -12 -21 -12h-136z" glyph-name="V" horiz-adv-x="702" unicode="V"/><glyph d="M1102 700q17 0 10 -17l-292 -671q-4 -12 -21 -12h-134q-17 0 -19 12l-70 487l-206 -487q-3 -12 -20 -12h-135q-17 0 -19 12l-102 671q-3 17 13 17h134q14 0 15 -12l62 -468l205 468q5 12 19 12h124q17 0 18 -12l74 -465l192 465q5 12 19 12h133z" glyph-name="W" horiz-adv-x="1081" unicode="W"/><glyph d="M656 700q8 0 10 -6t-3 -13l-238 -323l154 -340q8 -18 -13 -18h-136q-13 0 -17 10l-90 208l-146 -208q-6 -10 -19 -10h-140q-8 0 -10.5 6t2.5 13l250 340l-147 323q-4 8 0.5 13t13.5 5h134q14 0 18 -10l82 -191l135 191q7 10 19 10h141z" glyph-name="X" horiz-adv-x="654" unicode="X"/><glyph d="M655 700q20 0 7 -18l-254 -364l-42 -303q-2 -15 -17 -15h-128q-15 0 -13 15l42 305l-155 362q-4 8 0 13t13 5h134q13 0 17 -10l87 -224l153 224q7 10 19 10h137z" glyph-name="Y" horiz-adv-x="634" unicode="Y"/><glyph d="M22 0q-15 0 -13 15l16 115q1 10 8 18l344 412h-266q-16 0 -14 15l15 110q3 15 18 15h415q16 0 14 -16l-17 -114q-1 -9 -9 -18l-342 -412h286q15 0 13 -15l-16 -110q0 -15 -17 -15h-435z" glyph-name="Z" horiz-adv-x="552" unicode="Z"/><glyph d="M344 745q15 0 13 -16l-13 -92q-2 -16 -17 -16h-62l-88 -627h62q15 0 13 -16l-14 -92q-2 -16 -17 -16h-205q-15 0 -13 16l119 843q0 7 5 11.5t12 4.5h205z" glyph-name="bracketleft" horiz-adv-x="343" unicode="["/><glyph d="M104 745h128q15 0 18 -12l210 -846q5 -17 -15 -17h-128q-13 0 -16 12l-211 846q-5 17 14 17z" glyph-name="backslash" horiz-adv-x="532" unicode="\"/><glyph d="M17 -130q-15 0 -13 16l13 92q2 16 17 16h62l88 627h-62q-15 0 -13 16l14 92q2 16 17 16h205q15 0 13 -16l-119 -843q0 -7 -5 -11.5t-12 -4.5h-205z" glyph-name="bracketright" horiz-adv-x="344" unicode="]"/><glyph d="M72 321l222 368q8 11 19 11h85q12 0 15 -11l121 -368q5 -18 -12 -18h-102q-10 0 -13 11l-68 238l-139 -238q-6 -11 -17 -11h-102q-8 0 -11 6t2 12z" glyph-name="asciicircum" horiz-adv-x="585" unicode="^"/><glyph d="M499 0q14 0 12 -16l-12 -92q-2 -16 -18 -16h-469q-15 0 -13 16l12 92q2 16 19 16h469z" glyph-name="underscore" horiz-adv-x="597" unicode="_"/><glyph d="M93 700h108q10 0 17 -12l61 -114q4 -8 0 -12.5t-13 -4.5h-108q-10 0 -18 12l-60 114q-4 8 0 12.5t13 4.5z" glyph-name="grave" horiz-adv-x="250" unicode="`"/><glyph d="M576 490q17 0 14 -15l-64 -460q-3 -15 -19 -15h-110q-17 0 -14 15l4 49q-63 -76 -163 -76q-93 0 -144.5 59t-51.5 157q0 121 75.5 209.5t191.5 88.5q101 0 143 -74l9 47q3 15 18 15h111zM276 127q51 0 87 32.5t43 86.5q7 52 -20 84.5t-77 32.5q-57 0 -93.5 -40t-36.5 -95 q0 -46 26.5 -73.5t70.5 -27.5z" glyph-name="a" horiz-adv-x="613" unicode="a"/><glyph d="M389 502q92 0 145 -60t53 -160q0 -122 -74.5 -208t-189.5 -86q-96 0 -139 68l-6 -41q-3 -15 -18 -15h-123q-16 0 -14 15l97 685q2 15 17 15h123q16 0 14 -15l-37 -261q61 63 152 63zM308 127q58 0 93 38.5t35 94.5q0 47 -26 75t-72 28q-47 0 -81.5 -28.5t-44.5 -75.5 l-3 -24q-4 -49 23 -78.5t76 -29.5z" glyph-name="b" horiz-adv-x="615" unicode="b"/><glyph d="M258 -12q-102 0 -165 64t-63 164q0 117 83.5 201.5t201.5 84.5q122 0 183 -88q8 -13 -3 -22l-76 -67q-17 -14 -28 -1q-36 38 -86 38q-55 0 -91 -39t-36 -92q0 -45 28 -74t78 -29t91 38q14 12 27 -2l54 -64q10 -12 -1 -23q-82 -89 -197 -89z" glyph-name="c" horiz-adv-x="513" unicode="c"/><glyph d="M608 715q16 0 14 -15l-96 -685q-3 -15 -19 -15h-110q-17 0 -14 15l4 49q-63 -76 -163 -76q-93 0 -144.5 59t-51.5 157q0 121 75.5 209.5t191.5 88.5q97 0 139 -69l33 267q2 15 18 15h123zM276 127q51 0 87 32.5t43 86.5q7 52 -20 84.5t-77 32.5q-57 0 -93.5 -40 t-36.5 -95q0 -46 26.5 -73.5t70.5 -27.5z" glyph-name="d" horiz-adv-x="613" unicode="d"/><glyph d="M317 502q108 0 162.5 -68.5t40.5 -167.5q-12 -79 -63 -79h-281q12 -76 114 -76q55 0 100 23q15 7 25 -9l29 -48q11 -16 -3 -28q-72 -61 -177 -61t-170.5 62t-65.5 164q0 117 84.5 202.5t204.5 85.5zM300 376q-87 0 -114 -83h202q-1 42 -24.5 62.5t-63.5 20.5z" glyph-name="e" horiz-adv-x="547" unicode="e"/><glyph d="M420 715q12 -5 10 -18l-14 -100q-1 -9 -15 -7q-32 6 -42 6q-33 0 -47 -14.5t-18 -42.5l-7 -49h98q15 0 13 -16l-13 -86q-2 -16 -18 -16h-96l-50 -357q-2 -15 -18 -15h-123q-15 0 -13 15l49 357h-57q-15 0 -13 16l11 86q2 16 18 16h57l10 69q24 172 201 172q41 0 77 -16z " glyph-name="f" horiz-adv-x="391" unicode="f"/><glyph d="M568 490q16 0 14 -15l-63 -446q-9 -65 -39 -112.5t-72.5 -73t-87 -37t-92.5 -11.5q-119 0 -188 57q-15 13 -4 31l40 62q13 18 28 9q61 -35 123 -35q56 0 97.5 26t49.5 84l6 47q-57 -65 -155 -65q-91 0 -143 55t-52 150q0 120 75.5 203t189.5 83q95 0 137 -64l7 37 q5 15 18 15h111zM275 148q49 0 84 30t41 79q7 49 -19.5 78.5t-74.5 29.5q-56 0 -91 -37.5t-35 -88.5q0 -42 26 -66.5t69 -24.5z" glyph-name="g" horiz-adv-x="605" unicode="g"/><glyph d="M388 502q79 0 120.5 -54.5t28.5 -148.5l-40 -284q-2 -15 -17 -15h-122q-16 0 -14 15l35 248q7 48 -12 73.5t-60 25.5q-38 0 -63 -25.5t-31 -73.5l-35 -248q-2 -15 -18 -15h-122q-12 0 -13 9q-1 2 -1 6l54 382l42 303q2 15 17 15h122q16 0 14 -15l-39 -282q60 84 154 84z " glyph-name="h" horiz-adv-x="585" unicode="h"/><glyph d="M193 568q-36 0 -60 24.5t-24 59.5t24 59t60 24q35 0 58.5 -24t23.5 -59t-23.5 -59.5t-58.5 -24.5zM41 0q-17 0 -14 15l64 460q3 15 18 15h123q17 0 14 -15l-64 -460q-3 -15 -18 -15h-123z" glyph-name="i" horiz-adv-x="270" unicode="i"/><glyph d="M197 568q-36 0 -59.5 24t-23.5 60q0 35 23.5 59t59.5 24q35 0 58.5 -24t23.5 -59t-23.5 -59.5t-58.5 -24.5zM-20 -200q-50 0 -80 17q-8 5 -6 16l13 101q1 9 15 7q28 -6 42 -6q56 0 65 57l67 483q2 15 18 15h123q16 0 14 -15l-71 -503q-24 -172 -200 -172z" glyph-name="j" horiz-adv-x="274" unicode="j"/><glyph d="M545 490q10 0 12.5 -6t-5.5 -13l-190 -188l152 -264q4 -8 1 -13.5t-12 -5.5h-132q-12 0 -17 9l-99 168l-63 -63l-14 -99q-2 -15 -18 -15h-123q-14 0 -14 15l97 685q2 15 17 15h123q16 0 14 -15l-55 -393l169 175q8 8 19 8h138z" glyph-name="k" horiz-adv-x="569" unicode="k"/><glyph d="M37 0q-16 0 -14 15l97 685q2 15 17 15h123q16 0 14 -15l-96 -685q-3 -15 -18 -15h-123z" glyph-name="l" horiz-adv-x="265" unicode="l"/><glyph d="M668 502q80 0 118 -53t25 -148l-40 -286q-2 -15 -17 -15h-122q-16 0 -14 15l35 248q15 99 -59 99q-73 0 -85 -100l-35 -247q-2 -15 -18 -15h-121q-16 0 -14 15l35 248q14 99 -59 99q-65 0 -83 -78l-37 -269q-2 -15 -18 -15h-122q-14 0 -14 15l65 460q2 15 17 15h117 q16 0 14 -15l-3 -49q56 76 144 76q97 0 128 -83q61 83 163 83z" glyph-name="m" horiz-adv-x="859" unicode="m"/><glyph d="M387 502q79 0 120.5 -54.5t28.5 -148.5l-40 -284q-2 -15 -17 -15h-122q-16 0 -14 15l35 248q7 48 -12 73.5t-60 25.5q-38 0 -63 -25.5t-31 -73.5l-35 -248q-2 -15 -18 -15h-122q-14 0 -14 15l65 460q2 15 17 15h117q16 0 14 -15l-3 -57q60 84 154 84z" glyph-name="n" unicode="n"/><glyph d="M255 -12q-102 0 -164.5 62.5t-62.5 159.5q0 119 87 205.5t208 86.5q102 0 164.5 -62.5t62.5 -159.5q0 -119 -87 -205.5t-208 -86.5zM274 128q52 0 89.5 36t37.5 95q0 48 -27 75.5t-70 27.5q-52 0 -89.5 -36t-37.5 -95q0 -48 27 -75.5t70 -27.5z" glyph-name="o" horiz-adv-x="578" unicode="o"/><glyph d="M387 502q92 0 145 -60t53 -160q0 -122 -74.5 -208t-189.5 -86q-95 0 -138 65l-32 -228q-2 -15 -18 -15h-123q-16 0 -14 15l92 650q2 15 17 15h111q16 0 14 -15l-4 -46q62 73 161 73zM306 127q57 0 92.5 38.5t35.5 94.5q0 47 -26.5 75t-72.5 28q-49 0 -84.5 -32.5 t-42.5 -84.5q-7 -54 19.5 -86.5t78.5 -32.5z" glyph-name="p" horiz-adv-x="613" unicode="p"/><glyph d="M576 490q17 0 14 -15l-64 -460l-26 -190q-2 -15 -18 -15h-123q-15 0 -13 15l32 228q-60 -65 -154 -65q-93 0 -144.5 59t-51.5 157q0 121 75.5 209.5t191.5 88.5q101 0 143 -74l9 47q3 15 18 15h111zM276 127q51 0 87 32.5t43 86.5q7 52 -20 84.5t-77 32.5 q-57 0 -93.5 -40t-36.5 -95q0 -46 26.5 -73.5t70.5 -27.5z" glyph-name="q" horiz-adv-x="614" unicode="q"/><glyph d="M392 489q9 -7 7 -21l-14 -96q-3 -19 -24 -13q-17 5 -39 5q-89 0 -110 -98l-34 -251q-2 -15 -18 -15h-123q-14 0 -14 15l65 460q2 15 17 15h117q16 0 14 -15l-4 -65q41 92 115 92q32 0 45 -13z" glyph-name="r" horiz-adv-x="394" unicode="r"/><glyph d="M196 -12q-59 0 -106.5 23t-73.5 60q-7 10 5 27l49 58q12 16 28 5q57 -46 102 -46q50 0 50 35q0 27 -39 42l-59 26q-89 37 -89 119q0 70 56.5 117.5t137.5 47.5q49 0 92.5 -20.5t69.5 -56.5q7 -11 -5 -23l-61 -60q-10 -9 -23 1q-37 40 -75 40q-23 0 -34.5 -10.5 t-11.5 -25.5q0 -24 35 -38l69 -29q90 -39 90 -122q0 -75 -60 -122.5t-147 -47.5z" glyph-name="s" horiz-adv-x="452" unicode="s"/><glyph d="M364 490q15 0 13 -16l-13 -87q-2 -15 -17 -15h-74l-30 -216q-3 -20 7 -30.5t28 -10.5q20 0 31 1q9 1 13.5 -3t3.5 -12l-11 -81q-5 -32 -93 -32q-68 0 -107.5 36t-28.5 115l33 233h-60q-15 0 -13 16l11 86q2 16 18 16h61l16 115q2 15 17 15h123q16 0 14 -15l-16 -115h74z " glyph-name="t" horiz-adv-x="371" unicode="t"/><glyph d="M547 490q16 0 14 -15l-64 -460q-2 -15 -18 -15h-117q-16 0 -14 15l4 59q-60 -86 -155 -86q-78 0 -120 55t-29 148l40 284q2 15 17 15h122q16 0 14 -15l-35 -248q-7 -48 12.5 -73t59.5 -25q38 0 63 25t31 73h1l35 248q2 15 17 15h122z" glyph-name="u" unicode="u"/><glyph d="M195 0q-14 0 -17 12l-118 461q-6 17 14 17h124q15 0 18 -12l63 -302l150 302q6 12 20 12h125q19 0 10 -17l-246 -461q-6 -12 -19 -12h-124z" glyph-name="v" horiz-adv-x="579" unicode="v"/><glyph d="M163 0q-14 0 -17 12l-87 461q-5 17 14 17h118q17 0 18 -12l47 -300l140 300q6 12 19 12h119q14 0 17 -12l57 -300l131 300q6 12 20 12h120q18 0 10 -17l-215 -461q-6 -12 -19 -12h-126q-14 0 -17 12l-60 300l-144 -300q-6 -12 -19 -12h-126z" glyph-name="w" horiz-adv-x="884" unicode="w"/><glyph d="M5 0q-10 0 -12 5.5t4 13.5l178 232l-109 221q-4 7 0 12.5t13 5.5h133q14 0 17 -10l53 -121l89 121q7 10 19 10h132q10 0 12.5 -5.5t-3.5 -13.5l-173 -219l115 -234q4 -8 0.5 -13t-12.5 -5h-134q-13 0 -17 10l-58 134l-94 -134q-6 -10 -19 -10h-134z" glyph-name="x" horiz-adv-x="534" unicode="x"/><glyph d="M97 -190q-20 0 -11 18l94 173l-120 472q-6 17 14 17h124q15 0 18 -12l63 -302l154 302q6 12 20 12h123q20 0 11 -17l-352 -651q-6 -12 -20 -12h-118z" glyph-name="y" horiz-adv-x="581" unicode="y"/><glyph d="M17 0q-16 0 -14 15l13 98q2 12 10 19l252 234h-207q-15 0 -13 16l13 93q2 15 17 15h362q15 0 13 -15l-13 -97q-2 -13 -10 -20l-252 -234h211q15 0 13 -15l-13 -94q0 -15 -17 -15h-365z" glyph-name="z" horiz-adv-x="467" unicode="z"/><glyph d="M379 745q15 0 13 -16l-12 -92q-2 -16 -18 -16h-19q-36 0 -40 -31l-29 -206q-1 -9 -9 -18l-44 -49q-11 -11 -3 -21l30 -48q5 -8 4 -18l-29 -205q-2 -15 7 -23t25 -8h19q14 0 14 -16l-15 -92q-2 -16 -17 -16h-108q-42 0 -70.5 24t-20.5 82l36 249q2 12 -2 19l-26 52 q-5 11 2 20l42 54q6 8 6 19l35 250q9 58 44.5 82t76.5 24h108z" glyph-name="braceleft" horiz-adv-x="378" unicode="{"/><glyph d="M142 785q2 15 17 15h128q15 0 13 -15l-135 -960q-2 -15 -17 -15h-128q-16 0 -13 15z" glyph-name="bar" horiz-adv-x="290" unicode="|"/><glyph d="M17 -130q-15 0 -13 16l13 92q2 16 17 16h20q36 0 40 31l28 206q1 9 9 18l45 49q10 10 3 21l-31 48q-5 8 -4 18l29 205q4 31 -31 31h-20q-15 0 -13 16l14 92q2 16 17 16h108q42 0 70.5 -24t20.5 -82l-35 -249q-2 -12 2 -19l26 -52q5 -11 -2 -20l-42 -54q-5 -8 -7 -19 l-35 -250q-9 -58 -44.5 -82t-76.5 -24h-108z" glyph-name="braceright" horiz-adv-x="378" unicode="}"/><glyph d="M198 371q31 0 58 -12.5t43 -27t36.5 -27t39.5 -12.5q35 0 56 31q5 8 13 8h37q10 0 9 -10q-7 -60 -45.5 -91t-90.5 -31q-40 0 -72 19.5t-57.5 39t-48.5 19.5q-37 0 -55 -30q-6 -9 -13 -9h-37q-11 0 -11 10q8 59 47 91t91 32z" glyph-name="asciitilde" horiz-adv-x="540" unicode="~"/><glyph glyph-name="uni00A0" horiz-adv-x="194" unicode=" "/><glyph d="M172 533q37 0 63 -26t26 -63q0 -38 -26 -64.5t-63 -26.5t-63.5 26.5t-26.5 64.5q0 37 26.5 63t63.5 26zM197 299q7 0 11 -4.5t3 -11.5l-46 -448q-2 -15 -18 -15h-124q-16 0 -14 15l80 448q4 16 17 16h91z" glyph-name="exclamdown" horiz-adv-x="288" unicode="¡"/><glyph d="M470 500q9 -11 -3 -19l-69 -60q-15 -12 -25 0q-25 25 -57 31l-29 -205q38 3 71 33q13 11 25 -2l49 -57q9 -11 -1 -21q-69 -73 -161 -78l-15 -106q-2 -16 -17 -16h-24q-15 0 -13 16l15 107q-78 11 -125 66.5t-47 134.5q0 98 68.5 171.5t167.5 82.5l15 106q2 16 17 16h24 q15 0 13 -16l-15 -107q89 -10 136 -77zM179 338q0 -63 55 -85l28 196q-37 -10 -60 -41t-23 -70z" glyph-name="cent" horiz-adv-x="472" unicode="¢"/><glyph d="M563 593q8 -12 -7 -23l-78 -68q-15 -12 -23 0q-42 66 -103 66q-45 0 -74 -28.5t-29 -71.5q0 -18 4.5 -33.5t15 -38.5t13.5 -30h138q15 0 13 -16l-9 -68q-2 -15 -17 -15h-112q-13 -79 -86 -137h263q15 0 13 -16l-14 -99q-2 -15 -17 -15h-427q-16 0 -13 15l16 115 q50 20 84 56t37 81h-90q-14 0 -14 15l10 68q2 17 18 17h50q-24 64 -24 110q0 99 74.5 165t182.5 66q140 0 205 -115z" glyph-name="sterling" horiz-adv-x="558" unicode="£"/><glyph d="M546 578q13 -32 13 -72q0 -71 -41 -133l41 -48l-92 -79l-37 43q-63 -37 -129 -37q-64 0 -115 35l-47 -41l-69 79l51 45q-14 36 -14 76q0 73 44 136l-39 45l92 79l36 -42q59 36 126 36t118 -37l49 43l69 -79zM211 461q0 -42 26 -74.5t82 -32.5q64 0 100 43t36 94 q0 41 -25 74t-81 33q-64 0 -101 -43t-37 -94z" glyph-name="currency" horiz-adv-x="607" unicode="¤"/><glyph d="M655 700q20 0 7 -18l-251 -360h76q15 0 13 -15l-10 -70q-2 -15 -17 -15h-78l-4 -28h78q16 0 14 -15l-11 -70q-2 -15 -17 -15h-78l-11 -79q-2 -15 -17 -15h-128q-15 0 -13 15l11 79h-79q-15 0 -13 15l10 70q2 15 17 15h79l4 28h-79q-15 0 -13 15l10 70q2 15 17 15h77 l-154 360q-4 8 0 13t13 5h134q13 0 17 -10l87 -224l153 224q7 10 19 10h137z" glyph-name="yen" horiz-adv-x="634" unicode="¥"/><glyph d="M287 800q15 0 13 -15l-39 -280q-2 -15 -18 -15h-128q-14 0 -12 15l39 280q2 15 17 15h128zM191 120q15 0 13 -15l-39 -280q-2 -15 -17 -15h-128q-16 0 -13 15l39 280q0 15 17 15h128z" glyph-name="brokenbar" horiz-adv-x="290" unicode="¦"/><glyph d="M300 590q-45 0 -45 -31q0 -24 37 -38l57 -24q2 0 6 -2l4 -2q42 -18 66.5 -45t24.5 -75q0 -79 -61 -126q22 -30 22 -73q0 -77 -57.5 -125t-145.5 -48q-61 0 -110.5 22.5t-74.5 58.5q-7 9 3 23l54 65q9 12 23 2q64 -45 107 -45q51 0 51 35q0 13 -9.5 20t-34.5 18l-47 20 q-99 42 -99 122q0 76 66 127q-28 34 -28 82q0 70 55 114.5t136 44.5q52 0 97 -20t71 -56q6 -9 -4 -21l-59 -60q-11 -9 -23 0q-45 37 -82 37zM216 358q0 -19 31 -33q23 0 38 10t15 26t-24 29q-5 1 -15 1q-45 0 -45 -33z" glyph-name="section" horiz-adv-x="474" unicode="§"/><glyph d="M136 553q-29 0 -48 19t-19 49q0 34 26 59t60 25q29 0 48 -19t19 -48q0 -34 -26 -59.5t-60 -25.5zM365 553q-29 0 -48 19t-19 49q0 34 26 59t60 25q29 0 48 -19t19 -48q0 -34 -26 -59.5t-60 -25.5z" glyph-name="dieresis" horiz-adv-x="411" unicode="¨"/><glyph d="M318 136q-109 0 -179.5 70t-70.5 178q0 129 97.5 226.5t228.5 97.5q110 0 180 -70t70 -180q0 -126 -98.5 -224t-227.5 -98zM330 223q91 0 157.5 68t66.5 158q0 75 -49 123.5t-125 48.5q-91 0 -156.5 -67.5t-65.5 -158.5q0 -75 49 -123.5t123 -48.5zM345 284 q-53 0 -87 34.5t-34 87.5q0 66 47.5 110t110.5 44q66 0 96 -47q3 -6 -1 -12l-44 -36q-7 -7 -12 -1q-18 20 -45 20q-31 0 -51 -21.5t-20 -49.5q0 -24 14 -39t39 -15t52 20q5 7 12 0l31 -36q4 -3 0 -12q-44 -47 -108 -47z" glyph-name="copyright" horiz-adv-x="663" unicode="©"/><glyph d="M364 700h96l-51 -359h-96l-2 35q-49 -35 -105 -35q-61 0 -99.5 43t-38.5 111q0 83 55.5 146.5t134.5 63.5q56 0 95 -34zM243 448q36 0 61.5 24t25.5 60q0 31 -18.5 49.5t-48.5 18.5q-36 0 -61 -25t-25 -62q0 -29 18.5 -47t47.5 -18z" glyph-name="ordfeminine" horiz-adv-x="426" unicode="ª"/><glyph d="M171 120q-2 -9 -8.5 -11t-12.5 4l-103 93q-8 5 -6 17l13 96q2 13 10 18l130 92q8 5 14 3.5t4 -10.5l-11 -80q-2 -12 -10 -18l-77 -52l62 -53q8 -6 6 -18zM359 120q-2 -9 -8.5 -11t-12.5 4l-103 93q-8 5 -6 17l13 96q2 13 10 18l130 92q8 5 14 3.5t4 -10.5l-11 -80 q-2 -12 -10 -18l-77 -52l62 -53q8 -6 6 -18z" glyph-name="guillemotleft" horiz-adv-x="419" unicode="«"/><glyph d="M491 315q15 0 13 -15l-22 -163q-2 -15 -17 -15h-120q-15 0 -13 15l7 54h-271q-14 0 -14 16l13 93q2 15 18 15h406z" glyph-name="logicalnot" horiz-adv-x="557" unicode="¬"/><glyph d="M377 337q16 0 14 -15l-13 -93q-2 -15 -18 -15h-300q-16 0 -14 15l13 93q2 15 18 15h300z" glyph-name="uni00AD" horiz-adv-x="429" unicode="­"/><glyph d="M393 708q110 0 180.5 -70t70.5 -180q0 -126 -98.5 -224t-227.5 -98q-109 0 -179.5 70t-70.5 178q0 129 97.5 226.5t227.5 97.5zM330 223q91 0 157.5 68t66.5 158q0 75 -49 123.5t-124 48.5q-91 0 -157 -67.5t-66 -158.5q0 -75 49 -123.5t123 -48.5zM393 548 q100 0 100 -80q0 -69 -73 -90l50 -69q6 -10 -4 -10h-63q-7 0 -10 4l-47 68h-28l-9 -64q-2 -8 -7 -8h-61q-9 0 -7 8l33 233q2 8 9 8h117zM413 461q0 26 -28 26h-51l-7 -56h51q35 0 35 30z" glyph-name="registered" horiz-adv-x="663" unicode="®"/><glyph d="M405 700q15 0 13 -15l-13 -88q-2 -15 -17 -15h-310q-16 0 -14 15l13 88q2 15 17 15h311z" glyph-name="macron" horiz-adv-x="371" unicode="¯"/><glyph d="M238 416q-58 0 -96 37.5t-38 93.5q0 65 46 111.5t113 46.5q58 0 96 -37t38 -93q0 -65 -47 -112t-112 -47zM246 512q21 0 36.5 16t15.5 38q0 19 -13 31t-32 12q-21 0 -36 -15.5t-15 -37.5q0 -20 13 -32t31 -12z" glyph-name="degree" horiz-adv-x="412" unicode="°"/><glyph d="M436 381q15 0 13 -15l-11 -80q-2 -15 -18 -15h-113l-16 -113q-2 -15 -17 -15h-80q-15 0 -13 15l15 113h-112q-15 0 -13 15l11 80q2 15 18 15h112l15 113q4 16 18 16h80q15 0 13 -16l-16 -113h114zM394 94q16 0 14 -16l-9 -62q-2 -16 -18 -16h-334q-16 0 -14 16l10 62 q2 16 17 16h334z" glyph-name="plusminus" horiz-adv-x="497" unicode="±"/><glyph d="M196 704q40 0 62 -18.5t22 -47.5q0 -8 -1.5 -15.5t-5 -15t-6.5 -13t-10.5 -13.5t-11 -12t-14 -12.5t-14 -11.5t-16.5 -12.5t-16 -12.5l-36 -26h106l-7 -54h-178l7 54l76 59q4 3 14.5 11t14.5 11t12 9.5t11 10t7 9.5t5.5 11.5t1.5 11.5q0 12 -8 19.5t-23 7.5 q-31 0 -38 -34l-2 -12h-57l2 14q5 38 32.5 60t70.5 22z" glyph-name="uni00B2" horiz-adv-x="264" unicode="²"/><glyph d="M171 436q-51 0 -74 24t-17 68h56q-6 -43 39 -43q21 0 35.5 9t14.5 27q0 30 -61 30l7 42q59 0 59 32q0 29 -37 29t-43 -41h-56q4 45 32.5 67.5t73.5 22.5q39 0 64 -17.5t25 -46.5q0 -20 -13.5 -37.5t-34.5 -24.5q42 -19 42 -60q0 -38 -32 -59.5t-80 -21.5z" glyph-name="uni00B3" horiz-adv-x="285" unicode="³"/><glyph d="M271 700q7 0 9.5 -5.5t-1.5 -11.5l-79 -114q-8 -12 -20 -12h-108q-8 0 -10.5 5.5t1.5 11.5l79 114q8 12 19 12h110z" glyph-name="acute" horiz-adv-x="234" unicode="´"/><glyph d="M547 490q15 0 13 -15l-64 -460q-2 -15 -17 -15h-118q-15 0 -13 15l3 58q-58 -85 -154 -85q-16 0 -24 1l-23 -164q-2 -15 -18 -15h-121q-15 0 -13 15l46 338l3 28l40 284q2 15 18 15h122q15 0 13 -15l-36 -263q-2 -41 17 -62t56 -21q39 0 64 25t31 73l35 248q2 15 18 15 h122z" glyph-name="uni00B5" unicode="µ"/><glyph d="M350 0q-7 0 -11 4t-2 11l31 226h-72q-110 0 -165 53t-55 149q0 116 77 186.5t207 70.5h216q15 0 13 -15l-94 -670q-3 -15 -17 -15h-128zM561 0q-15 0 -13 15l94 670q2 15 17 15h128q16 0 14 -15l-94 -670q-2 -15 -18 -15h-128zM321 381h67l25 179h-67q-57 0 -87.5 -27.5 t-30.5 -74.5q0 -77 93 -77z" glyph-name="paragraph" horiz-adv-x="804" unicode="¶"/><glyph d="M146 197q-37 0 -63 26t-26 63q0 38 26 64.5t63 26.5t63.5 -26.5t26.5 -64.5q0 -37 -26.5 -63t-63.5 -26z" glyph-name="periodcentered" horiz-adv-x="281" unicode="·"/><glyph d="M81 -32q33 -3 55.5 -23.5t22.5 -57.5q0 -60 -60.5 -89.5t-137.5 -16.5q-10 2 -9 14l7 50q2 13 15 10q82 -8 82 21q0 15 -21.5 20.5t-55.5 -5.5q-6 -3 -9 -0.5t-2 7.5l8 56q2 8 6 12l43 34h97z" glyph-name="cedilla" horiz-adv-x="225" unicode="¸"/><glyph d="M182 701l-36 -261h-57l29 206h-28l8 55h84z" glyph-name="uni00B9" horiz-adv-x="178" unicode="¹"/><glyph d="M229 341q-71 0 -115.5 44t-44.5 117q0 85 61.5 144t147.5 59q71 0 115.5 -44.5t44.5 -116.5q0 -85 -61.5 -144t-147.5 -59zM245 448q36 0 61 24t25 60q0 31 -18.5 49.5t-48.5 18.5q-37 0 -62 -25t-25 -61q0 -30 18.5 -48t49.5 -18z" glyph-name="ordmasculine" horiz-adv-x="429" unicode="º"/><glyph d="M68 422q1 9 8 11t12 -4l104 -92q8 -6 6 -18l-13 -96q-2 -11 -10 -17l-130 -93q-8 -5 -14 -3.5t-5 10.5l12 80q2 14 10 19l77 52l-62 52q-8 6 -6 19zM256 422q1 9 8 11t12 -4l104 -92q8 -6 6 -18l-13 -96q-2 -11 -10 -17l-130 -93q-8 -5 -14 -3.5t-5 10.5l12 80 q2 14 10 19l77 52l-62 52q-8 6 -6 19z" glyph-name="guillemotright" horiz-adv-x="419" unicode="»"/><glyph d="M189 701l-36 -261h-57l28 206h-28l8 55h85zM589 700l-508 -700h-63l508 700h63zM542 261l-21 -154h27l-8 -55h-27l-7 -52h-56l6 52h-138l168 209h56zM475 182l-58 -75h47z" glyph-name="onequarter" horiz-adv-x="611" unicode="¼"/><glyph d="M189 701l-36 -261h-57l28 206h-28l8 55h85zM589 700l-508 -700h-63l508 700h63zM455 264q40 0 62 -18.5t22 -47.5q0 -8 -1.5 -15.5t-5 -15t-6.5 -13t-10.5 -13.5t-11 -12t-14 -12.5t-14 -11.5t-16.5 -12.5t-16 -12.5l-36 -26h106l-6 -54h-179l7 54l76 59q4 3 14.5 11 t14.5 11t12 9.5t11 10t7 9.5t5.5 11.5t1.5 11.5q0 12 -8 19.5t-23 7.5q-31 0 -38 -34l-2 -12h-57l2 14q5 38 32.5 60t70.5 22z" glyph-name="onehalf" horiz-adv-x="589" unicode="½"/><glyph d="M171 436q-51 0 -74 24t-17 68h56q-6 -43 39 -43q21 0 35.5 9t14.5 27q0 30 -61 30l7 42q59 0 59 32q0 29 -37 29t-43 -41h-56q4 45 32.5 67.5t73.5 22.5q39 0 64 -17.5t25 -46.5q0 -20 -13.5 -37.5t-34.5 -24.5q42 -19 42 -60q0 -38 -32 -59.5t-80 -21.5zM620 700 l-508 -700h-63l508 700h63zM563 261l-21 -154h27l-8 -55h-27l-7 -52h-56l6 52h-138l168 209h56zM496 182l-58 -75h47z" glyph-name="threequarters" horiz-adv-x="628" unicode="¾"/><glyph d="M248 533q37 0 63 -26t26 -63q0 -38 -26 -64.5t-63 -26.5t-63.5 26.5t-26.5 64.5q0 37 26.5 63t63.5 26zM282 297q16 0 14 -15l-1 -15q-4 -42 -22 -75t-40.5 -53.5t-44.5 -38.5t-36.5 -38.5t-14.5 -44.5q0 -25 15.5 -41.5t45.5 -16.5q23 0 41.5 13t27 26t17.5 33 q8 15 25 5l73 -41q23 -13 16 -33q-26 -70 -84.5 -110t-138.5 -40q-83 0 -139 42.5t-56 120.5q0 52 26 95t57.5 68t62 58t36.5 65l4 21q3 15 17 15h99z" glyph-name="questiondown" horiz-adv-x="469" unicode="¿"/><glyph d="M341 779l-60 114q-4 8 0 12.5t13 4.5h108q10 0 17 -12l61 -114q4 -8 0 -12.5t-13 -4.5h-108q-10 0 -18 12zM637 17q3 -17 -14 -17h-134q-12 0 -15 12l-17 94h-250l-43 -94q-5 -12 -20 -12h-134q-18 0 -10 17l326 671q6 12 20 12h136q16 0 19 -12zM271 246h161l-46 253z " glyph-name="Agrave" horiz-adv-x="701" unicode="À"/><glyph d="M370 767q-8 0 -10.5 5.5t1.5 11.5l79 114q8 12 19 12h110q7 0 9.5 -5.5t-1.5 -11.5l-79 -114q-8 -12 -20 -12h-108zM637 17q3 -17 -14 -17h-134q-12 0 -15 12l-17 94h-250l-43 -94q-5 -12 -20 -12h-134q-18 0 -10 17l326 671q6 12 20 12h136q16 0 19 -12zM271 246h161 l-46 253z" glyph-name="Aacute" horiz-adv-x="701" unicode="Á"/><glyph d="M274 774q-9 0 -10 6t6 13l104 109q8 8 18 8h103q12 0 17 -8l74 -109q5 -7 2.5 -13t-12.5 -6h-81q-12 0 -17 8l-44 64l-58 -64q-9 -8 -20 -8h-82zM637 17q3 -17 -14 -17h-134q-12 0 -15 12l-17 94h-250l-43 -94q-5 -12 -20 -12h-134q-18 0 -10 17l326 671q6 12 20 12h136 q16 0 19 -12zM271 246h161l-46 253z" glyph-name="Acircumflex" horiz-adv-x="701" unicode="Â"/><glyph d="M251 812q-14 0 -11 13q12 53 46 80.5t80 27.5q28 0 52.5 -11t38.5 -24.5t33 -24.5t38 -11q35 0 51 27q4 8 13 8h31q14 0 11 -13q-11 -52 -46 -80t-81 -28q-36 0 -64.5 18t-52 35.5t-45.5 17.5q-36 0 -51 -27q-5 -8 -13 -8h-30zM637 17q3 -17 -14 -17h-134q-12 0 -15 12 l-17 94h-250l-43 -94q-5 -12 -20 -12h-134q-18 0 -10 17l326 671q6 12 20 12h136q16 0 19 -12zM271 246h161l-46 253z" glyph-name="Atilde" horiz-adv-x="701" unicode="Ã"/><glyph d="M311 763q-29 0 -48 19t-19 49q0 34 26 59t60 25q29 0 48 -19t19 -48q0 -34 -26 -59.5t-60 -25.5zM540 763q-29 0 -48 19t-19 49q0 34 26 59t60 25q29 0 48 -19t19 -48q0 -34 -26 -59.5t-60 -25.5zM637 17q3 -17 -14 -17h-134q-12 0 -15 12l-17 94h-250l-43 -94 q-5 -12 -20 -12h-134q-18 0 -10 17l326 671q6 12 20 12h136q16 0 19 -12zM271 246h161l-46 253z" glyph-name="Adieresis" horiz-adv-x="701" unicode="Ä"/><glyph d="M426 742q-45 0 -72 27t-27 68q0 47 34.5 83t86.5 36q44 0 71 -27t27 -67q0 -47 -34.5 -83.5t-85.5 -36.5zM438 873q-10 0 -17 -7.5t-7 -18.5q0 -9 6 -15t15 -6q10 0 17 7.5t7 18.5q0 8 -6 14.5t-15 6.5zM637 17q3 -17 -14 -17h-134q-12 0 -15 12l-17 94h-250l-43 -94 q-5 -12 -20 -12h-134q-18 0 -10 17l326 671q6 12 20 12h136q16 0 19 -12zM271 246h161l-46 253z" glyph-name="Aring" horiz-adv-x="701" unicode="Å"/><glyph d="M849 700q15 0 13 -15l-15 -110q-2 -15 -17 -15h-217l-20 -137h204q16 0 14 -15l-16 -110q-2 -15 -17 -15h-205l-20 -143h217q15 0 13 -15l-15 -110q-2 -15 -17 -15h-361q-15 0 -13 15l17 119h-168l-64 -122q-7 -12 -18 -12h-133q-9 0 -12 5t1 12l369 671q5 12 18 12h462z M296 268h116l43 304z" glyph-name="AE" horiz-adv-x="856" unicode="Æ"/><glyph d="M701 604q8 -9 -5 -21l-85 -84q-12 -12 -22 -2q-58 56 -139 56q-96 0 -162.5 -66.5t-66.5 -162.5q0 -82 48.5 -132t126.5 -50q81 0 152 56q14 10 22 -1l67 -85q8 -12 -2 -21q-103 -92 -230 -103l-26 -20q33 -3 55.5 -23.5t22.5 -57.5q0 -60 -60.5 -89.5t-137.5 -16.5 q-10 2 -9 14l7 50q2 13 15 10q82 -8 82 21q0 15 -21.5 20.5t-55.5 -5.5q-6 -3 -9 -0.5t-2 7.5l8 56q2 8 6 12l33 26q-115 19 -185 103.5t-70 206.5q0 164 119.5 285t288.5 121q150 0 235 -104z" glyph-name="Ccedilla" horiz-adv-x="701" unicode="Ç"/><glyph d="M216 910h108q10 0 17 -12l61 -114q4 -8 0 -12.5t-13 -4.5h-108q-10 0 -18 12l-60 114q-4 8 0 12.5t13 4.5zM47 0q-15 0 -13 15l93 670q3 15 18 15h361q15 0 13 -15l-15 -110q-2 -15 -18 -15h-217l-20 -137h205q15 0 13 -15l-15 -110q-2 -15 -17 -15h-205l-20 -143h217 q15 0 13 -15l-16 -110q0 -15 -17 -15h-360z" glyph-name="Egrave" horiz-adv-x="512" unicode="È"/><glyph d="M491 910q7 0 9.5 -5.5t-1.5 -11.5l-79 -114q-8 -12 -20 -12h-108q-8 0 -10.5 5.5t1.5 11.5l79 114q8 12 19 12h110zM47 0q-15 0 -13 15l93 670q3 15 18 15h361q15 0 13 -15l-15 -110q-2 -15 -18 -15h-217l-20 -137h205q15 0 13 -15l-15 -110q-2 -15 -17 -15h-205 l-20 -143h217q15 0 13 -15l-16 -110q0 -15 -17 -15h-360z" glyph-name="Eacute" horiz-adv-x="512" unicode="É"/><glyph d="M196 774q-9 0 -10 6t6 13l104 109q8 8 18 8h103q12 0 17 -8l74 -109q5 -7 2.5 -13t-12.5 -6h-81q-12 0 -17 8l-44 64l-58 -64q-9 -8 -20 -8h-82zM47 0q-15 0 -13 15l93 670q3 15 18 15h361q15 0 13 -15l-15 -110q-2 -15 -18 -15h-217l-20 -137h205q15 0 13 -15l-15 -110 q-2 -15 -17 -15h-205l-20 -143h217q15 0 13 -15l-16 -110q0 -15 -17 -15h-360z" glyph-name="Ecircumflex" horiz-adv-x="512" unicode="Ê"/><glyph d="M233 763q-29 0 -48 19t-19 49q0 34 26 59t60 25q29 0 48 -19t19 -48q0 -34 -26 -59.5t-60 -25.5zM462 763q-29 0 -48 19t-19 49q0 34 26 59t60 25q29 0 48 -19t19 -48q0 -34 -26 -59.5t-60 -25.5zM47 0q-15 0 -13 15l93 670q3 15 18 15h361q15 0 13 -15l-15 -110 q-2 -15 -18 -15h-217l-20 -137h205q15 0 13 -15l-15 -110q-2 -15 -17 -15h-205l-20 -143h217q15 0 13 -15l-16 -110q0 -15 -17 -15h-360z" glyph-name="Edieresis" horiz-adv-x="512" unicode="Ë"/><glyph d="M87 910h108q10 0 17 -12l61 -114q4 -8 0 -12.5t-13 -4.5h-108q-10 0 -18 12l-60 114q-4 8 0 12.5t13 4.5zM47 0q-15 0 -13 15l93 670q3 15 18 15h128q15 0 13 -15l-94 -670q-2 -15 -17 -15h-128z" glyph-name="Igrave" horiz-adv-x="290" unicode="Ì"/><glyph d="M363 910q7 0 9.5 -5.5t-1.5 -11.5l-79 -114q-8 -12 -20 -12h-108q-8 0 -10.5 5.5t1.5 11.5l79 114q8 12 19 12h110zM47 0q-15 0 -13 15l93 670q3 15 18 15h128q15 0 13 -15l-94 -670q-2 -15 -17 -15h-128z" glyph-name="Iacute" horiz-adv-x="290" unicode="Í"/><glyph d="M68 774q-9 0 -10 6t6 13l104 109q8 8 18 8h103q12 0 17 -8l74 -109q5 -7 2.5 -13t-12.5 -6h-81q-12 0 -17 8l-44 64l-58 -64q-9 -8 -20 -8h-82zM47 0q-15 0 -13 15l93 670q3 15 18 15h128q15 0 13 -15l-94 -670q-2 -15 -17 -15h-128z" glyph-name="Icircumflex" horiz-adv-x="290" unicode="Î"/><glyph d="M105 763q-29 0 -48 19t-19 49q0 34 26 59t60 25q29 0 48 -19t19 -48q0 -34 -26 -59.5t-60 -25.5zM334 763q-29 0 -48 19t-19 49q0 34 26 59t60 25q29 0 48 -19t19 -48q0 -34 -26 -59.5t-60 -25.5zM47 0q-15 0 -13 15l93 670q3 15 18 15h128q15 0 13 -15l-94 -670 q-2 -15 -17 -15h-128z" glyph-name="Idieresis" horiz-adv-x="290" unicode="Ï"/><glyph d="M370 700q151 0 231 -84t80 -221q0 -172 -115 -283.5t-294 -111.5h-217q-15 0 -13 15l38 269h-34q-15 0 -13 15l13 87q2 16 17 16h33l40 283q2 15 17 15h217zM289 140q111 0 171 66.5t60 173.5q0 180 -170 180h-73l-22 -158h119q15 0 13 -16l-13 -87q-2 -15 -17 -15h-119 l-20 -144h71z" glyph-name="Eth" horiz-adv-x="706" unicode="Ð"/><glyph d="M250 812q-14 0 -11 13q12 53 46 80.5t80 27.5q28 0 52.5 -11t38.5 -24.5t33 -24.5t38 -11q35 0 51 27q4 8 13 8h31q14 0 11 -13q-11 -52 -46 -80t-81 -28q-36 0 -64.5 18t-52 35.5t-45.5 17.5q-36 0 -51 -27q-5 -8 -13 -8h-30zM687 700q15 0 13 -15l-94 -670 q-2 -15 -17 -15h-150q-13 0 -17 10l-169 440l-61 -435q-2 -15 -17 -15h-128q-15 0 -13 15l93 670q3 15 18 15h147q13 0 17 -10l171 -446l62 441q2 15 17 15h128z" glyph-name="Ntilde" horiz-adv-x="704" unicode="Ñ"/><glyph d="M350 910h108q10 0 17 -12l61 -114q4 -8 0 -12.5t-13 -4.5h-108q-10 0 -18 12l-60 114q-4 8 0 12.5t13 4.5zM373 -13q-138 0 -227.5 88t-89.5 223q0 165 123 287.5t291 122.5q138 0 227 -88t89 -223q0 -166 -122.5 -288t-290.5 -122zM394 142q96 0 163 68.5t67 165.5 q0 79 -48.5 128t-125.5 49q-96 0 -163 -68t-67 -165q0 -79 48.5 -128.5t125.5 -49.5z" glyph-name="Ograve" horiz-adv-x="813" unicode="Ò"/><glyph d="M625 910q7 0 9.5 -5.5t-1.5 -11.5l-79 -114q-8 -12 -20 -12h-108q-8 0 -10.5 5.5t1.5 11.5l79 114q8 12 19 12h110zM373 -13q-138 0 -227.5 88t-89.5 223q0 165 123 287.5t291 122.5q138 0 227 -88t89 -223q0 -166 -122.5 -288t-290.5 -122zM394 142q96 0 163 68.5 t67 165.5q0 79 -48.5 128t-125.5 49q-96 0 -163 -68t-67 -165q0 -79 48.5 -128.5t125.5 -49.5z" glyph-name="Oacute" horiz-adv-x="813" unicode="Ó"/><glyph d="M330 774q-9 0 -10 6t6 13l104 109q8 8 18 8h103q12 0 17 -8l74 -109q5 -7 2.5 -13t-12.5 -6h-81q-12 0 -17 8l-44 64l-58 -64q-9 -8 -20 -8h-82zM373 -13q-138 0 -227.5 88t-89.5 223q0 165 123 287.5t291 122.5q138 0 227 -88t89 -223q0 -166 -122.5 -288t-290.5 -122z M394 142q96 0 163 68.5t67 165.5q0 79 -48.5 128t-125.5 49q-96 0 -163 -68t-67 -165q0 -79 48.5 -128.5t125.5 -49.5z" glyph-name="Ocircumflex" horiz-adv-x="813" unicode="Ô"/><glyph d="M422 933q28 0 52.5 -11t38.5 -24.5t33 -24.5t38 -11q35 0 51 27q4 8 13 8h31q14 0 11 -13q-11 -52 -46 -80t-81 -28q-36 0 -64.5 18t-52 35.5t-45.5 17.5q-36 0 -51 -27q-5 -8 -13 -8h-30q-14 0 -11 13q12 53 46 80.5t80 27.5zM373 -13q-138 0 -227.5 88t-89.5 223 q0 165 123 287.5t291 122.5q138 0 227 -88t89 -223q0 -166 -122.5 -288t-290.5 -122zM394 142q96 0 163 68.5t67 165.5q0 79 -48.5 128t-125.5 49q-96 0 -163 -68t-67 -165q0 -79 48.5 -128.5t125.5 -49.5z" glyph-name="Otilde" horiz-adv-x="813" unicode="Õ"/><glyph d="M367 763q-29 0 -48 19t-19 49q0 34 26 59t60 25q29 0 48 -19t19 -48q0 -34 -26 -59.5t-60 -25.5zM596 763q-29 0 -48 19t-19 49q0 34 26 59t60 25q29 0 48 -19t19 -48q0 -34 -26 -59.5t-60 -25.5zM373 -13q-138 0 -227.5 88t-89.5 223q0 165 123 287.5t291 122.5 q138 0 227 -88t89 -223q0 -166 -122.5 -288t-290.5 -122zM394 142q96 0 163 68.5t67 165.5q0 79 -48.5 128t-125.5 49q-96 0 -163 -68t-67 -165q0 -79 48.5 -128.5t125.5 -49.5z" glyph-name="Odieresis" horiz-adv-x="813" unicode="Ö"/><glyph d="M408 387q9 -9 -4 -21l-92 -81l70 -80q11 -11 -3 -22l-64 -55q-13 -11 -22 0l-69 80l-91 -80q-13 -11 -22 0l-49 56q-9 9 3 23l91 79l-69 81q-8 12 4 21l63 55q13 10 22 0l69 -80l92 80q9 11 22 0z" glyph-name="multiply" horiz-adv-x="459" unicode="×"/><glyph d="M658 652q61 -42 94.5 -108t33.5 -147q0 -166 -122.5 -288t-290.5 -122q-57 0 -110 17l-26 -43q-6 -11 -20 -11h-70q-19 0 -8 18l45 75q-60 41 -94 107.5t-34 147.5q0 165 123 287.5t291 122.5q58 0 109 -17l26 43q6 11 20 11h70q20 0 9 -18zM220 320q0 -83 52 -133 l220 362q-17 4 -42 4q-96 0 -163 -68t-67 -165zM394 142q96 0 163 68.5t67 165.5q0 83 -53 133l-221 -362q23 -5 44 -5z" glyph-name="Oslash" horiz-adv-x="813" unicode="Ø"/><glyph d="M274 910h108q10 0 17 -12l61 -114q4 -8 0 -12.5t-13 -4.5h-108q-10 0 -18 12l-60 114q-4 8 0 12.5t13 4.5zM299 -13q-124 0 -189 74.5t-45 212.5l57 411q3 15 18 15h128q15 0 13 -15l-58 -409q-8 -64 16.5 -99t78.5 -35t88 35t43 99l58 409q2 15 17 15h128q15 0 13 -15 l-57 -411q-20 -139 -103 -213t-206 -74z" glyph-name="Ugrave" horiz-adv-x="664" unicode="Ù"/><glyph d="M550 910q7 0 9.5 -5.5t-1.5 -11.5l-79 -114q-8 -12 -20 -12h-108q-8 0 -10.5 5.5t1.5 11.5l79 114q8 12 19 12h110zM299 -13q-124 0 -189 74.5t-45 212.5l57 411q3 15 18 15h128q15 0 13 -15l-58 -409q-8 -64 16.5 -99t78.5 -35t88 35t43 99l58 409q2 15 17 15h128 q15 0 13 -15l-57 -411q-20 -139 -103 -213t-206 -74z" glyph-name="Uacute" horiz-adv-x="664" unicode="Ú"/><glyph d="M255 774q-9 0 -10 6t6 13l104 109q8 8 18 8h103q12 0 17 -8l74 -109q5 -7 2.5 -13t-12.5 -6h-81q-12 0 -17 8l-44 64l-58 -64q-9 -8 -20 -8h-82zM299 -13q-124 0 -189 74.5t-45 212.5l57 411q3 15 18 15h128q15 0 13 -15l-58 -409q-8 -64 16.5 -99t78.5 -35t88 35t43 99 l58 409q2 15 17 15h128q15 0 13 -15l-57 -411q-20 -139 -103 -213t-206 -74z" glyph-name="Ucircumflex" horiz-adv-x="664" unicode="Û"/><glyph d="M292 763q-29 0 -48 19t-19 49q0 34 26 59t60 25q29 0 48 -19t19 -48q0 -34 -26 -59.5t-60 -25.5zM521 763q-29 0 -48 19t-19 49q0 34 26 59t60 25q29 0 48 -19t19 -48q0 -34 -26 -59.5t-60 -25.5zM299 -13q-124 0 -189 74.5t-45 212.5l57 411q3 15 18 15h128q15 0 13 -15 l-58 -409q-8 -64 16.5 -99t78.5 -35t88 35t43 99l58 409q2 15 17 15h128q15 0 13 -15l-57 -411q-20 -139 -103 -213t-206 -74z" glyph-name="Udieresis" horiz-adv-x="664" unicode="Ü"/><glyph d="M336 767q-8 0 -10.5 5.5t1.5 11.5l79 114q8 12 19 12h110q7 0 9.5 -5.5t-1.5 -11.5l-79 -114q-8 -12 -20 -12h-108zM655 700q20 0 7 -18l-254 -364l-42 -303q-2 -15 -17 -15h-128q-15 0 -13 15l42 305l-155 362q-4 8 0 13t13 5h134q13 0 17 -10l87 -224l153 224 q7 10 19 10h137z" glyph-name="Yacute" horiz-adv-x="634" unicode="Ý"/><glyph d="M345 583q233 0 233 -201q0 -122 -81 -193.5t-217 -71.5h-74l-14 -102q-2 -15 -17 -15h-128q-15 0 -13 15l93 670q3 15 18 15h128q15 0 13 -15l-14 -102h73zM288 257q137 0 137 104q0 48 -27.5 65t-82.5 17h-63l-26 -186h62z" glyph-name="Thorn" horiz-adv-x="596" unicode="Þ"/><glyph d="M47 0q-15 0 -13 15l67 478q15 107 92.5 161t180.5 54q96 0 160.5 -46.5t64.5 -128.5q0 -68 -42 -118.5t-101 -53.5q132 -17 132 -149q0 -104 -78 -158t-209 -54h-52q-15 0 -13 15l11 89q3 15 18 15h44q135 0 135 97q0 42 -25.5 56t-85.5 14h-44q-16 0 -14 16l13 88 q2 16 17 16h26q114 0 114 87q0 76 -87 76q-93 0 -104 -84l-66 -470q-2 -15 -18 -15h-123z" glyph-name="germandbls" horiz-adv-x="626" unicode="ß"/><glyph d="M263 569l-60 114q-4 8 0 12.5t13 4.5h108q10 0 17 -12l61 -114q4 -8 0 -12.5t-13 -4.5h-108q-10 0 -18 12zM576 490q17 0 14 -15l-64 -460q-3 -15 -19 -15h-110q-17 0 -14 15l4 49q-63 -76 -163 -76q-93 0 -144.5 59t-51.5 157q0 121 75.5 209.5t191.5 88.5 q101 0 143 -74l9 47q3 15 18 15h111zM276 127q51 0 87 32.5t43 86.5q7 52 -20 84.5t-77 32.5q-57 0 -93.5 -40t-36.5 -95q0 -46 26.5 -73.5t70.5 -27.5z" glyph-name="agrave" horiz-adv-x="613" unicode="à"/><glyph d="M293 557q-8 0 -10.5 5.5t1.5 11.5l79 114q8 12 19 12h110q7 0 9.5 -5.5t-1.5 -11.5l-79 -114q-8 -12 -20 -12h-108zM576 490q17 0 14 -15l-64 -460q-3 -15 -19 -15h-110q-17 0 -14 15l4 49q-63 -76 -163 -76q-93 0 -144.5 59t-51.5 157q0 121 75.5 209.5t191.5 88.5 q101 0 143 -74l9 47q3 15 18 15h111zM276 127q51 0 87 32.5t43 86.5q7 52 -20 84.5t-77 32.5q-57 0 -93.5 -40t-36.5 -95q0 -46 26.5 -73.5t70.5 -27.5z" glyph-name="aacute" horiz-adv-x="613" unicode="á"/><glyph d="M197 564q-9 0 -10 6t6 13l104 109q8 8 18 8h103q12 0 17 -8l74 -109q5 -7 2.5 -13t-12.5 -6h-81q-12 0 -17 8l-44 64l-58 -64q-9 -8 -20 -8h-82zM576 490q17 0 14 -15l-64 -460q-3 -15 -19 -15h-110q-17 0 -14 15l4 49q-63 -76 -163 -76q-93 0 -144.5 59t-51.5 157 q0 121 75.5 209.5t191.5 88.5q101 0 143 -74l9 47q3 15 18 15h111zM276 127q51 0 87 32.5t43 86.5q7 52 -20 84.5t-77 32.5q-57 0 -93.5 -40t-36.5 -95q0 -46 26.5 -73.5t70.5 -27.5z" glyph-name="acircumflex" horiz-adv-x="613" unicode="â"/><glyph d="M174 602q-14 0 -11 13q12 53 46 80.5t80 27.5q28 0 52.5 -11t38.5 -24.5t33 -24.5t38 -11q35 0 51 27q4 8 13 8h31q14 0 11 -13q-11 -52 -46 -80t-81 -28q-36 0 -64.5 18t-52 35.5t-45.5 17.5q-36 0 -51 -27q-5 -8 -13 -8h-30zM576 490q17 0 14 -15l-64 -460 q-3 -15 -19 -15h-110q-17 0 -14 15l4 49q-63 -76 -163 -76q-93 0 -144.5 59t-51.5 157q0 121 75.5 209.5t191.5 88.5q101 0 143 -74l9 47q3 15 18 15h111zM276 127q51 0 87 32.5t43 86.5q7 52 -20 84.5t-77 32.5q-57 0 -93.5 -40t-36.5 -95q0 -46 26.5 -73.5t70.5 -27.5z " glyph-name="atilde" horiz-adv-x="613" unicode="ã"/><glyph d="M234 553q-29 0 -48 19t-19 49q0 34 26 59t60 25q29 0 48 -19t19 -48q0 -34 -26 -59.5t-60 -25.5zM463 553q-29 0 -48 19t-19 49q0 34 26 59t60 25q29 0 48 -19t19 -48q0 -34 -26 -59.5t-60 -25.5zM576 490q17 0 14 -15l-64 -460q-3 -15 -19 -15h-110q-17 0 -14 15l4 49 q-63 -76 -163 -76q-93 0 -144.5 59t-51.5 157q0 121 75.5 209.5t191.5 88.5q101 0 143 -74l9 47q3 15 18 15h111zM276 127q51 0 87 32.5t43 86.5q7 52 -20 84.5t-77 32.5q-57 0 -93.5 -40t-36.5 -95q0 -46 26.5 -73.5t70.5 -27.5z" glyph-name="adieresis" horiz-adv-x="613" unicode="ä"/><glyph d="M348 532q-45 0 -72 27t-27 68q0 47 34.5 83t86.5 36q44 0 71 -27t27 -67q0 -47 -34.5 -83.5t-85.5 -36.5zM360 663q-10 0 -17 -7.5t-7 -18.5q0 -9 6 -15t15 -6q10 0 17 7.5t7 18.5q0 8 -6 14.5t-15 6.5zM576 490q17 0 14 -15l-64 -460q-3 -15 -19 -15h-110q-17 0 -14 15 l4 49q-63 -76 -163 -76q-93 0 -144.5 59t-51.5 157q0 121 75.5 209.5t191.5 88.5q101 0 143 -74l9 47q3 15 18 15h111zM276 127q51 0 87 32.5t43 86.5q7 52 -20 84.5t-77 32.5q-57 0 -93.5 -40t-36.5 -95q0 -46 26.5 -73.5t70.5 -27.5z" glyph-name="aring" horiz-adv-x="613" unicode="å"/><glyph d="M694 502q108 0 162.5 -68.5t40.5 -167.5q-12 -79 -63 -79h-281q12 -76 114 -76q55 0 100 23q15 7 25 -9l29 -48q11 -16 -3 -28q-72 -61 -177 -61q-74 0 -129.5 32t-82.5 89q-59 -121 -195 -121q-94 0 -150 60t-56 159q0 119 75.5 207t190.5 88q91 0 133 -62l8 35 q3 15 18 15h75q16 0 14 -15l-3 -18q72 45 155 45zM677 376q-87 0 -114 -83h202q-1 42 -24.5 62.5t-63.5 20.5zM278 127q57 0 93.5 41t36.5 96q0 46 -27 72.5t-72 26.5q-57 0 -93.5 -40t-36.5 -95q0 -46 27 -73.5t72 -27.5z" glyph-name="ae" horiz-adv-x="924" unicode="æ"/><glyph d="M498 414q8 -13 -3 -22l-76 -67q-17 -14 -28 -1q-36 38 -86 38q-55 0 -91 -39t-36 -92q0 -45 28 -74t78 -29t91 38q14 12 27 -2l54 -64q10 -12 -1 -23q-73 -80 -173 -88l-27 -21q33 -3 55.5 -23.5t22.5 -57.5q0 -60 -60.5 -89.5t-137.5 -16.5q-10 2 -9 14l7 50q2 13 15 10 q82 -8 82 21q0 15 -21.5 20.5t-55.5 -5.5q-6 -3 -9 -0.5t-2 7.5l8 56q2 8 6 12l37 30q-75 19 -119 78.5t-44 141.5q0 117 83.5 201.5t201.5 84.5q122 0 183 -88z" glyph-name="ccedilla" horiz-adv-x="513" unicode="ç"/><glyph d="M240 569l-60 114q-4 8 0 12.5t13 4.5h108q10 0 17 -12l61 -114q4 -8 0 -12.5t-13 -4.5h-108q-10 0 -18 12zM317 502q108 0 162.5 -68.5t40.5 -167.5q-12 -79 -63 -79h-281q12 -76 114 -76q55 0 100 23q15 7 25 -9l29 -48q11 -16 -3 -28q-72 -61 -177 -61t-170.5 62 t-65.5 164q0 117 84.5 202.5t204.5 85.5zM300 376q-87 0 -114 -83h202q-1 42 -24.5 62.5t-63.5 20.5z" glyph-name="egrave" horiz-adv-x="547" unicode="è"/><glyph d="M269 557q-8 0 -10.5 5.5t1.5 11.5l79 114q8 12 19 12h110q7 0 9.5 -5.5t-1.5 -11.5l-79 -114q-8 -12 -20 -12h-108zM317 502q108 0 162.5 -68.5t40.5 -167.5q-12 -79 -63 -79h-281q12 -76 114 -76q55 0 100 23q15 7 25 -9l29 -48q11 -16 -3 -28q-72 -61 -177 -61 t-170.5 62t-65.5 164q0 117 84.5 202.5t204.5 85.5zM300 376q-87 0 -114 -83h202q-1 42 -24.5 62.5t-63.5 20.5z" glyph-name="eacute" horiz-adv-x="547" unicode="é"/><glyph d="M173 564q-9 0 -10 6t6 13l104 109q8 8 18 8h103q12 0 17 -8l74 -109q5 -7 2.5 -13t-12.5 -6h-81q-12 0 -17 8l-44 64l-58 -64q-9 -8 -20 -8h-82zM317 502q108 0 162.5 -68.5t40.5 -167.5q-12 -79 -63 -79h-281q12 -76 114 -76q55 0 100 23q15 7 25 -9l29 -48 q11 -16 -3 -28q-72 -61 -177 -61t-170.5 62t-65.5 164q0 117 84.5 202.5t204.5 85.5zM300 376q-87 0 -114 -83h202q-1 42 -24.5 62.5t-63.5 20.5z" glyph-name="ecircumflex" horiz-adv-x="547" unicode="ê"/><glyph d="M210 553q-29 0 -48 19t-19 49q0 34 26 59t60 25q29 0 48 -19t19 -48q0 -34 -26 -59.5t-60 -25.5zM439 553q-29 0 -48 19t-19 49q0 34 26 59t60 25q29 0 48 -19t19 -48q0 -34 -26 -59.5t-60 -25.5zM317 502q108 0 162.5 -68.5t40.5 -167.5q-12 -79 -63 -79h-281 q12 -76 114 -76q55 0 100 23q15 7 25 -9l29 -48q11 -16 -3 -28q-72 -61 -177 -61t-170.5 62t-65.5 164q0 117 84.5 202.5t204.5 85.5zM300 376q-87 0 -114 -83h202q-1 42 -24.5 62.5t-63.5 20.5z" glyph-name="edieresis" horiz-adv-x="547" unicode="ë"/><glyph d="M44 700h108q10 0 17 -12l61 -114q4 -8 0 -12.5t-13 -4.5h-108q-10 0 -18 12l-60 114q-4 8 0 12.5t13 4.5zM35 0q-15 0 -13 15l64 460q2 15 17 15h123q16 0 14 -15l-64 -460q-2 -15 -18 -15h-123z" glyph-name="igrave" horiz-adv-x="261" unicode="ì"/><glyph d="M320 700q7 0 9.5 -5.5t-1.5 -11.5l-79 -114q-8 -12 -20 -12h-108q-8 0 -10.5 5.5t1.5 11.5l79 114q8 12 19 12h110zM35 0q-15 0 -13 15l64 460q2 15 17 15h123q16 0 14 -15l-64 -460q-2 -15 -18 -15h-123z" glyph-name="iacute" horiz-adv-x="261" unicode="í"/><glyph d="M25 564q-9 0 -10 6t6 13l104 109q8 8 18 8h103q12 0 17 -8l74 -109q5 -7 2.5 -13t-12.5 -6h-81q-12 0 -17 8l-44 64l-58 -64q-9 -8 -20 -8h-82zM35 0q-15 0 -13 15l64 460q2 15 17 15h123q16 0 14 -15l-64 -460q-2 -15 -18 -15h-123z" glyph-name="icircumflex" horiz-adv-x="261" unicode="î"/><glyph d="M62 553q-29 0 -48 19t-19 49q0 34 26 59t60 25q29 0 48 -19t19 -48q0 -34 -26 -59.5t-60 -25.5zM291 553q-29 0 -48 19t-19 49q0 34 26 59t60 25q29 0 48 -19t19 -48q0 -34 -26 -59.5t-60 -25.5zM35 0q-15 0 -13 15l64 460q2 15 17 15h123q16 0 14 -15l-64 -460 q-2 -15 -18 -15h-123z" glyph-name="idieresis" horiz-adv-x="261" unicode="ï"/><glyph d="M637 658q8 1 11.5 -3t2.5 -11l-12 -77q-2 -14 -16 -16l-22 -3l-75 -533q-3 -15 -19 -15h-110q-17 0 -14 15l4 49q-63 -76 -163 -76q-93 0 -144.5 59t-51.5 157q0 121 75.5 209.5t191.5 88.5q97 0 139 -69l12 98l-57 -7q-8 -1 -11.5 3t-2.5 11l12 77q2 14 16 16l56 7l8 62 q2 15 18 15h123q16 0 14 -15l-6 -44zM276 127q51 0 87 32.5t43 86.5q7 52 -20 84.5t-77 32.5q-57 0 -93.5 -40t-36.5 -95q0 -46 26.5 -73.5t70.5 -27.5z" glyph-name="eth" horiz-adv-x="595" unicode="ð"/><glyph d="M536 687q14 0 11 -13q-11 -52 -46 -80t-81 -28q-36 0 -64.5 18t-52 35.5t-45.5 17.5q-36 0 -51 -27q-5 -8 -13 -8h-30q-14 0 -11 13q12 53 46 80.5t80 27.5q28 0 52.5 -11t38.5 -24.5t33 -24.5t38 -11q35 0 51 27q4 8 13 8h31zM387 502q79 0 120.5 -54.5t28.5 -148.5 l-40 -284q-2 -15 -17 -15h-122q-16 0 -14 15l35 248q7 48 -12 73.5t-60 25.5q-38 0 -63 -25.5t-31 -73.5l-35 -248q-2 -15 -18 -15h-122q-14 0 -14 15l65 460q2 15 17 15h117q16 0 14 -15l-3 -57q60 84 154 84z" glyph-name="ntilde" unicode="ñ"/><glyph d="M202 700h108q10 0 17 -12l61 -114q4 -8 0 -12.5t-13 -4.5h-108q-10 0 -18 12l-60 114q-4 8 0 12.5t13 4.5zM255 -12q-102 0 -164.5 62.5t-62.5 159.5q0 119 87 205.5t208 86.5q102 0 164.5 -62.5t62.5 -159.5q0 -119 -87 -205.5t-208 -86.5zM274 128q52 0 89.5 36 t37.5 95q0 48 -27 75.5t-70 27.5q-52 0 -89.5 -36t-37.5 -95q0 -48 27 -75.5t70 -27.5z" glyph-name="ograve" horiz-adv-x="578" unicode="ò"/><glyph d="M477 700q7 0 9.5 -5.5t-1.5 -11.5l-79 -114q-8 -12 -20 -12h-108q-8 0 -10.5 5.5t1.5 11.5l79 114q8 12 19 12h110zM255 -12q-102 0 -164.5 62.5t-62.5 159.5q0 119 87 205.5t208 86.5q102 0 164.5 -62.5t62.5 -159.5q0 -119 -87 -205.5t-208 -86.5zM274 128 q52 0 89.5 36t37.5 95q0 48 -27 75.5t-70 27.5q-52 0 -89.5 -36t-37.5 -95q0 -48 27 -75.5t70 -27.5z" glyph-name="oacute" horiz-adv-x="578" unicode="ó"/><glyph d="M182 564q-9 0 -10 6t6 13l104 109q8 8 18 8h103q12 0 17 -8l74 -109q5 -7 2.5 -13t-12.5 -6h-81q-12 0 -17 8l-44 64l-58 -64q-9 -8 -20 -8h-82zM255 -12q-102 0 -164.5 62.5t-62.5 159.5q0 119 87 205.5t208 86.5q102 0 164.5 -62.5t62.5 -159.5q0 -119 -87 -205.5 t-208 -86.5zM274 128q52 0 89.5 36t37.5 95q0 48 -27 75.5t-70 27.5q-52 0 -89.5 -36t-37.5 -95q0 -48 27 -75.5t70 -27.5z" glyph-name="ocircumflex" horiz-adv-x="578" unicode="ô"/><glyph d="M274 723q28 0 52.5 -11t38.5 -24.5t33 -24.5t38 -11q35 0 51 27q4 8 13 8h31q14 0 11 -13q-11 -52 -46 -80t-81 -28q-36 0 -64.5 18t-52 35.5t-45.5 17.5q-36 0 -51 -27q-5 -8 -13 -8h-30q-14 0 -11 13q12 53 46 80.5t80 27.5zM255 -12q-102 0 -164.5 62.5t-62.5 159.5 q0 119 87 205.5t208 86.5q102 0 164.5 -62.5t62.5 -159.5q0 -119 -87 -205.5t-208 -86.5zM274 128q52 0 89.5 36t37.5 95q0 48 -27 75.5t-70 27.5q-52 0 -89.5 -36t-37.5 -95q0 -48 27 -75.5t70 -27.5z" glyph-name="otilde" horiz-adv-x="578" unicode="õ"/><glyph d="M219 553q-29 0 -48 19t-19 49q0 34 26 59t60 25q29 0 48 -19t19 -48q0 -34 -26 -59.5t-60 -25.5zM448 553q-29 0 -48 19t-19 49q0 34 26 59t60 25q29 0 48 -19t19 -48q0 -34 -26 -59.5t-60 -25.5zM255 -12q-102 0 -164.5 62.5t-62.5 159.5q0 119 87 205.5t208 86.5 q102 0 164.5 -62.5t62.5 -159.5q0 -119 -87 -205.5t-208 -86.5zM274 128q52 0 89.5 36t37.5 95q0 48 -27 75.5t-70 27.5q-52 0 -89.5 -36t-37.5 -95q0 -48 27 -75.5t70 -27.5z" glyph-name="odieresis" horiz-adv-x="578" unicode="ö"/><glyph d="M287 393q-27 0 -46 19t-19 47q0 27 19 46.5t46 19.5q28 0 47 -19.5t19 -46.5q0 -28 -19 -47t-47 -19zM451 341q13 0 13 -15l-12 -81q-2 -15 -17 -15h-357q-15 0 -13 15l12 81q2 15 17 15h357zM238 45q-27 0 -46 19.5t-19 46.5t19 46.5t46 19.5q28 0 47 -19.5t19 -46.5 t-19 -46.5t-47 -19.5z" glyph-name="divide" horiz-adv-x="516" unicode="÷"/><glyph d="M456 465q45 -29 69.5 -77.5t24.5 -107.5q0 -119 -87 -205.5t-208 -86.5q-39 0 -70 9l-33 -56q-6 -11 -18 -11h-48q-8 0 -10.5 5t1.5 13l45 77q-94 62 -94 185q0 119 87 205.5t208 86.5q38 0 71 -9l32 54q6 11 18 11h48q18 0 8 -18zM177 231q0 -42 23 -72l118 202 q-5 1 -14 1q-52 0 -89.5 -36t-37.5 -95zM274 128q52 0 89.5 36t37.5 95q0 45 -23 71l-117 -201q4 -1 13 -1z" glyph-name="oslash" horiz-adv-x="578" unicode="ø"/><glyph d="M252 569l-60 114q-4 8 0 12.5t13 4.5h108q10 0 17 -12l61 -114q4 -8 0 -12.5t-13 -4.5h-108q-10 0 -18 12zM547 490q16 0 14 -15l-64 -460q-2 -15 -18 -15h-117q-16 0 -14 15l4 59q-60 -86 -155 -86q-78 0 -120 55t-29 148l40 284q2 15 17 15h122q16 0 14 -15l-35 -248 q-7 -48 12.5 -73t59.5 -25q38 0 63 25t31 73h1l35 248q2 15 17 15h122z" glyph-name="ugrave" unicode="ù"/><glyph d="M281 557q-8 0 -10.5 5.5t1.5 11.5l79 114q8 12 19 12h110q7 0 9.5 -5.5t-1.5 -11.5l-79 -114q-8 -12 -20 -12h-108zM547 490q16 0 14 -15l-64 -460q-2 -15 -18 -15h-117q-16 0 -14 15l4 59q-60 -86 -155 -86q-78 0 -120 55t-29 148l40 284q2 15 17 15h122q16 0 14 -15 l-35 -248q-7 -48 12.5 -73t59.5 -25q38 0 63 25t31 73h1l35 248q2 15 17 15h122z" glyph-name="uacute" unicode="ú"/><glyph d="M185 564q-9 0 -10 6t6 13l104 109q8 8 18 8h103q12 0 17 -8l74 -109q5 -7 2.5 -13t-12.5 -6h-81q-12 0 -17 8l-44 64l-58 -64q-9 -8 -20 -8h-82zM547 490q16 0 14 -15l-64 -460q-2 -15 -18 -15h-117q-16 0 -14 15l4 59q-60 -86 -155 -86q-78 0 -120 55t-29 148l40 284 q2 15 17 15h122q16 0 14 -15l-35 -248q-7 -48 12.5 -73t59.5 -25q38 0 63 25t31 73h1l35 248q2 15 17 15h122z" glyph-name="ucircumflex" unicode="û"/><glyph d="M222 553q-29 0 -48 19t-19 49q0 34 26 59t60 25q29 0 48 -19t19 -48q0 -34 -26 -59.5t-60 -25.5zM451 553q-29 0 -48 19t-19 49q0 34 26 59t60 25q29 0 48 -19t19 -48q0 -34 -26 -59.5t-60 -25.5zM547 490q16 0 14 -15l-64 -460q-2 -15 -18 -15h-117q-16 0 -14 15l4 59 q-60 -86 -155 -86q-78 0 -120 55t-29 148l40 284q2 15 17 15h122q16 0 14 -15l-35 -248q-7 -48 12.5 -73t59.5 -25q38 0 63 25t31 73h1l35 248q2 15 17 15h122z" glyph-name="udieresis" unicode="ü"/><glyph d="M478 700q7 0 9.5 -5.5t-1.5 -11.5l-79 -114q-8 -12 -20 -12h-108q-8 0 -10.5 5.5t1.5 11.5l79 114q8 12 19 12h110zM97 -190q-20 0 -11 18l94 173l-120 472q-6 17 14 17h124q15 0 18 -12l63 -302l154 302q6 12 20 12h123q20 0 11 -17l-352 -651q-6 -12 -20 -12h-118z" glyph-name="yacute" horiz-adv-x="581" unicode="ý"/><glyph d="M389 502q92 0 145 -60t53 -160q0 -122 -74.5 -208t-189.5 -86h-1h-1q-94 0 -138 65l-5 -38q0 -2 -1 -3l-26 -187q-2 -15 -18 -15h-123q-16 0 -14 15l92 650q0 2 1 3l31 222q2 15 17 15h123q16 0 14 -15l-36 -258q60 60 149 60h1h1zM209 235q-4 -49 23 -78.5t75 -29.5 q56 1 91.5 39.5t35.5 93.5q0 47 -26 74.5t-72 28.5q-46 -1 -80 -29.5t-44 -74.5z" glyph-name="thorn" horiz-adv-x="615" unicode="þ"/><glyph d="M220 553q-29 0 -48 19t-19 49q0 34 26 59t60 25q29 0 48 -19t19 -48q0 -34 -26 -59.5t-60 -25.5zM449 553q-29 0 -48 19t-19 49q0 34 26 59t60 25q29 0 48 -19t19 -48q0 -34 -26 -59.5t-60 -25.5zM97 -190q-20 0 -11 18l94 173l-120 472q-6 17 14 17h124q15 0 18 -12 l63 -302l154 302q6 12 20 12h123q20 0 11 -17l-352 -651q-6 -12 -20 -12h-118z" glyph-name="ydieresis" horiz-adv-x="581" unicode="ÿ"/><glyph d="M273 792q-16 0 -14 15l13 88q2 15 17 15h311q15 0 13 -15l-13 -88q-2 -15 -17 -15h-310zM637 17q3 -17 -14 -17h-134q-12 0 -15 12l-17 94h-250l-43 -94q-5 -12 -20 -12h-134q-18 0 -10 17l326 671q6 12 20 12h136q16 0 19 -12zM271 246h161l-46 253z" glyph-name="Amacron" horiz-adv-x="701" unicode="Ā"/><glyph d="M195 582q-16 0 -14 15l13 88q2 15 17 15h311q15 0 13 -15l-13 -88q-2 -15 -17 -15h-310zM576 490q17 0 14 -15l-64 -460q-3 -15 -19 -15h-110q-17 0 -14 15l4 49q-63 -76 -163 -76q-93 0 -144.5 59t-51.5 157q0 121 75.5 209.5t191.5 88.5q101 0 143 -74l9 47q3 15 18 15 h111zM276 127q51 0 87 32.5t43 86.5q7 52 -20 84.5t-77 32.5q-57 0 -93.5 -40t-36.5 -95q0 -46 26.5 -73.5t70.5 -27.5z" glyph-name="amacron" horiz-adv-x="613" unicode="ā"/><glyph d="M428 763q-71 0 -109.5 38t-36.5 94q0 15 16 15h60q13 0 15 -14q3 -19 19 -33t46 -14q53 0 74 47q5 14 19 14h62q15 0 12 -15q-9 -56 -57 -94t-120 -38zM637 17q3 -17 -14 -17h-134q-12 0 -15 12l-17 94h-250l-43 -94q-5 -12 -20 -12h-134q-18 0 -10 17l326 671 q6 12 20 12h136q16 0 19 -12zM271 246h161l-46 253z" glyph-name="Abreve" horiz-adv-x="701" unicode="Ă"/><glyph d="M350 553q-71 0 -109.5 38t-36.5 94q0 15 16 15h60q13 0 15 -14q3 -19 19 -33t46 -14q53 0 74 47q5 14 19 14h62q15 0 12 -15q-9 -56 -57 -94t-120 -38zM576 490q17 0 14 -15l-64 -460q-3 -15 -19 -15h-110q-17 0 -14 15l4 49q-63 -76 -163 -76q-93 0 -144.5 59t-51.5 157 q0 121 75.5 209.5t191.5 88.5q101 0 143 -74l9 47q3 15 18 15h111zM276 127q51 0 87 32.5t43 86.5q7 52 -20 84.5t-77 32.5q-57 0 -93.5 -40t-36.5 -95q0 -46 26.5 -73.5t70.5 -27.5z" glyph-name="abreve" horiz-adv-x="613" unicode="ă"/><glyph d="M637 17q3 -17 -14 -17h-7q-37 -1 -64.5 -22.5t-27.5 -49.5q0 -18 13 -27.5t42 -4.5l-13 -94q-23 -10 -52 -10.5t-56 8t-45 31.5t-18 56q0 71 80 123q-1 1 -1 2l-17 94h-250l-43 -94q-5 -12 -20 -12h-134q-18 0 -10 17l326 671q6 12 20 12h136q16 0 19 -12zM271 246h161 l-46 253z" glyph-name="Aogonek" horiz-adv-x="701" unicode="Ą"/><glyph d="M576 490q17 0 14 -15l-64 -460q-3 -15 -19 -15h-4q-37 -1 -64.5 -22.5t-27.5 -49.5q0 -18 13 -27.5t42 -4.5l-13 -94q-23 -10 -52 -10.5t-56 8t-45 31.5t-18 56q0 82 102 136l3 41q-63 -76 -163 -76q-93 0 -144.5 59t-51.5 157q0 121 75.5 209.5t191.5 88.5 q101 0 143 -74l9 47q3 15 18 15h111zM276 127q51 0 87 32.5t43 86.5q7 52 -20 84.5t-77 32.5q-57 0 -93.5 -40t-36.5 -95q0 -46 26.5 -73.5t70.5 -27.5z" glyph-name="aogonek" horiz-adv-x="613" unicode="ą"/><glyph d="M619 910q7 0 9.5 -5.5t-1.5 -11.5l-79 -114q-8 -12 -20 -12h-108q-8 0 -10.5 5.5t1.5 11.5l79 114q8 12 19 12h110zM374 -13q-139 0 -227.5 88t-88.5 227q0 164 119.5 285t288.5 121q150 0 235 -104q8 -9 -5 -21l-85 -84q-12 -12 -22 -2q-58 56 -139 56 q-96 0 -162.5 -66.5t-66.5 -162.5q0 -82 48.5 -132t126.5 -50q81 0 152 56q14 10 22 -1l67 -85q8 -12 -2 -21q-117 -104 -261 -104z" glyph-name="Cacute" horiz-adv-x="701" unicode="Ć"/><glyph d="M465 700q7 0 9.5 -5.5t-1.5 -11.5l-79 -114q-8 -12 -20 -12h-108q-8 0 -10.5 5.5t1.5 11.5l79 114q8 12 19 12h110zM258 -12q-102 0 -165 64t-63 164q0 117 83.5 201.5t201.5 84.5q122 0 183 -88q8 -13 -3 -22l-76 -67q-17 -14 -28 -1q-36 38 -86 38q-55 0 -91 -39 t-36 -92q0 -45 28 -74t78 -29t91 38q14 12 27 -2l54 -64q10 -12 -1 -23q-82 -89 -197 -89z" glyph-name="cacute" horiz-adv-x="513" unicode="ć"/><glyph d="M477 763q-29 0 -48 19t-19 49q0 34 26 59t60 25q29 0 48 -19t19 -48q0 -34 -26 -59.5t-60 -25.5zM374 -13q-139 0 -227.5 88t-88.5 227q0 164 119.5 285t288.5 121q150 0 235 -104q8 -9 -5 -21l-85 -84q-12 -12 -22 -2q-58 56 -139 56q-96 0 -162.5 -66.5t-66.5 -162.5 q0 -82 48.5 -132t126.5 -50q81 0 152 56q14 10 22 -1l67 -85q8 -12 -2 -21q-117 -104 -261 -104z" glyph-name="Cdotaccent" horiz-adv-x="701" unicode="Ċ"/><glyph d="M323 553q-29 0 -48 19t-19 49q0 34 26 59t60 25q29 0 48 -19t19 -48q0 -34 -26 -59.5t-60 -25.5zM258 -12q-102 0 -165 64t-63 164q0 117 83.5 201.5t201.5 84.5q122 0 183 -88q8 -13 -3 -22l-76 -67q-17 -14 -28 -1q-36 38 -86 38q-55 0 -91 -39t-36 -92q0 -45 28 -74 t78 -29t91 38q14 12 27 -2l54 -64q10 -12 -1 -23q-82 -89 -197 -89z" glyph-name="cdotaccent" horiz-adv-x="513" unicode="ċ"/><glyph d="M640 910q6 0 8.5 -3t1 -7.5t-5.5 -8.5l-103 -109q-8 -8 -18 -8h-104q-11 0 -16 8l-75 109q-5 6 -1.5 12.5t12.5 6.5h80q13 0 18 -8l43 -64l59 64q8 8 19 8h82zM374 -13q-139 0 -227.5 88t-88.5 227q0 164 119.5 285t288.5 121q150 0 235 -104q8 -9 -5 -21l-85 -84 q-12 -12 -22 -2q-58 56 -139 56q-96 0 -162.5 -66.5t-66.5 -162.5q0 -82 48.5 -132t126.5 -50q81 0 152 56q14 10 22 -1l67 -85q8 -12 -2 -21q-117 -104 -261 -104z" glyph-name="Ccaron" horiz-adv-x="701" unicode="Č"/><glyph d="M486 700q6 0 8.5 -3t1 -7.5t-5.5 -8.5l-103 -109q-8 -8 -18 -8h-104q-11 0 -16 8l-75 109q-5 6 -1.5 12.5t12.5 6.5h80q13 0 18 -8l43 -64l59 64q8 8 19 8h82zM258 -12q-102 0 -165 64t-63 164q0 117 83.5 201.5t201.5 84.5q122 0 183 -88q8 -13 -3 -22l-76 -67 q-17 -14 -28 -1q-36 38 -86 38q-55 0 -91 -39t-36 -92q0 -45 28 -74t78 -29t91 38q14 12 27 -2l54 -64q10 -12 -1 -23q-82 -89 -197 -89z" glyph-name="ccaron" horiz-adv-x="513" unicode="č"/><glyph d="M578 910q6 0 8.5 -3t1 -7.5t-5.5 -8.5l-103 -109q-8 -8 -18 -8h-104q-11 0 -16 8l-75 109q-5 6 -1.5 12.5t12.5 6.5h80q13 0 18 -8l43 -64l59 64q8 8 19 8h82zM47 0q-15 0 -13 15l93 670q3 15 18 15h217q151 0 231 -84t80 -221q0 -172 -115 -283.5t-294 -111.5h-217z M210 140h71q111 0 171 66.5t60 173.5q0 180 -170 180h-73z" glyph-name="Dcaron" horiz-adv-x="698" unicode="Ď"/><glyph d="M608 715q16 0 14 -15l-96 -685q-3 -15 -19 -15h-110q-17 0 -14 15l4 49q-63 -76 -163 -76q-93 0 -144.5 59t-51.5 157q0 121 75.5 209.5t191.5 88.5q97 0 139 -69l33 267q2 15 18 15h123zM893 687q7 0 9.5 -5.5t-1.5 -11.5l-79 -114q-8 -12 -19 -12h-109q-7 0 -10 5.5 t1 11.5l79 114q8 12 19 12h110zM276 127q51 0 87 32.5t43 86.5q7 52 -20 84.5t-77 32.5q-57 0 -93.5 -40t-36.5 -95q0 -46 26.5 -73.5t70.5 -27.5z" glyph-name="dcaron" horiz-adv-x="676" unicode="ď"/><glyph d="M370 700q151 0 231 -84t80 -221q0 -172 -115 -283.5t-294 -111.5h-217q-15 0 -13 15l38 269h-34q-15 0 -13 15l13 87q2 16 17 16h33l40 283q2 15 17 15h217zM289 140q111 0 171 66.5t60 173.5q0 180 -170 180h-73l-22 -158h119q15 0 13 -16l-13 -87q-2 -15 -17 -15h-119 l-20 -144h71z" glyph-name="Dcroat" horiz-adv-x="706" unicode="Đ"/><glyph d="M656 649q16 0 14 -15l-13 -88q-2 -15 -17 -15h-42l-72 -516q-3 -15 -19 -15h-110q-17 0 -14 15l4 49q-63 -76 -163 -76q-93 0 -144.5 59t-51.5 157q0 121 75.5 209.5t191.5 88.5q97 0 139 -69l12 98h-117q-15 0 -13 15l13 88q2 15 17 15h115l6 51q2 15 18 15h123 q16 0 14 -15l-7 -51h41zM276 127q51 0 87 32.5t43 86.5q7 52 -20 84.5t-77 32.5q-57 0 -93.5 -40t-36.5 -95q0 -46 26.5 -73.5t70.5 -27.5z" glyph-name="dcroat" horiz-adv-x="623" unicode="đ"/><glyph d="M522 910q15 0 13 -15l-13 -88q-2 -15 -17 -15h-310q-16 0 -14 15l13 88q2 15 17 15h311zM47 0q-15 0 -13 15l93 670q3 15 18 15h361q15 0 13 -15l-15 -110q-2 -15 -18 -15h-217l-20 -137h205q15 0 13 -15l-15 -110q-2 -15 -17 -15h-205l-20 -143h217q15 0 13 -15 l-16 -110q0 -15 -17 -15h-360z" glyph-name="Emacron" horiz-adv-x="512" unicode="Ē"/><glyph d="M172 582q-16 0 -14 15l13 88q2 15 17 15h311q15 0 13 -15l-13 -88q-2 -15 -17 -15h-310zM317 502q108 0 162.5 -68.5t40.5 -167.5q-12 -79 -63 -79h-281q12 -76 114 -76q55 0 100 23q15 7 25 -9l29 -48q11 -16 -3 -28q-72 -61 -177 -61t-170.5 62t-65.5 164 q0 117 84.5 202.5t204.5 85.5zM300 376q-87 0 -114 -83h202q-1 42 -24.5 62.5t-63.5 20.5z" glyph-name="emacron" horiz-adv-x="547" unicode="ē"/><glyph d="M349 763q-29 0 -48 19t-19 49q0 34 26 59t60 25q29 0 48 -19t19 -48q0 -34 -26 -59.5t-60 -25.5zM47 0q-15 0 -13 15l93 670q3 15 18 15h361q15 0 13 -15l-15 -110q-2 -15 -18 -15h-217l-20 -137h205q15 0 13 -15l-15 -110q-2 -15 -17 -15h-205l-20 -143h217q15 0 13 -15 l-16 -110q0 -15 -17 -15h-360z" glyph-name="Edotaccent" horiz-adv-x="512" unicode="Ė"/><glyph d="M326 553q-29 0 -48 19t-19 49q0 34 26 59t60 25q29 0 48 -19t19 -48q0 -34 -26 -59.5t-60 -25.5zM317 502q108 0 162.5 -68.5t40.5 -167.5q-12 -79 -63 -79h-281q12 -76 114 -76q55 0 100 23q15 7 25 -9l29 -48q11 -16 -3 -28q-72 -61 -177 -61t-170.5 62t-65.5 164 q0 117 84.5 202.5t204.5 85.5zM300 376q-87 0 -114 -83h202q-1 42 -24.5 62.5t-63.5 20.5z" glyph-name="edotaccent" horiz-adv-x="547" unicode="ė"/><glyph d="M506 700q15 0 13 -15l-15 -110q-2 -15 -18 -15h-217l-20 -137h205q15 0 13 -15l-15 -110q-2 -15 -17 -15h-205l-20 -143h217q15 0 13 -15l-16 -110q0 -6 -4 -10l-1 -5q-39 1 -67.5 -21t-28.5 -51q0 -18 13 -27.5t42 -4.5l-13 -94q-23 -10 -52 -10.5t-56 8t-45 31.5 t-18 56q0 63 65 113h-212q-15 0 -13 15l93 670q3 15 18 15h361z" glyph-name="Eogonek" horiz-adv-x="512" unicode="Ę"/><glyph d="M317 502q108 0 162.5 -68.5t40.5 -167.5q-12 -79 -63 -79h-281q12 -76 114 -76q55 0 100 23q15 7 25 -9l29 -48q11 -16 -3 -28q-37 -31 -82 -46q-1 0 -2.5 -0.5t-2.5 -1.5q-1 0 -2.5 -0.5t-2.5 -0.5q-90 -29 -90 -72q0 -42 56 -32l-14 -94q-23 -10 -52 -10.5t-55.5 8 t-44.5 31.5t-18 56q0 61 61 110q-76 20 -120 77.5t-44 139.5q0 117 84.5 202.5t204.5 85.5zM300 376q-87 0 -114 -83h202q-1 42 -24.5 62.5t-63.5 20.5z" glyph-name="eogonek" horiz-adv-x="547" unicode="ę"/><glyph d="M512 910q6 0 8.5 -3t1 -7.5t-5.5 -8.5l-103 -109q-8 -8 -18 -8h-104q-11 0 -16 8l-75 109q-5 6 -1.5 12.5t12.5 6.5h80q13 0 18 -8l43 -64l59 64q8 8 19 8h82zM47 0q-15 0 -13 15l93 670q3 15 18 15h361q15 0 13 -15l-15 -110q-2 -15 -18 -15h-217l-20 -137h205 q15 0 13 -15l-15 -110q-2 -15 -17 -15h-205l-20 -143h217q15 0 13 -15l-16 -110q0 -15 -17 -15h-360z" glyph-name="Ecaron" horiz-adv-x="512" unicode="Ě"/><glyph d="M252 572l-75 109q-5 6 -1.5 12.5t12.5 6.5h80q13 0 18 -8l43 -64l59 64q8 8 19 8h82q6 0 8.5 -3t1 -7.5t-5.5 -8.5l-103 -109q-8 -8 -18 -8h-104q-11 0 -16 8zM317 502q108 0 162.5 -68.5t40.5 -167.5q-12 -79 -63 -79h-281q12 -76 114 -76q55 0 100 23q15 7 25 -9 l29 -48q11 -16 -3 -28q-72 -61 -177 -61t-170.5 62t-65.5 164q0 117 84.5 202.5t204.5 85.5zM300 376q-87 0 -114 -83h202q-1 42 -24.5 62.5t-63.5 20.5z" glyph-name="ecaron" horiz-adv-x="547" unicode="ě"/><glyph d="M483 763q-71 0 -109.5 38t-36.5 94q0 15 16 15h60q13 0 15 -14q3 -19 19 -33t46 -14q53 0 74 47q5 14 19 14h62q15 0 12 -15q-9 -56 -57 -94t-120 -38zM741 406q15 0 13 -15l-11 -72q-19 -141 -120.5 -236.5t-248.5 -95.5q-139 0 -227.5 88t-88.5 227q0 164 119.5 285 t288.5 121q150 0 235 -104q8 -9 -5 -21l-85 -84q-12 -12 -22 -2q-58 56 -139 56q-96 0 -162.5 -66.5t-66.5 -162.5q0 -82 48 -132t127 -50q77 0 126.5 35t61.5 88h-166q-15 0 -13 16l15 109q2 16 17 16h304z" glyph-name="Gbreve" horiz-adv-x="769" unicode="Ğ"/><glyph d="M374 552q-71 0 -109.5 38t-36.5 94q0 15 16 15h60q13 0 15 -14q3 -19 19 -33t46 -14q53 0 74 47q5 14 19 14h62q15 0 12 -15q-9 -56 -57 -94t-120 -38zM568 490q16 0 14 -15l-63 -446q-9 -65 -39 -112.5t-72.5 -73t-87 -37t-92.5 -11.5q-119 0 -188 57q-15 13 -4 31 l40 62q13 18 28 9q61 -35 123 -35q56 0 97.5 26t49.5 84l6 47q-57 -65 -155 -65q-91 0 -143 55t-52 150q0 120 75.5 203t189.5 83q95 0 137 -64l7 37q5 15 18 15h111zM275 148q49 0 84 30t41 79q7 49 -19.5 78.5t-74.5 29.5q-56 0 -91 -37.5t-35 -88.5q0 -42 26 -66.5 t69 -24.5z" glyph-name="gbreve" horiz-adv-x="613" unicode="ğ"/><glyph d="M482 763q-29 0 -48 19t-19 49q0 34 26 59t60 25q29 0 48 -19t19 -48q0 -34 -26 -59.5t-60 -25.5zM741 406q15 0 13 -15l-11 -72q-19 -141 -120.5 -236.5t-248.5 -95.5q-139 0 -227.5 88t-88.5 227q0 164 119.5 285t288.5 121q150 0 235 -104q8 -9 -5 -21l-85 -84 q-12 -12 -22 -2q-58 56 -139 56q-96 0 -162.5 -66.5t-66.5 -162.5q0 -82 48 -132t127 -50q77 0 126.5 35t61.5 88h-166q-15 0 -13 16l15 109q2 16 17 16h304z" glyph-name="Gdotaccent" horiz-adv-x="769" unicode="Ġ"/><glyph d="M373 553q-29 0 -47.5 19t-18.5 49q0 34 25.5 59t60.5 25q29 0 47.5 -19t18.5 -48q0 -34 -25.5 -59.5t-60.5 -25.5zM568 490q16 0 14 -15l-63 -446q-9 -65 -39 -112.5t-72.5 -73t-87 -37t-92.5 -11.5q-119 0 -188 57q-15 13 -4 31l40 62q13 18 28 9q61 -35 123 -35 q56 0 97.5 26t49.5 84l6 47q-57 -65 -155 -65q-91 0 -143 55t-52 150q0 120 75.5 203t189.5 83q95 0 137 -64l7 37q5 15 18 15h111zM275 148q49 0 84 30t41 79q7 49 -19.5 78.5t-74.5 29.5q-56 0 -91 -37.5t-35 -88.5q0 -42 26 -66.5t69 -24.5z" glyph-name="gdotaccent" horiz-adv-x="613" unicode="ġ"/><glyph d="M741 406q15 0 13 -15l-11 -72q-19 -141 -120.5 -236.5t-248.5 -95.5q-139 0 -227.5 88t-88.5 227q0 164 119.5 285t288.5 121q150 0 235 -104q8 -9 -5 -21l-85 -84q-12 -12 -22 -2q-58 56 -139 56q-96 0 -162.5 -66.5t-66.5 -162.5q0 -82 48 -132t127 -50q77 0 126.5 35 t61.5 88h-166q-15 0 -13 16l15 109q2 16 17 16h304zM350 -22q37 0 62 -25t25 -72q0 -81 -67.5 -143t-145.5 -57l6 34q51 -1 88 44q24 29 14 39q-3 3 -8 3q-32 0 -54 22.5t-22 55.5q0 40 29.5 69.5t72.5 29.5z" glyph-name="Gcommaaccent" horiz-adv-x="769" unicode="Ģ"/><glyph d="M333 531q-37 0 -62.5 25t-25.5 73q0 81 68 142.5t146 56.5l-6 -34q-51 1 -89 -44q-24 -29 -13 -39q3 -3 8 -3q32 0 54 -22t22 -56q0 -39 -29.5 -69t-72.5 -30zM568 490q16 0 14 -15l-63 -446q-9 -65 -39 -112.5t-72.5 -73t-87 -37t-92.5 -11.5q-119 0 -188 57 q-15 13 -4 31l40 62q13 18 28 9q61 -35 123 -35q56 0 97.5 26t49.5 84l6 47q-57 -65 -155 -65q-91 0 -143 55t-52 150q0 120 75.5 203t189.5 83q95 0 137 -64l7 37q5 15 18 15h111zM275 148q49 0 84 30t41 79q7 49 -19.5 78.5t-74.5 29.5q-56 0 -91 -37.5t-35 -88.5 q0 -42 26 -66.5t69 -24.5z" glyph-name="gcommaaccent" horiz-adv-x="605" unicode="ģ"/><glyph d="M671 700q16 0 14 -15l-94 -670q-2 -15 -18 -15h-128q-15 0 -13 15l36 258h-240l-36 -258q-2 -15 -17 -15h-128q-15 0 -13 15l93 670q3 15 18 15h128q15 0 13 -15l-13 -91h240l13 91q2 15 17 15h128zM248 413h240l7 54h-240z" glyph-name="Hbar" horiz-adv-x="688" unicode="Ħ"/><glyph d="M400 502q78 0 120 -55t29 -148l-40 -284q-2 -15 -18 -15h-122q-15 0 -13 15l35 248q7 48 -12.5 73.5t-59.5 25.5q-39 0 -64 -25.5t-31 -73.5l-35 -248q-2 -15 -18 -15h-121q-16 0 -14 15l70 502h-28q-16 0 -14 15l13 88q2 15 17 15h28l9 65q2 15 18 15h121q16 0 14 -15 l-9 -65h130q15 0 13 -15l-13 -88q-2 -15 -17 -15h-129l-14 -99q60 84 155 84z" glyph-name="hbar" horiz-adv-x="596" unicode="ħ"/><glyph d="M393 910q15 0 13 -15l-13 -88q-2 -15 -17 -15h-310q-16 0 -14 15l13 88q2 15 17 15h311zM47 0q-15 0 -13 15l93 670q3 15 18 15h128q15 0 13 -15l-94 -670q-2 -15 -17 -15h-128z" glyph-name="Imacron" horiz-adv-x="290" unicode="Ī"/><glyph d="M350 700q15 0 13 -15l-13 -88q-2 -15 -17 -15h-310q-16 0 -14 15l13 88q2 15 17 15h311zM35 0q-15 0 -13 15l64 460q2 15 17 15h123q16 0 14 -15l-64 -460q-2 -15 -18 -15h-123z" glyph-name="imacron" horiz-adv-x="261" unicode="ī"/><glyph d="M273 700q15 0 13 -15l-94 -670q-2 -15 -17 -15h-7q-37 -1 -64.5 -22.5t-27.5 -49.5q0 -18 13 -27.5t42 -4.5l-13 -94q-23 -10 -52 -10.5t-56 8t-45 31.5t-18 56q0 75 87 128l93 670q3 15 18 15h128z" glyph-name="Iogonek" horiz-adv-x="290" unicode="Į"/><glyph d="M178 553q-29 0 -48 19t-19 49q0 34 26 59t60 25q29 0 48 -19t19 -48q0 -34 -26 -59.5t-60 -25.5zM226 490q16 0 14 -15l-64 -460q-2 -15 -17 -15h-1h-3q-37 -1 -64.5 -22.5t-27.5 -49.5q0 -18 13 -27.5t42 -4.5l-13 -94q-23 -10 -52 -10.5t-56 8t-45 31.5t-18 56 q0 75 88 128l64 460q2 15 17 15h123z" glyph-name="iogonek" horiz-adv-x="261" unicode="į"/><glyph d="M221 763q-29 0 -48 19t-19 49q0 34 26 59t60 25q29 0 48 -19t19 -48q0 -34 -26 -59.5t-60 -25.5zM47 0q-15 0 -13 15l93 670q3 15 18 15h128q15 0 13 -15l-94 -670q-2 -15 -17 -15h-128z" glyph-name="Idotaccent" horiz-adv-x="290" unicode="İ"/><glyph d="M35 0q-15 0 -13 15l64 460q2 15 17 15h123q16 0 14 -15l-64 -460q-2 -15 -18 -15h-123z" glyph-name="dotlessi" horiz-adv-x="261" unicode="ı"/><glyph d="M492 -12q-62 0 -110 23t-70 55q-8 12 3 27l72 87q4 5 10.5 5.5t11.5 -4.5q1 -1 5 -4.5t5.5 -4.5t6.5 -4.5t7.5 -5t8 -4.5t9.5 -4.5t10.5 -3.5t12 -3t13 -2t14.5 -1q103 0 119 124l58 418q2 15 18 15h128q15 0 13 -15l-59 -431q-18 -130 -95.5 -198.5t-190.5 -68.5zM47 0 q-15 0 -13 15l93 670q3 15 18 15h128q15 0 13 -15l-94 -670q-2 -15 -17 -15h-128z" glyph-name="IJ" horiz-adv-x="841" unicode="Ĳ"/><glyph d="M193 568q-36 0 -60 24.5t-24 59.5t24 59t60 24q35 0 58.5 -24t23.5 -59t-23.5 -59.5t-58.5 -24.5zM467 568q-36 0 -59.5 24t-23.5 60q0 35 23.5 59t59.5 24q35 0 58.5 -24t23.5 -59t-23.5 -59.5t-58.5 -24.5zM41 0q-17 0 -14 15l64 460q3 15 18 15h123q17 0 14 -15 l-64 -460q-3 -15 -18 -15h-123zM250 -200q-50 0 -79 17q-9 4 -7 16l13 101q1 9 15 7q30 -6 42 -6q56 0 65 57l67 483q2 15 18 15h123q16 0 14 -15l-71 -503q-24 -172 -200 -172z" glyph-name="ij" horiz-adv-x="544" unicode="ĳ"/><glyph d="M680 700q6 0 8.5 -2.5t1.5 -6.5t-5 -9l-271 -292l206 -372q4 -8 1.5 -13t-10.5 -5h-149q-11 0 -16 9l-143 260l-89 -95l-22 -159q-2 -15 -17 -15h-128q-15 0 -13 15l93 670q3 15 18 15h128q15 0 13 -15l-40 -284l259 291q8 8 18 8h157zM354 -22q37 0 62 -25t25 -72 q0 -81 -67.5 -143t-146.5 -57l6 34q51 -1 89 43q25 30 14 40q-3 3 -8 3q-33 0 -55 22.5t-22 55.5q0 40 30 69.5t73 29.5z" glyph-name="Kcommaaccent" horiz-adv-x="676" unicode="Ķ"/><glyph d="M545 490q10 0 12.5 -6t-5.5 -13l-190 -188l152 -264q4 -8 1 -13.5t-12 -5.5h-132q-12 0 -17 9l-99 168l-63 -63l-14 -99q-2 -15 -18 -15h-123q-14 0 -14 15l97 685q2 15 17 15h123q16 0 14 -15l-55 -393l169 175q8 8 19 8h138zM256 -22q37 0 62 -25t25 -72 q0 -81 -67.5 -143t-145.5 -57l6 34q51 -1 88 44q24 29 14 39q-3 3 -8 3q-32 0 -54 22.5t-22 55.5q0 40 29.5 69.5t72.5 29.5z" glyph-name="kcommaaccent" horiz-adv-x="569" unicode="ķ"/><glyph d="M154 735q-8 0 -10.5 5.5t1.5 11.5l79 114q8 12 19 12h110q7 0 9 -5.5t-2 -11.5l-79 -114q-8 -12 -19 -12h-108zM413 140q15 0 13 -15l-15 -110q-2 -15 -17 -15h-347q-15 0 -13 15l93 670q3 15 18 15h128q15 0 13 -15l-76 -545h203z" glyph-name="Lacute" horiz-adv-x="505" unicode="Ĺ"/><glyph d="M352 926q7 0 9.5 -5.5t-1.5 -11.5l-79 -114q-8 -12 -20 -12h-108q-8 0 -10.5 5.5t1.5 11.5l79 114q8 12 19 12h110zM37 0q-16 0 -14 15l97 685q2 15 17 15h123q16 0 14 -15l-96 -685q-3 -15 -18 -15h-123z" glyph-name="lacute" horiz-adv-x="265" unicode="ĺ"/><glyph d="M413 140q15 0 13 -15l-15 -110q-2 -15 -17 -15h-347q-15 0 -13 15l93 670q3 15 18 15h128q15 0 13 -15l-76 -545h203zM207 -22q37 0 62 -25t25 -72q0 -81 -67.5 -143t-145.5 -57l6 34q51 -1 88 44q24 29 14 39q-3 3 -8 3q-32 0 -54 22.5t-22 55.5q0 40 29.5 69.5 t72.5 29.5z" glyph-name="Lcommaaccent" horiz-adv-x="479" unicode="Ļ"/><glyph d="M37 0q-16 0 -14 15l97 685q2 15 17 15h123q16 0 14 -15l-96 -685q-3 -15 -18 -15h-123zM-34 -319l6 34q51 -1 88 44q24 29 14 39q-3 3 -8 3q-32 0 -54 22.5t-22 55.5q0 40 29.5 69.5t72.5 29.5q37 0 62 -25t25 -72q0 -81 -67.5 -143t-145.5 -57z" glyph-name="lcommaaccent" horiz-adv-x="265" unicode="ļ"/><glyph d="M446 710q36 0 61.5 -25t25.5 -73q0 -81 -68 -142.5t-146 -56.5l7 34q51 -1 88 43q25 30 13 40q-2 2 -7 2q-33 0 -55 22.5t-22 56.5q0 39 30 69t73 30zM413 140q15 0 13 -15l-15 -110q-2 -15 -17 -15h-347q-15 0 -13 15l93 670q3 15 18 15h128q15 0 13 -15l-76 -545h203z " glyph-name="Lcaron" horiz-adv-x="498" unicode="Ľ"/><glyph d="M281 453l6 34q51 -1 88 43q25 30 13 40q-2 2 -7 2q-32 0 -54 22.5t-22 56.5q0 39 29.5 69t72.5 30q37 0 62 -25t25 -73q0 -80 -67.5 -142t-145.5 -57zM37 0q-16 0 -14 15l97 685q2 15 17 15h123q16 0 14 -15l-96 -685q-3 -15 -18 -15h-123z" glyph-name="lcaron" horiz-adv-x="452" unicode="ľ"/><glyph d="M413 140q15 0 13 -15l-15 -110q-2 -15 -17 -15h-347q-15 0 -13 15l93 670q3 15 18 15h128q15 0 13 -15l-76 -545h203zM431 464q37 0 63 -26.5t26 -64.5q0 -37 -26 -63t-63 -26t-63 26t-26 63q0 38 26 64.5t63 26.5z" glyph-name="Ldot" horiz-adv-x="521" unicode="Ŀ"/><glyph d="M37 0q-16 0 -14 15l97 685q2 15 17 15h123q16 0 14 -15l-96 -685q-3 -15 -18 -15h-123zM366 282q-37 0 -63 26t-26 63q0 38 26 64.5t63 26.5t63.5 -26.5t26.5 -64.5q0 -37 -26.5 -63t-63.5 -26z" glyph-name="ldot" horiz-adv-x="299" unicode="ŀ"/><glyph d="M436 140q15 0 13 -15l-16 -110q0 -15 -16 -15h-348q-15 0 -13 15l25 176l-33 -32q-8 -7 -13 -4.5t-5 12.5v101q0 11 8 19l65 64l47 334q2 15 17 15h128q16 0 14 -15l-22 -154l50 49q7 7 12.5 4.5t5.5 -12.5v-100q0 -11 -8 -19l-82 -80l-32 -233h203z" glyph-name="Lslash" horiz-adv-x="501" unicode="Ł"/><glyph d="M314 559l-14 -94l-80 -78l-52 -372q-3 -15 -18 -15h-123q-16 0 -14 15l28 197l-59 -58l13 95l59 58l56 393q2 15 17 15h123q16 0 14 -15l-31 -219z" glyph-name="lslash" horiz-adv-x="264" unicode="ł"/><glyph d="M369 767q-8 0 -10.5 5.5t1.5 11.5l79 114q8 12 19 12h110q7 0 9.5 -5.5t-1.5 -11.5l-79 -114q-8 -12 -20 -12h-108zM687 700q15 0 13 -15l-94 -670q-2 -15 -17 -15h-150q-13 0 -17 10l-169 440l-61 -435q-2 -15 -17 -15h-128q-15 0 -13 15l93 670q3 15 18 15h147 q13 0 17 -10l171 -446l62 441q2 15 17 15h128z" glyph-name="Nacute" horiz-adv-x="704" unicode="Ń"/><glyph d="M283 557q-8 0 -10.5 5.5t1.5 11.5l79 114q8 12 19 12h110q7 0 9.5 -5.5t-1.5 -11.5l-79 -114q-8 -12 -20 -12h-108zM387 502q79 0 120.5 -54.5t28.5 -148.5l-40 -284q-2 -15 -17 -15h-122q-16 0 -14 15l35 248q7 48 -12 73.5t-60 25.5q-38 0 -63 -25.5t-31 -73.5 l-35 -248q-2 -15 -18 -15h-122q-14 0 -14 15l65 460q2 15 17 15h117q16 0 14 -15l-3 -57q60 84 154 84z" glyph-name="nacute" unicode="ń"/><glyph d="M687 700q15 0 13 -15l-94 -670q-2 -15 -17 -15h-150q-13 0 -17 10l-169 440l-61 -435q-2 -15 -17 -15h-128q-15 0 -13 15l93 670q3 15 18 15h147q13 0 17 -10l171 -446l62 441q2 15 17 15h128zM310 -22q37 0 62 -25t25 -72q0 -81 -67.5 -143t-145.5 -57l6 34q51 -1 88 44 q24 29 14 39q-3 3 -8 3q-32 0 -54 22.5t-22 55.5q0 40 29.5 69.5t72.5 29.5z" glyph-name="Ncommaaccent" horiz-adv-x="704" unicode="Ņ"/><glyph d="M387 502q79 0 120.5 -54.5t28.5 -148.5l-40 -284q-2 -15 -17 -15h-122q-16 0 -14 15l35 248q7 48 -12 73.5t-60 25.5q-38 0 -63 -25.5t-31 -73.5l-35 -248q-2 -15 -18 -15h-122q-14 0 -14 15l65 460q2 15 17 15h117q16 0 14 -15l-3 -57q60 84 154 84zM254 -22 q37 0 62 -25t25 -72q0 -81 -67.5 -143t-145.5 -57l6 34q51 -1 88 44q24 29 14 39q-3 3 -8 3q-32 0 -54 22.5t-22 55.5q0 40 29.5 69.5t72.5 29.5z" glyph-name="ncommaaccent" unicode="ņ"/><glyph d="M352 782l-75 109q-5 6 -1.5 12.5t12.5 6.5h80q13 0 18 -8l43 -64l59 64q8 8 19 8h82q6 0 8.5 -3t1 -7.5t-5.5 -8.5l-103 -109q-8 -8 -18 -8h-104q-11 0 -16 8zM687 700q15 0 13 -15l-94 -670q-2 -15 -17 -15h-150q-13 0 -17 10l-169 440l-61 -435q-2 -15 -17 -15h-128 q-15 0 -13 15l93 670q3 15 18 15h147q13 0 17 -10l171 -446l62 441q2 15 17 15h128z" glyph-name="Ncaron" horiz-adv-x="704" unicode="Ň"/><glyph d="M266 572l-75 109q-5 6 -1.5 12.5t12.5 6.5h80q13 0 18 -8l43 -64l59 64q8 8 19 8h82q6 0 8.5 -3t1 -7.5t-5.5 -8.5l-103 -109q-8 -8 -18 -8h-104q-11 0 -16 8zM387 502q79 0 120.5 -54.5t28.5 -148.5l-40 -284q-2 -15 -17 -15h-122q-16 0 -14 15l35 248q7 48 -12 73.5 t-60 25.5q-38 0 -63 -25.5t-31 -73.5l-35 -248q-2 -15 -18 -15h-122q-14 0 -14 15l65 460q2 15 17 15h117q16 0 14 -15l-3 -57q60 84 154 84z" glyph-name="ncaron" unicode="ň"/><glyph d="M687 700q15 0 13 -15l-35 -249v-1l-59 -431q-18 -130 -95 -198.5t-190 -68.5q-63 0 -110.5 22.5t-69.5 55.5q-9 14 3 26l72 88q4 5 10.5 5.5t11.5 -4.5q43 -37 91 -37q95 0 116 107h-6q-13 0 -17 10l-169 440l-61 -435q-2 -15 -17 -15h-128q-15 0 -13 15l93 670 q3 15 18 15h147q13 0 17 -10l171 -446l15 103l47 338q2 15 17 15h128z" glyph-name="Eng" horiz-adv-x="705" unicode="Ŋ"/><glyph d="M387 502q79 0 120.5 -54.5t28.5 -148.5l-40 -284q0 -2 -1 -3v-3q-12 -101 -78.5 -154t-164.5 -53q-9 0 -11 8l-22 122q-1 4 2 7.5t7 3.5q39 0 73 23t45 68l32 229q7 48 -12 73.5t-60 25.5q-38 0 -63 -25.5t-31 -73.5l-35 -248q-2 -15 -18 -15h-122q-14 0 -14 15l65 460 q2 15 17 15h117q16 0 14 -15l-3 -57q60 84 154 84z" glyph-name="eng" unicode="ŋ"/><glyph d="M656 910q15 0 13 -15l-13 -88q-2 -15 -17 -15h-310q-16 0 -14 15l13 88q2 15 17 15h311zM373 -13q-138 0 -227.5 88t-89.5 223q0 165 123 287.5t291 122.5q138 0 227 -88t89 -223q0 -166 -122.5 -288t-290.5 -122zM394 142q96 0 163 68.5t67 165.5q0 79 -48.5 128 t-125.5 49q-96 0 -163 -68t-67 -165q0 -79 48.5 -128.5t125.5 -49.5z" glyph-name="Omacron" horiz-adv-x="813" unicode="Ō"/><glyph d="M508 700q15 0 13 -15l-13 -88q-2 -15 -17 -15h-310q-16 0 -14 15l13 88q2 15 17 15h311zM255 -12q-102 0 -164.5 62.5t-62.5 159.5q0 119 87 205.5t208 86.5q102 0 164.5 -62.5t62.5 -159.5q0 -119 -87 -205.5t-208 -86.5zM274 128q52 0 89.5 36t37.5 95q0 48 -27 75.5 t-70 27.5q-52 0 -89.5 -36t-37.5 -95q0 -48 27 -75.5t70 -27.5z" glyph-name="omacron" horiz-adv-x="578" unicode="ō"/><glyph d="M536 910q7 0 9.5 -5.5t-1.5 -11.5l-79 -114q-8 -12 -20 -12h-108q-8 0 -10.5 5.5t1.5 11.5l79 114q8 12 19 12h110zM736 910q7 0 9.5 -5.5t-1.5 -11.5l-79 -114q-8 -12 -20 -12h-108q-8 0 -10.5 5.5t1.5 11.5l79 114q8 12 19 12h110zM373 -13q-138 0 -227.5 88t-89.5 223 q0 165 123 287.5t291 122.5q138 0 227 -88t89 -223q0 -166 -122.5 -288t-290.5 -122zM394 142q96 0 163 68.5t67 165.5q0 79 -48.5 128t-125.5 49q-96 0 -163 -68t-67 -165q0 -79 48.5 -128.5t125.5 -49.5z" glyph-name="Ohungarumlaut" horiz-adv-x="813" unicode="Ő"/><glyph d="M388 700q7 0 9.5 -5.5t-1.5 -11.5l-79 -114q-8 -12 -20 -12h-108q-8 0 -10.5 5.5t1.5 11.5l79 114q8 12 19 12h110zM588 700q7 0 9.5 -5.5t-1.5 -11.5l-79 -114q-8 -12 -20 -12h-108q-8 0 -10.5 5.5t1.5 11.5l79 114q8 12 19 12h110zM255 -12q-102 0 -164.5 62.5 t-62.5 159.5q0 119 87 205.5t208 86.5q102 0 164.5 -62.5t62.5 -159.5q0 -119 -87 -205.5t-208 -86.5zM274 128q52 0 89.5 36t37.5 95q0 48 -27 75.5t-70 27.5q-52 0 -89.5 -36t-37.5 -95q0 -48 27 -75.5t70 -27.5z" glyph-name="ohungarumlaut" horiz-adv-x="578" unicode="ő"/><glyph d="M1049 700q15 0 13 -15l-15 -110q-2 -15 -17 -15h-218l-20 -137h205q15 0 13 -15l-15 -110q-2 -15 -17 -15h-205l-20 -143h217q15 0 13 -15l-15 -110q-2 -15 -17 -15h-361q-15 0 -13 15l4 30q-96 -58 -208 -58q-138 0 -227.5 88t-89.5 223q0 165 123 287.5t291 122.5 q113 0 196 -61l5 38q2 15 17 15h361zM394 142q96 0 163 68.5t67 165.5q0 79 -48.5 128t-125.5 49q-96 0 -163 -68t-67 -165q0 -79 48.5 -128.5t125.5 -49.5z" glyph-name="OE" horiz-adv-x="1055" unicode="Œ"/><glyph d="M688 502q108 0 162.5 -68.5t40.5 -167.5q-12 -79 -63 -79h-281q13 -76 114 -76q55 0 101 23q14 7 24 -9l29 -48q11 -16 -3 -28q-70 -61 -176 -61q-119 0 -184 76q-86 -76 -197 -76q-102 0 -164.5 62.5t-62.5 159.5q0 119 87 205.5t208 86.5q111 0 174 -73q81 73 191 73z M671 376q-87 0 -114 -83h202q-1 42 -24.5 62.5t-63.5 20.5zM274 128q52 0 89.5 36t37.5 95q0 48 -27 75.5t-70 27.5q-52 0 -89.5 -36t-37.5 -95q0 -48 27 -75.5t70 -27.5z" glyph-name="oe" horiz-adv-x="919" unicode="œ"/><glyph d="M309 767q-8 0 -10.5 5.5t1.5 11.5l79 114q8 12 19 12h110q7 0 9.5 -5.5t-1.5 -11.5l-79 -114q-8 -12 -20 -12h-108zM415 261l121 -243q4 -8 0.5 -13t-12.5 -5h-137q-13 0 -17 10l-111 231h-36l-31 -226q-2 -15 -17 -15h-128q-15 0 -13 15l93 670q3 15 18 15h215 q110 0 165 -52t55 -145q0 -87 -43.5 -150.5t-121.5 -91.5zM269 560l-25 -179h67q56 0 86.5 27t30.5 74q0 78 -92 78h-67z" glyph-name="Racute" horiz-adv-x="606" unicode="Ŕ"/><glyph d="M400 700q7 0 9.5 -5.5t-1.5 -11.5l-79 -114q-8 -12 -20 -12h-108q-8 0 -10.5 5.5t1.5 11.5l79 114q8 12 19 12h110zM392 489q9 -7 7 -21l-14 -96q-3 -19 -24 -13q-17 5 -39 5q-89 0 -110 -98l-34 -251q-2 -15 -18 -15h-123q-14 0 -14 15l65 460q2 15 17 15h117 q16 0 14 -15l-4 -65q41 92 115 92q32 0 45 -13z" glyph-name="racute" horiz-adv-x="394" unicode="ŕ"/><glyph d="M415 261l121 -243q4 -8 0.5 -13t-12.5 -5h-137q-13 0 -17 10l-111 231h-36l-31 -226q-2 -15 -17 -15h-128q-15 0 -13 15l93 670q3 15 18 15h215q110 0 165 -52t55 -145q0 -87 -43.5 -150.5t-121.5 -91.5zM269 560l-25 -179h67q56 0 86.5 27t30.5 74q0 78 -92 78h-67z M250 -22q37 0 62 -25t25 -72q0 -81 -67.5 -143t-145.5 -57l6 34q51 -1 88 44q24 29 14 39q-3 3 -8 3q-32 0 -54 22.5t-22 55.5q0 40 29.5 69.5t72.5 29.5z" glyph-name="Rcommaaccent" horiz-adv-x="606" unicode="Ŗ"/><glyph d="M392 489q9 -7 7 -21l-14 -96q-3 -19 -24 -13q-17 5 -39 5q-89 0 -110 -98l-34 -251q-2 -15 -18 -15h-123q-14 0 -14 15l65 460q2 15 17 15h117q16 0 14 -15l-4 -65q41 92 115 92q32 0 45 -13zM91 -22q37 0 62 -25t25 -72q0 -81 -67.5 -143t-145.5 -57l6 34q51 -1 88 44 q24 29 14 39q-3 3 -8 3q-32 0 -54 22.5t-22 55.5q0 40 29.5 69.5t72.5 29.5z" glyph-name="rcommaaccent" horiz-adv-x="394" unicode="ŗ"/><glyph d="M292 782l-75 109q-5 6 -1.5 12.5t12.5 6.5h80q13 0 18 -8l43 -64l59 64q8 8 19 8h82q6 0 8.5 -3t1 -7.5t-5.5 -8.5l-103 -109q-8 -8 -18 -8h-104q-11 0 -16 8zM415 261l121 -243q4 -8 0.5 -13t-12.5 -5h-137q-13 0 -17 10l-111 231h-36l-31 -226q-2 -15 -17 -15h-128 q-15 0 -13 15l93 670q3 15 18 15h215q110 0 165 -52t55 -145q0 -87 -43.5 -150.5t-121.5 -91.5zM269 560l-25 -179h67q56 0 86.5 27t30.5 74q0 78 -92 78h-67z" glyph-name="Rcaron" horiz-adv-x="606" unicode="Ř"/><glyph d="M420 700q6 0 8.5 -3t1 -7.5t-5.5 -8.5l-103 -109q-8 -8 -18 -8h-104q-11 0 -16 8l-75 109q-5 6 -1.5 12.5t12.5 6.5h80q13 0 18 -8l43 -64l59 64q8 8 19 8h82zM392 489q9 -7 7 -21l-14 -96q-3 -19 -24 -13q-17 5 -39 5q-89 0 -110 -98l-34 -251q-2 -15 -18 -15h-123 q-14 0 -14 15l65 460q2 15 17 15h117q16 0 14 -15l-4 -65q41 92 115 92q32 0 45 -13z" glyph-name="rcaron" horiz-adv-x="394" unicode="ř"/><glyph d="M488 910q7 0 9.5 -5.5t-1.5 -11.5l-79 -114q-8 -12 -20 -12h-108q-8 0 -10.5 5.5t1.5 11.5l79 114q8 12 19 12h110zM254 -12q-79 0 -140 32.5t-89 78.5q-6 11 5 22l79 77q12 13 23 2q61 -67 131 -67q41 0 67 18t26 52q0 12 -4 21.5t-6.5 14.5t-15 13.5t-16 10.5t-22.5 12 l-72 36q-125 63 -125 176q0 96 70 158.5t176 62.5q125 0 200 -92q12 -12 -3 -27l-75 -77q-11 -11 -23 -4q-57 55 -114 55q-37 0 -57 -16.5t-20 -44.5q0 -23 15.5 -37t59.5 -36l57 -29q24 -13 39 -22t34.5 -25t30.5 -33t19 -42.5t8 -55.5q0 -105 -73.5 -169.5t-184.5 -64.5z " glyph-name="Sacute" horiz-adv-x="560" unicode="Ś"/><glyph d="M418 700q7 0 9.5 -5.5t-1.5 -11.5l-79 -114q-8 -12 -20 -12h-108q-8 0 -10.5 5.5t1.5 11.5l79 114q8 12 19 12h110zM196 -12q-59 0 -106.5 23t-73.5 60q-7 10 5 27l49 58q12 16 28 5q57 -46 102 -46q50 0 50 35q0 27 -39 42l-59 26q-89 37 -89 119q0 70 56.5 117.5 t137.5 47.5q49 0 92.5 -20.5t69.5 -56.5q7 -11 -5 -23l-61 -60q-10 -9 -23 1q-37 40 -75 40q-23 0 -34.5 -10.5t-11.5 -25.5q0 -24 35 -38l69 -29q90 -39 90 -122q0 -75 -60 -122.5t-147 -47.5z" glyph-name="sacute" horiz-adv-x="452" unicode="ś"/><glyph d="M326 563q-37 0 -57 -16.5t-20 -44.5q0 -23 15.5 -37t59.5 -36l57 -29q24 -13 39 -22t34.5 -25t30.5 -33t19 -42.5t8 -55.5q0 -100 -67 -163.5t-171 -69.5l-26 -21q33 -3 55.5 -23.5t22.5 -57.5q0 -60 -60.5 -89.5t-137.5 -16.5q-10 2 -9 14l7 50q2 13 15 10q82 -8 82 21 q0 15 -21.5 20.5t-55.5 -5.5q-6 -3 -9 -0.5t-2 7.5l8 56q1 8 6 12l37 29q-112 25 -161 104q-6 11 5 22l79 77q12 13 23 2q61 -67 131 -67q41 0 67 18t26 52q0 12 -4 21.5t-6.5 14.5t-15 13.5t-16 10.5t-22.5 12l-72 36q-125 63 -125 176q0 96 70 158.5t176 62.5 q125 0 200 -92q12 -12 -3 -27l-75 -77q-11 -11 -23 -4q-57 55 -114 55z" glyph-name="Scedilla" horiz-adv-x="560" unicode="Ş"/><glyph d="M255 383q-23 0 -34.5 -10.5t-11.5 -25.5q0 -24 35 -38l69 -29q90 -39 90 -122q0 -65 -46.5 -110t-118.5 -57l-30 -23q33 -3 55.5 -23.5t22.5 -57.5q0 -60 -60.5 -89.5t-137.5 -16.5q-10 2 -9 14l7 50q2 13 15 10q82 -8 82 21q0 15 -21.5 20.5t-55.5 -5.5q-6 -3 -9 -0.5 t-2 7.5l8 56q1 8 6 12l34 27q-85 18 -127 78q-7 10 5 27l49 58q12 16 28 5q57 -46 102 -46q50 0 50 35q0 27 -39 42l-59 26q-89 37 -89 119q0 70 56.5 117.5t137.5 47.5q49 0 92.5 -20.5t69.5 -56.5q7 -11 -5 -23l-61 -60q-10 -9 -23 1q-37 40 -75 40z" glyph-name="scedilla" horiz-adv-x="452" unicode="ş"/><glyph d="M509 910q6 0 8.5 -3t1 -7.5t-5.5 -8.5l-103 -109q-8 -8 -18 -8h-104q-11 0 -16 8l-75 109q-5 6 -1.5 12.5t12.5 6.5h80q13 0 18 -8l43 -64l59 64q8 8 19 8h82zM254 -12q-79 0 -140 32.5t-89 78.5q-6 11 5 22l79 77q12 13 23 2q61 -67 131 -67q41 0 67 18t26 52 q0 12 -4 21.5t-6.5 14.5t-15 13.5t-16 10.5t-22.5 12l-72 36q-125 63 -125 176q0 96 70 158.5t176 62.5q125 0 200 -92q12 -12 -3 -27l-75 -77q-11 -11 -23 -4q-57 55 -114 55q-37 0 -57 -16.5t-20 -44.5q0 -23 15.5 -37t59.5 -36l57 -29q24 -13 39 -22t34.5 -25t30.5 -33 t19 -42.5t8 -55.5q0 -105 -73.5 -169.5t-184.5 -64.5z" glyph-name="Scaron" horiz-adv-x="560" unicode="Š"/><glyph d="M439 700q6 0 8.5 -3t1 -7.5t-5.5 -8.5l-103 -109q-8 -8 -18 -8h-104q-11 0 -16 8l-75 109q-5 6 -1.5 12.5t12.5 6.5h80q13 0 18 -8l43 -64l59 64q8 8 19 8h82zM196 -12q-59 0 -106.5 23t-73.5 60q-7 10 5 27l49 58q12 16 28 5q57 -46 102 -46q50 0 50 35q0 27 -39 42 l-59 26q-89 37 -89 119q0 70 56.5 117.5t137.5 47.5q49 0 92.5 -20.5t69.5 -56.5q7 -11 -5 -23l-61 -60q-10 -9 -23 1q-37 40 -75 40q-23 0 -34.5 -10.5t-11.5 -25.5q0 -24 35 -38l69 -29q90 -39 90 -122q0 -75 -60 -122.5t-147 -47.5z" glyph-name="scaron" horiz-adv-x="452" unicode="š"/><glyph d="M550 700q16 0 14 -15l-16 -110q-2 -15 -17 -15h-133l-77 -545q-2 -15 -17 -15h-12l-41 -32q33 -3 55.5 -23.5t22.5 -57.5q0 -60 -60.5 -89.5t-137.5 -16.5q-10 2 -9 14l7 50q2 13 15 10q82 -8 82 21q0 15 -21.5 20.5t-55.5 -5.5q-6 -3 -9 -0.5t-2 7.5l8 56q2 8 6 12 l43 34h-19q-16 0 -14 15l77 545h-133q-16 0 -14 15l15 110q3 15 18 15h425z" glyph-name="Tcommaaccent" horiz-adv-x="547" unicode="Ţ"/><glyph d="M364 490q15 0 13 -16l-13 -87q-2 -15 -17 -15h-74l-30 -216q-3 -20 7 -30.5t28 -10.5q20 0 31 1q9 1 13.5 -3t3.5 -12l-11 -81q-5 -28 -80 -32l-21 -16q33 -3 55.5 -23.5t22.5 -57.5q0 -60 -60.5 -89.5t-137.5 -16.5q-10 2 -9 14l7 50q2 13 15 10q82 -8 82 21 q0 15 -21.5 20.5t-55.5 -5.5q-6 -3 -9 -0.5t-2 7.5l8 56q1 8 6 12l38 30q-82 31 -67 139l33 233h-60q-15 0 -13 16l11 86q2 16 18 16h61l16 115q2 15 17 15h123q16 0 14 -15l-16 -115h74z" glyph-name="tcommaaccent" horiz-adv-x="371" unicode="ţ"/><glyph d="M512 910q6 0 8.5 -3t1 -7.5t-5.5 -8.5l-103 -109q-8 -8 -18 -8h-104q-11 0 -16 8l-75 109q-5 6 -1.5 12.5t12.5 6.5h80q13 0 18 -8l43 -64l59 64q8 8 19 8h82zM176 0q-16 0 -14 15l77 545h-133q-16 0 -14 15l15 110q3 15 18 15h425q16 0 14 -15l-16 -110q-2 -15 -17 -15 h-133l-77 -545q-2 -15 -17 -15h-128z" glyph-name="Tcaron" horiz-adv-x="547" unicode="Ť"/><glyph d="M596 672q8 0 10 -5.5t-2 -12.5l-79 -113q-8 -12 -19 -12h-109q-7 0 -10 5.5t1 11.5l79 114q8 12 19 12h110zM364 490q15 0 13 -16l-13 -87q-2 -15 -17 -15h-74l-30 -216q-3 -20 7 -30.5t28 -10.5q20 0 31 1q9 1 13.5 -3t3.5 -12l-11 -81q-5 -32 -93 -32q-68 0 -107.5 36 t-28.5 115l33 233h-60q-15 0 -13 16l11 86q2 16 18 16h61l16 115q2 15 17 15h123q16 0 14 -15l-16 -115h74z" glyph-name="tcaron" horiz-adv-x="526" unicode="ť"/><glyph d="M550 700q16 0 14 -15l-16 -110q-2 -15 -17 -15h-133l-10 -70h76q15 0 13 -15l-13 -88q-2 -15 -17 -15h-76l-50 -357q-2 -15 -17 -15h-128q-16 0 -14 15l50 357h-75q-16 0 -14 15l13 88q2 15 17 15h76l10 70h-133q-16 0 -14 15l15 110q3 15 18 15h425z" glyph-name="Tbar" horiz-adv-x="547" unicode="Ŧ"/><glyph d="M364 490q15 0 13 -16l-13 -87q-2 -15 -17 -15h-74l-6 -46h76q15 0 13 -15l-13 -93q-2 -15 -17 -15h-76l-7 -47q-3 -20 7 -30.5t28 -10.5q20 0 31 1q9 1 13.5 -3t3.5 -12l-11 -81q-5 -32 -93 -32q-68 0 -107.5 36t-28.5 115l9 64h-60q-16 0 -13 15l12 93q2 15 18 15h60 l7 46h-60q-15 0 -13 16l11 86q2 16 18 16h61l16 115q2 15 17 15h123q16 0 14 -15l-16 -115h74z" glyph-name="tbar" horiz-adv-x="371" unicode="ŧ"/><glyph d="M347 933q28 0 52.5 -11t38.5 -24.5t33 -24.5t38 -11q35 0 51 27q4 8 13 8h31q14 0 11 -13q-11 -52 -46 -80t-81 -28q-36 0 -64.5 18t-52 35.5t-45.5 17.5q-36 0 -51 -27q-5 -8 -13 -8h-30q-14 0 -11 13q12 53 46 80.5t80 27.5zM299 -13q-124 0 -189 74.5t-45 212.5 l57 411q3 15 18 15h128q15 0 13 -15l-58 -409q-8 -64 16.5 -99t78.5 -35t88 35t43 99l58 409q2 15 17 15h128q15 0 13 -15l-57 -411q-20 -139 -103 -213t-206 -74z" glyph-name="Utilde" horiz-adv-x="664" unicode="Ũ"/><glyph d="M162 602q-14 0 -11 13q12 53 46 80.5t80 27.5q28 0 52.5 -11t38.5 -24.5t33 -24.5t38 -11q35 0 51 27q4 8 13 8h31q14 0 11 -13q-11 -52 -46 -80t-81 -28q-36 0 -64.5 18t-52 35.5t-45.5 17.5q-36 0 -51 -27q-5 -8 -13 -8h-30zM547 490q16 0 14 -15l-64 -460 q-2 -15 -18 -15h-117q-16 0 -14 15l4 59q-60 -86 -155 -86q-78 0 -120 55t-29 148l40 284q2 15 17 15h122q16 0 14 -15l-35 -248q-7 -48 12.5 -73t59.5 -25q38 0 63 25t31 73h1l35 248q2 15 17 15h122z" glyph-name="utilde" unicode="ũ"/><glyph d="M580 910q15 0 13 -15l-13 -88q-2 -15 -17 -15h-310q-16 0 -14 15l13 88q2 15 17 15h311zM299 -13q-124 0 -189 74.5t-45 212.5l57 411q3 15 18 15h128q15 0 13 -15l-58 -409q-8 -64 16.5 -99t78.5 -35t88 35t43 99l58 409q2 15 17 15h128q15 0 13 -15l-57 -411 q-20 -139 -103 -213t-206 -74z" glyph-name="Umacron" horiz-adv-x="664" unicode="Ū"/><glyph d="M184 582q-16 0 -14 15l13 88q2 15 17 15h311q15 0 13 -15l-13 -88q-2 -15 -17 -15h-310zM547 490q16 0 14 -15l-64 -460q-2 -15 -18 -15h-117q-16 0 -14 15l4 59q-60 -86 -155 -86q-78 0 -120 55t-29 148l40 284q2 15 17 15h122q16 0 14 -15l-35 -248q-7 -48 12.5 -73 t59.5 -25q38 0 63 25t31 73h1l35 248q2 15 17 15h122z" glyph-name="umacron" unicode="ū"/><glyph d="M492 896q5 14 19 14h62q15 0 12 -15q-9 -56 -57 -94t-120 -38q-71 0 -109.5 38t-36.5 94q0 15 16 15h60q13 0 15 -14q3 -19 19 -33t46 -14q53 0 74 47zM299 -13q-124 0 -189 74.5t-45 212.5l57 411q3 15 18 15h128q15 0 13 -15l-58 -409q-8 -64 16.5 -99t78.5 -35t88 35 t43 99l58 409q2 15 17 15h128q15 0 13 -15l-57 -411q-20 -139 -103 -213t-206 -74z" glyph-name="Ubreve" horiz-adv-x="664" unicode="Ŭ"/><glyph d="M338 553q-71 0 -109.5 38t-36.5 94q0 15 16 15h60q13 0 15 -14q3 -19 19 -33t46 -14q53 0 74 47q5 14 19 14h62q15 0 12 -15q-9 -56 -57 -94t-120 -38zM547 490q16 0 14 -15l-64 -460q-2 -15 -18 -15h-117q-16 0 -14 15l4 59q-60 -86 -155 -86q-78 0 -120 55t-29 148 l40 284q2 15 17 15h122q16 0 14 -15l-35 -248q-7 -48 12.5 -73t59.5 -25q38 0 63 25t31 73h1l35 248q2 15 17 15h122z" glyph-name="ubreve" unicode="ŭ"/><glyph d="M406 742q-45 0 -72 27t-27 68q0 47 34.5 83t86.5 36q44 0 71 -27t27 -67q0 -47 -34.5 -83.5t-85.5 -36.5zM415 826q10 0 17 7.5t7 18.5q0 8 -6 14.5t-15 6.5q-10 0 -17 -7.5t-7 -18.5q0 -9 6 -15t15 -6zM299 -13q-124 0 -189 74.5t-45 212.5l57 411q3 15 18 15h128 q15 0 13 -15l-58 -409q-8 -64 16.5 -99t78.5 -35t88 35t43 99l58 409q2 15 17 15h128q15 0 13 -15l-57 -411q-20 -139 -103 -213t-206 -74z" glyph-name="Uring" horiz-adv-x="664" unicode="Ů"/><glyph d="M336 532q-45 0 -72 27t-27 68q0 47 34.5 83t86.5 36q44 0 71 -27t27 -67q0 -47 -34.5 -83.5t-85.5 -36.5zM348 663q-10 0 -17 -7.5t-7 -18.5q0 -9 6 -15t15 -6q10 0 17 7.5t7 18.5q0 8 -6 14.5t-15 6.5zM547 490q16 0 14 -15l-64 -460q-2 -15 -18 -15h-117q-16 0 -14 15 l4 59q-60 -86 -155 -86q-78 0 -120 55t-29 148l40 284q2 15 17 15h122q16 0 14 -15l-35 -248q-7 -48 12.5 -73t59.5 -25q38 0 63 25t31 73h1l35 248q2 15 17 15h122z" glyph-name="uring" unicode="ů"/><glyph d="M461 910q7 0 9.5 -5.5t-1.5 -11.5l-79 -114q-8 -12 -20 -12h-108q-8 0 -10.5 5.5t1.5 11.5l79 114q8 12 19 12h110zM661 910q7 0 9.5 -5.5t-1.5 -11.5l-79 -114q-8 -12 -20 -12h-108q-8 0 -10.5 5.5t1.5 11.5l79 114q8 12 19 12h110zM299 -13q-124 0 -189 74.5t-45 212.5 l57 411q3 15 18 15h128q15 0 13 -15l-58 -409q-8 -64 16.5 -99t78.5 -35t88 35t43 99l58 409q2 15 17 15h128q15 0 13 -15l-57 -411q-20 -139 -103 -213t-206 -74z" glyph-name="Uhungarumlaut" horiz-adv-x="664" unicode="Ű"/><glyph d="M192 557q-8 0 -10.5 5.5t1.5 11.5l79 114q8 12 19 12h110q7 0 9.5 -5.5t-1.5 -11.5l-79 -114q-8 -12 -20 -12h-108zM591 700q7 0 9.5 -5.5t-1.5 -11.5l-79 -114q-8 -12 -20 -12h-108q-8 0 -10.5 5.5t1.5 11.5l79 114q8 12 19 12h110zM547 490q16 0 14 -15l-64 -460 q-2 -15 -18 -15h-117q-16 0 -14 15l4 59q-60 -86 -155 -86q-78 0 -120 55t-29 148l40 284q2 15 17 15h122q16 0 14 -15l-35 -248q-7 -48 12.5 -73t59.5 -25q38 0 63 25t31 73h1l35 248q2 15 17 15h122z" glyph-name="uhungarumlaut" unicode="ű"/><glyph d="M652 700q15 0 13 -15l-57 -411q-16 -116 -77.5 -187t-154.5 -92q-74 -25 -74 -67t56 -32l-14 -94q-23 -10 -52 -10.5t-55.5 8t-44.5 31.5t-18 56q0 60 57 107q-93 19 -138 90.5t-28 189.5l57 411q3 15 18 15h128q15 0 13 -15l-58 -409q-8 -64 16.5 -99t78.5 -35t88 35 t43 99l58 409q2 15 17 15h128z" glyph-name="Uogonek" horiz-adv-x="664" unicode="Ų"/><glyph d="M547 490q16 0 14 -15l-64 -460q-2 -15 -18 -15h-4q-37 -1 -64.5 -22.5t-27.5 -49.5q0 -18 13 -27.5t42 -4.5l-13 -94q-23 -10 -52 -10.5t-56 8t-45 31.5t-18 56q0 79 94 132l4 55q-60 -86 -155 -86q-78 0 -120 55t-29 148l40 284q2 15 17 15h122q16 0 14 -15l-35 -248 q-7 -48 12.5 -73t59.5 -25q38 0 63 25t31 73h1l35 248q2 15 17 15h122z" glyph-name="uogonek" unicode="ų"/><glyph d="M463 774q-9 0 -10 6t6 13l104 109q8 8 18 8h103q12 0 17 -8l74 -109q5 -7 2.5 -13t-12.5 -6h-81q-12 0 -17 8l-44 64l-58 -64q-9 -8 -20 -8h-82zM1102 700q17 0 10 -17l-292 -671q-4 -12 -21 -12h-134q-17 0 -19 12l-70 487l-206 -487q-3 -12 -20 -12h-135q-17 0 -19 12 l-102 671q-3 17 13 17h134q14 0 15 -12l62 -468l205 468q5 12 19 12h124q17 0 18 -12l74 -465l192 465q5 12 19 12h133z" glyph-name="Wcircumflex" horiz-adv-x="1081" unicode="Ŵ"/><glyph d="M335 564q-9 0 -10 6t6 13l104 109q8 8 18 8h103q12 0 17 -8l74 -109q5 -7 2.5 -13t-12.5 -6h-81q-12 0 -17 8l-44 64l-58 -64q-9 -8 -20 -8h-82zM163 0q-14 0 -17 12l-87 461q-5 17 14 17h118q17 0 18 -12l47 -300l140 300q6 12 19 12h119q14 0 17 -12l57 -300l131 300 q6 12 20 12h120q18 0 10 -17l-215 -461q-6 -12 -19 -12h-126q-14 0 -17 12l-60 300l-144 -300q-6 -12 -19 -12h-126z" glyph-name="wcircumflex" horiz-adv-x="884" unicode="ŵ"/><glyph d="M240 774q-9 0 -10 6t6 13l104 109q8 8 18 8h103q12 0 17 -8l74 -109q5 -7 2.5 -13t-12.5 -6h-81q-12 0 -17 8l-44 64l-58 -64q-9 -8 -20 -8h-82zM655 700q20 0 7 -18l-254 -364l-42 -303q-2 -15 -17 -15h-128q-15 0 -13 15l42 305l-155 362q-4 8 0 13t13 5h134 q13 0 17 -10l87 -224l153 224q7 10 19 10h137z" glyph-name="Ycircumflex" horiz-adv-x="634" unicode="Ŷ"/><glyph d="M183 564q-9 0 -10 6t6 13l104 109q8 8 18 8h103q12 0 17 -8l74 -109q5 -7 2.5 -13t-12.5 -6h-81q-12 0 -17 8l-44 64l-58 -64q-9 -8 -20 -8h-82zM97 -190q-20 0 -11 18l94 173l-120 472q-6 17 14 17h124q15 0 18 -12l63 -302l154 302q6 12 20 12h123q20 0 11 -17 l-352 -651q-6 -12 -20 -12h-118z" glyph-name="ycircumflex" horiz-adv-x="581" unicode="ŷ"/><glyph d="M277 763q-29 0 -48 19t-19 49q0 34 26 59t60 25q29 0 48 -19t19 -48q0 -34 -26 -59.5t-60 -25.5zM506 763q-29 0 -48 19t-19 49q0 34 26 59t60 25q29 0 48 -19t19 -48q0 -34 -26 -59.5t-60 -25.5zM655 700q20 0 7 -18l-254 -364l-42 -303q-2 -15 -17 -15h-128 q-15 0 -13 15l42 305l-155 362q-4 8 0 13t13 5h134q13 0 17 -10l87 -224l153 224q7 10 19 10h137z" glyph-name="Ydieresis" horiz-adv-x="634" unicode="Ÿ"/><glyph d="M491 910q7 0 9.5 -5.5t-1.5 -11.5l-79 -114q-8 -12 -20 -12h-108q-8 0 -10.5 5.5t1.5 11.5l79 114q8 12 19 12h110zM22 0q-15 0 -13 15l16 115q1 10 8 18l344 412h-266q-16 0 -14 15l15 110q3 15 18 15h415q16 0 14 -16l-17 -114q-1 -9 -9 -18l-342 -412h286q15 0 13 -15 l-16 -110q0 -15 -17 -15h-435z" glyph-name="Zacute" horiz-adv-x="552" unicode="Ź"/><glyph d="M421 700q7 0 9.5 -5.5t-1.5 -11.5l-79 -114q-8 -12 -20 -12h-108q-8 0 -10.5 5.5t1.5 11.5l79 114q8 12 19 12h110zM17 0q-16 0 -14 15l13 98q2 12 10 19l252 234h-207q-15 0 -13 16l13 93q2 15 17 15h362q15 0 13 -15l-13 -97q-2 -13 -10 -20l-252 -234h211q15 0 13 -15 l-13 -94q0 -15 -17 -15h-365z" glyph-name="zacute" horiz-adv-x="467" unicode="ź"/><glyph d="M349 763q-29 0 -48 19t-19 49q0 34 26 59t60 25q29 0 48 -19t19 -48q0 -34 -26 -59.5t-60 -25.5zM22 0q-15 0 -13 15l16 115q1 10 8 18l344 412h-266q-16 0 -14 15l15 110q3 15 18 15h415q16 0 14 -16l-17 -114q-1 -9 -9 -18l-342 -412h286q15 0 13 -15l-16 -110 q0 -15 -17 -15h-435z" glyph-name="Zdotaccent" horiz-adv-x="552" unicode="Ż"/><glyph d="M279 553q-29 0 -48 19t-19 49q0 34 26 59t60 25q29 0 48 -19t19 -48q0 -34 -26 -59.5t-60 -25.5zM17 0q-16 0 -14 15l13 98q2 12 10 19l252 234h-207q-15 0 -13 16l13 93q2 15 17 15h362q15 0 13 -15l-13 -97q-2 -13 -10 -20l-252 -234h211q15 0 13 -15l-13 -94 q0 -15 -17 -15h-365z" glyph-name="zdotaccent" horiz-adv-x="467" unicode="ż"/><glyph d="M512 910q6 0 8.5 -3t1 -7.5t-5.5 -8.5l-103 -109q-8 -8 -18 -8h-104q-11 0 -16 8l-75 109q-5 6 -1.5 12.5t12.5 6.5h80q13 0 18 -8l43 -64l59 64q8 8 19 8h82zM22 0q-15 0 -13 15l16 115q1 10 8 18l344 412h-266q-16 0 -14 15l15 110q3 15 18 15h415q16 0 14 -16 l-17 -114q-1 -9 -9 -18l-342 -412h286q15 0 13 -15l-16 -110q0 -15 -17 -15h-435z" glyph-name="Zcaron" horiz-adv-x="552" unicode="Ž"/><glyph d="M442 700q6 0 8.5 -3t1 -7.5t-5.5 -8.5l-103 -109q-8 -8 -18 -8h-104q-11 0 -16 8l-75 109q-5 6 -1.5 12.5t12.5 6.5h80q13 0 18 -8l43 -64l59 64q8 8 19 8h82zM17 0q-16 0 -14 15l13 98q2 12 10 19l252 234h-207q-15 0 -13 16l13 93q2 15 17 15h362q15 0 13 -15l-13 -97 q-2 -13 -10 -20l-252 -234h211q15 0 13 -15l-13 -94q0 -15 -17 -15h-365z" glyph-name="zcaron" horiz-adv-x="467" unicode="ž"/><glyph d="M428 715q12 -5 10 -18l-14 -100q-1 -9 -15 -7q-32 6 -42 6q-33 0 -47 -14.5t-18 -42.5l-7 -49h97q16 0 14 -16l-13 -92q-2 -16 -18 -16h-97l-54 -384q-24 -172 -201 -172q-41 0 -77 16q-11 5 -9 18l14 100q1 9 14 7q34 -6 42 -6q33 0 47 14.5t18 42.5l51 364h-57 q-15 0 -13 16l12 92q2 16 18 16h57l10 69q24 172 201 172q41 0 77 -16z" glyph-name="florin" horiz-adv-x="399" unicode="ƒ"/><glyph d="M353 782l-75 109q-5 6 -1.5 12.5t12.5 6.5h80q13 0 18 -8l43 -64l59 64q8 8 19 8h82q6 0 8.5 -3t1 -7.5t-5.5 -8.5l-103 -109q-8 -8 -18 -8h-104q-11 0 -16 8zM637 17q3 -17 -14 -17h-134q-12 0 -15 12l-17 94h-250l-43 -94q-5 -12 -20 -12h-134q-18 0 -10 17l326 671 q6 12 20 12h136q16 0 19 -12zM271 246h161l-46 253z" glyph-name="uni01CD" horiz-adv-x="701" unicode="Ǎ"/><glyph d="M275 572l-75 109q-5 6 -1.5 12.5t12.5 6.5h80q13 0 18 -8l43 -64l59 64q8 8 19 8h82q6 0 8.5 -3t1 -7.5t-5.5 -8.5l-103 -109q-8 -8 -18 -8h-104q-11 0 -16 8zM576 490q17 0 14 -15l-64 -460q-3 -15 -19 -15h-110q-17 0 -14 15l4 49q-63 -76 -163 -76q-93 0 -144.5 59 t-51.5 157q0 121 75.5 209.5t191.5 88.5q101 0 143 -74l9 47q3 15 18 15h111zM276 127q51 0 87 32.5t43 86.5q7 52 -20 84.5t-77 32.5q-57 0 -93.5 -40t-36.5 -95q0 -46 26.5 -73.5t70.5 -27.5z" glyph-name="uni01CE" horiz-adv-x="613" unicode="ǎ"/><glyph d="M383 910q6 0 8.5 -3t1 -7.5t-5.5 -8.5l-103 -109q-8 -8 -18 -8h-104q-11 0 -16 8l-75 109q-5 6 -1.5 12.5t12.5 6.5h80q13 0 18 -8l43 -64l59 64q8 8 19 8h82zM47 0q-15 0 -13 15l93 670q3 15 18 15h128q15 0 13 -15l-94 -670q-2 -15 -17 -15h-128z" glyph-name="uni01CF" horiz-adv-x="290" unicode="Ǐ"/><glyph d="M340 700q6 0 8.5 -3t1 -7.5t-5.5 -8.5l-103 -109q-8 -8 -18 -8h-104q-11 0 -16 8l-75 109q-5 6 -1.5 12.5t12.5 6.5h80q13 0 18 -8l43 -64l59 64q8 8 19 8h82zM35 0q-15 0 -13 15l64 460q2 15 17 15h123q16 0 14 -15l-64 -460q-2 -15 -18 -15h-123z" glyph-name="uni01D0" horiz-adv-x="261" unicode="ǐ"/><glyph d="M646 910q6 0 8.5 -3t1 -7.5t-5.5 -8.5l-103 -109q-8 -8 -18 -8h-104q-11 0 -16 8l-75 109q-5 6 -1.5 12.5t12.5 6.5h80q13 0 18 -8l43 -64l59 64q8 8 19 8h82zM373 -13q-138 0 -227.5 88t-89.5 223q0 165 123 287.5t291 122.5q138 0 227 -88t89 -223q0 -166 -122.5 -288 t-290.5 -122zM394 142q96 0 163 68.5t67 165.5q0 79 -48.5 128t-125.5 49q-96 0 -163 -68t-67 -165q0 -79 48.5 -128.5t125.5 -49.5z" glyph-name="uni01D1" horiz-adv-x="813" unicode="Ǒ"/><glyph d="M498 700q6 0 8.5 -3t1 -7.5t-5.5 -8.5l-103 -109q-8 -8 -18 -8h-104q-11 0 -16 8l-75 109q-5 6 -1.5 12.5t12.5 6.5h80q13 0 18 -8l43 -64l59 64q8 8 19 8h82zM255 -12q-102 0 -164.5 62.5t-62.5 159.5q0 119 87 205.5t208 86.5q102 0 164.5 -62.5t62.5 -159.5 q0 -119 -87 -205.5t-208 -86.5zM274 128q52 0 89.5 36t37.5 95q0 48 -27 75.5t-70 27.5q-52 0 -89.5 -36t-37.5 -95q0 -48 27 -75.5t70 -27.5z" glyph-name="uni01D2" horiz-adv-x="578" unicode="ǒ"/><glyph d="M571 910q6 0 8.5 -3t1 -7.5t-5.5 -8.5l-103 -109q-8 -8 -18 -8h-104q-11 0 -16 8l-75 109q-5 6 -1.5 12.5t12.5 6.5h80q13 0 18 -8l43 -64l59 64q8 8 19 8h82zM299 -13q-124 0 -189 74.5t-45 212.5l57 411q3 15 18 15h128q15 0 13 -15l-58 -409q-8 -64 16.5 -99t78.5 -35 t88 35t43 99l58 409q2 15 17 15h128q15 0 13 -15l-57 -411q-20 -139 -103 -213t-206 -74z" glyph-name="uni01D3" horiz-adv-x="664" unicode="Ǔ"/><glyph d="M264 572l-75 109q-5 6 -1.5 12.5t12.5 6.5h80q13 0 18 -8l43 -64l59 64q8 8 19 8h82q6 0 8.5 -3t1 -7.5t-5.5 -8.5l-103 -109q-8 -8 -18 -8h-104q-11 0 -16 8zM547 490q16 0 14 -15l-64 -460q-2 -15 -18 -15h-117q-16 0 -14 15l4 59q-60 -86 -155 -86q-78 0 -120 55 t-29 148l40 284q2 15 17 15h122q16 0 14 -15l-35 -248q-7 -48 12.5 -73t59.5 -25q38 0 63 25t31 73h1l35 248q2 15 17 15h122z" glyph-name="uni01D4" unicode="ǔ"/><glyph d="M474 0q-89 -28 -89 -72q0 -18 13 -27.5t42 -4.5l-13 -94q-23 -10 -52 -10.5t-56 8t-45 31.5t-18 56q0 58 55 105q-114 20 -184.5 103.5t-70.5 202.5q0 165 123 287.5t291 122.5q138 0 227 -88t89 -223q0 -139 -89 -250.5t-223 -146.5zM220 320q0 -79 48.5 -128.5 t125.5 -49.5q96 0 163 68.5t67 165.5q0 79 -48.5 128t-125.5 49q-96 0 -163 -68t-67 -165z" glyph-name="uni01EA" horiz-adv-x="813" unicode="Ǫ"/><glyph d="M331 -2q-84 -26 -84 -70q0 -42 56 -32l-14 -94q-23 -10 -52 -10.5t-55.5 8t-44.5 31.5t-18 56q0 61 62 111q-70 20 -111.5 77.5t-41.5 134.5q0 119 87 205.5t208 86.5q102 0 164.5 -62.5t62.5 -159.5q0 -98 -62 -177t-157 -105zM304 362q-52 0 -89.5 -36t-37.5 -95 q0 -48 27 -75.5t70 -27.5q52 0 89.5 36t37.5 95q0 48 -27 75.5t-70 27.5z" glyph-name="uni01EB" horiz-adv-x="578" unicode="ǫ"/><glyph d="M254 -12q-79 0 -140 32.5t-89 78.5q-6 11 5 22l79 77q12 13 23 2q61 -67 131 -67q41 0 67 18t26 52q0 12 -4 21.5t-6.5 14.5t-15 13.5t-16 10.5t-22.5 12l-72 36q-125 63 -125 176q0 96 70 158.5t176 62.5q125 0 200 -92q12 -12 -3 -27l-75 -77q-11 -11 -23 -4 q-57 55 -114 55q-37 0 -57 -16.5t-20 -44.5q0 -23 15.5 -37t59.5 -36l57 -29q24 -13 39 -22t34.5 -25t30.5 -33t19 -42.5t8 -55.5q0 -105 -73.5 -169.5t-184.5 -64.5zM104 -319l6 34q51 -1 88 44q24 29 14 39q-3 3 -8 3q-32 0 -54 22.5t-22 55.5q0 40 29.5 69.5t72.5 29.5 q37 0 62 -25t25 -72q0 -81 -67.5 -143t-145.5 -57z" glyph-name="Scommaaccent" horiz-adv-x="560" unicode="Ș"/><glyph d="M196 -12q-59 0 -106.5 23t-73.5 60q-7 10 5 27l49 58q12 16 28 5q57 -46 102 -46q50 0 50 35q0 27 -39 42l-59 26q-89 37 -89 119q0 70 56.5 117.5t137.5 47.5q49 0 92.5 -20.5t69.5 -56.5q7 -11 -5 -23l-61 -60q-10 -9 -23 1q-37 40 -75 40q-23 0 -34.5 -10.5 t-11.5 -25.5q0 -24 35 -38l69 -29q90 -39 90 -122q0 -75 -60 -122.5t-147 -47.5zM64 -319l6 34q51 -1 88 44q24 29 14 39q-3 3 -8 3q-32 0 -54 22.5t-22 55.5q0 40 29.5 69.5t72.5 29.5q37 0 62 -25t25 -72q0 -81 -67.5 -143t-145.5 -57z" glyph-name="scommaaccent" horiz-adv-x="452" unicode="ș"/><glyph d="M176 0q-16 0 -14 15l77 545h-133q-16 0 -14 15l15 110q3 15 18 15h425q16 0 14 -15l-16 -110q-2 -15 -17 -15h-133l-77 -545q-2 -15 -17 -15h-128zM107 -319l6 34q51 -1 88 44q24 29 14 39q-3 3 -8 3q-32 0 -54 22.5t-22 55.5q0 40 29.5 69.5t72.5 29.5q37 0 62 -25 t25 -72q0 -81 -67.5 -143t-145.5 -57z" glyph-name="uni021A" horiz-adv-x="547" unicode="Ț"/><glyph d="M364 490q15 0 13 -16l-13 -87q-2 -15 -17 -15h-74l-30 -216q-3 -20 7 -30.5t28 -10.5q20 0 31 1q9 1 13.5 -3t3.5 -12l-11 -81q-5 -32 -93 -32q-68 0 -107.5 36t-28.5 115l33 233h-60q-15 0 -13 16l11 86q2 16 18 16h61l16 115q2 15 17 15h123q16 0 14 -15l-16 -115h74z M196 -18q37 0 62 -25t25 -72q0 -81 -67.5 -143t-145.5 -57l6 34q51 -1 88 44q24 29 14 39q-3 3 -8 3q-32 0 -54 22.5t-22 55.5q0 40 29.5 69.5t72.5 29.5z" glyph-name="uni021B" horiz-adv-x="371" unicode="ț"/><glyph d="M-20 -200q-50 0 -80 17q-8 5 -6 16l13 101q1 9 15 7q28 -6 42 -6q56 0 65 57l67 483q2 15 18 15h123q16 0 14 -15l-71 -503q-24 -172 -200 -172z" glyph-name="uni0237" horiz-adv-x="270" unicode="ȷ"/><glyph d="M71 564q-9 0 -10 6t6 13l104 109q8 8 18 8h103q12 0 17 -8l74 -109q5 -7 2.5 -13t-12.5 -6h-81q-12 0 -17 8l-44 64l-58 -64q-9 -8 -20 -8h-82z" glyph-name="circumflex" horiz-adv-x="355" unicode="ˆ"/><glyph d="M392 700q6 0 8.5 -3t1 -7.5t-5.5 -8.5l-103 -109q-8 -8 -18 -8h-104q-11 0 -16 8l-75 109q-5 6 -1.5 12.5t12.5 6.5h80q13 0 18 -8l43 -64l59 64q8 8 19 8h82z" glyph-name="caron" horiz-adv-x="355" unicode="ˇ"/><glyph d="M307 686q5 14 19 14h62q15 0 12 -15q-9 -56 -57 -94t-120 -38q-71 0 -109.5 38t-36.5 94q0 15 16 15h60q13 0 15 -14q3 -19 19 -33t46 -14q53 0 74 47z" glyph-name="breve" horiz-adv-x="353" unicode="˘"/><glyph d="M136 553q-29 0 -48 19t-19 49q0 34 26 59t60 25q29 0 48 -19t19 -48q0 -34 -26 -59.5t-60 -25.5z" glyph-name="dotaccent" horiz-adv-x="182" unicode="˙"/><glyph d="M169 532q-45 0 -72 27t-27 68q0 47 34.5 83t86.5 36q44 0 71 -27t27 -67q0 -47 -34.5 -83.5t-85.5 -36.5zM178 616q10 0 17 7.5t7 18.5q0 8 -6 14.5t-15 6.5q-10 0 -17 -7.5t-7 -18.5q0 -9 6 -15t15 -6z" glyph-name="ring" horiz-adv-x="248" unicode="˚"/><glyph d="M186 0q-39 1 -67.5 -21t-28.5 -51q0 -18 13 -27.5t42 -4.5l-13 -94q-23 -10 -52 -10.5t-56 8t-45 31.5t-18 56q0 49 39 89.5t92 61t102 20.5z" glyph-name="ogonek" horiz-adv-x="230" unicode="˛"/><glyph d="M193 723q28 0 52.5 -11t38.5 -24.5t33 -24.5t38 -11q35 0 51 27q4 8 13 8h31q14 0 11 -13q-11 -52 -46 -80t-81 -28q-36 0 -64.5 18t-52 35.5t-45.5 17.5q-36 0 -51 -27q-5 -8 -13 -8h-30q-14 0 -11 13q12 53 46 80.5t80 27.5z" glyph-name="tilde" horiz-adv-x="416" unicode="˜"/><glyph d="M269 700q7 0 9.5 -5.5t-1.5 -11.5l-79 -114q-8 -12 -20 -12h-108q-8 0 -10.5 5.5t1.5 11.5l79 114q8 12 19 12h110zM469 700q7 0 9.5 -5.5t-1.5 -11.5l-79 -114q-8 -12 -20 -12h-108q-8 0 -10.5 5.5t1.5 11.5l79 114q8 12 19 12h110z" glyph-name="hungarumlaut" horiz-adv-x="434" unicode="˝"/><glyph d="M-281 -319l6 34q51 -1 88 44q24 29 14 39q-3 3 -8 3q-32 0 -54 22.5t-22 55.5q0 40 29.5 69.5t72.5 29.5q37 0 62 -25t25 -72q0 -81 -67.5 -143t-145.5 -57z" glyph-name="uni0326" horiz-adv-x="0" unicode="̦"/><glyph d="M637 17q3 -17 -14 -17h-613q-18 0 -10 17l326 671q6 12 20 12h136q16 0 19 -12zM386 499l-171 -375h239z" glyph-name="Delta" horiz-adv-x="701" unicode="Δ"/><glyph d="M735 124q15 0 14 -16l-13 -94q-1 -14 -16 -14h-246q-15 0 -14 16l20 151q64 29 103.5 89t39.5 128q0 76 -50 123.5t-127 47.5q-95 0 -160.5 -67.5t-65.5 -158.5q0 -53 24 -96t65 -66l-21 -153q-1 -14 -16 -14h-246q-15 0 -14 16l13 94q1 14 16 14h99q-79 67 -79 201 q0 160 120 271.5t286 111.5q140 0 229 -83t89 -214q0 -86 -39.5 -164t-109.5 -123h99z" glyph-name="Omega" horiz-adv-x="810" unicode="Ω"/><glyph d="M547 490q15 0 13 -15l-64 -460q-2 -15 -17 -15h-118q-15 0 -13 15l3 58q-58 -85 -154 -85q-16 0 -24 1l-23 -164q-2 -15 -18 -15h-121q-15 0 -13 15l46 338l3 28l40 284q2 15 18 15h122q15 0 13 -15l-36 -263q-2 -41 17 -62t56 -21q39 0 64 25t31 73l35 248q2 15 18 15 h122z" glyph-name="mu" unicode="μ"/><glyph d="M696 490q15 0 13 -15l-13 -97q-2 -15 -17 -15h-57l-27 -191q-6 -45 31 -45q22 0 35 2q8 1 12.5 -3t3.5 -12l-12 -90q-5 -31 -98 -31q-64 0 -103 36.5t-27 115.5l31 218h-138l-49 -348q-2 -15 -17 -15h-122q-16 0 -14 15l49 348h-76q-16 0 -14 15l13 97q2 15 17 15h579z " glyph-name="pi" horiz-adv-x="720" unicode="π"/><glyph d="M233 763q-29 0 -48 19t-19 49q0 34 26 59t60 25q29 0 48 -19t19 -48q0 -34 -26 -59.5t-60 -25.5zM462 763q-29 0 -48 19t-19 49q0 34 26 59t60 25q29 0 48 -19t19 -48q0 -34 -26 -59.5t-60 -25.5zM47 0q-15 0 -13 15l93 670q3 15 18 15h361q15 0 13 -15l-15 -110 q-2 -15 -18 -15h-217l-20 -137h205q15 0 13 -15l-15 -110q-2 -15 -17 -15h-205l-20 -143h217q15 0 13 -15l-16 -110q0 -15 -17 -15h-360z" glyph-name="afii10023" horiz-adv-x="512" unicode="Ё"/><glyph d="M270 767q-8 0 -10.5 5.5t1.5 11.5l79 114q8 12 19 12h110q7 0 9.5 -5.5t-1.5 -11.5l-79 -114q-8 -12 -20 -12h-108zM522 700q15 0 13 -15l-16 -110q-2 -15 -17 -15h-234l-76 -545q-2 -15 -17 -15h-128q-15 0 -13 15l94 670q2 15 17 15h377z" glyph-name="afii10052" horiz-adv-x="503" unicode="Ѓ"/><glyph d="M701 604q8 -9 -5 -21l-85 -84q-12 -12 -22 -2q-58 56 -139 56q-70 0 -125.5 -36.5t-82.5 -96.5h220q15 0 13 -15l-17 -109q-2 -16 -17 -16h-216q13 -63 59 -100.5t112 -37.5q81 0 152 56q14 10 22 -1l67 -85q8 -12 -2 -21q-117 -104 -261 -104q-139 0 -227.5 88 t-88.5 227q0 164 119.5 285t288.5 121q150 0 235 -104z" glyph-name="afii10053" horiz-adv-x="701" unicode="Є"/><glyph d="M47 0q-15 0 -13 15l93 670q3 15 18 15h128q15 0 13 -15l-94 -670q-2 -15 -17 -15h-128z" glyph-name="afii10055" horiz-adv-x="290" unicode="І"/><glyph d="M105 763q-29 0 -48 19t-19 49q0 34 26 59t60 25q29 0 48 -19t19 -48q0 -34 -26 -59.5t-60 -25.5zM334 763q-29 0 -48 19t-19 49q0 34 26 59t60 25q29 0 48 -19t19 -48q0 -34 -26 -59.5t-60 -25.5zM47 0q-15 0 -13 15l93 670q3 15 18 15h128q15 0 13 -15l-94 -670 q-2 -15 -17 -15h-128z" glyph-name="afii10056" horiz-adv-x="290" unicode="Ї"/><glyph d="M293 767q-8 0 -10.5 5.5t1.5 11.5l79 114q8 12 19 12h110q7 0 9.5 -5.5t-1.5 -11.5l-79 -114q-8 -12 -20 -12h-108zM680 700q6 0 8.5 -2.5t1.5 -6.5t-5 -9l-271 -292l206 -372q4 -8 1.5 -13t-10.5 -5h-149q-11 0 -16 9l-143 260l-89 -95l-22 -159q-2 -15 -17 -15h-128 q-15 0 -13 15l93 670q3 15 18 15h128q15 0 13 -15l-40 -284l259 291q8 8 18 8h157z" glyph-name="afii10061" horiz-adv-x="676" unicode="Ќ"/><glyph d="M423 763q-71 0 -109.5 38t-36.5 94q0 15 16 15h60q13 0 15 -14q3 -19 19 -33t46 -14q53 0 74 47q5 14 19 14h62q15 0 12 -15q-9 -56 -57 -94t-120 -38zM716 700q9 0 11 -5t-4 -13l-483 -672q-7 -10 -19 -10h-134q-19 0 -8 18l194 270l-178 394q-7 18 13 18h135 q13 0 17 -10l115 -260l187 260q7 10 19 10h135z" glyph-name="afii10062" horiz-adv-x="696" unicode="Ў"/><glyph d="M637 17q3 -17 -14 -17h-134q-12 0 -15 12l-17 94h-250l-43 -94q-5 -12 -20 -12h-134q-18 0 -10 17l326 671q6 12 20 12h136q16 0 19 -12zM271 246h161l-46 253z" glyph-name="afii10017" horiz-adv-x="701" unicode="А"/><glyph d="M326 459q110 0 164.5 -51.5t54.5 -147.5q0 -118 -76 -189t-206 -71h-216q-15 0 -13 15l93 670q3 15 18 15h379q15 0 13 -15l-15 -110q-2 -15 -17 -15h-237l-14 -101h72zM278 140q57 0 86 26.5t29 73.5q0 79 -90 79h-68l-25 -179h68z" glyph-name="afii10018" horiz-adv-x="577" unicode="Б"/><glyph d="M47 0q-15 0 -13 15l93 670q3 15 18 15h230q89 0 135 -44t46 -114q0 -61 -33 -103t-80 -64q49 -13 81 -53t32 -107q0 -103 -79.5 -159t-209.5 -56h-220zM247 427h66q89 0 89 75q0 59 -70 59h-65zM207 139h79q50 0 81 23.5t31 66.5q0 73 -88 73h-80z" glyph-name="afii10019" horiz-adv-x="594" unicode="В"/><glyph d="M522 700q15 0 13 -15l-16 -110q-2 -15 -17 -15h-234l-76 -545q-2 -15 -17 -15h-128q-15 0 -13 15l94 670q2 15 17 15h377z" glyph-name="afii10020" horiz-adv-x="503" unicode="Г"/><glyph d="M730 140q15 0 13 -15l-26 -179q-2 -15 -17 -15h-128q-15 0 -13 15l8 54h-410l-8 -54q-2 -15 -17 -15h-129q-15 0 -13 15l25 179q2 15 17 15h17q68 11 81 97l63 448q2 15 17 15h496q15 0 13 -15l-77 -545h88zM285 212q-6 -41 -19 -72h218l59 420h-209z" glyph-name="afii10021" horiz-adv-x="776" unicode="Д"/><glyph d="M47 0q-15 0 -13 15l93 670q3 15 18 15h361q15 0 13 -15l-15 -110q-2 -15 -18 -15h-217l-20 -137h205q15 0 13 -15l-15 -110q-2 -15 -17 -15h-205l-20 -143h217q15 0 13 -15l-16 -110q0 -15 -17 -15h-360z" glyph-name="afii10022" horiz-adv-x="512" unicode="Е"/><glyph d="M1066 700q9 0 10 -5.5t-6 -12.5l-271 -292l206 -372q5 -8 2 -13t-11 -5h-148q-12 0 -17 9l-143 260l-88 -94l-22 -160q-2 -15 -18 -15h-128q-15 0 -13 15l22 160l-60 92l-215 -258q-8 -9 -19 -9h-149q-9 0 -11 5t4 13l311 372l-190 292q-4 7 -1 12.5t12 5.5h156 q12 0 17 -8l176 -301l41 294q2 15 17 15h128q16 0 14 -15l-40 -284l258 291q8 8 19 8h157z" glyph-name="afii10024" horiz-adv-x="1061" unicode="Ж"/><glyph d="M217 -13q-74 0 -126 30.5t-75 78.5q-7 14 6 21l85 69q12 10 22 -2q37 -57 99 -57q46 0 75 28t29 69q0 32 -19.5 53.5t-63.5 21.5h-27q-18 0 -16 16l14 92q2 15 17 15h28q39 0 64 24t25 57q0 29 -20.5 47t-51.5 18q-50 0 -95 -54q-12 -14 -24 -2l-58 66q-12 13 -1 25 q36 46 92 75.5t121 29.5q81 0 135 -43.5t54 -119.5q0 -58 -31.5 -104.5t-86.5 -70.5q98 -41 98 -151q0 -100 -79 -166t-190 -66z" glyph-name="afii10025" horiz-adv-x="522" unicode="З"/><glyph d="M665 700q15 0 13 -15l-94 -670q-2 -15 -17 -15h-128q-15 0 -13 15l58 414l-275 -419q-9 -10 -20 -10h-142q-15 0 -13 15l93 670q3 15 18 15h128q15 0 13 -15l-58 -411l274 416q7 10 19 10h144z" glyph-name="afii10026" horiz-adv-x="682" unicode="И"/><glyph d="M421 762q-71 0 -109.5 38t-36.5 94q0 15 16 15h60q13 0 15 -14q3 -19 19 -33t46 -14q53 0 74 47q5 14 19 14h62q15 0 12 -15q-9 -56 -57 -94t-120 -38zM665 700q15 0 13 -15l-94 -670q-2 -15 -17 -15h-128q-15 0 -13 15l58 414l-275 -419q-9 -10 -20 -10h-142 q-15 0 -13 15l93 670q3 15 18 15h128q15 0 13 -15l-58 -411l274 416q7 10 19 10h144z" glyph-name="afii10027" horiz-adv-x="682" unicode="Й"/><glyph d="M680 700q6 0 8.5 -2.5t1.5 -6.5t-5 -9l-271 -292l206 -372q4 -8 1.5 -13t-10.5 -5h-149q-11 0 -16 9l-143 260l-89 -95l-22 -159q-2 -15 -17 -15h-128q-15 0 -13 15l93 670q3 15 18 15h128q15 0 13 -15l-40 -284l259 291q8 8 18 8h157z" glyph-name="afii10028" horiz-adv-x="676" unicode="К"/><glyph d="M693 700q15 0 13 -15l-94 -670q-2 -15 -17 -15h-128q-16 0 -14 15l76 545h-208l-49 -349q-14 -104 -84 -160t-167 -56q-16 0 -23 4t-6 16l16 111q2 13 14 13q35 0 61.5 24.5t33.5 73.5l63 448q2 15 17 15h496z" glyph-name="afii10029" horiz-adv-x="710" unicode="Л"/><glyph d="M867 700q15 0 13 -15l-94 -670q-2 -15 -17 -15h-128q-15 0 -13 15l54 385l-19 -44l-177 -344q-6 -12 -19 -12h-112q-14 0 -17 12l-86 344l-7 44l-53 -385q-2 -15 -17 -15h-128q-15 0 -13 15l93 670q3 15 18 15h145q13 0 17 -16l124 -500l270 506q6 10 18 10h148z" glyph-name="afii10030" horiz-adv-x="884" unicode="М"/><glyph d="M671 700q16 0 14 -15l-94 -670q-2 -15 -18 -15h-128q-15 0 -13 15l36 258h-240l-36 -258q-2 -15 -17 -15h-128q-15 0 -13 15l93 670q3 15 18 15h128q15 0 13 -15l-38 -272h240l38 272q2 15 17 15h128z" glyph-name="afii10031" horiz-adv-x="688" unicode="Н"/><glyph d="M373 -13q-138 0 -227.5 88t-89.5 223q0 165 123 287.5t291 122.5q138 0 227 -88t89 -223q0 -166 -122.5 -288t-290.5 -122zM394 142q96 0 163 68.5t67 165.5q0 79 -48.5 128t-125.5 49q-96 0 -163 -68t-67 -165q0 -79 48.5 -128.5t125.5 -49.5z" glyph-name="afii10032" horiz-adv-x="813" unicode="О"/><glyph d="M649 700q16 0 14 -15l-94 -670q-2 -15 -18 -15h-128q-15 0 -13 15l76 545h-218l-76 -545q-2 -15 -17 -15h-128q-15 0 -13 15l93 670q3 15 18 15h504z" glyph-name="afii10033" horiz-adv-x="666" unicode="П"/><glyph d="M47 0q-15 0 -13 15l93 670q3 15 18 15h215q110 0 165 -52t55 -145q0 -118 -77.5 -190t-207.5 -72h-72l-31 -226q-2 -15 -17 -15h-128zM244 381h67q56 0 86.5 27t30.5 74q0 78 -92 78h-67z" glyph-name="afii10034" horiz-adv-x="582" unicode="Р"/><glyph d="M374 -13q-139 0 -227.5 88t-88.5 227q0 164 119.5 285t288.5 121q150 0 235 -104q8 -9 -5 -21l-85 -84q-12 -12 -22 -2q-58 56 -139 56q-96 0 -162.5 -66.5t-66.5 -162.5q0 -82 48.5 -132t126.5 -50q81 0 152 56q14 10 22 -1l67 -85q8 -12 -2 -21q-117 -104 -261 -104z " glyph-name="afii10035" horiz-adv-x="701" unicode="С"/><glyph d="M176 0q-16 0 -14 15l77 545h-133q-16 0 -14 15l15 110q3 15 18 15h425q16 0 14 -15l-16 -110q-2 -15 -17 -15h-133l-77 -545q-2 -15 -17 -15h-128z" glyph-name="afii10036" horiz-adv-x="547" unicode="Т"/><glyph d="M716 700q9 0 11 -5t-4 -13l-483 -672q-7 -10 -19 -10h-134q-19 0 -8 18l194 270l-178 394q-7 18 13 18h135q13 0 17 -10l115 -260l187 260q7 10 19 10h135z" glyph-name="afii10037" horiz-adv-x="696" unicode="У"/><glyph d="M612 640q135 0 208.5 -73t73.5 -181q0 -135 -106.5 -230.5t-254.5 -95.5h-25l-6 -45q-2 -15 -17 -15h-128q-16 0 -14 15l6 45h-24q-134 0 -207.5 73t-73.5 181q0 136 105 231t255 95h27l6 45q2 15 18 15h128q15 0 13 -15l-6 -45h22zM342 200h27l42 300h-26 q-81 0 -130 -48.5t-49 -123.5q0 -59 34 -93.5t102 -34.5zM551 200q86 0 133 51t47 123q0 58 -34.5 92t-102.5 34h-24l-42 -300h23z" glyph-name="afii10038" horiz-adv-x="919" unicode="Ф"/><glyph d="M656 700q8 0 10 -6t-3 -13l-238 -323l154 -340q8 -18 -13 -18h-136q-13 0 -17 10l-90 208l-146 -208q-6 -10 -19 -10h-140q-8 0 -10.5 6t2.5 13l250 340l-147 323q-4 8 0.5 13t13.5 5h134q14 0 18 -10l82 -191l135 191q7 10 19 10h141z" glyph-name="afii10039" horiz-adv-x="654" unicode="Х"/><glyph d="M669 140q14 0 12 -16l-23 -178q-2 -15 -19 -15h-128q-14 0 -12 15l7 54h-459q-15 0 -13 15l94 670q2 15 17 15h128q15 0 13 -15l-76 -545h218l76 545q2 15 17 15h128q16 0 14 -15l-76 -545h82z" glyph-name="afii10040" horiz-adv-x="717" unicode="Ц"/><glyph d="M627 700q16 0 14 -15l-94 -670q-2 -15 -18 -15h-128q-15 0 -13 15l37 261q-82 -92 -194 -92q-91 0 -142 63.5t-35 166.5l39 271q2 15 17 15h128q15 0 13 -15l-33 -233q-16 -112 87 -112q55 0 96.5 34.5t47.5 77.5l33 233q2 15 17 15h128z" glyph-name="afii10041" horiz-adv-x="644" unicode="Ч"/><glyph d="M891 700q16 0 14 -15l-94 -670q-2 -15 -18 -15h-746q-15 0 -13 15l94 670q2 15 17 15h128q15 0 13 -15l-76 -545h151l76 545q2 15 17 15h128q15 0 13 -15l-76 -545h151l76 545q2 15 17 15h128z" glyph-name="afii10042" horiz-adv-x="908" unicode="Ш"/><glyph d="M891 700q16 0 14 -15l-94 -670q-2 -15 -18 -15h-746q-15 0 -13 15l94 670q2 15 17 15h128q15 0 13 -15l-76 -545h151l76 545q2 15 17 15h128q15 0 13 -15l-76 -545h151l76 545q2 15 17 15h128zM1104 140q15 0 15 -16v-178q0 -15 -15 -15h-128q-16 0 -16 15v54h-99v140 h243z" glyph-name="afii10043" horiz-adv-x="1178" unicode="Щ"/><glyph d="M409 459q109 0 162.5 -53.5t53.5 -150.5q0 -117 -73 -186t-203 -69h-223q-15 0 -13 15l76 545h-117q-15 0 -13 15l16 110q2 15 18 15h259q16 0 14 -15l-33 -226h76zM357 140q57 0 86 26.5t29 73.5q0 79 -90 79h-68l-25 -179h68z" glyph-name="afii10044" horiz-adv-x="657" unicode="Ъ"/><glyph d="M47 0q-15 0 -13 15l93 670q3 15 18 15h128q15 0 13 -15l-32 -226h76q109 0 162 -53.5t53 -150.5q0 -117 -72.5 -186t-202.5 -69h-223zM595 0q-15 0 -13 15l94 670q2 15 17 15h128q16 0 14 -15l-94 -670q-2 -15 -18 -15h-128zM210 140h68q57 0 86 26.5t29 73.5 q0 79 -90 79h-68z" glyph-name="afii10045" horiz-adv-x="838" unicode="Ы"/><glyph d="M47 0q-15 0 -13 15l93 670q3 15 18 15h128q15 0 13 -15l-32 -226h76q109 0 162 -53.5t53 -150.5q0 -117 -72.5 -186t-202.5 -69h-223zM210 140h68q57 0 86 26.5t29 73.5q0 79 -90 79h-68z" glyph-name="afii10046" horiz-adv-x="582" unicode="Ь"/><glyph d="M362 708q137 0 226 -88.5t89 -227.5q0 -167 -121 -286t-289 -119q-152 0 -238 102q-10 13 2 24l90 84q11 12 23 0q58 -55 144 -55q70 0 125.5 38.5t81.5 99.5h-246q-16 0 -14 16l16 109q2 15 17 15h242q-14 61 -60 97t-113 36q-79 0 -150 -56q-14 -8 -21 2l-68 85 q-8 12 2 20q117 104 262 104z" glyph-name="afii10047" horiz-adv-x="700" unicode="Э"/><glyph d="M695 708q138 0 227 -88t89 -223q0 -166 -122.5 -288t-290.5 -122q-134 0 -221.5 82t-94.5 211h-53l-37 -265q-2 -15 -17 -15h-128q-15 0 -13 15l93 670q3 15 18 15h128q15 0 13 -15l-37 -265h53q40 125 149 206.5t244 81.5zM619 142q96 0 163 68.5t67 165.5 q0 79 -48.5 128t-125.5 49q-96 0 -163 -68t-67 -165q0 -79 48.5 -128.5t125.5 -49.5z" glyph-name="afii10048" horiz-adv-x="1038" unicode="Ю"/><glyph d="M576 700q15 0 13 -15l-94 -670q-2 -15 -17 -15h-128q-16 0 -14 15l33 226h-37l-152 -231q-7 -10 -18 -10h-135q-10 0 -13 5t3 13l165 243q-105 45 -105 184q0 117 73 186t203 69h223zM388 381l25 179h-68q-57 0 -86 -26.5t-29 -73.5q0 -79 90 -79h68z" glyph-name="afii10049" horiz-adv-x="593" unicode="Я"/><glyph d="M576 490q17 0 14 -15l-64 -460q-3 -15 -19 -15h-110q-17 0 -14 15l4 49q-63 -76 -163 -76q-93 0 -144.5 59t-51.5 157q0 121 75.5 209.5t191.5 88.5q101 0 143 -74l9 47q3 15 18 15h111zM276 127q51 0 87 32.5t43 86.5q7 52 -20 84.5t-77 32.5q-57 0 -93.5 -40t-36.5 -95 q0 -46 26.5 -73.5t70.5 -27.5z" glyph-name="afii10065" horiz-adv-x="613" unicode="а"/><glyph d="M387 502q92 0 145 -60t53 -160q0 -122 -74.5 -208t-189.5 -86q-94 0 -138 65l-5 -38q-2 -15 -18 -15h-123q-14 0 -14 15l71 501q26 184 193 184h147q20 0 28 4.5t14 15.5h118q-9 -89 -44.5 -120.5t-118.5 -31.5h-115q-35 0 -50 -15t-19 -47l-9 -64q58 60 149 60zM306 127 q57 0 92.5 38.5t35.5 94.5q0 47 -26.5 75t-72.5 28q-49 0 -84.5 -32.5t-42.5 -84.5q-7 -54 19.5 -86.5t78.5 -32.5z" glyph-name="afii10066" horiz-adv-x="613" unicode="б"/><glyph d="M418 258q83 -20 83 -96q0 -83 -63.5 -122.5t-162.5 -39.5h-238q-15 0 -13 15l64 460q2 15 17 15h243q67 0 110 -29.5t43 -82.5q0 -87 -83 -120zM314 297q25 0 35.5 12.5t10.5 29.5q0 27 -36 27h-97l-10 -69h97zM308 124q22 0 36.5 12.5t14.5 33.5q0 30 -37 30h-118 l-11 -76h115z" glyph-name="afii10067" horiz-adv-x="546" unicode="в"/><glyph d="M432 490q15 0 13 -15l-14 -93q-2 -16 -17 -16h-188l-49 -351q-2 -15 -18 -15h-122q-14 0 -14 15l65 460q2 15 17 15h327z" glyph-name="afii10068" horiz-adv-x="446" unicode="г"/><glyph d="M692 491q16 0 14 -15l-64 -461q-2 -15 -18 -15h-11l-6 -41q-2 -15 -18 -15h-122q-15 0 -13 15l6 41h-292q-12 -2 -17 -2l-7 -39q-2 -15 -17 -15h-122q-16 0 -14 15l23 158q2 8 8 8h92q2 1 6 1q76 0 89 102l34 248q2 15 17 15h432zM339 124h163l34 243h-155l-25 -181 q-4 -31 -17 -62z" glyph-name="afii10069" horiz-adv-x="691" unicode="д"/><glyph d="M317 502q108 0 162.5 -68.5t40.5 -167.5q-12 -79 -63 -79h-281q12 -76 114 -76q55 0 100 23q15 7 25 -9l29 -48q11 -16 -3 -28q-72 -61 -177 -61t-170.5 62t-65.5 164q0 117 84.5 202.5t204.5 85.5zM300 376q-87 0 -114 -83h202q-1 42 -24.5 62.5t-63.5 20.5z" glyph-name="afii10070" horiz-adv-x="547" unicode="е"/><glyph d="M861 490q10 0 11.5 -5t-5.5 -13l-194 -186l162 -268q5 -8 2 -13t-13 -5h-132q-12 0 -17 8l-106 178l-48 -47l-17 -124q-2 -15 -18 -15h-123q-15 0 -13 15l17 123l-33 42l-162 -172q-8 -8 -19 -8h-144q-10 0 -12 5t5 13l250 263l-154 191q-6 8 -3 13t13 5h147q13 0 18 -8 l120 -155l21 148q2 15 17 15h123q16 0 14 -15l-21 -148l148 155q7 8 20 8h146z" glyph-name="afii10072" horiz-adv-x="901" unicode="ж"/><glyph d="M163 -7q-108 0 -151 65q-10 14 7 31l48 49q14 15 27 4q33 -26 74 -26q28 0 45.5 11.5t17.5 34.5q0 44 -81 44q-24 0 -19 22l7 54q5 23 27 23q74 0 74 37q0 32 -42 32q-25 0 -65 -19q-22 -11 -29 2l-30 49q-9 14 3 27q27 27 69 44.5t88 17.5q61 0 105 -31.5t44 -87.5 q0 -68 -80 -116q64 -33 64 -100q0 -76 -57 -121.5t-146 -45.5z" glyph-name="afii10073" horiz-adv-x="410" unicode="з"/><glyph d="M558 490q16 0 14 -15l-64 -460q-2 -15 -18 -15h-123q-16 0 -14 15l37 266l-172 -271q-7 -10 -19 -10h-162q-15 0 -13 15l64 460q2 15 17 15h123q16 0 14 -15l-37 -262l171 267q7 10 19 10h163z" glyph-name="afii10074" horiz-adv-x="595" unicode="и"/><glyph d="M344 553q-71 0 -109.5 38t-36.5 94q0 15 16 15h60q13 0 15 -14q3 -19 19 -33t46 -14q53 0 74 47q5 14 19 14h62q15 0 12 -15q-9 -56 -57 -94t-120 -38zM558 490q16 0 14 -15l-64 -460q-2 -15 -18 -15h-123q-16 0 -14 15l37 266l-172 -271q-7 -10 -19 -10h-162 q-15 0 -13 15l64 460q2 15 17 15h123q16 0 14 -15l-37 -262l171 267q7 10 19 10h163z" glyph-name="afii10075" horiz-adv-x="595" unicode="й"/><glyph d="M535 490q10 0 11.5 -5t-5.5 -13l-194 -186l162 -268q5 -8 2 -13t-13 -5h-132q-12 0 -17 8l-106 178l-48 -47l-17 -124q-2 -15 -18 -15h-123q-15 0 -13 15l64 460q2 15 17 15h123q16 0 14 -15l-21 -148l148 155q7 8 20 8h146z" glyph-name="afii10076" horiz-adv-x="575" unicode="к"/><glyph d="M610 490q16 0 14 -15l-64 -460q-2 -15 -18 -15h-123q-15 0 -13 15l49 351h-156l-25 -180q-13 -95 -80 -143t-171 -48q-8 0 -11.5 2.5t-2.5 9.5l16 107q2 12 13 12q76 0 89 101l35 248q2 15 17 15h431z" glyph-name="afii10077" horiz-adv-x="647" unicode="л"/><glyph d="M727 490q15 0 13 -15l-64 -460q-2 -15 -17 -15h-123q-16 0 -14 15l27 195l-116 -199q-6 -11 -18 -11h-128q-13 0 -16 11l-65 204l-28 -200q-2 -15 -18 -15h-123q-15 0 -13 15l64 460q2 15 17 15h144q13 0 16 -11l105 -320l190 320q5 11 18 11h149z" glyph-name="afii10078" horiz-adv-x="764" unicode="м"/><glyph d="M567 490q16 0 14 -15l-64 -460q-2 -15 -18 -15h-123q-15 0 -13 15l22 156h-185l-22 -156q-2 -15 -18 -15h-123q-15 0 -13 15l64 460q2 15 17 15h123q16 0 14 -15l-25 -179h185l25 179q2 15 17 15h123z" glyph-name="afii10079" horiz-adv-x="605" unicode="н"/><glyph d="M255 -12q-102 0 -164.5 62.5t-62.5 159.5q0 119 87 205.5t208 86.5q102 0 164.5 -62.5t62.5 -159.5q0 -119 -87 -205.5t-208 -86.5zM274 128q52 0 89.5 36t37.5 95q0 48 -27 75.5t-70 27.5q-52 0 -89.5 -36t-37.5 -95q0 -48 27 -75.5t70 -27.5z" glyph-name="afii10080" horiz-adv-x="578" unicode="о"/><glyph d="M571 490q16 0 14 -15l-64 -460q-2 -15 -18 -15h-123q-16 0 -14 15l48 346h-188l-48 -346q-2 -15 -18 -15h-123q-15 0 -13 15l64 460q2 15 17 15h466z" glyph-name="afii10081" horiz-adv-x="608" unicode="п"/><glyph d="M387 502q92 0 145 -60t53 -160q0 -122 -74.5 -208t-189.5 -86q-95 0 -138 65l-32 -228q-2 -15 -18 -15h-123q-16 0 -14 15l92 650q2 15 17 15h111q16 0 14 -15l-4 -46q62 73 161 73zM306 127q57 0 92.5 38.5t35.5 94.5q0 47 -26.5 75t-72.5 28q-49 0 -84.5 -32.5 t-42.5 -84.5q-7 -54 19.5 -86.5t78.5 -32.5z" glyph-name="afii10082" horiz-adv-x="613" unicode="р"/><glyph d="M258 -12q-102 0 -165 64t-63 164q0 117 83.5 201.5t201.5 84.5q122 0 183 -88q8 -13 -3 -22l-76 -67q-17 -14 -28 -1q-36 38 -86 38q-55 0 -91 -39t-36 -92q0 -45 28 -74t78 -29t91 38q14 12 27 -2l54 -64q10 -12 -1 -23q-82 -89 -197 -89z" glyph-name="afii10083" horiz-adv-x="513" unicode="с"/><glyph d="M457 490q15 0 13 -15l-13 -98q-2 -16 -18 -16h-108l-48 -346q-2 -15 -18 -15h-122q-15 0 -13 15l48 346h-108q-14 0 -12 16l13 98q2 15 17 15h369z" glyph-name="afii10084" horiz-adv-x="476" unicode="т"/><glyph d="M97 -190q-20 0 -11 18l94 173l-120 472q-6 17 14 17h124q15 0 18 -12l63 -302l154 302q6 12 20 12h123q20 0 11 -17l-352 -651q-6 -12 -20 -12h-118z" glyph-name="afii10085" horiz-adv-x="581" unicode="у"/><glyph d="M705 504q84 0 137.5 -61.5t53.5 -157.5q0 -118 -79 -207t-185 -89q-75 0 -123 50l-30 -214q-2 -15 -17 -15h-122q-16 0 -14 15l30 214q-62 -50 -137 -50q-84 0 -137.5 61.5t-53.5 155.5q0 116 79.5 207t184.5 91q73 0 122 -52l30 213q2 16 18 16h122q15 0 13 -16 l-30 -214q63 53 138 53zM267 129q47 0 79.5 34t38.5 83q7 50 -16 84t-68 34q-53 0 -89 -42.5t-36 -95.5q0 -43 25.5 -70t65.5 -27zM624 129q52 0 88 41t36 95q0 44 -25 71.5t-66 27.5q-45 0 -77 -32t-41 -79l-2 -12q-4 -48 19.5 -80t67.5 -32z" glyph-name="afii10086" horiz-adv-x="925" unicode="ф"/><glyph d="M5 0q-10 0 -12 5.5t4 13.5l178 232l-109 221q-4 7 0 12.5t13 5.5h133q14 0 17 -10l53 -121l89 121q7 10 19 10h132q10 0 12.5 -5.5t-3.5 -13.5l-173 -219l115 -234q4 -8 0.5 -13t-12.5 -5h-134q-13 0 -17 10l-58 134l-94 -134q-6 -10 -19 -10h-134z" glyph-name="afii10087" horiz-adv-x="534" unicode="х"/><glyph d="M606 124q16 0 14 -15l-23 -149q-2 -16 -17 -16h-120q-16 0 -14 16l7 40h-416q-15 0 -13 15l64 460q2 15 17 15h123q16 0 14 -15l-48 -346h188l48 346q2 15 18 15h123q16 0 14 -15l-49 -351h70z" glyph-name="afii10088" horiz-adv-x="656" unicode="ц"/><glyph d="M553 490q16 0 14 -15l-64 -460q-2 -15 -18 -15h-123q-15 0 -13 15l18 129q-61 -61 -159 -61q-92 0 -138 56.5t-30 171.5l23 164q3 15 17 15h122q16 0 14 -15l-21 -151q-7 -45 12.5 -75t68.5 -30q48 0 79 30.5t37 73.5l21 152q2 15 17 15h123z" glyph-name="afii10089" horiz-adv-x="591" unicode="ч"/><glyph d="M762 490q16 0 14 -15l-64 -460q-2 -15 -18 -15h-657q-15 0 -13 15l64 460q2 15 17 15h123q16 0 14 -15l-48 -346h113l48 346q2 15 17 15h123q16 0 14 -15l-48 -346h113l48 346q2 15 17 15h123z" glyph-name="afii10090" horiz-adv-x="800" unicode="ш"/><glyph d="M798 124q15 0 13 -15l-22 -149q-2 -16 -18 -16h-119q-16 0 -14 16l6 40h-607q-15 0 -13 15l64 460q2 15 17 15h123q16 0 14 -15l-48 -346h113l48 346q2 15 17 15h123q16 0 14 -15l-48 -346h113l48 346q2 15 17 15h123q16 0 14 -15l-49 -351h71z" glyph-name="afii10091" horiz-adv-x="847" unicode="щ"/><glyph d="M364 351q176 0 176 -152q0 -92 -58.5 -145.5t-163.5 -53.5h-263q-15 0 -13 15l49 351h-47q-15 0 -13 16l14 93q2 15 18 15h183q16 0 14 -15l-17 -124h121zM311 119q81 0 81 63q0 27 -16 38.5t-49 11.5h-101l-16 -113h101z" glyph-name="afii10092" horiz-adv-x="580" unicode="ъ"/><glyph d="M346 351q176 0 176 -152q0 -92 -58.5 -145.5t-163.5 -53.5h-263q-15 0 -13 15l64 460q2 15 17 15h123q16 0 14 -15l-17 -124h121zM777 490q16 0 14 -15l-64 -460q-2 -15 -18 -15h-123q-15 0 -13 15l64 460q2 15 17 15h123zM293 119q81 0 81 63q0 27 -16 38.5t-49 11.5 h-101l-16 -113h101z" glyph-name="afii10093" horiz-adv-x="815" unicode="ы"/><glyph d="M346 351q176 0 176 -152q0 -92 -58.5 -145.5t-163.5 -53.5h-263q-15 0 -13 15l64 460q2 15 17 15h123q16 0 14 -15l-17 -124h121zM293 119q81 0 81 63q0 27 -16 38.5t-49 11.5h-101l-16 -113h101z" glyph-name="afii10094" horiz-adv-x="562" unicode="ь"/><glyph d="M262 502q98 0 159.5 -61.5t61.5 -158.5q0 -119 -88 -206.5t-210 -87.5q-116 0 -175 89q-7 10 5 21l75 68q15 13 25 1q30 -39 85 -39q80 0 117 66h-130q-17 0 -14 15l13 70q3 15 18 15h127q-18 68 -96 68q-47 0 -93 -38q-15 -13 -27 1l-57 66q-9 11 0 22q84 89 204 89z " glyph-name="afii10095" horiz-adv-x="511" unicode="э"/><glyph d="M553 502q102 0 164.5 -62.5t62.5 -159.5q0 -119 -87 -205.5t-208 -86.5q-94 0 -154.5 54t-70.5 140h-59l-23 -168q-2 -15 -18 -15h-123q-15 0 -13 15l64 460q2 15 17 15h123q16 0 14 -15l-23 -168h57q31 86 106.5 141t170.5 55zM504 128q52 0 89.5 36t37.5 95 q0 48 -27 75.5t-70 27.5q-52 0 -89.5 -36t-37.5 -95q0 -48 27 -75.5t70 -27.5z" glyph-name="afii10096" horiz-adv-x="808" unicode="ю"/><glyph d="M524 490q16 0 14 -15l-64 -460q-2 -15 -18 -15h-123q-15 0 -13 15l17 124h-41l-117 -131q-7 -8 -19 -8h-125q-10 0 -12.5 5t3.5 13l118 129q-104 26 -104 144q0 92 58 145.5t163 53.5h263zM269 371q-81 0 -81 -63q0 -27 15.5 -38.5t49.5 -11.5h101l16 113h-101z" glyph-name="afii10097" horiz-adv-x="562" unicode="я"/><glyph d="M194 583q-29 0 -48 19t-19 49q0 34 26 59t60 25q29 0 48 -19t19 -48q0 -34 -26 -59.5t-60 -25.5zM423 583q-29 0 -48 19t-19 49q0 34 26 59t60 25q29 0 48 -19t19 -48q0 -34 -26 -59.5t-60 -25.5zM317 502q108 0 162.5 -68.5t40.5 -167.5q-12 -79 -63 -79h-281 q12 -76 114 -76q55 0 100 23q15 7 25 -9l29 -48q11 -16 -3 -28q-72 -61 -177 -61t-170.5 62t-65.5 164q0 117 84.5 202.5t204.5 85.5zM300 376q-87 0 -114 -83h202q-1 42 -24.5 62.5t-63.5 20.5z" glyph-name="afii10071" horiz-adv-x="547" unicode="ё"/><glyph d="M212 557q-8 0 -10.5 5.5t1.5 11.5l79 114q8 12 19 12h110q7 0 9.5 -5.5t-1.5 -11.5l-79 -114q-8 -12 -20 -12h-108zM432 490q15 0 13 -15l-14 -93q-2 -16 -17 -16h-188l-49 -351q-2 -15 -18 -15h-122q-14 0 -14 15l65 460q2 15 17 15h327z" glyph-name="afii10100" horiz-adv-x="446" unicode="ѓ"/><glyph d="M498 414q8 -13 -3 -22l-76 -67q-17 -14 -28 -1q-36 38 -86 38q-76 0 -112 -68h138q17 0 14 -15l-13 -70q-3 -15 -17 -15h-131q22 -66 100 -66q50 0 91 38q14 12 27 -2l54 -64q10 -12 -1 -23q-82 -89 -197 -89q-102 0 -165 64t-63 164q0 117 83.5 201.5t201.5 84.5 q122 0 183 -88z" glyph-name="afii10101" horiz-adv-x="513" unicode="є"/><glyph d="M193 568q-36 0 -60 24.5t-24 59.5t24 59t60 24q35 0 58.5 -24t23.5 -59t-23.5 -59.5t-58.5 -24.5zM41 0q-17 0 -14 15l64 460q3 15 18 15h123q17 0 14 -15l-64 -460q-3 -15 -18 -15h-123z" glyph-name="afii10103" horiz-adv-x="270" unicode="і"/><glyph d="M62 553q-29 0 -48 19t-19 49q0 34 26 59t60 25q29 0 48 -19t19 -48q0 -34 -26 -59.5t-60 -25.5zM291 553q-29 0 -48 19t-19 49q0 34 26 59t60 25q29 0 48 -19t19 -48q0 -34 -26 -59.5t-60 -25.5zM35 0q-15 0 -13 15l64 460q2 15 17 15h123q16 0 14 -15l-64 -460 q-2 -15 -18 -15h-123z" glyph-name="afii10104" horiz-adv-x="261" unicode="ї"/><glyph d="M276 557q-8 0 -10.5 5.5t1.5 11.5l79 114q8 12 19 12h110q7 0 9.5 -5.5t-1.5 -11.5l-79 -114q-8 -12 -20 -12h-108zM535 490q10 0 11.5 -5t-5.5 -13l-194 -186l162 -268q5 -8 2 -13t-13 -5h-132q-12 0 -17 8l-106 178l-48 -47l-17 -124q-2 -15 -18 -15h-123q-15 0 -13 15 l64 460q2 15 17 15h123q16 0 14 -15l-21 -148l148 155q7 8 20 8h146z" glyph-name="afii10109" horiz-adv-x="575" unicode="ќ"/><glyph d="M422 686q5 14 19 14h62q15 0 12 -15q-9 -56 -57 -94t-120 -38q-71 0 -109.5 38t-36.5 94q0 15 16 15h60q13 0 15 -14q3 -19 19 -33t46 -14q53 0 74 47zM97 -190q-20 0 -11 18l94 173l-120 472q-6 17 14 17h124q15 0 18 -12l63 -302l154 302q6 12 20 12h123q20 0 11 -17 l-352 -651q-6 -12 -20 -12h-118z" glyph-name="afii10110" horiz-adv-x="581" unicode="ў"/><glyph d="M529 751q16 0 14 -15l-24 -161q-2 -15 -17 -15h-234l-76 -545q-2 -15 -17 -15h-128q-15 0 -13 15l94 670q2 15 17 15h253l5 36q2 15 17 15h109z" glyph-name="afii10050" horiz-adv-x="504" unicode="Ґ"/><glyph d="M441 552q16 0 14 -15l-24 -155q-2 -16 -17 -16h-188l-49 -351q-2 -15 -18 -15h-122q-14 0 -14 15l65 460q2 15 17 15h190l7 47q2 15 17 15h122z" glyph-name="afii10098" horiz-adv-x="447" unicode="ґ"/><glyph d="M529 779l-60 114q-4 8 0 12.5t13 4.5h108q10 0 17 -12l61 -114q4 -8 0 -12.5t-13 -4.5h-108q-10 0 -18 12zM1102 700q17 0 10 -17l-292 -671q-4 -12 -21 -12h-134q-17 0 -19 12l-70 487l-206 -487q-3 -12 -20 -12h-135q-17 0 -19 12l-102 671q-3 17 13 17h134 q14 0 15 -12l62 -468l205 468q5 12 19 12h124q17 0 18 -12l74 -465l192 465q5 12 19 12h133z" glyph-name="Wgrave" horiz-adv-x="1081" unicode="Ẁ"/><glyph d="M354 700h108q10 0 17 -12l61 -114q4 -8 0 -12.5t-13 -4.5h-108q-10 0 -18 12l-60 114q-4 8 0 12.5t13 4.5zM163 0q-14 0 -17 12l-87 461q-5 17 14 17h118q17 0 18 -12l47 -300l140 300q6 12 19 12h119q14 0 17 -12l57 -300l131 300q6 12 20 12h120q18 0 10 -17l-215 -461 q-6 -12 -19 -12h-126q-14 0 -17 12l-60 300l-144 -300q-6 -12 -19 -12h-126z" glyph-name="wgrave" horiz-adv-x="884" unicode="ẁ"/><glyph d="M559 767q-8 0 -10.5 5.5t1.5 11.5l79 114q8 12 19 12h110q7 0 9.5 -5.5t-1.5 -11.5l-79 -114q-8 -12 -20 -12h-108zM1102 700q17 0 10 -17l-292 -671q-4 -12 -21 -12h-134q-17 0 -19 12l-70 487l-206 -487q-3 -12 -20 -12h-135q-17 0 -19 12l-102 671q-3 17 13 17h134 q14 0 15 -12l62 -468l205 468q5 12 19 12h124q17 0 18 -12l74 -465l192 465q5 12 19 12h133z" glyph-name="Wacute" horiz-adv-x="1081" unicode="Ẃ"/><glyph d="M630 700q7 0 9.5 -5.5t-1.5 -11.5l-79 -114q-8 -12 -20 -12h-108q-8 0 -10.5 5.5t1.5 11.5l79 114q8 12 19 12h110zM163 0q-14 0 -17 12l-87 461q-5 17 14 17h118q17 0 18 -12l47 -300l140 300q6 12 19 12h119q14 0 17 -12l57 -300l131 300q6 12 20 12h120q18 0 10 -17 l-215 -461q-6 -12 -19 -12h-126q-14 0 -17 12l-60 300l-144 -300q-6 -12 -19 -12h-126z" glyph-name="wacute" horiz-adv-x="884" unicode="ẃ"/><glyph d="M500 763q-29 0 -48 19t-19 49q0 34 26 59t60 25q29 0 48 -19t19 -48q0 -34 -26 -59.5t-60 -25.5zM729 763q-29 0 -48 19t-19 49q0 34 26 59t60 25q29 0 48 -19t19 -48q0 -34 -26 -59.5t-60 -25.5zM1102 700q17 0 10 -17l-292 -671q-4 -12 -21 -12h-134q-17 0 -19 12 l-70 487l-206 -487q-3 -12 -20 -12h-135q-17 0 -19 12l-102 671q-3 17 13 17h134q14 0 15 -12l62 -468l205 468q5 12 19 12h124q17 0 18 -12l74 -465l192 465q5 12 19 12h133z" glyph-name="Wdieresis" horiz-adv-x="1081" unicode="Ẅ"/><glyph d="M372 553q-29 0 -48 19t-19 49q0 34 26 59t60 25q29 0 48 -19t19 -48q0 -34 -26 -59.5t-60 -25.5zM601 553q-29 0 -48 19t-19 49q0 34 26 59t60 25q29 0 48 -19t19 -48q0 -34 -26 -59.5t-60 -25.5zM163 0q-14 0 -17 12l-87 461q-5 17 14 17h118q17 0 18 -12l47 -300 l140 300q6 12 19 12h119q14 0 17 -12l57 -300l131 300q6 12 20 12h120q18 0 10 -17l-215 -461q-6 -12 -19 -12h-126q-14 0 -17 12l-60 300l-144 -300q-6 -12 -19 -12h-126z" glyph-name="wdieresis" horiz-adv-x="884" unicode="ẅ"/><glyph d="M552 320q90 -51 90 -143q0 -84 -63 -136.5t-154 -52.5q-60 0 -109 23.5t-75 63.5q-8 12 6 29l53 60q14 15 25 5q60 -47 101 -47q26 0 42 12t16 33q0 28 -39 51l-59 37q-43 27 -64 57t-21 73q0 60 37 104t98 63q-27 18 -62 18q-47 0 -79.5 -26.5t-39.5 -77.5l-63 -451 q-2 -15 -17 -15h-128q-15 0 -13 15l66 473q15 105 94 158.5t191 53.5q134 0 195 -66l-25 -186l1 -2h-48q-27 0 -42 -12.5t-15 -31.5q0 -22 33 -42z" glyph-name="uni1E9E" horiz-adv-x="685" unicode="ẞ"/><glyph d="M307 779l-60 114q-4 8 0 12.5t13 4.5h108q10 0 17 -12l61 -114q4 -8 0 -12.5t-13 -4.5h-108q-10 0 -18 12zM655 700q20 0 7 -18l-254 -364l-42 -303q-2 -15 -17 -15h-128q-15 0 -13 15l42 305l-155 362q-4 8 0 13t13 5h134q13 0 17 -10l87 -224l153 224q7 10 19 10h137z " glyph-name="Ygrave" horiz-adv-x="634" unicode="Ỳ"/><glyph d="M202 700h108q10 0 17 -12l61 -114q4 -8 0 -12.5t-13 -4.5h-108q-10 0 -18 12l-60 114q-4 8 0 12.5t13 4.5zM97 -190q-20 0 -11 18l94 173l-120 472q-6 17 14 17h124q15 0 18 -12l63 -302l154 302q6 12 20 12h123q20 0 11 -17l-352 -651q-6 -12 -20 -12h-118z" glyph-name="ygrave" horiz-adv-x="581" unicode="ỳ"/><glyph d="M556 337q15 0 13 -15l-13 -93q-2 -15 -17 -15h-479q-16 0 -14 15l13 93q2 15 18 15h479z" glyph-name="endash" horiz-adv-x="607" unicode="–"/><glyph d="M616 337q15 0 13 -15l-13 -93q-2 -15 -17 -15h-539q-16 0 -14 15l13 93q2 15 18 15h539z" glyph-name="emdash" horiz-adv-x="667" unicode="—"/><glyph d="M281 715l-6 -34q-51 1 -88 -44q-24 -29 -14 -39q3 -3 8 -3q32 0 54 -22t22 -56q0 -39 -29.5 -69t-72.5 -30q-37 0 -62 25t-25 73q0 80 67.5 142t145.5 57z" glyph-name="quoteleft" horiz-adv-x="248" unicode="‘"/><glyph d="M58 421l6 34q51 -1 89 43q24 29 13 39q-3 3 -8 3q-32 0 -54 22.5t-22 56.5q0 39 29.5 69t72.5 30q37 0 62.5 -25.5t25.5 -72.5q0 -81 -68 -142.5t-146 -56.5z" glyph-name="quoteright" horiz-adv-x="249" unicode="’"/><glyph d="M-10 -130l7 34q51 -1 88 43q25 30 13 40q-2 2 -7 2q-33 0 -55 22.5t-22 56.5q0 39 30 69t73 30q37 0 62 -25t25 -73q0 -81 -68 -142.5t-146 -56.5z" glyph-name="quotesinglbase" horiz-adv-x="269" unicode="‚"/><glyph d="M281 715l-6 -34q-51 1 -88 -44q-24 -29 -14 -39q3 -3 8 -3q32 0 54 -22t22 -56q0 -39 -29.5 -69t-72.5 -30q-37 0 -62 25t-25 73q0 80 67.5 142t145.5 57zM506 715l-7 -34q-51 1 -88 -44q-24 -29 -14 -39q3 -3 8 -3q33 0 55 -22t22 -56q0 -39 -30 -69t-73 -30 q-37 0 -62 25t-25 73q0 81 68 142.5t146 56.5z" glyph-name="quotedblleft" horiz-adv-x="472" unicode="“"/><glyph d="M58 421l6 34q51 -1 89 43q24 29 13 39q-3 3 -8 3q-32 0 -54 22.5t-22 56.5q0 39 29.5 69t72.5 30q37 0 62.5 -25.5t25.5 -72.5q0 -81 -68 -142.5t-146 -56.5zM283 421l6 34q51 -1 88 43q25 30 13 40q-2 2 -7 2q-32 0 -54 22.5t-22 56.5q0 39 29.5 69t72.5 30q37 0 62 -25 t25 -73q0 -80 -67.5 -142t-145.5 -57z" glyph-name="quotedblright" horiz-adv-x="474" unicode="”"/><glyph d="M-10 -130l7 34q51 -1 88 43q25 30 13 40q-2 2 -7 2q-33 0 -55 22.5t-22 56.5q0 39 30 69t73 30q37 0 62 -25t25 -73q0 -81 -68 -142.5t-146 -56.5zM215 -130l6 34q51 -1 89 43q24 29 13 39q-3 3 -8 3q-32 0 -54 22.5t-22 56.5q0 39 29.5 69t72.5 30q37 0 62.5 -25 t25.5 -73q0 -81 -68 -142.5t-146 -56.5z" glyph-name="quotedblbase" horiz-adv-x="494" unicode="„"/><glyph d="M462 572q15 0 13 -15l-11 -81q-2 -15 -17 -15h-114l-15 -112q-2 -16 -18 -16h-80q-15 0 -13 16l16 112h-112q-16 0 -14 15l12 81q2 15 17 15h112l16 113q2 15 17 15h80q15 0 13 -15l-15 -113h113z" glyph-name="dagger" horiz-adv-x="497" unicode="†"/><glyph d="M462 572q15 0 13 -15l-11 -81q-2 -15 -17 -15h-114l-15 -112q-2 -16 -18 -16h-80q-15 0 -13 16l16 112h-112q-16 0 -14 15l12 81q2 15 17 15h112l16 113q2 15 17 15h80q15 0 13 -15l-15 -113h113zM403 147q15 0 13 -16l-12 -80q0 -15 -17 -15h-113l-16 -113 q-2 -15 -17 -15h-80q-15 0 -13 15l15 113h-112q-15 0 -13 15l11 80q2 16 18 16h112l15 113q2 15 18 15h80q15 0 13 -15l-16 -113h114z" glyph-name="daggerdbl" horiz-adv-x="497" unicode="‡"/><glyph d="M163 165q-41 0 -68 27t-27 68q0 49 38 87t88 38q40 0 67.5 -27.5t27.5 -67.5q0 -49 -38 -87t-88 -38z" glyph-name="bullet" horiz-adv-x="349" unicode="•"/><glyph d="M105 -13q-37 0 -63 26t-26 63q0 38 26 64.5t63 26.5t63.5 -26.5t26.5 -64.5q0 -37 -26.5 -63t-63.5 -26zM346 -13q-37 0 -63.5 26t-26.5 63q0 38 26.5 64.5t63.5 26.5t63 -26.5t26 -64.5q0 -37 -26 -63t-63 -26zM587 -13q-37 0 -63.5 26t-26.5 63q0 38 26.5 64.5 t63.5 26.5t63 -26.5t26 -64.5q0 -37 -26 -63t-63 -26z" glyph-name="ellipsis" horiz-adv-x="740" unicode="…"/><glyph d="M220 433q-55 0 -90 34.5t-35 88.5q0 61 44.5 105t106.5 44q55 0 90 -34.5t35 -88.5q0 -61 -44.5 -105t-106.5 -44zM147 9l-54 39q-12 9 -3 22l499 617q10 13 22 4l53 -39q12 -10 3 -22l-499 -617q-8 -11 -21 -4zM230 530q16 0 28.5 12t12.5 30q0 15 -10.5 25.5 t-25.5 10.5q-17 0 -28 -11.5t-11 -30.5q0 -16 10 -26t24 -10zM511 -5q-55 0 -90 34.5t-35 88.5q0 61 44.5 105t106.5 44q55 0 90 -34.5t35 -88.5q0 -61 -44.5 -105t-106.5 -44zM832 -5q-56 0 -90.5 34.5t-34.5 88.5q0 62 44 105.5t106 43.5q56 0 91 -34.5t35 -88.5 q0 -61 -44.5 -105t-106.5 -44zM521 92q16 0 28.5 12t12.5 30q0 15 -10.5 25.5t-25.5 10.5q-17 0 -28 -11.5t-11 -29.5q0 -16 10 -26.5t24 -10.5zM842 92q16 0 28 12t12 30q0 16 -10.5 26t-25.5 10q-16 0 -27.5 -11.5t-11.5 -29.5q0 -16 10 -26.5t25 -10.5z" glyph-name="perthousand" horiz-adv-x="1049" unicode="‰"/><glyph d="M171 120q-2 -9 -8.5 -11t-12.5 4l-103 93q-8 5 -6 17l13 96q2 13 10 18l130 92q8 5 14 3.5t4 -10.5l-11 -80q-2 -12 -10 -18l-77 -52l62 -53q8 -6 6 -18z" glyph-name="guilsinglleft" horiz-adv-x="231" unicode="‹"/><glyph d="M68 422q1 9 8 11t12 -4l104 -92q8 -6 6 -18l-13 -96q-2 -11 -10 -17l-130 -93q-8 -5 -14 -3.5t-5 10.5l12 80q2 14 10 19l77 52l-62 52q-8 6 -6 19z" glyph-name="guilsinglright" horiz-adv-x="231" unicode="›"/><glyph d="M377 700l-508 -700h-63l508 700h63z" glyph-name="fraction" horiz-adv-x="153" unicode="⁄"/><glyph d="M736 604q8 -9 -5 -21l-85 -84q-12 -12 -22 -2q-58 56 -139 56q-60 0 -111 -28.5t-82 -76.5h120q16 0 14 -16l-8 -56q-2 -15 -18 -15h-141q-3 -17 -3 -34h138q16 0 14 -16l-8 -56q-2 -16 -17 -16h-110q20 -46 61.5 -71.5t96.5 -25.5q81 0 152 56q14 10 22 -1l67 -85 q8 -12 -2 -21q-117 -104 -261 -104q-122 0 -206.5 69t-104.5 183h-59q-15 0 -13 16l8 56q2 16 17 16h43l3 34h-40q-15 0 -13 15l8 56q2 16 17 16h52q45 114 148.5 187t231.5 73q151 0 235 -104z" glyph-name="Euro" horiz-adv-x="736" unicode="€"/><glyph d="M298 700q4 0 4 -5l-5 -33q0 -5 -6 -5h-56l-19 -132q0 -5 -5 -5h-41q-5 0 -5 5l19 132h-57q-3 0 -3 5l4 33q0 5 6 5h164zM547 700q4 0 4 -5l-24 -170q0 -5 -5 -5h-41q-5 0 -5 5l13 90l-52 -92q-1 -3 -6 -3h-26q-5 0 -6 3l-25 92l-13 -90q0 -5 -5 -5h-41q-5 0 -5 5l24 170 q0 5 6 5h45q5 0 6 -3l35 -113l71 113q1 3 5 3h45z" glyph-name="trademark" horiz-adv-x="553" unicode="™"/><glyph d="M189 701l-36 -261h-57l28 206h-28l8 55h85zM607 700l-508 -700h-63l508 700h63zM492 -4q-51 0 -74 24t-17 68h56q-6 -43 39 -43q21 0 35.5 9t14.5 27q0 30 -61 30l7 42q59 0 59 32q0 29 -37 29t-43 -41h-56q4 45 32.5 67.5t73.5 22.5q39 0 64 -17.5t25 -46.5 q0 -20 -13.5 -37.5t-34.5 -24.5q42 -19 42 -60q0 -38 -32 -59.5t-80 -21.5z" glyph-name="onethird" horiz-adv-x="669" unicode="⅓"/><glyph d="M189 701l-36 -261h-57l28 206h-28l8 55h85zM589 700l-508 -700h-63l508 700h63zM418 -4q-34 0 -58.5 17.5t-24.5 49.5q0 29 16 49.5t40 29.5q-26 12 -26 42q0 31 24.5 55t67.5 24q35 0 53 -16.5t18 -41.5q0 -45 -40 -63q36 -18 36 -56q0 -42 -32.5 -66t-73.5 -24z M443 166q15 0 24.5 9t9.5 21q0 9 -7 16t-20 7q-16 0 -24.5 -9.5t-8.5 -21.5q0 -22 26 -22zM425 43q20 0 33 11.5t13 28.5q0 15 -9.5 24.5t-26.5 9.5q-20 0 -32.5 -13t-12.5 -30q0 -31 35 -31z" glyph-name="oneeighth" horiz-adv-x="591" unicode="⅛"/><glyph d="M171 436q-51 0 -74 24t-17 68h56q-6 -43 39 -43q21 0 35.5 9t14.5 27q0 30 -61 30l7 42q59 0 59 32q0 29 -37 29t-43 -41h-56q4 45 32.5 67.5t73.5 22.5q39 0 64 -17.5t25 -46.5q0 -20 -13.5 -37.5t-34.5 -24.5q42 -19 42 -60q0 -38 -32 -59.5t-80 -21.5zM612 700 l-508 -700h-63l508 700h63zM439 -4q-34 0 -58.5 17.5t-24.5 49.5q0 29 16 49.5t40 29.5q-26 12 -26 42q0 31 24.5 55t67.5 24q35 0 53 -16.5t18 -41.5q0 -45 -40 -63q36 -18 36 -56q0 -42 -32.5 -66t-73.5 -24zM464 166q16 0 25 9t9 21q0 9 -7 16t-20 7q-16 0 -24.5 -9.5 t-8.5 -21.5q0 -22 26 -22zM446 43q20 0 33 11.5t13 28.5q0 15 -9.5 24.5t-26.5 9.5q-20 0 -32.5 -13t-12.5 -30q0 -31 35 -31z" glyph-name="threeeighths" horiz-adv-x="608" unicode="⅜"/><glyph d="M279 701l-8 -53h-107l-9 -38q14 9 40 9q37 0 60.5 -21t23.5 -56q0 -47 -34 -76.5t-83 -29.5q-39 0 -61 18.5t-25 43.5l53 22q2 -16 12 -26t28 -10q23 0 37.5 15t14.5 35q0 16 -11.5 26t-30.5 10q-28 0 -41 -22l-47 12l38 141h150zM612 700l-508 -700h-63l508 700h63z M441 -4q-34 0 -58.5 17.5t-24.5 49.5q0 29 16 49.5t40 29.5q-26 12 -26 42q0 31 24.5 55t67.5 24q35 0 53 -16.5t18 -41.5q0 -45 -40 -63q36 -18 36 -56q0 -42 -32.5 -66t-73.5 -24zM466 166q16 0 25 9t9 21q0 9 -7 16t-20 7q-16 0 -24.5 -9.5t-8.5 -21.5q0 -22 26 -22z M448 43q20 0 33 11.5t13 28.5q0 15 -9.5 24.5t-26.5 9.5q-20 0 -32.5 -13t-12.5 -30q0 -31 35 -31z" glyph-name="fiveeighths" horiz-adv-x="610" unicode="⅝"/><glyph d="M289 701l-143 -261h-61l115 206h-104l8 55h185zM590 700l-508 -700h-63l508 700h63zM419 -4q-34 0 -58.5 17.5t-24.5 49.5q0 29 16 49.5t40 29.5q-26 12 -26 42q0 31 24.5 55t67.5 24q35 0 53 -16.5t18 -41.5q0 -45 -40 -63q36 -18 36 -56q0 -42 -32.5 -66t-73.5 -24z M444 166q16 0 25 9t9 21q0 9 -7 16t-20 7q-16 0 -24.5 -9.5t-8.5 -21.5q0 -22 26 -22zM426 43q20 0 33 11.5t13 28.5q0 15 -9.5 24.5t-26.5 9.5q-20 0 -32.5 -13t-12.5 -30q0 -31 35 -31z" glyph-name="seveneighths" horiz-adv-x="583" unicode="⅞"/><glyph d="M473 442q63 -93 63 -176q0 -113 -86.5 -196t-202.5 -83q-96 0 -158.5 58t-62.5 149q0 106 70.5 183.5t178.5 92.5l-105 151q-7 12 6 22l94 73q12 9 21 -3zM266 127q50 0 85.5 36.5t35.5 88.5q0 40 -25 65t-65 25q-50 0 -85 -37t-35 -89q0 -40 24 -64.5t65 -24.5z" glyph-name="partialdiff" horiz-adv-x="566" unicode="∂"/><glyph d="M115 685q3 15 18 15h597q15 0 13 -15l-121 -860q-2 -15 -17 -15h-110q-15 0 -13 15l104 736h-347l-104 -736q-2 -15 -18 -15h-109q-16 0 -14 15z" glyph-name="product" horiz-adv-x="734" unicode="∏"/><glyph d="M685 700q15 0 13 -15l-17 -111q-2 -15 -17 -15h-387l227 -293q8 -11 -3 -22l-307 -293h385q15 0 13 -15l-15 -111q-2 -15 -17 -15h-552q-16 0 -14 15l17 116q1 11 9 18l310 299l-228 293q-5 7 -3 18l16 116q3 15 18 15h552z" glyph-name="summation" horiz-adv-x="689" unicode="∑"/><glyph d="M450 341q16 0 14 -16l-12 -80q-2 -15 -17 -15h-356q-16 0 -14 15l12 80q2 16 17 16h356z" glyph-name="minus" horiz-adv-x="517" unicode="−"/><glyph d="M704 700q17 0 11 -17l-356 -860q-5 -13 -18 -13h-137q-14 0 -15 12l-50 370h-101q-15 0 -13 15l16 107q2 15 17 15h182q14 0 15 -13l38 -344l293 715q5 13 18 13h100z" glyph-name="radical" horiz-adv-x="684" unicode="√"/><glyph d="M637 429q69 0 115 -40.5t46 -107.5q0 -81 -63 -135t-145 -54q-100 0 -178 90q-104 -90 -202 -90q-70 0 -117 40.5t-47 107.5q0 81 64 135t147 54q99 0 177 -90q104 90 203 90zM233 190q63 0 126 71q-45 70 -107 70q-40 0 -65.5 -24t-25.5 -54q0 -27 19 -45t53 -18z M592 190q41 0 66 24t25 55q0 27 -18.5 44.5t-52.5 17.5q-62 0 -126 -70q43 -71 106 -71z" glyph-name="infinity" horiz-adv-x="841" unicode="∞"/><glyph d="M55 -190q-41 0 -77 16q-11 5 -9 18l14 100q1 9 14 7q34 -6 42 -6q33 0 47 14.5t18 42.5l78 557q24 172 201 172q41 0 77 -16q12 -5 10 -18l-14 -100q-1 -9 -15 -7q-32 6 -42 6q-33 0 -47 -14.5t-18 -42.5l-78 -557q-24 -172 -201 -172z" glyph-name="integral" horiz-adv-x="431" unicode="∫"/><glyph d="M208 439q31 0 58 -12.5t43 -27t36.5 -27t39.5 -12.5q35 0 56 31q5 8 13 8h37q10 0 9 -10q-7 -60 -45.5 -91t-90.5 -31q-40 0 -72 19.5t-57.5 39t-48.5 19.5q-37 0 -55 -30q-6 -9 -13 -9h-37q-11 0 -11 10q8 59 47 91t91 32zM185 279q39 0 70.5 -19.5t57 -39.5t49.5 -20 q35 0 56 31q5 8 12 8h38q10 0 9 -10q-8 -60 -46 -91t-91 -31q-39 0 -71 19.5t-57.5 39t-49.5 19.5q-37 0 -55 -30q-6 -9 -12 -9h-38q-12 0 -10 10q8 59 46.5 91t91.5 32z" glyph-name="approxequal" horiz-adv-x="540" unicode="≈"/><glyph d="M462 425q15 0 13 -15l-11 -80q-2 -16 -18 -16h-128l-21 -58h140q16 0 14 -15l-12 -81q-2 -15 -17 -15h-166l-49 -133q-5 -12 -18 -12h-58q-18 0 -12 17l47 128h-100q-15 0 -13 15l11 81q2 15 17 15h126l21 58h-138q-15 0 -13 16l12 80q2 15 17 15h163l45 124q4 12 18 12 h58q19 0 13 -17l-44 -119h103z" glyph-name="notequal" horiz-adv-x="517" unicode="≠"/><glyph d="M392 172l-311 160q-9 3 -7 16l9 71q1 9 13 16l355 159q8 3 12 0.5t3 -9.5l-12 -93q-1 -9 -13 -14l-238 -96l209 -95q13 -6 12 -16l-14 -90q-3 -16 -18 -9zM40 0q-15 0 -13 16l9 62q2 16 18 16h329q15 0 13 -16l-9 -62q-2 -16 -17 -16h-330z" glyph-name="lessequal" horiz-adv-x="479" unicode="≤"/><glyph d="M132 594l311 -159q8 -5 7 -16l-9 -71q-1 -11 -13 -16l-354 -159q-8 -4 -12.5 -1.5t-3.5 10.5l12 93q1 10 13 13l238 97l-209 94q-13 6 -12 16l14 91q3 17 18 8zM47 0q-16 0 -14 16l10 62q2 16 17 16h329q16 0 14 -16l-10 -62q-2 -16 -17 -16h-329z" glyph-name="greaterequal" horiz-adv-x="491" unicode="≥"/><glyph d="M192 0q-13 0 -16 11l-100 329q-2 9 3 20l192 329q7 11 19 11h169q14 0 15 -11l100 -329q2 -9 -3 -20l-192 -329q-5 -11 -18 -11h-169zM289 91l151 259l-78 259l-151 -259z" glyph-name="lozenge" horiz-adv-x="620" unicode="◊"/><glyph d="M820 581q10 -12 -3 -21l-542 -474q-11 -11 -21 0l-212 246q-10 10 3 21l104 92q5 5 11.5 5t9.5 -5l122 -144l426 375q12 9 21 0z" glyph-name="uni2713" horiz-adv-x="802" unicode="✓"/><glyph glyph-name="uniFEFF" horiz-adv-x="194" unicode="﻿"/><glyph d="M178 553q-29 0 -48 19t-19 49q0 34 26 59t60 25q29 0 48 -19t19 -48q0 -34 -26 -59.5t-60 -25.5zM35 0q-15 0 -13 15l64 460q2 15 17 15h123q16 0 14 -15l-64 -460q-2 -15 -18 -15h-123z" glyph-name="i.aalt" horiz-adv-x="261"/><glyph d="M486 114q11 -6 10 -20l-10 -79q-2 -14 -13.5 -17t-37.5 -3h-7q-93 0 -111 64q-75 -72 -170 -72q-65 0 -101.5 32t-36.5 96q0 77 49 116.5t142 50.5l139 16l4 25q4 31 -11 45t-52 14q-69 0 -80 -48q-2 -9 -15 -9h-108q-16 0 -13 15q14 87 73 124.5t162 37.5 q115 0 162.5 -44.5t33.5 -146.5l-20 -155q-6 -34 11 -42zM165 144q0 -36 51 -36q60 0 102 37l8 56l-118 -16q-43 -7 -43 -41z" glyph-name="a.salt" horiz-adv-x="558"/><glyph d="M262 557q-8 0 -10.5 5.5t1.5 11.5l79 114q8 12 19 12h110q7 0 9.5 -5.5t-1.5 -11.5l-79 -114q-8 -12 -20 -12h-108zM486 114q11 -6 10 -20l-10 -79q-2 -14 -13.5 -17t-37.5 -3h-7q-93 0 -111 64q-75 -72 -170 -72q-65 0 -101.5 32t-36.5 96q0 77 49 116.5t142 50.5 l139 16l4 25q4 31 -11 45t-52 14q-69 0 -80 -48q-2 -9 -15 -9h-108q-16 0 -13 15q14 87 73 124.5t162 37.5q115 0 162.5 -44.5t33.5 -146.5l-20 -155q-6 -34 11 -42zM165 144q0 -36 51 -36q60 0 102 37l8 56l-118 -16q-43 -7 -43 -41z" glyph-name="aacute.aalt" horiz-adv-x="558"/><glyph d="M320 553q-71 0 -109.5 38t-36.5 94q0 15 16 15h60q13 0 15 -14q3 -19 19 -33t46 -14q53 0 74 47q5 14 19 14h62q15 0 12 -15q-9 -56 -57 -94t-120 -38zM486 114q11 -6 10 -20l-10 -79q-2 -14 -13.5 -17t-37.5 -3h-7q-93 0 -111 64q-75 -72 -170 -72q-65 0 -101.5 32 t-36.5 96q0 77 49 116.5t142 50.5l139 16l4 25q4 31 -11 45t-52 14q-69 0 -80 -48q-2 -9 -15 -9h-108q-16 0 -13 15q14 87 73 124.5t162 37.5q115 0 162.5 -44.5t33.5 -146.5l-20 -155q-6 -34 11 -42zM165 144q0 -36 51 -36q60 0 102 37l8 56l-118 -16q-43 -7 -43 -41z" glyph-name="abreve.aalt" horiz-adv-x="558"/><glyph d="M245 572l-75 109q-5 6 -1.5 12.5t12.5 6.5h80q13 0 18 -8l43 -64l59 64q8 8 19 8h82q6 0 8.5 -3t1 -7.5t-5.5 -8.5l-103 -109q-8 -8 -18 -8h-104q-11 0 -16 8zM486 114q11 -6 10 -20l-10 -79q-2 -14 -13.5 -17t-37.5 -3h-7q-93 0 -111 64q-75 -72 -170 -72 q-65 0 -101.5 32t-36.5 96q0 77 49 116.5t142 50.5l139 16l4 25q4 31 -11 45t-52 14q-69 0 -80 -48q-2 -9 -15 -9h-108q-16 0 -13 15q14 87 73 124.5t162 37.5q115 0 162.5 -44.5t33.5 -146.5l-20 -155q-6 -34 11 -42zM165 144q0 -36 51 -36q60 0 102 37l8 56l-118 -16 q-43 -7 -43 -41z" glyph-name="uni01CE.aalt" horiz-adv-x="558"/><glyph d="M166 564q-9 0 -10 6t6 13l104 109q8 8 18 8h103q12 0 17 -8l74 -109q5 -7 2.5 -13t-12.5 -6h-81q-12 0 -17 8l-44 64l-58 -64q-9 -8 -20 -8h-82zM486 114q11 -6 10 -20l-10 -79q-2 -14 -13.5 -17t-37.5 -3h-7q-93 0 -111 64q-75 -72 -170 -72q-65 0 -101.5 32t-36.5 96 q0 77 49 116.5t142 50.5l139 16l4 25q4 31 -11 45t-52 14q-69 0 -80 -48q-2 -9 -15 -9h-108q-16 0 -13 15q14 87 73 124.5t162 37.5q115 0 162.5 -44.5t33.5 -146.5l-20 -155q-6 -34 11 -42zM165 144q0 -36 51 -36q60 0 102 37l8 56l-118 -16q-43 -7 -43 -41z" glyph-name="acircumflex.aalt" horiz-adv-x="558"/><glyph d="M203 553q-29 0 -48 19t-19 49q0 34 26 59t60 25q29 0 48 -19t19 -48q0 -34 -26 -59.5t-60 -25.5zM432 553q-29 0 -48 19t-19 49q0 34 26 59t60 25q29 0 48 -19t19 -48q0 -34 -26 -59.5t-60 -25.5zM495 311l-20 -155q-6 -34 11 -42q11 -6 10 -20l-10 -79q-2 -14 -13.5 -17 t-37.5 -3h-7q-93 0 -111 64q-75 -72 -170 -72q-65 0 -101.5 32t-36.5 96q0 77 49 116.5t142 50.5l139 16l4 25q4 31 -11 45t-52 14q-69 0 -80 -48q-2 -9 -15 -9h-108q-16 0 -13 15q14 87 73 124.5t162 37.5q115 0 162.5 -44.5t33.5 -146.5zM165 144q0 -36 51 -36 q60 0 102 37l8 56l-118 -16q-43 -7 -43 -41z" glyph-name="adieresis.aalt" horiz-adv-x="558"/><glyph d="M233 569l-60 114q-4 8 0 12.5t13 4.5h108q10 0 17 -12l61 -114q4 -8 0 -12.5t-13 -4.5h-108q-10 0 -18 12zM486 114q11 -6 10 -20l-10 -79q-2 -14 -13.5 -17t-37.5 -3h-7q-93 0 -111 64q-75 -72 -170 -72q-65 0 -101.5 32t-36.5 96q0 77 49 116.5t142 50.5l139 16l4 25 q4 31 -11 45t-52 14q-69 0 -80 -48q-2 -9 -15 -9h-108q-16 0 -13 15q14 87 73 124.5t162 37.5q115 0 162.5 -44.5t33.5 -146.5l-20 -155q-6 -34 11 -42zM165 144q0 -36 51 -36q60 0 102 37l8 56l-118 -16q-43 -7 -43 -41z" glyph-name="agrave.aalt" horiz-adv-x="558"/><glyph d="M492 700q15 0 13 -15l-13 -88q-2 -15 -17 -15h-310q-16 0 -14 15l13 88q2 15 17 15h311zM495 311l-20 -155q-6 -34 11 -42q11 -6 10 -20l-10 -79q-2 -14 -13.5 -17t-37.5 -3h-7q-93 0 -111 64q-75 -72 -170 -72q-65 0 -101.5 32t-36.5 96q0 77 49 116.5t142 50.5l139 16 l4 25q4 31 -11 45t-52 14q-69 0 -80 -48q-2 -9 -15 -9h-108q-16 0 -13 15q14 87 73 124.5t162 37.5q115 0 162.5 -44.5t33.5 -146.5zM165 144q0 -36 51 -36q60 0 102 37l8 56l-118 -16q-43 -7 -43 -41z" glyph-name="amacron.aalt" horiz-adv-x="558"/><glyph d="M486 114q11 -6 10 -20l-10 -79q-3 -20 -43 -20q-31 -1 -54.5 -16t-23.5 -41q0 -42 56 -32l-14 -94q-23 -10 -52 -10.5t-56 8t-45 31.5t-18 56q0 79 101 127q-15 15 -20 35q-75 -72 -170 -72q-65 0 -101.5 32t-36.5 96q0 77 49 116.5t142 50.5l139 16l4 25q4 31 -11 45 t-52 14q-69 0 -80 -48q-2 -9 -15 -9h-108q-16 0 -13 15q14 87 73 124.5t162 37.5q115 0 162.5 -44.5t33.5 -146.5l-20 -155q-6 -34 11 -42zM165 144q0 -36 51 -36q60 0 102 37l8 56l-118 -16q-43 -7 -43 -41z" glyph-name="aogonek.aalt" horiz-adv-x="558"/><glyph d="M317 532q-45 0 -72 27t-27 68q0 47 34.5 83t86.5 36q44 0 71 -27t27 -67q0 -47 -34.5 -83.5t-85.5 -36.5zM329 663q-10 0 -17 -7.5t-7 -18.5q0 -9 6 -15t15 -6q10 0 17 7.5t7 18.5q0 8 -6 14.5t-15 6.5zM486 114q11 -6 10 -20l-10 -79q-2 -14 -13.5 -17t-37.5 -3h-7 q-93 0 -111 64q-75 -72 -170 -72q-65 0 -101.5 32t-36.5 96q0 77 49 116.5t142 50.5l139 16l4 25q4 31 -11 45t-52 14q-69 0 -80 -48q-2 -9 -15 -9h-108q-16 0 -13 15q14 87 73 124.5t162 37.5q115 0 162.5 -44.5t33.5 -146.5l-20 -155q-6 -34 11 -42zM165 144q0 -36 51 -36 q60 0 102 37l8 56l-118 -16q-43 -7 -43 -41z" glyph-name="aring.aalt" horiz-adv-x="558"/><glyph d="M515 687q14 0 11 -13q-11 -52 -46 -80t-81 -28q-36 0 -64.5 18t-52 35.5t-45.5 17.5q-36 0 -51 -27q-5 -8 -13 -8h-30q-14 0 -11 13q12 53 46 80.5t80 27.5q28 0 52.5 -11t38.5 -24.5t33 -24.5t38 -11q35 0 51 27q4 8 13 8h31zM495 311l-20 -155q-6 -34 11 -42 q11 -6 10 -20l-10 -79q-2 -14 -13.5 -17t-37.5 -3h-7q-93 0 -111 64q-75 -72 -170 -72q-65 0 -101.5 32t-36.5 96q0 77 49 116.5t142 50.5l139 16l4 25q4 31 -11 45t-52 14q-69 0 -80 -48q-2 -9 -15 -9h-108q-16 0 -13 15q14 87 73 124.5t162 37.5q115 0 162.5 -44.5 t33.5 -146.5zM165 144q0 -36 51 -36q60 0 102 37l8 56l-118 -16q-43 -7 -43 -41z" glyph-name="atilde.aalt" horiz-adv-x="558"/><glyph d="M388 490q15 0 13 -15l-14 -94q-2 -15 -16 -15h-80l-48 -351q-2 -15 -18 -15h-123q-15 0 -13 15l48 351h-79q-16 0 -14 15l14 94q2 15 17 15h79l18 135q2 15 18 15h123q16 0 14 -15l-19 -135h80z" glyph-name="t.aalt" horiz-adv-x="394"/><glyph d="M429 708q107 0 176 -70t69 -211q0 -117 -40 -216.5t-119 -161.5t-180 -62q-107 0 -175.5 70t-68.5 211q0 117 40 216.5t118.5 161.5t179.5 62zM414 567q-57 0 -98 -43.5t-59 -105.5t-18 -133q0 -73 27.5 -115t84.5 -42q56 0 97.5 43.5t59.5 106.5t18 133q0 72 -28 114 t-84 42z" glyph-name="zero.tnum" horiz-adv-x="730"/><glyph d="M565 700q16 0 14 -15l-94 -670q-2 -15 -17 -15h-122q-16 0 -14 15l78 555h-117q-16 0 -14 16l14 99q2 15 18 15h254z" glyph-name="one.tnum" horiz-adv-x="730"/><glyph d="M571 130q15 0 13 -16l-14 -99q-2 -15 -18 -15h-412q-16 0 -14 15l13 98q1 10 10 19l237 213q31 27 47.5 43t34.5 46t18 58q0 35 -22.5 55.5t-61.5 20.5q-37 0 -63.5 -17t-55.5 -49q-11 -12 -23 1l-62 68q-9 10 1 22q97 115 233 115q95 0 151 -51.5t56 -135.5 q0 -66 -33 -117t-90 -104l-187 -170h242z" glyph-name="two.tnum" horiz-adv-x="730"/><glyph d="M308 -13q-75 0 -126.5 30.5t-75.5 78.5q-6 13 6 21l85 69q12 10 22 -2q39 -57 99 -57q46 0 75 28t29 69q0 32 -19.5 53.5t-63.5 21.5h-26q-9 0 -13.5 4t-3.5 12l14 92q2 15 17 15h28q40 0 64.5 23.5t24.5 57.5q0 29 -20.5 47t-51.5 18q-51 0 -94 -54q-12 -13 -25 -2 l-58 66q-12 13 -1 25q37 47 92.5 76t121.5 29q80 0 134.5 -44t54.5 -119q0 -58 -31.5 -104.5t-87.5 -70.5q98 -41 98 -151q0 -99 -79 -165.5t-189 -66.5z" glyph-name="three.tnum" horiz-adv-x="730"/><glyph d="M607 253q17 0 15 -16l-11 -85q-3 -25 -25 -25h-54l-16 -112q-2 -15 -16 -15h-122q-7 0 -11.5 4t-3.5 11l16 112h-277q-15 0 -13 15l14 101q1 10 8 19l341 427q7 11 21 11h124q15 0 13 -15l-61 -432h58zM253 253h143l31 220z" glyph-name="four.tnum" horiz-adv-x="730"/><glyph d="M597 700q16 0 14 -15l-14 -99q-2 -16 -18 -16h-208l-43 -115q35 13 76 13q86 0 138.5 -57.5t52.5 -147.5q0 -116 -84 -196t-204 -80q-76 0 -128.5 32.5t-73.5 76.5q-5 15 11 25l88 61q17 11 26 -4q30 -51 91 -51q51 0 87 35t36 85q0 42 -26 68t-68 26q-46 0 -83 -32 q-13 -13 -28 -8l-80 34q-12 5 -8 17l123 335q5 13 18 13h305z" glyph-name="five.tnum" horiz-adv-x="730"/><glyph d="M433 470q84 -12 134 -65.5t50 -136.5q0 -115 -87 -198t-204 -83q-96 0 -158.5 59.5t-62.5 150.5q0 115 122 245l259 272q11 13 22 2l74 -70q10 -11 0 -22zM347 127q50 0 84.5 36t34.5 87q0 41 -25 66.5t-65 25.5q-50 0 -85 -36t-35 -87q0 -41 25 -66.5t66 -25.5z" glyph-name="six.tnum" horiz-adv-x="730"/><glyph d="M641 700q8 0 10 -5.5t-2 -13.5l-351 -666q-8 -15 -22 -15h-118q-8 0 -11 4.5t2 13.5l300 552h-259q-17 0 -15 16l14 98q2 16 19 16h433z" glyph-name="seven.tnum" horiz-adv-x="730"/><glyph d="M339 -13q-94 0 -160.5 52.5t-66.5 143.5q0 69 40 126t108 89q-55 42 -55 117q0 79 63 136t158 57q82 0 132.5 -44.5t50.5 -111.5q0 -95 -92 -157q98 -47 98 -162q0 -105 -82.5 -175.5t-193.5 -70.5zM398 452q32 0 54 22t22 54q0 27 -16.5 43t-44.5 16q-32 0 -54 -22 t-22 -54q0 -26 16.5 -42.5t44.5 -16.5zM354 124q44 0 75.5 28.5t31.5 75.5q0 41 -25 63t-63 22q-44 0 -75.5 -29t-31.5 -76q0 -40 25.5 -62t62.5 -22z" glyph-name="eight.tnum" horiz-adv-x="730"/><glyph d="M455 708q96 0 158.5 -59.5t62.5 -150.5q0 -115 -122 -245l-259 -272q-10 -12 -22 -2l-73 70q-11 11 -1 23l148 153q-83 12 -133 66t-50 136q0 115 87 198t204 83zM405 353q50 0 85 36t35 87q0 41 -25 66.5t-66 25.5q-50 0 -84.5 -36t-34.5 -87q0 -41 25 -66.5t65 -25.5z " glyph-name="nine.tnum" horiz-adv-x="730"/><glyph d="M155 263q51 0 76.5 -35t16.5 -91l-2 -13q-9 -57 -44 -91.5t-85 -34.5q-52 0 -77.5 35t-16.5 91l2 13q9 57 44 91.5t86 34.5zM147 212q-26 0 -43 -21t-22 -54l-2 -13q-5 -34 6.5 -55t37.5 -21t43 21t22 55l2 13q5 33 -6.5 54t-37.5 21z" glyph-name="zero.dnom" horiz-adv-x="303"/><glyph d="M127 261l-36 -261h-57l28 206h-28l8 55h85z" glyph-name="one.dnom" horiz-adv-x="170"/><glyph d="M134 264q40 0 62 -18.5t22 -47.5q0 -8 -1.5 -15.5t-5 -15t-6.5 -13t-10.5 -13.5t-11 -12t-14 -12.5t-14 -11.5t-16.5 -12.5t-16 -12.5l-36 -26h106l-7 -54h-178l7 54l76 59q4 3 14.5 11t14.5 11t12 9.5t11 10t7 9.5t5.5 11.5t1.5 11.5q0 12 -8 19.5t-23 7.5 q-31 0 -38 -34l-2 -12h-57l2 14q5 38 32.5 60t70.5 22z" glyph-name="two.dnom" horiz-adv-x="264"/><glyph d="M109 -4q-51 0 -74 24t-17 68h56q-6 -43 39 -43q21 0 35.5 9t14.5 27q0 30 -61 30l7 42q59 0 59 32q0 29 -37 29t-43 -41h-56q4 45 32.5 67.5t73.5 22.5q39 0 64 -17.5t25 -46.5q0 -20 -13.5 -37.5t-34.5 -24.5q42 -19 42 -60q0 -38 -32 -59.5t-80 -21.5z" glyph-name="three.dnom" horiz-adv-x="285"/><glyph d="M222 261l-21 -154h27l-8 -55h-27l-7 -52h-56l6 52h-138l168 209h56zM155 182l-58 -75h47z" glyph-name="four.dnom" horiz-adv-x="287"/><glyph d="M217 261l-8 -53h-107l-9 -38q14 9 40 9q37 0 60.5 -21t23.5 -56q0 -47 -34 -76.5t-83 -29.5q-39 0 -61 18.5t-25 43.5l53 22q2 -16 12 -26t28 -10q23 0 37.5 15t14.5 35q0 16 -11.5 26t-30.5 10q-28 0 -41 -22l-47 12l38 141h150z" glyph-name="five.dnom" horiz-adv-x="278"/><glyph d="M216 261l-88 -96h5q28 0 49 -20t21 -51q0 -42 -31.5 -70t-73.5 -28q-36 0 -59 20.5t-23 52.5q0 10 1.5 19.5t6.5 19.5t7.5 15.5t11.5 16.5t11 13.5t14 15t13 13.5l73 79h62zM116 117q-18 0 -31 -12t-13 -30q0 -14 9.5 -22.5t23.5 -8.5q18 0 30.5 12.5t12.5 30.5 q0 13 -9 21.5t-23 8.5z" glyph-name="six.dnom" horiz-adv-x="265"/><glyph d="M227 261l-143 -261h-61l115 206h-104l8 55h185z" glyph-name="seven.dnom" horiz-adv-x="260"/><glyph d="M98 -4q-34 0 -58.5 17.5t-24.5 49.5q0 29 16 49.5t40 29.5q-26 12 -26 42q0 31 24.5 55t67.5 24q35 0 53 -16.5t18 -41.5q0 -45 -40 -63q36 -18 36 -56q0 -42 -32.5 -66t-73.5 -24zM123 166q15 0 24.5 9t9.5 21q0 9 -7 16t-20 7q-16 0 -24.5 -9.5t-8.5 -21.5 q0 -22 26 -22zM105 43q20 0 33 11.5t13 28.5q0 15 -9.5 24.5t-26.5 9.5q-20 0 -32.5 -13t-12.5 -30q0 -31 35 -31z" glyph-name="eight.dnom" horiz-adv-x="267"/><glyph d="M18 0l87 96h-5q-27 0 -48.5 20t-21.5 51q0 42 31.5 70t73.5 28q37 0 59.5 -20.5t22.5 -52.5q0 -9 -2 -18t-3.5 -15.5t-7 -16t-7.5 -13t-10.5 -13.5t-10 -12t-12.5 -13t-11 -12l-73 -79h-62zM117 144q18 0 31.5 12t13.5 30q0 14 -9.5 22.5t-23.5 8.5q-18 0 -30.5 -12.5 t-12.5 -30.5q0 -13 8.5 -21.5t22.5 -8.5z" glyph-name="nine.dnom" horiz-adv-x="265"/><glyph d="M217 703q51 0 76.5 -35t16.5 -91l-2 -13q-9 -57 -44 -91.5t-85 -34.5q-52 0 -77.5 35t-16.5 91l2 13q9 57 44 91.5t86 34.5zM209 652q-26 0 -43 -21t-22 -54l-2 -13q-5 -34 6.5 -55t37.5 -21t43 21t22 55l2 13q5 33 -6.5 54t-37.5 21z" glyph-name="zero.numr" horiz-adv-x="303"/><glyph d="M189 701l-36 -261h-57l28 206h-28l8 55h85z" glyph-name="one.numr" horiz-adv-x="170"/><glyph d="M196 704q40 0 62 -18.5t22 -47.5q0 -8 -1.5 -15.5t-5 -15t-6.5 -13t-10.5 -13.5t-11 -12t-14 -12.5t-14 -11.5t-16.5 -12.5t-16 -12.5l-36 -26h106l-7 -54h-178l7 54l76 59q4 3 14.5 11t14.5 11t12 9.5t11 10t7 9.5t5.5 11.5t1.5 11.5q0 12 -8 19.5t-23 7.5 q-31 0 -38 -34l-2 -12h-57l2 14q5 38 32.5 60t70.5 22z" glyph-name="two.numr" horiz-adv-x="264"/><glyph d="M171 436q-51 0 -74 24t-17 68h56q-6 -43 39 -43q21 0 35.5 9t14.5 27q0 30 -61 30l7 42q59 0 59 32q0 29 -37 29t-43 -41h-56q4 45 32.5 67.5t73.5 22.5q39 0 64 -17.5t25 -46.5q0 -20 -13.5 -37.5t-34.5 -24.5q42 -19 42 -60q0 -38 -32 -59.5t-80 -21.5z" glyph-name="three.numr" horiz-adv-x="285"/><glyph d="M284 701l-21 -154h27l-8 -55h-27l-7 -52h-56l6 52h-138l168 209h56zM217 622l-58 -75h47z" glyph-name="four.numr" horiz-adv-x="287"/><glyph d="M279 701l-8 -53h-107l-9 -38q14 9 40 9q37 0 60.5 -21t23.5 -56q0 -47 -34 -76.5t-83 -29.5q-39 0 -61 18.5t-25 43.5l53 22q2 -16 12 -26t28 -10q23 0 37.5 15t14.5 35q0 16 -11.5 26t-30.5 10q-28 0 -41 -22l-47 12l38 141h150z" glyph-name="five.numr" horiz-adv-x="278"/><glyph d="M278 701l-88 -96h5q28 0 49 -20t21 -51q0 -42 -31.5 -70t-73.5 -28q-36 0 -59 20.5t-23 52.5q0 10 1.5 19.5t6.5 19.5t7.5 15.5t11.5 16.5t11 13.5t14 15t13 13.5l73 79h62zM178 557q-18 0 -31 -12t-13 -30q0 -14 9.5 -22.5t23.5 -8.5q18 0 30.5 12.5t12.5 30.5 q0 13 -9 21.5t-23 8.5z" glyph-name="six.numr" horiz-adv-x="265"/><glyph d="M289 701l-143 -261h-61l115 206h-104l8 55h185z" glyph-name="seven.numr" horiz-adv-x="260"/><glyph d="M160 436q-34 0 -58.5 17.5t-24.5 49.5q0 58 56 79q-26 12 -26 42q0 31 24.5 55t67.5 24q35 0 53 -16.5t18 -41.5q0 -45 -40 -63q36 -18 36 -56q0 -42 -32.5 -66t-73.5 -24zM185 606q15 0 24.5 9t9.5 21q0 9 -7 16t-20 7q-16 0 -24.5 -9.5t-8.5 -21.5q0 -22 26 -22z M167 483q20 0 33 11.5t13 28.5q0 15 -9.5 24.5t-26.5 9.5q-20 0 -32.5 -13t-12.5 -30q0 -31 35 -31z" glyph-name="eight.numr" horiz-adv-x="267"/><glyph d="M80 440l87 96h-5q-27 0 -48.5 20t-21.5 51q0 42 31.5 70t73.5 28q37 0 59.5 -20.5t22.5 -52.5q0 -9 -2 -18t-3.5 -15.5t-7 -16t-7.5 -13t-10.5 -13.5t-10 -12t-12 -13t-11.5 -12l-73 -79h-62zM179 584q18 0 31.5 12t13.5 30q0 14 -9.5 22.5t-23.5 8.5q-18 0 -30.5 -12.5 t-12.5 -30.5q0 -13 8.5 -21.5t22.5 -8.5z" glyph-name="nine.numr" horiz-adv-x="265"/><glyph d="M381 776q-8 0 -10.5 5.5t1.5 11.5l79 114q8 12 19 12h110q7 0 9 -5.5t-2 -11.5l-79 -114q-7 -12 -19 -12h-108zM637 17q3 -17 -14 -17h-134q-12 0 -15 12l-17 94h-250l-43 -94q-5 -12 -20 -12h-134q-18 0 -10 17l326 671q6 12 20 12h136q16 0 19 -12zM271 246h161 l-46 253z" glyph-name="glyph499" horiz-adv-x="709"/><glyph d="M501 919q7 0 10 -5.5t-2 -11.5l-79 -114q-8 -12 -19 -12h-109q-7 0 -10 5.5t1 11.5l79 114q8 12 20 12h109zM47 0q-15 0 -13 15l93 670q3 15 18 15h361q15 0 13 -15l-15 -110q-2 -15 -18 -15h-217l-20 -137h205q15 0 13 -15l-15 -110q-2 -15 -17 -15h-205l-20 -143h217 q15 0 13 -15l-16 -110q0 -15 -17 -15h-360z" glyph-name="glyph500" horiz-adv-x="518"/><glyph d="M362 776q-8 0 -10.5 5.5t1.5 11.5l79 114q8 12 19 12h110q7 0 9 -5.5t-2 -11.5l-78 -114q-8 -12 -20 -12h-108zM665 700q15 0 13 -15l-94 -670q-2 -15 -17 -15h-128q-15 0 -13 15l58 414l-275 -419q-9 -10 -20 -10h-142q-15 0 -13 15l93 670q3 15 18 15h128q15 0 13 -15 l-58 -411l274 416q7 10 19 10h144z" glyph-name="glyph501" horiz-adv-x="677"/><glyph d="M636 919q7 0 9 -5.5t-2 -11.5l-78 -114q-8 -12 -20 -12h-108q-8 0 -10.5 5.5t1.5 11.5l79 114q8 12 19 12h110zM373 -13q-138 0 -227.5 88t-89.5 223q0 165 123 287.5t291 122.5q138 0 227 -88t89 -223q0 -166 -122.5 -288t-290.5 -122zM394 142q96 0 163 68.5t67 165.5 q0 79 -48.5 128t-125.5 49q-96 0 -163 -68t-67 -165q0 -79 48.5 -128.5t125.5 -49.5z" glyph-name="glyph502" horiz-adv-x="823"/><glyph d="M373 776q-7 0 -10 5.5t1 11.5l79 114q8 12 19 12h110q7 0 9.5 -5.5t-1.5 -11.5l-79 -114q-8 -12 -19 -12h-109zM716 700q9 0 11 -5t-4 -13l-483 -672q-7 -10 -19 -10h-134q-19 0 -8 18l194 270l-178 394q-7 18 13 18h135q13 0 17 -10l115 -260l187 260q7 10 19 10h135z " glyph-name="glyph503" horiz-adv-x="698"/><glyph d="M590 919q7 0 9 -5.5t-2 -11.5l-78 -114q-8 -12 -20 -12h-108q-8 0 -10.5 5.5t1.5 11.5l79 114q8 12 19 12h110zM47 0q-15 0 -13 15l93 670q3 15 18 15h128q15 0 13 -15l-32 -226h76q109 0 162 -53.5t53 -150.5q0 -117 -72.5 -186t-202.5 -69h-223zM595 0q-15 0 -13 15 l94 670q2 15 17 15h128q16 0 14 -15l-94 -670q-2 -15 -18 -15h-128zM210 140h68q57 0 86 26.5t29 73.5q0 79 -90 79h-68z" glyph-name="glyph504" horiz-adv-x="830"/><glyph d="M275 776q-8 0 -10.5 5.5t1.5 11.5l79 114q8 12 19 12h110q7 0 9 -5.5t-2 -11.5l-78 -114q-8 -12 -20 -12h-108zM362 708q137 0 226 -88.5t89 -227.5q0 -167 -121 -286t-289 -119q-152 0 -238 102q-10 13 2 24l90 84q11 12 23 0q58 -55 144 -55q70 0 125.5 38.5t81.5 99.5 h-246q-16 0 -14 16l16 109q2 15 17 15h242q-14 61 -60 97t-113 36q-79 0 -150 -56q-14 -8 -21 2l-68 85q-8 12 2 20q117 104 262 104z" glyph-name="glyph505" horiz-adv-x="814"/><glyph d="M551 776q-8 0 -10.5 5.5t1.5 11.5l79 114q8 12 19 12h110q7 0 9 -5.5t-2 -11.5l-78 -114q-8 -12 -20 -12h-108zM695 708q138 0 227 -88t89 -223q0 -166 -122.5 -288t-290.5 -122q-134 0 -221.5 82t-94.5 211h-53l-37 -265q-2 -15 -17 -15h-128q-15 0 -13 15l93 670 q3 15 18 15h128q15 0 13 -15l-37 -265h53q40 125 149 206.5t244 81.5zM619 142q96 0 163 68.5t67 165.5q0 79 -48.5 128t-125.5 49q-96 0 -163 -68t-67 -165q0 -79 48.5 -128.5t125.5 -49.5z" glyph-name="glyph506" horiz-adv-x="1048"/><glyph d="M175 776q-8 0 -10.5 5.5t1.5 11.5l78 114q8 12 20 12h110q7 0 9 -5.5t-2 -11.5l-79 -114q-8 -12 -19 -12h-108zM576 700q15 0 13 -15l-94 -670q-2 -15 -17 -15h-128q-16 0 -14 15l33 226h-37l-152 -231q-7 -10 -18 -10h-135q-10 0 -13 5t3 13l165 243q-105 45 -105 184 q0 117 73 186t203 69h223zM388 381l25 179h-68q-57 0 -86 -26.5t-29 -73.5q0 -79 90 -79h68z" glyph-name="glyph507" horiz-adv-x="611"/><glyph d="M297 566q-8 0 -10.5 5.5t1.5 11.5l79 114q8 12 19 12h110q7 0 9 -5.5t-2 -11.5l-78 -114q-8 -12 -20 -12h-108zM576 490q17 0 14 -15l-64 -460q-3 -15 -19 -15h-110q-17 0 -14 15l4 49q-63 -76 -163 -76q-93 0 -144.5 59t-51.5 157q0 121 75.5 209.5t191.5 88.5 q101 0 143 -74l9 47q3 15 18 15h111zM276 127q51 0 87 32.5t43 86.5q7 52 -20 84.5t-77 32.5q-57 0 -93.5 -40t-36.5 -95q0 -46 26.5 -73.5t70.5 -27.5z" glyph-name="glyph508" horiz-adv-x="623"/><glyph d="M241 596q-7 0 -10 5.5t1 11.5l79 114q8 12 19 12h110q7 0 9.5 -5.5t-1.5 -11.5l-79 -114q-8 -12 -19 -12h-109zM317 502q108 0 162.5 -68.5t40.5 -167.5q-12 -79 -63 -79h-281q12 -76 114 -76q55 0 100 23q15 7 25 -9l29 -48q11 -16 -3 -28q-72 -61 -177 -61t-170.5 62 t-65.5 164q0 117 84.5 202.5t204.5 85.5zM300 376q-87 0 -114 -83h202q-1 42 -24.5 62.5t-63.5 20.5z" glyph-name="glyph509" horiz-adv-x="551"/><glyph d="M276 566q-7 0 -9.5 5.5t1.5 11.5l78 114q8 12 20 12h109q7 0 10 -5.5t-2 -11.5l-79 -114q-8 -12 -19 -12h-109zM558 490q16 0 14 -15l-64 -460q-2 -15 -18 -15h-123q-16 0 -14 15l37 266l-172 -271q-7 -10 -19 -10h-162q-15 0 -13 15l64 460q2 15 17 15h123q16 0 14 -15 l-37 -262l171 267q7 10 19 10h163z" glyph-name="glyph510" horiz-adv-x="583"/><glyph d="M477 709q7 0 9 -5.5t-2 -11.5l-79 -114q-8 -12 -19 -12h-108q-8 0 -10.5 5.5t1.5 11.5l78 114q8 12 20 12h110zM255 -12q-102 0 -164.5 62.5t-62.5 159.5q0 119 87 205.5t208 86.5q102 0 164.5 -62.5t62.5 -159.5q0 -119 -87 -205.5t-208 -86.5zM274 128q52 0 89.5 36 t37.5 95q0 48 -27 75.5t-70 27.5q-52 0 -89.5 -36t-37.5 -95q0 -48 27 -75.5t70 -27.5z" glyph-name="glyph511" horiz-adv-x="583"/><glyph d="M479 709q7 0 9.5 -5.5t-1.5 -11.5l-79 -114q-8 -12 -19 -12h-109q-8 0 -10.5 5.5t1.5 11.5l79 114q8 12 19 12h110zM97 -190q-20 0 -11 18l94 173l-120 472q-6 17 14 17h124q15 0 18 -12l63 -302l154 302q6 12 20 12h123q20 0 11 -17l-352 -651q-6 -12 -20 -12h-118z" glyph-name="glyph512" horiz-adv-x="587"/><glyph d="M593 709q7 0 10 -5.5t-2 -11.5l-79 -114q-8 -12 -19 -12h-109q-7 0 -10 5.5t1 11.5l79 114q8 12 20 12h109zM346 351q176 0 176 -152q0 -92 -58.5 -145.5t-163.5 -53.5h-263q-15 0 -13 15l64 460q2 15 17 15h123q16 0 14 -15l-17 -124h121zM777 490q16 0 14 -15l-64 -460 q-2 -15 -18 -15h-123q-15 0 -13 15l64 460q2 15 17 15h123zM293 119q81 0 81 63q0 27 -16 38.5t-49 11.5h-101l-16 -113h101z" glyph-name="glyph513" horiz-adv-x="813"/><glyph d="M249 566q-8 0 -10.5 5.5t1.5 11.5l79 114q8 12 19 12h110q7 0 9 -5.5t-2 -11.5l-79 -114q-8 -12 -19 -12h-108zM262 502q98 0 159.5 -61.5t61.5 -158.5q0 -119 -88 -206.5t-210 -87.5q-116 0 -175 89q-7 10 5 21l75 68q15 13 25 1q30 -39 85 -39q80 0 117 66h-130 q-17 0 -14 15l13 70q3 15 18 15h127q-18 68 -96 68q-47 0 -93 -38q-15 -13 -27 1l-57 66q-9 11 0 22q84 89 204 89z" glyph-name="glyph514" horiz-adv-x="585"/><glyph d="M349 566q-7 0 -10 5.5t1 11.5l79 114q8 12 19 12h110q7 0 9.5 -5.5t-1.5 -11.5l-79 -114q-8 -12 -19 -12h-109zM553 502q102 0 164.5 -62.5t62.5 -159.5q0 -119 -87 -205.5t-208 -86.5q-94 0 -154.5 54t-70.5 140h-59l-23 -168q-2 -15 -18 -15h-123q-15 0 -13 15l64 460 q2 15 17 15h123q16 0 14 -15l-23 -168h57q31 86 106.5 141t170.5 55zM504 128q52 0 89.5 36t37.5 95q0 48 -27 75.5t-70 27.5q-52 0 -89.5 -36t-37.5 -95q0 -48 27 -75.5t70 -27.5z" glyph-name="glyph515" horiz-adv-x="818"/><glyph d="M257 566q-7 0 -9.5 5.5t1.5 11.5l78 114q8 12 20 12h109q7 0 10 -5.5t-2 -11.5l-79 -114q-8 -12 -19 -12h-109zM524 490q16 0 14 -15l-64 -460q-2 -15 -18 -15h-123q-15 0 -13 15l17 124h-41l-117 -131q-7 -8 -19 -8h-125q-10 0 -12.5 5t3.5 13l118 129q-104 26 -104 144 q0 92 58 145.5t163 53.5h263zM269 371q-81 0 -81 -63q0 -27 15.5 -38.5t49.5 -11.5h101l16 113h-101z" glyph-name="glyph516" horiz-adv-x="567"/></font>
</defs>
</svg>
