<?xml version="1.0" standalone="no"?>
<!DOCTYPE svg PUBLIC "-//W3C//DTD SVG 1.1//EN" "http://www.w3.org/Graphics/SVG/1.1/DTD/svg11.dtd">
<svg xmlns="http://www.w3.org/2000/svg"><metadata>This SVG WebFont was generated by YouWorkForThem.
Copyright Â© 2018 by Connary Fagen. All rights reserved.</metadata><defs><font horiz-adv-x="628" id="ywftsvg"><font-face ascent="800" bbox="-160 -233 1082 927" cap-height="700" descent="-200" font-family="" font-stretch="normal" font-weight="300" panose-1="0 0 4 0 0 0 0 0 0 0" underline-position="0" underline-thickness="0" unicode-range="U+0020-FEFF" units-per-em="1000" x-height="490"/><missing-glyph d="M406 800v-990h-314v990h314zM330 734h-164v-33h65v-37h-66v-32h165v32h-66v37h66v33zM264 606h-99v-103h165v34h-66v69zM231 572v-35h-33v35h33zM330 476h-165v-32h66v-37h-66v-33h99v70h66v32zM330 417h-33v-65h-132v-34h165v99zM330 296h-99v-55h33v22h33v-46h-99v79 h-33v-112h165v112zM330 125h-165v-112h165v112zM297 92v-46h-99v46h99zM330 -10h-165v-32h70l-70 -47v-33h165v33h-101l69 47h32v32z" horiz-adv-x="495"/><glyph d="M406 800v-990h-314v990h314zM330 734h-164v-33h65v-37h-66v-32h165v32h-66v37h66v33zM264 606h-99v-103h165v34h-66v69zM231 572v-35h-33v35h33zM330 476h-165v-32h66v-37h-66v-33h99v70h66v32zM330 417h-33v-65h-132v-34h165v99zM330 296h-99v-55h33v22h33v-46h-99v79 h-33v-112h165v112zM330 125h-165v-112h165v112zM297 92v-46h-99v46h99zM330 -10h-165v-32h70l-70 -47v-33h165v33h-101l69 47h32v32z" glyph-name=".notdef" horiz-adv-x="495"/><glyph glyph-name="glyph1" horiz-adv-x="0"/><glyph glyph-name="glyph2" horiz-adv-x="333"/><glyph glyph-name="space" horiz-adv-x="201" unicode=" "/><glyph d="M96 183q-13 0 -13 14l-7 489q0 14 12 14h40q12 0 12 -14l-7 -489q0 -14 -13 -14h-24zM107 -13q-19 0 -32.5 13.5t-13.5 32.5t13.5 32.5t32.5 13.5t32.5 -13.5t13.5 -32.5t-13.5 -32.5t-32.5 -13.5z" glyph-name="exclam" horiz-adv-x="215" unicode="!"/><glyph d="M90 700q14 0 14 -14l-5 -192q0 -13 -12 -13h-23q-13 0 -13 13l-5 192q2 14 14 14h30zM188 700q12 0 14 -14l-5 -192q0 -13 -13 -13h-23q-12 0 -12 13l-5 192q0 14 14 14h30z" glyph-name="quotedbl" horiz-adv-x="248" unicode="&quot;"/><glyph d="M598 487q14 0 11 -12l-4 -17q-3 -12 -15 -12h-89l-50 -191h86q14 0 11 -13l-4 -16q-3 -13 -15 -13h-89l-53 -201q-3 -12 -16 -12h-17q-15 0 -10 17l52 196h-193l-53 -201q-3 -12 -15 -12h-18q-14 0 -9 17l52 196h-87q-13 0 -10 13l4 16q3 13 15 13h89l50 191h-86 q-14 0 -11 12l4 17q3 12 15 12h89l53 201q3 12 15 12h18q14 0 9 -17l-52 -196h193l53 201q3 12 16 12h17q15 0 10 -17l-52 -196h86zM407 255l50 191h-193l-50 -191h193z" glyph-name="numbersign" horiz-adv-x="672" unicode="#"/><glyph d="M382 233q0 -57 -39 -93t-98 -43v-84q0 -13 -13 -13h-22q-13 0 -13 13v83q-84 7 -134 71q-10 12 -2 24l12 16q9 12 22 -1q51 -58 122 -58q47 0 76.5 22t29.5 62q0 35 -21 56t-61 38l-57 24q-52 22 -81.5 52t-29.5 78q0 53 35 87.5t89 40.5v80q0 12 13 12h22q13 0 13 -12 v-81q70 -10 113 -65q10 -11 -1 -22l-10 -12q-12 -13 -24 0q-45 48 -102 48q-38 0 -64 -19t-26 -54q0 -36 21.5 -55t68.5 -38l44 -18q55 -22 85.5 -54t31.5 -85z" glyph-name="dollar" horiz-adv-x="439" unicode="$"/><glyph d="M187 434q-56 0 -96.5 39.5t-40.5 95.5q0 57 40.5 96.5t96.5 39.5q57 0 97 -39.5t40 -96.5t-40 -96t-97 -39zM144 3l-18 13q-10 7 -3 18l443 658q8 13 18 5l18 -13q10 -7 3 -18l-443 -658q-8 -13 -18 -5zM187 479q39 0 65 25.5t26 64.5q0 40 -26 66t-65 26t-64.5 -26 t-25.5 -66q0 -39 25.5 -64.5t64.5 -25.5zM541 -5q-56 0 -96.5 39.5t-40.5 95.5q0 57 40.5 96.5t96.5 39.5q57 0 97 -39.5t40 -96.5t-40 -96t-97 -39zM541 40q39 0 65 25.5t26 64.5q0 40 -26 65.5t-65 25.5t-64.5 -25.5t-25.5 -65.5q0 -39 25.5 -64.5t64.5 -25.5z" glyph-name="percent" horiz-adv-x="728" unicode="%"/><glyph d="M620 35q9 -11 -1 -21l-17 -17q-11 -11 -21 1l-98 110q-94 -121 -226 -121q-88 0 -145.5 51.5t-57.5 140.5q0 73 39.5 123t123.5 103l1 1q-43 47 -64 84t-21 79q0 57 40 96t105 39q66 0 106 -39t40 -96q0 -51 -31.5 -91.5t-92.5 -81.5l-1 -1l177 -198l71 115q5 8 11 8h42 q4 0 6.5 -3t-0.5 -9l-91 -152l-1 -1v-1zM190 567q0 -24 14 -52t25.5 -42t33.5 -38l6 4q50 33 73.5 61t23.5 65q0 39 -24.5 63t-63.5 24t-63.5 -23.5t-24.5 -61.5zM264 43q103 0 182 107l-192 215l-21 -14q-59 -40 -87.5 -75t-28.5 -91q0 -68 42.5 -105t104.5 -37z" glyph-name="ampersand" horiz-adv-x="673" unicode="&amp;"/><glyph d="M90 700q14 0 14 -14l-5 -192q0 -13 -12 -13h-23q-13 0 -13 13l-5 192q2 14 14 14h30z" glyph-name="quotesingle" horiz-adv-x="150" unicode="'"/><glyph d="M204 745q19 0 11 -18q-94 -179 -94 -407q0 -242 94 -432q8 -18 -11 -18h-27q-12 0 -18 10q-49 86 -73.5 203.5t-24.5 236.5q0 109 25.5 220t72.5 195q6 10 18 10h27z" glyph-name="parenleft" horiz-adv-x="278" unicode="("/><glyph d="M74 745h27q12 0 18 -10q47 -84 72.5 -195t25.5 -220q0 -119 -24.5 -236.5t-73.5 -203.5q-6 -10 -18 -10h-27q-19 0 -11 18q94 190 94 432q0 228 -94 407q-8 18 11 18z" glyph-name="parenright" horiz-adv-x="278" unicode=")"/><glyph d="M200 584l-5 116h44l-4 -116h-35zM188 547l-113 30l11 43l114 -36zM247 547l-12 37l114 36l11 -43zM152 427l-36 24l72 96l29 -23zM283 427l-66 97l30 23l72 -96z" glyph-name="asterisk" horiz-adv-x="435" unicode="*"/><glyph d="M342 311q14 0 14 -13v-28q0 -14 -14 -14h-103v-104q0 -14 -14 -14h-28q-13 0 -13 14v104h-105q-14 0 -14 14v28q0 13 14 13h105v104q0 14 13 14h28q14 0 14 -14v-104h103z" glyph-name="plus" horiz-adv-x="421" unicode="+"/><glyph d="M46 -124v26q43 1 61 40q13 29 0 40q-3 2 -8 2q-23 -1 -37 12t-14 34t14.5 35t35.5 14q27 0 44.5 -22.5t17.5 -57.5q0 -48 -31 -85.5t-83 -37.5z" glyph-name="comma" horiz-adv-x="206" unicode=","/><glyph d="M368 311q12 0 12 -13v-28q0 -13 -12 -13h-299q-13 0 -13 13v28q0 13 13 13h299z" glyph-name="hyphen" horiz-adv-x="436" unicode="-"/><glyph d="M92 -13q-19 0 -32.5 13.5t-13.5 32.5t13.5 32.5t32.5 13.5t32.5 -13.5t13.5 -32.5t-13.5 -32.5t-32.5 -13.5z" glyph-name="period" horiz-adv-x="185" unicode="."/><glyph d="M394 745q17 0 11 -17l-322 -846q-5 -12 -16 -12h-34q-17 0 -11 17l322 846q4 12 17 12h33z" glyph-name="slash" horiz-adv-x="427" unicode="/"/><glyph d="M306 708q120 0 187.5 -96t67.5 -265q0 -168 -67.5 -264t-187.5 -96q-119 0 -187 96t-68 264q0 169 68 265t187 96zM306 651q-91 0 -143 -79.5t-52 -224.5q0 -144 52 -223t143 -79q92 0 144 79t52 223q0 145 -52 224.5t-144 79.5z" glyph-name="zero" horiz-adv-x="613" unicode="0"/><glyph d="M206 700q13 0 13 -14v-672q0 -14 -13 -14h-35q-12 0 -12 14v632h-106q-12 0 -12 14v26q0 14 12 14h153z" glyph-name="one" horiz-adv-x="285" unicode="1"/><glyph d="M410 54q14 0 14 -14v-26q0 -14 -14 -14h-352q-14 0 -14 14v29q0 12 7 19l219 267q31 38 46.5 58.5t32.5 58t17 72.5q0 59 -38 96.5t-100 37.5q-37 0 -66.5 -15t-42.5 -29.5t-28 -37.5q-8 -13 -19 -2l-21 19q-9 9 -1 22q63 99 180 99q89 0 142 -53.5t53 -132.5 q0 -40 -17 -81.5t-34 -65t-48 -61.5l-211 -260h295z" glyph-name="two" horiz-adv-x="494" unicode="2"/><glyph d="M232 -13q-121 0 -188 95q-7 10 3 18l23 21q8 8 16 -2q54 -75 145 -75q69 0 112.5 42t43.5 109q0 72 -48.5 113t-116.5 41h-16q-14 0 -14 11v29q0 13 14 13h16q61 0 99 37t38 93q0 52 -34 86t-90 34q-80 0 -126 -74q-8 -10 -19 -2l-22 21q-6 6 0 17q26 41 70.5 67.5 t100.5 26.5q78 0 128 -48t50 -120q0 -109 -107 -162q62 -20 100 -69.5t38 -118.5q0 -87 -60.5 -145t-155.5 -58z" glyph-name="three" horiz-adv-x="502" unicode="3"/><glyph d="M481 226q11 0 11 -14v-26q0 -14 -11 -14h-76v-158q0 -14 -13 -14h-35q-12 0 -12 14v158h-284q-15 0 -15 15v32q0 9 4 14l289 457q7 10 17 10h35q14 0 14 -15v-459h76zM109 226h236v376z" glyph-name="four" horiz-adv-x="538" unicode="4"/><glyph d="M266 453q91 0 154 -63.5t63 -165.5q0 -107 -66.5 -172t-165.5 -65q-63 0 -113 26t-76 63q-8 12 1 19l25 20q9 8 19 -5q55 -66 144 -66q73 0 124 50t51 130q0 78 -48.5 126t-120.5 48q-89 0 -139 -66q-7 -10 -25 -2l-18 8q-13 5 -10 18l70 331q3 13 16 13h275q11 0 11 -14 v-26q0 -14 -11 -14h-244l-51 -239q51 46 135 46z" glyph-name="five" horiz-adv-x="537" unicode="5"/><glyph d="M283 442q91 0 154 -64t63 -160q0 -98 -63 -164.5t-160 -66.5t-160 65.5t-63 163.5q0 87 64 170l243 326q9 13 19 4l27 -20q8 -7 0 -18l-187 -245q29 9 63 9zM277 44q71 0 118 48t47 124t-47 123.5t-118 47.5t-118 -47.5t-47 -123.5t47 -124t118 -48z" glyph-name="six" horiz-adv-x="554" unicode="6"/><glyph d="M454 700q7 0 10 -5.5t0 -12.5l-278 -667q-7 -15 -17 -15h-33q-15 0 -10 17l267 629h-340q-12 0 -12 14v26q0 14 12 14h401z" glyph-name="seven" horiz-adv-x="495" unicode="7"/><glyph d="M268 -13q-93 0 -155 58t-62 147q0 73 40 124t99 70q-47 21 -73 62t-26 91q0 70 49.5 119.5t127.5 49.5q79 0 128 -49.5t49 -119.5q0 -50 -26 -91t-73 -62q59 -19 99 -70t40 -124q0 -89 -62 -147t-155 -58zM268 412q54 0 88.5 35.5t34.5 89.5q0 53 -34 86.5t-89 33.5 t-89 -33.5t-34 -86.5q0 -54 34.5 -89.5t88.5 -35.5zM268 41q70 0 114.5 43.5t44.5 111.5q0 69 -46 112t-113 43t-113 -43.5t-46 -111.5q0 -67 44.5 -111t114.5 -44z" glyph-name="eight" horiz-adv-x="536" unicode="8"/><glyph d="M277 708q97 0 160 -65.5t63 -163.5q0 -86 -63 -170l-244 -326q-9 -13 -19 -4l-27 20q-8 8 0 18l188 245q-29 -9 -64 -9q-91 0 -154 64t-63 160q0 98 63 164.5t160 66.5zM277 308q71 0 118 47.5t47 123.5t-47 124.5t-118 48.5t-118 -48.5t-47 -124.5t47 -123.5t118 -47.5z " glyph-name="nine" horiz-adv-x="554" unicode="9"/><glyph d="M92 410q-19 0 -32.5 13.5t-13.5 32.5t13.5 32.5t32.5 13.5t32.5 -13.5t13.5 -32.5t-13.5 -32.5t-32.5 -13.5zM92 -12q-19 0 -32.5 13.5t-13.5 32.5t13.5 32.5t32.5 13.5t32.5 -13.5t13.5 -32.5t-13.5 -32.5t-32.5 -13.5z" glyph-name="colon" horiz-adv-x="185" unicode=":"/><glyph d="M93 410q-19 0 -32.5 13.5t-13.5 32.5t13.5 32.5t32.5 13.5t32.5 -13.5t13.5 -32.5t-13.5 -32.5t-32.5 -13.5zM46 -124v26q43 1 61 40q13 29 0 40q-3 2 -8 2q-23 -1 -37 12t-14 34t14.5 35t35.5 14q27 0 44.5 -22.5t17.5 -57.5q0 -48 -31 -85.5t-83 -37.5z" glyph-name="semicolon" horiz-adv-x="206" unicode=";"/><glyph d="M439 20l-368 198q-11 5 -11 19v26q0 12 11 18l368 200q7 5 12.5 2t5.5 -11v-29q0 -11 -11 -16l-333 -177l333 -176q11 -6 11 -16v-29q0 -8 -5.5 -11t-12.5 2z" glyph-name="less" horiz-adv-x="517" unicode="&lt;"/><glyph d="M79 318q-14 0 -14 13v28q0 14 14 14h283q14 0 14 -14v-28q0 -13 -14 -13h-283zM79 196q-14 0 -14 14v28q0 13 14 13h283q14 0 14 -13v-28q0 -14 -14 -14h-283z" glyph-name="equal" horiz-adv-x="441" unicode="="/><glyph d="M78 20q-8 -5 -13 -2t-5 11v29q0 10 11 16l333 176l-333 177q-11 5 -11 16v29q0 8 5 11t13 -2l368 -200q11 -6 11 -18v-26q0 -14 -11 -19z" glyph-name="greater" horiz-adv-x="517" unicode=">"/><glyph d="M194 175q-13 0 -13 15v37q0 47 16 84.5t39 62.5t45.5 48t38.5 52.5t16 64.5q0 54 -33 82.5t-84 28.5q-92 0 -133 -94q-5 -11 -23 0l-15 9q-13 9 -8 21q17 48 63.5 85t118.5 37q76 0 125 -43t49 -118q0 -42 -16 -76.5t-39 -59.5t-46.5 -50.5t-40 -60t-17.5 -75.5l-1 -35 q2 -15 -12 -15h-30zM209 -13q-19 0 -32.5 13.5t-13.5 32.5t13.5 32.5t32.5 13.5t32.5 -13.5t13.5 -32.5t-13.5 -32.5t-32.5 -13.5z" glyph-name="question" horiz-adv-x="449" unicode="?"/><glyph d="M433 708q147 0 250.5 -99t103.5 -261q0 -104 -42 -147.5t-98 -43.5q-73 0 -92 66q-51 -66 -139 -66q-80 0 -132 54t-52 133t52 132.5t132 53.5q96 0 147 -76l15 58h39l-23 -228q-7 -79 56 -79q83 0 83 138q0 77 -25.5 138.5t-68.5 98.5t-95.5 56t-109.5 19 q-79 0 -148 -32.5t-116 -104t-47 -169.5q0 -97 48 -169.5t117 -106t146 -33.5q93 0 162 51l33 -37q-79 -67 -199 -67q-95 0 -176.5 44t-133 128t-51.5 190q0 108 53 191.5t135 125.5t176 42zM417 206q61 0 98 39t37 99t-37 98.5t-98 38.5t-97 -38.5t-36 -98.5 q0 -61 36 -99.5t97 -38.5z" glyph-name="at" horiz-adv-x="855" unicode="@"/><glyph d="M623 17q7 -17 -11 -17h-38q-11 0 -15 12l-55 153h-330l-54 -153q-4 -12 -17 -12h-36q-18 0 -11 17l244 671q4 12 18 12h43q13 0 18 -12zM194 221h290l-145 407z" glyph-name="A" horiz-adv-x="679" unicode="A"/><glyph d="M103 0q-14 0 -14 14v672q0 14 14 14h196q99 0 144 -48.5t45 -118.5q0 -52 -25.5 -93.5t-77.5 -58.5q69 -16 107 -67t38 -120q0 -88 -60 -141t-173 -53h-194zM151 402h145q61 0 96.5 33.5t35.5 92.5q0 115 -132 115h-145v-241zM151 57h142q173 0 173 145q0 70 -44 109 t-129 39h-142v-293z" glyph-name="B" horiz-adv-x="583" unicode="B"/><glyph d="M423 -13q-154 0 -254 103.5t-100 256.5t100 257t254 104q134 0 235 -88q13 -13 3 -24l-20 -23q-10 -10 -22 0q-87 74 -194 74q-126 0 -209.5 -85t-83.5 -215q0 -129 83.5 -214t209.5 -85q107 0 194 74q12 10 21 1l21 -24q11 -9 -3 -23q-100 -89 -235 -89z" glyph-name="C" horiz-adv-x="730" unicode="C"/><glyph d="M103 0q-14 0 -14 14v672q0 14 14 14h143q177 0 266 -96t89 -254t-89 -254t-266 -96h-143zM151 57h94q149 0 221 76.5t72 216.5t-72 217t-221 77h-94v-587z" glyph-name="D" horiz-adv-x="665" unicode="D"/><glyph d="M103 0q-14 0 -14 14v672q0 14 14 14h331q14 0 14 -14v-29q0 -13 -14 -13h-283v-253h269q13 0 13 -14v-29q0 -14 -13 -14h-269v-277h284q14 0 14 -14v-29q0 -14 -14 -14h-332z" glyph-name="E" horiz-adv-x="528" unicode="E"/><glyph d="M103 0q-14 0 -14 14v672q0 14 14 14h321q14 0 14 -14v-29q0 -13 -14 -13h-273v-247h260q14 0 14 -14v-29q0 -13 -14 -13h-260v-327q0 -14 -13 -14h-35z" glyph-name="F" horiz-adv-x="511" unicode="F"/><glyph d="M735 357q15 0 15 -15v-25q0 -143 -88.5 -236.5t-234.5 -93.5q-155 0 -256.5 104t-101.5 256t101.5 256.5t255.5 104.5q137 0 236 -93q10 -8 2 -16l-25 -29q-7 -8 -15 0q-90 77 -198 77q-126 0 -210 -85.5t-84 -214.5q0 -128 84.5 -213.5t210.5 -85.5q116 0 189 70t73 181 v1h-251q-14 0 -14 13v31q0 13 14 13h297z" glyph-name="G" horiz-adv-x="809" unicode="G"/><glyph d="M544 700q14 0 14 -14v-672q0 -14 -14 -14h-35q-14 0 -14 14v306h-344v-306q0 -14 -13 -14h-35q-14 0 -14 14v672q0 14 14 14h35q13 0 13 -14v-310h344v310q0 14 14 14h35z" glyph-name="H" horiz-adv-x="646" unicode="H"/><glyph d="M103 0q-14 0 -14 14v672q0 14 14 14h35q13 0 13 -14v-672q0 -14 -13 -14h-35z" glyph-name="I" horiz-adv-x="240" unicode="I"/><glyph d="M212 -13q-89 0 -151 66q-8 11 1 20l19 25q8 10 17 1q19 -17 31.5 -26t34.5 -17t48 -8q131 0 131 173v465q0 14 13 14h35q14 0 14 -14v-468q0 -112 -52 -171.5t-141 -59.5z" glyph-name="J" horiz-adv-x="494" unicode="J"/><glyph d="M551 18q5 -8 2.5 -13t-11.5 -5h-41q-12 0 -18 9l-240 314l-92 -118v-191q0 -14 -13 -14h-35q-14 0 -14 14v672q0 14 14 14h35q13 0 13 -14v-395l302 401q7 8 18 8h44q10 0 12 -5t-4 -13l-241 -310z" glyph-name="K" horiz-adv-x="603" unicode="K"/><glyph d="M413 57q15 0 15 -15v-27q0 -15 -15 -15h-310q-14 0 -14 14v672q0 14 14 14h35q13 0 13 -14v-629h262z" glyph-name="L" horiz-adv-x="486" unicode="L"/><glyph d="M770 700q13 0 13 -14v-672q0 -14 -13 -14h-35q-14 0 -14 14v588l-16 -46l-232 -545q-4 -11 -17 -11h-40q-13 0 -17 11l-232 545l-16 46v-588q0 -14 -13 -14h-35q-14 0 -14 14v672q0 14 14 14h53q11 0 15 -10l265 -623l265 623q4 10 16 10h53z" glyph-name="M" horiz-adv-x="872" unicode="M"/><glyph d="M561 700q14 0 14 -14v-672q0 -14 -14 -14h-51q-12 0 -18 10l-341 605v-601q0 -14 -13 -14h-35q-14 0 -14 14v672q0 14 14 14h51q12 0 18 -10l340 -603v599q0 14 14 14h35z" glyph-name="N" horiz-adv-x="664" unicode="N"/><glyph d="M426 -13q-151 0 -254 104t-103 256t103 256.5t254 104.5t254.5 -104.5t103.5 -256.5t-103.5 -256t-254.5 -104zM426 48q126 0 210.5 85.5t84.5 213.5q0 129 -84.5 214.5t-210.5 85.5t-210 -85.5t-84 -214.5q0 -128 84.5 -213.5t209.5 -85.5z" glyph-name="O" horiz-adv-x="853" unicode="O"/><glyph d="M103 0q-14 0 -14 14v672q0 14 14 14h187q109 0 168.5 -59.5t59.5 -156.5t-59.5 -156t-168.5 -59h-139v-255q0 -14 -13 -14h-35zM151 325h133q78 0 125 38.5t47 120.5q0 83 -47 121.5t-125 38.5h-133v-319z" glyph-name="P" horiz-adv-x="576" unicode="P"/><glyph d="M779 32q11 -10 1 -20l-23 -23q-9 -9 -21 2l-78 79q-99 -83 -232 -83q-151 0 -254 104t-103 256t103 256.5t254 104.5t254.5 -104.5t103.5 -256.5q0 -136 -85 -235zM426 48q109 0 188 65l-95 96q-11 11 -2 19l23 23q10 10 21 -1l95 -95q65 81 65 192q0 129 -84.5 214.5 t-210.5 85.5t-210 -85.5t-84 -214.5q0 -128 84.5 -213.5t209.5 -85.5z" glyph-name="Q" horiz-adv-x="853" unicode="Q"/><glyph d="M340 273l173 -255q11 -18 -10 -18h-37q-12 0 -18 10l-173 259h-124v-255q0 -14 -13 -14h-35q-14 0 -14 14v672q0 14 14 14h187q109 0 168.5 -59.5t59.5 -156.5q0 -84 -46 -141t-132 -70zM151 644v-319h133q78 0 125 38.5t47 120.5q0 83 -47 121.5t-125 38.5h-133z" glyph-name="R" horiz-adv-x="575" unicode="R"/><glyph d="M266 -12q-135 0 -204 103q-8 13 1 21l17 19q12 12 24 -1q60 -84 163 -84q71 0 111 35.5t40 94.5q0 55 -33.5 87t-101.5 65l-85 42q-120 57 -120 167q0 77 54.5 124t135.5 47q113 0 183 -88q10 -12 -3 -26l-13 -15q-12 -13 -24 1q-59 70 -141 70q-57 0 -94 -29t-37 -82 q0 -40 22.5 -68.5t71.5 -52.5l84 -41q77 -38 119.5 -82t42.5 -118q0 -86 -58.5 -137.5t-154.5 -51.5z" glyph-name="S" horiz-adv-x="537" unicode="S"/><glyph d="M248 0q-13 0 -13 14v630h-152q-14 0 -14 13v29q0 14 14 14h366q14 0 14 -14v-29q0 -13 -14 -13h-152v-630q0 -14 -14 -14h-35z" glyph-name="T" horiz-adv-x="532" unicode="T"/><glyph d="M312 -13q-103 0 -165.5 62.5t-62.5 174.5v462q0 14 14 14h35q13 0 13 -14v-453q0 -92 45 -138.5t121 -46.5q75 0 120 46.5t45 138.5v453q0 14 14 14h35q14 0 14 -14v-462q0 -112 -62 -174.5t-166 -62.5z" glyph-name="U" horiz-adv-x="624" unicode="U"/><glyph d="M318 0q-14 0 -18 12l-244 671q-7 17 11 17h36q13 0 17 -12l219 -616l220 616q4 12 15 12h38q18 0 11 -17l-244 -671q-5 -12 -18 -12h-43z" glyph-name="V" horiz-adv-x="679" unicode="V"/><glyph d="M1014 700q17 0 12 -17l-208 -671q-5 -12 -17 -12h-43q-13 0 -17 12l-200 610l-201 -610q-4 -12 -16 -12h-44q-12 0 -16 12l-209 671q-5 17 12 17h34q13 0 17 -12l185 -605l201 605q4 12 16 12h42q11 0 15 -12l201 -605l185 605q5 12 17 12h34z" glyph-name="W" horiz-adv-x="1081" unicode="W"/><glyph d="M558 18q11 -18 -7 -18h-39q-11 0 -17 10l-182 293l-183 -293q-6 -10 -17 -10h-39q-18 0 -7 18l211 340l-201 324q-11 18 7 18h41q9 0 17 -10l171 -276l171 276q6 10 16 10h41q18 0 7 -18l-201 -323z" glyph-name="X" horiz-adv-x="625" unicode="X"/><glyph d="M526 700q19 0 8 -18l-207 -344v-324q0 -14 -14 -14h-35q-14 0 -14 14v324l-207 344q-5 8 -2.5 13t11.5 5h40q10 0 16 -10l174 -292l173 292q6 10 17 10h40z" glyph-name="Y" horiz-adv-x="591" unicode="Y"/><glyph d="M78 0q-14 0 -14 14v34q0 9 6 18l353 578h-335q-14 0 -14 13v29q0 14 14 14h387q14 0 14 -14v-34q0 -9 -6 -18l-353 -577h355q14 0 14 -14v-29q0 -14 -14 -14h-407z" glyph-name="Z" horiz-adv-x="568" unicode="Z"/><glyph d="M204 745q12 0 12 -12v-28q0 -12 -12 -12h-80v-771h80q12 0 12 -12v-28q0 -12 -12 -12h-130q-13 0 -13 12v851q0 12 13 12h130z" glyph-name="bracketleft" horiz-adv-x="278" unicode="["/><glyph d="M33 745h34q11 0 16 -12l322 -846q6 -17 -11 -17h-33q-13 0 -17 12l-322 846q-6 17 11 17z" glyph-name="backslash" horiz-adv-x="427" unicode="\"/><glyph d="M74 745h130q12 0 12 -12v-851q0 -12 -12 -12h-130q-13 0 -13 12v28q0 12 13 12h80v771h-80q-13 0 -13 12v28q0 12 13 12z" glyph-name="bracketright" horiz-adv-x="278" unicode="]"/><glyph d="M63 321l199 368q5 11 18 11h27q12 0 18 -11l200 -368q5 -7 2 -12.5t-11 -5.5h-29q-12 0 -17 11l-176 333l-176 -333q-6 -11 -16 -11h-30q-8 0 -11 5.5t2 12.5z" glyph-name="asciicircum" horiz-adv-x="588" unicode="^"/><glyph d="M548 0q12 0 12 -13v-28q0 -13 -12 -13h-475q-13 0 -13 13v28q0 13 13 13h475z" glyph-name="underscore" horiz-adv-x="620" unicode="_"/><glyph d="M25 700h36q11 0 15 -12l53 -115q7 -16 -8 -16h-34q-11 0 -16 12l-54 115q-7 16 8 16z" glyph-name="grave" horiz-adv-x="146" unicode="`"/><glyph d="M537 490q13 0 13 -14v-462q0 -14 -13 -14h-32q-13 0 -13 14l-1 86q-60 -112 -194 -112q-107 0 -175 73t-68 184t68 184t175 73q134 0 194 -114l1 88q0 14 13 14h32zM304 45q83 0 135 54.5t52 143.5q0 90 -52 146t-135 56q-84 0 -138 -55.5t-54 -144.5t53.5 -144.5 t138.5 -55.5z" glyph-name="a" unicode="a"/><glyph d="M332 502q107 0 175 -73t68 -184t-68 -184t-175 -73q-134 0 -194 111l-2 -85q0 -14 -12 -14h-33q-12 0 -12 14v687q0 14 12 14h35q13 0 13 -14v-310q62 111 193 111zM325 45q84 0 137.5 55.5t53.5 144.5t-53.5 144.5t-137.5 55.5q-83 0 -135 -56t-52 -146q0 -89 52 -143.5 t135 -54.5z" glyph-name="b" unicode="b"/><glyph d="M308 -12q-108 0 -181 73.5t-73 183.5t73 183.5t182 73.5q115 0 182 -80q9 -13 2 -20l-19 -18q-11 -12 -22 1q-57 61 -141 61q-85 0 -141.5 -56t-56.5 -145q0 -88 56.5 -144t142.5 -56q85 0 139 59q13 14 24 3l19 -19q7 -7 -2 -19q-67 -81 -184 -81z" glyph-name="c" horiz-adv-x="551" unicode="c"/><glyph d="M537 715q13 0 13 -14v-687q0 -14 -13 -14h-32q-13 0 -13 14l-1 86q-60 -112 -194 -112q-107 0 -175 73t-68 184t68 184t175 73q133 0 193 -112v311q0 14 12 14h35zM304 45q83 0 135 54.5t52 143.5q0 90 -52 146t-135 56q-84 0 -138 -55.5t-54 -144.5t53.5 -144.5 t138.5 -55.5z" glyph-name="d" unicode="d"/><glyph d="M527 271q0 -27 -6.5 -37t-26.5 -10h-381q6 -80 59 -132t145 -52q80 0 146 50q8 8 14 0l14 -18q7 -10 -4 -21q-66 -63 -175 -63q-117 0 -187.5 74.5t-70.5 184.5q0 109 68.5 182t176.5 73q104 0 166 -68.5t62 -162.5zM298 448q-78 0 -128 -48t-57 -127h360 q-2 77 -49.5 126t-125.5 49z" glyph-name="e" horiz-adv-x="581" unicode="e"/><glyph d="M250 675q-40 0 -54 -21.5t-14 -61.5v-102h99q14 0 14 -14v-23q0 -14 -14 -14h-99v-425q0 -14 -13 -14h-35q-12 0 -12 14v425h-59q-14 0 -14 14v23q0 14 14 14h59v117q0 124 121 124q27 0 43 -6q9 -4 9 -13v-33q0 -9 -12 -7q-18 3 -33 3z" glyph-name="f" horiz-adv-x="343" unicode="f"/><glyph d="M532 490q12 0 12 -14v-459q0 -110 -72 -166t-177 -56q-102 0 -167 45q-12 8 -8 19l13 23q6 9 17 4q59 -39 143 -39q83 0 137.5 42t54.5 133v87q-59 -104 -191 -104q-106 0 -173 69.5t-67 179.5q0 109 67 178.5t171 69.5q134 0 194 -108l1 82q0 14 12 14h33zM301 61 q82 0 133 51.5t51 138.5q0 88 -51 141.5t-133 53.5t-135.5 -53t-53.5 -139q0 -88 53.5 -140.5t135.5 -52.5z" glyph-name="g" horiz-adv-x="623" unicode="g"/><glyph d="M302 502q82 0 131.5 -52t49.5 -147v-289q0 -14 -13 -14h-35q-12 0 -12 14v286q0 68 -35.5 107t-98.5 39q-65 0 -107.5 -40t-42.5 -106v-286q0 -14 -13 -14h-35q-12 0 -12 14v687q0 14 12 14h35q13 0 13 -14v-290q51 91 163 91z" glyph-name="h" horiz-adv-x="561" unicode="h"/><glyph d="M109 624q-17 0 -28.5 12t-11.5 28t11.5 28t28.5 12q16 0 27.5 -11.5t11.5 -28.5t-11.5 -28.5t-27.5 -11.5zM91 0q-12 0 -12 14v462q0 14 12 14h35q12 0 12 -14v-462q0 -14 -12 -14h-35z" glyph-name="i" horiz-adv-x="217" unicode="i"/><glyph d="M120 624q-16 0 -28 12t-12 28t12 28t28 12t27 -11.5t11 -28.5t-11 -28.5t-27 -11.5zM28 -200q-27 0 -43 6q-9 4 -9 13v33q0 9 12 7q18 -3 32 -3q40 0 54.5 21.5t14.5 61.5v537q0 14 13 14h34q13 0 13 -14v-552q0 -124 -121 -124z" glyph-name="j" horiz-adv-x="227" unicode="j"/><glyph d="M476 16q5 -6 2.5 -11t-11.5 -5h-37q-12 0 -18 9l-184 231l-89 -94v-132q0 -14 -13 -14h-35q-12 0 -12 14v687q0 14 12 14h35q13 0 13 -14v-480l242 261q7 8 17 8h46q8 0 9 -5t-4 -9l-184 -196z" glyph-name="k" horiz-adv-x="523" unicode="k"/><glyph d="M91 0q-12 0 -12 14v687q0 14 12 14h35q13 0 13 -14v-687q0 -14 -13 -14h-35z" glyph-name="l" horiz-adv-x="217" unicode="l"/><glyph d="M577 502q76 0 118 -49t42 -145v-294q0 -14 -12 -14h-35q-13 0 -13 14v290q0 142 -111 142q-58 0 -93 -38.5t-35 -103.5v-290q0 -14 -12 -14h-36q-12 0 -12 14v290q0 68 -30.5 105t-85.5 37q-58 0 -90.5 -38t-32.5 -104v-290q0 -14 -13 -14h-35q-12 0 -12 14v462 q0 14 12 14h31q14 0 14 -15l2 -57q41 84 139 84q110 0 146 -99q42 99 154 99z" glyph-name="m" horiz-adv-x="816" unicode="m"/><glyph d="M302 502q82 0 131.5 -52t49.5 -147v-289q0 -14 -13 -14h-35q-12 0 -12 14v286q0 68 -35.5 107t-98.5 39q-65 0 -107.5 -40t-42.5 -106v-286q0 -14 -13 -14h-35q-12 0 -12 14v462q0 14 12 14h31q14 0 14 -15l3 -64q51 91 163 91z" glyph-name="n" horiz-adv-x="561" unicode="n"/><glyph d="M304 -12q-107 0 -178.5 74t-71.5 183t71.5 183t178.5 74q106 0 177.5 -73.5t71.5 -183.5t-71.5 -183.5t-177.5 -73.5zM304 45q82 0 136.5 56.5t54.5 143.5t-54.5 144t-136.5 57q-83 0 -137 -56.5t-54 -144.5q0 -87 54 -143.5t137 -56.5z" glyph-name="o" horiz-adv-x="607" unicode="o"/><glyph d="M332 502q107 0 175 -73t68 -184t-68 -184t-175 -73q-132 0 -193 108v-272q0 -14 -13 -14h-35q-12 0 -12 14v652q0 14 12 14h33q12 0 12 -14l2 -88q60 114 194 114zM325 45q84 0 137.5 55.5t53.5 144.5t-53.5 144.5t-137.5 55.5q-83 0 -135 -56t-52 -146q0 -89 52 -143.5 t135 -54.5z" glyph-name="p" unicode="p"/><glyph d="M537 490q13 0 13 -14v-652q0 -14 -13 -14h-35q-12 0 -12 14v274q-60 -110 -193 -110q-107 0 -175 73t-68 184t68 184t175 73q134 0 194 -114l1 88q0 14 13 14h32zM304 45q83 0 135 54.5t52 143.5q0 90 -52 146t-135 56q-84 0 -138 -55.5t-54 -144.5t53.5 -144.5 t138.5 -55.5z" glyph-name="q" unicode="q"/><glyph d="M297 493q8 -5 8 -17v-25q0 -15 -17 -10q-14 5 -35 5q-43 0 -70 -24.5t-35.5 -52.5t-8.5 -59v-296q0 -14 -13 -14h-35q-12 0 -12 14v462q0 14 12 14h31q14 0 14 -15l2 -53q35 80 114 80q32 0 45 -9z" glyph-name="r" horiz-adv-x="348" unicode="r"/><glyph d="M219 -12q-97 0 -155 72q-9 12 -2 25l12 15q9 13 22 -1q53 -58 122 -58q48 0 77 22t29 63q0 35 -21 56t-61 38l-57 24q-52 22 -81.5 51.5t-29.5 78.5q0 58 42.5 93t103.5 35q88 0 140 -66q9 -10 -1 -22l-11 -13q-11 -13 -24 0q-45 49 -102 49q-38 0 -64 -19t-26 -55 q0 -35 21.5 -54t68.5 -38l45 -19q55 -22 85.5 -53.5t30.5 -84.5q0 -65 -47.5 -102t-116.5 -37z" glyph-name="s" horiz-adv-x="442" unicode="s"/><glyph d="M271 439h-84v-344q0 -29 10.5 -41.5t34.5 -12.5q15 0 31 2q20 4 20 -12v-23q0 -20 -60 -20q-96 0 -96 100v351h-64q-14 0 -14 14v23q0 14 14 14h64v116q0 14 13 14h34q13 0 13 -14v-116h84q14 0 14 -14v-23q0 -14 -14 -14z" glyph-name="t" horiz-adv-x="334" unicode="t"/><glyph d="M470 490q13 0 13 -14v-462q0 -14 -13 -14h-31q-14 0 -14 15l-2 64q-51 -91 -163 -91q-82 0 -131.5 52t-49.5 148v288q0 14 12 14h35q13 0 13 -14v-286q0 -68 35 -106.5t98 -38.5q65 0 108 39.5t43 105.5v286q0 14 12 14h35z" glyph-name="u" horiz-adv-x="562" unicode="u"/><glyph d="M252 0q-14 0 -18 12l-183 461q-6 17 11 17h34q12 0 16 -12l158 -412l158 412q4 12 16 12h34q17 0 11 -17l-183 -461q-4 -12 -18 -12h-36z" glyph-name="v" horiz-adv-x="540" unicode="v"/><glyph d="M231 0q-13 0 -18 12l-162 461q-6 17 11 17h34q12 0 16 -12l140 -413l144 413q4 12 18 12h40q14 0 18 -12l144 -413l140 413q4 12 15 12h35q17 0 11 -17l-162 -461q-5 -12 -18 -12h-40q-13 0 -18 12l-145 413l-145 -413q-5 -12 -18 -12h-40z" glyph-name="w" horiz-adv-x="868" unicode="w"/><glyph d="M59 0q-8 0 -10 5t3 12l154 233l-147 223q-10 17 8 17h38q11 0 17 -10l120 -188l120 188q6 10 17 10h39q17 0 7 -17l-147 -223l154 -233q12 -17 -7 -17h-39q-11 0 -17 10l-127 199l-127 -199q-6 -10 -17 -10h-39z" glyph-name="x" horiz-adv-x="484" unicode="x"/><glyph d="M180 -190q-15 0 -10 14l69 174l-188 475q-6 17 11 17h34q12 0 16 -12l158 -412l158 412q4 12 15 12h35q17 0 11 -17l-258 -651q-5 -12 -17 -12h-34z" glyph-name="y" horiz-adv-x="540" unicode="y"/><glyph d="M73 0q-14 0 -14 14v29q0 9 7 18l289 377h-279q-14 0 -14 13v25q0 14 14 14h332q15 0 15 -14v-29q0 -8 -7 -17l-290 -377h284q14 0 14 -14v-25q0 -14 -14 -14h-337z" glyph-name="z" horiz-adv-x="483" unicode="z"/><glyph d="M222 745q13 0 13 -12v-28q0 -12 -13 -12h-22q-35 0 -35 -36v-273q0 -12 -5 -19l-30 -49q-6 -10 0 -20l30 -47q5 -9 5 -19v-272q0 -36 35 -36h22q13 0 13 -12v-28q0 -12 -13 -12h-52q-31 0 -49 20t-18 49v286q0 11 -5 19l-33 52q-6 11 -1 20l34 54q5 9 5 19v287 q0 29 18 49t49 20h52z" glyph-name="braceleft" horiz-adv-x="296" unicode="{"/><glyph d="M103 -190q-14 0 -14 14v962q0 14 14 14h35q13 0 13 -14v-962q0 -14 -13 -14h-35z" glyph-name="bar" horiz-adv-x="240" unicode="|"/><glyph d="M74 745h52q31 0 49 -20t18 -49v-287q0 -10 5 -19l34 -54q5 -9 -1 -20l-33 -52q-5 -8 -5 -19v-286q0 -29 -18 -49t-49 -20h-52q-13 0 -13 12v28q0 12 13 12h22q35 0 35 36v272q0 10 5 19l30 47q6 10 0 20l-30 49q-5 7 -5 19v273q0 36 -35 36h-22q-13 0 -13 12v28 q0 12 13 12z" glyph-name="braceright" horiz-adv-x="296" unicode="}"/><glyph d="M289 231q-37 0 -78.5 35.5t-68.5 35.5q-37 0 -45 -33q-1 -11 -12 -11h-15q-12 0 -10 15q4 35 27.5 54t57.5 19q40 0 81 -35.5t67 -35.5q37 0 46 34q1 10 12 10h15q12 0 10 -15q-4 -35 -28 -54t-59 -19z" glyph-name="asciitilde" horiz-adv-x="436" unicode="~"/><glyph glyph-name="uni00A0" horiz-adv-x="201" unicode=" "/><glyph d="M107 533q19 0 32.5 -13.5t13.5 -32.5t-13.5 -32.5t-32.5 -13.5t-32.5 13.5t-13.5 32.5t13.5 32.5t32.5 13.5zM96 337h24q13 0 13 -13l7 -490q0 -14 -12 -14h-40q-12 0 -12 14l7 490q0 13 13 13z" glyph-name="exclamdown" horiz-adv-x="215" unicode="¡"/><glyph d="M454 211q7 -7 -1 -18q-58 -68 -156 -72v-108q0 -13 -13 -13h-11q-12 0 -12 13v109q-90 8 -148.5 72t-58.5 156t58.5 155.5t148.5 72.5v110q0 12 12 12h11q13 0 13 -12v-109q98 -5 155 -71q9 -12 1 -18l-17 -16q-9 -10 -20 1q-50 52 -119 54v-357q72 3 119 53q12 11 21 2z M108 350q0 -71 42.5 -119t110.5 -57v353q-67 -8 -110 -57t-43 -120z" glyph-name="cent" horiz-adv-x="512" unicode="¢"/><glyph d="M276 652q-61 0 -98.5 -37t-37.5 -95q0 -30 10.5 -59.5t29 -66t26.5 -58.5h138q13 0 13 -12v-23q0 -12 -13 -12h-125q4 -19 4 -45q0 -119 -92 -190h306q13 0 13 -14v-26q0 -14 -13 -14h-366q-13 0 -13 14v40q106 66 106 186q0 24 -5 49h-87q-12 0 -12 12v23q0 12 12 12h74 q-7 18 -26.5 56.5t-29 68.5t-9.5 64q0 78 52.5 130.5t140.5 52.5q116 0 179 -99q8 -13 -1 -22l-21 -19q-4 -5 -9.5 -4.5t-8.5 6.5q-16 23 -29 37.5t-42.5 29.5t-65.5 15z" glyph-name="sterling" horiz-adv-x="515" unicode="£"/><glyph d="M513 476q0 -83 -52 -143l50 -51l-31 -30l-49 50q-63 -50 -142 -50t-142 50l-50 -50l-31 30l51 51q-52 60 -52 143q0 81 52 144l-51 50l31 30l51 -50q61 50 141 50t141 -50l50 50l31 -30l-50 -50q52 -63 52 -144zM289 292q74 0 128.5 52.5t54.5 131.5q0 78 -54.5 131 t-128.5 53t-128.5 -53t-54.5 -131q0 -79 54.5 -131.5t128.5 -52.5z" glyph-name="currency" horiz-adv-x="577" unicode="¤"/><glyph d="M534 682l-207 -344v-1h91q14 0 14 -14v-20q0 -14 -14 -14h-91v-43h91q14 0 14 -14v-20q0 -14 -14 -14h-91v-184q0 -14 -14 -14h-35q-14 0 -14 14v184h-89q-14 0 -14 14v20q0 14 14 14h89v43h-89q-14 0 -14 14v20q0 14 14 14h89v1l-207 344q-5 8 -2.5 13t11.5 5h40 q10 0 16 -10l174 -292l173 292q6 10 17 10h40q19 0 8 -18z" glyph-name="yen" horiz-adv-x="591" unicode="¥"/><glyph d="M103 490q-14 0 -14 14v282q0 14 14 14h35q13 0 13 -14v-282q0 -14 -13 -14h-35zM103 -190q-14 0 -14 14v282q0 14 14 14h35q13 0 13 -14v-282q0 -14 -13 -14h-35z" glyph-name="brokenbar" horiz-adv-x="240" unicode="¦"/><glyph d="M311 216q77 -44 77 -117q0 -64 -46.5 -100.5t-117.5 -36.5q-97 0 -160 69q-11 13 -1 27l8 12q10 14 27 0q55 -55 126 -55q48 0 76 22t28 60q0 60 -84 92l-62 26q-112 44 -112 131q0 42 24.5 72.5t64.5 44.5q-87 42 -87 120q0 59 43.5 93t107.5 34q88 0 144 -65 q9 -10 -1 -22l-11 -13q-11 -13 -24 0q-45 48 -107 48q-39 0 -66 -18.5t-27 -54.5q0 -35 20.5 -53.5t62.5 -35.5l56 -23q57 -24 88 -54.5t31 -81.5q0 -86 -78 -121zM130 348q0 -36 20.5 -54t61.5 -35l17 -7q46 1 73.5 23t27.5 59q0 41 -42 71q-31 16 -66 16q-38 0 -65 -18.5 t-27 -54.5z" glyph-name="section" horiz-adv-x="447" unicode="§"/><glyph d="M53 631q-16 0 -27 11t-11 26t11 26t27 11t27 -11t11 -26t-11 -26t-27 -11zM227 631q-15 0 -26.5 11t-11.5 26t11.5 26t26.5 11q16 0 27 -11t11 -26t-11 -26t-27 -11z" glyph-name="dieresis" horiz-adv-x="280" unicode="¨"/><glyph d="M353 136q-119 0 -201.5 84t-82.5 202q0 119 82.5 202.5t201.5 83.5t201 -83.5t82 -202.5q0 -118 -82 -202t-201 -84zM353 183q100 0 168 69.5t68 169.5t-68 170t-168 70t-168.5 -70t-68.5 -170t68.5 -169.5t168.5 -69.5zM357 258q-69 0 -115.5 47t-46.5 117 q0 71 46.5 118.5t115.5 47.5q72 0 119 -52q8 -8 0 -15l-14 -13q-9 -7 -17 1q-38 36 -85 36q-53 0 -86 -34t-33 -89q0 -54 33 -87.5t86 -33.5q48 0 85 35q9 9 17 1l14 -13q7 -7 0 -14q-47 -52 -119 -52z" glyph-name="copyright" horiz-adv-x="705" unicode="©"/><glyph d="M376 700h43v-359h-43l-6 69q-49 -69 -140 -69q-76 0 -126 52t-50 130t50 130t126 52q91 0 141 -69zM234 387q59 0 98.5 39t39.5 97q0 59 -39.5 97.5t-98.5 38.5q-58 0 -95.5 -38.5t-37.5 -97.5t37.5 -97.5t95.5 -38.5z" glyph-name="ordfeminine" horiz-adv-x="473" unicode="ª"/><glyph d="M178 165q0 -6 -4.5 -8t-8.5 1l-106 86q-8 7 -8 16v42q0 8 8 15l106 86q4 4 8.5 1.5t4.5 -8.5v-34q0 -8 -8 -15l-83 -66l83 -67q8 -7 8 -15v-34zM323 165q0 -6 -4.5 -8t-8.5 1l-106 86q-8 7 -8 16v42q0 8 8 15l106 86q4 4 8.5 1.5t4.5 -8.5v-34q0 -8 -8 -15l-83 -66 l83 -67q8 -7 8 -15v-34z" glyph-name="guillemotleft" horiz-adv-x="374" unicode="«"/><glyph d="M388 153q-13 0 -13 14v80h-301q-14 0 -14 14v25q0 14 14 14h347q14 0 14 -14v-119q0 -14 -14 -14h-33z" glyph-name="logicalnot" horiz-adv-x="495" unicode="¬"/><glyph d="M368 311q12 0 12 -13v-28q0 -13 -12 -13h-299q-13 0 -13 13v28q0 13 13 13h299z" glyph-name="uni00AD" horiz-adv-x="436" unicode="­"/><glyph d="M353 708q119 0 201 -83.5t82 -202.5q0 -118 -82 -202t-201 -84t-201.5 84t-82.5 202q0 119 82.5 202.5t201.5 83.5zM353 183q100 0 168 69.5t68 169.5t-68 170t-168 70q-101 0 -169 -70t-68 -170t68 -169.5t169 -69.5zM402 379l90 -94q4 -5 2.5 -8.5t-8.5 -3.5h-32 q-7 0 -12 6l-92 99h-68v-96q0 -9 -9 -9h-26q-9 0 -9 9v280q0 9 9 9h132q52 0 82 -26.5t30 -71.5q0 -38 -23.5 -63t-65.5 -31zM282 530v-111h100q32 0 47.5 15.5t15.5 38.5q0 57 -63 57h-100z" glyph-name="registered" horiz-adv-x="705" unicode="®"/><glyph d="M296 700q14 0 14 -14v-23q0 -14 -14 -14h-267q-14 0 -14 14v23q0 14 14 14h267z" glyph-name="macron" horiz-adv-x="325" unicode="¯"/><glyph d="M206 427q-60 0 -103 42t-43 102q0 62 42.5 103.5t103.5 41.5q60 0 102.5 -41.5t42.5 -103.5q0 -60 -42.5 -102t-102.5 -42zM206 473q40 0 68.5 27t28.5 71t-28.5 71.5t-68.5 27.5q-41 0 -69.5 -27.5t-28.5 -71.5t28.5 -71t69.5 -27z" glyph-name="degree" horiz-adv-x="411" unicode="°"/><glyph d="M342 292q14 0 14 -14v-28q0 -13 -14 -13h-103v-105q0 -14 -14 -14h-28q-13 0 -13 14v105h-105q-14 0 -14 13v28q0 14 14 14h105v103q0 14 13 14h28q14 0 14 -14v-103h103zM343 43q13 0 13 -13v-17q0 -13 -13 -13h-265q-13 0 -13 13v17q0 13 13 13h265z" glyph-name="plusminus" horiz-adv-x="421" unicode="±"/><glyph d="M123 704q39 0 61 -21.5t22 -53.5q0 -17 -9.5 -34t-20 -29t-36.5 -38l-9 -9l-49 -49h126v-30h-166v30l68 69l18.5 18.5l15.5 15.5t11 12t9 11.5t5 10t4 11.5t1 12q0 23 -14.5 34.5t-36.5 11.5t-36.5 -12.5t-14.5 -39.5v-15h-32v14q0 37 22 59t61 22z" glyph-name="uni00B2" horiz-adv-x="247" unicode="²"/><glyph d="M126 703q39 0 59.5 -19t20.5 -48q0 -37 -40 -57q51 -16 51 -67q0 -34 -24 -55t-65 -21q-44 0 -66 23.5t-22 57.5h31q0 -23 14.5 -38t42.5 -15q25 0 41 12.5t16 35.5q0 29 -20 40t-57 11v25q33 0 50 13t17 35q0 38 -49 38t-49 -50h-30q-1 36 18.5 57.5t60.5 21.5z" glyph-name="uni00B3" horiz-adv-x="257" unicode="³"/><glyph d="M121 700q15 0 8 -16l-54 -115q-4 -12 -15 -12h-35q-15 0 -8 16l53 115q5 12 16 12h35z" glyph-name="acute" horiz-adv-x="146" unicode="´"/><glyph d="M470 490q13 0 13 -14v-462q0 -14 -13 -14h-31q-14 0 -14 15l-2 64q-51 -91 -163 -91q-74 0 -121 42v-206q0 -14 -14 -14h-32q-14 0 -14 14v652q0 14 12 14h35q13 0 13 -14v-286q0 -68 35 -106.5t98 -38.5q65 0 108 39.5t43 105.5v286q0 14 12 14h35z" glyph-name="uni00B5" horiz-adv-x="561" unicode="µ"/><glyph d="M484 0h-35q-14 0 -14 14v255h-139q-108 0 -167.5 59t-59.5 156t59.5 156.5t167.5 59.5h188q14 0 14 -14v-672q0 -14 -14 -14zM600 0q-14 0 -14 14v672q0 14 14 14h35q14 0 14 -14v-672q0 -14 -14 -14h-35zM435 325v319h-132q-78 0 -125.5 -39t-47.5 -121t47.5 -120.5 t125.5 -38.5h132z" glyph-name="paragraph" horiz-adv-x="738" unicode="¶"/><glyph d="M96 244q-19 0 -32.5 13t-13.5 33q0 19 13.5 32t32.5 13t32.5 -13t13.5 -32q0 -20 -13.5 -33t-32.5 -13z" glyph-name="periodcentered" horiz-adv-x="192" unicode="·"/><glyph d="M83 -42q37 -1 61.5 -21.5t24.5 -55.5q0 -54 -43.5 -76t-101.5 -15q-9 2 -9 11v21q0 10 11 10q93 -5 93 43q0 28 -27.5 38.5t-64.5 -1.5q-12 -2 -12 7v19q0 5 5 12l45 50h57l-39 -41v-1z" glyph-name="cedilla" horiz-adv-x="184" unicode="¸"/><glyph d="M103 701v-261h-32v231h-30v30h62z" glyph-name="uni00B9" horiz-adv-x="169" unicode="¹"/><glyph d="M237 341q-77 0 -130 52.5t-53 129.5t53 129.5t130 52.5t130 -52.5t53 -129.5t-53 -129.5t-130 -52.5zM237 387q57 0 96 39.5t39 96.5t-39 96.5t-96 39.5t-96.5 -39.5t-39.5 -96.5t39.5 -96.5t96.5 -39.5z" glyph-name="ordmasculine" horiz-adv-x="474" unicode="º"/><glyph d="M51 165v34q0 8 8 15l83 67l-83 66q-8 7 -8 15v34q0 6 4.5 8.5t8.5 -1.5l106 -86q8 -7 8 -15v-42q0 -9 -8 -16l-106 -86q-4 -3 -8.5 -1t-4.5 8zM196 165v34q0 8 8 15l83 67l-83 66q-8 7 -8 15v34q0 6 4.5 8.5t8.5 -1.5l106 -86q8 -7 8 -15v-42q0 -9 -8 -16l-106 -86 q-4 -3 -8.5 -1t-4.5 8z" glyph-name="guillemotright" horiz-adv-x="374" unicode="»"/><glyph d="M101 701v-261h-32v231h-29v30h61zM519 700l-429 -700h-38l429 700h38zM513 261v-169h27v-30h-27v-62h-32v62h-136l136 199h32zM481 214l-82 -122h82v122z" glyph-name="onequarter" horiz-adv-x="585" unicode="¼"/><glyph d="M101 701v-261h-32v231h-29v30h61zM519 700l-429 -700h-38l429 700h38zM449 264q39 0 61 -21.5t22 -53.5q0 -18 -11.5 -37t-22 -30.5t-42.5 -42.5l-48 -49h126v-30h-166v30l68 69l18.5 18.5l15.5 15.5t11 12t9 11.5t5 10t4 11.5t1 12q0 23 -14.5 34.5t-36.5 11.5 q-51 0 -51 -52v-15h-32v14q0 37 22 59t61 22z" glyph-name="onehalf" horiz-adv-x="578" unicode="½"/><glyph d="M126 703q39 0 59.5 -19t20.5 -48q0 -37 -40 -57q51 -16 51 -67q0 -34 -24 -55t-65 -21q-44 0 -66 23.5t-22 57.5h31q0 -23 14.5 -38t42.5 -15q25 0 41 12.5t16 35.5q0 29 -20 40t-57 11v25q33 0 50 13t17 35q0 38 -49 38t-49 -50h-30q-1 36 18.5 57.5t60.5 21.5zM550 700 l-429 -700h-38l429 700h38zM534 261v-169h27v-30h-27v-62h-32v62h-136l136 199h32zM502 214l-82 -122h82v122z" glyph-name="threequarters" horiz-adv-x="601" unicode="¾"/><glyph d="M225 533q19 0 32.5 -13.5t13.5 -32.5t-13.5 -32.5t-32.5 -13.5t-32.5 13.5t-13.5 32.5t13.5 32.5t32.5 13.5zM241 345q12 0 12 -15v-37q0 -47 -16 -84.5t-38.5 -62t-45 -47.5t-38.5 -53t-16 -65q0 -54 32.5 -82.5t84.5 -28.5q93 0 132 94q6 10 23 0l15 -9q14 -9 9 -21 q-18 -49 -64 -85.5t-119 -36.5q-76 0 -124.5 43t-48.5 118q0 42 16 76.5t39 60t46.5 50.5t40 60t17.5 76v34q0 15 13 15h30z" glyph-name="questiondown" horiz-adv-x="449" unicode="¿"/><glyph d="M304 779l-54 115q-7 16 8 16h36q11 0 15 -12l53 -115q7 -16 -8 -16h-34q-11 0 -16 12zM623 17q7 -17 -11 -17h-38q-11 0 -15 12l-55 153h-330l-54 -153q-4 -12 -17 -12h-36q-18 0 -11 17l244 671q4 12 18 12h43q13 0 18 -12zM194 221h290l-145 407z" glyph-name="Agrave" horiz-adv-x="679" unicode="À"/><glyph d="M326 767q-15 0 -8 16l53 115q5 12 16 12h35q15 0 8 -16l-54 -115q-4 -12 -15 -12h-35zM623 17q7 -17 -11 -17h-38q-11 0 -15 12l-55 153h-330l-54 -153q-4 -12 -17 -12h-36q-18 0 -11 17l244 671q4 12 18 12h43q13 0 18 -12zM194 221h290l-145 407z" glyph-name="Aacute" horiz-adv-x="679" unicode="Á"/><glyph d="M225 786q-7 0 -9 4.5t2 8.5l84 103q7 8 16 8h44q8 0 15 -8l85 -103q4 -4 1.5 -8.5t-8.5 -4.5h-33q-9 0 -16 8l-66 82l-66 -82q-7 -8 -16 -8h-33zM623 17q7 -17 -11 -17h-38q-11 0 -15 12l-55 153h-330l-54 -153q-4 -12 -17 -12h-36q-18 0 -11 17l244 671q4 12 18 12h43 q13 0 18 -12zM194 221h290l-145 407z" glyph-name="Acircumflex" horiz-adv-x="679" unicode="Â"/><glyph d="M207 848q-11 0 -9 12q4 32 25.5 49.5t53.5 17.5q35 0 72.5 -32t61.5 -32q30 0 41 31q3 9 11 9h12q10 0 10 -10q-4 -33 -25.5 -51t-48.5 -18q-38 0 -76.5 32t-61.5 32q-32 0 -43 -31q-3 -9 -11 -9h-12zM623 17q7 -17 -11 -17h-38q-11 0 -15 12l-55 153h-330l-54 -153 q-4 -12 -17 -12h-36q-18 0 -11 17l244 671q4 12 18 12h43q13 0 18 -12zM194 221h290l-145 407z" glyph-name="Atilde" horiz-adv-x="679" unicode="Ã"/><glyph d="M253 841q-16 0 -27 11t-11 26t11 26t27 11t27 -11t11 -26t-11 -26t-27 -11zM427 841q-15 0 -26.5 11t-11.5 26t11.5 26t26.5 11q16 0 27 -11t11 -26t-11 -26t-27 -11zM623 17q7 -17 -11 -17h-38q-11 0 -15 12l-55 153h-330l-54 -153q-4 -12 -17 -12h-36q-18 0 -11 17 l244 671q4 12 18 12h43q13 0 18 -12zM194 221h290l-145 407z" glyph-name="Adieresis" horiz-adv-x="679" unicode="Ä"/><glyph d="M340 776q-32 0 -54 21.5t-22 52.5q0 32 22 53t54 21t54 -21t22 -53q0 -31 -22 -52.5t-54 -21.5zM340 879q-13 0 -21 -8t-8 -21t8 -21t21 -8q12 0 20.5 8t8.5 21t-8.5 21t-20.5 8zM623 17q7 -17 -11 -17h-38q-11 0 -15 12l-55 153h-330l-54 -153q-4 -12 -17 -12h-36 q-18 0 -11 17l244 671q4 12 18 12h43q13 0 18 -12zM194 221h290l-145 407z" glyph-name="Aring" horiz-adv-x="679" unicode="Å"/><glyph d="M786 57q14 0 14 -14v-29q0 -14 -14 -14h-332q-14 0 -14 14v165h-235l-84 -167q-5 -12 -17 -12h-37q-19 0 -11 17l344 671q8 12 19 12h366q14 0 14 -14v-29q0 -13 -14 -13h-282v-253h268q14 0 14 -14v-29q0 -14 -14 -14h-268v-277h283zM234 236h206v407z" glyph-name="AE" horiz-adv-x="879" unicode="Æ"/><glyph d="M438 -13l-27 -28v-1q37 -1 61.5 -21.5t24.5 -55.5q0 -54 -43.5 -76t-101.5 -15q-9 2 -9 11v21q0 10 11 10q93 -5 93 43q0 28 -27.5 38.5t-64.5 -1.5q-12 -2 -12 7v19q0 5 5 12l35 39q-139 14 -226.5 115t-87.5 243q0 153 100 257t254 104q134 0 235 -88q13 -13 3 -24 l-20 -23q-10 -10 -22 0q-87 74 -194 74q-126 0 -209.5 -85t-83.5 -215q0 -129 83.5 -214t209.5 -85q107 0 194 74q12 10 21 1l21 -24q11 -9 -3 -23q-95 -83 -220 -89z" glyph-name="Ccedilla" horiz-adv-x="730" unicode="Ç"/><glyph d="M191 910h36q11 0 15 -12l53 -115q7 -16 -8 -16h-34q-11 0 -16 12l-54 115q-7 16 8 16zM103 0q-14 0 -14 14v672q0 14 14 14h331q14 0 14 -14v-29q0 -13 -14 -13h-283v-253h269q13 0 13 -14v-29q0 -14 -13 -14h-269v-277h284q14 0 14 -14v-29q0 -14 -14 -14h-332z" glyph-name="Egrave" horiz-adv-x="528" unicode="È"/><glyph d="M356 910q15 0 8 -16l-54 -115q-4 -12 -15 -12h-35q-15 0 -8 16l53 115q5 12 16 12h35zM103 0q-14 0 -14 14v672q0 14 14 14h331q14 0 14 -14v-29q0 -13 -14 -13h-283v-253h269q13 0 13 -14v-29q0 -14 -13 -14h-269v-277h284q14 0 14 -14v-29q0 -14 -14 -14h-332z" glyph-name="Eacute" horiz-adv-x="528" unicode="É"/><glyph d="M158 786q-7 0 -9 4.5t2 8.5l84 103q7 8 16 8h44q8 0 15 -8l85 -103q4 -4 1.5 -8.5t-8.5 -4.5h-33q-9 0 -16 8l-66 82l-66 -82q-7 -8 -16 -8h-33zM103 0q-14 0 -14 14v672q0 14 14 14h331q14 0 14 -14v-29q0 -13 -14 -13h-283v-253h269q13 0 13 -14v-29q0 -14 -13 -14 h-269v-277h284q14 0 14 -14v-29q0 -14 -14 -14h-332z" glyph-name="Ecircumflex" horiz-adv-x="528" unicode="Ê"/><glyph d="M187 841q-16 0 -27 11t-11 26t11 26t27 11t27 -11t11 -26t-11 -26t-27 -11zM361 841q-15 0 -26.5 11t-11.5 26t11.5 26t26.5 11q16 0 27 -11t11 -26t-11 -26t-27 -11zM103 0q-14 0 -14 14v672q0 14 14 14h331q14 0 14 -14v-29q0 -13 -14 -13h-283v-253h269q13 0 13 -14 v-29q0 -14 -13 -14h-269v-277h284q14 0 14 -14v-29q0 -14 -14 -14h-332z" glyph-name="Edieresis" horiz-adv-x="528" unicode="Ë"/><glyph d="M38 910h36q11 0 15 -12l53 -115q7 -16 -8 -16h-34q-11 0 -16 12l-54 115q-7 16 8 16zM103 0q-14 0 -14 14v672q0 14 14 14h35q13 0 13 -14v-672q0 -14 -13 -14h-35z" glyph-name="Igrave" horiz-adv-x="240" unicode="Ì"/><glyph d="M203 910q15 0 8 -16l-54 -115q-4 -12 -15 -12h-35q-15 0 -8 16l53 115q5 12 16 12h35zM103 0q-14 0 -14 14v672q0 14 14 14h35q13 0 13 -14v-672q0 -14 -13 -14h-35z" glyph-name="Iacute" horiz-adv-x="240" unicode="Í"/><glyph d="M5 786q-6 0 -8.5 4.5t0.5 8.5l85 103q7 8 16 8h44q8 0 15 -8l85 -103q4 -4 1.5 -8.5t-8.5 -4.5h-33q-9 0 -16 8l-66 82l-66 -82q-7 -8 -16 -8h-33zM103 0q-14 0 -14 14v672q0 14 14 14h35q13 0 13 -14v-672q0 -14 -13 -14h-35z" glyph-name="Icircumflex" horiz-adv-x="240" unicode="Î"/><glyph d="M33 841q-16 0 -27 11t-11 26t11 26t27 11t27 -11t11 -26t-11 -26t-27 -11zM207 841q-15 0 -26.5 11t-11.5 26t11.5 26t26.5 11q16 0 27 -11t11 -26t-11 -26t-27 -11zM103 0q-14 0 -14 14v672q0 14 14 14h35q13 0 13 -14v-672q0 -14 -13 -14h-35z" glyph-name="Idieresis" horiz-adv-x="240" unicode="Ï"/><glyph d="M254 700q177 0 266 -96t89 -254t-89 -254t-266 -96h-143q-14 0 -14 14v312h-58q-14 0 -14 14v23q0 14 14 14h58v309q0 14 14 14h143zM253 57q149 0 221 76.5t72 216.5t-72 217t-221 77h-94v-267h147q14 0 14 -14v-23q0 -14 -14 -14h-147v-269h94z" glyph-name="Eth" horiz-adv-x="673" unicode="Ð"/><glyph d="M199 848q-11 0 -9 12q4 32 25.5 49.5t53.5 17.5q35 0 72.5 -32t61.5 -32q30 0 41 31q3 9 11 9h12q10 0 10 -10q-4 -33 -25.5 -51t-48.5 -18q-38 0 -76.5 32t-61.5 32q-32 0 -43 -31q-3 -9 -11 -9h-12zM561 700q14 0 14 -14v-672q0 -14 -14 -14h-51q-12 0 -18 10l-341 605 v-601q0 -14 -13 -14h-35q-14 0 -14 14v672q0 14 14 14h51q12 0 18 -10l340 -603v599q0 14 14 14h35z" glyph-name="Ntilde" horiz-adv-x="664" unicode="Ñ"/><glyph d="M345 910h36q11 0 15 -12l53 -115q7 -16 -8 -16h-34q-11 0 -16 12l-54 115q-7 16 8 16zM426 -13q-151 0 -254 104t-103 256t103 256.5t254 104.5t254.5 -104.5t103.5 -256.5t-103.5 -256t-254.5 -104zM426 48q126 0 210.5 85.5t84.5 213.5q0 129 -84.5 214.5t-210.5 85.5 t-210 -85.5t-84 -214.5q0 -128 84.5 -213.5t209.5 -85.5z" glyph-name="Ograve" horiz-adv-x="853" unicode="Ò"/><glyph d="M509 910q15 0 8 -16l-54 -115q-4 -12 -15 -12h-35q-15 0 -8 16l53 115q5 12 16 12h35zM426 -13q-151 0 -254 104t-103 256t103 256.5t254 104.5t254.5 -104.5t103.5 -256.5t-103.5 -256t-254.5 -104zM426 48q126 0 210.5 85.5t84.5 213.5q0 129 -84.5 214.5t-210.5 85.5 t-210 -85.5t-84 -214.5q0 -128 84.5 -213.5t209.5 -85.5z" glyph-name="Oacute" horiz-adv-x="853" unicode="Ó"/><glyph d="M312 786q-7 0 -9 4.5t2 8.5l84 103q7 8 16 8h44q8 0 15 -8l85 -103q4 -4 1.5 -8.5t-8.5 -4.5h-33q-9 0 -16 8l-66 82l-66 -82q-7 -8 -16 -8h-33zM426 -13q-151 0 -254 104t-103 256t103 256.5t254 104.5t254.5 -104.5t103.5 -256.5t-103.5 -256t-254.5 -104zM426 48 q126 0 210.5 85.5t84.5 213.5q0 129 -84.5 214.5t-210.5 85.5t-210 -85.5t-84 -214.5q0 -128 84.5 -213.5t209.5 -85.5z" glyph-name="Ocircumflex" horiz-adv-x="853" unicode="Ô"/><glyph d="M364 927q35 0 72.5 -32t61.5 -32q30 0 41 31q3 9 11 9h12q10 0 10 -10q-4 -33 -25.5 -51t-48.5 -18q-38 0 -76.5 32t-61.5 32q-32 0 -43 -31q-3 -9 -11 -9h-12q-10 0 -9 12q4 32 25.5 49.5t53.5 17.5zM426 -13q-151 0 -254 104t-103 256t103 256.5t254 104.5 t254.5 -104.5t103.5 -256.5t-103.5 -256t-254.5 -104zM426 48q126 0 210.5 85.5t84.5 213.5q0 129 -84.5 214.5t-210.5 85.5t-210 -85.5t-84 -214.5q0 -128 84.5 -213.5t209.5 -85.5z" glyph-name="Otilde" horiz-adv-x="853" unicode="Õ"/><glyph d="M340 841q-16 0 -27 11t-11 26t11 26t27 11t27 -11t11 -26t-11 -26t-27 -11zM514 841q-15 0 -26.5 11t-11.5 26t11.5 26t26.5 11q16 0 27 -11t11 -26t-11 -26t-27 -11zM426 -13q-151 0 -254 104t-103 256t103 256.5t254 104.5t254.5 -104.5t103.5 -256.5t-103.5 -256 t-254.5 -104zM426 48q126 0 210.5 85.5t84.5 213.5q0 129 -84.5 214.5t-210.5 85.5t-210 -85.5t-84 -214.5q0 -128 84.5 -213.5t209.5 -85.5z" glyph-name="Odieresis" horiz-adv-x="853" unicode="Ö"/><glyph d="M222 283l73 -73q9 -10 0 -20l-19 -19q-10 -9 -20 0l-73 73l-74 -74q-9 -10 -19 0l-20 19q-9 11 0 20l74 74l-74 74q-10 9 0 19l20 20q10 10 19 0l74 -74l73 73q10 9 20 0l19 -19q9 -11 0 -20z" glyph-name="multiply" horiz-adv-x="364" unicode="×"/><glyph d="M595 667q87 -46 138 -131t51 -189q0 -152 -103.5 -256t-254.5 -104q-63 0 -124 21l-21 -47q-5 -11 -15 -11h-25q-17 0 -9 18l26 59q-86 46 -137.5 131t-51.5 189q0 152 103 256.5t254 104.5q65 0 126 -22l21 48q5 11 15 11h25q17 0 9 -18zM132 347q0 -86 41 -156 t110 -108l244 547q-48 17 -101 17q-126 0 -210 -85.5t-84 -214.5zM426 48q126 0 210.5 85.5t84.5 213.5q0 87 -40.5 157t-110.5 107l-243 -547q50 -16 99 -16z" glyph-name="Oslash" horiz-adv-x="853" unicode="Ø"/><glyph d="M230 910h36q11 0 15 -12l53 -115q7 -16 -8 -16h-34q-11 0 -16 12l-54 115q-7 16 8 16zM312 -13q-103 0 -165.5 62.5t-62.5 174.5v462q0 14 14 14h35q13 0 13 -14v-453q0 -92 45 -138.5t121 -46.5q75 0 120 46.5t45 138.5v453q0 14 14 14h35q14 0 14 -14v-462 q0 -112 -62 -174.5t-166 -62.5z" glyph-name="Ugrave" horiz-adv-x="624" unicode="Ù"/><glyph d="M395 910q15 0 8 -16l-54 -115q-4 -12 -15 -12h-35q-15 0 -8 16l53 115q5 12 16 12h35zM312 -13q-103 0 -165.5 62.5t-62.5 174.5v462q0 14 14 14h35q13 0 13 -14v-453q0 -92 45 -138.5t121 -46.5q75 0 120 46.5t45 138.5v453q0 14 14 14h35q14 0 14 -14v-462 q0 -112 -62 -174.5t-166 -62.5z" glyph-name="Uacute" horiz-adv-x="624" unicode="Ú"/><glyph d="M197 786q-7 0 -9 4.5t2 8.5l84 103q7 8 16 8h44q8 0 15 -8l85 -103q4 -4 1.5 -8.5t-8.5 -4.5h-33q-9 0 -16 8l-66 82l-66 -82q-7 -8 -16 -8h-33zM312 -13q-103 0 -165.5 62.5t-62.5 174.5v462q0 14 14 14h35q13 0 13 -14v-453q0 -92 45 -138.5t121 -46.5q75 0 120 46.5 t45 138.5v453q0 14 14 14h35q14 0 14 -14v-462q0 -112 -62 -174.5t-166 -62.5z" glyph-name="Ucircumflex" horiz-adv-x="624" unicode="Û"/><glyph d="M225 841q-16 0 -27 11t-11 26t11 26t27 11t27 -11t11 -26t-11 -26t-27 -11zM399 841q-15 0 -26.5 11t-11.5 26t11.5 26t26.5 11q16 0 27 -11t11 -26t-11 -26t-27 -11zM312 -13q-103 0 -165.5 62.5t-62.5 174.5v462q0 14 14 14h35q13 0 13 -14v-453q0 -92 45 -138.5 t121 -46.5q75 0 120 46.5t45 138.5v453q0 14 14 14h35q14 0 14 -14v-462q0 -112 -62 -174.5t-166 -62.5z" glyph-name="Udieresis" horiz-adv-x="624" unicode="Ü"/><glyph d="M282 767q-15 0 -8 16l53 115q5 12 16 12h35q15 0 8 -16l-54 -115q-4 -12 -15 -12h-35zM526 700q19 0 8 -18l-207 -344v-324q0 -14 -14 -14h-35q-14 0 -14 14v324l-207 344q-5 8 -2.5 13t11.5 5h40q10 0 16 -10l174 -292l173 292q6 10 17 10h40z" glyph-name="Yacute" horiz-adv-x="591" unicode="Ý"/><glyph d="M281 564q108 0 166.5 -60t58.5 -154t-58.5 -154t-166.5 -60h-130v-122q0 -14 -13 -14h-35q-14 0 -14 14v672q0 14 14 14h35q13 0 13 -14v-122h130zM275 195q78 0 124 37.5t46 117.5t-46 117.5t-124 37.5h-124v-310h124z" glyph-name="Thorn" horiz-adv-x="565" unicode="Þ"/><glyph d="M367 388q151 -27 151 -194q0 -101 -56 -147.5t-178 -46.5h-64q-13 0 -13 14v23q0 14 13 14h64q92 0 134 34t42 113q0 80 -42 118.5t-135 38.5h-63q-13 0 -13 14v23q0 14 13 14h55q69 0 106.5 33.5t37.5 94.5q0 119 -136 119q-76 0 -105 -33t-29 -91v-515q0 -14 -13 -14 h-35q-12 0 -12 14v518q0 176 194 176q97 0 146 -45.5t49 -123.5q0 -119 -111 -151z" glyph-name="germandbls" horiz-adv-x="571" unicode="ß"/><glyph d="M276 569l-54 115q-7 16 8 16h36q11 0 15 -12l53 -115q7 -16 -8 -16h-34q-11 0 -16 12zM537 490q13 0 13 -14v-462q0 -14 -13 -14h-32q-13 0 -13 14l-1 86q-60 -112 -194 -112q-107 0 -175 73t-68 184t68 184t175 73q134 0 194 -114l1 88q0 14 13 14h32zM304 45 q83 0 135 54.5t52 143.5q0 90 -52 146t-135 56q-84 0 -138 -55.5t-54 -144.5t53.5 -144.5t138.5 -55.5z" glyph-name="agrave" unicode="à"/><glyph d="M298 557q-15 0 -8 16l53 115q5 12 16 12h35q15 0 8 -16l-54 -115q-4 -12 -15 -12h-35zM537 490q13 0 13 -14v-462q0 -14 -13 -14h-32q-13 0 -13 14l-1 86q-60 -112 -194 -112q-107 0 -175 73t-68 184t68 184t175 73q134 0 194 -114l1 88q0 14 13 14h32zM304 45 q83 0 135 54.5t52 143.5q0 90 -52 146t-135 56q-84 0 -138 -55.5t-54 -144.5t53.5 -144.5t138.5 -55.5z" glyph-name="aacute" unicode="á"/><glyph d="M197 576q-7 0 -9 4.5t2 8.5l84 103q7 8 16 8h44q8 0 15 -8l85 -103q4 -4 1.5 -8.5t-8.5 -4.5h-33q-9 0 -16 8l-66 82l-66 -82q-7 -8 -16 -8h-33zM537 490q13 0 13 -14v-462q0 -14 -13 -14h-32q-13 0 -13 14l-1 86q-60 -112 -194 -112q-107 0 -175 73t-68 184t68 184 t175 73q134 0 194 -114l1 88q0 14 13 14h32zM304 45q83 0 135 54.5t52 143.5q0 90 -52 146t-135 56q-84 0 -138 -55.5t-54 -144.5t53.5 -144.5t138.5 -55.5z" glyph-name="acircumflex" unicode="â"/><glyph d="M179 638q-11 0 -9 12q4 32 25.5 49.5t53.5 17.5q35 0 72.5 -32t61.5 -32q30 0 41 31q3 9 11 9h12q10 0 10 -10q-4 -33 -25.5 -51t-48.5 -18q-38 0 -76.5 32t-61.5 32q-32 0 -43 -31q-3 -9 -11 -9h-12zM537 490q13 0 13 -14v-462q0 -14 -13 -14h-32q-13 0 -13 14l-1 86 q-60 -112 -194 -112q-107 0 -175 73t-68 184t68 184t175 73q134 0 194 -114l1 88q0 14 13 14h32zM304 45q83 0 135 54.5t52 143.5q0 90 -52 146t-135 56q-84 0 -138 -55.5t-54 -144.5t53.5 -144.5t138.5 -55.5z" glyph-name="atilde" unicode="ã"/><glyph d="M225 631q-16 0 -27 11t-11 26t11 26t27 11t27 -11t11 -26t-11 -26t-27 -11zM399 631q-15 0 -26.5 11t-11.5 26t11.5 26t26.5 11q16 0 27 -11t11 -26t-11 -26t-27 -11zM537 490q13 0 13 -14v-462q0 -14 -13 -14h-32q-13 0 -13 14l-1 86q-60 -112 -194 -112q-107 0 -175 73 t-68 184t68 184t175 73q134 0 194 -114l1 88q0 14 13 14h32zM304 45q83 0 135 54.5t52 143.5q0 90 -52 146t-135 56q-84 0 -138 -55.5t-54 -144.5t53.5 -144.5t138.5 -55.5z" glyph-name="adieresis" unicode="ä"/><glyph d="M312 566q-32 0 -54 21.5t-22 52.5q0 32 22 53t54 21t54 -21t22 -53q0 -31 -22 -52.5t-54 -21.5zM312 669q-13 0 -21 -8t-8 -21t8 -21t21 -8q12 0 20.5 8t8.5 21t-8.5 21t-20.5 8zM537 490q13 0 13 -14v-462q0 -14 -13 -14h-32q-13 0 -13 14l-1 86q-60 -112 -194 -112 q-107 0 -175 73t-68 184t68 184t175 73q134 0 194 -114l1 88q0 14 13 14h32zM304 45q83 0 135 54.5t52 143.5q0 90 -52 146t-135 56q-84 0 -138 -55.5t-54 -144.5t53.5 -144.5t138.5 -55.5z" glyph-name="aring" unicode="å"/><glyph d="M965 271q0 -27 -6.5 -37t-26.5 -10h-381q6 -80 59 -132t144 -52q81 0 147 50q7 7 14 0l14 -18q7 -9 -4 -21q-67 -63 -175 -63q-84 0 -145.5 40.5t-90.5 107.5q-26 -68 -83.5 -108t-135.5 -40q-107 0 -174 72.5t-67 184.5q0 111 68 184t175 73q132 0 195 -103l1 77 q0 14 13 14h27q12 0 12 -14v-65q70 91 191 91q105 0 167 -68.5t62 -162.5zM736 448q-78 0 -128.5 -48t-56.5 -127h360q-2 77 -49.5 126t-125.5 49zM304 45q83 0 135 54.5t52 143.5q0 90 -52 146t-135 56q-84 0 -138 -55.5t-54 -144.5t53.5 -144.5t138.5 -55.5z" glyph-name="ae" horiz-adv-x="1019" unicode="æ"/><glyph d="M494 88q7 -7 -2 -19q-62 -77 -173 -81l-28 -29v-1q37 -1 61.5 -21.5t24.5 -55.5q0 -54 -43.5 -76t-101.5 -15q-9 2 -9 11v21q0 10 11 10q93 -5 93 43q0 28 -27.5 38.5t-64.5 -1.5q-12 -2 -12 7v19q0 5 5 12l37 41q-92 15 -151.5 85.5t-59.5 168.5q0 110 73 183.5 t182 73.5q115 0 182 -80q9 -13 2 -20l-19 -18q-11 -12 -22 1q-57 61 -141 61q-85 0 -141.5 -56t-56.5 -145q0 -88 56.5 -144t142.5 -56q85 0 139 59q13 14 24 3z" glyph-name="ccedilla" horiz-adv-x="551" unicode="ç"/><glyph d="M254 569l-54 115q-7 16 8 16h36q11 0 15 -12l53 -115q7 -16 -8 -16h-34q-11 0 -16 12zM527 271q0 -27 -6.5 -37t-26.5 -10h-381q6 -80 59 -132t145 -52q80 0 146 50q8 8 14 0l14 -18q7 -10 -4 -21q-66 -63 -175 -63q-117 0 -187.5 74.5t-70.5 184.5q0 109 68.5 182 t176.5 73q104 0 166 -68.5t62 -162.5zM298 448q-78 0 -128 -48t-57 -127h360q-2 77 -49.5 126t-125.5 49z" glyph-name="egrave" horiz-adv-x="581" unicode="è"/><glyph d="M276 557q-15 0 -8 16l53 115q5 12 16 12h35q15 0 8 -16l-54 -115q-4 -12 -15 -12h-35zM527 271q0 -27 -6.5 -37t-26.5 -10h-381q6 -80 59 -132t145 -52q80 0 146 50q8 8 14 0l14 -18q7 -10 -4 -21q-66 -63 -175 -63q-117 0 -187.5 74.5t-70.5 184.5q0 109 68.5 182 t176.5 73q104 0 166 -68.5t62 -162.5zM298 448q-78 0 -128 -48t-57 -127h360q-2 77 -49.5 126t-125.5 49z" glyph-name="eacute" horiz-adv-x="581" unicode="é"/><glyph d="M175 576q-7 0 -9 4.5t2 8.5l84 103q7 8 16 8h44q8 0 15 -8l85 -103q4 -4 1.5 -8.5t-8.5 -4.5h-33q-9 0 -16 8l-66 82l-66 -82q-7 -8 -16 -8h-33zM527 271q0 -27 -6.5 -37t-26.5 -10h-381q6 -80 59 -132t145 -52q80 0 146 50q8 8 14 0l14 -18q7 -10 -4 -21 q-66 -63 -175 -63q-117 0 -187.5 74.5t-70.5 184.5q0 109 68.5 182t176.5 73q104 0 166 -68.5t62 -162.5zM298 448q-78 0 -128 -48t-57 -127h360q-2 77 -49.5 126t-125.5 49z" glyph-name="ecircumflex" horiz-adv-x="581" unicode="ê"/><glyph d="M203 631q-16 0 -27 11t-11 26t11 26t27 11t27 -11t11 -26t-11 -26t-27 -11zM377 631q-15 0 -26.5 11t-11.5 26t11.5 26t26.5 11q16 0 27 -11t11 -26t-11 -26t-27 -11zM527 271q0 -27 -6.5 -37t-26.5 -10h-381q6 -80 59 -132t145 -52q80 0 146 50q8 8 14 0l14 -18 q7 -10 -4 -21q-66 -63 -175 -63q-117 0 -187.5 74.5t-70.5 184.5q0 109 68.5 182t176.5 73q104 0 166 -68.5t62 -162.5zM298 448q-78 0 -128 -48t-57 -127h360q-2 77 -49.5 126t-125.5 49z" glyph-name="edieresis" horiz-adv-x="581" unicode="ë"/><glyph d="M10 700h36q11 0 15 -12l53 -115q7 -16 -8 -16h-34q-11 0 -16 12l-54 115q-7 16 8 16zM74 0q-13 0 -13 14v462q0 14 13 14h35q12 0 12 -14v-462q0 -14 -12 -14h-35z" glyph-name="igrave" horiz-adv-x="182" unicode="ì"/><glyph d="M174 700q15 0 8 -16l-54 -115q-4 -12 -15 -12h-35q-15 0 -8 16l53 115q5 12 16 12h35zM74 0q-13 0 -13 14v462q0 14 13 14h35q12 0 12 -14v-462q0 -14 -12 -14h-35z" glyph-name="iacute" horiz-adv-x="182" unicode="í"/><glyph d="M-24 576q-6 0 -8 4.5t1 8.5l85 103q7 8 16 8h44q8 0 15 -8l85 -103q4 -4 1.5 -8.5t-8.5 -4.5h-33q-9 0 -16 8l-66 82l-66 -82q-7 -8 -16 -8h-34zM74 0q-13 0 -13 14v462q0 14 13 14h35q12 0 12 -14v-462q0 -14 -12 -14h-35z" glyph-name="icircumflex" horiz-adv-x="182" unicode="î"/><glyph d="M5 631q-16 0 -27 11t-11 26t11 26t27 11t27 -11t11 -26t-11 -26t-27 -11zM179 631q-15 0 -26.5 11t-11.5 26t11.5 26t26.5 11q16 0 27 -11t11 -26t-11 -26t-27 -11zM74 0q-13 0 -13 14v462q0 14 13 14h35q12 0 12 -14v-462q0 -14 -12 -14h-35z" glyph-name="idieresis" horiz-adv-x="182" unicode="ï"/><glyph d="M574 624q16 2 16 -14v-18q0 -14 -14 -16l-26 -4v-558q0 -14 -13 -14h-32q-13 0 -13 14l-1 86q-60 -112 -194 -112q-107 0 -175 73t-68 184t68 184t175 73q133 0 193 -112v173l-97 -14q-16 -2 -16 14v18q0 14 14 16l99 15v89q0 14 12 14h35q13 0 13 -14v-81zM304 45 q83 0 135 54.5t52 143.5q0 90 -52 146t-135 56q-84 0 -138 -55.5t-54 -144.5t53.5 -144.5t138.5 -55.5z" glyph-name="eth" horiz-adv-x="590" unicode="ð"/><glyph d="M157 638q-11 0 -9 12q4 32 25.5 49.5t53.5 17.5q35 0 72.5 -32t61.5 -32q30 0 41 31q3 9 11 9h12q10 0 10 -10q-4 -33 -25.5 -51t-48.5 -18q-38 0 -76.5 32t-61.5 32q-32 0 -43 -31q-3 -9 -11 -9h-12zM302 502q82 0 131.5 -52t49.5 -147v-289q0 -14 -13 -14h-35 q-12 0 -12 14v286q0 68 -35.5 107t-98.5 39q-65 0 -107.5 -40t-42.5 -106v-286q0 -14 -13 -14h-35q-12 0 -12 14v462q0 14 12 14h31q14 0 14 -15l3 -64q51 91 163 91z" glyph-name="ntilde" horiz-adv-x="561" unicode="ñ"/><glyph d="M222 700h36q11 0 15 -12l53 -115q7 -16 -8 -16h-34q-11 0 -16 12l-54 115q-7 16 8 16zM304 -12q-107 0 -178.5 74t-71.5 183t71.5 183t178.5 74q106 0 177.5 -73.5t71.5 -183.5t-71.5 -183.5t-177.5 -73.5zM304 45q82 0 136.5 56.5t54.5 143.5t-54.5 144t-136.5 57 q-83 0 -137 -56.5t-54 -144.5q0 -87 54 -143.5t137 -56.5z" glyph-name="ograve" horiz-adv-x="607" unicode="ò"/><glyph d="M386 700q15 0 8 -16l-54 -115q-4 -12 -15 -12h-35q-15 0 -8 16l53 115q5 12 16 12h35zM304 -12q-107 0 -178.5 74t-71.5 183t71.5 183t178.5 74q106 0 177.5 -73.5t71.5 -183.5t-71.5 -183.5t-177.5 -73.5zM304 45q82 0 136.5 56.5t54.5 143.5t-54.5 144t-136.5 57 q-83 0 -137 -56.5t-54 -144.5q0 -87 54 -143.5t137 -56.5z" glyph-name="oacute" horiz-adv-x="607" unicode="ó"/><glyph d="M189 576q-7 0 -9 4.5t2 8.5l84 103q7 8 16 8h44q8 0 15 -8l85 -103q4 -4 1.5 -8.5t-8.5 -4.5h-33q-9 0 -16 8l-66 82l-66 -82q-7 -8 -16 -8h-33zM304 -12q-107 0 -178.5 74t-71.5 183t71.5 183t178.5 74q106 0 177.5 -73.5t71.5 -183.5t-71.5 -183.5t-177.5 -73.5z M304 45q82 0 136.5 56.5t54.5 143.5t-54.5 144t-136.5 57q-83 0 -137 -56.5t-54 -144.5q0 -87 54 -143.5t137 -56.5z" glyph-name="ocircumflex" horiz-adv-x="607" unicode="ô"/><glyph d="M241 717q35 0 72.5 -32t61.5 -32q30 0 41 31q3 9 11 9h12q10 0 10 -10q-4 -33 -25.5 -51t-48.5 -18q-38 0 -76.5 32t-61.5 32q-32 0 -43 -31q-3 -9 -11 -9h-12q-11 0 -9 12q4 32 25.5 49.5t53.5 17.5zM304 -12q-107 0 -178.5 74t-71.5 183t71.5 183t178.5 74 q106 0 177.5 -73.5t71.5 -183.5t-71.5 -183.5t-177.5 -73.5zM304 45q82 0 136.5 56.5t54.5 143.5t-54.5 144t-136.5 57q-83 0 -137 -56.5t-54 -144.5q0 -87 54 -143.5t137 -56.5z" glyph-name="otilde" horiz-adv-x="607" unicode="õ"/><glyph d="M217 631q-16 0 -27 11t-11 26t11 26t27 11t27 -11t11 -26t-11 -26t-27 -11zM391 631q-15 0 -26.5 11t-11.5 26t11.5 26t26.5 11q16 0 27 -11t11 -26t-11 -26t-27 -11zM304 -12q-107 0 -178.5 74t-71.5 183t71.5 183t178.5 74q106 0 177.5 -73.5t71.5 -183.5t-71.5 -183.5 t-177.5 -73.5zM304 45q82 0 136.5 56.5t54.5 143.5t-54.5 144t-136.5 57q-83 0 -137 -56.5t-54 -144.5q0 -87 54 -143.5t137 -56.5z" glyph-name="odieresis" horiz-adv-x="607" unicode="ö"/><glyph d="M220 375q-18 0 -31.5 13t-13.5 32t13.5 32.5t31.5 13.5q19 0 32.5 -13.5t13.5 -32.5t-13.5 -32t-32.5 -13zM80 256q-15 0 -15 15v25q0 15 15 15h281q15 0 15 -15v-25q0 -15 -15 -15h-281zM220 104q-18 0 -31.5 13.5t-13.5 32.5q0 18 13.5 31.5t31.5 13.5q19 0 32.5 -13.5 t13.5 -31.5q0 -19 -13.5 -32.5t-32.5 -13.5z" glyph-name="divide" horiz-adv-x="441" unicode="÷"/><glyph d="M429 470q57 -34 90.5 -93t33.5 -132q0 -110 -71.5 -183.5t-177.5 -73.5q-48 0 -88 15l-29 -62q-5 -11 -16 -11h-17q-16 0 -8 18l33 72q-58 34 -91.5 93t-33.5 132q0 109 71.5 183t178.5 74q48 0 88 -15l27 60q5 11 15 11h19q16 0 8 -18zM113 245q0 -57 24 -102t66 -70 l165 362q-31 11 -64 11q-83 0 -137 -56.5t-54 -144.5zM304 45q82 0 136.5 56.5t54.5 143.5q0 117 -90 173l-166 -363q33 -10 65 -10z" glyph-name="oslash" horiz-adv-x="607" unicode="ø"/><glyph d="M246 569l-54 115q-7 16 8 16h36q11 0 15 -12l53 -115q7 -16 -8 -16h-34q-11 0 -16 12zM470 490q13 0 13 -14v-462q0 -14 -13 -14h-31q-14 0 -14 15l-2 64q-51 -91 -163 -91q-82 0 -131.5 52t-49.5 148v288q0 14 12 14h35q13 0 13 -14v-286q0 -68 35 -106.5t98 -38.5 q65 0 108 39.5t43 105.5v286q0 14 12 14h35z" glyph-name="ugrave" horiz-adv-x="562" unicode="ù"/><glyph d="M269 557q-15 0 -8 16l53 115q5 12 16 12h35q15 0 8 -16l-54 -115q-4 -12 -15 -12h-35zM470 490q13 0 13 -14v-462q0 -14 -13 -14h-31q-14 0 -14 15l-2 64q-51 -91 -163 -91q-82 0 -131.5 52t-49.5 148v288q0 14 12 14h35q13 0 13 -14v-286q0 -68 35 -106.5t98 -38.5 q65 0 108 39.5t43 105.5v286q0 14 12 14h35z" glyph-name="uacute" horiz-adv-x="562" unicode="ú"/><glyph d="M167 576q-7 0 -9 4.5t2 8.5l84 103q7 8 16 8h44q8 0 15 -8l85 -103q4 -4 1.5 -8.5t-8.5 -4.5h-33q-9 0 -16 8l-66 82l-66 -82q-7 -8 -16 -8h-33zM470 490q13 0 13 -14v-462q0 -14 -13 -14h-31q-14 0 -14 15l-2 64q-51 -91 -163 -91q-82 0 -131.5 52t-49.5 148v288 q0 14 12 14h35q13 0 13 -14v-286q0 -68 35 -106.5t98 -38.5q65 0 108 39.5t43 105.5v286q0 14 12 14h35z" glyph-name="ucircumflex" horiz-adv-x="562" unicode="û"/><glyph d="M196 631q-16 0 -27 11t-11 26t11 26t27 11t27 -11t11 -26t-11 -26t-27 -11zM370 631q-15 0 -26.5 11t-11.5 26t11.5 26t26.5 11q16 0 27 -11t11 -26t-11 -26t-27 -11zM470 490q13 0 13 -14v-462q0 -14 -13 -14h-31q-14 0 -14 15l-2 64q-51 -91 -163 -91q-82 0 -131.5 52 t-49.5 148v288q0 14 12 14h35q13 0 13 -14v-286q0 -68 35 -106.5t98 -38.5q65 0 108 39.5t43 105.5v286q0 14 12 14h35z" glyph-name="udieresis" horiz-adv-x="562" unicode="ü"/><glyph d="M353 700q15 0 8 -16l-54 -115q-4 -12 -15 -12h-35q-15 0 -8 16l53 115q5 12 16 12h35zM180 -190q-15 0 -10 14l69 174l-188 475q-6 17 11 17h34q12 0 16 -12l158 -412l158 412q4 12 15 12h35q17 0 11 -17l-258 -651q-5 -12 -17 -12h-34z" glyph-name="yacute" horiz-adv-x="540" unicode="ý"/><glyph d="M332 502q107 0 175 -73t68 -184t-68 -184t-175 -73q-132 0 -193 108v-272q0 -14 -13 -14h-35q-12 0 -12 14v877q0 14 12 14h35q13 0 13 -14v-310q62 111 193 111zM325 45q84 0 137.5 55.5t53.5 144.5t-53.5 144.5t-137.5 55.5q-83 0 -135 -56t-52 -146q0 -89 52 -143.5 t135 -54.5z" glyph-name="thorn" unicode="þ"/><glyph d="M184 631q-16 0 -27 11t-11 26t11 26t27 11t27 -11t11 -26t-11 -26t-27 -11zM358 631q-15 0 -26.5 11t-11.5 26t11.5 26t26.5 11q16 0 27 -11t11 -26t-11 -26t-27 -11zM180 -190q-15 0 -10 14l69 174l-188 475q-6 17 11 17h34q12 0 16 -12l158 -412l158 412q4 12 15 12h35 q17 0 11 -17l-258 -651q-5 -12 -17 -12h-34z" glyph-name="ydieresis" horiz-adv-x="540" unicode="ÿ"/><glyph d="M206 859q-14 0 -14 14v23q0 14 14 14h267q14 0 14 -14v-23q0 -14 -14 -14h-267zM623 17q7 -17 -11 -17h-38q-11 0 -15 12l-55 153h-330l-54 -153q-4 -12 -17 -12h-36q-18 0 -11 17l244 671q4 12 18 12h43q13 0 18 -12zM194 221h290l-145 407z" glyph-name="Amacron" horiz-adv-x="679" unicode="Ā"/><glyph d="M178 649q-14 0 -14 14v23q0 14 14 14h267q14 0 14 -14v-23q0 -14 -14 -14h-267zM537 490q13 0 13 -14v-462q0 -14 -13 -14h-32q-13 0 -13 14l-1 86q-60 -112 -194 -112q-107 0 -175 73t-68 184t68 184t175 73q134 0 194 -114l1 88q0 14 13 14h32zM304 45q83 0 135 54.5 t52 143.5q0 90 -52 146t-135 56q-84 0 -138 -55.5t-54 -144.5t53.5 -144.5t138.5 -55.5z" glyph-name="amacron" unicode="ā"/><glyph d="M339 782q-56 0 -91.5 31.5t-40.5 81.5q-1 15 14 15h15q13 0 16 -14q6 -32 29 -51.5t58 -19.5t58.5 19.5t29.5 51.5q3 14 16 14h15q16 0 14 -15q-5 -50 -41 -81.5t-92 -31.5zM623 17q7 -17 -11 -17h-38q-11 0 -15 12l-55 153h-330l-54 -153q-4 -12 -17 -12h-36 q-18 0 -11 17l244 671q4 12 18 12h43q13 0 18 -12zM194 221h290l-145 407z" glyph-name="Abreve" horiz-adv-x="679" unicode="Ă"/><glyph d="M311 572q-56 0 -91.5 31.5t-40.5 81.5q-1 15 14 15h15q13 0 16 -14q6 -32 29 -51.5t58 -19.5t58.5 19.5t29.5 51.5q3 14 16 14h15q16 0 14 -15q-5 -50 -41 -81.5t-92 -31.5zM537 490q13 0 13 -14v-462q0 -14 -13 -14h-32q-13 0 -13 14l-1 86q-60 -112 -194 -112 q-107 0 -175 73t-68 184t68 184t175 73q134 0 194 -114l1 88q0 14 13 14h32zM304 45q83 0 135 54.5t52 143.5q0 90 -52 146t-135 56q-84 0 -138 -55.5t-54 -144.5t53.5 -144.5t138.5 -55.5z" glyph-name="abreve" unicode="ă"/><glyph d="M623 17q7 -17 -10 -17q-46 -2 -78 -29.5t-32 -69.5q0 -36 25.5 -51.5t68.5 -6.5v-41q-43 -19 -95 3.5t-52 85.5q0 47 31 80.5t75 49.5l-52 144h-330l-54 -153q-4 -12 -17 -12h-36q-18 0 -11 17l244 671q4 12 18 12h43q13 0 18 -12zM194 221h290l-145 407z" glyph-name="Aogonek" horiz-adv-x="679" unicode="Ą"/><glyph d="M537 490q13 0 13 -14v-462q0 -14 -13 -14h-7q-46 -2 -78 -29.5t-32 -69.5q0 -36 26 -51.5t69 -6.5v-41q-43 -19 -95 3.5t-52 85.5q0 53 37 88t87 48l-1 73q-60 -112 -194 -112q-107 0 -175 73t-68 184t68 184t175 73q134 0 194 -114l1 88q0 14 13 14h32zM304 45 q83 0 135 54.5t52 143.5q0 90 -52 146t-135 56q-84 0 -138 -55.5t-54 -144.5t53.5 -144.5t138.5 -55.5z" glyph-name="aogonek" unicode="ą"/><glyph d="M502 910q15 0 8 -16l-54 -115q-4 -12 -15 -12h-35q-15 0 -8 16l53 115q5 12 16 12h35zM423 -13q-154 0 -254 103.5t-100 256.5t100 257t254 104q134 0 235 -88q13 -13 3 -24l-20 -23q-10 -10 -22 0q-87 74 -194 74q-126 0 -209.5 -85t-83.5 -215q0 -129 83.5 -214 t209.5 -85q107 0 194 74q12 10 21 1l21 -24q11 -9 -3 -23q-100 -89 -235 -89z" glyph-name="Cacute" horiz-adv-x="730" unicode="Ć"/><glyph d="M382 700q15 0 8 -16l-54 -115q-4 -12 -15 -12h-35q-15 0 -8 16l53 115q5 12 16 12h35zM308 -12q-108 0 -181 73.5t-73 183.5t73 183.5t182 73.5q115 0 182 -80q9 -13 2 -20l-19 -18q-11 -12 -22 1q-57 61 -141 61q-85 0 -141.5 -56t-56.5 -145q0 -88 56.5 -144t142.5 -56 q85 0 139 59q13 14 24 3l19 -19q7 -7 -2 -19q-67 -81 -184 -81z" glyph-name="cacute" horiz-adv-x="551" unicode="ć"/><glyph d="M419 841q-16 0 -27 11t-11 26t11 26t27 11t27 -11t11 -26t-11 -26t-27 -11zM423 -13q-154 0 -254 103.5t-100 256.5t100 257t254 104q134 0 235 -88q13 -13 3 -24l-20 -23q-10 -10 -22 0q-87 74 -194 74q-126 0 -209.5 -85t-83.5 -215q0 -129 83.5 -214t209.5 -85 q107 0 194 74q12 10 21 1l21 -24q11 -9 -3 -23q-100 -89 -235 -89z" glyph-name="Cdotaccent" horiz-adv-x="730" unicode="Ċ"/><glyph d="M300 631q-16 0 -27 11t-11 26t11 26t27 11t27 -11t11 -26t-11 -26t-27 -11zM308 -12q-108 0 -181 73.5t-73 183.5t73 183.5t182 73.5q115 0 182 -80q9 -13 2 -20l-19 -18q-11 -12 -22 1q-57 61 -141 61q-85 0 -141.5 -56t-56.5 -145q0 -88 56.5 -144t142.5 -56 q85 0 139 59q13 14 24 3l19 -19q7 -7 -2 -19q-67 -81 -184 -81z" glyph-name="cdotaccent" horiz-adv-x="551" unicode="ċ"/><glyph d="M305 910h33q9 0 16 -8l66 -82l66 82q7 8 16 8h33q6 0 8.5 -4.5t-1.5 -8.5l-85 -103q-7 -8 -15 -8h-44q-9 0 -16 8l-84 103q-4 4 -2 8.5t9 4.5zM423 -13q-154 0 -254 103.5t-100 256.5t100 257t254 104q134 0 235 -88q13 -13 3 -24l-20 -23q-10 -10 -22 0q-87 74 -194 74 q-126 0 -209.5 -85t-83.5 -215q0 -129 83.5 -214t209.5 -85q107 0 194 74q12 10 21 1l21 -24q11 -9 -3 -23q-100 -89 -235 -89z" glyph-name="Ccaron" horiz-adv-x="730" unicode="Č"/><glyph d="M185 700h33q9 0 16 -8l66 -82l66 82q7 8 16 8h33q6 0 8.5 -4.5t-1.5 -8.5l-85 -103q-7 -8 -15 -8h-44q-9 0 -16 8l-84 103q-4 4 -2 8.5t9 4.5zM308 -12q-108 0 -181 73.5t-73 183.5t73 183.5t182 73.5q115 0 182 -80q9 -13 2 -20l-19 -18q-11 -12 -22 1q-57 61 -141 61 q-85 0 -141.5 -56t-56.5 -145q0 -88 56.5 -144t142.5 -56q85 0 139 59q13 14 24 3l19 -19q7 -7 -2 -19q-67 -81 -184 -81z" glyph-name="ccaron" horiz-adv-x="551" unicode="č"/><glyph d="M216 910h33q9 0 16 -8l66 -82l66 82q7 8 16 8h33q6 0 8.5 -4.5t-1.5 -8.5l-85 -103q-7 -8 -15 -8h-44q-9 0 -16 8l-84 103q-4 4 -2 8.5t9 4.5zM103 0q-14 0 -14 14v672q0 14 14 14h143q177 0 266 -96t89 -254t-89 -254t-266 -96h-143zM151 57h94q149 0 221 76.5t72 216.5 t-72 217t-221 77h-94v-587z" glyph-name="Dcaron" horiz-adv-x="665" unicode="Ď"/><glyph d="M537 715q13 0 13 -14v-687q0 -14 -13 -14h-32q-13 0 -13 14l-1 86q-60 -112 -194 -112q-107 0 -175 73t-68 184t68 184t175 73q133 0 193 -112v311q0 14 12 14h35zM701 687q15 0 8 -16l-53 -115q-5 -12 -16 -12h-34q-15 0 -9 16l53 115q5 12 16 12h35zM304 45 q83 0 135 54.5t52 143.5q0 90 -52 146t-135 56q-84 0 -138 -55.5t-54 -144.5t53.5 -144.5t138.5 -55.5z" glyph-name="dcaron" horiz-adv-x="661" unicode="ď"/><glyph d="M254 700q177 0 266 -96t89 -254t-89 -254t-266 -96h-143q-14 0 -14 14v312h-58q-14 0 -14 14v23q0 14 14 14h58v309q0 14 14 14h143zM253 57q149 0 221 76.5t72 216.5t-72 217t-221 77h-94v-267h147q14 0 14 -14v-23q0 -14 -14 -14h-147v-269h94z" glyph-name="Dcroat" horiz-adv-x="673" unicode="Đ"/><glyph d="M591 634q14 0 14 -14v-24q0 -14 -14 -14h-41v-568q0 -14 -13 -14h-32q-13 0 -13 14l-1 86q-60 -112 -194 -112q-107 0 -175 73t-68 184t68 184t175 73q133 0 193 -112v192h-166q-14 0 -14 14v24q0 14 14 14h166v67q0 14 12 14h35q13 0 13 -14v-67h41zM304 45 q83 0 135 54.5t52 143.5q0 90 -52 146t-135 56q-84 0 -138 -55.5t-54 -144.5t53.5 -144.5t138.5 -55.5z" glyph-name="dcroat" horiz-adv-x="620" unicode="đ"/><glyph d="M407 910q14 0 14 -14v-23q0 -14 -14 -14h-267q-14 0 -14 14v23q0 14 14 14h267zM103 0q-14 0 -14 14v672q0 14 14 14h331q14 0 14 -14v-29q0 -13 -14 -13h-283v-253h269q13 0 13 -14v-29q0 -14 -13 -14h-269v-277h284q14 0 14 -14v-29q0 -14 -14 -14h-332z" glyph-name="Emacron" horiz-adv-x="528" unicode="Ē"/><glyph d="M156 649q-14 0 -14 14v23q0 14 14 14h267q14 0 14 -14v-23q0 -14 -14 -14h-267zM527 271q0 -27 -6.5 -37t-26.5 -10h-381q6 -80 59 -132t145 -52q80 0 146 50q8 8 14 0l14 -18q7 -10 -4 -21q-66 -63 -175 -63q-117 0 -187.5 74.5t-70.5 184.5q0 109 68.5 182t176.5 73 q104 0 166 -68.5t62 -162.5zM298 448q-78 0 -128 -48t-57 -127h360q-2 77 -49.5 126t-125.5 49z" glyph-name="emacron" horiz-adv-x="581" unicode="ē"/><glyph d="M273 841q-16 0 -27 11t-11 26t11 26t27 11t27 -11t11 -26t-11 -26t-27 -11zM103 0q-14 0 -14 14v672q0 14 14 14h331q14 0 14 -14v-29q0 -13 -14 -13h-283v-253h269q13 0 13 -14v-29q0 -14 -13 -14h-269v-277h284q14 0 14 -14v-29q0 -14 -14 -14h-332z" glyph-name="Edotaccent" horiz-adv-x="528" unicode="Ė"/><glyph d="M289 631q-16 0 -27 11t-11 26t11 26t27 11t27 -11t11 -26t-11 -26t-27 -11zM527 271q0 -27 -6.5 -37t-26.5 -10h-381q6 -80 59 -132t145 -52q80 0 146 50q8 8 14 0l14 -18q7 -10 -4 -21q-66 -63 -175 -63q-117 0 -187.5 74.5t-70.5 184.5q0 109 68.5 182t176.5 73 q104 0 166 -68.5t62 -162.5zM298 448q-78 0 -128 -48t-57 -127h360q-2 77 -49.5 126t-125.5 49z" glyph-name="edotaccent" horiz-adv-x="581" unicode="ė"/><glyph d="M435 57q14 0 14 -14v-29q0 -12 -11 -14q-46 -2 -78 -29.5t-32 -69.5q0 -36 25.5 -51.5t68.5 -6.5v-41q-43 -19 -95 3.5t-52 85.5q0 68 64 109h-236q-14 0 -14 14v672q0 14 14 14h331q14 0 14 -14v-29q0 -13 -14 -13h-283v-253h269q13 0 13 -14v-29q0 -14 -13 -14h-269 v-277h284z" glyph-name="Eogonek" horiz-adv-x="528" unicode="Ę"/><glyph d="M527 271q0 -27 -6.5 -37t-26.5 -10h-381q6 -80 59 -132t145 -52q80 0 146 50q8 8 14 0l14 -18q7 -10 -4 -21q-48 -46 -125 -59q-74 -32 -74 -93q0 -38 25 -51.5t69 -4.5v-41q-18 -10 -43 -8t-48.5 10t-39.5 30.5t-16 55.5q0 57 53 99q-107 8 -170.5 81t-63.5 177 q0 109 68.5 182t176.5 73q104 0 166 -68.5t62 -162.5zM298 448q-78 0 -128 -48t-57 -127h360q-2 77 -49.5 126t-125.5 49z" glyph-name="eogonek" horiz-adv-x="581" unicode="ę"/><glyph d="M158 910h33q9 0 16 -8l66 -82l66 82q7 8 16 8h33q6 0 8.5 -4.5t-1.5 -8.5l-85 -103q-7 -8 -15 -8h-44q-9 0 -16 8l-84 103q-4 4 -2 8.5t9 4.5zM103 0q-14 0 -14 14v672q0 14 14 14h331q14 0 14 -14v-29q0 -13 -14 -13h-283v-253h269q13 0 13 -14v-29q0 -14 -13 -14h-269 v-277h284q14 0 14 -14v-29q0 -14 -14 -14h-332z" glyph-name="Ecaron" horiz-adv-x="528" unicode="Ě"/><glyph d="M252 584l-84 103q-4 4 -2 8.5t9 4.5h33q9 0 16 -8l66 -82l66 82q7 8 16 8h33q6 0 8.5 -4.5t-1.5 -8.5l-85 -103q-7 -8 -15 -8h-44q-9 0 -16 8zM527 271q0 -27 -6.5 -37t-26.5 -10h-381q6 -80 59 -132t145 -52q80 0 146 50q8 8 14 0l14 -18q7 -10 -4 -21q-66 -63 -175 -63 q-117 0 -187.5 74.5t-70.5 184.5q0 109 68.5 182t176.5 73q104 0 166 -68.5t62 -162.5zM298 448q-78 0 -128 -48t-57 -127h360q-2 77 -49.5 126t-125.5 49z" glyph-name="ecaron" horiz-adv-x="581" unicode="ě"/><glyph d="M423 782q-56 0 -91.5 31.5t-40.5 81.5q-1 15 14 15h15q13 0 16 -14q6 -32 29 -51.5t58 -19.5t58.5 19.5t29.5 51.5q3 14 16 14h15q16 0 14 -15q-5 -50 -41 -81.5t-92 -31.5zM735 357q15 0 15 -15v-25q0 -143 -88.5 -236.5t-234.5 -93.5q-155 0 -256.5 104t-101.5 256 t101.5 256.5t255.5 104.5q137 0 236 -93q10 -8 2 -16l-25 -29q-7 -8 -15 0q-90 77 -198 77q-126 0 -210 -85.5t-84 -214.5q0 -128 84.5 -213.5t210.5 -85.5q116 0 189 70t73 181v1h-251q-14 0 -14 13v31q0 13 14 13h297z" glyph-name="Gbreve" horiz-adv-x="809" unicode="Ğ"/><glyph d="M311 572q-56 0 -91.5 31.5t-40.5 81.5q-1 15 14 15h15q13 0 16 -14q6 -32 29 -51.5t58 -19.5t58.5 19.5t29.5 51.5q3 14 16 14h15q16 0 14 -15q-5 -50 -41 -81.5t-92 -31.5zM532 490q12 0 12 -14v-459q0 -110 -72 -166t-177 -56q-102 0 -167 45q-12 8 -8 19l13 23 q6 9 17 4q59 -39 143 -39q83 0 137.5 42t54.5 133v87q-59 -104 -191 -104q-106 0 -173 69.5t-67 179.5q0 109 67 178.5t171 69.5q134 0 194 -108l1 82q0 14 12 14h33zM301 61q82 0 133 51.5t51 138.5q0 88 -51 141.5t-133 53.5t-135.5 -53t-53.5 -139q0 -88 53.5 -140.5 t135.5 -52.5z" glyph-name="gbreve" horiz-adv-x="623" unicode="ğ"/><glyph d="M423 841q-16 0 -27 11t-11 26t11 26t27 11t27 -11t11 -26t-11 -26t-27 -11zM735 357q15 0 15 -15v-25q0 -143 -88.5 -236.5t-234.5 -93.5q-155 0 -256.5 104t-101.5 256t101.5 256.5t255.5 104.5q137 0 236 -93q10 -8 2 -16l-25 -29q-7 -8 -15 0q-90 77 -198 77 q-126 0 -210 -85.5t-84 -214.5q0 -128 84.5 -213.5t210.5 -85.5q116 0 189 70t73 181v1h-251q-14 0 -14 13v31q0 13 14 13h297z" glyph-name="Gdotaccent" horiz-adv-x="809" unicode="Ġ"/><glyph d="M311 631q-16 0 -27 11t-11 26t11 26t27 11t27 -11t11 -26t-11 -26t-27 -11zM532 490q12 0 12 -14v-459q0 -110 -72 -166t-177 -56q-102 0 -167 45q-12 8 -8 19l13 23q6 9 17 4q59 -39 143 -39q83 0 137.5 42t54.5 133v87q-59 -104 -191 -104q-106 0 -173 69.5t-67 179.5 q0 109 67 178.5t171 69.5q134 0 194 -108l1 82q0 14 12 14h33zM301 61q82 0 133 51.5t51 138.5q0 88 -51 141.5t-133 53.5t-135.5 -53t-53.5 -139q0 -88 53.5 -140.5t135.5 -52.5z" glyph-name="gdotaccent" horiz-adv-x="623" unicode="ġ"/><glyph d="M735 357q15 0 15 -15v-25q0 -143 -88.5 -236.5t-234.5 -93.5q-155 0 -256.5 104t-101.5 256t101.5 256.5t255.5 104.5q137 0 236 -93q10 -8 2 -16l-25 -29q-7 -8 -15 0q-90 77 -198 77q-126 0 -210 -85.5t-84 -214.5q0 -128 84.5 -213.5t210.5 -85.5q116 0 189 70t73 181 v1h-251q-14 0 -14 13v31q0 13 14 13h297zM424 -29q27 0 44.5 -22.5t17.5 -57.5q0 -48 -31 -85.5t-83 -37.5v26q43 1 61 40q13 29 0 40q-3 2 -8 2q-23 -1 -37 12t-14 34t14.5 35t35.5 14z" glyph-name="Gcommaaccent" horiz-adv-x="809" unicode="Ģ"/><glyph d="M292 548q-27 0 -44.5 22t-17.5 58q0 48 31 85.5t83 37.5v-26q-43 -1 -61 -42q-14 -29 1 -39q3 -2 7 -2q23 1 37 -11.5t14 -34.5q0 -21 -14.5 -34.5t-35.5 -13.5zM532 490q12 0 12 -14v-459q0 -110 -72 -166t-177 -56q-102 0 -167 45q-12 8 -8 19l13 23q6 9 17 4 q59 -39 143 -39q83 0 137.5 42t54.5 133v87q-59 -104 -191 -104q-106 0 -173 69.5t-67 179.5q0 109 67 178.5t171 69.5q134 0 194 -108l1 82q0 14 12 14h33zM301 61q82 0 133 51.5t51 138.5q0 88 -51 141.5t-133 53.5t-135.5 -53t-53.5 -139q0 -88 53.5 -140.5t135.5 -52.5z " glyph-name="gcommaaccent" horiz-adv-x="623" unicode="ģ"/><glyph d="M544 700q14 0 14 -14v-672q0 -14 -14 -14h-35q-14 0 -14 14v306h-344v-306q0 -14 -13 -14h-35q-14 0 -14 14v672q0 14 14 14h35q13 0 13 -14v-147h344v147q0 14 14 14h35zM151 376h344v107h-344v-107z" glyph-name="Hbar" horiz-adv-x="646" unicode="Ħ"/><glyph d="M306 502q82 0 131 -52t49 -147v-289q0 -14 -12 -14h-35q-13 0 -13 14v286q0 68 -35 107t-98 39q-65 0 -107.5 -40t-42.5 -106v-286q0 -14 -13 -14h-35q-12 0 -12 14v570h-54q-14 0 -14 14v23q0 14 14 14h54v66q0 14 12 14h35q13 0 13 -14v-66h153q14 0 14 -14v-23 q0 -14 -14 -14h-153v-172q50 90 163 90z" glyph-name="hbar" horiz-adv-x="565" unicode="ħ"/><glyph d="M254 910q14 0 14 -14v-23q0 -14 -14 -14h-267q-14 0 -14 14v23q0 14 14 14h267zM103 0q-14 0 -14 14v672q0 14 14 14h35q13 0 13 -14v-672q0 -14 -13 -14h-35z" glyph-name="Imacron" horiz-adv-x="240" unicode="Ī"/><glyph d="M225 700q14 0 14 -14v-23q0 -14 -14 -14h-267q-14 0 -14 14v23q0 14 14 14h267zM74 0q-13 0 -13 14v462q0 14 13 14h35q12 0 12 -14v-462q0 -14 -12 -14h-35z" glyph-name="imacron" horiz-adv-x="182" unicode="ī"/><glyph d="M138 700q13 0 13 -14v-672q0 -14 -13 -14h-1q-46 -2 -78 -29.5t-32 -69.5q0 -36 25.5 -51.5t68.5 -6.5v-41q-43 -19 -95 3.5t-52 85.5q0 50 34 84t81 49v662q0 14 14 14h35z" glyph-name="Iogonek" horiz-adv-x="240" unicode="Į"/><glyph d="M92 631q-16 0 -27 11t-11 26t11 26t27 11t27 -11t11 -26t-11 -26t-27 -11zM109 490q12 0 12 -14v-462q0 -14 -12 -14h-3q-46 -2 -78.5 -29.5t-32.5 -69.5q0 -36 26 -51.5t69 -6.5v-41q-43 -19 -95 3.5t-52 85.5q0 51 35 85.5t83 48.5v451q0 14 13 14h35z" glyph-name="iogonek" horiz-adv-x="182" unicode="į"/><glyph d="M120 841q-16 0 -27 11t-11 26t11 26t27 11t27 -11t11 -26t-11 -26t-27 -11zM103 0q-14 0 -14 14v672q0 14 14 14h35q13 0 13 -14v-672q0 -14 -13 -14h-35z" glyph-name="Idotaccent" horiz-adv-x="240" unicode="İ"/><glyph d="M74 0q-13 0 -13 14v462q0 14 13 14h35q12 0 12 -14v-462q0 -14 -12 -14h-35z" glyph-name="dotlessi" horiz-adv-x="182" unicode="ı"/><glyph d="M103 0q-14 0 -14 14v672q0 14 14 14h35q13 0 13 -14v-672q0 -14 -13 -14h-35zM452 -13q-89 0 -151 66q-8 11 1 20l19 25q8 10 17 1q19 -17 31.5 -26t34.5 -17t48 -8q131 0 131 173v465q0 14 13 14h35q14 0 14 -14v-468q0 -112 -52 -171.5t-141 -59.5z" glyph-name="IJ" horiz-adv-x="734" unicode="Ĳ"/><glyph d="M109 624q-17 0 -28.5 12t-11.5 28t11.5 28t28.5 12q16 0 27.5 -11.5t11.5 -28.5t-11.5 -28.5t-27.5 -11.5zM337 624q-17 0 -28.5 12t-11.5 28t11.5 28t28.5 12q16 0 27 -11.5t11 -28.5t-11 -28.5t-27 -11.5zM91 0q-12 0 -12 14v462q0 14 12 14h35q12 0 12 -14v-462 q0 -14 -12 -14h-35zM245 -200q-27 0 -43 6q-9 4 -9 13v33q0 9 12 7q18 -3 32 -3q40 0 54.5 21.5t14.5 61.5v537q0 14 13 14h34q13 0 13 -14v-552q0 -124 -121 -124z" glyph-name="ij" horiz-adv-x="444" unicode="ĳ"/><glyph d="M551 18q5 -8 2.5 -13t-11.5 -5h-41q-12 0 -18 9l-240 314l-92 -118v-191q0 -14 -13 -14h-35q-14 0 -14 14v672q0 14 14 14h35q13 0 13 -14v-395l302 401q7 8 18 8h44q10 0 12 -5t-4 -13l-241 -310zM260 -29q26 0 44 -22.5t18 -57.5q0 -48 -31 -85.5t-84 -37.5v26 q43 1 61 40q14 29 0 40q-3 2 -8 2q-23 -1 -37 12t-14 34t15 35t36 14z" glyph-name="Kcommaaccent" horiz-adv-x="603" unicode="Ķ"/><glyph d="M476 16q5 -6 2.5 -11t-11.5 -5h-37q-12 0 -18 9l-184 231l-89 -94v-132q0 -14 -13 -14h-35q-12 0 -12 14v687q0 14 12 14h35q13 0 13 -14v-480l242 261q7 8 17 8h46q8 0 9 -5t-4 -9l-184 -196zM276 -29q27 0 44.5 -22.5t17.5 -57.5q0 -48 -31 -85.5t-83 -37.5v26 q43 1 61 40q13 29 0 40q-3 2 -8 2q-23 -1 -37 12t-14 34t14.5 35t35.5 14z" glyph-name="kcommaaccent" horiz-adv-x="523" unicode="ķ"/><glyph d="M109 735q-15 0 -9 16l53 115q5 12 16 12h35q15 0 8 -16l-53 -115q-5 -12 -16 -12h-34zM413 57q15 0 15 -15v-27q0 -15 -15 -15h-310q-14 0 -14 14v672q0 14 14 14h35q13 0 13 -14v-629h262z" glyph-name="Lacute" horiz-adv-x="481" unicode="Ĺ"/><glyph d="M192 926q15 0 8 -16l-54 -115q-4 -12 -15 -12h-35q-15 0 -8 16l53 115q5 12 16 12h35zM91 0q-12 0 -12 14v687q0 14 12 14h35q13 0 13 -14v-687q0 -14 -13 -14h-35z" glyph-name="lacute" horiz-adv-x="217" unicode="ĺ"/><glyph d="M413 57q15 0 15 -15v-27q0 -15 -15 -15h-310q-14 0 -14 14v672q0 14 14 14h35q13 0 13 -14v-629h262zM262 -29q27 0 44.5 -22.5t17.5 -57.5q0 -48 -31 -85.5t-83 -37.5v26q43 1 61 40q13 29 0 40q-3 2 -8 2q-23 -1 -37 12t-14 34t14.5 35t35.5 14z" glyph-name="Lcommaaccent" horiz-adv-x="486" unicode="Ļ"/><glyph d="M91 0q-12 0 -12 14v687q0 14 12 14h35q13 0 13 -14v-687q0 -14 -13 -14h-35zM69 -232v26q43 1 61 40q13 29 0 40q-3 2 -8 2q-23 -1 -37 12t-14 34t14.5 35t35.5 14q27 0 44.5 -22.5t17.5 -57.5q0 -48 -31 -85.5t-83 -37.5z" glyph-name="lcommaaccent" horiz-adv-x="217" unicode="ļ"/><glyph d="M350 630q0 -48 -31 -85.5t-83 -37.5v26q44 1 62 42q13 29 -2 39q-3 2 -7 2q-23 -1 -37 11.5t-14 34.5q0 21 14.5 34.5t35.5 13.5q27 0 44.5 -22t17.5 -58zM413 57q15 0 15 -15v-27q0 -15 -15 -15h-310q-14 0 -14 14v672q0 14 14 14h35q13 0 13 -14v-629h262z" glyph-name="Lcaron" horiz-adv-x="483" unicode="Ľ"/><glyph d="M173 547v26q44 1 62 42q13 29 -2 39q-3 2 -7 2q-23 -1 -37 11.5t-14 34.5q0 21 14.5 34.5t35.5 13.5q27 0 44.5 -22t17.5 -58q0 -48 -31 -85.5t-83 -37.5zM91 0q-12 0 -12 14v687q0 14 12 14h35q13 0 13 -14v-687q0 -14 -13 -14h-35z" glyph-name="lcaron" horiz-adv-x="286" unicode="ľ"/><glyph d="M413 57q15 0 15 -15v-27q0 -15 -15 -15h-310q-14 0 -14 14v672q0 14 14 14h35q13 0 13 -14v-629h262zM311 331q-19 0 -32.5 13t-13.5 33q0 19 13.5 32t32.5 13t32.5 -13t13.5 -32q0 -20 -13.5 -33t-32.5 -13z" glyph-name="Ldot" horiz-adv-x="476" unicode="Ŀ"/><glyph d="M91 0q-12 0 -12 14v687q0 14 12 14h35q13 0 13 -14v-687q0 -14 -13 -14h-35zM222 329q-19 0 -32.5 13t-13.5 33q0 19 13.5 32t32.5 13t32.5 -13t13.5 -32q0 -20 -13.5 -33t-32.5 -13z" glyph-name="ldot" horiz-adv-x="213" unicode="ŀ"/><glyph d="M427 57q15 0 15 -15v-27q0 -15 -15 -15h-310q-13 0 -13 14v246l-56 -54q-8 -7 -13 -4.5t-5 12.5v39q0 11 8 19l66 64v350q0 14 13 14h35q14 0 14 -14v-291l95 92q7 7 12.5 4.5t5.5 -12.5v-38q0 -11 -8 -19l-105 -102v-263h261z" glyph-name="Lslash" horiz-adv-x="501" unicode="Ł"/><glyph d="M254 465l-100 -108v-343q0 -14 -12 -14h-35q-13 0 -13 14v278l-99 -107v49l99 107v360q0 14 13 14h35q12 0 12 -14v-295l99 107z" glyph-name="lslash" horiz-adv-x="249" unicode="ł"/><glyph d="M319 767q-15 0 -8 16l53 115q5 12 16 12h35q15 0 8 -16l-54 -115q-4 -12 -15 -12h-35zM561 700q14 0 14 -14v-672q0 -14 -14 -14h-51q-12 0 -18 10l-341 605v-601q0 -14 -13 -14h-35q-14 0 -14 14v672q0 14 14 14h51q12 0 18 -10l340 -603v599q0 14 14 14h35z" glyph-name="Nacute" horiz-adv-x="664" unicode="Ń"/><glyph d="M276 557q-15 0 -8 16l53 115q5 12 16 12h35q15 0 8 -16l-54 -115q-4 -12 -15 -12h-35zM302 502q82 0 131.5 -52t49.5 -147v-289q0 -14 -13 -14h-35q-12 0 -12 14v286q0 68 -35.5 107t-98.5 39q-65 0 -107.5 -40t-42.5 -106v-286q0 -14 -13 -14h-35q-12 0 -12 14v462 q0 14 12 14h31q14 0 14 -15l3 -64q51 91 163 91z" glyph-name="nacute" horiz-adv-x="561" unicode="ń"/><glyph d="M561 700q14 0 14 -14v-672q0 -14 -14 -14h-51q-12 0 -18 10l-341 605v-601q0 -14 -13 -14h-35q-14 0 -14 14v672q0 14 14 14h51q12 0 18 -10l340 -603v599q0 14 14 14h35zM344 -29q27 0 44.5 -22.5t17.5 -57.5q0 -48 -31 -85.5t-83 -37.5v26q43 1 61 40q13 29 0 40 q-3 2 -8 2q-23 -1 -37 12t-14 34t14.5 35t35.5 14z" glyph-name="Ncommaaccent" horiz-adv-x="664" unicode="Ņ"/><glyph d="M302 502q82 0 131.5 -52t49.5 -147v-289q0 -14 -13 -14h-35q-12 0 -12 14v286q0 68 -35.5 107t-98.5 39q-65 0 -107.5 -40t-42.5 -106v-286q0 -14 -13 -14h-35q-12 0 -12 14v462q0 14 12 14h31q14 0 14 -15l3 -64q51 91 163 91zM301 -29q27 0 44.5 -22.5t17.5 -57.5 q0 -48 -31 -85.5t-83 -37.5v26q43 1 61 40q13 29 0 40q-3 2 -8 2q-23 -1 -37 12t-14 34t14.5 35t35.5 14z" glyph-name="ncommaaccent" horiz-adv-x="561" unicode="ņ"/><glyph d="M294 794l-84 103q-4 4 -2 8.5t9 4.5h33q9 0 16 -8l66 -82l66 82q7 8 16 8h33q6 0 8.5 -4.5t-1.5 -8.5l-85 -103q-7 -8 -15 -8h-44q-9 0 -16 8zM561 700q14 0 14 -14v-672q0 -14 -14 -14h-51q-12 0 -18 10l-341 605v-601q0 -14 -13 -14h-35q-14 0 -14 14v672q0 14 14 14 h51q12 0 18 -10l340 -603v599q0 14 14 14h35z" glyph-name="Ncaron" horiz-adv-x="664" unicode="Ň"/><glyph d="M252 584l-84 103q-4 4 -2 8.5t9 4.5h33q9 0 16 -8l66 -82l66 82q7 8 16 8h33q6 0 8.5 -4.5t-1.5 -8.5l-85 -103q-7 -8 -15 -8h-44q-9 0 -16 8zM302 502q82 0 131.5 -52t49.5 -147v-289q0 -14 -13 -14h-35q-12 0 -12 14v286q0 68 -35.5 107t-98.5 39q-65 0 -107.5 -40 t-42.5 -106v-286q0 -14 -13 -14h-35q-12 0 -12 14v462q0 14 12 14h31q14 0 14 -15l3 -64q51 91 163 91z" glyph-name="ncaron" horiz-adv-x="561" unicode="ň"/><glyph d="M561 700q14 0 14 -14v-688q0 -113 -52 -172t-141 -59t-151 66q-8 11 0 20l20 25q8 10 17 1q19 -17 31.5 -26t34.5 -17t48 -8q130 0 130 172h-2q-12 0 -18 10l-341 605v-601q0 -14 -13 -14h-35q-14 0 -14 14v672q0 14 14 14h51q12 0 18 -10l340 -603v599q0 14 14 14h35z " glyph-name="Eng" horiz-adv-x="664" unicode="Ŋ"/><glyph d="M302 502q82 0 131.5 -52t49.5 -147v-313q0 -92 -40 -140t-113 -48q-10 0 -10 9l-9 35q-4 11 9 11q103 0 103 148v295q0 68 -35.5 107t-98.5 39q-65 0 -107.5 -40t-42.5 -106v-286q0 -14 -13 -14h-35q-12 0 -12 14v462q0 14 12 14h31q14 0 14 -15l3 -64q51 91 163 91z" glyph-name="eng" horiz-adv-x="561" unicode="ŋ"/><glyph d="M560 910q14 0 14 -14v-23q0 -14 -14 -14h-267q-14 0 -14 14v23q0 14 14 14h267zM426 -13q-151 0 -254 104t-103 256t103 256.5t254 104.5t254.5 -104.5t103.5 -256.5t-103.5 -256t-254.5 -104zM426 48q126 0 210.5 85.5t84.5 213.5q0 129 -84.5 214.5t-210.5 85.5 t-210 -85.5t-84 -214.5q0 -128 84.5 -213.5t209.5 -85.5z" glyph-name="Omacron" horiz-adv-x="853" unicode="Ō"/><glyph d="M437 700q14 0 14 -14v-23q0 -14 -14 -14h-267q-14 0 -14 14v23q0 14 14 14h267zM304 -12q-107 0 -178.5 74t-71.5 183t71.5 183t178.5 74q106 0 177.5 -73.5t71.5 -183.5t-71.5 -183.5t-177.5 -73.5zM304 45q82 0 136.5 56.5t54.5 143.5t-54.5 144t-136.5 57 q-83 0 -137 -56.5t-54 -144.5q0 -87 54 -143.5t137 -56.5z" glyph-name="omacron" horiz-adv-x="607" unicode="ō"/><glyph d="M440 910q15 0 8 -16l-54 -115q-4 -12 -15 -12h-35q-15 0 -8 16l53 115q5 12 16 12h35zM562 910q15 0 9 -16l-54 -115q-5 -12 -16 -12h-34q-15 0 -8 16l52 115q5 12 16 12h35zM426 -13q-151 0 -254 104t-103 256t103 256.5t254 104.5t254.5 -104.5t103.5 -256.5 t-103.5 -256t-254.5 -104zM426 48q126 0 210.5 85.5t84.5 213.5q0 129 -84.5 214.5t-210.5 85.5t-210 -85.5t-84 -214.5q0 -128 84.5 -213.5t209.5 -85.5z" glyph-name="Ohungarumlaut" horiz-adv-x="853" unicode="Ő"/><glyph d="M318 700q15 0 8 -16l-54 -115q-4 -12 -15 -12h-35q-15 0 -8 16l53 115q5 12 16 12h35zM440 700q15 0 9 -16l-54 -115q-5 -12 -16 -12h-34q-15 0 -8 16l52 115q5 12 16 12h35zM304 -12q-107 0 -178.5 74t-71.5 183t71.5 183t178.5 74q106 0 177.5 -73.5t71.5 -183.5 t-71.5 -183.5t-177.5 -73.5zM304 45q82 0 136.5 56.5t54.5 143.5t-54.5 144t-136.5 57q-83 0 -137 -56.5t-54 -144.5q0 -87 54 -143.5t137 -56.5z" glyph-name="ohungarumlaut" horiz-adv-x="607" unicode="ő"/><glyph d="M1068 57q14 0 14 -14v-29q0 -14 -14 -14h-333q-13 0 -13 14v127q-49 -72 -126.5 -113t-169.5 -41q-151 0 -254 104t-103 256t103 256.5t254 104.5q92 0 169.5 -41.5t126.5 -113.5v133q0 14 13 14h332q13 0 13 -14v-29q0 -13 -13 -13h-283v-253h268q14 0 14 -14v-29 q0 -14 -14 -14h-268v-277h284zM426 48q126 0 210.5 85.5t84.5 213.5q0 129 -84.5 214.5t-210.5 85.5t-210 -85.5t-84 -214.5q0 -128 84.5 -213.5t209.5 -85.5z" glyph-name="OE" horiz-adv-x="1160" unicode="Œ"/><glyph d="M969 271q0 -27 -6.5 -37t-26.5 -10h-382q6 -80 59.5 -132t144.5 -52q82 0 146 50q8 7 15 0l13 -18q8 -9 -3 -21q-67 -63 -176 -63q-79 0 -138 36t-91 97q-31 -61 -89.5 -97t-130.5 -36q-107 0 -178.5 74t-71.5 183t71.5 183t178.5 74q72 0 130 -35.5t89 -95.5 q30 60 87 95.5t130 35.5q104 0 166.5 -68.5t62.5 -162.5zM740 448q-78 0 -128.5 -48t-57.5 -127h361q-2 77 -49.5 126t-125.5 49zM304 45q82 0 136.5 56.5t54.5 143.5t-54.5 144t-136.5 57q-83 0 -137 -56.5t-54 -144.5q0 -87 54 -143.5t137 -56.5z" glyph-name="oe" horiz-adv-x="1023" unicode="œ"/><glyph d="M270 767q-15 0 -8 16l53 115q5 12 16 12h35q15 0 8 -16l-54 -115q-4 -12 -15 -12h-35zM340 273l173 -255q11 -18 -10 -18h-37q-12 0 -18 10l-173 259h-124v-255q0 -14 -13 -14h-35q-14 0 -14 14v672q0 14 14 14h187q109 0 168.5 -59.5t59.5 -156.5q0 -84 -46 -141 t-132 -70zM151 644v-319h133q78 0 125 38.5t47 120.5q0 83 -47 121.5t-125 38.5h-133z" glyph-name="Racute" horiz-adv-x="575" unicode="Ŕ"/><glyph d="M169 557q-15 0 -8 16l53 115q5 12 16 12h35q15 0 8 -16l-54 -115q-4 -12 -15 -12h-35zM297 493q8 -5 8 -17v-25q0 -15 -17 -10q-14 5 -35 5q-43 0 -70 -24.5t-35.5 -52.5t-8.5 -59v-296q0 -14 -13 -14h-35q-12 0 -12 14v462q0 14 12 14h31q14 0 14 -15l2 -53 q35 80 114 80q32 0 45 -9z" glyph-name="racute" horiz-adv-x="348" unicode="ŕ"/><glyph d="M340 273l173 -255q11 -18 -10 -18h-37q-12 0 -18 10l-173 259h-124v-255q0 -14 -13 -14h-35q-14 0 -14 14v672q0 14 14 14h187q109 0 168.5 -59.5t59.5 -156.5q0 -84 -46 -141t-132 -70zM151 644v-319h133q78 0 125 38.5t47 120.5q0 83 -47 121.5t-125 38.5h-133z M295 -29q27 0 44.5 -22.5t17.5 -57.5q0 -48 -31 -85.5t-83 -37.5v26q43 1 61 40q13 29 0 40q-3 2 -8 2q-23 -1 -37 12t-14 34t14.5 35t35.5 14z" glyph-name="Rcommaaccent" horiz-adv-x="575" unicode="Ŗ"/><glyph d="M297 493q8 -5 8 -17v-25q0 -15 -17 -10q-14 5 -35 5q-43 0 -70 -24.5t-35.5 -52.5t-8.5 -59v-296q0 -14 -13 -14h-35q-12 0 -12 14v462q0 14 12 14h31q14 0 14 -15l2 -53q35 80 114 80q32 0 45 -9zM121 -29q27 0 44.5 -22.5t17.5 -57.5q0 -48 -31 -85.5t-83 -37.5v26 q43 1 61 40q13 29 0 40q-3 2 -8 2q-23 -1 -37 12t-14 34t14.5 35t35.5 14z" glyph-name="rcommaaccent" horiz-adv-x="348" unicode="ŗ"/><glyph d="M245 794l-84 103q-4 4 -2 8.5t9 4.5h33q9 0 16 -8l66 -82l66 82q7 8 16 8h33q6 0 8.5 -4.5t-1.5 -8.5l-85 -103q-7 -8 -15 -8h-44q-9 0 -16 8zM340 273l173 -255q11 -18 -10 -18h-37q-12 0 -18 10l-173 259h-124v-255q0 -14 -13 -14h-35q-14 0 -14 14v672q0 14 14 14h187 q109 0 168.5 -59.5t59.5 -156.5q0 -84 -46 -141t-132 -70zM151 644v-319h133q78 0 125 38.5t47 120.5q0 83 -47 121.5t-125 38.5h-133z" glyph-name="Rcaron" horiz-adv-x="575" unicode="Ř"/><glyph d="M298 700q6 0 8.5 -4.5t-1.5 -8.5l-85 -103q-7 -8 -15 -8h-44q-9 0 -16 8l-84 103q-4 4 -2 8.5t9 4.5h33q9 0 16 -8l66 -82l66 82q7 8 16 8h33zM297 493q8 -5 8 -17v-25q0 -15 -17 -10q-14 5 -35 5q-43 0 -70 -24.5t-35.5 -52.5t-8.5 -59v-296q0 -14 -13 -14h-35 q-12 0 -12 14v462q0 14 12 14h31q14 0 14 -15l2 -53q35 80 114 80q32 0 45 -9z" glyph-name="rcaron" horiz-adv-x="348" unicode="ř"/><glyph d="M339 910q15 0 8 -16l-54 -115q-4 -12 -15 -12h-35q-15 0 -8 16l53 115q5 12 16 12h35zM266 -12q-135 0 -204 103q-8 13 1 21l17 19q12 12 24 -1q60 -84 163 -84q71 0 111 35.5t40 94.5q0 55 -33.5 87t-101.5 65l-85 42q-120 57 -120 167q0 77 54.5 124t135.5 47 q113 0 183 -88q10 -12 -3 -26l-13 -15q-12 -13 -24 1q-59 70 -141 70q-57 0 -94 -29t-37 -82q0 -40 22.5 -68.5t71.5 -52.5l84 -41q77 -38 119.5 -82t42.5 -118q0 -86 -58.5 -137.5t-154.5 -51.5z" glyph-name="Sacute" horiz-adv-x="537" unicode="Ś"/><glyph d="M297 700q15 0 8 -16l-54 -115q-4 -12 -15 -12h-35q-15 0 -8 16l53 115q5 12 16 12h35zM219 -12q-97 0 -155 72q-9 12 -2 25l12 15q9 13 22 -1q53 -58 122 -58q48 0 77 22t29 63q0 35 -21 56t-61 38l-57 24q-52 22 -81.5 51.5t-29.5 78.5q0 58 42.5 93t103.5 35 q88 0 140 -66q9 -10 -1 -22l-11 -13q-11 -13 -24 0q-45 49 -102 49q-38 0 -64 -19t-26 -55q0 -35 21.5 -54t68.5 -38l45 -19q55 -22 85.5 -53.5t30.5 -84.5q0 -65 -47.5 -102t-116.5 -37z" glyph-name="sacute" horiz-adv-x="442" unicode="ś"/><glyph d="M276 -12l-28 -29v-1q37 -1 61.5 -21.5t24.5 -55.5q0 -54 -43.5 -76t-101.5 -15q-9 2 -9 11v21q0 10 11 10q93 -5 93 43q0 28 -27 38.5t-65 -1.5q-12 -2 -12 7v19q0 5 5 12l37 41q-103 15 -160 100q-8 13 1 21l17 19q12 12 24 -1q60 -84 163 -84q71 0 111 35.5t40 94.5 q0 55 -33.5 87t-101.5 65l-85 42q-120 57 -120 167q0 77 54.5 124t135.5 47q113 0 183 -88q10 -12 -3 -26l-13 -15q-12 -13 -24 1q-59 70 -141 70q-57 0 -94 -29t-37 -82q0 -40 22.5 -68.5t71.5 -52.5l84 -41q77 -38 119.5 -82t42.5 -118q0 -83 -56 -134.5t-147 -54.5z" glyph-name="Scedilla" horiz-adv-x="537" unicode="Ş"/><glyph d="M234 -12l-28 -29v-1q37 -1 61.5 -21.5t24.5 -55.5q0 -54 -43.5 -76t-101.5 -15q-9 2 -9 11v21q0 10 11 10q93 -5 93 43q0 28 -27 38.5t-65 -1.5q-12 -2 -12 7v19q0 5 5 12l37 41q-71 14 -116 69q-9 12 -2 25l12 15q9 13 22 -1q53 -58 122 -58q48 0 77 22t29 63 q0 35 -21 56t-61 38l-57 24q-52 22 -81.5 51.5t-29.5 78.5q0 58 42.5 93t103.5 35q88 0 140 -66q9 -10 -1 -22l-11 -13q-11 -13 -24 0q-45 49 -102 49q-38 0 -64 -19t-26 -55q0 -35 21.5 -54t68.5 -38l45 -19q55 -22 85.5 -53.5t30.5 -84.5q0 -61 -42.5 -97.5t-106.5 -41.5z " glyph-name="scedilla" horiz-adv-x="442" unicode="ş"/><glyph d="M141 910h33q9 0 16 -8l66 -82l66 82q7 8 16 8h33q6 0 8.5 -4.5t-1.5 -8.5l-85 -103q-7 -8 -15 -8h-44q-9 0 -16 8l-84 103q-4 4 -2 8.5t9 4.5zM266 -12q-135 0 -204 103q-8 13 1 21l17 19q12 12 24 -1q60 -84 163 -84q71 0 111 35.5t40 94.5q0 55 -33.5 87t-101.5 65 l-85 42q-120 57 -120 167q0 77 54.5 124t135.5 47q113 0 183 -88q10 -12 -3 -26l-13 -15q-12 -13 -24 1q-59 70 -141 70q-57 0 -94 -29t-37 -82q0 -40 22.5 -68.5t71.5 -52.5l84 -41q77 -38 119.5 -82t42.5 -118q0 -86 -58.5 -137.5t-154.5 -51.5z" glyph-name="Scaron" horiz-adv-x="537" unicode="Š"/><glyph d="M100 700h33q9 0 16 -8l66 -82l66 82q7 8 16 8h33q6 0 8.5 -4.5t-1.5 -8.5l-85 -103q-7 -8 -15 -8h-44q-9 0 -16 8l-84 103q-4 4 -2 8.5t9 4.5zM219 -12q-97 0 -155 72q-9 12 -2 25l12 15q9 13 22 -1q53 -58 122 -58q48 0 77 22t29 63q0 35 -21 56t-61 38l-57 24 q-52 22 -81.5 51.5t-29.5 78.5q0 58 42.5 93t103.5 35q88 0 140 -66q9 -10 -1 -22l-11 -13q-11 -13 -24 0q-45 49 -102 49q-38 0 -64 -19t-26 -55q0 -35 21.5 -54t68.5 -38l45 -19q55 -22 85.5 -53.5t30.5 -84.5q0 -65 -47.5 -102t-116.5 -37z" glyph-name="scaron" horiz-adv-x="442" unicode="š"/><glyph d="M449 700q14 0 14 -14v-29q0 -13 -14 -13h-152v-630q0 -14 -14 -14h14l-39 -41v-1q37 -1 61.5 -21.5t24.5 -55.5q0 -54 -43.5 -76t-101.5 -15q-9 2 -9 11v21q0 10 11 10q93 -5 93 43q0 28 -27 38.5t-65 -1.5q-12 -2 -12 7v19q0 5 5 12l45 50h8q-13 0 -13 14v630h-152 q-14 0 -14 13v29q0 14 14 14h366z" glyph-name="Tcommaaccent" horiz-adv-x="532" unicode="Ţ"/><glyph d="M205 -43q37 -1 61.5 -21.5t24.5 -55.5q0 -54 -43.5 -76t-101.5 -15q-9 1 -9 11v21q0 10 11 10q93 -5 93 43q0 28 -27.5 38.5t-64.5 -1.5q-12 -2 -12 7v19q0 5 5 12l40 45q-55 18 -55 94v351h-64q-14 0 -14 14v23q0 14 14 14h64v116q0 14 13 14h34q13 0 13 -14v-116h84 q14 0 14 -14v-23q0 -14 -14 -14h-84v-344q0 -29 10.5 -41.5t34.5 -12.5q15 0 31 2q20 4 20 -12v-23q0 -16 -49 -20l-29 -30v-1z" glyph-name="tcommaaccent" horiz-adv-x="334" unicode="ţ"/><glyph d="M151 910h33q9 0 16 -8l66 -82l66 82q7 8 16 8h33q6 0 8.5 -4.5t-1.5 -8.5l-85 -103q-7 -8 -15 -8h-44q-9 0 -16 8l-84 103q-4 4 -2 8.5t9 4.5zM248 0q-13 0 -13 14v630h-152q-14 0 -14 13v29q0 14 14 14h366q14 0 14 -14v-29q0 -13 -14 -13h-152v-630q0 -14 -14 -14h-35z " glyph-name="Tcaron" horiz-adv-x="532" unicode="Ť"/><glyph d="M338 673q14 0 9 -15l-54 -116q-5 -12 -16 -12h-34q-15 0 -8 16l52 115q5 12 16 12h35zM271 490q14 0 14 -14v-23q0 -14 -14 -14h-84v-344q0 -29 10.5 -41.5t34.5 -12.5q15 0 31 2q20 4 20 -12v-23q0 -20 -60 -20q-96 0 -96 100v351h-64q-14 0 -14 14v23q0 14 14 14h64 v116q0 14 13 14h34q13 0 13 -14v-116h84z" glyph-name="tcaron" horiz-adv-x="345" unicode="ť"/><glyph d="M449 700q14 0 14 -14v-29q0 -13 -14 -13h-152v-154h102q14 0 14 -14v-23q0 -14 -14 -14h-102v-425q0 -14 -14 -14h-35q-13 0 -13 14v425h-103q-13 0 -13 14v23q0 14 13 14h103v154h-152q-14 0 -14 13v29q0 14 14 14h366z" glyph-name="Tbar" horiz-adv-x="532" unicode="Ŧ"/><glyph d="M271 439h-84v-78h83q15 0 15 -15v-23q0 -15 -15 -15h-83v-213q0 -29 10.5 -41.5t34.5 -12.5q15 0 31 2q20 4 20 -12v-23q0 -20 -60 -20q-96 0 -96 100v220h-63q-15 0 -15 15v23q0 15 15 15h63v78h-64q-14 0 -14 14v23q0 14 14 14h64v116q0 14 13 14h34q13 0 13 -14v-116 h84q14 0 14 -14v-23q0 -14 -14 -14z" glyph-name="tbar" horiz-adv-x="334" unicode="ŧ"/><glyph d="M249 927q35 0 72.5 -32t61.5 -32q30 0 41 31q3 9 11 9h12q10 0 10 -10q-4 -33 -25.5 -51t-48.5 -18q-38 0 -76.5 32t-61.5 32q-32 0 -43 -31q-3 -9 -11 -9h-12q-11 0 -9 12q4 32 25.5 49.5t53.5 17.5zM312 -13q-103 0 -165.5 62.5t-62.5 174.5v462q0 14 14 14h35 q13 0 13 -14v-453q0 -92 45 -138.5t121 -46.5q75 0 120 46.5t45 138.5v453q0 14 14 14h35q14 0 14 -14v-462q0 -112 -62 -174.5t-166 -62.5z" glyph-name="Utilde" horiz-adv-x="624" unicode="Ũ"/><glyph d="M149 638q-11 0 -9 12q4 32 25.5 49.5t53.5 17.5q35 0 72.5 -32t61.5 -32q30 0 41 31q3 9 11 9h12q10 0 10 -10q-4 -33 -25.5 -51t-48.5 -18q-38 0 -76.5 32t-61.5 32q-32 0 -43 -31q-3 -9 -11 -9h-12zM470 490q13 0 13 -14v-462q0 -14 -13 -14h-31q-14 0 -14 15l-2 64 q-51 -91 -163 -91q-82 0 -131.5 52t-49.5 148v288q0 14 12 14h35q13 0 13 -14v-286q0 -68 35 -106.5t98 -38.5q65 0 108 39.5t43 105.5v286q0 14 12 14h35z" glyph-name="utilde" horiz-adv-x="562" unicode="ũ"/><glyph d="M446 910q14 0 14 -14v-23q0 -14 -14 -14h-267q-14 0 -14 14v23q0 14 14 14h267zM312 -13q-103 0 -165.5 62.5t-62.5 174.5v462q0 14 14 14h35q13 0 13 -14v-453q0 -92 45 -138.5t121 -46.5q75 0 120 46.5t45 138.5v453q0 14 14 14h35q14 0 14 -14v-462q0 -112 -62 -174.5 t-166 -62.5z" glyph-name="Umacron" horiz-adv-x="624" unicode="Ū"/><glyph d="M149 649q-14 0 -14 14v23q0 14 14 14h267q14 0 14 -14v-23q0 -14 -14 -14h-267zM470 490q13 0 13 -14v-462q0 -14 -13 -14h-31q-14 0 -14 15l-2 64q-51 -91 -163 -91q-82 0 -131.5 52t-49.5 148v288q0 14 12 14h35q13 0 13 -14v-286q0 -68 35 -106.5t98 -38.5 q65 0 108 39.5t43 105.5v286q0 14 12 14h35z" glyph-name="umacron" horiz-adv-x="562" unicode="ū"/><glyph d="M400 896q3 14 16 14h15q15 0 14 -15q-5 -50 -41 -81.5t-92 -31.5t-91.5 31.5t-40.5 81.5q-2 15 14 15h15q13 0 16 -14q6 -32 29 -51.5t58 -19.5t58.5 19.5t29.5 51.5zM312 -13q-103 0 -165.5 62.5t-62.5 174.5v462q0 14 14 14h35q13 0 13 -14v-453q0 -92 45 -138.5 t121 -46.5q75 0 120 46.5t45 138.5v453q0 14 14 14h35q14 0 14 -14v-462q0 -112 -62 -174.5t-166 -62.5z" glyph-name="Ubreve" horiz-adv-x="624" unicode="Ŭ"/><glyph d="M282 572q-56 0 -91.5 31.5t-40.5 81.5q-2 15 14 15h15q13 0 16 -14q6 -32 29 -51.5t58 -19.5t58.5 19.5t29.5 51.5q3 14 16 14h15q15 0 14 -15q-5 -50 -41 -81.5t-92 -31.5zM470 490q13 0 13 -14v-462q0 -14 -13 -14h-31q-14 0 -14 15l-2 64q-51 -91 -163 -91 q-82 0 -131.5 52t-49.5 148v288q0 14 12 14h35q13 0 13 -14v-286q0 -68 35 -106.5t98 -38.5q65 0 108 39.5t43 105.5v286q0 14 12 14h35z" glyph-name="ubreve" horiz-adv-x="562" unicode="ŭ"/><glyph d="M312 924q32 0 54 -21t22 -53q0 -31 -22 -52.5t-54 -21.5t-54 21.5t-22 52.5q0 32 22 53t54 21zM312 821q12 0 20.5 8t8.5 21t-8.5 21t-20.5 8q-13 0 -21 -8t-8 -21t8 -21t21 -8zM312 -13q-103 0 -165.5 62.5t-62.5 174.5v462q0 14 14 14h35q13 0 13 -14v-453 q0 -92 45 -138.5t121 -46.5q75 0 120 46.5t45 138.5v453q0 14 14 14h35q14 0 14 -14v-462q0 -112 -62 -174.5t-166 -62.5z" glyph-name="Uring" horiz-adv-x="624" unicode="Ů"/><glyph d="M282 566q-32 0 -54 21.5t-22 52.5q0 32 22 53t54 21t54 -21t22 -53q0 -31 -22 -52.5t-54 -21.5zM282 669q-13 0 -21 -8t-8 -21t8 -21t21 -8q12 0 20.5 8t8.5 21t-8.5 21t-20.5 8zM470 490q13 0 13 -14v-462q0 -14 -13 -14h-31q-14 0 -14 15l-2 64q-51 -91 -163 -91 q-82 0 -131.5 52t-49.5 148v288q0 14 12 14h35q13 0 13 -14v-286q0 -68 35 -106.5t98 -38.5q65 0 108 39.5t43 105.5v286q0 14 12 14h35z" glyph-name="uring" horiz-adv-x="562" unicode="ů"/><glyph d="M326 910q15 0 8 -16l-54 -115q-4 -12 -15 -12h-35q-15 0 -8 16l53 115q5 12 16 12h35zM448 910q15 0 9 -16l-54 -115q-5 -12 -16 -12h-34q-15 0 -8 16l52 115q5 12 16 12h35zM312 -13q-103 0 -165.5 62.5t-62.5 174.5v462q0 14 14 14h35q13 0 13 -14v-453 q0 -92 45 -138.5t121 -46.5q75 0 120 46.5t45 138.5v453q0 14 14 14h35q14 0 14 -14v-462q0 -112 -62 -174.5t-166 -62.5z" glyph-name="Uhungarumlaut" horiz-adv-x="624" unicode="Ű"/><glyph d="M200 557q-15 0 -8 16l53 115q5 12 16 12h35q15 0 8 -16l-54 -115q-4 -12 -15 -12h-35zM323 557q-15 0 -8 16l52 115q5 12 16 12h35q15 0 9 -16l-54 -115q-5 -12 -16 -12h-34zM470 490q13 0 13 -14v-462q0 -14 -13 -14h-31q-14 0 -14 15l-2 64q-51 -91 -163 -91 q-82 0 -131.5 52t-49.5 148v288q0 14 12 14h35q13 0 13 -14v-286q0 -68 35 -106.5t98 -38.5q65 0 108 39.5t43 105.5v286q0 14 12 14h35z" glyph-name="uhungarumlaut" horiz-adv-x="562" unicode="ű"/><glyph d="M526 700q14 0 14 -14v-462q0 -80 -32.5 -135.5t-90.5 -80.5v-3q-111 -35 -111 -106q0 -38 25.5 -51.5t69.5 -4.5v-41q-18 -10 -43 -8t-48.5 10t-39.5 30.5t-16 55.5q0 56 50 97q-100 2 -160 64.5t-60 172.5v462q0 14 14 14h35q13 0 13 -14v-453q0 -92 45 -138.5 t121 -46.5q75 0 120 46.5t45 138.5v453q0 14 14 14h35z" glyph-name="Uogonek" horiz-adv-x="624" unicode="Ų"/><glyph d="M470 490q13 0 13 -14v-462q0 -14 -13 -14h-18q-46 -2 -78 -29.5t-32 -69.5q0 -36 25.5 -51.5t68.5 -6.5v-41q-43 -19 -95 3.5t-52 85.5q0 56 42 92t94 46l-2 50q-51 -91 -163 -91q-82 0 -131.5 52t-49.5 148v288q0 14 12 14h35q13 0 13 -14v-286q0 -68 35 -106.5 t98 -38.5q65 0 108 39.5t43 105.5v286q0 14 12 14h35z" glyph-name="uogonek" horiz-adv-x="562" unicode="ų"/><glyph d="M427 786q-7 0 -9 4.5t2 8.5l84 103q7 8 16 8h44q8 0 15 -8l85 -103q4 -4 1.5 -8.5t-8.5 -4.5h-33q-9 0 -16 8l-66 82l-66 -82q-7 -8 -16 -8h-33zM1014 700q17 0 12 -17l-208 -671q-5 -12 -17 -12h-43q-13 0 -17 12l-200 610l-201 -610q-4 -12 -16 -12h-44q-12 0 -16 12 l-209 671q-5 17 12 17h34q13 0 17 -12l185 -605l201 605q4 12 16 12h42q11 0 15 -12l201 -605l185 605q5 12 17 12h34z" glyph-name="Wcircumflex" horiz-adv-x="1081" unicode="Ŵ"/><glyph d="M319 576q-7 0 -9 4.5t2 8.5l84 103q7 8 16 8h44q8 0 15 -8l85 -103q4 -4 1.5 -8.5t-8.5 -4.5h-33q-9 0 -16 8l-66 82l-66 -82q-7 -8 -16 -8h-33zM231 0q-13 0 -18 12l-162 461q-6 17 11 17h34q12 0 16 -12l140 -413l144 413q4 12 18 12h40q14 0 18 -12l144 -413l140 413 q4 12 15 12h35q17 0 11 -17l-162 -461q-5 -12 -18 -12h-40q-13 0 -18 12l-145 413l-145 -413q-5 -12 -18 -12h-40z" glyph-name="wcircumflex" horiz-adv-x="868" unicode="ŵ"/><glyph d="M181 786q-7 0 -9 4.5t2 8.5l84 103q7 8 16 8h44q8 0 15 -8l85 -103q4 -4 1.5 -8.5t-8.5 -4.5h-33q-9 0 -16 8l-66 82l-66 -82q-7 -8 -16 -8h-33zM526 700q19 0 8 -18l-207 -344v-324q0 -14 -14 -14h-35q-14 0 -14 14v324l-207 344q-5 8 -2.5 13t11.5 5h40q10 0 16 -10 l174 -292l173 292q6 10 17 10h40z" glyph-name="Ycircumflex" horiz-adv-x="591" unicode="Ŷ"/><glyph d="M155 576q-7 0 -9 4.5t2 8.5l84 103q7 8 16 8h44q8 0 15 -8l85 -103q4 -4 1.5 -8.5t-8.5 -4.5h-33q-9 0 -16 8l-66 82l-66 -82q-7 -8 -16 -8h-33zM180 -190q-15 0 -10 14l69 174l-188 475q-6 17 11 17h34q12 0 16 -12l158 -412l158 412q4 12 15 12h35q17 0 11 -17 l-258 -651q-5 -12 -17 -12h-34z" glyph-name="ycircumflex" horiz-adv-x="540" unicode="ŷ"/><glyph d="M209 841q-16 0 -27 11t-11 26t11 26t27 11t27 -11t11 -26t-11 -26t-27 -11zM383 841q-15 0 -26.5 11t-11.5 26t11.5 26t26.5 11q16 0 27 -11t11 -26t-11 -26t-27 -11zM526 700q19 0 8 -18l-207 -344v-324q0 -14 -14 -14h-35q-14 0 -14 14v324l-207 344q-5 8 -2.5 13 t11.5 5h40q10 0 16 -10l174 -292l173 292q6 10 17 10h40z" glyph-name="Ydieresis" horiz-adv-x="591" unicode="Ÿ"/><glyph d="M364 910q15 0 8 -16l-54 -115q-4 -12 -15 -12h-35q-15 0 -8 16l53 115q5 12 16 12h35zM78 0q-14 0 -14 14v34q0 9 6 18l353 578h-335q-14 0 -14 13v29q0 14 14 14h387q14 0 14 -14v-34q0 -9 -6 -18l-353 -577h355q14 0 14 -14v-29q0 -14 -14 -14h-407z" glyph-name="Zacute" horiz-adv-x="568" unicode="Ź"/><glyph d="M324 700q15 0 8 -16l-54 -115q-4 -12 -15 -12h-35q-15 0 -8 16l53 115q5 12 16 12h35zM73 0q-14 0 -14 14v29q0 9 7 18l289 377h-279q-14 0 -14 13v25q0 14 14 14h332q15 0 15 -14v-29q0 -8 -7 -17l-290 -377h284q14 0 14 -14v-25q0 -14 -14 -14h-337z" glyph-name="zacute" horiz-adv-x="483" unicode="ź"/><glyph d="M281 841q-16 0 -27 11t-11 26t11 26t27 11t27 -11t11 -26t-11 -26t-27 -11zM78 0q-14 0 -14 14v34q0 9 6 18l353 578h-335q-14 0 -14 13v29q0 14 14 14h387q14 0 14 -14v-34q0 -9 -6 -18l-353 -577h355q14 0 14 -14v-29q0 -14 -14 -14h-407z" glyph-name="Zdotaccent" horiz-adv-x="568" unicode="Ż"/><glyph d="M241 631q-16 0 -27 11t-11 26t11 26t27 11t27 -11t11 -26t-11 -26t-27 -11zM73 0q-14 0 -14 14v29q0 9 7 18l289 377h-279q-14 0 -14 13v25q0 14 14 14h332q15 0 15 -14v-29q0 -8 -7 -17l-290 -377h284q14 0 14 -14v-25q0 -14 -14 -14h-337z" glyph-name="zdotaccent" horiz-adv-x="483" unicode="ż"/><glyph d="M167 910h33q9 0 16 -8l66 -82l66 82q7 8 16 8h33q6 0 8.5 -4.5t-1.5 -8.5l-85 -103q-7 -8 -15 -8h-44q-9 0 -16 8l-84 103q-4 4 -2 8.5t9 4.5zM78 0q-14 0 -14 14v34q0 9 6 18l353 578h-335q-14 0 -14 13v29q0 14 14 14h387q14 0 14 -14v-34q0 -9 -6 -18l-353 -577h355 q14 0 14 -14v-29q0 -14 -14 -14h-407z" glyph-name="Zcaron" horiz-adv-x="568" unicode="Ž"/><glyph d="M127 700h33q9 0 16 -8l66 -82l66 82q7 8 16 8h33q6 0 8.5 -4.5t-1.5 -8.5l-85 -103q-7 -8 -15 -8h-44q-9 0 -16 8l-84 103q-4 4 -2 8.5t9 4.5zM73 0q-14 0 -14 14v29q0 9 7 18l289 377h-279q-14 0 -14 13v25q0 14 14 14h332q15 0 15 -14v-29q0 -8 -7 -17l-290 -377h284 q14 0 14 -14v-25q0 -14 -14 -14h-337z" glyph-name="zcaron" horiz-adv-x="483" unicode="ž"/><glyph d="M243 675q-40 0 -54.5 -21.5t-14.5 -61.5v-102h101q12 0 12 -12v-28q0 -12 -12 -12h-101v-504q0 -124 -121 -124q-27 0 -43 6q-9 4 -9 13v33q0 9 12 7q18 -3 33 -3q40 0 54 21.5t14 61.5v489h-60q-13 0 -13 12v28q0 12 13 12h60v117q0 124 121 124q27 0 43 -6q9 -4 9 -13 v-33q0 -9 -12 -7q-18 3 -32 3z" glyph-name="florin" horiz-adv-x="336" unicode="ƒ"/><glyph d="M302 794l-84 103q-4 4 -2 8.5t9 4.5h33q9 0 16 -8l66 -82l66 82q7 8 16 8h33q6 0 8.5 -4.5t-1.5 -8.5l-85 -103q-7 -8 -15 -8h-44q-9 0 -16 8zM623 17q7 -17 -11 -17h-38q-11 0 -15 12l-55 153h-330l-54 -153q-4 -12 -17 -12h-36q-18 0 -11 17l244 671q4 12 18 12h43 q13 0 18 -12zM194 221h290l-145 407z" glyph-name="uni01CD" horiz-adv-x="679" unicode="Ǎ"/><glyph d="M274 584l-84 103q-4 4 -2 8.5t9 4.5h33q9 0 16 -8l66 -82l66 82q7 8 16 8h33q6 0 8.5 -4.5t-1.5 -8.5l-85 -103q-7 -8 -15 -8h-44q-9 0 -16 8zM537 490q13 0 13 -14v-462q0 -14 -13 -14h-32q-13 0 -13 14l-1 86q-60 -112 -194 -112q-107 0 -175 73t-68 184t68 184t175 73 q134 0 194 -114l1 88q0 14 13 14h32zM304 45q83 0 135 54.5t52 143.5q0 90 -52 146t-135 56q-84 0 -138 -55.5t-54 -144.5t53.5 -144.5t138.5 -55.5z" glyph-name="uni01CE" unicode="ǎ"/><glyph d="M5 910h33q9 0 16 -8l66 -82l66 82q7 8 16 8h33q6 0 8.5 -4.5t-1.5 -8.5l-85 -103q-7 -8 -15 -8h-44q-9 0 -16 8l-85 103q-3 4 -0.5 8.5t8.5 4.5zM103 0q-14 0 -14 14v672q0 14 14 14h35q13 0 13 -14v-672q0 -14 -13 -14h-35z" glyph-name="uni01CF" horiz-adv-x="240" unicode="Ǐ"/><glyph d="M-24 700h34q9 0 16 -8l66 -82l66 82q7 8 16 8h33q6 0 8.5 -4.5t-1.5 -8.5l-85 -103q-7 -8 -15 -8h-44q-9 0 -16 8l-85 103q-3 4 -1 8.5t8 4.5zM74 0q-13 0 -13 14v462q0 14 13 14h35q12 0 12 -14v-462q0 -14 -12 -14h-35z" glyph-name="uni01D0" horiz-adv-x="182" unicode="ǐ"/><glyph d="M312 910h33q9 0 16 -8l66 -82l66 82q7 8 16 8h33q6 0 8.5 -4.5t-1.5 -8.5l-85 -103q-7 -8 -15 -8h-44q-9 0 -16 8l-84 103q-4 4 -2 8.5t9 4.5zM426 -13q-151 0 -254 104t-103 256t103 256.5t254 104.5t254.5 -104.5t103.5 -256.5t-103.5 -256t-254.5 -104zM426 48 q126 0 210.5 85.5t84.5 213.5q0 129 -84.5 214.5t-210.5 85.5t-210 -85.5t-84 -214.5q0 -128 84.5 -213.5t209.5 -85.5z" glyph-name="uni01D1" horiz-adv-x="853" unicode="Ǒ"/><glyph d="M189 700h33q9 0 16 -8l66 -82l66 82q7 8 16 8h33q6 0 8.5 -4.5t-1.5 -8.5l-85 -103q-7 -8 -15 -8h-44q-9 0 -16 8l-84 103q-4 4 -2 8.5t9 4.5zM304 -12q-107 0 -178.5 74t-71.5 183t71.5 183t178.5 74q106 0 177.5 -73.5t71.5 -183.5t-71.5 -183.5t-177.5 -73.5zM304 45 q82 0 136.5 56.5t54.5 143.5t-54.5 144t-136.5 57q-83 0 -137 -56.5t-54 -144.5q0 -87 54 -143.5t137 -56.5z" glyph-name="uni01D2" horiz-adv-x="607" unicode="ǒ"/><glyph d="M197 910h33q9 0 16 -8l66 -82l66 82q7 8 16 8h33q6 0 8.5 -4.5t-1.5 -8.5l-85 -103q-7 -8 -15 -8h-44q-9 0 -16 8l-84 103q-4 4 -2 8.5t9 4.5zM312 -13q-103 0 -165.5 62.5t-62.5 174.5v462q0 14 14 14h35q13 0 13 -14v-453q0 -92 45 -138.5t121 -46.5q75 0 120 46.5 t45 138.5v453q0 14 14 14h35q14 0 14 -14v-462q0 -112 -62 -174.5t-166 -62.5z" glyph-name="uni01D3" horiz-adv-x="624" unicode="Ǔ"/><glyph d="M244 584l-84 103q-4 4 -2 8.5t9 4.5h33q9 0 16 -8l66 -82l66 82q7 8 16 8h33q6 0 8.5 -4.5t-1.5 -8.5l-85 -103q-7 -8 -15 -8h-44q-9 0 -16 8zM470 490q13 0 13 -14v-462q0 -14 -13 -14h-31q-14 0 -14 15l-2 64q-51 -91 -163 -91q-82 0 -131.5 52t-49.5 148v288 q0 14 12 14h35q13 0 13 -14v-286q0 -68 35 -106.5t98 -38.5q65 0 108 39.5t43 105.5v286q0 14 12 14h35z" glyph-name="uni01D4" horiz-adv-x="562" unicode="ǔ"/><glyph d="M493 -7q-76 -32 -76 -94q0 -38 25.5 -51.5t69.5 -4.5v-41q-18 -10 -43 -8t-48.5 10t-39.5 30.5t-16 55.5q0 56 50 97q-147 5 -246.5 108.5t-99.5 251.5q0 152 103 256.5t254 104.5t254.5 -104.5t103.5 -256.5q0 -133 -81.5 -232t-209.5 -122zM132 347q0 -128 84.5 -213.5 t209.5 -85.5q126 0 210.5 85.5t84.5 213.5q0 129 -84.5 214.5t-210.5 85.5t-210 -85.5t-84 -214.5z" glyph-name="uni01EA" horiz-adv-x="853" unicode="Ǫ"/><glyph d="M352 -8q-75 -31 -75 -93q0 -38 25 -51.5t69 -4.5v-41q-18 -10 -43 -8t-48.5 10t-39.5 30.5t-16 55.5q0 58 53 99q-97 10 -160 82t-63 174q0 109 71.5 183t178.5 74q106 0 177.5 -73.5t71.5 -183.5q0 -96 -56.5 -166t-144.5 -87zM113 245q0 -87 54 -143.5t137 -56.5 q82 0 136.5 56.5t54.5 143.5t-54.5 144t-136.5 57q-83 0 -137 -56.5t-54 -144.5z" glyph-name="uni01EB" horiz-adv-x="607" unicode="ǫ"/><glyph d="M266 -12q-135 0 -204 103q-8 13 1 21l17 19q12 12 24 -1q60 -84 163 -84q71 0 111 35.5t40 94.5q0 55 -33.5 87t-101.5 65l-85 42q-120 57 -120 167q0 77 54.5 124t135.5 47q113 0 183 -88q10 -12 -3 -26l-13 -15q-12 -13 -24 1q-59 70 -141 70q-57 0 -94 -29t-37 -82 q0 -40 22.5 -68.5t71.5 -52.5l84 -41q77 -38 119.5 -82t42.5 -118q0 -86 -58.5 -137.5t-154.5 -51.5zM216 -232v26q43 1 61 40q13 29 0 40q-3 2 -8 2q-23 -1 -37 12t-14 34t14.5 35t35.5 14q27 0 44.5 -22.5t17.5 -57.5q0 -48 -31 -85.5t-83 -37.5z" glyph-name="Scommaaccent" horiz-adv-x="537" unicode="Ș"/><glyph d="M219 -12q-97 0 -155 72q-9 12 -2 25l12 15q9 13 22 -1q53 -58 122 -58q48 0 77 22t29 63q0 35 -21 56t-61 38l-57 24q-52 22 -81.5 51.5t-29.5 78.5q0 58 42.5 93t103.5 35q88 0 140 -66q9 -10 -1 -22l-11 -13q-11 -13 -24 0q-45 49 -102 49q-38 0 -64 -19t-26 -55 q0 -35 21.5 -54t68.5 -38l45 -19q55 -22 85.5 -53.5t30.5 -84.5q0 -65 -47.5 -102t-116.5 -37zM174 -232v26q43 1 61 40q13 29 0 40q-3 2 -8 2q-23 -1 -37 12t-14 34t14.5 35t35.5 14q27 0 44.5 -22.5t17.5 -57.5q0 -48 -31 -85.5t-83 -37.5z" glyph-name="scommaaccent" horiz-adv-x="442" unicode="ș"/><glyph d="M248 0q-13 0 -13 14v630h-152q-14 0 -14 13v29q0 14 14 14h366q14 0 14 -14v-29q0 -13 -14 -13h-152v-630q0 -14 -14 -14h-35zM226 -232v26q43 1 61 40q13 29 0 40q-3 2 -8 2q-23 -1 -37 12t-14 34t14.5 35t35.5 14q27 0 44.5 -22.5t17.5 -57.5q0 -48 -31 -85.5 t-83 -37.5z" glyph-name="uni021A" horiz-adv-x="532" unicode="Ț"/><glyph d="M283 8q0 -20 -60 -20q-96 0 -96 100v351h-64q-14 0 -14 14v23q0 14 14 14h64v116q0 14 13 14h34q13 0 13 -14v-116h84q14 0 14 -14v-23q0 -14 -14 -14h-84v-344q0 -29 10.5 -41.5t34.5 -12.5q15 0 31 2q20 4 20 -12v-23zM225 -30q27 0 44.5 -22.5t17.5 -57.5 q0 -48 -31 -85.5t-83 -37.5v26q43 1 61 40q13 29 0 40q-3 2 -8 2q-23 -1 -37 12t-14 34t14.5 35t35.5 14z" glyph-name="uni021B" horiz-adv-x="334" unicode="ț"/><glyph d="M103 490h30q15 0 15 -15v-471q0 -196 -152 -202q-9 0 -11 9l-8 32q-4 11 8 11q56 4 79.5 39.5t23.5 110.5v471q0 15 15 15z" glyph-name="uni0237" horiz-adv-x="217" unicode="ȷ"/><glyph d="M24 576q-7 0 -9 4.5t2 8.5l84 103q7 8 16 8h44q8 0 15 -8l85 -103q4 -4 1.5 -8.5t-8.5 -4.5h-33q-9 0 -16 8l-66 82l-66 -82q-7 -8 -16 -8h-33z" glyph-name="circumflex" horiz-adv-x="278" unicode="ˆ"/><glyph d="M24 700h33q9 0 16 -8l66 -82l66 82q7 8 16 8h33q6 0 8.5 -4.5t-1.5 -8.5l-85 -103q-7 -8 -15 -8h-44q-9 0 -16 8l-84 103q-4 4 -2 8.5t9 4.5z" glyph-name="caron" horiz-adv-x="278" unicode="ˇ"/><glyph d="M235 686q3 14 16 14h15q16 0 14 -15q-5 -50 -41 -81.5t-92 -31.5t-91.5 31.5t-40.5 81.5q-1 15 14 15h15q13 0 16 -14q6 -32 29 -51.5t58 -19.5t58.5 19.5t29.5 51.5z" glyph-name="breve" horiz-adv-x="295" unicode="˘"/><glyph d="M53 631q-16 0 -27 11t-11 26t11 26t27 11t27 -11t11 -26t-11 -26t-27 -11z" glyph-name="dotaccent" horiz-adv-x="106" unicode="˙"/><glyph d="M91 714q32 0 54 -21t22 -53q0 -31 -22 -52.5t-54 -21.5t-54 21.5t-22 52.5q0 32 22 53t54 21zM91 611q12 0 20.5 8t8.5 21t-8.5 21t-20.5 8q-13 0 -21 -8t-8 -21t8 -21t21 -8z" glyph-name="ring" horiz-adv-x="182" unicode="˚"/><glyph d="M173 0q-46 -2 -78 -29.5t-32 -69.5q0 -36 25.5 -51.5t68.5 -6.5v-41q-43 -19 -95 3.5t-52 85.5q0 44 29 78t65.5 48.5t68.5 14.5v-32z" glyph-name="ogonek" horiz-adv-x="183" unicode="˛"/><glyph d="M94 717q35 0 72.5 -32t61.5 -32q30 0 41 31q3 9 11 9h12q10 0 10 -10q-4 -33 -25.5 -51t-48.5 -18q-38 0 -76.5 32t-61.5 32q-32 0 -43 -31q-3 -9 -11 -9h-12q-10 0 -9 12q4 32 25.5 49.5t53.5 17.5z" glyph-name="tilde" horiz-adv-x="317" unicode="˜"/><glyph d="M121 700q15 0 8 -16l-54 -115q-4 -12 -15 -12h-35q-15 0 -8 16l53 115q5 12 16 12h35zM243 700q15 0 9 -16l-54 -115q-5 -12 -16 -12h-34q-15 0 -8 16l52 115q5 12 16 12h35z" glyph-name="hungarumlaut" horiz-adv-x="269" unicode="˝"/><glyph d="M-100 -232v26q43 1 61 40q13 29 0 40q-3 2 -8 2q-23 -1 -37 12t-14 34t14.5 35t35.5 14q27 0 45 -22.5t18 -57.5q0 -48 -31.5 -85.5t-83.5 -37.5z" glyph-name="uni0326" horiz-adv-x="0" unicode="̦"/><glyph d="M623 17q7 -17 -11 -17h-545q-18 0 -11 17l244 671q4 12 18 12h43q13 0 18 -12zM339 628l-204 -575h409z" glyph-name="Delta" horiz-adv-x="679" unicode="Δ"/><glyph d="M100 0q-15 0 -15 15v23q0 15 15 15h103v33q-134 111 -134 279q0 146 101.5 244.5t250.5 98.5t250.5 -98.5t101.5 -244.5q0 -168 -135 -279v-33h104q15 0 15 -15v-23q0 -15 -15 -15h-147q-15 0 -15 15v95q132 96 132 253q0 126 -83.5 205.5t-207.5 79.5t-207.5 -79.5 t-83.5 -205.5q0 -157 132 -253v-95q0 -15 -15 -15h-147z" glyph-name="Omega" horiz-adv-x="842" unicode="Ω"/><glyph d="M470 490q13 0 13 -14v-462q0 -14 -13 -14h-31q-14 0 -14 15l-2 64q-51 -91 -163 -91q-74 0 -121 42v-206q0 -14 -14 -14h-32q-14 0 -14 14v652q0 14 12 14h35q13 0 13 -14v-286q0 -68 35 -106.5t98 -38.5q65 0 108 39.5t43 105.5v286q0 14 12 14h35z" glyph-name="mu" horiz-adv-x="561" unicode="μ"/><glyph d="M560 490q13 0 13 -14v-25q0 -14 -13 -14h-91v-344q0 -43 39 -43q22 0 39 3q18 3 18 -12v-28q0 -10 -20.5 -15t-43.5 -5q-92 0 -92 97v347h-195v-423q0 -14 -14 -14h-32q-14 0 -14 14v423h-88q-13 0 -13 14v25q0 14 13 14h494z" glyph-name="pi" horiz-adv-x="619" unicode="π"/><glyph d="M187 841q-16 0 -27 11t-11 26t11 26t27 11t27 -11t11 -26t-11 -26t-27 -11zM361 841q-15 0 -26.5 11t-11.5 26t11.5 26t26.5 11q16 0 27 -11t11 -26t-11 -26t-27 -11zM103 0q-14 0 -14 14v672q0 14 14 14h331q14 0 14 -14v-29q0 -13 -14 -13h-283v-253h269q13 0 13 -14 v-29q0 -14 -13 -14h-269v-277h284q14 0 14 -14v-29q0 -14 -14 -14h-332z" glyph-name="afii10023" horiz-adv-x="528" unicode="Ё"/><glyph d="M227 767q-15 0 -8 16l53 115q5 12 16 12h35q15 0 8 -16l-54 -115q-4 -12 -15 -12h-35zM425 700q15 0 15 -15v-29q0 -15 -15 -15h-274v-627q0 -14 -13 -14h-35q-14 0 -14 14v672q0 14 14 14h322z" glyph-name="afii10052" horiz-adv-x="494" unicode="Ѓ"/><glyph d="M661 99q11 -9 -3 -23q-100 -89 -235 -89q-154 0 -254 103.5t-100 256.5t100 257t254 104q134 0 235 -88q13 -13 3 -24l-20 -23q-10 -10 -22 0q-87 74 -194 74q-118 0 -199 -75t-92 -192h265q14 0 14 -14v-32q0 -13 -14 -13h-266q9 -119 91 -196t201 -77q107 0 194 74 q12 10 21 1z" glyph-name="afii10053" horiz-adv-x="730" unicode="Є"/><glyph d="M103 0q-14 0 -14 14v672q0 14 14 14h35q13 0 13 -14v-672q0 -14 -13 -14h-35z" glyph-name="afii10055" horiz-adv-x="240" unicode="І"/><glyph d="M33 841q-16 0 -27 11t-11 26t11 26t27 11t27 -11t11 -26t-11 -26t-27 -11zM207 841q-15 0 -26.5 11t-11.5 26t11.5 26t26.5 11q16 0 27 -11t11 -26t-11 -26t-27 -11zM103 0q-14 0 -14 14v672q0 14 14 14h35q13 0 13 -14v-672q0 -14 -13 -14h-35z" glyph-name="afii10056" horiz-adv-x="240" unicode="Ї"/><glyph d="M277 767q-15 0 -8 16l53 115q5 12 16 12h35q15 0 8 -16l-54 -115q-4 -12 -15 -12h-35zM551 18q5 -8 2.5 -13t-11.5 -5h-41q-12 0 -18 9l-240 314l-92 -118v-191q0 -14 -13 -14h-35q-14 0 -14 14v672q0 14 14 14h35q13 0 13 -14v-395l302 401q7 8 18 8h44q10 0 12 -5 t-4 -13l-241 -310z" glyph-name="afii10061" horiz-adv-x="603" unicode="Ќ"/><glyph d="M321 782q-56 0 -91.5 31.5t-40.5 81.5q-1 15 14 15h15q13 0 16 -14q6 -32 29 -51.5t58 -19.5t58.5 19.5t29.5 51.5q3 14 16 14h15q16 0 14 -15q-5 -50 -41 -81.5t-92 -31.5zM576 700q9 0 11.5 -5t-2.5 -13l-404 -672q-6 -10 -17 -10h-37q-19 0 -9 18l170 283l-231 381 q-5 8 -2.5 13t11.5 5h37q11 0 17 -10l202 -333l200 333q6 10 17 10h37z" glyph-name="afii10062" horiz-adv-x="641" unicode="Ў"/><glyph d="M623 17q7 -17 -11 -17h-38q-11 0 -15 12l-55 153h-330l-54 -153q-4 -12 -17 -12h-36q-18 0 -11 17l244 671q4 12 18 12h43q13 0 18 -12zM194 221h290l-145 407z" glyph-name="afii10017" horiz-adv-x="679" unicode="А"/><glyph d="M290 432q109 0 168.5 -59.5t59.5 -156.5t-59.5 -156.5t-168.5 -59.5h-187q-14 0 -14 14v672q0 14 14 14h323q15 0 15 -15v-29q0 -15 -15 -15h-275v-209h139zM284 57q78 0 125 38.5t47 120.5t-47 120.5t-125 38.5h-133v-318h133z" glyph-name="afii10018" horiz-adv-x="571" unicode="Б"/><glyph d="M103 0q-14 0 -14 14v672q0 14 14 14h196q99 0 144 -48.5t45 -118.5q0 -52 -25.5 -93.5t-77.5 -58.5q69 -16 107 -67t38 -120q0 -88 -60 -141t-173 -53h-194zM151 402h145q61 0 96.5 33.5t35.5 92.5q0 115 -132 115h-145v-241zM151 57h142q173 0 173 145q0 70 -44 109 t-129 39h-142v-293z" glyph-name="afii10019" horiz-adv-x="583" unicode="В"/><glyph d="M425 700q15 0 15 -15v-29q0 -15 -15 -15h-274v-627q0 -14 -13 -14h-35q-14 0 -14 14v672q0 14 14 14h322z" glyph-name="afii10020" horiz-adv-x="494" unicode="Г"/><glyph d="M650 59q15 0 15 -15v-98q0 -15 -15 -15h-32q-15 0 -15 15v54h-500v-54q0 -15 -15 -15h-33q-15 0 -15 15v98q0 15 15 15h10q54 0 74 31.5t20 105.5v489q0 15 15 15h440q13 0 13 -13v-628h23zM221 169q0 -69 -26 -110h370v583h-344v-473z" glyph-name="afii10021" horiz-adv-x="698" unicode="Д"/><glyph d="M103 0q-14 0 -14 14v672q0 14 14 14h331q14 0 14 -14v-29q0 -13 -14 -13h-283v-253h269q13 0 13 -14v-29q0 -14 -13 -14h-269v-277h284q14 0 14 -14v-29q0 -14 -14 -14h-332z" glyph-name="afii10022" horiz-adv-x="528" unicode="Е"/><glyph d="M121 700q11 0 18 -8l311 -413v-87l-102 131l-240 -314q-6 -9 -18 -9h-42q-9 0 -11.5 5t2.5 13l269 355l-241 309q-6 8 -4 13t12 5h46zM913 18q5 -8 2.5 -13t-11.5 -5h-40q-12 0 -18 9l-240 315l-92 -118v-192q0 -14 -14 -14h-35q-14 0 -14 14v672q0 14 14 14h35 q14 0 14 -14v-393l301 399q7 8 18 8h44q10 0 12.5 -5t-4.5 -13l-241 -310z" glyph-name="afii10024" horiz-adv-x="965" unicode="Ж"/><glyph d="M232 -13q-121 0 -188 95q-7 10 3 18l23 21q8 8 16 -2q54 -75 145 -75q69 0 112.5 42t43.5 109q0 72 -48.5 113t-116.5 41h-16q-14 0 -14 11v29q0 13 14 13h16q61 0 99 37t38 93q0 52 -34 86t-90 34q-80 0 -126 -74q-8 -10 -19 -2l-22 21q-6 6 0 17q26 41 70.5 67.5 t100.5 26.5q78 0 128 -48t50 -120q0 -109 -107 -162q62 -20 100 -69.5t38 -118.5q0 -87 -60.5 -145t-155.5 -58z" glyph-name="afii10025" horiz-adv-x="502" unicode="З"/><glyph d="M561 700q14 0 14 -14v-672q0 -14 -14 -14h-35q-14 0 -14 14v599l-340 -603q-6 -10 -18 -10h-51q-14 0 -14 14v672q0 14 14 14h35q13 0 13 -14v-601l341 605q6 10 18 10h51z" glyph-name="afii10026" horiz-adv-x="664" unicode="И"/><glyph d="M339 781q-56 0 -91.5 31.5t-40.5 81.5q-1 15 14 15h15q13 0 16 -14q6 -32 29 -51.5t58 -19.5t58.5 19.5t29.5 51.5q3 14 16 14h15q16 0 14 -15q-5 -50 -41 -81.5t-92 -31.5zM561 700q14 0 14 -14v-672q0 -14 -14 -14h-35q-14 0 -14 14v599l-340 -603q-6 -10 -18 -10h-51 q-14 0 -14 14v672q0 14 14 14h35q13 0 13 -14v-601l341 605q6 10 18 10h51z" glyph-name="afii10027" horiz-adv-x="664" unicode="Й"/><glyph d="M551 18q5 -8 2.5 -13t-11.5 -5h-41q-12 0 -18 9l-240 314l-92 -118v-191q0 -14 -13 -14h-35q-14 0 -14 14v672q0 14 14 14h35q13 0 13 -14v-395l302 401q7 8 18 8h44q10 0 12 -5t-4 -13l-241 -310z" glyph-name="afii10028" horiz-adv-x="603" unicode="К"/><glyph d="M584 700q14 0 14 -14v-672q0 -14 -14 -14h-35q-14 0 -14 14v627h-344v-476q0 -170 -150 -170q-16 0 -16 12v36q0 10 10 10q54 0 74 32t20 107v493q0 15 15 15h440z" glyph-name="afii10029" horiz-adv-x="686" unicode="Л"/><glyph d="M770 700q13 0 13 -14v-672q0 -14 -13 -14h-35q-14 0 -14 14v588l-16 -46l-232 -545q-4 -11 -17 -11h-40q-13 0 -17 11l-232 545l-16 46v-588q0 -14 -13 -14h-35q-14 0 -14 14v672q0 14 14 14h53q11 0 15 -10l265 -623l265 623q4 10 16 10h53z" glyph-name="afii10030" horiz-adv-x="872" unicode="М"/><glyph d="M544 700q14 0 14 -14v-672q0 -14 -14 -14h-35q-14 0 -14 14v306h-344v-306q0 -14 -13 -14h-35q-14 0 -14 14v672q0 14 14 14h35q13 0 13 -14v-310h344v310q0 14 14 14h35z" glyph-name="afii10031" horiz-adv-x="646" unicode="Н"/><glyph d="M426 -13q-151 0 -254 104t-103 256t103 256.5t254 104.5t254.5 -104.5t103.5 -256.5t-103.5 -256t-254.5 -104zM426 48q126 0 210.5 85.5t84.5 213.5q0 129 -84.5 214.5t-210.5 85.5t-210 -85.5t-84 -214.5q0 -128 84.5 -213.5t209.5 -85.5z" glyph-name="afii10032" horiz-adv-x="853" unicode="О"/><glyph d="M541 700q14 0 14 -14v-672q0 -14 -14 -14h-35q-13 0 -13 14v627h-342v-627q0 -14 -13 -14h-35q-14 0 -14 14v672q0 14 14 14h438z" glyph-name="afii10033" horiz-adv-x="644" unicode="П"/><glyph d="M103 0q-14 0 -14 14v672q0 14 14 14h187q109 0 168.5 -59.5t59.5 -156.5t-59.5 -156t-168.5 -59h-139v-255q0 -14 -13 -14h-35zM151 325h133q78 0 125 38.5t47 120.5q0 83 -47 121.5t-125 38.5h-133v-319z" glyph-name="afii10034" horiz-adv-x="576" unicode="Р"/><glyph d="M423 -13q-154 0 -254 103.5t-100 256.5t100 257t254 104q134 0 235 -88q13 -13 3 -24l-20 -23q-10 -10 -22 0q-87 74 -194 74q-126 0 -209.5 -85t-83.5 -215q0 -129 83.5 -214t209.5 -85q107 0 194 74q12 10 21 1l21 -24q11 -9 -3 -23q-100 -89 -235 -89z" glyph-name="afii10035" horiz-adv-x="730" unicode="С"/><glyph d="M248 0q-13 0 -13 14v630h-152q-14 0 -14 13v29q0 14 14 14h366q14 0 14 -14v-29q0 -13 -14 -13h-152v-630q0 -14 -14 -14h-35z" glyph-name="afii10036" horiz-adv-x="532" unicode="Т"/><glyph d="M576 700q9 0 11.5 -5t-2.5 -13l-404 -672q-6 -10 -17 -10h-37q-19 0 -9 18l170 283l-231 381q-5 8 -2.5 13t11.5 5h37q11 0 17 -10l202 -333l200 333q6 10 17 10h37z" glyph-name="afii10037" horiz-adv-x="641" unicode="У"/><glyph d="M774 350q0 -78 -32 -141t-105.5 -105.5t-178.5 -43.5v-46q0 -14 -14 -14h-35q-14 0 -14 14v46h-17q-160 0 -242 83.5t-82 206.5t82 206.5t242 83.5h17v46q0 14 14 14h35q14 0 14 -14v-46q105 -1 178.5 -43.5t105.5 -105.5t32 -141zM379 119h16v462h-16q-132 0 -197 -64 t-65 -167t65 -167t197 -64zM458 119q128 2 190.5 66t62.5 165t-62.5 165t-190.5 66v-462z" glyph-name="afii10038" horiz-adv-x="838" unicode="Ф"/><glyph d="M558 18q11 -18 -7 -18h-39q-11 0 -17 10l-182 293l-183 -293q-6 -10 -17 -10h-39q-18 0 -7 18l211 340l-201 324q-11 18 7 18h41q9 0 17 -10l171 -276l171 276q6 10 16 10h41q18 0 7 -18l-201 -323z" glyph-name="afii10039" horiz-adv-x="625" unicode="Х"/><glyph d="M590 59q14 0 14 -14v-100q0 -14 -14 -14h-35q-14 0 -14 14v55h-438q-14 0 -14 14v672q0 14 14 14h35q13 0 13 -14v-627h342v627q0 14 13 14h35q14 0 14 -14v-627h35z" glyph-name="afii10040" horiz-adv-x="636" unicode="Ц"/><glyph d="M494 700q15 0 15 -15v-670q0 -15 -15 -15h-33q-15 0 -15 15v284q-73 -102 -199 -101q-90 2 -144.5 57.5t-54.5 151.5v278q0 15 15 15h32q15 0 15 -15v-274q0 -72 43.5 -112t112.5 -40q72 0 126 41t54 111v274q0 15 15 15h33z" glyph-name="afii10041" horiz-adv-x="598" unicode="Ч"/><glyph d="M868 700q13 0 13 -14v-672q0 -14 -13 -14h-765q-14 0 -14 14v672q0 14 14 14h35q13 0 13 -14v-627h303v627q0 14 14 14h35q13 0 13 -14v-627h303v627q0 14 14 14h35z" glyph-name="afii10042" horiz-adv-x="970" unicode="Ш"/><glyph d="M917 59q14 0 14 -14v-100q0 -14 -14 -14h-35q-13 0 -13 14v55h-766q-14 0 -14 14v672q0 14 14 14h35q13 0 13 -14v-627h303v627q0 14 14 14h35q13 0 13 -14v-627h303v627q0 14 14 14h35q13 0 13 -14v-627h36z" glyph-name="afii10043" horiz-adv-x="964" unicode="Щ"/><glyph d="M348 432q108 0 167.5 -59.5t59.5 -156.5t-59.5 -156.5t-167.5 -59.5h-188q-14 0 -14 14v630h-105q-13 0 -13 13v29q0 14 13 14h154q14 0 14 -14v-254h139zM341 57q78 0 125.5 38.5t47.5 120.5t-47.5 120.5t-125.5 38.5h-132v-318h132z" glyph-name="afii10044" horiz-adv-x="629" unicode="Ъ"/><glyph d="M103 700h35q13 0 13 -14v-254h139q109 0 168.5 -59.5t59.5 -156.5t-59.5 -156.5t-168.5 -59.5h-187q-14 0 -14 14v672q0 14 14 14zM608 0q-14 0 -14 14v672q0 14 14 14h35q13 0 13 -14v-672q0 -14 -13 -14h-35zM151 375v-318h133q78 0 125 38.5t47 120.5t-47 120.5 t-125 38.5h-133z" glyph-name="afii10045" horiz-adv-x="745" unicode="Ы"/><glyph d="M103 700h35q13 0 13 -14v-254h139q109 0 168.5 -59.5t59.5 -156.5t-59.5 -156.5t-168.5 -59.5h-187q-14 0 -14 14v672q0 14 14 14zM151 375v-318h133q78 0 125 38.5t47 120.5t-47 120.5t-125 38.5h-133z" glyph-name="afii10046" horiz-adv-x="576" unicode="Ь"/><glyph d="M313 708q153 0 253 -104t100 -257t-99.5 -256.5t-253.5 -103.5q-135 0 -235 89q-14 14 -4 23l22 24q9 9 21 -1q85 -74 193 -74q119 0 201 77t91 196h-266q-13 0 -13 13v32q0 14 13 14h265q-11 117 -92 192t-199 75q-108 0 -193 -74q-13 -9 -23 0l-20 23q-9 11 4 24 q101 88 235 88z" glyph-name="afii10047" horiz-adv-x="730" unicode="Э"/><glyph d="M605 708q151 0 254 -104.5t103 -256.5t-103 -256t-254 -104q-144 0 -245.5 96t-111.5 238h-97v-307q0 -14 -13 -14h-35q-14 0 -14 14v672q0 14 14 14h35q13 0 13 -14v-306h97q12 141 113 234.5t244 93.5zM605 48q126 0 210 85.5t84 213.5q0 129 -84 214.5t-210 85.5 t-210 -85.5t-84 -214.5q0 -128 84 -213.5t210 -85.5z" glyph-name="afii10048" horiz-adv-x="1031" unicode="Ю"/><glyph d="M473 700q13 0 13 -14v-672q0 -14 -13 -14h-35q-14 0 -14 14v255h-123l-174 -259q-6 -10 -18 -10h-37q-21 0 -10 18l173 255q-85 13 -131 70t-46 141q0 97 59 156.5t168 59.5h188zM424 325v319h-133q-78 0 -125 -38.5t-47 -121.5q0 -82 47 -120.5t125 -38.5h133z" glyph-name="afii10049" horiz-adv-x="575" unicode="Я"/><glyph d="M537 490q13 0 13 -14v-462q0 -14 -13 -14h-32q-13 0 -13 14l-1 86q-60 -112 -194 -112q-107 0 -175 73t-68 184t68 184t175 73q134 0 194 -114l1 88q0 14 13 14h32zM304 45q83 0 135 54.5t52 143.5q0 90 -52 146t-135 56q-84 0 -138 -55.5t-54 -144.5t53.5 -144.5 t138.5 -55.5z" glyph-name="afii10065" unicode="а"/><glyph d="M332 502q107 0 175 -73t68 -184t-68 -184t-175 -73q-134 0 -194 111l-2 -85q0 -14 -12 -14h-33q-12 0 -12 14v530q0 78 37 117t121 39h185q19 0 26 4.5t11 15.5h48v-14q0 -59 -73 -59h-190q-56 0 -80.5 -25.5t-24.5 -83.5l-1 -149q61 113 194 113zM325 45 q84 0 137.5 55.5t53.5 144.5t-53.5 144.5t-137.5 55.5q-83 0 -135 -56t-52 -146q0 -89 52 -143.5t135 -54.5z" glyph-name="afii10066" unicode="б"/><glyph d="M354 268q51 -10 79 -43.5t28 -83.5q0 -60 -43 -100.5t-136 -40.5h-191q-12 0 -12 14v462q0 14 12 14h196q67 0 103 -32.5t36 -83.5q0 -39 -20 -67.5t-52 -38.5zM370 366q0 72 -87 72h-144v-150h144q44 0 65.5 21.5t21.5 56.5zM273 53q132 0 132 91q0 98 -145 98h-121 v-189h134z" glyph-name="afii10067" horiz-adv-x="515" unicode="в"/><glyph d="M359 490q15 0 15 -15v-22q0 -15 -15 -15h-220v-423q0 -15 -15 -15h-30q-15 0 -15 15v460q0 15 15 15h265z" glyph-name="afii10068" horiz-adv-x="415" unicode="г"/><glyph d="M594 53q14 0 14 -14v-97q0 -14 -14 -14h-33q-13 0 -13 14v58h-448v-58q0 -14 -14 -14h-32q-14 0 -14 14v98q0 12 13 12h10q50 0 70 32.5t20 91.5v298q0 15 15 15h377q13 0 13 -14v-422h36zM213 437v-269q0 -71 -28 -115h313v384h-285z" glyph-name="afii10069" horiz-adv-x="640" unicode="д"/><glyph d="M527 271q0 -27 -6.5 -37t-26.5 -10h-381q6 -80 59 -132t145 -52q80 0 146 50q8 8 14 0l14 -18q7 -10 -4 -21q-66 -63 -175 -63q-117 0 -187.5 74.5t-70.5 184.5q0 109 68.5 182t176.5 73q104 0 166 -68.5t62 -162.5zM298 448q-78 0 -128 -48t-57 -127h360 q-2 77 -49.5 126t-125.5 49z" glyph-name="afii10070" horiz-adv-x="581" unicode="е"/><glyph d="M795 18q7 -7 4.5 -12.5t-12.5 -5.5h-40q-11 0 -18 8l-208 221l-70 -71v-144q0 -14 -12 -14h-35q-13 0 -13 14v132l-82 83l-208 -221q-7 -8 -18 -8h-40q-10 0 -12.5 5.5t4.5 12.5l234 252l-198 202q-7 8 -5 13t12 5h42q11 0 19 -8l252 -260v254q0 14 13 14h35q12 0 12 -14 v-241l240 247q9 8 19 8h43q10 0 12 -5t-6 -13l-198 -202z" glyph-name="afii10072" horiz-adv-x="830" unicode="ж"/><glyph d="M260 265q46 -18 72 -52t26 -78q0 -61 -46 -103.5t-119 -42.5q-91 0 -144 66q-12 15 -2 23l17 18q9 10 23 -6q41 -45 105 -45q49 0 78 26t29 67q0 45 -37.5 72t-95.5 27q-11 0 -11 11v27q0 11 11 11q49 0 81.5 22.5t32.5 61.5q0 35 -26 56.5t-66 21.5q-51 0 -94 -43 q-16 -14 -24 0l-12 15q-8 9 4 23q50 59 134 59q64 0 103 -37.5t39 -87.5q0 -71 -78 -112z" glyph-name="afii10073" horiz-adv-x="412" unicode="з"/><glyph d="M483 490q12 0 12 -14v-462q0 -14 -13 -14h-34q-13 0 -13 14v403l-269 -407q-7 -10 -19 -10h-56q-12 0 -12 14v462q0 14 12 14h35q13 0 13 -14v-412l275 416q7 10 19 10h50z" glyph-name="afii10074" horiz-adv-x="574" unicode="и"/><glyph d="M287 572q-56 0 -91.5 31.5t-40.5 81.5q-1 15 14 15h15q13 0 16 -14q6 -32 29 -51.5t58 -19.5t58.5 19.5t29.5 51.5q3 14 16 14h15q16 0 14 -15q-5 -50 -41 -81.5t-92 -31.5zM483 490q12 0 12 -14v-462q0 -14 -13 -14h-34q-13 0 -13 14v403l-269 -407q-7 -10 -19 -10h-56 q-12 0 -12 14v462q0 14 12 14h35q13 0 13 -14v-412l275 416q7 10 19 10h50z" glyph-name="afii10075" horiz-adv-x="574" unicode="й"/><glyph d="M482 18q7 -7 5 -12.5t-12 -5.5h-41q-11 0 -18 8l-207 221l-70 -71v-144q0 -14 -13 -14h-35q-12 0 -12 14v462q0 14 12 14h35q13 0 13 -14v-241l240 247q8 8 19 8h42q10 0 12 -5t-5 -13l-199 -203z" glyph-name="afii10076" horiz-adv-x="518" unicode="к"/><glyph d="M469 490q12 0 12 -14v-462q0 -14 -12 -14h-35q-13 0 -13 14v424h-285v-271q0 -172 -149 -172q-11 0 -11 8v38q0 9 10 9q50 0 70 32.5t20 92.5v300q0 15 15 15h378z" glyph-name="afii10077" horiz-adv-x="560" unicode="л"/><glyph d="M633 490q12 0 12 -14v-462q0 -14 -13 -14h-34q-13 0 -13 14v378l-186 -381q-5 -11 -17 -11h-40q-12 0 -17 11l-186 381v-378q0 -14 -13 -14h-35q-12 0 -12 14v462q0 14 12 14h50q12 0 17 -11l204 -418l204 418q6 11 17 11h50z" glyph-name="afii10078" horiz-adv-x="724" unicode="м"/><glyph d="M490 490q13 0 13 -14v-462q0 -14 -13 -14h-35q-12 0 -12 14v194h-304v-194q0 -14 -13 -14h-35q-12 0 -12 14v462q0 14 12 14h35q13 0 13 -14v-214h304v214q0 14 12 14h35z" glyph-name="afii10079" horiz-adv-x="581" unicode="н"/><glyph d="M304 -12q-107 0 -178.5 74t-71.5 183t71.5 183t178.5 74q106 0 177.5 -73.5t71.5 -183.5t-71.5 -183.5t-177.5 -73.5zM304 45q82 0 136.5 56.5t54.5 143.5t-54.5 144t-136.5 57q-83 0 -137 -56.5t-54 -144.5q0 -87 54 -143.5t137 -56.5z" glyph-name="afii10080" horiz-adv-x="607" unicode="о"/><glyph d="M501 490q13 0 13 -14v-462q0 -14 -13 -14h-34q-13 0 -13 14v423h-315v-423q0 -14 -13 -14h-35q-12 0 -12 14v462q0 14 12 14h410z" glyph-name="afii10081" horiz-adv-x="593" unicode="п"/><glyph d="M332 502q107 0 175 -73t68 -184t-68 -184t-175 -73q-132 0 -193 108v-272q0 -14 -13 -14h-35q-12 0 -12 14v652q0 14 12 14h33q12 0 12 -14l2 -88q60 114 194 114zM325 45q84 0 137.5 55.5t53.5 144.5t-53.5 144.5t-137.5 55.5q-83 0 -135 -56t-52 -146q0 -89 52 -143.5 t135 -54.5z" glyph-name="afii10082" unicode="р"/><glyph d="M308 -12q-108 0 -181 73.5t-73 183.5t73 183.5t182 73.5q115 0 182 -80q9 -13 2 -20l-19 -18q-11 -12 -22 1q-57 61 -141 61q-85 0 -141.5 -56t-56.5 -145q0 -88 56.5 -144t142.5 -56q85 0 139 59q13 14 24 3l19 -19q7 -7 -2 -19q-67 -81 -184 -81z" glyph-name="afii10083" horiz-adv-x="551" unicode="с"/><glyph d="M387 490q15 0 15 -15v-23q0 -15 -15 -15h-133v-422q0 -15 -15 -15h-30q-15 0 -15 15v422h-133q-15 0 -15 15v23q0 15 15 15h326z" glyph-name="afii10084" horiz-adv-x="449" unicode="т"/><glyph d="M180 -190q-15 0 -10 14l69 174l-188 475q-6 17 11 17h34q12 0 16 -12l158 -412l158 412q4 12 15 12h35q17 0 11 -17l-258 -651q-5 -12 -17 -12h-34z" glyph-name="afii10085" horiz-adv-x="540" unicode="у"/><glyph d="M700 499q100 0 164.5 -73t64.5 -182t-64.5 -182.5t-164.5 -73.5q-119 0 -179 105v-269q0 -14 -13 -14h-33q-14 0 -14 14v268q-59 -104 -178 -104q-100 0 -164.5 73.5t-64.5 182.5t64.5 182t164.5 73q119 0 178 -103v268q0 14 14 14h33q13 0 13 -14v-269q59 104 179 104z M285 42q76 0 126 58.5t50 142.5t-50 143t-126 59q-75 0 -124.5 -58t-49.5 -144t49.5 -143.5t124.5 -57.5zM697 42q75 0 124.5 57t49.5 144t-49.5 144.5t-124.5 57.5t-125.5 -59t-50.5 -143t50 -142.5t126 -58.5z" glyph-name="afii10086" horiz-adv-x="983" unicode="ф"/><glyph d="M59 0q-8 0 -10 5t3 12l154 233l-147 223q-10 17 8 17h38q11 0 17 -10l120 -188l120 188q6 10 17 10h39q17 0 7 -17l-147 -223l154 -233q12 -17 -7 -17h-39q-11 0 -17 10l-127 199l-127 -199q-6 -10 -17 -10h-39z" glyph-name="afii10087" horiz-adv-x="484" unicode="х"/><glyph d="M540 53q14 0 14 -14v-97q0 -14 -14 -14h-29q-14 0 -14 14v58h-406q-12 0 -12 14v462q0 14 12 14h35q13 0 13 -14v-423h315v423q0 14 13 14h34q13 0 13 -14v-423h26z" glyph-name="afii10088" horiz-adv-x="586" unicode="ц"/><glyph d="M445 490q13 0 13 -14v-462q0 -14 -13 -14h-35q-12 0 -12 14v179q-23 -36 -66 -57.5t-96 -21.5q-33 0 -63 9.5t-58 30t-44.5 59.5t-16.5 92v171q0 14 12 14h35q13 0 13 -14v-164q0 -72 35.5 -106.5t97.5 -34.5q63 0 107 35.5t44 105.5v164q0 14 12 14h35z" glyph-name="afii10089" horiz-adv-x="536" unicode="ч"/><glyph d="M608 490q12 0 12 -14v-462q0 -14 -12 -14h-517q-12 0 -12 14v462q0 14 12 14h35q13 0 13 -14v-423h181v423q0 14 12 14h35q12 0 12 -14v-423h181v423q0 14 13 14h35z" glyph-name="afii10090" horiz-adv-x="699" unicode="ш"/><glyph d="M634 53q14 0 14 -14v-97q0 -14 -14 -14h-33q-14 0 -14 14v58h-496q-12 0 -12 14v462q0 14 12 14h35q13 0 13 -14v-423h181v423q0 14 12 14h35q12 0 12 -14v-423h181v423q0 14 13 14h35q12 0 12 -14v-423h14z" glyph-name="afii10091" horiz-adv-x="680" unicode="щ"/><glyph d="M340 317q87 0 130.5 -41.5t43.5 -117.5q0 -75 -43.5 -116.5t-130.5 -41.5h-235q-12 0 -12 14v424h-50q-14 0 -14 13v25q0 14 14 14h97q12 0 12 -14v-159h188zM339 52q116 0 116 106t-116 106h-187v-212h187z" glyph-name="afii10092" horiz-adv-x="568" unicode="ъ"/><glyph d="M326 317q87 0 130.5 -41.5t43.5 -117.5q0 -75 -43.5 -116.5t-130.5 -41.5h-235q-12 0 -12 14v462q0 14 12 14h35q13 0 13 -14v-159h187zM623 490q12 0 12 -14v-462q0 -14 -12 -14h-35q-13 0 -13 14v462q0 14 13 14h35zM325 52q116 0 116 106t-116 106h-186v-212h186z" glyph-name="afii10093" horiz-adv-x="714" unicode="ы"/><glyph d="M326 317q87 0 130.5 -41.5t43.5 -117.5q0 -75 -43.5 -116.5t-130.5 -41.5h-235q-12 0 -12 14v462q0 14 12 14h35q13 0 13 -14v-159h187zM325 52q116 0 116 106t-116 106h-186v-212h186z" glyph-name="afii10094" horiz-adv-x="554" unicode="ь"/><glyph d="M243 502q108 0 181.5 -73.5t73.5 -183.5t-73 -183.5t-181 -73.5q-118 0 -185 81q-9 11 -1 19l19 19q10 10 23 -3q55 -59 140 -59q79 0 134.5 48.5t63.5 126.5h-198q-12 0 -12 14v20q0 14 12 14h198q-7 79 -62.5 128.5t-134.5 49.5q-84 0 -141 -61q-12 -12 -22 -1l-19 18 q-7 7 1 20q67 80 183 80z" glyph-name="afii10095" horiz-adv-x="551" unicode="э"/><glyph d="M472 502q106 0 177.5 -73.5t71.5 -183.5t-71.5 -183.5t-177.5 -73.5q-99 0 -169.5 65.5t-79.5 165.5h-84v-206q0 -14 -13 -14h-35q-12 0 -12 14v462q0 14 12 14h35q13 0 13 -14v-205h84q9 100 79 166t170 66zM472 45q82 0 136.5 56.5t54.5 143.5t-54.5 144t-136.5 57 q-83 0 -137 -56.5t-54 -144.5q0 -87 54 -143.5t137 -56.5z" glyph-name="afii10096" horiz-adv-x="775" unicode="ю"/><glyph d="M462 490q12 0 12 -14v-462q0 -14 -12 -14h-35q-13 0 -13 14v160h-134l-147 -166q-7 -8 -17 -8h-39q-10 0 -12 5t5 13l142 156q-159 7 -159 158q0 76 43.5 117t130.5 41h235zM228 226h186v212h-186q-116 0 -116 -106t116 -106z" glyph-name="afii10097" horiz-adv-x="553" unicode="я"/><glyph d="M212 661q-16 0 -27 11t-11 26t11 26t27 11t27 -11t11 -26t-11 -26t-27 -11zM386 661q-15 0 -26.5 11t-11.5 26t11.5 26t26.5 11q16 0 27 -11t11 -26t-11 -26t-27 -11zM527 271q0 -27 -6.5 -37t-26.5 -10h-381q6 -80 59 -132t145 -52q80 0 146 50q8 8 14 0l14 -18 q7 -10 -4 -21q-66 -63 -175 -63q-117 0 -187.5 74.5t-70.5 184.5q0 109 68.5 182t176.5 73q104 0 166 -68.5t62 -162.5zM298 448q-78 0 -128 -48t-57 -127h360q-2 77 -49.5 126t-125.5 49z" glyph-name="afii10071" horiz-adv-x="581" unicode="ё"/><glyph d="M210 557q-15 0 -8 16l53 115q5 12 16 12h35q15 0 8 -16l-54 -115q-4 -12 -15 -12h-35zM359 490q15 0 15 -15v-22q0 -15 -15 -15h-220v-423q0 -15 -15 -15h-30q-15 0 -15 15v460q0 15 15 15h265z" glyph-name="afii10100" horiz-adv-x="415" unicode="ѓ"/><glyph d="M494 88q7 -7 -2 -19q-67 -81 -184 -81q-108 0 -181 73.5t-73 183.5t73 183.5t182 73.5q115 0 182 -80q9 -13 2 -20l-19 -18q-11 -12 -22 1q-57 61 -141 61q-80 0 -135 -49.5t-62 -128.5h197q13 0 13 -14v-20q0 -14 -13 -14h-197q8 -78 63 -126.5t135 -48.5q85 0 139 59 q13 14 24 3z" glyph-name="afii10101" horiz-adv-x="551" unicode="є"/><glyph d="M109 624q-17 0 -28.5 12t-11.5 28t11.5 28t28.5 12q16 0 27.5 -11.5t11.5 -28.5t-11.5 -28.5t-27.5 -11.5zM91 0q-12 0 -12 14v462q0 14 12 14h35q12 0 12 -14v-462q0 -14 -12 -14h-35z" glyph-name="afii10103" horiz-adv-x="217" unicode="і"/><glyph d="M5 631q-16 0 -27 11t-11 26t11 26t27 11t27 -11t11 -26t-11 -26t-27 -11zM179 631q-15 0 -26.5 11t-11.5 26t11.5 26t26.5 11q16 0 27 -11t11 -26t-11 -26t-27 -11zM74 0q-13 0 -13 14v462q0 14 13 14h35q12 0 12 -14v-462q0 -14 -12 -14h-35z" glyph-name="afii10104" horiz-adv-x="182" unicode="ї"/><glyph d="M259 557q-15 0 -8 16l53 115q5 12 16 12h35q15 0 8 -16l-54 -115q-4 -12 -15 -12h-35zM482 18q7 -7 5 -12.5t-12 -5.5h-41q-11 0 -18 8l-207 221l-70 -71v-144q0 -14 -13 -14h-35q-12 0 -12 14v462q0 14 12 14h35q13 0 13 -14v-241l240 247q8 8 19 8h42q10 0 12 -5 t-5 -13l-199 -203z" glyph-name="afii10109" horiz-adv-x="518" unicode="ќ"/><glyph d="M348 686q3 14 16 14h15q15 0 14 -15q-5 -50 -41 -81.5t-92 -31.5t-91.5 31.5t-40.5 81.5q-2 15 14 15h15q13 0 16 -14q6 -32 29 -51.5t58 -19.5t58.5 19.5t29.5 51.5zM180 -190q-15 0 -10 14l69 174l-188 475q-6 17 11 17h34q12 0 16 -12l158 -412l158 412q4 12 15 12h35 q17 0 11 -17l-258 -651q-5 -12 -17 -12h-34z" glyph-name="afii10110" horiz-adv-x="540" unicode="ў"/><glyph d="M426 751q15 0 15 -15v-80h-1q0 -15 -15 -15h-274v-627q0 -14 -13 -14h-35q-14 0 -14 14v672q0 14 14 14h279v36q0 15 15 15h29z" glyph-name="afii10050" horiz-adv-x="494" unicode="Ґ"/><glyph d="M361 490q13 -2 13 -15v-22q0 -15 -15 -15h-220v-423q0 -15 -15 -15h-30q-15 0 -15 15v460q0 15 15 15h207v47q0 15 15 15h30q15 0 15 -15v-47z" glyph-name="afii10098" horiz-adv-x="415" unicode="ґ"/><glyph d="M506 779l-54 115q-7 16 8 16h36q11 0 15 -12l53 -115q7 -16 -8 -16h-34q-11 0 -16 12zM1014 700q17 0 12 -17l-208 -671q-5 -12 -17 -12h-43q-13 0 -17 12l-200 610l-201 -610q-4 -12 -16 -12h-44q-12 0 -16 12l-209 671q-5 17 12 17h34q13 0 17 -12l185 -605l201 605 q4 12 16 12h42q11 0 15 -12l201 -605l185 605q5 12 17 12h34z" glyph-name="Wgrave" horiz-adv-x="1081" unicode="Ẁ"/><glyph d="M352 700h36q11 0 15 -12l53 -115q7 -16 -8 -16h-34q-11 0 -16 12l-54 115q-7 16 8 16zM231 0q-13 0 -18 12l-162 461q-6 17 11 17h34q12 0 16 -12l140 -413l144 413q4 12 18 12h40q14 0 18 -12l144 -413l140 413q4 12 15 12h35q17 0 11 -17l-162 -461q-5 -12 -18 -12h-40 q-13 0 -18 12l-145 413l-145 -413q-5 -12 -18 -12h-40z" glyph-name="wgrave" horiz-adv-x="868" unicode="ẁ"/><glyph d="M528 767q-15 0 -8 16l53 115q5 12 16 12h35q15 0 8 -16l-54 -115q-4 -12 -15 -12h-35zM1014 700q17 0 12 -17l-208 -671q-5 -12 -17 -12h-43q-13 0 -17 12l-200 610l-201 -610q-4 -12 -16 -12h-44q-12 0 -16 12l-209 671q-5 17 12 17h34q13 0 17 -12l185 -605l201 605 q4 12 16 12h42q11 0 15 -12l201 -605l185 605q5 12 17 12h34z" glyph-name="Wacute" horiz-adv-x="1081" unicode="Ẃ"/><glyph d="M517 700q15 0 8 -16l-54 -115q-4 -12 -15 -12h-35q-15 0 -8 16l53 115q5 12 16 12h35zM231 0q-13 0 -18 12l-162 461q-6 17 11 17h34q12 0 16 -12l140 -413l144 413q4 12 18 12h40q14 0 18 -12l144 -413l140 413q4 12 15 12h35q17 0 11 -17l-162 -461q-5 -12 -18 -12h-40 q-13 0 -18 12l-145 413l-145 -413q-5 -12 -18 -12h-40z" glyph-name="wacute" horiz-adv-x="868" unicode="ẃ"/><glyph d="M455 841q-16 0 -27 11t-11 26t11 26t27 11t27 -11t11 -26t-11 -26t-27 -11zM629 841q-15 0 -26.5 11t-11.5 26t11.5 26t26.5 11q16 0 27 -11t11 -26t-11 -26t-27 -11zM1014 700q17 0 12 -17l-208 -671q-5 -12 -17 -12h-43q-13 0 -17 12l-200 610l-201 -610 q-4 -12 -16 -12h-44q-12 0 -16 12l-209 671q-5 17 12 17h34q13 0 17 -12l185 -605l201 605q4 12 16 12h42q11 0 15 -12l201 -605l185 605q5 12 17 12h34z" glyph-name="Wdieresis" horiz-adv-x="1081" unicode="Ẅ"/><glyph d="M347 631q-16 0 -27 11t-11 26t11 26t27 11t27 -11t11 -26t-11 -26t-27 -11zM521 631q-15 0 -26.5 11t-11.5 26t11.5 26t26.5 11q16 0 27 -11t11 -26t-11 -26t-27 -11zM231 0q-13 0 -18 12l-162 461q-6 17 11 17h34q12 0 16 -12l140 -413l144 413q4 12 18 12h40 q14 0 18 -12l144 -413l140 413q4 12 15 12h35q17 0 11 -17l-162 -461q-5 -12 -18 -12h-40q-13 0 -18 12l-145 413l-145 -413q-5 -12 -18 -12h-40z" glyph-name="wdieresis" horiz-adv-x="868" unicode="ẅ"/><glyph d="M439 320q57 -32 89 -70.5t32 -97.5q0 -74 -51.5 -119t-126.5 -45q-97 0 -157 75q-11 11 -2 22l15 18q10 13 22 -1q53 -56 121 -56q52 0 84.5 28.5t32.5 76.5q0 72 -87 120l-57 31q-54 30 -82 61.5t-28 84.5q0 67 46 103t117 36h6q-32 56 -120 56q-142 0 -142 -139v-490 q0 -14 -12 -14h-38q-12 0 -12 14v504q0 87 55.5 134.5t145.5 47.5q132 0 174 -92v-74h-55q-44 0 -74 -20t-30 -65q0 -35 21 -56.5t68 -47.5z" glyph-name="uni1E9E" horiz-adv-x="614" unicode="ẞ"/><glyph d="M260 779l-54 115q-7 16 8 16h36q11 0 15 -12l53 -115q7 -16 -8 -16h-34q-11 0 -16 12zM526 700q19 0 8 -18l-207 -344v-324q0 -14 -14 -14h-35q-14 0 -14 14v324l-207 344q-5 8 -2.5 13t11.5 5h40q10 0 16 -10l174 -292l173 292q6 10 17 10h40z" glyph-name="Ygrave" horiz-adv-x="591" unicode="Ỳ"/><glyph d="M188 700h36q11 0 15 -12l53 -115q7 -16 -8 -16h-34q-11 0 -16 12l-54 115q-7 16 8 16zM180 -190q-15 0 -10 14l69 174l-188 475q-6 17 11 17h34q12 0 16 -12l158 -412l158 412q4 12 15 12h35q17 0 11 -17l-258 -651q-5 -12 -17 -12h-34z" glyph-name="ygrave" horiz-adv-x="540" unicode="ỳ"/><glyph d="M554 311q12 0 12 -13v-28q0 -13 -12 -13h-485q-13 0 -13 13v28q0 13 13 13h485z" glyph-name="endash" horiz-adv-x="623" unicode="–"/><glyph d="M614 311q12 0 12 -13v-28q0 -13 -12 -13h-545q-13 0 -13 13v28q0 13 13 13h545z" glyph-name="emdash" horiz-adv-x="683" unicode="—"/><glyph d="M151 715v-26q-43 -1 -61 -40q-14 -29 0 -40q3 -2 8 -2q23 1 37 -12t14 -34t-15 -35t-36 -14q-26 0 -44 22.5t-18 57.5q0 48 31 85.5t84 37.5z" glyph-name="quoteleft" horiz-adv-x="186" unicode="‘"/><glyph d="M36 515v26q43 1 61 42q14 29 -1 39q-3 2 -7 2q-23 -1 -37 11.5t-14 34.5q0 21 14.5 34.5t35.5 13.5q27 0 44.5 -22t17.5 -58q0 -48 -31 -85.5t-83 -37.5z" glyph-name="quoteright" horiz-adv-x="186" unicode="’"/><glyph d="M46 -124v26q43 1 61 40q13 29 0 40q-3 2 -8 2q-23 -1 -37 12t-14 34t14.5 35t35.5 14q27 0 44.5 -22.5t17.5 -57.5q0 -48 -31 -85.5t-83 -37.5z" glyph-name="quotesinglbase" horiz-adv-x="206" unicode="‚"/><glyph d="M151 715v-26q-43 -1 -61 -40q-14 -29 0 -40q3 -2 8 -2q23 1 37 -12t14 -34t-15 -35t-36 -14q-26 0 -44 22.5t-18 57.5q0 48 31 85.5t84 37.5zM291 715v-26q-43 -1 -61 -40q-14 -29 0 -40q3 -2 8 -2q23 1 37 -12t14 -34t-15 -35t-36 -14q-26 0 -44 22.5t-18 57.5 q0 48 31 85.5t84 37.5z" glyph-name="quotedblleft" horiz-adv-x="326" unicode="“"/><glyph d="M36 515v26q43 1 61 42q14 29 -1 39q-3 2 -7 2q-23 -1 -37 11.5t-14 34.5q0 21 14.5 34.5t35.5 13.5q27 0 44.5 -22t17.5 -58q0 -48 -31 -85.5t-83 -37.5zM176 515v26q43 1 61 42q14 29 -1 39q-3 2 -7 2q-23 -1 -37 11.5t-14 34.5q0 21 14.5 34.5t35.5 13.5q27 0 44.5 -22 t17.5 -58q0 -48 -31 -85.5t-83 -37.5z" glyph-name="quotedblright" horiz-adv-x="326" unicode="”"/><glyph d="M46 -124v26q43 1 61 40q13 29 0 40q-3 2 -8 2q-23 -1 -37 12t-14 34t14.5 35t35.5 14q27 0 44.5 -22.5t17.5 -57.5q0 -48 -31 -85.5t-83 -37.5zM186 -124v26q43 1 61 40q13 29 0 40q-3 2 -8 2q-23 -1 -37 12t-14 34t14.5 35t35.5 14q27 0 44.5 -22.5t17.5 -57.5 q0 -48 -31 -85.5t-83 -37.5z" glyph-name="quotedblbase" horiz-adv-x="346" unicode="„"/><glyph d="M342 583q14 0 14 -14v-27q0 -14 -14 -14h-103v-105q0 -14 -14 -14h-28q-13 0 -13 14v105h-105q-14 0 -14 14v27q0 14 14 14h105v103q0 14 13 14h28q14 0 14 -14v-103h103z" glyph-name="dagger" horiz-adv-x="421" unicode="†"/><glyph d="M342 583q14 0 14 -14v-27q0 -14 -14 -14h-103v-105q0 -14 -14 -14h-28q-13 0 -13 14v105h-105q-14 0 -14 14v27q0 14 14 14h105v103q0 14 13 14h28q14 0 14 -14v-103h103zM342 246q14 0 14 -14v-27q0 -14 -14 -14h-103v-105q0 -13 -14 -13h-28q-13 0 -13 13v105h-105 q-14 0 -14 14v27q0 14 14 14h105v104q0 13 13 13h28q14 0 14 -13v-104h103z" glyph-name="daggerdbl" horiz-adv-x="421" unicode="‡"/><glyph d="M126 215q-25 0 -43 17.5t-18 42.5t18 42.5t43 17.5t42.5 -17.5t17.5 -42.5t-17.5 -42.5t-42.5 -17.5z" glyph-name="bullet" horiz-adv-x="251" unicode="•"/><glyph d="M92 -13q-19 0 -32.5 13.5t-13.5 32.5t13.5 32.5t32.5 13.5t32.5 -13.5t13.5 -32.5t-13.5 -32.5t-32.5 -13.5zM257 -13q-19 0 -32.5 13.5t-13.5 32.5t13.5 32.5t32.5 13.5t32.5 -13.5t13.5 -32.5t-13.5 -32.5t-32.5 -13.5zM422 -13q-19 0 -32.5 13.5t-13.5 32.5t13.5 32.5 t32.5 13.5t32.5 -13.5t13.5 -32.5t-13.5 -32.5t-32.5 -13.5z" glyph-name="ellipsis" horiz-adv-x="514" unicode="…"/><glyph d="M187 434q-56 0 -96.5 39.5t-40.5 95.5q0 57 40.5 96.5t96.5 39.5q57 0 97 -39.5t40 -96.5t-40 -96t-97 -39zM144 3l-18 13q-10 7 -3 18l443 658q8 13 18 5l18 -13q10 -7 3 -18l-443 -658q-8 -13 -18 -5zM187 479q39 0 65 25.5t26 64.5q0 40 -26 66t-65 26t-64.5 -26 t-25.5 -66q0 -39 25.5 -64.5t64.5 -25.5zM541 -5q-56 0 -96.5 39.5t-40.5 95.5q0 57 40.5 96.5t96.5 39.5q57 0 97 -39.5t40 -96.5t-40 -96t-97 -39zM851 -5q-57 0 -97 39t-40 96t40 96.5t97 39.5q56 0 96.5 -39.5t40.5 -96.5q0 -56 -40.5 -95.5t-96.5 -39.5zM541 40 q39 0 65 25.5t26 64.5q0 40 -26 65.5t-65 25.5t-64.5 -25.5t-25.5 -65.5q0 -39 25.5 -64.5t64.5 -25.5zM851 40q38 0 64 25.5t26 64.5q0 40 -26 65.5t-64 25.5q-39 0 -65 -25.5t-26 -65.5q0 -39 26 -64.5t65 -25.5z" glyph-name="perthousand" horiz-adv-x="1038" unicode="‰"/><glyph d="M178 165q0 -6 -4.5 -8t-8.5 1l-106 86q-8 7 -8 16v42q0 8 8 15l106 86q4 4 8.5 1.5t4.5 -8.5v-34q0 -8 -8 -15l-83 -66l83 -67q8 -7 8 -15v-34z" glyph-name="guilsinglleft" horiz-adv-x="229" unicode="‹"/><glyph d="M51 165v34q0 8 8 15l83 67l-83 66q-8 7 -8 15v34q0 6 4.5 8.5t8.5 -1.5l106 -86q8 -7 8 -15v-42q0 -9 -8 -16l-106 -86q-4 -3 -8.5 -1t-4.5 8z" glyph-name="guilsinglright" horiz-adv-x="229" unicode="›"/><glyph d="M307 700l-429 -700h-38l429 700h38z" glyph-name="fraction" horiz-adv-x="147" unicode="⁄"/><glyph d="M696 99q11 -9 -3 -23q-100 -89 -235 -89q-134 0 -228.5 80t-118.5 205h-57q-14 0 -14 13v21q0 13 14 13h51q-1 9 -1 28q0 14 1 21h-51q-14 0 -14 13v22q0 12 14 12h56q22 128 117 210.5t231 82.5q134 0 235 -88q13 -13 3 -24l-20 -23q-10 -10 -22 0q-87 74 -194 74 q-108 0 -186.5 -64.5t-99.5 -167.5h166q13 0 13 -12v-22q0 -13 -13 -13h-172q-1 -7 -1 -21q0 -19 1 -28h172q13 0 13 -13v-21q0 -13 -13 -13h-165q23 -101 101 -162.5t184 -61.5q107 0 194 74q12 10 21 1z" glyph-name="Euro" horiz-adv-x="765" unicode="€"/><glyph d="M141 520q-5 0 -5 5v148h-66q-5 0 -5 5v17q0 5 5 5h161q5 0 5 -5v-17q0 -5 -5 -5h-66v-148q0 -5 -5 -5h-19zM274 520q-5 0 -5 5v170q0 5 5 5h23q4 0 6 -4l70 -142l71 142q2 4 6 4h24q5 0 5 -5v-170q0 -5 -5 -5h-20q-5 0 -5 5v121l-60 -122q-2 -4 -6 -4h-18q-4 0 -6 4 l-61 122v-121q0 -5 -5 -5h-19z" glyph-name="trademark" horiz-adv-x="544" unicode="™"/><glyph d="M101 701v-261h-32v231h-29v30h61zM513 700l-429 -700h-38l429 700h38zM479 263q39 0 59.5 -19t20.5 -48q0 -37 -40 -57q51 -16 51 -67q0 -34 -24 -55t-65 -21q-44 0 -66 23.5t-22 57.5h31q0 -23 14.5 -38t42.5 -15q25 0 41 12.5t16 35.5q0 29 -20 40t-57 11v25 q33 0 50 13t17 35q0 38 -49 38t-49 -50h-30q-1 36 18.5 57.5t60.5 21.5z" glyph-name="onethird" horiz-adv-x="610" unicode="⅓"/><glyph d="M101 701v-261h-32v231h-29v30h61zM519 700l-429 -700h-38l429 700h38zM446 -4q-37 0 -61.5 21.5t-24.5 56.5q0 49 42 69q-28 21 -28 55q0 26 19.5 45.5t52.5 19.5t52 -19.5t19 -45.5q0 -34 -27 -55q42 -21 42 -69q0 -35 -24.5 -56.5t-61.5 -21.5zM446 157q19 0 30.5 11.5 t11.5 28.5t-11 28t-31 11t-31 -11t-11 -28t11.5 -28.5t30.5 -11.5zM446 23q23 0 39 14.5t16 36.5q0 25 -16 40t-39 15q-24 0 -40 -15t-16 -40q0 -22 16.5 -36.5t39.5 -14.5z" glyph-name="oneeighth" horiz-adv-x="577" unicode="⅛"/><glyph d="M126 703q39 0 59.5 -19t20.5 -48q0 -37 -40 -57q51 -16 51 -67q0 -34 -24 -55t-65 -21q-44 0 -66 23.5t-22 57.5h31q0 -23 14.5 -38t42.5 -15q25 0 41 12.5t16 35.5q0 29 -20 40t-57 11v25q33 0 50 13t17 35q0 38 -49 38t-49 -50h-30q-1 36 18.5 57.5t60.5 21.5zM542 700 l-429 -700h-38l429 700h38zM467 -4q-37 0 -61.5 21.5t-24.5 56.5q0 49 42 69q-28 21 -28 55q0 26 19.5 45.5t52.5 19.5t52 -19.5t19 -45.5q0 -34 -27 -55q42 -21 42 -69q0 -35 -24.5 -56.5t-61.5 -21.5zM467 157q19 0 30.5 11.5t11.5 28.5t-11.5 28t-30.5 11t-30.5 -11 t-11.5 -28t11.5 -28.5t30.5 -11.5zM467 23q23 0 39 14.5t16 36.5q0 25 -16 40t-39 15q-24 0 -40 -15t-16 -40q0 -22 16.5 -36.5t39.5 -14.5z" glyph-name="threeeighths" horiz-adv-x="593" unicode="⅜"/><glyph d="M200 701v-30h-107l-10 -69q19 18 53 18q38 0 63 -25t25 -66t-26 -67t-69 -26q-36 0 -59.5 18t-29.5 44l28 14q4 -19 20 -32.5t41 -13.5q28 0 45.5 17t17.5 47q0 28 -17 44t-44 16q-36 0 -56 -30l-27 10l18 131h134zM542 700l-429 -700h-38l429 700h38zM469 -4 q-37 0 -61.5 21.5t-24.5 56.5q0 49 42 69q-28 21 -28 55q0 26 19.5 45.5t52.5 19.5t52 -19.5t19 -45.5q0 -34 -27 -55q42 -21 42 -69q0 -35 -24.5 -56.5t-61.5 -21.5zM469 157q19 0 30.5 11.5t11.5 28.5t-11.5 28t-30.5 11t-30.5 -11t-11.5 -28t11.5 -28.5t30.5 -11.5z M469 23q23 0 39 14.5t16 36.5q0 25 -16 40t-39 15q-24 0 -40 -15t-16 -40q0 -22 16.5 -36.5t39.5 -14.5z" glyph-name="fiveeighths" horiz-adv-x="595" unicode="⅝"/><glyph d="M201 701l-110 -261h-34l100 231h-117v30h161zM520 700l-429 -700h-38l429 700h38zM447 -4q-37 0 -61.5 21.5t-24.5 56.5q0 49 42 69q-28 21 -28 55q0 26 19.5 45.5t52.5 19.5t52 -19.5t19 -45.5q0 -34 -27 -55q42 -21 42 -69q0 -35 -24.5 -56.5t-61.5 -21.5zM447 157 q19 0 30.5 11.5t11.5 28.5t-11.5 28t-30.5 11t-30.5 -11t-11.5 -28t11.5 -28.5t30.5 -11.5zM447 23q23 0 39 14.5t16 36.5q0 25 -16 40t-39 15q-24 0 -40 -15t-16 -40q0 -22 16.5 -36.5t39.5 -14.5z" glyph-name="seveneighths" horiz-adv-x="568" unicode="⅞"/><glyph d="M437 386q63 -84 63 -170q0 -98 -63 -163.5t-160 -65.5t-160 66.5t-63 164.5q0 96 63 160t154 64q35 0 64 -9l-188 245q-8 10 0 18l27 20q10 9 19 -4zM277 44q71 0 118 48t47 124t-47 123.5t-118 47.5t-118 -47.5t-47 -123.5t47 -124t118 -48z" glyph-name="partialdiff" horiz-adv-x="554" unicode="∂"/><glyph d="M75 -190q-14 0 -14 14v862q0 14 14 14h510q14 0 14 -14v-862q0 -14 -14 -14h-34q-13 0 -13 14v816h-415v-816q0 -14 -12 -14h-36z" glyph-name="product" horiz-adv-x="660" unicode="∏"/><glyph d="M76 -190q-15 0 -15 15v34q0 6 6 18l269 378l-269 378q-6 12 -6 18v34q0 15 15 15h490q15 0 15 -15v-30q0 -15 -15 -15h-429l268 -375q6 -10 0 -20l-268 -375h429q15 0 15 -15v-30q0 -15 -15 -15h-490z" glyph-name="summation" horiz-adv-x="643" unicode="∑"/><glyph d="M79 256q-14 0 -14 14v28q0 13 14 13h283q14 0 14 -13v-28q0 -14 -14 -14h-283z" glyph-name="minus" horiz-adv-x="441" unicode="−"/><glyph d="M303 -190q-14 0 -17 13l-118 450h-99q-15 0 -15 15v30q0 15 15 15h129q14 0 17 -13l114 -438l186 805q3 13 16 13h28q16 0 13 -17l-200 -860q-3 -13 -16 -13h-53z" glyph-name="radical" horiz-adv-x="626" unicode="√"/><glyph d="M610 423q67 0 112 -46t45 -116q0 -71 -45 -117t-112 -46q-100 0 -192 129q-46 -62 -90.5 -95.5t-100.5 -33.5q-68 0 -113 46t-45 117q0 70 45 116t113 46q56 0 100.5 -33t90.5 -95q45 61 90.5 94.5t101.5 33.5zM227 142q48 0 84.5 31.5t75.5 87.5q-37 56 -74 87t-86 31 q-48 0 -79.5 -33t-31.5 -85q0 -51 31.5 -85t79.5 -34zM609 142q48 0 79.5 34t31.5 85q0 52 -31.5 85t-79.5 33q-49 0 -86.5 -31.5t-73.5 -86.5q38 -55 74.5 -87t85.5 -32z" glyph-name="infinity" horiz-adv-x="836" unicode="∞"/><glyph d="M101 -190q-27 0 -43 6q-9 4 -9 13v33q0 9 12 7q18 -3 32 -3q40 0 54.5 21.5t14.5 61.5v658q0 124 121 124q27 0 43 -6q9 -4 9 -13v-33q0 -9 -12 -7q-18 3 -33 3q-40 0 -54 -21.5t-14 -61.5v-658q0 -124 -121 -124z" glyph-name="integral" horiz-adv-x="383" unicode="∫"/><glyph d="M289 299q-37 0 -78.5 35.5t-68.5 35.5q-37 0 -45 -33q-1 -11 -12 -11h-15q-12 0 -10 15q4 35 27.5 54t57.5 19q40 0 81 -35.5t67 -35.5q37 0 46 34q1 10 12 10h15q12 0 10 -15q-4 -35 -28 -54t-59 -19zM289 139q-37 0 -78.5 35.5t-68.5 35.5q-37 0 -45 -33 q-1 -11 -12 -11h-15q-12 0 -10 15q4 35 27.5 54t57.5 19q40 0 81 -35.5t67 -35.5q37 0 46 34q1 10 12 10h15q12 0 10 -15q-4 -35 -28 -54t-59 -19z" glyph-name="approxequal" horiz-adv-x="436" unicode="≈"/><glyph d="M362 318h-102l-25 -67h127q14 0 14 -13v-28q0 -14 -14 -14h-148l-69 -184q-5 -12 -18 -12h-21q-16 0 -10 17l67 179h-84q-14 0 -14 14v28q0 13 14 13h105l25 67h-130q-14 0 -14 13v28q0 14 14 14h150l66 176q5 12 18 12h21q17 0 11 -17l-64 -171h81q14 0 14 -14v-28 q0 -13 -14 -13z" glyph-name="notequal" horiz-adv-x="441" unicode="≠"/><glyph d="M371 175l-296 180q-8 3 -8 17v23q0 11 8 17l296 181q6 4 10 2t4 -10v-26q0 -11 -9 -15l-267 -160l267 -160q9 -6 9 -15v-26q0 -8 -4 -10t-10 2zM79 0q-13 0 -13 13v17q0 13 13 13h294q12 0 12 -13v-17q0 -13 -12 -13h-294z" glyph-name="lessequal" horiz-adv-x="451" unicode="≤"/><glyph d="M79 175q-6 -4 -10 -2t-4 10v26q0 9 9 15l267 160l-267 160q-9 4 -9 15v26q0 8 4 10t10 -2l296 -181q8 -6 8 -17v-23q0 -14 -8 -17zM371 0h-293q-13 0 -13 13v17q0 13 13 13h293q13 0 13 -13v-17q0 -13 -13 -13z" glyph-name="greaterequal" horiz-adv-x="449" unicode="≥"/><glyph d="M227 0q-13 0 -17 11l-146 329q-4 10 0 20l146 329q4 11 17 11h61q13 0 17 -11l146 -329q4 -10 0 -20l-146 -329q-4 -11 -17 -11h-61zM257 39l138 311l-138 312l-137 -312z" glyph-name="lozenge" horiz-adv-x="515" unicode="◊"/><glyph d="M764 612q9 -9 0 -20l-473 -475q-10 -10 -20 0l-217 220q-9 11 0 20l27 25q9 9 18 0l184 -185l437 439q10 11 19 0z" glyph-name="uni2713" horiz-adv-x="818" unicode="✓"/><glyph glyph-name="uniFEFF" horiz-adv-x="201" unicode="﻿"/><glyph d="M92 631q-16 0 -27 11t-11 26t11 26t27 11t27 -11t11 -26t-11 -26t-27 -11zM74 0q-13 0 -13 14v462q0 14 13 14h35q12 0 12 -14v-462q0 -14 -12 -14h-35z" glyph-name="i.aalt" horiz-adv-x="182"/><glyph d="M472 46q1 -1 3.5 -2t3.5 -2t2.5 -2t2 -3t0.5 -5v-23q0 -13 -23 -13q-32 0 -47.5 22t-15.5 56v9q-34 -47 -88.5 -71.5t-110.5 -24.5q-73 0 -111.5 39t-38.5 102q0 122 156 136l193 17v58q0 58 -30 84t-102 26q-63 0 -96.5 -20t-38.5 -65q-1 -13 -14 -13h-30q-15 0 -13 15 q10 136 192 136q104 0 148 -40t44 -115v-262q0 -30 14 -39zM215 41q56 0 104 25.5t79 72.5v94l-185 -17q-58 -5 -80.5 -26.5t-22.5 -57.5q0 -91 105 -91z" glyph-name="a.salt" horiz-adv-x="548"/><glyph d="M253 557q-15 0 -8 16l53 115q5 12 16 12h35q15 0 8 -16l-54 -115q-4 -12 -15 -12h-35zM472 46q1 -1 3.5 -2t3.5 -2t2.5 -2t2 -3t0.5 -5v-23q0 -13 -23 -13q-32 0 -47.5 22t-15.5 56v9q-34 -47 -88.5 -71.5t-110.5 -24.5q-73 0 -111.5 39t-38.5 102q0 122 156 136l193 17 v58q0 58 -30 84t-102 26q-63 0 -96.5 -20t-38.5 -65q-1 -13 -14 -13h-30q-15 0 -13 15q10 136 192 136q104 0 148 -40t44 -115v-262q0 -30 14 -39zM215 41q56 0 104 25.5t79 72.5v94l-185 -17q-58 -5 -80.5 -26.5t-22.5 -57.5q0 -91 105 -91z" glyph-name="aacute.aalt" horiz-adv-x="548"/><glyph d="M266 572q-56 0 -91.5 31.5t-40.5 81.5q-2 15 14 15h15q13 0 16 -14q6 -32 29 -51.5t58 -19.5t58.5 19.5t29.5 51.5q3 14 16 14h15q15 0 14 -15q-5 -50 -41 -81.5t-92 -31.5zM472 46q1 -1 3.5 -2t3.5 -2t2.5 -2t2 -3t0.5 -5v-23q0 -13 -23 -13q-32 0 -47.5 22t-15.5 56v9 q-34 -47 -88.5 -71.5t-110.5 -24.5q-73 0 -111.5 39t-38.5 102q0 122 156 136l193 17v58q0 58 -30 84t-102 26q-63 0 -96.5 -20t-38.5 -65q-1 -13 -14 -13h-30q-15 0 -13 15q10 136 192 136q104 0 148 -40t44 -115v-262q0 -30 14 -39zM215 41q56 0 104 25.5t79 72.5v94 l-185 -17q-58 -5 -80.5 -26.5t-22.5 -57.5q0 -91 105 -91z" glyph-name="abreve.aalt" horiz-adv-x="548"/><glyph d="M228 584l-84 103q-4 4 -2 8.5t9 4.5h33q9 0 16 -8l66 -82l66 82q7 8 16 8h33q6 0 8.5 -4.5t-1.5 -8.5l-85 -103q-7 -8 -15 -8h-44q-9 0 -16 8zM472 46q1 -1 3.5 -2t3.5 -2t2.5 -2t2 -3t0.5 -5v-23q0 -13 -23 -13q-32 0 -47.5 22t-15.5 56v9q-34 -47 -88.5 -71.5 t-110.5 -24.5q-73 0 -111.5 39t-38.5 102q0 122 156 136l193 17v58q0 58 -30 84t-102 26q-63 0 -96.5 -20t-38.5 -65q-1 -13 -14 -13h-30q-15 0 -13 15q10 136 192 136q104 0 148 -40t44 -115v-262q0 -30 14 -39zM215 41q56 0 104 25.5t79 72.5v94l-185 -17 q-58 -5 -80.5 -26.5t-22.5 -57.5q0 -91 105 -91z" glyph-name="uni01CE.aalt" horiz-adv-x="548"/><glyph d="M151 576q-7 0 -9 4.5t2 8.5l84 103q7 8 16 8h44q8 0 15 -8l85 -103q4 -4 1.5 -8.5t-8.5 -4.5h-33q-9 0 -16 8l-66 82l-66 -82q-7 -8 -16 -8h-33zM472 46q1 -1 3.5 -2t3.5 -2t2.5 -2t2 -3t0.5 -5v-23q0 -13 -23 -13q-32 0 -47.5 22t-15.5 56v9q-34 -47 -88.5 -71.5 t-110.5 -24.5q-73 0 -111.5 39t-38.5 102q0 122 156 136l193 17v58q0 58 -30 84t-102 26q-63 0 -96.5 -20t-38.5 -65q-1 -13 -14 -13h-30q-15 0 -13 15q10 136 192 136q104 0 148 -40t44 -115v-262q0 -30 14 -39zM215 41q56 0 104 25.5t79 72.5v94l-185 -17 q-58 -5 -80.5 -26.5t-22.5 -57.5q0 -91 105 -91z" glyph-name="acircumflex.aalt" horiz-adv-x="548"/><glyph d="M180 631q-16 0 -27 11t-11 26t11 26t27 11t27 -11t11 -26t-11 -26t-27 -11zM354 631q-15 0 -26.5 11t-11.5 26t11.5 26t26.5 11q16 0 27 -11t11 -26t-11 -26t-27 -11zM472 46q1 -1 3.5 -2t3.5 -2t2.5 -2t2 -3t0.5 -5v-23q0 -13 -23 -13q-32 0 -47.5 22t-15.5 56v9 q-34 -47 -88.5 -71.5t-110.5 -24.5q-73 0 -111.5 39t-38.5 102q0 122 156 136l193 17v58q0 58 -30 84t-102 26q-63 0 -96.5 -20t-38.5 -65q-1 -13 -14 -13h-30q-15 0 -13 15q10 136 192 136q104 0 148 -40t44 -115v-262q0 -30 14 -39zM215 41q56 0 104 25.5t79 72.5v94 l-185 -17q-58 -5 -80.5 -26.5t-22.5 -57.5q0 -91 105 -91z" glyph-name="adieresis.aalt" horiz-adv-x="548"/><glyph d="M230 569l-54 115q-7 16 8 16h36q11 0 15 -12l53 -115q7 -16 -8 -16h-34q-11 0 -16 12zM472 46q1 -1 3.5 -2t3.5 -2t2.5 -2t2 -3t0.5 -5v-23q0 -13 -23 -13q-32 0 -47.5 22t-15.5 56v9q-34 -47 -88.5 -71.5t-110.5 -24.5q-73 0 -111.5 39t-38.5 102q0 122 156 136l193 17 v58q0 58 -30 84t-102 26q-63 0 -96.5 -20t-38.5 -65q-1 -13 -14 -13h-30q-15 0 -13 15q10 136 192 136q104 0 148 -40t44 -115v-262q0 -30 14 -39zM215 41q56 0 104 25.5t79 72.5v94l-185 -17q-58 -5 -80.5 -26.5t-22.5 -57.5q0 -91 105 -91z" glyph-name="agrave.aalt" horiz-adv-x="548"/><glyph d="M133 649q-14 0 -14 14v23q0 14 14 14h267q14 0 14 -14v-23q0 -14 -14 -14h-267zM472 46q1 -1 3.5 -2t3.5 -2t2.5 -2t2 -3t0.5 -5v-23q0 -13 -23 -13q-32 0 -47.5 22t-15.5 56v9q-34 -47 -88.5 -71.5t-110.5 -24.5q-73 0 -111.5 39t-38.5 102q0 122 156 136l193 17v58 q0 58 -30 84t-102 26q-63 0 -96.5 -20t-38.5 -65q-1 -13 -14 -13h-30q-15 0 -13 15q10 136 192 136q104 0 148 -40t44 -115v-262q0 -30 14 -39zM215 41q56 0 104 25.5t79 72.5v94l-185 -17q-58 -5 -80.5 -26.5t-22.5 -57.5q0 -91 105 -91z" glyph-name="amacron.aalt" horiz-adv-x="548"/><glyph d="M472 46q1 -1 3.5 -2t3.5 -2t2.5 -2t2 -3t0.5 -5v-23q0 -13 -23 -13h-6q-47 -1 -79.5 -27t-32.5 -68q0 -36 26 -51.5t69 -6.5v-41q-44 -19 -96 3.5t-52 85.5q0 51 36 85t85 46q-13 20 -13 52v9q-34 -47 -88.5 -71.5t-110.5 -24.5q-73 0 -111.5 39t-38.5 102q0 122 156 136 l193 17v58q0 58 -30 84t-102 26q-63 0 -96.5 -20t-38.5 -65q-1 -13 -14 -13h-30q-15 0 -13 15q10 136 192 136q104 0 148 -40t44 -115v-262q0 -30 14 -39zM215 41q56 0 104 25.5t79 72.5v94l-185 -17q-58 -5 -80.5 -26.5t-22.5 -57.5q0 -91 105 -91z" glyph-name="aogonek.aalt" horiz-adv-x="548"/><glyph d="M266 566q-32 0 -54 21.5t-22 52.5q0 32 22 53t54 21t54 -21t22 -53q0 -31 -22 -52.5t-54 -21.5zM266 669q-13 0 -21 -8t-8 -21t8 -21t21 -8q12 0 20.5 8t8.5 21t-8.5 21t-20.5 8zM472 46q1 -1 3.5 -2t3.5 -2t2.5 -2t2 -3t0.5 -5v-23q0 -13 -23 -13q-32 0 -47.5 22 t-15.5 56v9q-34 -47 -88.5 -71.5t-110.5 -24.5q-73 0 -111.5 39t-38.5 102q0 122 156 136l193 17v58q0 58 -30 84t-102 26q-63 0 -96.5 -20t-38.5 -65q-1 -13 -14 -13h-30q-15 0 -13 15q10 136 192 136q104 0 148 -40t44 -115v-262q0 -30 14 -39zM215 41q56 0 104 25.5 t79 72.5v94l-185 -17q-58 -5 -80.5 -26.5t-22.5 -57.5q0 -91 105 -91z" glyph-name="aring.aalt" horiz-adv-x="548"/><glyph d="M133 638q-11 0 -9 12q4 32 25.5 49.5t53.5 17.5q35 0 72.5 -32t61.5 -32q30 0 41 31q3 9 11 9h12q10 0 10 -10q-4 -33 -25.5 -51t-48.5 -18q-38 0 -76.5 32t-61.5 32q-32 0 -43 -31q-3 -9 -11 -9h-12zM472 46q1 -1 3.5 -2t3.5 -2t2.5 -2t2 -3t0.5 -5v-23q0 -13 -23 -13 q-32 0 -47.5 22t-15.5 56v9q-34 -47 -88.5 -71.5t-110.5 -24.5q-73 0 -111.5 39t-38.5 102q0 122 156 136l193 17v58q0 58 -30 84t-102 26q-63 0 -96.5 -20t-38.5 -65q-1 -13 -14 -13h-30q-15 0 -13 15q10 136 192 136q104 0 148 -40t44 -115v-262q0 -30 14 -39zM215 41 q56 0 104 25.5t79 72.5v94l-185 -17q-58 -5 -80.5 -26.5t-22.5 -57.5q0 -91 105 -91z" glyph-name="atilde.aalt" horiz-adv-x="548"/><glyph d="M284 490q15 0 15 -15v-22q0 -15 -15 -15h-80v-423q0 -15 -15 -15h-30q-15 0 -15 15v423h-80q-15 0 -15 15v22q0 15 15 15h80v135q0 15 15 15h30q15 0 15 -15v-135h80z" glyph-name="t.aalt" horiz-adv-x="348"/><glyph d="M368 708q119 0 187 -96t68 -265q0 -168 -68 -264t-187 -96t-187 96t-68 264q0 169 68 265t187 96zM368 651q-91 0 -143 -79.5t-52 -224.5q0 -144 52 -223t143 -79q92 0 143.5 79t51.5 223q0 146 -51.5 225t-143.5 79z" glyph-name="zero.tnum" horiz-adv-x="730"/><glyph d="M464 700q13 0 13 -14v-672q0 -14 -13 -14h-35q-12 0 -12 14v632h-107q-11 0 -11 14v26q0 14 11 14h154z" glyph-name="one.tnum" horiz-adv-x="730"/><glyph d="M512 54q14 0 14 -14v-26q0 -14 -14 -14h-352q-14 0 -14 14v29q0 12 7 19l219 267q31 38 46.5 58.5t32.5 58t17 72.5q0 59 -38 96.5t-100 37.5q-37 0 -66.5 -15t-42.5 -29.5t-28 -37.5q-8 -13 -19 -2l-21 19q-9 9 -1 22q63 99 180 99q89 0 142 -53.5t53 -132.5 q0 -40 -17 -81.5t-34 -65t-48 -61.5l-211 -260h295z" glyph-name="two.tnum" horiz-adv-x="730"/><glyph d="M336 -13q-121 0 -187 95q-7 10 3 18l22 21q9 9 16 -2q56 -75 146 -75q68 0 112 42t44 109q0 72 -48.5 113t-117.5 41h-16q-13 0 -13 11v29q0 13 13 13h16q61 0 99 37t38 93q0 52 -34 86t-90 34q-80 0 -126 -74q-9 -10 -18 -2l-23 21q-6 7 0 17q26 41 70.5 67.5 t100.5 26.5q78 0 128 -48t50 -120q0 -53 -27.5 -95t-78.5 -67q62 -20 99.5 -69.5t37.5 -118.5q0 -87 -60.5 -145t-155.5 -58z" glyph-name="three.tnum" horiz-adv-x="730"/><glyph d="M578 226q11 0 11 -14v-26q0 -14 -11 -14h-76v-158q0 -14 -12 -14h-35q-13 0 -13 14v158h-283q-15 0 -15 15v32q0 10 3 14l289 457q7 10 17 10h35q14 0 14 -15v-459h76zM206 226h236v376z" glyph-name="four.tnum" horiz-adv-x="730"/><glyph d="M361 453q91 0 154.5 -63.5t63.5 -165.5q0 -107 -67 -172t-165 -65q-63 0 -113 26t-77 63q-8 12 1 19l25 20q10 7 19 -5q55 -66 144 -66q74 0 125 50t51 130q0 78 -48.5 126t-120.5 48q-91 0 -140 -66q-7 -10 -25 -2l-18 8q-13 5 -10 18l70 331q3 13 16 13h275 q12 0 12 -14v-26q0 -14 -12 -14h-244l-51 -240q52 47 135 47z" glyph-name="five.tnum" horiz-adv-x="730"/><glyph d="M387 442q91 0 154 -64t63 -160q0 -98 -63 -164.5t-160 -66.5t-160 65.5t-63 163.5q0 87 64 170l243 326q9 13 19 4l27 -20q8 -7 0 -18l-187 -245q29 9 63 9zM381 44q71 0 118 48t47 124t-47 123.5t-118 47.5t-118 -47.5t-47 -123.5t47 -124t118 -48z" glyph-name="six.tnum" horiz-adv-x="730"/><glyph d="M561 700q7 0 10 -5.5t0 -12.5l-278 -667q-7 -15 -16 -15h-34q-16 0 -9 17l266 629h-340q-11 0 -11 14v26q0 14 11 14h401z" glyph-name="seven.tnum" horiz-adv-x="730"/><glyph d="M365 -13q-93 0 -155 58t-62 147q0 73 40 124t99 70q-47 21 -73 62t-26 91q0 70 49 119.5t128 49.5q78 0 127.5 -49.5t49.5 -119.5q0 -50 -26.5 -91t-73.5 -62q59 -19 99 -70t40 -124q0 -89 -61.5 -147t-154.5 -58zM365 412q54 0 88.5 35.5t34.5 89.5q0 53 -34 86.5 t-89 33.5t-89 -33.5t-34 -86.5q0 -54 34.5 -89.5t88.5 -35.5zM365 41q70 0 114.5 43.5t44.5 111.5t-46 111.5t-113 43.5t-113.5 -43.5t-46.5 -111.5q0 -67 45 -111t115 -44z" glyph-name="eight.tnum" horiz-adv-x="730"/><glyph d="M376 708q97 0 160 -65.5t63 -163.5q0 -86 -63 -170l-244 -326q-9 -13 -19 -4l-27 20q-8 8 0 18l188 245q-28 -9 -64 -9q-91 0 -154 64t-63 160q0 98 63 164.5t160 66.5zM376 308q71 0 118 47.5t47 123.5t-47 124.5t-118 48.5t-118 -48.5t-47 -124.5t47 -123.5t118 -47.5z " glyph-name="nine.tnum" horiz-adv-x="730"/><glyph d="M144 263q46 0 75 -35t29 -91v-13q0 -56 -29 -91t-75 -35t-75 35t-29 91v13q0 56 29 91t75 35zM144 232q-31 0 -51.5 -25t-20.5 -70v-13q0 -45 20.5 -70t51.5 -25q30 0 51 25t21 70v13q0 45 -21 70t-51 25z" glyph-name="zero.dnom" horiz-adv-x="288"/><glyph d="M101 261v-261h-32v231h-29v30h61z" glyph-name="one.dnom" horiz-adv-x="146"/><glyph d="M123 264q39 0 61 -21.5t22 -53.5q0 -17 -9.5 -34t-20 -29t-36.5 -38l-9 -9l-49 -49h126v-30h-166v30l68 69l18.5 18.5l15.5 15.5t11 12t9 11.5t5 10t4 11.5t1 12q0 23 -14.5 34.5t-36.5 11.5t-36.5 -12.5t-14.5 -39.5v-15h-32v14q0 37 22 59t61 22z" glyph-name="two.dnom" horiz-adv-x="247"/><glyph d="M126 263q39 0 59.5 -19t20.5 -48q0 -37 -40 -57q51 -16 51 -67q0 -34 -24 -55t-65 -21q-44 0 -66 23.5t-22 57.5h31q0 -23 14.5 -38t42.5 -15q25 0 41 12.5t16 35.5q0 29 -20 40t-57 11v25q33 0 50 13t17 35q0 38 -49 38t-49 -50h-30q-1 36 18.5 57.5t60.5 21.5z" glyph-name="three.dnom" horiz-adv-x="257"/><glyph d="M193 261v-169h27v-30h-27v-62h-32v62h-136l136 199h32zM161 214l-82 -122h82v122z" glyph-name="four.dnom" horiz-adv-x="260"/><glyph d="M200 261v-30h-107l-10 -69q19 18 53 18q38 0 63 -25t25 -66t-26 -67t-69 -26q-36 0 -59.5 18t-29.5 44l28 14q4 -19 20 -32.5t41 -13.5q28 0 45.5 17t17.5 47q0 28 -17 44t-44 16q-36 0 -56 -30l-27 10l18 131h134z" glyph-name="five.dnom" horiz-adv-x="264"/><glyph d="M184 261l-76 -101q5 5 22 5q34 0 58.5 -25t24.5 -60q0 -36 -24 -60t-62 -24t-62.5 24t-24.5 60q0 20 8 40t14.5 29t24.5 33l60 79h37zM126 137q-24 0 -39.5 -16t-15.5 -40q0 -25 15.5 -40.5t39.5 -15.5t40 15.5t16 40.5q0 24 -16 40t-40 16z" glyph-name="six.dnom" horiz-adv-x="253"/><glyph d="M201 261l-110 -261h-34l100 231h-117v30h161z" glyph-name="seven.dnom" horiz-adv-x="236"/><glyph d="M126 -4q-37 0 -61.5 21.5t-24.5 56.5q0 49 42 69q-28 21 -28 55q0 26 19.5 45.5t52.5 19.5t52 -19.5t19 -45.5q0 -34 -27 -55q42 -21 42 -69q0 -35 -24.5 -56.5t-61.5 -21.5zM126 157q19 0 30.5 11.5t11.5 28.5t-11 28t-31 11t-31 -11t-11 -28t11.5 -28.5t30.5 -11.5z M126 23q23 0 39 14.5t16 36.5q0 25 -16 40t-39 15q-24 0 -40 -15t-16 -40q0 -22 16.5 -36.5t39.5 -14.5z" glyph-name="eight.dnom" horiz-adv-x="252"/><glyph d="M69 -1l76 101q-5 -5 -22 -5q-34 0 -58.5 25t-24.5 60q0 36 24 60t62 24t62.5 -24t24.5 -60q0 -7 -0.5 -13.5t-2.5 -13t-3.5 -11t-5.5 -12t-5.5 -10.5t-6.5 -11t-6.5 -10t-8 -11t-7.5 -10l-61 -79h-37zM127 123q24 0 39.5 16t15.5 40q0 25 -15.5 40.5t-39.5 15.5t-40 -16 t-16 -40t16.5 -40t39.5 -16z" glyph-name="nine.dnom" horiz-adv-x="253"/><glyph d="M144 703q46 0 75 -35t29 -91v-13q0 -56 -29 -91t-75 -35t-75 35t-29 91v13q0 56 29 91t75 35zM144 672q-31 0 -51.5 -25t-20.5 -70v-13q0 -45 20.5 -70t51.5 -25q30 0 51 25t21 70v13q0 45 -21 70t-51 25z" glyph-name="zero.numr" horiz-adv-x="288"/><glyph d="M101 701v-261h-32v231h-29v30h61z" glyph-name="one.numr" horiz-adv-x="146"/><glyph d="M123 704q39 0 61 -21.5t22 -53.5q0 -17 -9.5 -34t-20 -29t-36.5 -38l-9 -9l-49 -49h126v-30h-166v30l68 69l18.5 18.5l15.5 15.5t11 12t9 11.5t5 10t4 11.5t1 12q0 23 -14.5 34.5t-36.5 11.5t-36.5 -12.5t-14.5 -39.5v-15h-32v14q0 37 22 59t61 22z" glyph-name="two.numr" horiz-adv-x="247"/><glyph d="M126 703q39 0 59.5 -19t20.5 -48q0 -37 -40 -57q51 -16 51 -67q0 -34 -24 -55t-65 -21q-44 0 -66 23.5t-22 57.5h31q0 -23 14.5 -38t42.5 -15q25 0 41 12.5t16 35.5q0 29 -20 40t-57 11v25q33 0 50 13t17 35q0 38 -49 38t-49 -50h-30q-1 36 18.5 57.5t60.5 21.5z" glyph-name="three.numr" horiz-adv-x="257"/><glyph d="M193 701v-169h27v-30h-27v-62h-32v62h-136l136 199h32zM161 654l-82 -122h82v122z" glyph-name="four.numr" horiz-adv-x="260"/><glyph d="M200 701v-30h-107l-10 -69q19 18 53 18q38 0 63 -25t25 -66t-26 -67t-69 -26q-36 0 -59.5 18t-29.5 44l28 14q4 -19 20 -32.5t41 -13.5q28 0 45.5 17t17.5 47q0 28 -17 44t-44 16q-36 0 -56 -30l-27 10l18 131h134z" glyph-name="five.numr" horiz-adv-x="264"/><glyph d="M184 701l-76 -101q5 5 22 5q34 0 58.5 -25t24.5 -60q0 -36 -24 -60t-62 -24t-62.5 24t-24.5 60q0 20 8 40t14.5 29t24.5 33l60 79h37zM126 577q-24 0 -39.5 -16t-15.5 -40q0 -25 15.5 -40.5t39.5 -15.5t40 15.5t16 40.5q0 24 -16 40t-40 16z" glyph-name="six.numr" horiz-adv-x="253"/><glyph d="M201 701l-110 -261h-34l100 231h-117v30h161z" glyph-name="seven.numr" horiz-adv-x="236"/><glyph d="M126 436q-37 0 -61.5 21.5t-24.5 56.5q0 49 42 69q-28 21 -28 55q0 26 19.5 45.5t52.5 19.5t52 -19.5t19 -45.5q0 -34 -27 -55q42 -21 42 -69q0 -35 -24.5 -56.5t-61.5 -21.5zM126 597q19 0 30.5 11.5t11.5 28.5t-11 28t-31 11t-31 -11t-11 -28t11.5 -28.5t30.5 -11.5z M126 463q23 0 39 14.5t16 36.5q0 25 -16 40t-39 15q-24 0 -40 -15t-16 -40q0 -22 16.5 -36.5t39.5 -14.5z" glyph-name="eight.numr" horiz-adv-x="252"/><glyph d="M69 439l76 101q-5 -5 -22 -5q-34 0 -58.5 25t-24.5 60q0 36 24 60t62 24t62.5 -24t24.5 -60q0 -7 -0.5 -13.5t-2.5 -13t-3.5 -11t-5.5 -12t-5.5 -10.5t-6.5 -11t-6.5 -10t-8 -11t-7.5 -10l-61 -79h-37zM127 563q24 0 39.5 16t15.5 40q0 25 -15.5 40.5t-39.5 15.5t-40 -16 t-16 -40t16.5 -40t39.5 -16z" glyph-name="nine.numr" horiz-adv-x="253"/><glyph d="M316 730q-15 0 -8 15l53 116q5 12 16 12h35q15 0 8 -16l-54 -115q-4 -12 -15 -12h-35zM623 17q7 -17 -11 -17h-38q-11 0 -15 12l-55 153h-330l-54 -153q-4 -12 -17 -12h-36q-18 0 -11 17l244 671q4 12 18 12h43q13 0 18 -12zM194 221h290l-145 407z" glyph-name="glyph499" horiz-adv-x="641"/><glyph d="M346 873q15 0 8 -16l-54 -115q-5 -12 -16 -12h-34q-15 0 -8 15l53 116q4 12 15 12h36zM103 0q-14 0 -14 14v672q0 14 14 14h331q14 0 14 -14v-29q0 -13 -14 -13h-283v-253h269q13 0 13 -14v-29q0 -14 -13 -14h-269v-277h284q14 0 14 -14v-29q0 -14 -14 -14h-332z" glyph-name="glyph500" horiz-adv-x="503"/><glyph d="M325 730q-15 0 -8 15l52 116q5 12 16 12h35q15 0 9 -16l-54 -115q-5 -12 -16 -12h-34zM561 700q14 0 14 -14v-672q0 -14 -14 -14h-35q-14 0 -14 14v599l-340 -603q-6 -10 -18 -10h-51q-14 0 -14 14v672q0 14 14 14h35q13 0 13 -14v-601l341 605q6 10 18 10h51z" glyph-name="glyph501" horiz-adv-x="646"/><glyph d="M499 873q15 0 8 -16l-54 -115q-4 -12 -15 -12h-35q-15 0 -8 15l53 116q5 12 16 12h35zM426 -13q-151 0 -254 104t-103 256t103 256.5t254 104.5t254.5 -104.5t103.5 -256.5t-103.5 -256t-254.5 -104zM426 48q126 0 210.5 85.5t84.5 213.5q0 129 -84.5 214.5t-210.5 85.5 t-210 -85.5t-84 -214.5q0 -128 84.5 -213.5t209.5 -85.5z" glyph-name="glyph502" horiz-adv-x="814"/><glyph d="M312 730q-14 0 -9 15l53 116q5 12 16 12h35q15 0 8 -16l-53 -115q-5 -12 -16 -12h-34zM576 700q9 0 11.5 -5t-2.5 -13l-404 -672q-6 -10 -17 -10h-37q-19 0 -9 18l170 283l-231 381q-5 8 -2.5 13t11.5 5h37q11 0 17 -10l202 -333l200 333q6 10 17 10h37z" glyph-name="glyph503" horiz-adv-x="630"/><glyph d="M468 873q15 0 8 -16l-54 -115q-5 -12 -16 -12h-34q-15 0 -8 15l53 116q4 12 15 12h36zM103 700h35q13 0 13 -14v-254h139q109 0 168.5 -59.5t59.5 -156.5t-59.5 -156.5t-168.5 -59.5h-187q-14 0 -14 14v672q0 14 14 14zM608 0q-14 0 -14 14v672q0 14 14 14h35 q13 0 13 -14v-672q0 -14 -13 -14h-35zM151 375v-318h133q78 0 125 38.5t47 120.5t-47 120.5t-125 38.5h-133z" glyph-name="glyph504" horiz-adv-x="778"/><glyph d="M344 730q-15 0 -8 15l52 116q5 12 16 12h35q15 0 9 -16l-54 -115q-5 -12 -16 -12h-34zM313 708q153 0 253 -104t100 -257t-99.5 -256.5t-253.5 -103.5q-135 0 -235 89q-14 14 -4 23l22 24q9 9 21 -1q85 -74 193 -74q119 0 201 77t91 196h-266q-13 0 -13 13v32q0 14 13 14 h265q-11 117 -92 192t-199 75q-108 0 -193 -74q-13 -9 -23 0l-20 23q-9 11 4 24q101 88 235 88z" glyph-name="glyph505" horiz-adv-x="685"/><glyph d="M488 730q-14 0 -9 15l53 116q5 12 16 12h35q15 0 8 -16l-53 -115q-5 -12 -16 -12h-34zM605 708q151 0 254 -104.5t103 -256.5t-103 -256t-254 -104q-144 0 -245.5 96t-111.5 238h-97v-307q0 -14 -13 -14h-35q-14 0 -14 14v672q0 14 14 14h35q13 0 13 -14v-306h97 q12 141 113 234.5t244 93.5zM605 48q126 0 210 85.5t84 213.5q0 129 -84 214.5t-210 85.5t-210 -85.5t-84 -214.5q0 -128 84 -213.5t210 -85.5z" glyph-name="glyph506" horiz-adv-x="992"/><glyph d="M286 730q-14 0 -9 15l53 116q5 12 16 12h35q15 0 8 -16l-53 -115q-5 -12 -16 -12h-34zM473 700q13 0 13 -14v-672q0 -14 -13 -14h-35q-14 0 -14 14v255h-123l-174 -259q-6 -10 -18 -10h-37q-21 0 -10 18l173 255q-85 13 -131 70t-46 141q0 97 59 156.5t168 59.5h188z M424 325v319h-133q-78 0 -125 -38.5t-47 -121.5q0 -82 47 -120.5t125 -38.5h133z" glyph-name="glyph507" horiz-adv-x="554"/><glyph d="M287 520q-15 0 -8 15l53 116q4 12 15 12h36q15 0 8 -16l-54 -115q-5 -12 -16 -12h-34zM537 490q13 0 13 -14v-462q0 -14 -13 -14h-32q-13 0 -13 14l-1 86q-60 -112 -194 -112q-107 0 -175 73t-68 184t68 184t175 73q134 0 194 -114l1 88q0 14 13 14h32zM304 45 q83 0 135 54.5t52 143.5q0 90 -52 146t-135 56q-84 0 -138 -55.5t-54 -144.5t53.5 -144.5t138.5 -55.5z" glyph-name="glyph508" horiz-adv-x="587"/><glyph d="M288 550q-14 0 -9 15l53 116q5 12 16 12h35q15 0 8 -16l-53 -115q-5 -12 -16 -12h-34zM527 271q0 -27 -6.5 -37t-26.5 -10h-381q6 -80 59 -132t145 -52q80 0 146 50q8 8 14 0l14 -18q7 -10 -4 -21q-66 -63 -175 -63q-117 0 -187.5 74.5t-70.5 184.5q0 109 68.5 182 t176.5 73q104 0 166 -68.5t62 -162.5zM298 448q-78 0 -128 -48t-57 -127h360q-2 77 -49.5 126t-125.5 49z" glyph-name="glyph509" horiz-adv-x="561"/><glyph d="M277 520q-15 0 -8 15l53 116q4 12 15 12h36q15 0 8 -16l-54 -115q-5 -12 -16 -12h-34zM483 490q12 0 12 -14v-462q0 -14 -13 -14h-34q-13 0 -13 14v403l-269 -407q-7 -10 -19 -10h-56q-12 0 -12 14v462q0 14 12 14h35q13 0 13 -14v-412l275 416q7 10 19 10h50z" glyph-name="glyph510" horiz-adv-x="561"/><glyph d="M385 663q15 0 8 -16l-54 -115q-4 -12 -15 -12h-35q-15 0 -8 15l53 116q5 12 16 12h35zM304 -12q-107 0 -178.5 74t-71.5 183t71.5 183t178.5 74q106 0 177.5 -73.5t71.5 -183.5t-71.5 -183.5t-177.5 -73.5zM304 45q82 0 136.5 56.5t54.5 143.5t-54.5 144t-136.5 57 q-83 0 -137 -56.5t-54 -144.5q0 -87 54 -143.5t137 -56.5z" glyph-name="glyph511" horiz-adv-x="587"/><glyph d="M348 663q15 0 8 -16l-54 -115q-5 -12 -16 -12h-34q-15 0 -8 15l53 116q4 12 15 12h36zM180 -190q-15 0 -10 14l69 174l-188 475q-6 17 11 17h34q12 0 16 -12l158 -412l158 412q4 12 15 12h35q17 0 11 -17l-258 -651q-5 -12 -17 -12h-34z" glyph-name="glyph512" horiz-adv-x="516"/><glyph d="M350 520q-15 0 -8 15l53 116q4 12 15 12h36q15 0 8 -16l-54 -115q-5 -12 -16 -12h-34zM326 317q87 0 130.5 -41.5t43.5 -117.5q0 -75 -43.5 -116.5t-130.5 -41.5h-235q-12 0 -12 14v462q0 14 12 14h35q13 0 13 -14v-159h187zM623 490q12 0 12 -14v-462q0 -14 -12 -14h-35 q-13 0 -13 14v462q0 14 13 14h35zM325 52q116 0 116 106t-116 106h-186v-212h186z" glyph-name="glyph513" horiz-adv-x="721"/><glyph d="M267 520q-15 0 -8 15l53 116q4 12 15 12h36q15 0 8 -16l-54 -115q-5 -12 -16 -12h-34zM243 502q108 0 181.5 -73.5t73.5 -183.5t-73 -183.5t-181 -73.5q-118 0 -185 81q-9 11 -1 19l19 19q10 10 23 -3q55 -59 140 -59q79 0 134.5 48.5t63.5 126.5h-198q-12 0 -12 14v20 q0 14 12 14h198q-7 79 -62.5 128.5t-134.5 49.5q-84 0 -141 -61q-12 -12 -22 -1l-19 18q-7 7 1 20q67 80 183 80z" glyph-name="glyph514" horiz-adv-x="526"/><glyph d="M365 520q-14 0 -9 15l53 116q5 12 16 12h35q15 0 8 -16l-53 -115q-5 -12 -16 -12h-34zM472 502q106 0 177.5 -73.5t71.5 -183.5t-71.5 -183.5t-177.5 -73.5q-99 0 -169.5 65.5t-79.5 165.5h-84v-206q0 -14 -13 -14h-35q-12 0 -12 14v462q0 14 12 14h35q13 0 13 -14v-205 h84q9 100 79 166t170 66zM472 45q82 0 136.5 56.5t54.5 143.5t-54.5 144t-136.5 57q-83 0 -137 -56.5t-54 -144.5q0 -87 54 -143.5t137 -56.5z" glyph-name="glyph515" horiz-adv-x="738"/><glyph d="M265 520q-15 0 -8 15l53 116q5 12 16 12h35q15 0 8 -16l-54 -115q-4 -12 -15 -12h-35zM462 490q12 0 12 -14v-462q0 -14 -12 -14h-35q-13 0 -13 14v160h-134l-147 -166q-7 -8 -17 -8h-39q-10 0 -12 5t5 13l142 156q-159 7 -159 158q0 76 43.5 117t130.5 41h235zM228 226 h186v212h-186q-116 0 -116 -106t116 -106z" glyph-name="glyph516" horiz-adv-x="532"/></font>
</defs>
</svg>
