<?xml version="1.0" standalone="no"?>
<!DOCTYPE svg PUBLIC "-//W3C//DTD SVG 1.1//EN" "http://www.w3.org/Graphics/SVG/1.1/DTD/svg11.dtd">
<svg xmlns="http://www.w3.org/2000/svg"><metadata>This SVG WebFont was generated by YouWorkForThem.
Copyright Â© 2018 by Connary Fagen. All rights reserved.</metadata><defs><font horiz-adv-x="569" id="ywftsvg"><font-face ascent="800" bbox="-160 -260.092 1055 934" cap-height="700" descent="-200" font-family="" font-stretch="normal" font-weight="500" panose-1="0 0 6 0 0 0 0 0 0 0" underline-position="0" underline-thickness="0" unicode-range="U+0020-FEFF" units-per-em="1000" x-height="490"/><missing-glyph d="M406 800v-990h-314v990h314zM330 734h-164v-33h65v-37h-66v-32h165v32h-66v37h66v33zM264 606h-99v-103h165v34h-66v69zM231 572v-35h-33v35h33zM330 476h-165v-32h66v-37h-66v-33h99v70h66v32zM330 417h-33v-65h-132v-34h165v99zM330 296h-99v-55h33v22h33v-46h-99v79 h-33v-112h165v112zM330 125h-165v-112h165v112zM297 92v-46h-99v46h99zM330 -10h-165v-32h70l-70 -47v-33h165v33h-101l69 47h32v32z" horiz-adv-x="495"/><glyph d="M406 800v-990h-314v990h314zM330 734h-164v-33h65v-37h-66v-32h165v32h-66v37h66v33zM264 606h-99v-103h165v34h-66v69zM231 572v-35h-33v35h33zM330 476h-165v-32h66v-37h-66v-33h99v70h66v32zM330 417h-33v-65h-132v-34h165v99zM330 296h-99v-55h33v22h33v-46h-99v79 h-33v-112h165v112zM330 125h-165v-112h165v112zM297 92v-46h-99v46h99zM330 -10h-165v-32h70l-70 -47v-33h165v33h-101l69 47h32v32z" glyph-name=".notdef" horiz-adv-x="495"/><glyph glyph-name="glyph1" horiz-adv-x="0"/><glyph glyph-name="glyph2" horiz-adv-x="333"/><glyph glyph-name="space" horiz-adv-x="199" unicode=" "/><glyph d="M96 195q-13 0 -13 15l-11 476q0 14 14 14h67q13 0 13 -14l-10 -476q0 -15 -14 -15h-46zM119 -13q-25 0 -42.5 17.5t-17.5 42.5t17.5 42.5t42.5 17.5t42.5 -17.5t17.5 -42.5t-17.5 -42.5t-42.5 -17.5z" glyph-name="exclam" horiz-adv-x="238" unicode="!"/><glyph d="M112 700q16 0 14 -14l-7 -194q0 -13 -13 -13h-41q-14 0 -14 13l-7 194q0 14 14 14h54zM234 700q15 0 15 -14l-8 -194q0 -13 -13 -13h-41q-13 0 -14 13l-7 194q0 14 14 14h54z" glyph-name="quotedbl" horiz-adv-x="292" unicode="&quot;"/><glyph d="M594 487q14 0 11 -13l-6 -26q-3 -13 -15 -13h-89l-45 -169h85q15 0 12 -14l-6 -25q-3 -14 -15 -14h-90l-53 -201q-3 -12 -16 -12h-27q-15 0 -10 17l52 196h-171l-53 -201q-3 -12 -17 -12h-26q-16 0 -11 17l52 196h-85q-14 0 -11 14l6 25q3 14 15 14h89l44 169h-85 q-14 0 -11 13l6 26q3 13 15 13h89l53 201q3 12 17 12h26q16 0 11 -17l-52 -196h171l53 201q3 12 16 12h27q15 0 10 -17l-52 -196h86zM396 266l44 169h-170l-45 -169h171z" glyph-name="numbersign" horiz-adv-x="665" unicode="#"/><glyph d="M395 235q-1 -59 -39 -95t-98 -45v-81q0 -14 -14 -14h-37q-14 0 -14 14v80q-83 10 -136 73q-9 12 0 26l21 29q9 13 23 1q56 -54 118 -54q40 0 63.5 17t23.5 50q0 28 -17.5 45.5t-52.5 32.5l-59 24q-110 45 -110 132q0 54 35.5 89.5t90.5 44.5v83q0 13 14 13h37 q14 0 14 -13v-84q70 -13 114 -67q9 -10 -1 -22l-24 -28q-10 -11 -23 0q-47 46 -97 46q-32 0 -53 -16t-21 -44t18 -44t56 -32l54 -22q114 -45 114 -139z" glyph-name="dollar" horiz-adv-x="447" unicode="$"/><glyph d="M187 434q-57 0 -97 39t-40 96t40 96.5t97 39.5t97 -39.5t40 -96.5t-40 -96t-97 -39zM156 5l-32 21q-11 8 -3 20l433 644q8 13 18 5l32 -21q11 -8 3 -20l-433 -644q-8 -13 -18 -5zM187 495q31 0 52.5 21t21.5 53q0 33 -21.5 54t-52.5 21t-52 -21t-21 -54q0 -32 21 -53 t52 -21zM541 -5q-57 0 -97 39t-40 96t40 96.5t97 39.5t97 -39.5t40 -96.5t-40 -96t-97 -39zM541 57q31 0 52.5 20.5t21.5 52.5q0 33 -21.5 54t-52.5 21t-52 -21t-21 -54q0 -32 21 -52.5t52 -20.5z" glyph-name="percent" horiz-adv-x="728" unicode="%"/><glyph d="M624 51q9 -11 -1 -21l-33 -34q-11 -11 -21 0l-94 103q-93 -112 -218 -112q-91 0 -151 52.5t-60 143.5q0 74 38.5 121t116.5 95q-81 88 -81 158q0 63 44.5 105t115.5 42t115.5 -42t44.5 -105q0 -53 -31.5 -92t-89.5 -79l149 -164l63 100q6 10 15 10h64q6 0 8 -3.5t-1 -9.5 l-96 -155zM280 629q-34 0 -55 -21t-21 -53q0 -45 64 -113q44 28 66 53t22 58q0 34 -21 55t-55 21zM268 69q84 0 155 87l-169 186l-9 -6q-35 -24 -54 -40t-35 -44t-16 -61q0 -57 37 -89.5t91 -32.5z" glyph-name="ampersand" horiz-adv-x="670" unicode="&amp;"/><glyph d="M112 700q16 0 14 -14l-7 -194q0 -13 -13 -13h-41q-14 0 -14 13l-7 194q0 14 14 14h54z" glyph-name="quotesingle" horiz-adv-x="170" unicode="'"/><glyph d="M235 745q8 0 11 -5t-1 -13q-94 -179 -94 -407q0 -244 95 -432q8 -18 -11 -18h-58q-12 0 -18 10q-100 177 -100 440q0 241 100 415q6 10 18 10h58z" glyph-name="parenleft" horiz-adv-x="306" unicode="("/><glyph d="M72 745h57q12 0 18 -10q101 -173 101 -415q0 -261 -101 -440q-6 -10 -18 -10h-57q-19 0 -11 18q95 192 95 432q0 229 -95 407q-8 18 11 18z" glyph-name="parenright" horiz-adv-x="306" unicode=")"/><glyph d="M206 578l-5 122h46l-4 -122h-37zM194 539l-119 32l12 45l119 -38zM256 539l-13 39l120 38l12 -45zM156 413l-38 26l76 100l31 -24zM294 413l-69 102l31 24l75 -100z" glyph-name="asterisk" horiz-adv-x="450" unicode="*"/><glyph d="M366 321q14 0 14 -14v-45q0 -14 -14 -14h-106v-107q0 -15 -15 -15h-44q-14 0 -14 15v107h-108q-14 0 -14 14v45q0 14 14 14h108v106q0 15 14 15h44q15 0 15 -15v-106h106z" glyph-name="plus" horiz-adv-x="445" unicode="+"/><glyph d="M44 -126v28q46 1 69 42q16 30 2 40q-3 2 -7 2q-28 -1 -45.5 16.5t-17.5 43.5t18.5 43.5t44.5 17.5q31 0 52.5 -25t21.5 -67q0 -60 -41 -101.5t-97 -39.5z" glyph-name="comma" horiz-adv-x="226" unicode=","/><glyph d="M367 319q13 0 13 -13v-49q0 -14 -13 -14h-300q-13 0 -13 14v49q0 13 13 13h300z" glyph-name="hyphen" horiz-adv-x="434" unicode="-"/><glyph d="M104 -13q-25 0 -42.5 17.5t-17.5 42.5t17.5 42.5t42.5 17.5t42.5 -17.5t17.5 -42.5t-17.5 -42.5t-42.5 -17.5z" glyph-name="period" horiz-adv-x="208" unicode="."/><glyph d="M428 745q17 0 11 -17l-324 -846q-4 -12 -17 -12h-65q-17 0 -11 17l324 846q4 12 18 12h64z" glyph-name="slash" horiz-adv-x="461" unicode="/"/><glyph d="M314 708q119 0 192 -94.5t73 -266.5q0 -171 -73 -265.5t-192 -94.5t-192 94.5t-73 265.5q0 172 73 266.5t192 94.5zM314 624q-85 0 -131 -73.5t-46 -203.5q0 -129 46 -202t131 -73q84 0 130.5 73t46.5 202q0 130 -46.5 203.5t-130.5 73.5z" glyph-name="zero" horiz-adv-x="628" unicode="0"/><glyph d="M238 700q13 0 13 -14v-672q0 -14 -13 -14h-63q-14 0 -14 14v608h-109q-13 0 -13 14v50q0 14 13 14h186z" glyph-name="one" horiz-adv-x="315" unicode="1"/><glyph d="M432 78q14 0 14 -14v-50q0 -14 -14 -14h-372q-14 0 -14 14v51q0 12 7 19l215 249q30 34 43.5 51.5t30.5 53t17 68.5q0 52 -34.5 85.5t-90.5 33.5q-33 0 -60 -13.5t-40 -27.5t-28 -36q-10 -13 -20 -1l-37 35q-9 9 -1 22q67 104 192 104q93 0 150 -56t57 -139 q0 -42 -18 -85t-34 -64t-45 -54l-197 -232h279z" glyph-name="two" horiz-adv-x="508" unicode="2"/><glyph d="M238 -13q-128 0 -196 99q-7 11 3 20l39 36q10 10 18 -2q54 -69 133 -69q61 0 98.5 36.5t37.5 93.5q0 59 -40.5 95.5t-102.5 36.5h-20q-14 0 -14 13v49q0 13 14 13h20q54 0 86 32.5t32 79.5q0 46 -30.5 75.5t-79.5 29.5q-73 0 -114 -67q-8 -12 -20 -2l-38 36q-8 8 -1 18 q27 43 74 70.5t107 27.5q81 0 135 -49t54 -125q0 -54 -28 -94.5t-75 -63.5q59 -21 95.5 -68.5t36.5 -115.5q0 -89 -63 -147t-161 -58z" glyph-name="three" horiz-adv-x="508" unicode="3"/><glyph d="M502 235q12 0 12 -15v-48q0 -14 -12 -14h-71v-144q0 -14 -13 -14h-63q-14 0 -14 14v144h-282q-15 0 -15 15v54q0 10 4 16l287 447q7 10 18 10h64q14 0 14 -15v-450h71zM134 235h207v324z" glyph-name="four" horiz-adv-x="558" unicode="4"/><glyph d="M275 458q92 0 155 -65t63 -167q0 -107 -69 -173t-171 -66q-67 0 -118.5 28t-78.5 67q-7 14 3 21l43 34q12 7 21 -5q49 -61 129 -61q66 0 110 44t44 113q0 67 -43 109.5t-106 42.5q-77 0 -120 -56q-9 -10 -25 -4l-40 17q-13 5 -10 18l72 332q3 13 16 13h284q13 0 13 -14 v-50q0 -14 -13 -14h-232l-42 -195q49 31 115 31z" glyph-name="five" horiz-adv-x="539" unicode="5"/><glyph d="M281 452q98 0 164.5 -65t66.5 -165t-66.5 -167.5t-166.5 -67.5q-99 0 -166 67t-67 166q0 91 73 184l236 308q9 13 19 4l45 -37q10 -9 2 -19l-164 -209q8 1 24 1zM279 71q63 0 104 42.5t41 108.5t-41 108.5t-104 42.5t-104 -42.5t-41 -108.5t41 -108.5t104 -42.5z" glyph-name="six" horiz-adv-x="558" unicode="6"/><glyph d="M464 700q7 0 10 -5.5t0 -12.5l-272 -667q-5 -15 -17 -15h-61q-17 0 -10 17l253 605h-315q-13 0 -13 14v50q0 14 13 14h412z" glyph-name="seven" horiz-adv-x="505" unicode="7"/><glyph d="M276 -13q-95 0 -161 59t-66 152q0 69 37 119.5t94 72.5q-42 22 -65.5 61t-23.5 86q0 72 51.5 121.5t133.5 49.5q83 0 134 -49.5t51 -121.5q0 -47 -23.5 -86t-65.5 -61q57 -22 94 -72.5t37 -119.5q0 -93 -66 -152t-161 -59zM276 425q46 0 75.5 30.5t29.5 75.5t-29.5 74.5 t-75.5 29.5t-75.5 -29.5t-29.5 -74.5t30 -75.5t75 -30.5zM276 69q61 0 100 37.5t39 96.5q0 61 -40.5 98.5t-98.5 37.5q-57 0 -98 -38t-41 -98q0 -59 39.5 -96.5t99.5 -37.5z" glyph-name="eight" horiz-adv-x="552" unicode="8"/><glyph d="M279 708q100 0 166.5 -67t66.5 -166q0 -90 -72 -184l-237 -308q-9 -13 -19 -4l-45 38q-9 8 -2 18l165 209q-8 -1 -25 -1q-98 0 -164.5 65t-66.5 165t66.5 167.5t166.5 67.5zM279 322q63 0 104 42.5t41 108.5t-41 109t-104 43t-104 -43t-41 -109t41 -108.5t104 -42.5z" glyph-name="nine" horiz-adv-x="558" unicode="9"/><glyph d="M104 382q-25 0 -42.5 17.5t-17.5 42.5t17.5 42.5t42.5 17.5t42.5 -17.5t17.5 -42.5t-17.5 -42.5t-42.5 -17.5zM104 -12q-25 0 -42.5 17.5t-17.5 42.5t17.5 42.5t42.5 17.5t42.5 -17.5t17.5 -42.5t-17.5 -42.5t-42.5 -17.5z" glyph-name="colon" horiz-adv-x="208" unicode=":"/><glyph d="M105 382q-25 0 -42.5 17.5t-17.5 42.5t17.5 42.5t42.5 17.5t42.5 -17.5t17.5 -42.5t-17.5 -42.5t-42.5 -17.5zM44 -126v28q46 1 69 42q16 30 2 40q-3 2 -7 2q-28 -1 -45.5 16.5t-17.5 43.5t18.5 43.5t44.5 17.5q31 0 52.5 -25t21.5 -67q0 -60 -41 -101.5t-97 -39.5z" glyph-name="semicolon" horiz-adv-x="226" unicode=";"/><glyph d="M439 19l-368 191q-11 5 -11 18v43q0 12 11 18l368 192q7 5 12.5 2t5.5 -11v-53q0 -10 -11 -15l-305 -154l305 -154q11 -6 11 -16v-52q0 -8 -5.5 -11t-12.5 2z" glyph-name="less" horiz-adv-x="517" unicode="&lt;"/><glyph d="M79 317q-14 0 -14 14v44q0 15 14 15h307q14 0 14 -15v-44q0 -14 -14 -14h-307zM79 180q-14 0 -14 14v45q0 14 14 14h307q14 0 14 -14v-45q0 -14 -14 -14h-307z" glyph-name="equal" horiz-adv-x="465" unicode="="/><glyph d="M78 19q-8 -5 -13 -2t-5 11v52q0 10 11 16l305 154l-305 154q-11 5 -11 15v53q0 8 5 11t13 -2l368 -192q11 -6 11 -18v-43q0 -13 -11 -18z" glyph-name="greater" horiz-adv-x="517" unicode=">"/><glyph d="M189 191q-14 0 -14 15v37q0 45 14.5 80.5t35.5 57.5t42 42t36 46t15 57q0 46 -28 70.5t-72 24.5q-80 0 -118 -87q-6 -12 -23 -2l-33 21q-17 10 -12 24q19 55 69 93t125 38q78 0 130.5 -44t52.5 -122q0 -41 -15.5 -75t-37.5 -57.5t-44 -46t-38.5 -53.5t-18.5 -68l-1 -36 q0 -15 -14 -15h-51zM215 -13q-25 0 -42.5 17.5t-17.5 42.5t17.5 42.5t42.5 17.5t42.5 -17.5t17.5 -42.5t-17.5 -42.5t-42.5 -17.5z" glyph-name="question" horiz-adv-x="455" unicode="?"/><glyph d="M427 708q147 0 250 -96.5t103 -253.5q0 -102 -44 -149.5t-105 -47.5q-70 0 -91 58q-50 -58 -129 -58q-78 0 -128.5 53t-50.5 131t50.5 130.5t128.5 52.5q83 0 131 -61l16 41h47l-21 -211q-7 -70 48 -70q71 0 71 123q0 135 -80.5 210t-194.5 75q-117 0 -203.5 -76.5 t-86.5 -209.5q0 -132 87.5 -210.5t202.5 -78.5q86 0 148 45l45 -52q-73 -66 -196 -66q-148 0 -256 101t-108 261q0 108 53 191.5t135.5 125.5t177.5 42zM414 228q51 0 82.5 33t31.5 84t-31.5 83.5t-82.5 32.5q-52 0 -82.5 -32.5t-30.5 -83.5t30.5 -84t82.5 -33z" glyph-name="at" horiz-adv-x="841" unicode="@"/><glyph d="M638 17q7 -17 -12 -17h-68q-12 0 -16 12l-46 134h-306l-46 -134q-4 -12 -17 -12h-68q-18 0 -11 17l240 671q4 12 18 12h73q15 0 19 -12zM219 229h248l-124 357z" glyph-name="A" horiz-adv-x="686" unicode="A"/><glyph d="M96 0q-15 0 -15 14v672q0 14 15 14h211q96 0 143.5 -49.5t47.5 -121.5q0 -51 -26 -91.5t-73 -58.5q65 -15 103.5 -64t38.5 -119q0 -89 -61 -142.5t-177 -53.5h-207zM174 410h120q53 0 84 28t31 80q0 99 -115 99h-120v-207zM174 83h123q149 0 149 125q0 61 -38.5 94 t-110.5 33h-123v-252z" glyph-name="B" horiz-adv-x="587" unicode="B"/><glyph d="M418 -13q-153 0 -255 103.5t-102 256.5t102 257t255 104q138 0 239 -93q11 -11 2 -23l-40 -43q-9 -11 -21 0q-79 68 -179 68q-113 0 -188 -77t-75 -193t75 -192.5t188 -76.5q100 0 179 68q11 11 21 1l40 -44q10 -10 -2 -22q-100 -94 -239 -94z" glyph-name="C" horiz-adv-x="720" unicode="C"/><glyph d="M96 0q-15 0 -15 14v672q0 14 15 14h167q174 0 265 -97t91 -253t-91 -253t-265 -97h-167zM175 84h86q133 0 198 69t65 197t-65 197.5t-198 69.5h-86v-533z" glyph-name="D" horiz-adv-x="675" unicode="D"/><glyph d="M96 0q-15 0 -15 14v672q0 14 15 14h340q15 0 15 -14v-55q0 -14 -15 -14h-261v-216h248q14 0 14 -14v-55q0 -14 -14 -14h-248v-234h262q14 0 14 -15v-55q0 -14 -14 -14h-341z" glyph-name="E" horiz-adv-x="523" unicode="E"/><glyph d="M96 0q-15 0 -15 14v672q0 14 15 14h332q15 0 15 -14v-55q0 -14 -15 -14h-253v-210h240q15 0 15 -14v-55q0 -14 -15 -14h-240v-310q0 -14 -14 -14h-65z" glyph-name="F" horiz-adv-x="509" unicode="F"/><glyph d="M729 373q15 0 15 -15v-41q0 -142 -88 -236t-235 -94q-154 0 -257 103.5t-103 256.5t103 257t256 104q140 0 238 -95q11 -10 2 -20l-41 -45q-9 -10 -18 -1q-81 70 -181 70q-113 0 -188.5 -77t-75.5 -193t76 -192.5t191 -76.5q102 0 165.5 59.5t65.5 151.5h-224 q-14 0 -14 14v56q0 14 14 14h299z" glyph-name="G" horiz-adv-x="795" unicode="G"/><glyph d="M564 700q15 0 15 -14v-672q0 -14 -15 -14h-65q-14 0 -14 14v291h-310v-291q0 -14 -14 -14h-65q-15 0 -15 14v672q0 14 15 14h65q14 0 14 -14v-298h310v298q0 14 14 14h65z" glyph-name="H" horiz-adv-x="660" unicode="H"/><glyph d="M96 0q-15 0 -15 14v672q0 14 15 14h65q14 0 14 -14v-672q0 -14 -14 -14h-65z" glyph-name="I" horiz-adv-x="256" unicode="I"/><glyph d="M220 -13q-101 0 -163 70q-9 12 0 22l34 45q9 11 19 1q53 -47 108 -47q122 0 122 158v450q0 14 14 14h65q14 0 14 -14v-450q0 -121 -57.5 -185t-155.5 -64z" glyph-name="J" horiz-adv-x="514" unicode="J"/><glyph d="M583 18q5 -8 2.5 -13t-11.5 -5h-75q-12 0 -18 9l-220 297l-86 -110v-182q0 -14 -14 -14h-65q-15 0 -15 14v672q0 14 15 14h65q14 0 14 -14v-362l274 368q7 8 18 8h80q10 0 12 -5t-4 -13l-238 -304z" glyph-name="K" horiz-adv-x="628" unicode="K"/><glyph d="M418 84q15 0 15 -15v-54q0 -15 -15 -15h-322q-15 0 -15 14v672q0 14 15 14h65q14 0 14 -14v-602h243z" glyph-name="L" horiz-adv-x="484" unicode="L"/><glyph d="M781 700q14 0 14 -14v-672q0 -14 -14 -14h-65q-15 0 -15 14v522l-14 -44l-200 -481q-4 -11 -17 -11h-64q-13 0 -17 11l-200 481l-14 44v-522q0 -14 -14 -14h-65q-15 0 -15 14v672q0 14 15 14h83q12 0 16 -10l243 -585l243 585q4 10 17 10h83z" glyph-name="M" horiz-adv-x="876" unicode="M"/><glyph d="M581 700q14 0 14 -14v-672q0 -14 -14 -14h-83q-12 0 -18 10l-305 549v-545q0 -14 -14 -14h-65q-15 0 -15 14v672q0 14 15 14h82q12 0 18 -10l306 -551v547q0 14 14 14h65z" glyph-name="N" horiz-adv-x="677" unicode="N"/><glyph d="M420 -13q-151 0 -255 104.5t-104 255.5q0 152 104 256.5t255 104.5q150 0 254 -104.5t104 -256.5q0 -151 -104 -255.5t-254 -104.5zM420 78q113 0 188.5 77t75.5 192t-75.5 192.5t-188.5 77.5t-188.5 -77.5t-75.5 -192.5t75.5 -192t188.5 -77z" glyph-name="O" horiz-adv-x="840" unicode="O"/><glyph d="M96 0q-15 0 -15 14v672q0 14 15 14h196q113 0 174 -60t61 -160t-61 -160t-174 -60h-117v-246q0 -14 -14 -14h-65zM175 343h111q68 0 109 32.5t41 104.5t-41 104.5t-109 32.5h-111v-274z" glyph-name="P" horiz-adv-x="578" unicode="P"/><glyph d="M773 52q11 -10 1 -20l-43 -44q-11 -9 -21 1l-71 71q-95 -73 -219 -73q-151 0 -255 104.5t-104 255.5q0 152 104 256.5t255 104.5q150 0 254 -104.5t104 -256.5q0 -127 -76 -224zM420 78q87 0 154 48l-90 90q-10 10 -1 20l43 43q10 10 21 -1l89 -89q48 70 48 158 q0 115 -75.5 192.5t-188.5 77.5t-188.5 -77.5t-75.5 -192.5t75.5 -192t188.5 -77z" glyph-name="Q" horiz-adv-x="840" unicode="Q"/><glyph d="M531 18q11 -18 -10 -18h-69q-12 0 -18 10l-163 250h-96v-246q0 -14 -14 -14h-65q-15 0 -15 14v672q0 14 15 14h196q113 0 174 -60t61 -160q0 -82 -42 -138t-121 -74zM175 617v-274h111q68 0 109 32.5t41 104.5t-41 104.5t-109 32.5h-111z" glyph-name="R" horiz-adv-x="585" unicode="R"/><glyph d="M270 -12q-140 0 -213 105q-8 12 1 21l34 39q11 11 23 -1q63 -78 154 -78q61 0 96 29.5t35 79.5q0 46 -28 72.5t-87 54.5l-85 41q-128 59 -128 176q0 83 57 132t143 49q115 0 191 -90q11 -11 -1 -24l-30 -36q-11 -13 -23 -1q-62 65 -134 65q-50 0 -81 -25t-31 -69 q0 -36 21 -59.5t68 -46.5l79 -38q36 -17 60 -32.5t49.5 -39t38 -56t12.5 -73.5q0 -91 -62.5 -143t-158.5 -52z" glyph-name="S" horiz-adv-x="544" unicode="S"/><glyph d="M236 0q-14 0 -14 14v603h-146q-15 0 -15 14v55q0 14 15 14h385q14 0 14 -14v-55q0 -14 -14 -14h-146v-603q0 -14 -14 -14h-65z" glyph-name="T" horiz-adv-x="537" unicode="T"/><glyph d="M318 -13q-109 0 -175.5 66.5t-66.5 186.5v446q0 14 15 14h65q14 0 14 -14v-439q0 -83 40 -126t108 -43q69 0 109 43t40 126v439q0 14 14 14h65q14 0 14 -14v-446q0 -121 -66 -187t-176 -66z" glyph-name="U" horiz-adv-x="637" unicode="U"/><glyph d="M306 0q-14 0 -18 12l-240 671q-7 17 11 17h68q13 0 17 -12l199 -574l199 574q4 12 16 12h68q19 0 12 -17l-240 -671q-4 -12 -19 -12h-73z" glyph-name="V" horiz-adv-x="686" unicode="V"/><glyph d="M1022 700q17 0 12 -17l-205 -671q-4 -12 -18 -12h-72q-14 0 -18 12l-180 572l-181 -572q-4 -12 -17 -12h-73q-14 0 -17 12l-206 671q-5 17 12 17h66q14 0 17 -12l167 -563l181 563q4 12 17 12h68q12 0 16 -12l181 -563l167 563q4 12 17 12h66z" glyph-name="W" horiz-adv-x="1081" unicode="W"/><glyph d="M576 18q5 -8 2.5 -13t-11.5 -5h-71q-11 0 -17 10l-161 265l-162 -265q-6 -10 -17 -10h-71q-9 0 -11.5 5t2.5 13l208 340l-198 324q-5 8 -2.5 13t11.5 5h71q12 0 18 -10l151 -248l151 248q5 10 17 10h71q9 0 11.5 -5t-2.5 -13l-197 -323z" glyph-name="X" horiz-adv-x="635" unicode="X"/><glyph d="M547 700q9 0 11.5 -5t-2.5 -13l-207 -350v-318q0 -14 -14 -14h-65q-14 0 -14 14v318l-207 350q-5 8 -2 13t12 5h70q11 0 17 -10l157 -270l156 270q6 10 18 10h70z" glyph-name="Y" horiz-adv-x="605" unicode="Y"/><glyph d="M71 0q-15 0 -15 14v60q0 9 6 18l333 525h-314q-15 0 -15 14v55q0 14 15 14h396q14 0 14 -14v-60q0 -9 -6 -18l-332 -524h334q14 0 14 -15v-55q0 -14 -14 -14h-416z" glyph-name="Z" horiz-adv-x="563" unicode="Z"/><glyph d="M226 745q14 0 14 -13v-49q0 -13 -14 -13h-74v-725h74q14 0 14 -13v-49q0 -13 -14 -13h-154q-13 0 -13 13v849q0 13 13 13h154z" glyph-name="bracketleft" horiz-adv-x="299" unicode="["/><glyph d="M33 745h65q13 0 17 -12l324 -846q6 -17 -11 -17h-64q-14 0 -18 12l-324 846q-6 17 11 17z" glyph-name="backslash" horiz-adv-x="461" unicode="\"/><glyph d="M72 745h154q14 0 14 -13v-849q0 -13 -14 -13h-154q-13 0 -13 13v49q0 13 13 13h74v725h-74q-13 0 -13 13v49q0 13 13 13z" glyph-name="bracketright" horiz-adv-x="299" unicode="]"/><glyph d="M63 321l191 368q5 11 18 11h44q11 0 17 -11l192 -368q5 -7 2 -12.5t-11 -5.5h-52q-11 0 -16 11l-154 305l-154 -305q-5 -11 -15 -11h-53q-8 0 -11 5.5t2 12.5z" glyph-name="asciicircum" horiz-adv-x="588" unicode="^"/><glyph d="M547 0q13 0 13 -14v-49q0 -13 -13 -13h-473q-14 0 -14 13v49q0 14 14 14h473z" glyph-name="underscore" horiz-adv-x="620" unicode="_"/><glyph d="M27 700h59q11 0 16 -12l55 -115q7 -16 -10 -16h-57q-10 0 -17 12l-56 115q-7 16 10 16z" glyph-name="grave" horiz-adv-x="174" unicode="`"/><glyph d="M539 490q14 0 14 -14v-462q0 -14 -14 -14h-58q-13 0 -13 14l-2 74q-56 -100 -181 -100q-105 0 -172 73t-67 184q0 110 67 183.5t172 73.5q124 0 181 -101l2 75q0 14 13 14h58zM301 71q72 0 117.5 47.5t45.5 125.5t-45.5 126.5t-117.5 48.5q-73 0 -120 -48.5t-47 -125.5 t47 -125.5t120 -48.5z" glyph-name="a" horiz-adv-x="624" unicode="a"/><glyph d="M339 502q105 0 172 -73.5t67 -183.5q0 -111 -67 -184t-172 -73q-125 0 -181 100l-2 -74q0 -14 -13 -14h-58q-14 0 -14 14v687q0 14 14 14h63q14 0 14 -14v-293q58 94 177 94zM323 71q73 0 120 48.5t47 125.5t-47 125.5t-120 48.5q-72 0 -117.5 -48.5t-45.5 -126.5 t45.5 -125.5t117.5 -47.5z" glyph-name="b" horiz-adv-x="624" unicode="b"/><glyph d="M302 -12q-109 0 -182.5 74t-73.5 184t73 183t183 73q117 0 185 -83q9 -12 0 -21l-35 -33q-11 -12 -23 0q-51 54 -124 54q-74 0 -122.5 -48.5t-48.5 -124.5t48.5 -125t124.5 -49q73 0 122 52q13 13 24 2l35 -34q9 -9 0 -20q-68 -84 -186 -84z" glyph-name="c" horiz-adv-x="539" unicode="c"/><glyph d="M539 715q14 0 14 -14v-687q0 -14 -14 -14h-58q-13 0 -13 14l-2 74q-56 -100 -181 -100q-105 0 -172 73t-67 184q0 110 67 183.5t172 73.5q119 0 177 -94v293q0 14 14 14h63zM301 71q72 0 117.5 47.5t45.5 125.5t-45.5 126.5t-117.5 48.5q-73 0 -120 -48.5t-47 -125.5 t47 -125.5t120 -48.5z" glyph-name="d" horiz-adv-x="624" unicode="d"/><glyph d="M525 270q0 -31 -8.5 -44.5t-32.5 -13.5h-350q9 -68 56 -109t126 -41q74 0 133 42q10 7 16 -1l22 -31q9 -10 -4 -21q-65 -63 -175 -63q-118 0 -190 74t-72 185q0 109 69.5 182t178.5 73q105 0 168 -68.5t63 -163.5zM294 425q-65 0 -109 -39.5t-52 -106.5h312 q-4 66 -44.5 106t-106.5 40z" glyph-name="e" horiz-adv-x="571" unicode="e"/><glyph d="M270 649q-38 0 -51.5 -19t-13.5 -55v-85h98q15 0 15 -14v-44q0 -15 -15 -15h-98v-403q0 -14 -14 -14h-63q-14 0 -14 14v403h-58q-15 0 -15 15v44q0 14 15 14h58v101q0 140 139 140q35 0 56 -10q9 -5 9 -13v-55q0 -9 -13 -7q-19 3 -35 3z" glyph-name="f" horiz-adv-x="359" unicode="f"/><glyph d="M533 490q13 0 13 -14v-455q0 -59 -21.5 -104t-58 -70.5t-80.5 -38.5t-93 -13q-107 0 -176 49q-14 9 -7 23l19 35q6 13 20 6q61 -38 138 -38q74 0 123 37t49 117v74q-56 -91 -176 -91q-105 0 -171 69t-66 179q0 108 66 177.5t170 69.5q122 0 178 -94l1 68q0 14 14 14h58z M297 89q71 0 115.5 44.5t44.5 119.5q0 76 -44.5 121.5t-115.5 45.5t-117 -45.5t-46 -119.5q0 -75 46 -120.5t117 -45.5z" glyph-name="g" horiz-adv-x="617" unicode="g"/><glyph d="M318 502q81 0 130.5 -52.5t49.5 -147.5v-288q0 -14 -14 -14h-63q-13 0 -13 14v274q0 62 -30.5 96.5t-86.5 34.5q-57 0 -93.5 -35.5t-36.5 -95.5v-274q0 -14 -13 -14h-63q-14 0 -14 14v687q0 14 14 14h63q13 0 13 -14v-288q50 89 157 89z" glyph-name="h" unicode="h"/><glyph d="M117 606q-23 0 -38.5 16t-15.5 38t15.5 38t38.5 16q22 0 37.5 -15.5t15.5 -38.5t-15.5 -38.5t-37.5 -15.5zM85 0q-13 0 -13 14v462q0 14 13 14h63q14 0 14 -14v-462q0 -14 -14 -14h-63z" glyph-name="i" horiz-adv-x="233" unicode="i"/><glyph d="M127 606q-23 0 -38.5 15.5t-15.5 38.5t15.5 38.5t38.5 15.5q22 0 37.5 -15.5t15.5 -38.5t-15.5 -38.5t-37.5 -15.5zM32 -200q-34 0 -55 10q-9 4 -9 13v55q0 9 12 7q21 -3 36 -3q38 0 51.5 19t13.5 55v520q0 14 14 14h63q13 0 13 -14v-536q0 -140 -139 -140z" glyph-name="j" horiz-adv-x="243" unicode="j"/><glyph d="M498 17q5 -7 2.5 -12t-11.5 -5h-67q-12 0 -18 9l-164 212l-78 -86v-121q0 -14 -14 -14h-63q-14 0 -14 14v687q0 14 14 14h63q14 0 14 -14v-454l211 235q7 8 17 8h76q8 0 9.5 -5t-3.5 -11l-176 -193z" glyph-name="k" horiz-adv-x="538" unicode="k"/><glyph d="M85 0q-14 0 -14 14v687q0 14 14 14h63q14 0 14 -14v-687q0 -14 -14 -14h-63z" glyph-name="l" horiz-adv-x="233" unicode="l"/><glyph d="M595 502q78 0 121 -50.5t43 -145.5v-292q0 -14 -14 -14h-63q-13 0 -13 14v278q0 127 -99 127q-50 0 -80 -34t-30 -93v-278q0 -14 -13 -14h-63q-14 0 -14 14v278q0 61 -26.5 94t-75.5 33q-50 0 -78.5 -33.5t-28.5 -93.5v-278q0 -14 -13 -14h-63q-14 0 -14 14v462 q0 14 14 14h59q14 0 14 -15l2 -56q44 83 139 83q105 0 143 -94q45 94 153 94z" glyph-name="m" horiz-adv-x="830" unicode="m"/><glyph d="M318 502q81 0 130.5 -52.5t49.5 -147.5v-288q0 -14 -14 -14h-63q-13 0 -13 14v274q0 62 -30.5 96.5t-86.5 34.5q-57 0 -93.5 -35.5t-36.5 -95.5v-274q0 -14 -13 -14h-63q-14 0 -14 14v462q0 14 14 14h59q14 0 14 -15l3 -62q50 89 157 89z" glyph-name="n" unicode="n"/><glyph d="M299 -12q-108 0 -180.5 73.5t-72.5 183.5t72.5 183.5t180.5 73.5t180 -73.5t72 -183.5t-72 -183.5t-180 -73.5zM299 72q71 0 118 48.5t47 124.5q0 77 -47 125.5t-118 48.5q-72 0 -118.5 -48.5t-46.5 -125.5t46.5 -125t118.5 -48z" glyph-name="o" horiz-adv-x="597" unicode="o"/><glyph d="M339 502q105 0 172 -73.5t67 -183.5q0 -111 -67 -184t-172 -73q-119 0 -177 93v-257q0 -14 -14 -14h-63q-14 0 -14 14v652q0 14 14 14h58q13 0 13 -14l2 -75q57 101 181 101zM323 71q73 0 120 48.5t47 125.5t-47 125.5t-120 48.5q-72 0 -117.5 -48.5t-45.5 -126.5 t45.5 -125.5t117.5 -47.5z" glyph-name="p" horiz-adv-x="624" unicode="p"/><glyph d="M539 490q14 0 14 -14v-652q0 -14 -14 -14h-63q-14 0 -14 14v257q-58 -93 -177 -93q-105 0 -172 73t-67 184q0 110 67 183.5t172 73.5q124 0 181 -101l2 75q0 14 13 14h58zM301 71q72 0 117.5 47.5t45.5 125.5t-45.5 126.5t-117.5 48.5q-73 0 -120 -48.5t-47 -125.5 t47 -125.5t120 -48.5z" glyph-name="q" horiz-adv-x="624" unicode="q"/><glyph d="M317 492q8 -7 8 -18v-49q0 -15 -18 -10q-16 5 -36 5q-56 0 -83 -38.5t-27 -90.5v-277q0 -14 -13 -14h-63q-14 0 -14 14v462q0 14 14 14h59q14 0 14 -15l3 -59q30 86 111 86q30 0 45 -10z" glyph-name="r" horiz-adv-x="363" unicode="r"/><glyph d="M222 -12q-104 0 -166 76q-9 11 0 26l20 28q11 14 24 1q56 -54 118 -54q39 0 62.5 17.5t23.5 50.5q0 28 -17 45t-53 32l-59 25q-109 45 -109 131q0 62 45.5 99t110.5 37q93 0 149 -70q8 -10 -1 -21l-24 -28q-11 -13 -24 0q-45 45 -96 45q-32 0 -53 -16t-21 -44t18 -44 t56 -31l54 -22q54 -22 84 -54.5t29 -85.5q0 -67 -49.5 -105t-121.5 -38z" glyph-name="s" horiz-adv-x="445" unicode="s"/><glyph d="M291 417h-82v-302q0 -50 45 -50q11 0 31 2q19 3 19 -13v-42q0 -24 -69 -24q-55 0 -85.5 28.5t-30.5 87.5v313h-63q-15 0 -15 15v44q0 14 15 14h63v116q0 14 14 14h63q13 0 13 -14v-116h82q14 0 14 -14v-44q0 -15 -14 -15z" glyph-name="t" horiz-adv-x="346" unicode="t"/><glyph d="M484 490q14 0 14 -14v-462q0 -14 -14 -14h-59q-14 0 -14 15l-3 62q-50 -89 -157 -89q-81 0 -130 53t-49 148v287q0 14 13 14h63q14 0 14 -14v-274q0 -62 30 -96t86 -34q58 0 94 35t36 95v274q0 14 13 14h63z" glyph-name="u" unicode="u"/><glyph d="M244 0q-14 0 -18 12l-183 461q-6 17 11 17h64q12 0 16 -12l142 -376l142 376q5 12 16 12h64q17 0 11 -17l-183 -461q-4 -12 -18 -12h-64z" glyph-name="v" horiz-adv-x="552" unicode="v"/><glyph d="M220 0q-14 0 -18 12l-159 461q-6 17 11 17h62q12 0 16 -12l124 -377l130 377q4 12 18 12h65q14 0 18 -12l129 -377l124 377q4 12 17 12h61q18 0 12 -17l-159 -461q-5 -12 -18 -12h-67q-14 0 -18 12l-132 377l-131 -377q-5 -12 -18 -12h-67z" glyph-name="w" horiz-adv-x="873" unicode="w"/><glyph d="M53 0q-19 0 -9 17l152 233l-145 223q-10 17 9 17h69q11 0 17 -10l104 -166l104 166q6 10 17 10h70q18 0 8 -17l-145 -223l152 -233q5 -7 2.5 -12t-11.5 -5h-69q-11 0 -17 10l-111 177l-111 -177q-6 -10 -17 -10h-69z" glyph-name="x" horiz-adv-x="500" unicode="x"/><glyph d="M172 -190q-17 0 -10 15l69 173l-188 475q-6 17 11 17h64q12 0 16 -12l142 -376l142 376q5 12 17 12h63q18 0 12 -17l-259 -651q-4 -12 -17 -12h-62z" glyph-name="y" horiz-adv-x="553" unicode="y"/><glyph d="M66 0q-15 0 -15 14v51q0 10 7 19l267 331h-256q-15 0 -15 14v47q0 14 15 14h341q15 0 15 -14v-51q0 -11 -7 -18l-266 -331h260q14 0 14 -15v-47q0 -14 -14 -14h-346z" glyph-name="z" horiz-adv-x="478" unicode="z"/><glyph d="M250 745q14 0 14 -13v-49q0 -13 -14 -13h-21q-35 0 -35 -35v-251q0 -10 -6 -19l-32 -49q-6 -9 0 -20l32 -47q6 -11 6 -19v-250q0 -35 35 -35h21q14 0 14 -13v-49q0 -13 -14 -13h-70q-34 0 -56.5 21.5t-22.5 59.5v274q0 11 -5 19l-33 52q-6 11 -1 20l34 54q5 9 5 19v275 q0 38 22.5 59.5t56.5 21.5h70z" glyph-name="braceleft" horiz-adv-x="322" unicode="{"/><glyph d="M96 -190q-15 0 -15 14v962q0 14 15 14h65q14 0 14 -14v-962q0 -14 -14 -14h-65z" glyph-name="bar" horiz-adv-x="256" unicode="|"/><glyph d="M72 745h70q34 0 57 -21.5t23 -59.5v-275q0 -10 5 -19l34 -54q5 -9 -1 -20l-33 -52q-5 -8 -5 -19v-274q0 -38 -22.5 -59.5t-57.5 -21.5h-70q-13 0 -13 13v49q0 13 13 13h22q35 0 35 35v250q0 10 5 19l32 47q7 10 0 20l-32 49q-5 7 -5 19v251q0 35 -35 35h-22q-13 0 -13 13 v49q0 13 13 13z" glyph-name="braceright" horiz-adv-x="322" unicode="}"/><glyph d="M313 221q-33 0 -61.5 18.5t-52.5 36.5t-47 18q-38 0 -47 -32q-3 -10 -12 -10h-23q-12 0 -10 13q2 43 29.5 66t67.5 23q34 0 62 -18t52 -36.5t47 -18.5q37 0 48 32q3 10 12 10h22q12 0 10 -13q-2 -43 -29.5 -66t-67.5 -23z" glyph-name="asciitilde" horiz-adv-x="470" unicode="~"/><glyph glyph-name="uni00A0" horiz-adv-x="199" unicode=" "/><glyph d="M119 533q25 0 42.5 -17.5t17.5 -42.5t-17.5 -42.5t-42.5 -17.5t-42.5 17.5t-17.5 42.5t17.5 42.5t42.5 17.5zM96 325h46q14 0 14 -14l10 -477q0 -14 -13 -14h-67q-14 0 -14 14l11 477q0 14 13 14z" glyph-name="exclamdown" horiz-adv-x="238" unicode="¡"/><glyph d="M448 214q7 -8 0 -18q-57 -68 -152 -74v-108q0 -14 -14 -14h-15q-13 0 -13 14v108q-90 9 -148.5 73t-58.5 156q0 91 58.5 154.5t148.5 72.5v109q0 13 13 13h15q14 0 14 -13v-109q95 -6 151 -73q8 -11 0 -18l-31 -30q-10 -10 -22 0q-41 43 -98 47v-308q58 4 98 46 q12 12 23 2zM126 351q0 -60 35.5 -101.5t92.5 -51.5v305q-57 -9 -92.5 -51t-35.5 -101z" glyph-name="cent" horiz-adv-x="499" unicode="¢"/><glyph d="M286 625q-55 0 -88.5 -33t-33.5 -85q0 -27 9 -52.5t26.5 -58t24.5 -50.5h142q14 0 14 -14v-37q0 -14 -14 -14h-125q2 -18 2 -27q0 -107 -85 -176h292q14 0 14 -14v-50q0 -14 -14 -14h-383q-14 0 -14 14v64q105 59 105 169q0 17 -3 34h-87q-14 0 -14 14v37q0 14 14 14h66 q-5 10 -19 37.5t-20.5 42.5t-13 40t-6.5 50q0 82 57 137t148 55q124 0 191 -104q9 -13 -1 -23l-37 -34q-10 -12 -20 1q-15 22 -28 36t-40 27.5t-59 13.5z" glyph-name="sterling" horiz-adv-x="528" unicode="£"/><glyph d="M517 476q0 -71 -42 -131l48 -49l-47 -46l-47 48q-60 -46 -136 -46t-135 45l-47 -47l-47 46l48 48q-43 59 -43 132t43 132l-48 48l47 46l47 -47q61 45 135 45q75 0 136 -45l47 47l47 -46l-48 -48q42 -60 42 -132zM293 312q69 0 116 48.5t47 115.5t-47 115.5t-116 48.5 t-116 -48.5t-47 -115.5t47 -115.5t116 -48.5z" glyph-name="currency" horiz-adv-x="587" unicode="¤"/><glyph d="M547 700q9 0 11.5 -5t-2.5 -13l-207 -350h87q15 0 15 -15v-36q0 -14 -15 -14h-87v-38h87q15 0 15 -15v-36q0 -14 -15 -14h-87v-150q0 -14 -14 -14h-65q-14 0 -14 14v150h-86q-15 0 -15 14v36q0 15 15 15h86v38h-86q-15 0 -15 14v36q0 15 15 15h86l-207 350q-5 8 -2 13 t12 5h70q11 0 17 -10l157 -270l156 270q6 10 18 10h70z" glyph-name="yen" horiz-adv-x="605" unicode="¥"/><glyph d="M96 490q-15 0 -15 14v282q0 14 15 14h65q14 0 14 -14v-282q0 -14 -14 -14h-65zM96 -190q-15 0 -15 14v282q0 14 15 14h65q14 0 14 -14v-282q0 -14 -14 -14h-65z" glyph-name="brokenbar" horiz-adv-x="256" unicode="¦"/><glyph d="M339 226q60 -41 60 -109t-49 -105.5t-122 -37.5q-105 0 -170 73q-10 12 -1 25l21 31q9 13 25 0q61 -52 122 -52q39 0 62 17.5t23 47.5q0 28 -18.5 45t-53.5 32l-62 25q-110 44 -110 132q0 77 70 114q-66 42 -66 111q0 62 46 98.5t113 36.5q95 0 153 -69q8 -10 -1 -21 l-24 -28q-11 -13 -24 0q-47 44 -100 44q-33 0 -54.5 -15t-21.5 -44q0 -28 17.5 -43.5t52.5 -29.5l61 -25q54 -22 84.5 -53t30.5 -84q0 -77 -64 -116zM152 352q0 -28 17.5 -43.5t52.5 -29.5l8 -3q38 0 61.5 17t23.5 47q0 38 -42 63q-22 8 -45 8q-33 0 -54.5 -15t-21.5 -44z " glyph-name="section" horiz-adv-x="456" unicode="§"/><glyph d="M65 606q-20 0 -35 14.5t-15 35.5q0 20 15 34.5t35 14.5t35 -14.5t15 -34.5q0 -21 -15 -35.5t-35 -14.5zM257 606q-20 0 -35 14.5t-15 35.5q0 20 15 34.5t35 14.5t35 -14.5t15 -34.5q0 -21 -15 -35.5t-35 -14.5z" glyph-name="dieresis" horiz-adv-x="322" unicode="¨"/><glyph d="M346 136q-119 0 -202 83.5t-83 202.5t83 202.5t202 83.5q118 0 201 -83.5t83 -202.5t-83 -202.5t-201 -83.5zM346 196q94 0 158.5 65.5t64.5 160.5t-64.5 161t-158.5 66t-159 -66t-65 -161t65 -160.5t159 -65.5zM351 266q-66 0 -110 45t-44 111q0 67 44 112t110 45 q71 0 113 -51q7 -6 0 -13l-21 -21q-7 -8 -16 1q-32 30 -73 30q-44 0 -72 -28.5t-28 -74.5q0 -45 28 -73.5t72 -28.5q41 0 73 30q9 8 16 1l21 -21q7 -7 0 -13q-42 -51 -113 -51z" glyph-name="copyright" horiz-adv-x="691" unicode="©"/><glyph d="M352 700h59v-359h-59l-7 55q-49 -55 -127 -55q-74 0 -123 52t-49 130t49 130t123 52q79 0 127 -56zM228 407q50 0 84 33t34 83q0 51 -33.5 84t-84.5 33q-50 0 -82.5 -33t-32.5 -84q0 -50 32.5 -83t82.5 -33z" glyph-name="ordfeminine" horiz-adv-x="458" unicode="ª"/><glyph d="M187 151q0 -7 -5.5 -9t-9.5 2l-115 88q-8 7 -8 17v58q0 9 8 16l115 88q4 5 9.5 2.5t5.5 -9.5v-48q0 -10 -8 -17l-84 -61l84 -62q8 -7 8 -17v-48zM348 151q0 -7 -5 -9t-10 2l-115 88q-8 7 -8 17v58q0 9 8 16l115 88q5 5 10 2.5t5 -9.5v-48q0 -10 -8 -17l-84 -61l84 -62 q8 -7 8 -17v-48z" glyph-name="guillemotleft" horiz-adv-x="396" unicode="«"/><glyph d="M380 143q-14 0 -14 14v72h-292q-14 0 -14 14v47q0 15 14 15h367q14 0 14 -15v-133q0 -14 -14 -14h-61z" glyph-name="logicalnot" horiz-adv-x="515" unicode="¬"/><glyph d="M367 319q13 0 13 -13v-49q0 -14 -13 -14h-300q-13 0 -13 14v49q0 13 13 13h300z" glyph-name="uni00AD" horiz-adv-x="434" unicode="­"/><glyph d="M346 708q118 0 201 -83.5t83 -202.5t-83 -202.5t-201 -83.5q-119 0 -202 83.5t-83 202.5t83 202.5t202 83.5zM346 196q94 0 158.5 65.5t64.5 160.5t-64.5 161t-158.5 66q-95 0 -159.5 -66t-64.5 -161t64.5 -160.5t159.5 -65.5zM402 379l80 -86q4 -5 2.5 -8.5t-7.5 -3.5 h-44q-7 0 -11 6l-81 89h-53v-86q0 -9 -8 -9h-37q-9 0 -9 9v265q0 8 9 8h127q51 0 81.5 -24.5t30.5 -69.5q0 -75 -80 -90zM288 516v-93h84q53 0 53 46q0 47 -53 47h-84z" glyph-name="registered" horiz-adv-x="691" unicode="®"/><glyph d="M310 700q15 0 15 -14v-44q0 -15 -15 -15h-281q-14 0 -14 15v44q0 14 14 14h281z" glyph-name="macron" horiz-adv-x="340" unicode="¯"/><glyph d="M207 425q-61 0 -104 42.5t-43 103.5t43 103t104 42q60 0 103 -42t43 -103t-43 -103.5t-103 -42.5zM207 485q36 0 60 25t24 61t-24 60.5t-60 24.5q-37 0 -61 -24.5t-24 -60.5t24 -61t61 -25z" glyph-name="degree" horiz-adv-x="413" unicode="°"/><glyph d="M366 321q14 0 14 -15v-44q0 -14 -14 -14h-106v-108q0 -14 -15 -14h-44q-14 0 -14 14v108h-108q-14 0 -14 14v44q0 15 14 15h108v106q0 14 14 14h44q15 0 15 -14v-106h106zM367 59q13 0 13 -13v-32q0 -14 -13 -14h-288q-14 0 -14 14v32q0 13 14 13h288z" glyph-name="plusminus" horiz-adv-x="445" unicode="±"/><glyph d="M125 704q41 0 64 -21.5t23 -53.5q0 -7 -1 -13t-3.5 -12t-4.5 -10.5t-7.5 -12t-8 -11t-11 -12l-11.5 -11.5t-14 -13.5t-15 -14.5l-44 -41h120v-38h-170v38l68 65l19 19t16.5 16t11.5 12t9 13t4 11.5t2 13.5q0 20 -13.5 30.5t-33.5 10.5q-19 0 -32 -11.5t-13 -34.5v-14h-40 v14q0 37 23 59t62 22z" glyph-name="uni00B2" horiz-adv-x="253" unicode="²"/><glyph d="M130 703q40 0 62.5 -19t22.5 -49q0 -38 -39 -56q50 -17 50 -65q0 -35 -25.5 -56.5t-68.5 -21.5q-46 0 -69 23.5t-23 61.5h39q0 -22 13.5 -36t39.5 -14q23 0 38 11.5t15 31.5q0 26 -18.5 35.5t-54.5 9.5v31q63 0 63 42q0 36 -45 36q-46 0 -46 -48h-39q-1 39 21 61t64 22z " glyph-name="uni00B3" horiz-adv-x="266" unicode="³"/><glyph d="M147 700q17 0 10 -16l-56 -115q-5 -12 -16 -12h-58q-17 0 -10 16l55 115q7 12 17 12h58z" glyph-name="acute" horiz-adv-x="174" unicode="´"/><glyph d="M484 490q14 0 14 -14v-462q0 -14 -14 -14h-59q-14 0 -14 15l-3 62q-50 -89 -157 -89q-51 0 -90 21v-185q0 -14 -14 -14h-61q-15 0 -15 14v509h1v143q0 14 13 14h63q14 0 14 -14v-274q0 -62 30 -96t86 -34q58 0 94 35t36 95v274q0 14 13 14h63z" glyph-name="uni00B5" unicode="µ"/><glyph d="M492 0h-65q-14 0 -14 14v246h-117q-113 0 -174 60t-61 160t61 160t174 60h196q15 0 15 -14v-672q0 -14 -15 -14zM602 0q-14 0 -14 14v672q0 14 14 14h65q14 0 14 -14v-672q0 -14 -14 -14h-65zM413 343v274h-111q-68 0 -109 -32.5t-41 -104.5t41 -104.5t109 -32.5h111z " glyph-name="paragraph" horiz-adv-x="763" unicode="¶"/><glyph d="M110 229q-25 0 -42.5 17.5t-17.5 42.5t17.5 42.5t42.5 17.5t42.5 -17.5t17.5 -42.5t-17.5 -42.5t-42.5 -17.5z" glyph-name="periodcentered" horiz-adv-x="220" unicode="·"/><glyph d="M94 -38q36 -2 61.5 -23t25.5 -57q0 -57 -46.5 -80t-110.5 -15q-9 1 -9 11v32q0 10 11 10q89 -8 89 36q0 23 -25.5 32t-62.5 -3q-12 -3 -12 7v31q0 7 5 12l43 45h69z" glyph-name="cedilla" horiz-adv-x="196" unicode="¸"/><glyph d="M108 701v-261h-40v223h-29v38h69z" glyph-name="uni00B9" horiz-adv-x="171" unicode="¹"/><glyph d="M229 341q-77 0 -130 52.5t-53 129.5t53 129.5t130 52.5q78 0 130.5 -52.5t52.5 -129.5t-52.5 -129.5t-130.5 -52.5zM229 407q50 0 83.5 33.5t33.5 82.5t-34 83t-83 34t-82.5 -34t-33.5 -83t33.5 -82.5t82.5 -33.5z" glyph-name="ordmasculine" horiz-adv-x="459" unicode="º"/><glyph d="M49 151v48q0 10 8 17l83 62l-83 61q-8 7 -8 17v48q0 7 5 9.5t10 -2.5l115 -88q8 -7 8 -16v-58q0 -10 -8 -17l-115 -88q-5 -4 -10 -2t-5 9zM210 151v48q0 10 8 17l83 62l-83 61q-8 7 -8 17v48q0 7 5 9.5t10 -2.5l115 -88q8 -7 8 -16v-58q0 -10 -8 -17l-115 -88 q-5 -4 -10 -2t-5 9z" glyph-name="guillemotright" horiz-adv-x="396" unicode="»"/><glyph d="M109 701v-261h-40v223h-29v38h69zM521 700l-423 -700h-46l423 700h46zM522 261v-164h27v-38h-27v-59h-40v59h-137l137 202h40zM482 204l-71 -107h71v107z" glyph-name="onequarter" horiz-adv-x="594" unicode="¼"/><glyph d="M109 701v-261h-40v223h-29v38h69zM521 700l-423 -700h-46l423 700h46zM450 264q40 0 63 -21.5t23 -53.5q0 -18 -10 -36t-19 -27.5t-38 -37.5l-9 -9l-43 -41h119v-38h-170v38l68 65q6 6 15.5 15t13 12.5t10 10.5t9 10t6 8.5t5 9.5t2.5 9t1 10q0 20 -13 30.5t-33 10.5 t-33 -11.5t-13 -34.5v-14h-40v14q0 37 23 59t63 22z" glyph-name="onehalf" horiz-adv-x="582" unicode="½"/><glyph d="M130 703q40 0 62.5 -19t22.5 -49q0 -38 -39 -56q50 -17 50 -65q0 -35 -25.5 -56.5t-68.5 -21.5q-46 0 -69 23.5t-23 61.5h39q0 -22 13.5 -36t39.5 -14q23 0 38 11.5t15 31.5q0 26 -18.5 35.5t-54.5 9.5v31q63 0 63 42q0 36 -45 36q-46 0 -46 -48h-39q-1 39 21 61t64 22z M552 700l-423 -700h-46l423 700h46zM543 261v-164h27v-38h-27v-59h-40v59h-137l137 202h40zM503 204l-71 -107h71v107z" glyph-name="threequarters" horiz-adv-x="610" unicode="¾"/><glyph d="M225 533q25 0 42.5 -17.5t17.5 -42.5t-17.5 -42.5t-42.5 -17.5t-42.5 17.5t-17.5 42.5t17.5 42.5t42.5 17.5zM251 329q14 0 14 -15v-37q0 -45 -14.5 -80t-35.5 -57.5t-42 -42.5t-36 -46t-15 -57q0 -46 28 -70.5t72 -24.5q80 0 118 87q6 12 23 2l33 -21q17 -10 12 -24 q-19 -55 -69 -93t-125 -38q-78 0 -130.5 44t-52.5 122q0 41 15.5 75t37.5 57.5t44 46.5t38.5 54t18.5 68l1 35q0 15 14 15h51z" glyph-name="questiondown" horiz-adv-x="455" unicode="¿"/><glyph d="M295 779l-56 115q-7 16 10 16h59q11 0 16 -12l55 -115q7 -16 -10 -16h-57q-10 0 -17 12zM638 17q7 -17 -12 -17h-68q-12 0 -16 12l-46 134h-306l-46 -134q-4 -12 -17 -12h-68q-18 0 -11 17l240 671q4 12 18 12h73q15 0 19 -12zM219 229h248l-124 357z" glyph-name="Agrave" horiz-adv-x="686" unicode="À"/><glyph d="M318 767q-17 0 -10 16l55 115q7 12 17 12h58q17 0 10 -16l-56 -115q-5 -12 -16 -12h-58zM638 17q7 -17 -12 -17h-68q-12 0 -16 12l-46 134h-306l-46 -134q-4 -12 -17 -12h-68q-18 0 -11 17l240 671q4 12 18 12h73q15 0 19 -12zM219 229h248l-124 357z" glyph-name="Aacute" horiz-adv-x="686" unicode="Á"/><glyph d="M217 782q-7 0 -9.5 5t2.5 10l87 105q7 8 16 8h61q9 0 16 -8l87 -105q5 -5 2.5 -10t-9.5 -5h-48q-10 0 -17 8l-62 76l-61 -76q-7 -8 -17 -8h-48zM638 17q7 -17 -12 -17h-68q-12 0 -16 12l-46 134h-306l-46 -134q-4 -12 -17 -12h-68q-18 0 -11 17l240 671q4 12 18 12h73 q15 0 19 -12zM219 229h248l-124 357z" glyph-name="Acircumflex" horiz-adv-x="686" unicode="Â"/><glyph d="M194 836q-11 0 -9 13q4 39 28.5 59.5t61.5 20.5q38 0 79.5 -33t65.5 -33q33 0 43 29q3 9 11 9h20q10 0 10 -10q-4 -40 -28.5 -61.5t-58.5 -21.5q-25 0 -47 10.5t-35.5 23t-31 23t-34.5 10.5q-33 0 -44 -30q-3 -9 -11 -9h-20zM638 17q7 -17 -12 -17h-68q-12 0 -16 12 l-46 134h-306l-46 -134q-4 -12 -17 -12h-68q-18 0 -11 17l240 671q4 12 18 12h73q15 0 19 -12zM219 229h248l-124 357z" glyph-name="Atilde" horiz-adv-x="686" unicode="Ã"/><glyph d="M247 816q-20 0 -35 14.5t-15 35.5q0 20 15 34.5t35 14.5t35 -14.5t15 -34.5q0 -21 -15 -35.5t-35 -14.5zM439 816q-20 0 -35 14.5t-15 35.5q0 20 15 34.5t35 14.5t35 -14.5t15 -34.5q0 -21 -15 -35.5t-35 -14.5zM638 17q7 -17 -12 -17h-68q-12 0 -16 12l-46 134h-306 l-46 -134q-4 -12 -17 -12h-68q-18 0 -11 17l240 671q4 12 18 12h73q15 0 19 -12zM219 229h248l-124 357z" glyph-name="Adieresis" horiz-adv-x="686" unicode="Ä"/><glyph d="M343 766q-37 0 -61.5 24t-24.5 60q0 35 24.5 59.5t61.5 24.5t62 -24.5t25 -59.5q0 -36 -25 -60t-62 -24zM343 877q-11 0 -19 -8t-8 -19t8 -19t19 -8q12 0 19.5 8t7.5 19t-7.5 19t-19.5 8zM638 17q7 -17 -12 -17h-68q-12 0 -16 12l-46 134h-306l-46 -134q-4 -12 -17 -12 h-68q-18 0 -11 17l240 671q4 12 18 12h73q15 0 19 -12zM219 229h248l-124 357z" glyph-name="Aring" horiz-adv-x="686" unicode="Å"/><glyph d="M786 84q14 0 14 -15v-55q0 -14 -14 -14h-342q-14 0 -14 14v151h-213l-72 -153q-5 -12 -17 -12h-69q-19 0 -11 17l326 671q6 12 18 12h393q14 0 14 -14v-55q0 -14 -14 -14h-261v-216h247q15 0 15 -14v-55q0 -14 -15 -14h-247v-234h262zM255 246h175v375z" glyph-name="AE" horiz-adv-x="871" unicode="Æ"/><glyph d="M657 81q-93 -87 -220 -94l-25 -25q36 -2 61.5 -23t25.5 -57q0 -57 -46.5 -80t-110.5 -15q-9 1 -9 11v32q0 10 11 10q89 -8 89 36q0 23 -25.5 32t-62.5 -3q-12 -3 -12 7v31q0 7 5 12l33 35q-136 17 -223 117t-87 240q0 153 102 257t255 104q138 0 239 -93q11 -11 2 -23 l-40 -43q-9 -11 -21 0q-79 68 -179 68q-113 0 -188 -77t-75 -193t75 -192.5t188 -76.5q100 0 179 68q11 11 21 1l40 -44q10 -10 -2 -22z" glyph-name="Ccedilla" horiz-adv-x="720" unicode="Ç"/><glyph d="M179 910h59q11 0 16 -12l55 -115q7 -16 -10 -16h-57q-10 0 -17 12l-56 115q-7 16 10 16zM96 0q-15 0 -15 14v672q0 14 15 14h340q15 0 15 -14v-55q0 -14 -15 -14h-261v-216h248q14 0 14 -14v-55q0 -14 -14 -14h-248v-234h262q14 0 14 -15v-55q0 -14 -14 -14h-341z" glyph-name="Egrave" horiz-adv-x="523" unicode="È"/><glyph d="M368 910q17 0 10 -16l-56 -115q-5 -12 -16 -12h-58q-17 0 -10 16l55 115q7 12 17 12h58zM96 0q-15 0 -15 14v672q0 14 15 14h340q15 0 15 -14v-55q0 -14 -15 -14h-261v-216h248q14 0 14 -14v-55q0 -14 -14 -14h-248v-234h262q14 0 14 -15v-55q0 -14 -14 -14h-341z" glyph-name="Eacute" horiz-adv-x="523" unicode="É"/><glyph d="M147 782q-7 0 -9.5 5t2.5 10l87 105q7 8 16 8h61q9 0 16 -8l87 -105q5 -5 2.5 -10t-9.5 -5h-48q-10 0 -17 8l-62 76l-61 -76q-7 -8 -17 -8h-48zM96 0q-15 0 -15 14v672q0 14 15 14h340q15 0 15 -14v-55q0 -14 -15 -14h-261v-216h248q14 0 14 -14v-55q0 -14 -14 -14h-248 v-234h262q14 0 14 -15v-55q0 -14 -14 -14h-341z" glyph-name="Ecircumflex" horiz-adv-x="523" unicode="Ê"/><glyph d="M178 816q-20 0 -35 14.5t-15 35.5q0 20 15 34.5t35 14.5t35 -14.5t15 -34.5q0 -21 -15 -35.5t-35 -14.5zM370 816q-20 0 -35 14.5t-15 35.5q0 20 15 34.5t35 14.5t35 -14.5t15 -34.5q0 -21 -15 -35.5t-35 -14.5zM96 0q-15 0 -15 14v672q0 14 15 14h340q15 0 15 -14v-55 q0 -14 -15 -14h-261v-216h248q14 0 14 -14v-55q0 -14 -14 -14h-248v-234h262q14 0 14 -15v-55q0 -14 -14 -14h-341z" glyph-name="Edieresis" horiz-adv-x="523" unicode="Ë"/><glyph d="M34 910h59q11 0 16 -12l55 -115q7 -16 -10 -16h-57q-10 0 -17 12l-56 115q-7 16 10 16zM96 0q-15 0 -15 14v672q0 14 15 14h65q14 0 14 -14v-672q0 -14 -14 -14h-65z" glyph-name="Igrave" horiz-adv-x="256" unicode="Ì"/><glyph d="M223 910q17 0 10 -16l-56 -115q-5 -12 -16 -12h-58q-17 0 -10 16l55 115q7 12 17 12h58zM96 0q-15 0 -15 14v672q0 14 15 14h65q14 0 14 -14v-672q0 -14 -14 -14h-65z" glyph-name="Iacute" horiz-adv-x="256" unicode="Í"/><glyph d="M2 782q-7 0 -9.5 5t1.5 10l88 105q7 8 16 8h61q9 0 16 -8l87 -105q5 -5 2.5 -10t-9.5 -5h-48q-10 0 -17 8l-62 76l-61 -76q-7 -8 -17 -8h-48zM96 0q-15 0 -15 14v672q0 14 15 14h65q14 0 14 -14v-672q0 -14 -14 -14h-65z" glyph-name="Icircumflex" horiz-adv-x="256" unicode="Î"/><glyph d="M32 816q-20 0 -35 14.5t-15 35.5q0 20 15 34.5t35 14.5t35 -14.5t15 -34.5q0 -21 -15 -35.5t-35 -14.5zM224 816q-20 0 -35 14.5t-15 35.5q0 20 15 34.5t35 14.5t35 -14.5t15 -34.5q0 -21 -15 -35.5t-35 -14.5zM96 0q-15 0 -15 14v672q0 14 15 14h65q14 0 14 -14v-672 q0 -14 -14 -14h-65z" glyph-name="Idieresis" horiz-adv-x="256" unicode="Ï"/><glyph d="M271 700q174 0 265 -97t91 -253t-91 -253t-265 -97h-167q-15 0 -15 14v298h-50q-14 0 -14 15v44q0 14 14 14h50v301q0 14 15 14h167zM269 84q133 0 198 69t65 197t-65 197.5t-198 69.5h-86v-232h137q15 0 15 -14v-44q0 -15 -15 -15h-137v-228h86z" glyph-name="Eth" horiz-adv-x="683" unicode="Ð"/><glyph d="M189 836q-11 0 -9 13q4 39 28.5 59.5t61.5 20.5q38 0 79.5 -33t65.5 -33q33 0 43 29q3 9 11 9h20q10 0 10 -10q-4 -40 -28.5 -61.5t-58.5 -21.5q-25 0 -47 10.5t-35.5 23t-31 23t-34.5 10.5q-33 0 -44 -30q-3 -9 -11 -9h-20zM581 700q14 0 14 -14v-672q0 -14 -14 -14h-83 q-12 0 -18 10l-305 549v-545q0 -14 -14 -14h-65q-15 0 -15 14v672q0 14 15 14h82q12 0 18 -10l306 -551v547q0 14 14 14h65z" glyph-name="Ntilde" horiz-adv-x="677" unicode="Ñ"/><glyph d="M326 910h59q11 0 16 -12l55 -115q7 -16 -10 -16h-57q-10 0 -17 12l-56 115q-7 16 10 16zM420 -13q-151 0 -255 104.5t-104 255.5q0 152 104 256.5t255 104.5q150 0 254 -104.5t104 -256.5q0 -151 -104 -255.5t-254 -104.5zM420 78q113 0 188.5 77t75.5 192t-75.5 192.5 t-188.5 77.5t-188.5 -77.5t-75.5 -192.5t75.5 -192t188.5 -77z" glyph-name="Ograve" horiz-adv-x="840" unicode="Ò"/><glyph d="M515 910q17 0 10 -16l-56 -115q-5 -12 -16 -12h-58q-17 0 -10 16l55 115q7 12 17 12h58zM420 -13q-151 0 -255 104.5t-104 255.5q0 152 104 256.5t255 104.5q150 0 254 -104.5t104 -256.5q0 -151 -104 -255.5t-254 -104.5zM420 78q113 0 188.5 77t75.5 192t-75.5 192.5 t-188.5 77.5t-188.5 -77.5t-75.5 -192.5t75.5 -192t188.5 -77z" glyph-name="Oacute" horiz-adv-x="840" unicode="Ó"/><glyph d="M294 782q-7 0 -9.5 5t2.5 10l87 105q7 8 16 8h61q9 0 16 -8l87 -105q5 -5 2.5 -10t-9.5 -5h-48q-10 0 -17 8l-62 76l-61 -76q-7 -8 -17 -8h-48zM420 -13q-151 0 -255 104.5t-104 255.5q0 152 104 256.5t255 104.5q150 0 254 -104.5t104 -256.5q0 -151 -104 -255.5 t-254 -104.5zM420 78q113 0 188.5 77t75.5 192t-75.5 192.5t-188.5 77.5t-188.5 -77.5t-75.5 -192.5t75.5 -192t188.5 -77z" glyph-name="Ocircumflex" horiz-adv-x="840" unicode="Ô"/><glyph d="M352 929q38 0 79.5 -33t65.5 -33q33 0 43 29q3 9 11 9h20q10 0 10 -10q-4 -40 -28.5 -61.5t-58.5 -21.5q-25 0 -47 10.5t-35.5 23t-31 23t-34.5 10.5q-33 0 -44 -30q-3 -9 -11 -9h-20q-11 0 -9 13q4 39 28.5 59.5t61.5 20.5zM420 -13q-151 0 -255 104.5t-104 255.5 q0 152 104 256.5t255 104.5q150 0 254 -104.5t104 -256.5q0 -151 -104 -255.5t-254 -104.5zM420 78q113 0 188.5 77t75.5 192t-75.5 192.5t-188.5 77.5t-188.5 -77.5t-75.5 -192.5t75.5 -192t188.5 -77z" glyph-name="Otilde" horiz-adv-x="840" unicode="Õ"/><glyph d="M324 816q-20 0 -35 14.5t-15 35.5q0 20 15 34.5t35 14.5t35 -14.5t15 -34.5q0 -21 -15 -35.5t-35 -14.5zM516 816q-20 0 -35 14.5t-15 35.5q0 20 15 34.5t35 14.5t35 -14.5t15 -34.5q0 -21 -15 -35.5t-35 -14.5zM420 -13q-151 0 -255 104.5t-104 255.5q0 152 104 256.5 t255 104.5q150 0 254 -104.5t104 -256.5q0 -151 -104 -255.5t-254 -104.5zM420 78q113 0 188.5 77t75.5 192t-75.5 192.5t-188.5 77.5t-188.5 -77.5t-75.5 -192.5t75.5 -192t188.5 -77z" glyph-name="Odieresis" horiz-adv-x="840" unicode="Ö"/><glyph d="M249 284l75 -75q10 -11 0 -21l-31 -31q-11 -9 -20 0l-75 75l-76 -76q-10 -9 -21 0l-31 32q-10 10 0 20l76 76l-76 76q-9 9 0 20l31 31q11 11 21 0l76 -75l75 75q9 9 20 0l31 -32q12 -10 0 -20z" glyph-name="multiply" horiz-adv-x="394" unicode="×"/><glyph d="M597 662q83 -46 132 -130t49 -185q0 -151 -104 -255.5t-254 -104.5q-63 0 -120 20l-21 -46q-4 -11 -15 -11h-40q-18 0 -10 18l29 64q-83 47 -132.5 130.5t-49.5 184.5q0 152 104 256.5t255 104.5q63 0 120 -20l21 46q5 11 16 11h40q17 0 9 -18zM156 347q0 -74 33.5 -135 t91.5 -96l221 489q-37 12 -82 12q-113 0 -188.5 -77.5t-75.5 -192.5zM420 78q113 0 188.5 77t75.5 192q0 75 -33.5 136t-91.5 96l-221 -489q38 -12 82 -12z" glyph-name="Oslash" horiz-adv-x="840" unicode="Ø"/><glyph d="M224 910h59q11 0 16 -12l55 -115q7 -16 -10 -16h-57q-10 0 -17 12l-56 115q-7 16 10 16zM318 -13q-109 0 -175.5 66.5t-66.5 186.5v446q0 14 15 14h65q14 0 14 -14v-439q0 -83 40 -126t108 -43q69 0 109 43t40 126v439q0 14 14 14h65q14 0 14 -14v-446q0 -121 -66 -187 t-176 -66z" glyph-name="Ugrave" horiz-adv-x="637" unicode="Ù"/><glyph d="M414 910q17 0 10 -16l-56 -115q-5 -12 -16 -12h-58q-17 0 -10 16l55 115q7 12 17 12h58zM318 -13q-109 0 -175.5 66.5t-66.5 186.5v446q0 14 15 14h65q14 0 14 -14v-439q0 -83 40 -126t108 -43q69 0 109 43t40 126v439q0 14 14 14h65q14 0 14 -14v-446q0 -121 -66 -187 t-176 -66z" glyph-name="Uacute" horiz-adv-x="637" unicode="Ú"/><glyph d="M192 782q-7 0 -9.5 5t2.5 10l87 105q7 8 16 8h61q9 0 16 -8l87 -105q5 -5 2.5 -10t-9.5 -5h-48q-10 0 -17 8l-62 76l-61 -76q-7 -8 -17 -8h-48zM318 -13q-109 0 -175.5 66.5t-66.5 186.5v446q0 14 15 14h65q14 0 14 -14v-439q0 -83 40 -126t108 -43q69 0 109 43t40 126 v439q0 14 14 14h65q14 0 14 -14v-446q0 -121 -66 -187t-176 -66z" glyph-name="Ucircumflex" horiz-adv-x="637" unicode="Û"/><glyph d="M223 816q-20 0 -35 14.5t-15 35.5q0 20 15 34.5t35 14.5t35 -14.5t15 -34.5q0 -21 -15 -35.5t-35 -14.5zM415 816q-20 0 -35 14.5t-15 35.5q0 20 15 34.5t35 14.5t35 -14.5t15 -34.5q0 -21 -15 -35.5t-35 -14.5zM318 -13q-109 0 -175.5 66.5t-66.5 186.5v446q0 14 15 14 h65q14 0 14 -14v-439q0 -83 40 -126t108 -43q69 0 109 43t40 126v439q0 14 14 14h65q14 0 14 -14v-446q0 -121 -66 -187t-176 -66z" glyph-name="Udieresis" horiz-adv-x="637" unicode="Ü"/><glyph d="M278 767q-17 0 -10 16l55 115q7 12 17 12h58q17 0 10 -16l-56 -115q-5 -12 -16 -12h-58zM547 700q9 0 11.5 -5t-2.5 -13l-207 -350v-318q0 -14 -14 -14h-65q-14 0 -14 14v318l-207 350q-5 8 -2 13t12 5h70q11 0 17 -10l157 -270l156 270q6 10 18 10h70z" glyph-name="Yacute" horiz-adv-x="605" unicode="Ý"/><glyph d="M287 570q114 0 175.5 -60t61.5 -160t-61.5 -160t-175.5 -60h-112v-116q0 -14 -14 -14h-65q-15 0 -15 14v672q0 14 15 14h65q14 0 14 -14v-116h112zM279 215q154 0 154 135t-154 135h-104v-270h104z" glyph-name="Thorn" horiz-adv-x="575" unicode="Þ"/><glyph d="M391 380q72 -12 112 -59t40 -128q0 -98 -58.5 -145.5t-184.5 -47.5h-60q-13 0 -13 14v45q0 14 13 14h58q83 0 120.5 29.5t37.5 98.5t-37.5 100.5t-121.5 31.5h-57q-13 0 -13 14v45q0 14 13 14h46q131 0 131 112q0 108 -124 108q-121 0 -121 -111v-501q0 -14 -14 -14h-63 q-14 0 -14 14v506q0 88 54.5 138t157.5 50q98 0 154.5 -47.5t56.5 -129.5q0 -59 -29.5 -98.5t-83.5 -52.5z" glyph-name="germandbls" horiz-adv-x="589" unicode="ß"/><glyph d="M261 569l-56 115q-7 16 10 16h59q11 0 16 -12l55 -115q7 -16 -10 -16h-57q-10 0 -17 12zM539 490q14 0 14 -14v-462q0 -14 -14 -14h-58q-13 0 -13 14l-2 74q-56 -100 -181 -100q-105 0 -172 73t-67 184q0 110 67 183.5t172 73.5q124 0 181 -101l2 75q0 14 13 14h58z M301 71q72 0 117.5 47.5t45.5 125.5t-45.5 126.5t-117.5 48.5q-73 0 -120 -48.5t-47 -125.5t47 -125.5t120 -48.5z" glyph-name="agrave" horiz-adv-x="624" unicode="à"/><glyph d="M284 557q-17 0 -10 16l55 115q7 12 17 12h58q17 0 10 -16l-56 -115q-5 -12 -16 -12h-58zM539 490q14 0 14 -14v-462q0 -14 -14 -14h-58q-13 0 -13 14l-2 74q-56 -100 -181 -100q-105 0 -172 73t-67 184q0 110 67 183.5t172 73.5q124 0 181 -101l2 75q0 14 13 14h58z M301 71q72 0 117.5 47.5t45.5 125.5t-45.5 126.5t-117.5 48.5q-73 0 -120 -48.5t-47 -125.5t47 -125.5t120 -48.5z" glyph-name="aacute" horiz-adv-x="624" unicode="á"/><glyph d="M183 572q-7 0 -9.5 5t2.5 10l87 105q7 8 16 8h61q9 0 16 -8l87 -105q5 -5 2.5 -10t-9.5 -5h-48q-10 0 -17 8l-62 76l-61 -76q-7 -8 -17 -8h-48zM539 490q14 0 14 -14v-462q0 -14 -14 -14h-58q-13 0 -13 14l-2 74q-56 -100 -181 -100q-105 0 -172 73t-67 184 q0 110 67 183.5t172 73.5q124 0 181 -101l2 75q0 14 13 14h58zM301 71q72 0 117.5 47.5t45.5 125.5t-45.5 126.5t-117.5 48.5q-73 0 -120 -48.5t-47 -125.5t47 -125.5t120 -48.5z" glyph-name="acircumflex" horiz-adv-x="624" unicode="â"/><glyph d="M160 626q-11 0 -9 13q4 39 28.5 59.5t61.5 20.5q38 0 79.5 -33t65.5 -33q33 0 43 29q3 9 11 9h20q10 0 10 -10q-4 -40 -28.5 -61.5t-58.5 -21.5q-25 0 -47 10.5t-35.5 23t-31 23t-34.5 10.5q-33 0 -44 -30q-3 -9 -11 -9h-20zM539 490q14 0 14 -14v-462q0 -14 -14 -14h-58 q-13 0 -13 14l-2 74q-56 -100 -181 -100q-105 0 -172 73t-67 184q0 110 67 183.5t172 73.5q124 0 181 -101l2 75q0 14 13 14h58zM301 71q72 0 117.5 47.5t45.5 125.5t-45.5 126.5t-117.5 48.5q-73 0 -120 -48.5t-47 -125.5t47 -125.5t120 -48.5z" glyph-name="atilde" horiz-adv-x="624" unicode="ã"/><glyph d="M213 606q-20 0 -35 14.5t-15 35.5q0 20 15 34.5t35 14.5t35 -14.5t15 -34.5q0 -21 -15 -35.5t-35 -14.5zM405 606q-20 0 -35 14.5t-15 35.5q0 20 15 34.5t35 14.5t35 -14.5t15 -34.5q0 -21 -15 -35.5t-35 -14.5zM539 490q14 0 14 -14v-462q0 -14 -14 -14h-58 q-13 0 -13 14l-2 74q-56 -100 -181 -100q-105 0 -172 73t-67 184q0 110 67 183.5t172 73.5q124 0 181 -101l2 75q0 14 13 14h58zM301 71q72 0 117.5 47.5t45.5 125.5t-45.5 126.5t-117.5 48.5q-73 0 -120 -48.5t-47 -125.5t47 -125.5t120 -48.5z" glyph-name="adieresis" horiz-adv-x="624" unicode="ä"/><glyph d="M309 556q-37 0 -61.5 24t-24.5 60q0 35 24.5 59.5t61.5 24.5t62 -24.5t25 -59.5q0 -36 -25 -60t-62 -24zM309 667q-11 0 -19 -8t-8 -19t8 -19t19 -8q12 0 19.5 8t7.5 19t-7.5 19t-19.5 8zM539 490q14 0 14 -14v-462q0 -14 -14 -14h-58q-13 0 -13 14l-2 74 q-56 -100 -181 -100q-105 0 -172 73t-67 184q0 110 67 183.5t172 73.5q124 0 181 -101l2 75q0 14 13 14h58zM301 71q72 0 117.5 47.5t45.5 125.5t-45.5 126.5t-117.5 48.5q-73 0 -120 -48.5t-47 -125.5t47 -125.5t120 -48.5z" glyph-name="aring" horiz-adv-x="624" unicode="å"/><glyph d="M943 270q0 -31 -8.5 -44.5t-32.5 -13.5h-349q8 -68 55 -109t126 -41q73 0 134 42q9 7 15 -1l23 -31q8 -10 -5 -21q-65 -63 -174 -63q-80 0 -140 35.5t-92 96.5q-28 -61 -82.5 -96.5t-127.5 -35.5q-106 0 -172.5 73t-66.5 184q0 110 67 183.5t172 73.5q113 0 179 -81l1 55 q0 14 13 14h46q13 0 13 -14v-44q68 70 175 70q106 0 168.5 -68t62.5 -164zM712 425q-66 0 -109.5 -39.5t-50.5 -106.5h311q-4 66 -44.5 106t-106.5 40zM301 71q72 0 117.5 48t45.5 125q0 78 -45.5 126.5t-117.5 48.5q-73 0 -120 -48.5t-47 -125.5t47 -125.5t120 -48.5z" glyph-name="ae" horiz-adv-x="989" unicode="æ"/><glyph d="M488 92q9 -9 0 -20q-62 -78 -172 -84l-26 -26q36 -2 61.5 -23t25.5 -57q0 -57 -46.5 -80t-110.5 -15q-9 1 -9 11v32q0 10 11 10q89 -8 89 36q0 23 -25.5 32t-62.5 -3q-12 -3 -12 7v31q0 7 5 12l36 38q-91 17 -148.5 86.5t-57.5 166.5q0 110 73 183t183 73q117 0 185 -83 q9 -12 0 -21l-35 -33q-11 -12 -23 0q-51 54 -124 54q-74 0 -122.5 -48.5t-48.5 -124.5t48.5 -125t124.5 -49q73 0 122 52q13 13 24 2z" glyph-name="ccedilla" horiz-adv-x="539" unicode="ç"/><glyph d="M239 569l-56 115q-7 16 10 16h59q11 0 16 -12l55 -115q7 -16 -10 -16h-57q-10 0 -17 12zM525 270q0 -31 -8.5 -44.5t-32.5 -13.5h-350q9 -68 56 -109t126 -41q74 0 133 42q10 7 16 -1l22 -31q9 -10 -4 -21q-65 -63 -175 -63q-118 0 -190 74t-72 185q0 109 69.5 182 t178.5 73q105 0 168 -68.5t63 -163.5zM294 425q-65 0 -109 -39.5t-52 -106.5h312q-4 66 -44.5 106t-106.5 40z" glyph-name="egrave" horiz-adv-x="571" unicode="è"/><glyph d="M262 557q-17 0 -10 16l55 115q7 12 17 12h58q17 0 10 -16l-56 -115q-5 -12 -16 -12h-58zM525 270q0 -31 -8.5 -44.5t-32.5 -13.5h-350q9 -68 56 -109t126 -41q74 0 133 42q10 7 16 -1l22 -31q9 -10 -4 -21q-65 -63 -175 -63q-118 0 -190 74t-72 185q0 109 69.5 182 t178.5 73q105 0 168 -68.5t63 -163.5zM294 425q-65 0 -109 -39.5t-52 -106.5h312q-4 66 -44.5 106t-106.5 40z" glyph-name="eacute" horiz-adv-x="571" unicode="é"/><glyph d="M161 572q-7 0 -9.5 5t2.5 10l87 105q7 8 16 8h61q9 0 16 -8l87 -105q5 -5 2.5 -10t-9.5 -5h-48q-10 0 -17 8l-62 76l-61 -76q-7 -8 -17 -8h-48zM525 270q0 -31 -8.5 -44.5t-32.5 -13.5h-350q9 -68 56 -109t126 -41q74 0 133 42q10 7 16 -1l22 -31q9 -10 -4 -21 q-65 -63 -175 -63q-118 0 -190 74t-72 185q0 109 69.5 182t178.5 73q105 0 168 -68.5t63 -163.5zM294 425q-65 0 -109 -39.5t-52 -106.5h312q-4 66 -44.5 106t-106.5 40z" glyph-name="ecircumflex" horiz-adv-x="571" unicode="ê"/><glyph d="M191 606q-20 0 -35 14.5t-15 35.5q0 20 15 34.5t35 14.5t35 -14.5t15 -34.5q0 -21 -15 -35.5t-35 -14.5zM383 606q-20 0 -35 14.5t-15 35.5q0 20 15 34.5t35 14.5t35 -14.5t15 -34.5q0 -21 -15 -35.5t-35 -14.5zM525 270q0 -31 -8.5 -44.5t-32.5 -13.5h-350 q9 -68 56 -109t126 -41q74 0 133 42q10 7 16 -1l22 -31q9 -10 -4 -21q-65 -63 -175 -63q-118 0 -190 74t-72 185q0 109 69.5 182t178.5 73q105 0 168 -68.5t63 -163.5zM294 425q-65 0 -109 -39.5t-52 -106.5h312q-4 66 -44.5 106t-106.5 40z" glyph-name="edieresis" horiz-adv-x="571" unicode="ë"/><glyph d="M10 700h59q11 0 16 -12l55 -115q7 -16 -10 -16h-57q-10 0 -17 12l-56 115q-7 16 10 16zM72 0q-13 0 -13 14v462q0 14 13 14h64q13 0 13 -14v-462q0 -14 -13 -14h-64z" glyph-name="igrave" horiz-adv-x="208" unicode="ì"/><glyph d="M200 700q17 0 10 -16l-56 -115q-5 -12 -16 -12h-58q-17 0 -10 16l55 115q7 12 17 12h58zM72 0q-13 0 -13 14v462q0 14 13 14h64q13 0 13 -14v-462q0 -14 -13 -14h-64z" glyph-name="iacute" horiz-adv-x="208" unicode="í"/><glyph d="M-23 572q-7 0 -9 5t2 10l88 105q7 8 16 8h61q9 0 16 -8l87 -105q5 -5 2.5 -10t-9.5 -5h-48q-10 0 -17 8l-62 76l-61 -76q-7 -8 -17 -8h-49zM72 0q-13 0 -13 14v462q0 14 13 14h64q13 0 13 -14v-462q0 -14 -13 -14h-64z" glyph-name="icircumflex" horiz-adv-x="208" unicode="î"/><glyph d="M9 606q-20 0 -35 14.5t-15 35.5q0 20 15 34.5t35 14.5t35 -14.5t15 -34.5q0 -21 -15 -35.5t-35 -14.5zM201 606q-20 0 -35 14.5t-15 35.5q0 20 15 34.5t35 14.5t35 -14.5t15 -34.5q0 -21 -15 -35.5t-35 -14.5zM72 0q-13 0 -13 14v462q0 14 13 14h64q13 0 13 -14v-462 q0 -14 -13 -14h-64z" glyph-name="idieresis" horiz-adv-x="208" unicode="ï"/><glyph d="M576 635q16 2 16 -14v-33q0 -14 -14 -16l-25 -3v-555q0 -14 -14 -14h-58q-13 0 -13 14l-2 74q-56 -100 -181 -100q-105 0 -172 73t-67 184q0 110 67 183.5t172 73.5q119 0 177 -94v148l-83 -11q-16 -2 -16 14v33q0 14 14 16l85 12v81q0 14 14 14h63q14 0 14 -14v-69z M301 71q72 0 117.5 47.5t45.5 125.5t-45.5 126.5t-117.5 48.5q-73 0 -120 -48.5t-47 -125.5t47 -125.5t120 -48.5z" glyph-name="eth" horiz-adv-x="592" unicode="ð"/><glyph d="M142 626q-11 0 -9 13q4 39 28.5 59.5t61.5 20.5q38 0 79.5 -33t65.5 -33q33 0 43 29q3 9 11 9h20q10 0 10 -10q-4 -40 -28.5 -61.5t-58.5 -21.5q-25 0 -47 10.5t-35.5 23t-31 23t-34.5 10.5q-33 0 -44 -30q-3 -9 -11 -9h-20zM318 502q81 0 130.5 -52.5t49.5 -147.5v-288 q0 -14 -14 -14h-63q-13 0 -13 14v274q0 62 -30.5 96.5t-86.5 34.5q-57 0 -93.5 -35.5t-36.5 -95.5v-274q0 -14 -13 -14h-63q-14 0 -14 14v462q0 14 14 14h59q14 0 14 -15l3 -62q50 89 157 89z" glyph-name="ntilde" unicode="ñ"/><glyph d="M204 700h59q11 0 16 -12l55 -115q7 -16 -10 -16h-57q-10 0 -17 12l-56 115q-7 16 10 16zM299 -12q-108 0 -180.5 73.5t-72.5 183.5t72.5 183.5t180.5 73.5t180 -73.5t72 -183.5t-72 -183.5t-180 -73.5zM299 72q71 0 118 48.5t47 124.5q0 77 -47 125.5t-118 48.5 q-72 0 -118.5 -48.5t-46.5 -125.5t46.5 -125t118.5 -48z" glyph-name="ograve" horiz-adv-x="597" unicode="ò"/><glyph d="M394 700q17 0 10 -16l-56 -115q-5 -12 -16 -12h-58q-17 0 -10 16l55 115q7 12 17 12h58zM299 -12q-108 0 -180.5 73.5t-72.5 183.5t72.5 183.5t180.5 73.5t180 -73.5t72 -183.5t-72 -183.5t-180 -73.5zM299 72q71 0 118 48.5t47 124.5q0 77 -47 125.5t-118 48.5 q-72 0 -118.5 -48.5t-46.5 -125.5t46.5 -125t118.5 -48z" glyph-name="oacute" horiz-adv-x="597" unicode="ó"/><glyph d="M172 572q-7 0 -9.5 5t2.5 10l87 105q7 8 16 8h61q9 0 16 -8l87 -105q5 -5 2.5 -10t-9.5 -5h-48q-10 0 -17 8l-62 76l-61 -76q-7 -8 -17 -8h-48zM299 -12q-108 0 -180.5 73.5t-72.5 183.5t72.5 183.5t180.5 73.5t180 -73.5t72 -183.5t-72 -183.5t-180 -73.5zM299 72 q71 0 118 48.5t47 124.5q0 77 -47 125.5t-118 48.5q-72 0 -118.5 -48.5t-46.5 -125.5t46.5 -125t118.5 -48z" glyph-name="ocircumflex" horiz-adv-x="597" unicode="ô"/><glyph d="M230 719q38 0 79.5 -33t65.5 -33q33 0 43 29q3 9 11 9h20q10 0 10 -10q-4 -40 -28.5 -61.5t-58.5 -21.5q-25 0 -47 10.5t-35.5 23t-31 23t-34.5 10.5q-33 0 -44 -30q-3 -9 -11 -9h-20q-11 0 -9 13q4 39 28.5 59.5t61.5 20.5zM299 -12q-108 0 -180.5 73.5t-72.5 183.5 t72.5 183.5t180.5 73.5t180 -73.5t72 -183.5t-72 -183.5t-180 -73.5zM299 72q71 0 118 48.5t47 124.5q0 77 -47 125.5t-118 48.5q-72 0 -118.5 -48.5t-46.5 -125.5t46.5 -125t118.5 -48z" glyph-name="otilde" horiz-adv-x="597" unicode="õ"/><glyph d="M203 606q-20 0 -35 14.5t-15 35.5q0 20 15 34.5t35 14.5t35 -14.5t15 -34.5q0 -21 -15 -35.5t-35 -14.5zM395 606q-20 0 -35 14.5t-15 35.5q0 20 15 34.5t35 14.5t35 -14.5t15 -34.5q0 -21 -15 -35.5t-35 -14.5zM299 -12q-108 0 -180.5 73.5t-72.5 183.5t72.5 183.5 t180.5 73.5t180 -73.5t72 -183.5t-72 -183.5t-180 -73.5zM299 72q71 0 118 48.5t47 124.5q0 77 -47 125.5t-118 48.5q-72 0 -118.5 -48.5t-46.5 -125.5t46.5 -125t118.5 -48z" glyph-name="odieresis" horiz-adv-x="597" unicode="ö"/><glyph d="M234 382q-23 0 -39 16t-16 39t16.5 39t38.5 16t38.5 -16t16.5 -39t-16 -39t-39 -16zM80 248q-15 0 -15 15v43q0 15 15 15h305q15 0 15 -15v-43q0 -15 -15 -15h-305zM234 85q-23 0 -39 16t-16 39q0 22 16.5 38.5t38.5 16.5t38.5 -16.5t16.5 -38.5q0 -23 -16 -39t-39 -16z " glyph-name="divide" horiz-adv-x="465" unicode="÷"/><glyph d="M428 468q57 -33 90 -92t33 -131q0 -110 -72 -183.5t-180 -73.5q-41 0 -83 13l-27 -60q-5 -11 -16 -11h-27q-17 0 -9 18l33 74q-57 33 -90.5 92t-33.5 131q0 110 72.5 183.5t180.5 73.5q41 0 83 -13l26 58q6 11 16 11h28q17 0 9 -18zM134 245q0 -96 71 -146l142 313 q-21 7 -48 7q-72 0 -118.5 -48.5t-46.5 -125.5zM299 72q71 0 118 48.5t47 124.5q0 98 -71 146l-142 -313q23 -6 48 -6z" glyph-name="oslash" horiz-adv-x="597" unicode="ø"/><glyph d="M238 569l-56 115q-7 16 10 16h59q11 0 16 -12l55 -115q7 -16 -10 -16h-57q-10 0 -17 12zM484 490q14 0 14 -14v-462q0 -14 -14 -14h-59q-14 0 -14 15l-3 62q-50 -89 -157 -89q-81 0 -130 53t-49 148v287q0 14 13 14h63q14 0 14 -14v-274q0 -62 30 -96t86 -34q58 0 94 35 t36 95v274q0 14 13 14h63z" glyph-name="ugrave" unicode="ù"/><glyph d="M261 557q-17 0 -10 16l55 115q7 12 17 12h58q17 0 10 -16l-56 -115q-5 -12 -16 -12h-58zM484 490q14 0 14 -14v-462q0 -14 -14 -14h-59q-14 0 -14 15l-3 62q-50 -89 -157 -89q-81 0 -130 53t-49 148v287q0 14 13 14h63q14 0 14 -14v-274q0 -62 30 -96t86 -34q58 0 94 35 t36 95v274q0 14 13 14h63z" glyph-name="uacute" unicode="ú"/><glyph d="M160 572q-7 0 -9.5 5t2.5 10l87 105q7 8 16 8h61q9 0 16 -8l87 -105q5 -5 2.5 -10t-9.5 -5h-48q-10 0 -17 8l-62 76l-61 -76q-7 -8 -17 -8h-48zM484 490q14 0 14 -14v-462q0 -14 -14 -14h-59q-14 0 -14 15l-3 62q-50 -89 -157 -89q-81 0 -130 53t-49 148v287q0 14 13 14 h63q14 0 14 -14v-274q0 -62 30 -96t86 -34q58 0 94 35t36 95v274q0 14 13 14h63z" glyph-name="ucircumflex" unicode="û"/><glyph d="M191 606q-20 0 -35 14.5t-15 35.5q0 20 15 34.5t35 14.5t35 -14.5t15 -34.5q0 -21 -15 -35.5t-35 -14.5zM383 606q-20 0 -35 14.5t-15 35.5q0 20 15 34.5t35 14.5t35 -14.5t15 -34.5q0 -21 -15 -35.5t-35 -14.5zM484 490q14 0 14 -14v-462q0 -14 -14 -14h-59 q-14 0 -14 15l-3 62q-50 -89 -157 -89q-81 0 -130 53t-49 148v287q0 14 13 14h63q14 0 14 -14v-274q0 -62 30 -96t86 -34q58 0 94 35t36 95v274q0 14 13 14h63z" glyph-name="udieresis" unicode="ü"/><glyph d="M371 700q17 0 10 -16l-56 -115q-5 -12 -16 -12h-58q-17 0 -10 16l55 115q7 12 17 12h58zM172 -190q-17 0 -10 15l69 173l-188 475q-6 17 11 17h64q12 0 16 -12l142 -376l142 376q5 12 17 12h63q18 0 12 -17l-259 -651q-4 -12 -17 -12h-62z" glyph-name="yacute" horiz-adv-x="553" unicode="ý"/><glyph d="M339 502q105 0 172 -73.5t67 -183.5q0 -111 -67 -184t-172 -73q-119 0 -177 93v-257q0 -14 -14 -14h-63q-14 0 -14 14v877q0 14 14 14h63q14 0 14 -14v-293q58 94 177 94zM323 71q73 0 120 48.5t47 125.5t-47 125.5t-120 48.5q-72 0 -117.5 -48.5t-45.5 -126.5 t45.5 -125.5t117.5 -47.5z" glyph-name="thorn" horiz-adv-x="624" unicode="þ"/><glyph d="M181 606q-20 0 -35 14.5t-15 35.5q0 20 15 34.5t35 14.5t35 -14.5t15 -34.5q0 -21 -15 -35.5t-35 -14.5zM373 606q-20 0 -35 14.5t-15 35.5q0 20 15 34.5t35 14.5t35 -14.5t15 -34.5q0 -21 -15 -35.5t-35 -14.5zM172 -190q-17 0 -10 15l69 173l-188 475q-6 17 11 17h64 q12 0 16 -12l142 -376l142 376q5 12 17 12h63q18 0 12 -17l-259 -651q-4 -12 -17 -12h-62z" glyph-name="ydieresis" horiz-adv-x="553" unicode="ÿ"/><glyph d="M202 837q-14 0 -14 15v44q0 14 14 14h281q15 0 15 -14v-44q0 -15 -15 -15h-281zM638 17q7 -17 -12 -17h-68q-12 0 -16 12l-46 134h-306l-46 -134q-4 -12 -17 -12h-68q-18 0 -11 17l240 671q4 12 18 12h73q15 0 19 -12zM219 229h248l-124 357z" glyph-name="Amacron" horiz-adv-x="686" unicode="Ā"/><glyph d="M168 627q-14 0 -14 15v44q0 14 14 14h281q15 0 15 -14v-44q0 -15 -15 -15h-281zM539 490q14 0 14 -14v-462q0 -14 -14 -14h-58q-13 0 -13 14l-2 74q-56 -100 -181 -100q-105 0 -172 73t-67 184q0 110 67 183.5t172 73.5q124 0 181 -101l2 75q0 14 13 14h58zM301 71 q72 0 117.5 47.5t45.5 125.5t-45.5 126.5t-117.5 48.5q-73 0 -120 -48.5t-47 -125.5t47 -125.5t120 -48.5z" glyph-name="amacron" horiz-adv-x="624" unicode="ā"/><glyph d="M343 776q-61 0 -99 33.5t-43 85.5q-1 15 14 15h30q13 0 16 -14q6 -28 27.5 -45.5t54.5 -17.5t54.5 17.5t27.5 45.5q3 14 16 14h30q15 0 14 -15q-5 -52 -43 -85.5t-99 -33.5zM638 17q7 -17 -12 -17h-68q-12 0 -16 12l-46 134h-306l-46 -134q-4 -12 -17 -12h-68 q-18 0 -11 17l240 671q4 12 18 12h73q15 0 19 -12zM219 229h248l-124 357z" glyph-name="Abreve" horiz-adv-x="686" unicode="Ă"/><glyph d="M309 566q-61 0 -99 33.5t-43 85.5q-1 15 14 15h30q13 0 16 -14q6 -28 27.5 -45.5t54.5 -17.5t54.5 17.5t27.5 45.5q3 14 16 14h30q15 0 14 -15q-5 -52 -43 -85.5t-99 -33.5zM539 490q14 0 14 -14v-462q0 -14 -14 -14h-58q-13 0 -13 14l-2 74q-56 -100 -181 -100 q-105 0 -172 73t-67 184q0 110 67 183.5t172 73.5q124 0 181 -101l2 75q0 14 13 14h58zM301 71q72 0 117.5 47.5t45.5 125.5t-45.5 126.5t-117.5 48.5q-73 0 -120 -48.5t-47 -125.5t47 -125.5t120 -48.5z" glyph-name="abreve" horiz-adv-x="624" unicode="ă"/><glyph d="M638 17q7 -17 -12 -17h-1q-44 -1 -73 -27t-29 -62q0 -31 22 -45t61 -6v-58q-20 -9 -47 -9t-52 9t-42.5 33t-17.5 58q0 82 93 126l-44 127h-306l-46 -134q-4 -12 -17 -12h-68q-18 0 -11 17l240 671q4 12 18 12h73q15 0 19 -12zM219 229h248l-124 357z" glyph-name="Aogonek" horiz-adv-x="686" unicode="Ą"/><glyph d="M539 490q14 0 14 -14v-462q0 -14 -14 -14h-3q-44 -1 -73 -27t-29 -62q0 -31 22 -45t61 -6v-58q-20 -9 -46.5 -9t-51.5 9t-42.5 33t-17.5 58q0 48 31.5 81.5t77.5 51.5l-2 62q-56 -100 -181 -100q-105 0 -172 73t-67 184q0 110 67 183.5t172 73.5q124 0 181 -101l2 75 q0 14 13 14h58zM301 71q72 0 117.5 47.5t45.5 125.5t-45.5 126.5t-117.5 48.5q-73 0 -120 -48.5t-47 -125.5t47 -125.5t120 -48.5z" glyph-name="aogonek" horiz-adv-x="624" unicode="ą"/><glyph d="M508 910q17 0 10 -16l-56 -115q-5 -12 -16 -12h-58q-17 0 -10 16l55 115q7 12 17 12h58zM418 -13q-153 0 -255 103.5t-102 256.5t102 257t255 104q138 0 239 -93q11 -11 2 -23l-40 -43q-9 -11 -21 0q-79 68 -179 68q-113 0 -188 -77t-75 -193t75 -192.5t188 -76.5 q100 0 179 68q11 11 21 1l40 -44q10 -10 -2 -22q-100 -94 -239 -94z" glyph-name="Cacute" horiz-adv-x="720" unicode="Ć"/><glyph d="M386 700q17 0 10 -16l-56 -115q-5 -12 -16 -12h-58q-17 0 -10 16l55 115q7 12 17 12h58zM302 -12q-109 0 -182.5 74t-73.5 184t73 183t183 73q117 0 185 -83q9 -12 0 -21l-35 -33q-11 -12 -23 0q-51 54 -124 54q-74 0 -122.5 -48.5t-48.5 -124.5t48.5 -125t124.5 -49 q73 0 122 52q13 13 24 2l35 -34q9 -9 0 -20q-68 -84 -186 -84z" glyph-name="cacute" horiz-adv-x="539" unicode="ć"/><glyph d="M413 816q-20 0 -35 14.5t-15 35.5q0 20 15 34.5t35 14.5t35 -14.5t15 -34.5q0 -21 -15 -35.5t-35 -14.5zM418 -13q-153 0 -255 103.5t-102 256.5t102 257t255 104q138 0 239 -93q11 -11 2 -23l-40 -43q-9 -11 -21 0q-79 68 -179 68q-113 0 -188 -77t-75 -193t75 -192.5 t188 -76.5q100 0 179 68q11 11 21 1l40 -44q10 -10 -2 -22q-100 -94 -239 -94z" glyph-name="Cdotaccent" horiz-adv-x="720" unicode="Ċ"/><glyph d="M291 606q-20 0 -35 14.5t-15 35.5q0 20 15 34.5t35 14.5t35 -14.5t15 -34.5q0 -21 -15 -35.5t-35 -14.5zM302 -12q-109 0 -182.5 74t-73.5 184t73 183t183 73q117 0 185 -83q9 -12 0 -21l-35 -33q-11 -12 -23 0q-51 54 -124 54q-74 0 -122.5 -48.5t-48.5 -124.5 t48.5 -125t124.5 -49q73 0 122 52q13 13 24 2l35 -34q9 -9 0 -20q-68 -84 -186 -84z" glyph-name="cdotaccent" horiz-adv-x="539" unicode="ċ"/><glyph d="M287 910h48q10 0 17 -8l61 -76l62 76q7 8 17 8h48q7 0 9.5 -5t-2.5 -10l-87 -105q-7 -8 -16 -8h-61q-9 0 -16 8l-87 105q-5 5 -2.5 10t9.5 5zM418 -13q-153 0 -255 103.5t-102 256.5t102 257t255 104q138 0 239 -93q11 -11 2 -23l-40 -43q-9 -11 -21 0q-79 68 -179 68 q-113 0 -188 -77t-75 -193t75 -192.5t188 -76.5q100 0 179 68q11 11 21 1l40 -44q10 -10 -2 -22q-100 -94 -239 -94z" glyph-name="Ccaron" horiz-adv-x="720" unicode="Č"/><glyph d="M164 700h48q10 0 17 -8l61 -76l62 76q7 8 17 8h48q7 0 9.5 -5t-2.5 -10l-87 -105q-7 -8 -16 -8h-61q-9 0 -16 8l-87 105q-5 5 -2.5 10t9.5 5zM302 -12q-109 0 -182.5 74t-73.5 184t73 183t183 73q117 0 185 -83q9 -12 0 -21l-35 -33q-11 -12 -23 0q-51 54 -124 54 q-74 0 -122.5 -48.5t-48.5 -124.5t48.5 -125t124.5 -49q73 0 122 52q13 13 24 2l35 -34q9 -9 0 -20q-68 -84 -186 -84z" glyph-name="ccaron" horiz-adv-x="539" unicode="č"/><glyph d="M207 910h48q10 0 17 -8l61 -76l62 76q7 8 17 8h48q7 0 9.5 -5t-2.5 -10l-87 -105q-7 -8 -16 -8h-61q-9 0 -16 8l-87 105q-5 5 -2.5 10t9.5 5zM96 0q-15 0 -15 14v672q0 14 15 14h167q174 0 265 -97t91 -253t-91 -253t-265 -97h-167zM175 84h86q133 0 198 69t65 197 t-65 197.5t-198 69.5h-86v-533z" glyph-name="Dcaron" horiz-adv-x="675" unicode="Ď"/><glyph d="M539 715q14 0 14 -14v-687q0 -14 -14 -14h-58q-13 0 -13 14l-2 74q-56 -100 -181 -100q-105 0 -172 73t-67 184q0 110 67 183.5t172 73.5q119 0 177 -94v293q0 14 14 14h63zM727 687q17 0 10 -16l-56 -115q-7 -12 -17 -12h-57q-17 0 -10 16l55 115q5 12 16 12h59zM301 71 q72 0 117.5 47.5t45.5 125.5t-45.5 126.5t-117.5 48.5q-73 0 -120 -48.5t-47 -125.5t47 -125.5t120 -48.5z" glyph-name="dcaron" horiz-adv-x="669" unicode="ď"/><glyph d="M271 700q174 0 265 -97t91 -253t-91 -253t-265 -97h-167q-15 0 -15 14v298h-50q-14 0 -14 15v44q0 14 14 14h50v301q0 14 15 14h167zM269 84q133 0 198 69t65 197t-65 197.5t-198 69.5h-86v-232h137q15 0 15 -14v-44q0 -15 -15 -15h-137v-228h86z" glyph-name="Dcroat" horiz-adv-x="683" unicode="Đ"/><glyph d="M591 639q15 0 15 -15v-44q0 -14 -15 -14h-38v-552q0 -14 -14 -14h-58q-13 0 -13 14l-2 74q-56 -100 -181 -100q-105 0 -172 73t-67 184q0 110 67 183.5t172 73.5q119 0 177 -94v158h-152q-14 0 -14 14v44q0 15 14 15h152v62q0 14 14 14h63q14 0 14 -14v-62h38zM301 71 q72 0 117.5 47.5t45.5 125.5t-45.5 126.5t-117.5 48.5q-73 0 -120 -48.5t-47 -125.5t47 -125.5t120 -48.5z" glyph-name="dcroat" horiz-adv-x="621" unicode="đ"/><glyph d="M413 910q15 0 15 -14v-44q0 -15 -15 -15h-281q-14 0 -14 15v44q0 14 14 14h281zM96 0q-15 0 -15 14v672q0 14 15 14h340q15 0 15 -14v-55q0 -14 -15 -14h-261v-216h248q14 0 14 -14v-55q0 -14 -14 -14h-248v-234h262q14 0 14 -15v-55q0 -14 -14 -14h-341z" glyph-name="Emacron" horiz-adv-x="523" unicode="Ē"/><glyph d="M146 627q-14 0 -14 15v44q0 14 14 14h281q15 0 15 -14v-44q0 -15 -15 -15h-281zM525 270q0 -31 -8.5 -44.5t-32.5 -13.5h-350q9 -68 56 -109t126 -41q74 0 133 42q10 7 16 -1l22 -31q9 -10 -4 -21q-65 -63 -175 -63q-118 0 -190 74t-72 185q0 109 69.5 182t178.5 73 q105 0 168 -68.5t63 -163.5zM294 425q-65 0 -109 -39.5t-52 -106.5h312q-4 66 -44.5 106t-106.5 40z" glyph-name="emacron" horiz-adv-x="571" unicode="ē"/><glyph d="M273 816q-20 0 -35 14.5t-15 35.5q0 20 15 34.5t35 14.5t35 -14.5t15 -34.5q0 -21 -15 -35.5t-35 -14.5zM96 0q-15 0 -15 14v672q0 14 15 14h340q15 0 15 -14v-55q0 -14 -15 -14h-261v-216h248q14 0 14 -14v-55q0 -14 -14 -14h-248v-234h262q14 0 14 -15v-55 q0 -14 -14 -14h-341z" glyph-name="Edotaccent" horiz-adv-x="523" unicode="Ė"/><glyph d="M287 606q-20 0 -35 14.5t-15 35.5q0 20 15 34.5t35 14.5t35 -14.5t15 -34.5q0 -21 -15 -35.5t-35 -14.5zM525 270q0 -31 -8.5 -44.5t-32.5 -13.5h-350q9 -68 56 -109t126 -41q74 0 133 42q10 7 16 -1l22 -31q9 -10 -4 -21q-65 -63 -175 -63q-118 0 -190 74t-72 185 q0 109 69.5 182t178.5 73q105 0 168 -68.5t63 -163.5zM294 425q-65 0 -109 -39.5t-52 -106.5h312q-4 66 -44.5 106t-106.5 40z" glyph-name="edotaccent" horiz-adv-x="571" unicode="ė"/><glyph d="M436 617h-261v-216h248q14 0 14 -14v-55q0 -14 -14 -14h-248v-234h262q14 0 14 -15v-55q0 -10 -8 -13v-1q-44 -1 -73 -27t-29 -62q0 -31 22 -45t61 -6v-58q-20 -9 -47 -9t-52 9t-42.5 33t-17.5 58q0 65 60 107h-229q-15 0 -15 14v672q0 14 15 14h340q15 0 15 -14v-55 q0 -14 -15 -14z" glyph-name="Eogonek" horiz-adv-x="523" unicode="Ę"/><glyph d="M525 270q0 -31 -8.5 -44.5t-32.5 -13.5h-350q9 -68 56 -109t126 -41q74 0 133 42q10 7 16 -1l22 -31q9 -10 -4 -21q-44 -43 -113 -57q-71 -30 -71 -85q0 -32 21.5 -44.5t61.5 -4.5v-58q-47 -21 -103 2t-56 88q0 57 50 98q-103 11 -165 83t-62 174q0 109 69.5 182 t178.5 73q105 0 168 -68.5t63 -163.5zM294 425q-65 0 -109 -39.5t-52 -106.5h312q-4 66 -44.5 106t-106.5 40z" glyph-name="eogonek" horiz-adv-x="571" unicode="ę"/><glyph d="M147 910h48q10 0 17 -8l61 -76l62 76q7 8 17 8h48q7 0 9.5 -5t-2.5 -10l-87 -105q-7 -8 -16 -8h-61q-9 0 -16 8l-87 105q-5 5 -2.5 10t9.5 5zM96 0q-15 0 -15 14v672q0 14 15 14h340q15 0 15 -14v-55q0 -14 -15 -14h-261v-216h248q14 0 14 -14v-55q0 -14 -14 -14h-248 v-234h262q14 0 14 -15v-55q0 -14 -14 -14h-341z" glyph-name="Ecaron" horiz-adv-x="523" unicode="Ě"/><glyph d="M241 580l-87 105q-5 5 -2.5 10t9.5 5h48q10 0 17 -8l61 -76l62 76q7 8 17 8h48q7 0 9.5 -5t-2.5 -10l-87 -105q-7 -8 -16 -8h-61q-9 0 -16 8zM525 270q0 -31 -8.5 -44.5t-32.5 -13.5h-350q9 -68 56 -109t126 -41q74 0 133 42q10 7 16 -1l22 -31q9 -10 -4 -21 q-65 -63 -175 -63q-118 0 -190 74t-72 185q0 109 69.5 182t178.5 73q105 0 168 -68.5t63 -163.5zM294 425q-65 0 -109 -39.5t-52 -106.5h312q-4 66 -44.5 106t-106.5 40z" glyph-name="ecaron" horiz-adv-x="571" unicode="ě"/><glyph d="M417 776q-61 0 -99 33.5t-43 85.5q-1 15 14 15h30q13 0 16 -14q6 -28 27.5 -45.5t54.5 -17.5t54.5 17.5t27.5 45.5q3 14 16 14h30q15 0 14 -15q-5 -52 -43 -85.5t-99 -33.5zM729 373q15 0 15 -15v-41q0 -142 -88 -236t-235 -94q-154 0 -257 103.5t-103 256.5t103 257 t256 104q140 0 238 -95q11 -10 2 -20l-41 -45q-9 -10 -18 -1q-81 70 -181 70q-113 0 -188.5 -77t-75.5 -193t76 -192.5t191 -76.5q102 0 165.5 59.5t65.5 151.5h-224q-14 0 -14 14v56q0 14 14 14h299z" glyph-name="Gbreve" horiz-adv-x="795" unicode="Ğ"/><glyph d="M309 566q-61 0 -99 33.5t-43 85.5q-1 15 14 15h30q13 0 16 -14q6 -28 27.5 -45.5t54.5 -17.5t54.5 17.5t27.5 45.5q3 14 16 14h30q15 0 14 -15q-5 -52 -43 -85.5t-99 -33.5zM533 490q13 0 13 -14v-455q0 -59 -21.5 -104t-58 -70.5t-80.5 -38.5t-93 -13q-107 0 -176 49 q-14 9 -7 23l19 35q6 13 20 6q61 -38 138 -38q74 0 123 37t49 117v74q-56 -91 -176 -91q-105 0 -171 69t-66 179q0 108 66 177.5t170 69.5q122 0 178 -94l1 68q0 14 14 14h58zM297 89q71 0 115.5 44.5t44.5 119.5q0 76 -44.5 121.5t-115.5 45.5t-117 -45.5t-46 -119.5 q0 -75 46 -120.5t117 -45.5z" glyph-name="gbreve" horiz-adv-x="617" unicode="ğ"/><glyph d="M417 816q-20 0 -35 14.5t-15 35.5q0 20 15 34.5t35 14.5t35 -14.5t15 -34.5q0 -21 -15 -35.5t-35 -14.5zM729 373q15 0 15 -15v-41q0 -142 -88 -236t-235 -94q-154 0 -257 103.5t-103 256.5t103 257t256 104q140 0 238 -95q11 -10 2 -20l-41 -45q-9 -10 -18 -1 q-81 70 -181 70q-113 0 -188.5 -77t-75.5 -193t76 -192.5t191 -76.5q102 0 165.5 59.5t65.5 151.5h-224q-14 0 -14 14v56q0 14 14 14h299z" glyph-name="Gdotaccent" horiz-adv-x="795" unicode="Ġ"/><glyph d="M309 606q-20 0 -35 14.5t-15 35.5q0 20 15 34.5t35 14.5t35 -14.5t15 -34.5q0 -21 -15 -35.5t-35 -14.5zM533 490q13 0 13 -14v-455q0 -59 -21.5 -104t-58 -70.5t-80.5 -38.5t-93 -13q-107 0 -176 49q-14 9 -7 23l19 35q6 13 20 6q61 -38 138 -38q74 0 123 37t49 117v74 q-56 -91 -176 -91q-105 0 -171 69t-66 179q0 108 66 177.5t170 69.5q122 0 178 -94l1 68q0 14 14 14h58zM297 89q71 0 115.5 44.5t44.5 119.5q0 76 -44.5 121.5t-115.5 45.5t-117 -45.5t-46 -119.5q0 -75 46 -120.5t117 -45.5z" glyph-name="gdotaccent" horiz-adv-x="617" unicode="ġ"/><glyph d="M729 373q15 0 15 -15v-41q0 -142 -88 -236t-235 -94q-154 0 -257 103.5t-103 256.5t103 257t256 104q140 0 238 -95q11 -10 2 -20l-41 -45q-9 -10 -18 -1q-81 70 -181 70q-113 0 -188.5 -77t-75.5 -193t76 -192.5t191 -76.5q102 0 165.5 59.5t65.5 151.5h-224 q-14 0 -14 14v56q0 14 14 14h299zM413 -27q31 0 52.5 -25t21.5 -67q0 -60 -41 -101.5t-97 -39.5v28q46 1 69 42q16 30 2 40q-3 2 -7 2q-28 -1 -45.5 16.5t-17.5 43.5t18.5 43.5t44.5 17.5z" glyph-name="Gcommaaccent" horiz-adv-x="795" unicode="Ģ"/><glyph d="M296 542q-31 0 -52.5 25t-21.5 68q0 59 41 100.5t97 40.5v-29q-45 0 -68 -41q-16 -29 -3 -40q3 -2 8 -2q27 1 45 -16.5t18 -43.5t-19 -44t-45 -18zM533 490q13 0 13 -14v-455q0 -59 -21.5 -104t-58 -70.5t-80.5 -38.5t-93 -13q-107 0 -176 49q-14 9 -7 23l19 35 q6 13 20 6q61 -38 138 -38q74 0 123 37t49 117v74q-56 -91 -176 -91q-105 0 -171 69t-66 179q0 108 66 177.5t170 69.5q122 0 178 -94l1 68q0 14 14 14h58zM297 89q71 0 115.5 44.5t44.5 119.5q0 76 -44.5 121.5t-115.5 45.5t-117 -45.5t-46 -119.5q0 -75 46 -120.5 t117 -45.5z" glyph-name="gcommaaccent" horiz-adv-x="617" unicode="ģ"/><glyph d="M564 700q15 0 15 -14v-672q0 -14 -15 -14h-65q-14 0 -14 14v291h-310v-291q0 -14 -14 -14h-65q-15 0 -15 14v672q0 14 15 14h65q14 0 14 -14v-129h310v129q0 14 14 14h65zM175 388h310v90h-310v-90z" glyph-name="Hbar" horiz-adv-x="660" unicode="Ħ"/><glyph d="M325 502q81 0 130 -52.5t49 -147.5v-288q0 -14 -14 -14h-63q-13 0 -13 14v274q0 62 -30.5 96.5t-86.5 34.5q-57 0 -93 -35.5t-36 -95.5v-274q0 -14 -14 -14h-63q-13 0 -13 14v548h-49q-14 0 -14 15v44q0 14 14 14h49v66q0 14 13 14h63q14 0 14 -14v-66h142q15 0 15 -14 v-44q0 -15 -15 -15h-142v-148q50 88 157 88z" glyph-name="hbar" horiz-adv-x="575" unicode="ħ"/><glyph d="M268 910q15 0 15 -14v-44q0 -15 -15 -15h-281q-14 0 -14 15v44q0 14 14 14h281zM96 0q-15 0 -15 14v672q0 14 15 14h65q14 0 14 -14v-672q0 -14 -14 -14h-65z" glyph-name="Imacron" horiz-adv-x="256" unicode="Ī"/><glyph d="M245 700q15 0 15 -14v-44q0 -15 -15 -15h-281q-14 0 -14 15v44q0 14 14 14h281zM72 0q-13 0 -13 14v462q0 14 13 14h64q13 0 13 -14v-462q0 -14 -13 -14h-64z" glyph-name="imacron" horiz-adv-x="208" unicode="ī"/><glyph d="M161 700q14 0 14 -14v-672q0 -14 -14 -14h-1q-44 -1 -73 -27t-29 -62q0 -31 22 -45t61 -6v-58q-20 -9 -47 -9t-52 9t-42.5 33t-17.5 58q0 45 28 78t71 51v664q0 14 15 14h65z" glyph-name="Iogonek" horiz-adv-x="256" unicode="Į"/><glyph d="M105 606q-20 0 -35 14.5t-15 35.5q0 20 15 34.5t35 14.5t35 -14.5t15 -34.5q0 -21 -15 -35.5t-35 -14.5zM136 490q13 0 13 -14v-462q0 -14 -13 -14h-2q-44 -1 -73 -27t-29 -62q0 -31 22 -45t61 -6v-58q-20 -9 -47 -9t-52 9t-42.5 33t-17.5 58q0 46 29.5 79t73.5 51v453 q0 14 13 14h64z" glyph-name="iogonek" horiz-adv-x="208" unicode="į"/><glyph d="M128 816q-20 0 -35 14.5t-15 35.5q0 20 15 34.5t35 14.5t35 -14.5t15 -34.5q0 -21 -15 -35.5t-35 -14.5zM96 0q-15 0 -15 14v672q0 14 15 14h65q14 0 14 -14v-672q0 -14 -14 -14h-65z" glyph-name="Idotaccent" horiz-adv-x="256" unicode="İ"/><glyph d="M72 0q-13 0 -13 14v462q0 14 13 14h64q13 0 13 -14v-462q0 -14 -13 -14h-64z" glyph-name="dotlessi" horiz-adv-x="208" unicode="ı"/><glyph d="M96 0q-15 0 -15 14v672q0 14 15 14h65q14 0 14 -14v-672q0 -14 -14 -14h-65zM476 -13q-101 0 -163 70q-9 12 0 22l34 45q9 11 19 1q53 -47 108 -47q122 0 122 158v450q0 14 14 14h65q14 0 14 -14v-450q0 -121 -57.5 -185t-155.5 -64z" glyph-name="IJ" horiz-adv-x="770" unicode="Ĳ"/><glyph d="M117 606q-23 0 -38.5 16t-15.5 38t15.5 38t38.5 16q22 0 37.5 -15.5t15.5 -38.5t-15.5 -38.5t-37.5 -15.5zM360 606q-23 0 -38.5 15.5t-15.5 38.5t15.5 38.5t38.5 15.5q22 0 37.5 -15.5t15.5 -38.5t-15.5 -38.5t-37.5 -15.5zM85 0q-13 0 -13 14v462q0 14 13 14h63 q14 0 14 -14v-462q0 -14 -14 -14h-63zM265 -200q-34 0 -55 10q-9 4 -9 13v55q0 9 12 7q21 -3 36 -3q38 0 51.5 19t13.5 55v520q0 14 14 14h63q13 0 13 -14v-536q0 -140 -139 -140z" glyph-name="ij" horiz-adv-x="476" unicode="ĳ"/><glyph d="M583 18q5 -8 2.5 -13t-11.5 -5h-75q-12 0 -18 9l-220 297l-86 -110v-182q0 -14 -14 -14h-65q-15 0 -15 14v672q0 14 15 14h65q14 0 14 -14v-362l274 368q7 8 18 8h80q10 0 12 -5t-4 -13l-238 -304zM299 -27q31 0 52.5 -25t21.5 -67q0 -60 -41 -101.5t-97 -39.5v28 q45 1 68 41q17 29 3 40q-3 3 -8 3q-27 -1 -45 16.5t-18 43.5t18.5 43.5t45.5 17.5z" glyph-name="Kcommaaccent" horiz-adv-x="628" unicode="Ķ"/><glyph d="M498 17q5 -7 2.5 -12t-11.5 -5h-67q-12 0 -18 9l-164 212l-78 -86v-121q0 -14 -14 -14h-63q-14 0 -14 14v687q0 14 14 14h63q14 0 14 -14v-454l211 235q7 8 17 8h76q8 0 9.5 -5t-3.5 -11l-176 -193zM283 -27q31 0 52.5 -25t21.5 -67q0 -60 -41 -101.5t-97 -39.5v28 q46 1 69 42q16 30 2 40q-3 2 -7 2q-28 -1 -45.5 16.5t-17.5 43.5t18.5 43.5t44.5 17.5z" glyph-name="kcommaaccent" horiz-adv-x="538" unicode="ķ"/><glyph d="M110 735q-17 0 -10 16l55 115q5 12 16 12h59q17 0 10 -16l-56 -115q-7 -12 -17 -12h-57zM418 84q15 0 15 -15v-54q0 -15 -15 -15h-322q-15 0 -15 14v672q0 14 15 14h65q14 0 14 -14v-602h243z" glyph-name="Lacute" horiz-adv-x="489" unicode="Ĺ"/><glyph d="M212 926q17 0 10 -16l-56 -115q-5 -12 -16 -12h-58q-17 0 -10 16l55 115q7 12 17 12h58zM85 0q-14 0 -14 14v687q0 14 14 14h63q14 0 14 -14v-687q0 -14 -14 -14h-63z" glyph-name="lacute" horiz-adv-x="233" unicode="ĺ"/><glyph d="M418 84q15 0 15 -15v-54q0 -15 -15 -15h-322q-15 0 -15 14v672q0 14 15 14h65q14 0 14 -14v-602h243zM258 -27q31 0 52.5 -25t21.5 -67q0 -60 -41 -101.5t-97 -39.5v28q46 1 69 42q16 30 2 40q-3 2 -7 2q-28 -1 -45.5 16.5t-17.5 43.5t18.5 43.5t44.5 17.5z" glyph-name="Lcommaaccent" horiz-adv-x="484" unicode="Ļ"/><glyph d="M85 0q-14 0 -14 14v687q0 14 14 14h63q14 0 14 -14v-687q0 -14 -14 -14h-63zM61 -260v28q46 1 69 42q16 30 2 40q-3 2 -7 2q-28 -1 -45.5 16.5t-17.5 43.5t18.5 43.5t44.5 17.5q31 0 52.5 -25t21.5 -67q0 -60 -41 -101.5t-97 -39.5z" glyph-name="lcommaaccent" horiz-adv-x="233" unicode="ļ"/><glyph d="M392 618q0 -60 -41 -101.5t-97 -39.5v28q47 1 69 42q16 30 2 40q-4 2 -8 2q-27 -1 -45 16.5t-18 43.5t18.5 43.5t45.5 17.5q31 0 52.5 -25t21.5 -67zM418 84q15 0 15 -15v-54q0 -15 -15 -15h-322q-15 0 -15 14v672q0 14 15 14h65q14 0 14 -14v-602h243z" glyph-name="Lcaron" horiz-adv-x="487" unicode="Ľ"/><glyph d="M199 517v28q47 1 69 42q16 30 2 40q-4 2 -8 2q-27 -1 -45 16.5t-18 43.5t18.5 43.5t45.5 17.5q31 0 52.5 -25t21.5 -67q0 -60 -41 -101.5t-97 -39.5zM85 0q-14 0 -14 14v687q0 14 14 14h63q14 0 14 -14v-687q0 -14 -14 -14h-63z" glyph-name="lcaron" horiz-adv-x="340" unicode="ľ"/><glyph d="M418 84q15 0 15 -15v-54q0 -15 -15 -15h-322q-15 0 -15 14v672q0 14 15 14h65q14 0 14 -14v-602h243zM347 316q-25 0 -42.5 17.5t-17.5 42.5t17.5 42.5t42.5 17.5t42.5 -17.5t17.5 -42.5t-17.5 -42.5t-42.5 -17.5z" glyph-name="Ldot" horiz-adv-x="495" unicode="Ŀ"/><glyph d="M85 0q-14 0 -14 14v687q0 14 14 14h63q14 0 14 -14v-687q0 -14 -14 -14h-63zM263 314q-25 0 -42.5 17.5t-17.5 42.5t17.5 42.5t42.5 17.5t42.5 -17.5t17.5 -42.5t-17.5 -42.5t-42.5 -17.5z" glyph-name="ldot" horiz-adv-x="258" unicode="ŀ"/><glyph d="M435 84q15 0 15 -15v-54q0 -15 -15 -15h-322q-14 0 -14 14v227l-51 -50q-8 -7 -13 -4.5t-5 12.5v59q0 11 8 19l61 59v350q0 14 14 14h65q14 0 14 -14v-259l93 90q7 7 12.5 4.5t5.5 -12.5v-58q0 -11 -8 -19l-103 -100v-248h243z" glyph-name="Lslash" horiz-adv-x="501" unicode="Ł"/><glyph d="M259 465l-87 -96v-355q0 -14 -13 -14h-64q-13 0 -13 14v257l-87 -96v64l87 96v366q0 14 13 14h64q13 0 13 -14v-268l86 95z" glyph-name="lslash" horiz-adv-x="254" unicode="ł"/><glyph d="M314 767q-17 0 -10 16l55 115q7 12 17 12h58q17 0 10 -16l-56 -115q-5 -12 -16 -12h-58zM581 700q14 0 14 -14v-672q0 -14 -14 -14h-83q-12 0 -18 10l-305 549v-545q0 -14 -14 -14h-65q-15 0 -15 14v672q0 14 15 14h82q12 0 18 -10l306 -551v547q0 14 14 14h65z" glyph-name="Nacute" horiz-adv-x="677" unicode="Ń"/><glyph d="M266 557q-17 0 -10 16l55 115q7 12 17 12h58q17 0 10 -16l-56 -115q-5 -12 -16 -12h-58zM318 502q81 0 130.5 -52.5t49.5 -147.5v-288q0 -14 -14 -14h-63q-13 0 -13 14v274q0 62 -30.5 96.5t-86.5 34.5q-57 0 -93.5 -35.5t-36.5 -95.5v-274q0 -14 -13 -14h-63 q-14 0 -14 14v462q0 14 14 14h59q14 0 14 -15l3 -62q50 89 157 89z" glyph-name="nacute" unicode="ń"/><glyph d="M581 700q14 0 14 -14v-672q0 -14 -14 -14h-83q-12 0 -18 10l-305 549v-545q0 -14 -14 -14h-65q-15 0 -15 14v672q0 14 15 14h82q12 0 18 -10l306 -551v547q0 14 14 14h65zM347 -27q31 0 52.5 -25t21.5 -67q0 -60 -41 -101.5t-97 -39.5v28q46 1 69 42q16 30 2 40 q-3 2 -7 2q-28 -1 -45.5 16.5t-17.5 43.5t18.5 43.5t44.5 17.5z" glyph-name="Ncommaaccent" horiz-adv-x="677" unicode="Ņ"/><glyph d="M318 502q81 0 130.5 -52.5t49.5 -147.5v-288q0 -14 -14 -14h-63q-13 0 -13 14v274q0 62 -30.5 96.5t-86.5 34.5q-57 0 -93.5 -35.5t-36.5 -95.5v-274q0 -14 -13 -14h-63q-14 0 -14 14v462q0 14 14 14h59q14 0 14 -15l3 -62q50 89 157 89zM299 -27q31 0 52.5 -25t21.5 -67 q0 -60 -41 -101.5t-97 -39.5v28q46 1 69 42q16 30 2 40q-3 2 -7 2q-28 -1 -45.5 16.5t-17.5 43.5t18.5 43.5t44.5 17.5z" glyph-name="ncommaaccent" unicode="ņ"/><glyph d="M292 790l-87 105q-5 5 -2.5 10t9.5 5h48q10 0 17 -8l61 -76l62 76q7 8 17 8h48q7 0 9.5 -5t-2.5 -10l-87 -105q-7 -8 -16 -8h-61q-9 0 -16 8zM581 700q14 0 14 -14v-672q0 -14 -14 -14h-83q-12 0 -18 10l-305 549v-545q0 -14 -14 -14h-65q-15 0 -15 14v672q0 14 15 14h82 q12 0 18 -10l306 -551v547q0 14 14 14h65z" glyph-name="Ncaron" horiz-adv-x="677" unicode="Ň"/><glyph d="M245 580l-87 105q-5 5 -2.5 10t9.5 5h48q10 0 17 -8l61 -76l62 76q7 8 17 8h48q7 0 9.5 -5t-2.5 -10l-87 -105q-7 -8 -16 -8h-61q-9 0 -16 8zM318 502q81 0 130.5 -52.5t49.5 -147.5v-288q0 -14 -14 -14h-63q-13 0 -13 14v274q0 62 -30.5 96.5t-86.5 34.5 q-57 0 -93.5 -35.5t-36.5 -95.5v-274q0 -14 -13 -14h-63q-14 0 -14 14v462q0 14 14 14h59q14 0 14 -15l3 -62q50 89 157 89z" glyph-name="ncaron" unicode="ň"/><glyph d="M581 700q14 0 14 -14v-680q0 -122 -57.5 -185.5t-155.5 -63.5q-101 0 -163 70q-9 12 0 22l35 45q9 10 18 1q53 -47 108 -47q119 0 122 152h-4q-12 0 -18 10l-305 549v-545q0 -14 -14 -14h-65q-15 0 -15 14v672q0 14 15 14h82q12 0 18 -10l306 -551v547q0 14 14 14h65z " glyph-name="Eng" horiz-adv-x="677" unicode="Ŋ"/><glyph d="M318 502q81 0 130.5 -52.5t49.5 -147.5v-305q0 -94 -46 -144.5t-126 -50.5q-9 0 -11 9l-18 63q-4 11 8 11q49 0 76 33.5t27 98.5v271q0 62 -30.5 96.5t-86.5 34.5q-57 0 -93.5 -35.5t-36.5 -95.5v-274q0 -14 -13 -14h-63q-14 0 -14 14v462q0 14 14 14h59q14 0 14 -15 l3 -62q50 89 157 89z" glyph-name="eng" unicode="ŋ"/><glyph d="M560 910q15 0 15 -14v-44q0 -15 -15 -15h-281q-14 0 -14 15v44q0 14 14 14h281zM420 -13q-151 0 -255 104.5t-104 255.5q0 152 104 256.5t255 104.5q150 0 254 -104.5t104 -256.5q0 -151 -104 -255.5t-254 -104.5zM420 78q113 0 188.5 77t75.5 192t-75.5 192.5 t-188.5 77.5t-188.5 -77.5t-75.5 -192.5t75.5 -192t188.5 -77z" glyph-name="Omacron" horiz-adv-x="840" unicode="Ō"/><glyph d="M439 700q15 0 15 -14v-44q0 -15 -15 -15h-281q-14 0 -14 15v44q0 14 14 14h281zM299 -12q-108 0 -180.5 73.5t-72.5 183.5t72.5 183.5t180.5 73.5t180 -73.5t72 -183.5t-72 -183.5t-180 -73.5zM299 72q71 0 118 48.5t47 124.5q0 77 -47 125.5t-118 48.5 q-72 0 -118.5 -48.5t-46.5 -125.5t46.5 -125t118.5 -48z" glyph-name="omacron" horiz-adv-x="597" unicode="ō"/><glyph d="M442 910q17 0 10 -16l-56 -115q-5 -12 -16 -12h-58q-17 0 -10 16l55 115q7 12 17 12h58zM590 910q17 0 10 -16l-57 -115q-5 -12 -16 -12h-58q-18 0 -9 16l55 115q5 12 16 12h59zM420 -13q-151 0 -255 104.5t-104 255.5q0 152 104 256.5t255 104.5q150 0 254 -104.5 t104 -256.5q0 -151 -104 -255.5t-254 -104.5zM420 78q113 0 188.5 77t75.5 192t-75.5 192.5t-188.5 77.5t-188.5 -77.5t-75.5 -192.5t75.5 -192t188.5 -77z" glyph-name="Ohungarumlaut" horiz-adv-x="840" unicode="Ő"/><glyph d="M321 700q17 0 10 -16l-56 -115q-5 -12 -16 -12h-58q-17 0 -10 16l55 115q7 12 17 12h58zM469 700q17 0 10 -16l-57 -115q-5 -12 -16 -12h-58q-18 0 -9 16l55 115q5 12 16 12h59zM299 -12q-108 0 -180.5 73.5t-72.5 183.5t72.5 183.5t180.5 73.5t180 -73.5t72 -183.5 t-72 -183.5t-180 -73.5zM299 72q71 0 118 48.5t47 124.5q0 77 -47 125.5t-118 48.5q-72 0 -118.5 -48.5t-46.5 -125.5t46.5 -125t118.5 -48z" glyph-name="ohungarumlaut" horiz-adv-x="597" unicode="ő"/><glyph d="M1040 84q15 0 15 -15v-55q0 -14 -15 -14h-341q-14 0 -14 14v89q-105 -116 -265 -116q-151 0 -255 104.5t-104 255.5q0 152 104 256.5t255 104.5q160 0 265 -116v94q0 14 14 14h341q14 0 14 -14v-55q0 -14 -14 -14h-262v-216h248q14 0 14 -14v-55q0 -14 -14 -14h-248v-234 h262zM420 78q113 0 188.5 77t75.5 192t-75.5 192.5t-188.5 77.5t-188.5 -77.5t-75.5 -192.5t75.5 -192t188.5 -77z" glyph-name="OE" horiz-adv-x="1126" unicode="Œ"/><glyph d="M943 270q0 -31 -8.5 -44.5t-32.5 -13.5h-349q8 -68 55 -109t126 -41q73 0 134 42q9 7 15 -1l23 -31q7 -10 -4 -21q-66 -63 -175 -63q-145 0 -219 110q-34 -51 -88.5 -80.5t-120.5 -29.5q-108 0 -180.5 73.5t-72.5 183.5t72.5 183.5t180.5 73.5q65 0 119.5 -29t88.5 -79 q32 50 85.5 79t119.5 29q106 0 168.5 -68t62.5 -164zM712 425q-66 0 -109.5 -39.5t-50.5 -106.5h311q-4 67 -44.5 106.5t-106.5 39.5zM299 72q71 0 118 48.5t47 124.5q0 77 -47 125.5t-118 48.5q-72 0 -118.5 -48.5t-46.5 -125.5t46.5 -125t118.5 -48z" glyph-name="oe" horiz-adv-x="990" unicode="œ"/><glyph d="M261 767q-17 0 -10 16l55 115q7 12 17 12h58q17 0 10 -16l-56 -115q-5 -12 -16 -12h-58zM531 18q11 -18 -10 -18h-69q-12 0 -18 10l-163 250h-96v-246q0 -14 -14 -14h-65q-15 0 -15 14v672q0 14 15 14h196q113 0 174 -60t61 -160q0 -82 -42 -138t-121 -74zM175 617v-274 h111q68 0 109 32.5t41 104.5t-41 104.5t-109 32.5h-111z" glyph-name="Racute" horiz-adv-x="585" unicode="Ŕ"/><glyph d="M167 557q-17 0 -10 16l55 115q7 12 17 12h58q17 0 10 -16l-56 -115q-5 -12 -16 -12h-58zM317 492q8 -7 8 -18v-49q0 -15 -18 -10q-16 5 -36 5q-56 0 -83 -38.5t-27 -90.5v-277q0 -14 -13 -14h-63q-14 0 -14 14v462q0 14 14 14h59q14 0 14 -15l3 -59q30 86 111 86 q30 0 45 -10z" glyph-name="racute" horiz-adv-x="363" unicode="ŕ"/><glyph d="M531 18q11 -18 -10 -18h-69q-12 0 -18 10l-163 250h-96v-246q0 -14 -14 -14h-65q-15 0 -15 14v672q0 14 15 14h196q113 0 174 -60t61 -160q0 -82 -42 -138t-121 -74zM175 617v-274h111q68 0 109 32.5t41 104.5t-41 104.5t-109 32.5h-111zM294 -27q31 0 52.5 -25t21.5 -67 q0 -60 -41 -101.5t-97 -39.5v28q46 1 69 42q16 30 2 40q-3 2 -7 2q-28 -1 -45.5 16.5t-17.5 43.5t18.5 43.5t44.5 17.5z" glyph-name="Rcommaaccent" horiz-adv-x="585" unicode="Ŗ"/><glyph d="M317 492q8 -7 8 -18v-49q0 -15 -18 -10q-16 5 -36 5q-56 0 -83 -38.5t-27 -90.5v-277q0 -14 -13 -14h-63q-14 0 -14 14v462q0 14 14 14h59q14 0 14 -15l3 -59q30 86 111 86q30 0 45 -10zM125 -27q31 0 52.5 -25t21.5 -67q0 -60 -41 -101.5t-97 -39.5v28q46 1 69 42 q16 30 2 40q-3 2 -7 2q-28 -1 -45.5 16.5t-17.5 43.5t18.5 43.5t44.5 17.5z" glyph-name="rcommaaccent" horiz-adv-x="363" unicode="ŗ"/><glyph d="M239 790l-87 105q-5 5 -2.5 10t9.5 5h48q10 0 17 -8l61 -76l62 76q7 8 17 8h48q7 0 9.5 -5t-2.5 -10l-87 -105q-7 -8 -16 -8h-61q-9 0 -16 8zM531 18q11 -18 -10 -18h-69q-12 0 -18 10l-163 250h-96v-246q0 -14 -14 -14h-65q-15 0 -15 14v672q0 14 15 14h196 q113 0 174 -60t61 -160q0 -82 -42 -138t-121 -74zM175 617v-274h111q68 0 109 32.5t41 104.5t-41 104.5t-109 32.5h-111z" glyph-name="Rcaron" horiz-adv-x="585" unicode="Ř"/><glyph d="M319 700q7 0 9.5 -5t-2.5 -10l-87 -105q-7 -8 -16 -8h-61q-9 0 -16 8l-87 105q-5 5 -2.5 10t9.5 5h48q10 0 17 -8l61 -76l62 76q7 8 17 8h48zM317 492q8 -7 8 -18v-49q0 -15 -18 -10q-16 5 -36 5q-56 0 -83 -38.5t-27 -90.5v-277q0 -14 -13 -14h-63q-14 0 -14 14v462 q0 14 14 14h59q14 0 14 -15l3 -59q30 86 111 86q30 0 45 -10z" glyph-name="rcaron" horiz-adv-x="363" unicode="ř"/><glyph d="M356 910q17 0 10 -16l-56 -115q-5 -12 -16 -12h-58q-17 0 -10 16l55 115q7 12 17 12h58zM270 -12q-140 0 -213 105q-8 12 1 21l34 39q11 11 23 -1q63 -78 154 -78q61 0 96 29.5t35 79.5q0 46 -28 72.5t-87 54.5l-85 41q-128 59 -128 176q0 83 57 132t143 49 q115 0 191 -90q11 -11 -1 -24l-30 -36q-11 -13 -23 -1q-62 65 -134 65q-50 0 -81 -25t-31 -69q0 -36 21 -59.5t68 -46.5l79 -38q36 -17 60 -32.5t49.5 -39t38 -56t12.5 -73.5q0 -91 -62.5 -143t-158.5 -52z" glyph-name="Sacute" horiz-adv-x="544" unicode="Ś"/><glyph d="M315 700q17 0 10 -16l-56 -115q-5 -12 -16 -12h-58q-17 0 -10 16l55 115q7 12 17 12h58zM222 -12q-104 0 -166 76q-9 11 0 26l20 28q11 14 24 1q56 -54 118 -54q39 0 62.5 17.5t23.5 50.5q0 28 -17 45t-53 32l-59 25q-109 45 -109 131q0 62 45.5 99t110.5 37 q93 0 149 -70q8 -10 -1 -21l-24 -28q-11 -13 -24 0q-45 45 -96 45q-32 0 -53 -16t-21 -44t18 -44t56 -31l54 -22q54 -22 84 -54.5t29 -85.5q0 -67 -49.5 -105t-121.5 -38z" glyph-name="sacute" horiz-adv-x="445" unicode="ś"/><glyph d="M491 183q0 -87 -57.5 -138.5t-147.5 -56.5l-26 -26q36 -2 61.5 -23t25.5 -57q0 -57 -46.5 -80t-110.5 -15q-9 1 -9 11v32q0 10 11 10q89 -8 89 36q0 23 -25.5 32t-62.5 -3q-12 -3 -12 7v31q0 7 5 12l35 37q-105 16 -164 101q-8 12 1 21l34 39q11 11 23 -1q63 -78 154 -78 q61 0 96 29.5t35 79.5q0 46 -28 72.5t-87 54.5l-85 41q-128 59 -128 176q0 83 57 132t143 49q115 0 191 -90q11 -11 -1 -24l-30 -36q-11 -13 -23 -1q-62 65 -134 65q-50 0 -81 -25t-31 -69q0 -36 21 -59.5t68 -46.5l79 -38q36 -17 60 -32.5t49.5 -39t38 -56t12.5 -73.5z" glyph-name="Scedilla" horiz-adv-x="544" unicode="Ş"/><glyph d="M280 271q54 -22 84 -54.5t29 -85.5q0 -61 -41.5 -98.5t-105.5 -43.5l-27 -27q36 -2 61.5 -23t25.5 -57q0 -57 -46.5 -80t-110.5 -15q-9 1 -9 11v32q0 10 11 10q89 -8 89 36q0 23 -25.5 32t-62.5 -3q-12 -3 -12 7v31q0 7 5 12l35 37q-77 13 -124 72q-9 11 0 26l20 28 q11 14 24 1q56 -54 118 -54q39 0 62.5 17.5t23.5 50.5q0 28 -17 45t-53 32l-59 25q-109 45 -109 131q0 62 45.5 99t110.5 37q93 0 149 -70q8 -10 -1 -21l-24 -28q-11 -13 -24 0q-45 45 -96 45q-32 0 -53 -16t-21 -44t18 -44t56 -31z" glyph-name="scedilla" horiz-adv-x="445" unicode="ş"/><glyph d="M134 910h48q10 0 17 -8l61 -76l62 76q7 8 17 8h48q7 0 9.5 -5t-2.5 -10l-87 -105q-7 -8 -16 -8h-61q-9 0 -16 8l-87 105q-5 5 -2.5 10t9.5 5zM270 -12q-140 0 -213 105q-8 12 1 21l34 39q11 11 23 -1q63 -78 154 -78q61 0 96 29.5t35 79.5q0 46 -28 72.5t-87 54.5l-85 41 q-128 59 -128 176q0 83 57 132t143 49q115 0 191 -90q11 -11 -1 -24l-30 -36q-11 -13 -23 -1q-62 65 -134 65q-50 0 -81 -25t-31 -69q0 -36 21 -59.5t68 -46.5l79 -38q36 -17 60 -32.5t49.5 -39t38 -56t12.5 -73.5q0 -91 -62.5 -143t-158.5 -52z" glyph-name="Scaron" horiz-adv-x="544" unicode="Š"/><glyph d="M93 700h48q10 0 17 -8l61 -76l62 76q7 8 17 8h48q7 0 9.5 -5t-2.5 -10l-87 -105q-7 -8 -16 -8h-61q-9 0 -16 8l-87 105q-5 5 -2.5 10t9.5 5zM222 -12q-104 0 -166 76q-9 11 0 26l20 28q11 14 24 1q56 -54 118 -54q39 0 62.5 17.5t23.5 50.5q0 28 -17 45t-53 32l-59 25 q-109 45 -109 131q0 62 45.5 99t110.5 37q93 0 149 -70q8 -10 -1 -21l-24 -28q-11 -13 -24 0q-45 45 -96 45q-32 0 -53 -16t-21 -44t18 -44t56 -31l54 -22q54 -22 84 -54.5t29 -85.5q0 -67 -49.5 -105t-121.5 -38z" glyph-name="scaron" horiz-adv-x="445" unicode="š"/><glyph d="M461 700q14 0 14 -14v-55q0 -14 -14 -14h-146v-603q0 -14 -14 -14h5l-38 -38q36 -2 61.5 -23t25.5 -57q0 -57 -46.5 -80t-110.5 -15q-9 1 -9 11v32q0 10 11 10q89 -8 89 36q0 23 -25.5 32t-62.5 -3q-12 -3 -12 7v31q0 7 5 12l43 45h-1q-14 0 -14 14v603h-146 q-15 0 -15 14v55q0 14 15 14h385z" glyph-name="Tcommaaccent" horiz-adv-x="537" unicode="Ţ"/><glyph d="M220 -37q36 -2 61.5 -23t25.5 -57q0 -57 -46.5 -80t-110.5 -15q-9 2 -9 11v32q0 10 11 10q89 -8 89 36q0 23 -25.5 32t-62.5 -3q-12 -3 -12 7v31q0 7 5 12l38 40q-65 23 -65 108v313h-63q-15 0 -15 15v44q0 14 15 14h63v116q0 14 14 14h63q13 0 13 -14v-116h82 q14 0 14 -14v-44q0 -15 -14 -15h-82v-302q0 -50 45 -50q11 0 31 2q19 3 19 -13v-42q0 -22 -59 -24z" glyph-name="tcommaaccent" horiz-adv-x="346" unicode="ţ"/><glyph d="M142 910h48q10 0 17 -8l61 -76l62 76q7 8 17 8h48q7 0 9.5 -5t-2.5 -10l-87 -105q-7 -8 -16 -8h-61q-9 0 -16 8l-87 105q-5 5 -2.5 10t9.5 5zM236 0q-14 0 -14 14v603h-146q-15 0 -15 14v55q0 14 15 14h385q14 0 14 -14v-55q0 -14 -14 -14h-146v-603q0 -14 -14 -14h-65z " glyph-name="Tcaron" horiz-adv-x="537" unicode="Ť"/><glyph d="M388 673q17 0 10 -16l-57 -115q-5 -12 -16 -12h-58q-18 0 -9 16l55 115q5 12 16 12h59zM291 490q14 0 14 -14v-44q0 -15 -14 -15h-82v-302q0 -50 45 -50q11 0 31 2q19 3 19 -13v-42q0 -24 -69 -24q-55 0 -85.5 28.5t-30.5 87.5v313h-63q-15 0 -15 15v44q0 14 15 14h63 v116q0 14 14 14h63q13 0 13 -14v-116h82z" glyph-name="tcaron" horiz-adv-x="403" unicode="ť"/><glyph d="M461 700q14 0 14 -14v-55q0 -14 -14 -14h-146v-127h94q14 0 14 -14v-44q0 -15 -14 -15h-94v-403q0 -14 -14 -14h-65q-14 0 -14 14v403h-94q-14 0 -14 15v44q0 14 14 14h94v127h-146q-15 0 -15 14v55q0 14 15 14h385z" glyph-name="Tbar" horiz-adv-x="537" unicode="Ŧ"/><glyph d="M291 417h-82v-67h81q15 0 15 -15v-46q0 -15 -15 -15h-81v-159q0 -50 45 -50q11 0 31 2q19 3 19 -13v-42q0 -24 -69 -24q-55 0 -85.5 28.5t-30.5 87.5v170h-63q-15 0 -15 15v46q0 15 15 15h63v67h-63q-15 0 -15 15v44q0 14 15 14h63v116q0 14 14 14h63q13 0 13 -14v-116 h82q14 0 14 -14v-44q0 -15 -14 -15z" glyph-name="tbar" horiz-adv-x="346" unicode="ŧ"/><glyph d="M250 929q38 0 79.5 -33t65.5 -33q33 0 43 29q3 9 11 9h20q10 0 10 -10q-4 -40 -28.5 -61.5t-58.5 -21.5q-25 0 -47 10.5t-35.5 23t-31 23t-34.5 10.5q-33 0 -44 -30q-3 -9 -11 -9h-20q-11 0 -9 13q4 39 28.5 59.5t61.5 20.5zM318 -13q-109 0 -175.5 66.5t-66.5 186.5v446 q0 14 15 14h65q14 0 14 -14v-439q0 -83 40 -126t108 -43q69 0 109 43t40 126v439q0 14 14 14h65q14 0 14 -14v-446q0 -121 -66 -187t-176 -66z" glyph-name="Utilde" horiz-adv-x="637" unicode="Ũ"/><glyph d="M137 626q-11 0 -9 13q4 39 28.5 59.5t61.5 20.5q38 0 79.5 -33t65.5 -33q33 0 43 29q3 9 11 9h20q10 0 10 -10q-4 -40 -28.5 -61.5t-58.5 -21.5q-25 0 -47 10.5t-35.5 23t-31 23t-34.5 10.5q-33 0 -44 -30q-3 -9 -11 -9h-20zM484 490q14 0 14 -14v-462q0 -14 -14 -14h-59 q-14 0 -14 15l-3 62q-50 -89 -157 -89q-81 0 -130 53t-49 148v287q0 14 13 14h63q14 0 14 -14v-274q0 -62 30 -96t86 -34q58 0 94 35t36 95v274q0 14 13 14h63z" glyph-name="utilde" unicode="ũ"/><glyph d="M459 910q15 0 15 -14v-44q0 -15 -15 -15h-281q-14 0 -14 15v44q0 14 14 14h281zM318 -13q-109 0 -175.5 66.5t-66.5 186.5v446q0 14 15 14h65q14 0 14 -14v-439q0 -83 40 -126t108 -43q69 0 109 43t40 126v439q0 14 14 14h65q14 0 14 -14v-446q0 -121 -66 -187t-176 -66z " glyph-name="Umacron" horiz-adv-x="637" unicode="Ū"/><glyph d="M145 627q-14 0 -14 15v44q0 14 14 14h281q15 0 15 -14v-44q0 -15 -15 -15h-281zM484 490q14 0 14 -14v-462q0 -14 -14 -14h-59q-14 0 -14 15l-3 62q-50 -89 -157 -89q-81 0 -130 53t-49 148v287q0 14 13 14h63q14 0 14 -14v-274q0 -62 30 -96t86 -34q58 0 94 35t36 95 v274q0 14 13 14h63z" glyph-name="umacron" unicode="ū"/><glyph d="M401 896q3 14 16 14h30q15 0 14 -15q-5 -52 -43 -85.5t-99 -33.5t-99 33.5t-43 85.5q-1 15 14 15h30q13 0 16 -14q6 -28 27.5 -45.5t54.5 -17.5t54.5 17.5t27.5 45.5zM318 -13q-109 0 -175.5 66.5t-66.5 186.5v446q0 14 15 14h65q14 0 14 -14v-439q0 -83 40 -126t108 -43 q69 0 109 43t40 126v439q0 14 14 14h65q14 0 14 -14v-446q0 -121 -66 -187t-176 -66z" glyph-name="Ubreve" horiz-adv-x="637" unicode="Ŭ"/><glyph d="M286 566q-61 0 -99 33.5t-43 85.5q-2 15 14 15h30q13 0 16 -14q6 -28 27.5 -45.5t54.5 -17.5t54.5 17.5t27.5 45.5q3 14 16 14h30q16 0 14 -15q-5 -52 -43 -85.5t-99 -33.5zM484 490q14 0 14 -14v-462q0 -14 -14 -14h-59q-14 0 -14 15l-3 62q-50 -89 -157 -89 q-81 0 -130 53t-49 148v287q0 14 13 14h63q14 0 14 -14v-274q0 -62 30 -96t86 -34q58 0 94 35t36 95v274q0 14 13 14h63z" glyph-name="ubreve" unicode="ŭ"/><glyph d="M318 934q37 0 62 -24.5t25 -59.5q0 -36 -25 -60t-62 -24t-61.5 24t-24.5 60q0 35 24.5 59.5t61.5 24.5zM318 823q12 0 19.5 8t7.5 19t-7.5 19t-19.5 8q-11 0 -19 -8t-8 -19t8 -19t19 -8zM318 -13q-109 0 -175.5 66.5t-66.5 186.5v446q0 14 15 14h65q14 0 14 -14v-439 q0 -83 40 -126t108 -43q69 0 109 43t40 126v439q0 14 14 14h65q14 0 14 -14v-446q0 -121 -66 -187t-176 -66z" glyph-name="Uring" horiz-adv-x="637" unicode="Ů"/><glyph d="M286 556q-37 0 -61.5 24t-24.5 60q0 35 24.5 59.5t61.5 24.5t62 -24.5t25 -59.5q0 -36 -25 -60t-62 -24zM286 667q-11 0 -19 -8t-8 -19t8 -19t19 -8q12 0 19.5 8t7.5 19t-7.5 19t-19.5 8zM484 490q14 0 14 -14v-462q0 -14 -14 -14h-59q-14 0 -14 15l-3 62 q-50 -89 -157 -89q-81 0 -130 53t-49 148v287q0 14 13 14h63q14 0 14 -14v-274q0 -62 30 -96t86 -34q58 0 94 35t36 95v274q0 14 13 14h63z" glyph-name="uring" unicode="ů"/><glyph d="M340 910q17 0 10 -16l-56 -115q-5 -12 -16 -12h-58q-17 0 -10 16l55 115q7 12 17 12h58zM488 910q17 0 10 -16l-57 -115q-5 -12 -16 -12h-58q-18 0 -9 16l55 115q5 12 16 12h59zM318 -13q-109 0 -175.5 66.5t-66.5 186.5v446q0 14 15 14h65q14 0 14 -14v-439 q0 -83 40 -126t108 -43q69 0 109 43t40 126v439q0 14 14 14h65q14 0 14 -14v-446q0 -121 -66 -187t-176 -66z" glyph-name="Uhungarumlaut" horiz-adv-x="637" unicode="Ű"/><glyph d="M188 557q-17 0 -10 16l55 115q7 12 17 12h58q17 0 10 -16l-56 -115q-5 -12 -16 -12h-58zM335 557q-18 0 -9 16l55 115q5 12 16 12h59q17 0 10 -16l-57 -115q-5 -12 -16 -12h-58zM484 490q14 0 14 -14v-462q0 -14 -14 -14h-59q-14 0 -14 15l-3 62q-50 -89 -157 -89 q-81 0 -130 53t-49 148v287q0 14 13 14h63q14 0 14 -14v-274q0 -62 30 -96t86 -34q58 0 94 35t36 95v274q0 14 13 14h63z" glyph-name="uhungarumlaut" unicode="ű"/><glyph d="M546 700q14 0 14 -14v-446q0 -87 -35.5 -147t-99.5 -86v-2q-103 -31 -103 -96q0 -32 21.5 -44.5t61.5 -4.5v-58q-47 -21 -103 2t-56 88q0 57 48 96q-99 7 -158.5 72.5t-59.5 179.5v446q0 14 15 14h65q14 0 14 -14v-439q0 -83 40 -126t108 -43q69 0 109 43t40 126v439 q0 14 14 14h65z" glyph-name="Uogonek" horiz-adv-x="637" unicode="Ų"/><glyph d="M484 490q14 0 14 -14v-462q0 -14 -14 -14h-11q-44 -1 -73 -27t-29 -62q0 -31 22 -45t61 -6v-58q-20 -9 -47 -9t-52 9t-42.5 33t-17.5 58q0 49 33.5 83.5t81.5 51.5l-2 49q-50 -89 -157 -89q-81 0 -130 53t-49 148v287q0 14 13 14h63q14 0 14 -14v-274q0 -62 30 -96 t86 -34q58 0 94 35t36 95v274q0 14 13 14h63z" glyph-name="uogonek" unicode="ų"/><glyph d="M415 782q-7 0 -9.5 5t2.5 10l87 105q7 8 16 8h61q9 0 16 -8l87 -105q5 -5 2.5 -10t-9.5 -5h-48q-10 0 -17 8l-62 76l-61 -76q-7 -8 -17 -8h-48zM1022 700q17 0 12 -17l-205 -671q-4 -12 -18 -12h-72q-14 0 -18 12l-180 572l-181 -572q-4 -12 -17 -12h-73q-14 0 -17 12 l-206 671q-5 17 12 17h66q14 0 17 -12l167 -563l181 563q4 12 17 12h68q12 0 16 -12l181 -563l167 563q4 12 17 12h66z" glyph-name="Wcircumflex" horiz-adv-x="1081" unicode="Ŵ"/><glyph d="M310 572q-7 0 -9.5 5t2.5 10l87 105q7 8 16 8h61q9 0 16 -8l87 -105q5 -5 2.5 -10t-9.5 -5h-48q-10 0 -17 8l-62 76l-61 -76q-7 -8 -17 -8h-48zM220 0q-14 0 -18 12l-159 461q-6 17 11 17h62q12 0 16 -12l124 -377l130 377q4 12 18 12h65q14 0 18 -12l129 -377l124 377 q4 12 17 12h61q18 0 12 -17l-159 -461q-5 -12 -18 -12h-67q-14 0 -18 12l-132 377l-131 -377q-5 -12 -18 -12h-67z" glyph-name="wcircumflex" horiz-adv-x="873" unicode="ŵ"/><glyph d="M176 782q-7 0 -9.5 5t2.5 10l87 105q7 8 16 8h61q9 0 16 -8l87 -105q5 -5 2.5 -10t-9.5 -5h-48q-10 0 -17 8l-62 76l-61 -76q-7 -8 -17 -8h-48zM547 700q9 0 11.5 -5t-2.5 -13l-207 -350v-318q0 -14 -14 -14h-65q-14 0 -14 14v318l-207 350q-5 8 -2 13t12 5h70 q11 0 17 -10l157 -270l156 270q6 10 18 10h70z" glyph-name="Ycircumflex" horiz-adv-x="605" unicode="Ŷ"/><glyph d="M150 572q-7 0 -9.5 5t2.5 10l87 105q7 8 16 8h61q9 0 16 -8l87 -105q5 -5 2.5 -10t-9.5 -5h-48q-10 0 -17 8l-62 76l-61 -76q-7 -8 -17 -8h-48zM172 -190q-17 0 -10 15l69 173l-188 475q-6 17 11 17h64q12 0 16 -12l142 -376l142 376q5 12 17 12h63q18 0 12 -17 l-259 -651q-4 -12 -17 -12h-62z" glyph-name="ycircumflex" horiz-adv-x="553" unicode="ŷ"/><glyph d="M207 816q-20 0 -35 14.5t-15 35.5q0 20 15 34.5t35 14.5t35 -14.5t15 -34.5q0 -21 -15 -35.5t-35 -14.5zM399 816q-20 0 -35 14.5t-15 35.5q0 20 15 34.5t35 14.5t35 -14.5t15 -34.5q0 -21 -15 -35.5t-35 -14.5zM547 700q9 0 11.5 -5t-2.5 -13l-207 -350v-318 q0 -14 -14 -14h-65q-14 0 -14 14v318l-207 350q-5 8 -2 13t12 5h70q11 0 17 -10l157 -270l156 270q6 10 18 10h70z" glyph-name="Ydieresis" horiz-adv-x="605" unicode="Ÿ"/><glyph d="M374 910q17 0 10 -16l-56 -115q-5 -12 -16 -12h-58q-17 0 -10 16l55 115q7 12 17 12h58zM71 0q-15 0 -15 14v60q0 9 6 18l333 525h-314q-15 0 -15 14v55q0 14 15 14h396q14 0 14 -14v-60q0 -9 -6 -18l-332 -524h334q14 0 14 -15v-55q0 -14 -14 -14h-416z" glyph-name="Zacute" horiz-adv-x="563" unicode="Ź"/><glyph d="M334 700q17 0 10 -16l-56 -115q-5 -12 -16 -12h-58q-17 0 -10 16l55 115q7 12 17 12h58zM66 0q-15 0 -15 14v51q0 10 7 19l267 331h-256q-15 0 -15 14v47q0 14 15 14h341q15 0 15 -14v-51q0 -11 -7 -18l-266 -331h260q14 0 14 -15v-47q0 -14 -14 -14h-346z" glyph-name="zacute" horiz-adv-x="478" unicode="ź"/><glyph d="M279 816q-20 0 -35 14.5t-15 35.5q0 20 15 34.5t35 14.5t35 -14.5t15 -34.5q0 -21 -15 -35.5t-35 -14.5zM71 0q-15 0 -15 14v60q0 9 6 18l333 525h-314q-15 0 -15 14v55q0 14 15 14h396q14 0 14 -14v-60q0 -9 -6 -18l-332 -524h334q14 0 14 -15v-55q0 -14 -14 -14h-416z " glyph-name="Zdotaccent" horiz-adv-x="563" unicode="Ż"/><glyph d="M239 606q-20 0 -35 14.5t-15 35.5q0 20 15 34.5t35 14.5t35 -14.5t15 -34.5q0 -21 -15 -35.5t-35 -14.5zM66 0q-15 0 -15 14v51q0 10 7 19l267 331h-256q-15 0 -15 14v47q0 14 15 14h341q15 0 15 -14v-51q0 -11 -7 -18l-266 -331h260q14 0 14 -15v-47q0 -14 -14 -14h-346 z" glyph-name="zdotaccent" horiz-adv-x="478" unicode="ż"/><glyph d="M153 910h48q10 0 17 -8l61 -76l62 76q7 8 17 8h48q7 0 9.5 -5t-2.5 -10l-87 -105q-7 -8 -16 -8h-61q-9 0 -16 8l-87 105q-5 5 -2.5 10t9.5 5zM71 0q-15 0 -15 14v60q0 9 6 18l333 525h-314q-15 0 -15 14v55q0 14 15 14h396q14 0 14 -14v-60q0 -9 -6 -18l-332 -524h334 q14 0 14 -15v-55q0 -14 -14 -14h-416z" glyph-name="Zcaron" horiz-adv-x="563" unicode="Ž"/><glyph d="M113 700h48q10 0 17 -8l61 -76l62 76q7 8 17 8h48q7 0 9.5 -5t-2.5 -10l-87 -105q-7 -8 -16 -8h-61q-9 0 -16 8l-87 105q-5 5 -2.5 10t9.5 5zM66 0q-15 0 -15 14v51q0 10 7 19l267 331h-256q-15 0 -15 14v47q0 14 15 14h341q15 0 15 -14v-51q0 -11 -7 -18l-266 -331h260 q14 0 14 -15v-47q0 -14 -14 -14h-346z" glyph-name="zcaron" horiz-adv-x="478" unicode="ž"/><glyph d="M267 649q-38 0 -51.5 -19t-13.5 -55v-85h100q13 0 13 -13v-49q0 -13 -13 -13h-100v-465q0 -140 -139 -140q-34 0 -55 10q-9 4 -9 13v55q0 9 12 7q21 -3 36 -3q38 0 51.5 19t13.5 55v449h-60q-13 0 -13 13v49q0 13 13 13h60v101q0 140 139 140q34 0 55 -10q9 -4 9 -13v-55 q0 -9 -12 -7q-21 3 -36 3z" glyph-name="florin" horiz-adv-x="356" unicode="ƒ"/><glyph d="M297 790l-87 105q-5 5 -2.5 10t9.5 5h48q10 0 17 -8l61 -76l62 76q7 8 17 8h48q7 0 9.5 -5t-2.5 -10l-87 -105q-7 -8 -16 -8h-61q-9 0 -16 8zM638 17q7 -17 -12 -17h-68q-12 0 -16 12l-46 134h-306l-46 -134q-4 -12 -17 -12h-68q-18 0 -11 17l240 671q4 12 18 12h73 q15 0 19 -12zM219 229h248l-124 357z" glyph-name="uni01CD" horiz-adv-x="686" unicode="Ǎ"/><glyph d="M263 580l-87 105q-5 5 -2.5 10t9.5 5h48q10 0 17 -8l61 -76l62 76q7 8 17 8h48q7 0 9.5 -5t-2.5 -10l-87 -105q-7 -8 -16 -8h-61q-9 0 -16 8zM539 490q14 0 14 -14v-462q0 -14 -14 -14h-58q-13 0 -13 14l-2 74q-56 -100 -181 -100q-105 0 -172 73t-67 184q0 110 67 183.5 t172 73.5q124 0 181 -101l2 75q0 14 13 14h58zM301 71q72 0 117.5 47.5t45.5 125.5t-45.5 126.5t-117.5 48.5q-73 0 -120 -48.5t-47 -125.5t47 -125.5t120 -48.5z" glyph-name="uni01CE" horiz-adv-x="624" unicode="ǎ"/><glyph d="M2 910h48q10 0 17 -8l61 -76l62 76q7 8 17 8h48q7 0 9.5 -5t-2.5 -10l-87 -105q-7 -8 -16 -8h-61q-9 0 -16 8l-88 105q-4 5 -1.5 10t9.5 5zM96 0q-15 0 -15 14v672q0 14 15 14h65q14 0 14 -14v-672q0 -14 -14 -14h-65z" glyph-name="uni01CF" horiz-adv-x="256" unicode="Ǐ"/><glyph d="M-23 700h49q10 0 17 -8l61 -76l62 76q7 8 17 8h48q7 0 9.5 -5t-2.5 -10l-87 -105q-7 -8 -16 -8h-61q-9 0 -16 8l-88 105q-4 5 -2 10t9 5zM72 0q-13 0 -13 14v462q0 14 13 14h64q13 0 13 -14v-462q0 -14 -13 -14h-64z" glyph-name="uni01D0" horiz-adv-x="208" unicode="ǐ"/><glyph d="M294 910h48q10 0 17 -8l61 -76l62 76q7 8 17 8h48q7 0 9.5 -5t-2.5 -10l-87 -105q-7 -8 -16 -8h-61q-9 0 -16 8l-87 105q-5 5 -2.5 10t9.5 5zM420 -13q-151 0 -255 104.5t-104 255.5q0 152 104 256.5t255 104.5q150 0 254 -104.5t104 -256.5q0 -151 -104 -255.5 t-254 -104.5zM420 78q113 0 188.5 77t75.5 192t-75.5 192.5t-188.5 77.5t-188.5 -77.5t-75.5 -192.5t75.5 -192t188.5 -77z" glyph-name="uni01D1" horiz-adv-x="840" unicode="Ǒ"/><glyph d="M172 700h48q10 0 17 -8l61 -76l62 76q7 8 17 8h48q7 0 9.5 -5t-2.5 -10l-87 -105q-7 -8 -16 -8h-61q-9 0 -16 8l-87 105q-5 5 -2.5 10t9.5 5zM299 -12q-108 0 -180.5 73.5t-72.5 183.5t72.5 183.5t180.5 73.5t180 -73.5t72 -183.5t-72 -183.5t-180 -73.5zM299 72 q71 0 118 48.5t47 124.5q0 77 -47 125.5t-118 48.5q-72 0 -118.5 -48.5t-46.5 -125.5t46.5 -125t118.5 -48z" glyph-name="uni01D2" horiz-adv-x="597" unicode="ǒ"/><glyph d="M192 910h48q10 0 17 -8l61 -76l62 76q7 8 17 8h48q7 0 9.5 -5t-2.5 -10l-87 -105q-7 -8 -16 -8h-61q-9 0 -16 8l-87 105q-5 5 -2.5 10t9.5 5zM318 -13q-109 0 -175.5 66.5t-66.5 186.5v446q0 14 15 14h65q14 0 14 -14v-439q0 -83 40 -126t108 -43q69 0 109 43t40 126v439 q0 14 14 14h65q14 0 14 -14v-446q0 -121 -66 -187t-176 -66z" glyph-name="uni01D3" horiz-adv-x="637" unicode="Ǔ"/><glyph d="M240 580l-87 105q-5 5 -2.5 10t9.5 5h48q10 0 17 -8l61 -76l62 76q7 8 17 8h48q7 0 9.5 -5t-2.5 -10l-87 -105q-7 -8 -16 -8h-61q-9 0 -16 8zM484 490q14 0 14 -14v-462q0 -14 -14 -14h-59q-14 0 -14 15l-3 62q-50 -89 -157 -89q-81 0 -130 53t-49 148v287q0 14 13 14h63 q14 0 14 -14v-274q0 -62 30 -96t86 -34q58 0 94 35t36 95v274q0 14 13 14h63z" glyph-name="uni01D4" unicode="ǔ"/><glyph d="M497 -5q-74 -30 -74 -86q0 -32 21.5 -44.5t61.5 -4.5v-58q-46 -21 -102 2t-56 88q0 54 47 96q-142 9 -238 111.5t-96 247.5q0 152 104 256.5t255 104.5q150 0 254 -104.5t104 -256.5q0 -130 -79 -228t-202 -124zM156 347q0 -115 75.5 -192t188.5 -77t188.5 77t75.5 192 t-75.5 192.5t-188.5 77.5t-188.5 -77.5t-75.5 -192.5z" glyph-name="uni01EA" horiz-adv-x="840" unicode="Ǫ"/><glyph d="M358 -5q-72 -30 -72 -86q0 -32 21.5 -44.5t61.5 -4.5v-58q-47 -21 -103 2t-56 88q0 57 51 99q-94 13 -154.5 84t-60.5 170q0 110 72.5 183.5t180.5 73.5t180 -73.5t72 -183.5q0 -93 -53.5 -162t-139.5 -88zM134 245q0 -77 46.5 -125t118.5 -48q71 0 118 48.5t47 124.5 q0 77 -47 125.5t-118 48.5q-72 0 -118.5 -48.5t-46.5 -125.5z" glyph-name="uni01EB" horiz-adv-x="597" unicode="ǫ"/><glyph d="M270 -12q-140 0 -213 105q-8 12 1 21l34 39q11 11 23 -1q63 -78 154 -78q61 0 96 29.5t35 79.5q0 46 -28 72.5t-87 54.5l-85 41q-128 59 -128 176q0 83 57 132t143 49q115 0 191 -90q11 -11 -1 -24l-30 -36q-11 -13 -23 -1q-62 65 -134 65q-50 0 -81 -25t-31 -69 q0 -36 21 -59.5t68 -46.5l79 -38q36 -17 60 -32.5t49.5 -39t38 -56t12.5 -73.5q0 -91 -62.5 -143t-158.5 -52zM205 -260v28q46 1 69 42q16 30 2 40q-3 2 -7 2q-28 -1 -45.5 16.5t-17.5 43.5t18.5 43.5t44.5 17.5q31 0 52.5 -25t21.5 -67q0 -60 -41 -101.5t-97 -39.5z" glyph-name="Scommaaccent" horiz-adv-x="544" unicode="Ș"/><glyph d="M222 -12q-104 0 -166 76q-9 11 0 26l20 28q11 14 24 1q56 -54 118 -54q39 0 62.5 17.5t23.5 50.5q0 28 -17 45t-53 32l-59 25q-109 45 -109 131q0 62 45.5 99t110.5 37q93 0 149 -70q8 -10 -1 -21l-24 -28q-11 -13 -24 0q-45 45 -96 45q-32 0 -53 -16t-21 -44t18 -44 t56 -31l54 -22q54 -22 84 -54.5t29 -85.5q0 -67 -49.5 -105t-121.5 -38zM164 -260v28q46 1 69 42q16 30 2 40q-3 2 -7 2q-28 -1 -45.5 16.5t-17.5 43.5t18.5 43.5t44.5 17.5q31 0 52.5 -25t21.5 -67q0 -60 -41 -101.5t-97 -39.5z" glyph-name="scommaaccent" horiz-adv-x="445" unicode="ș"/><glyph d="M236 0q-14 0 -14 14v603h-146q-15 0 -15 14v55q0 14 15 14h385q14 0 14 -14v-55q0 -14 -14 -14h-146v-603q0 -14 -14 -14h-65zM213 -260v28q46 1 69 42q16 30 2 40q-3 2 -7 2q-28 -1 -45.5 16.5t-17.5 43.5t18.5 43.5t44.5 17.5q31 0 52.5 -25t21.5 -67q0 -60 -41 -101.5 t-97 -39.5z" glyph-name="uni021A" horiz-adv-x="537" unicode="Ț"/><glyph d="M291 417h-82v-302q0 -50 45 -50q11 0 31 2q19 3 19 -13v-42q0 -24 -69 -24q-55 0 -85.5 28.5t-30.5 87.5v313h-63q-15 0 -15 15v44q0 14 15 14h63v116q0 14 14 14h63q13 0 13 -14v-116h82q14 0 14 -14v-44q0 -15 -14 -15zM229 -26q31 0 52.5 -25t21.5 -67 q0 -60 -41 -101.5t-97 -39.5v28q46 1 69 42q16 30 2 40q-3 2 -7 2q-28 -1 -45.5 16.5t-17.5 43.5t18.5 43.5t44.5 17.5z" glyph-name="uni021B" horiz-adv-x="346" unicode="ț"/><glyph d="M95 490h60q15 0 15 -15v-469q0 -100 -45.5 -150.5t-126.5 -53.5q-9 0 -11 9l-18 62q-4 11 8 11q103 6 103 132v459q0 15 15 15z" glyph-name="uni0237" horiz-adv-x="233" unicode="ȷ"/><glyph d="M25 572q-7 0 -9.5 5t2.5 10l87 105q7 8 16 8h61q9 0 16 -8l87 -105q5 -5 2.5 -10t-9.5 -5h-48q-10 0 -17 8l-62 76l-61 -76q-7 -8 -17 -8h-48z" glyph-name="circumflex" horiz-adv-x="303" unicode="ˆ"/><glyph d="M25 700h48q10 0 17 -8l61 -76l62 76q7 8 17 8h48q7 0 9.5 -5t-2.5 -10l-87 -105q-7 -8 -16 -8h-61q-9 0 -16 8l-87 105q-5 5 -2.5 10t9.5 5z" glyph-name="caron" horiz-adv-x="303" unicode="ˇ"/><glyph d="M239 686q3 14 16 14h30q15 0 14 -15q-5 -52 -43 -85.5t-99 -33.5t-99 33.5t-43 85.5q-1 15 14 15h30q13 0 16 -14q6 -28 27.5 -45.5t54.5 -17.5t54.5 17.5t27.5 45.5z" glyph-name="breve" horiz-adv-x="314" unicode="˘"/><glyph d="M65 606q-20 0 -35 14.5t-15 35.5q0 20 15 34.5t35 14.5t35 -14.5t15 -34.5q0 -21 -15 -35.5t-35 -14.5z" glyph-name="dotaccent" horiz-adv-x="130" unicode="˙"/><glyph d="M101 724q37 0 62 -24.5t25 -59.5q0 -36 -25 -60t-62 -24t-61.5 24t-24.5 60q0 35 24.5 59.5t61.5 24.5zM101 613q12 0 19.5 8t7.5 19t-7.5 19t-19.5 8q-11 0 -19 -8t-8 -19t8 -19t19 -8z" glyph-name="ring" horiz-adv-x="203" unicode="˚"/><glyph d="M188 0q-44 -1 -73 -27t-29 -62q0 -31 22 -45t61 -6v-58q-20 -9 -47 -9t-52 9t-42.5 33t-17.5 58q0 46 32.5 81.5t72 50.5t73.5 15v-40z" glyph-name="ogonek" horiz-adv-x="198" unicode="˛"/><glyph d="M105 719q38 0 79.5 -33t65.5 -33q33 0 43 29q3 9 11 9h20q10 0 10 -10q-4 -40 -28.5 -61.5t-58.5 -21.5q-25 0 -47 10.5t-35.5 23t-31 23t-34.5 10.5q-33 0 -44 -30q-3 -9 -11 -9h-20q-11 0 -9 13q4 39 28.5 59.5t61.5 20.5z" glyph-name="tilde" horiz-adv-x="349" unicode="˜"/><glyph d="M147 700q17 0 10 -16l-56 -115q-5 -12 -16 -12h-58q-17 0 -10 16l55 115q7 12 17 12h58zM295 700q17 0 10 -16l-57 -115q-5 -12 -16 -12h-58q-18 0 -9 16l55 115q5 12 16 12h59z" glyph-name="hungarumlaut" horiz-adv-x="322" unicode="˝"/><glyph d="M-127 -260v28q46 1 69 42q16 30 2 40q-3 2 -7 2q-28 -1 -45.5 16.5t-17.5 43.5t18.5 43.5t44.5 17.5q31 0 53 -25t22 -67q0 -59 -41.5 -101t-97.5 -40z" glyph-name="uni0326" horiz-adv-x="0" unicode="̦"/><glyph d="M638 17q7 -17 -12 -17h-567q-18 0 -11 17l240 671q4 12 18 12h73q15 0 19 -12zM343 586l-177 -510h354z" glyph-name="Delta" horiz-adv-x="686" unicode="Δ"/><glyph d="M86 0q-15 0 -15 15v46q0 15 15 15h103v21q-62 48 -95 118t-33 148q0 147 102 246t252 99t252 -99t102 -246q0 -79 -32.5 -148.5t-94.5 -117.5v-21h103q15 0 15 -15v-46q0 -15 -15 -15h-179q-15 0 -15 15v113q58 39 92 99t34 134q0 114 -75.5 185.5t-186.5 71.5 t-186 -71.5t-75 -185.5q0 -75 34 -135t92 -98v-113q0 -15 -15 -15h-179z" glyph-name="Omega" horiz-adv-x="831" unicode="Ω"/><glyph d="M484 490q14 0 14 -14v-462q0 -14 -14 -14h-59q-14 0 -14 15l-3 62q-50 -89 -157 -89q-51 0 -90 21v-185q0 -14 -14 -14h-61q-15 0 -15 14v509h1v143q0 14 13 14h63q14 0 14 -14v-274q0 -62 30 -96t86 -34q58 0 94 35t36 95v274q0 14 13 14h63z" glyph-name="mu" unicode="μ"/><glyph d="M593 413h-80v-294q0 -44 39 -44q26 0 37 2q18 3 18 -12v-48q0 -24 -74 -24q-110 0 -110 115v305h-177v-399q0 -14 -14 -14h-62q-14 0 -14 14v399h-84q-14 0 -14 14v49q0 14 14 14h521q14 0 14 -14v-49q0 -14 -14 -14z" glyph-name="pi" horiz-adv-x="651" unicode="π"/><glyph d="M178 816q-20 0 -35 14.5t-15 35.5q0 20 15 34.5t35 14.5t35 -14.5t15 -34.5q0 -21 -15 -35.5t-35 -14.5zM370 816q-20 0 -35 14.5t-15 35.5q0 20 15 34.5t35 14.5t35 -14.5t15 -34.5q0 -21 -15 -35.5t-35 -14.5zM96 0q-15 0 -15 14v672q0 14 15 14h340q15 0 15 -14v-55 q0 -14 -15 -14h-261v-216h248q14 0 14 -14v-55q0 -14 -14 -14h-248v-234h262q14 0 14 -15v-55q0 -14 -14 -14h-341z" glyph-name="afii10023" horiz-adv-x="523" unicode="Ё"/><glyph d="M221 767q-17 0 -10 16l55 115q7 12 17 12h58q17 0 10 -16l-56 -115q-5 -12 -16 -12h-58zM435 700q15 0 15 -15v-55q0 -15 -15 -15h-260v-601q0 -14 -14 -14h-65q-15 0 -15 14v672q0 14 15 14h339z" glyph-name="afii10052" horiz-adv-x="496" unicode="Ѓ"/><glyph d="M659 103q10 -10 -2 -22q-100 -94 -239 -94q-153 0 -255 103.5t-102 256.5t102 257t255 104q138 0 239 -93q11 -11 2 -23l-40 -43q-9 -11 -21 0q-79 68 -179 68q-101 0 -173 -62.5t-87 -161.5h250q15 0 15 -15v-56q0 -14 -15 -14h-251q14 -102 86.5 -166t174.5 -64 q100 0 179 68q11 11 21 1z" glyph-name="afii10053" horiz-adv-x="720" unicode="Є"/><glyph d="M96 0q-15 0 -15 14v672q0 14 15 14h65q14 0 14 -14v-672q0 -14 -14 -14h-65z" glyph-name="afii10055" horiz-adv-x="256" unicode="І"/><glyph d="M32 816q-20 0 -35 14.5t-15 35.5q0 20 15 34.5t35 14.5t35 -14.5t15 -34.5q0 -21 -15 -35.5t-35 -14.5zM224 816q-20 0 -35 14.5t-15 35.5q0 20 15 34.5t35 14.5t35 -14.5t15 -34.5q0 -21 -15 -35.5t-35 -14.5zM96 0q-15 0 -15 14v672q0 14 15 14h65q14 0 14 -14v-672 q0 -14 -14 -14h-65z" glyph-name="afii10056" horiz-adv-x="256" unicode="Ї"/><glyph d="M281 767q-17 0 -10 16l55 115q7 12 17 12h58q17 0 10 -16l-56 -115q-5 -12 -16 -12h-58zM583 18q5 -8 2.5 -13t-11.5 -5h-75q-12 0 -18 9l-220 297l-86 -110v-182q0 -14 -14 -14h-65q-15 0 -15 14v672q0 14 15 14h65q14 0 14 -14v-362l274 368q7 8 18 8h80q10 0 12 -5 t-4 -13l-238 -304z" glyph-name="afii10061" horiz-adv-x="628" unicode="Ќ"/><glyph d="M330 776q-61 0 -99 33.5t-43 85.5q-2 15 14 15h30q13 0 16 -14q6 -28 27.5 -45.5t54.5 -17.5t54.5 17.5t27.5 45.5q3 14 16 14h30q16 0 14 -15q-5 -52 -43 -85.5t-99 -33.5zM600 700q9 0 12 -5t-2 -13l-399 -672q-6 -10 -17 -10h-69q-19 0 -9 18l165 278l-232 386 q-5 8 -2 13t12 5h68q12 0 18 -10l185 -310l184 310q6 10 18 10h68z" glyph-name="afii10062" horiz-adv-x="659" unicode="Ў"/><glyph d="M638 17q7 -17 -12 -17h-68q-12 0 -16 12l-46 134h-306l-46 -134q-4 -12 -17 -12h-68q-18 0 -11 17l240 671q4 12 18 12h73q15 0 19 -12zM219 229h248l-124 357z" glyph-name="afii10017" horiz-adv-x="686" unicode="А"/><glyph d="M292 441q113 0 174 -60.5t61 -160.5q0 -99 -61 -159.5t-174 -60.5h-196q-15 0 -15 14v672q0 14 15 14h341q15 0 15 -15v-55q0 -15 -15 -15h-262v-174h117zM286 84q150 0 150 136q0 72 -41 104.5t-109 32.5h-111v-273h111z" glyph-name="afii10018" horiz-adv-x="573" unicode="Б"/><glyph d="M96 0q-15 0 -15 14v672q0 14 15 14h211q96 0 143.5 -49.5t47.5 -121.5q0 -51 -26 -91.5t-73 -58.5q65 -15 103.5 -64t38.5 -119q0 -89 -61 -142.5t-177 -53.5h-207zM174 410h120q53 0 84 28t31 80q0 99 -115 99h-120v-207zM174 83h123q149 0 149 125q0 61 -38.5 94 t-110.5 33h-123v-252z" glyph-name="afii10019" horiz-adv-x="587" unicode="В"/><glyph d="M435 700q15 0 15 -15v-55q0 -15 -15 -15h-260v-601q0 -14 -14 -14h-65q-15 0 -15 14v672q0 14 15 14h339z" glyph-name="afii10020" horiz-adv-x="496" unicode="Г"/><glyph d="M680 85q15 0 15 -15v-124q0 -15 -15 -15h-63q-15 0 -15 15v54h-468v-54q0 -15 -15 -15h-64q-15 0 -15 15v124q0 15 15 15h11q48 0 69 29.5t21 94.5v476q0 15 15 15h458q14 0 14 -14v-601h37zM249 183q0 -55 -19 -98h319v531h-300v-433z" glyph-name="afii10021" horiz-adv-x="723" unicode="Д"/><glyph d="M96 0q-15 0 -15 14v672q0 14 15 14h340q15 0 15 -14v-55q0 -14 -15 -14h-261v-216h248q14 0 14 -14v-55q0 -14 -14 -14h-248v-234h262q14 0 14 -15v-55q0 -14 -14 -14h-341z" glyph-name="afii10022" horiz-adv-x="523" unicode="Е"/><glyph d="M955 18q5 -8 2.5 -13t-11.5 -5h-76q-12 0 -18 9l-220 297l-86 -110v-182q0 -14 -14 -14h-65q-14 0 -14 14v173l-93 119l-220 -297q-6 -9 -18 -9h-76q-9 0 -11.5 5t2.5 13l266 361l-238 303q-6 8 -4 13t12 5h81q11 0 18 -8l281 -376v370q0 14 14 14h65q14 0 14 -14v-362 l275 368q7 8 18 8h80q10 0 12 -5t-4 -13l-238 -303z" glyph-name="afii10024" horiz-adv-x="999" unicode="Ж"/><glyph d="M238 -13q-128 0 -196 99q-7 11 3 20l39 36q10 10 18 -2q54 -69 133 -69q61 0 98.5 36.5t37.5 93.5q0 59 -40.5 95.5t-102.5 36.5h-20q-14 0 -14 13v49q0 13 14 13h20q54 0 86 32.5t32 79.5q0 46 -30.5 75.5t-79.5 29.5q-73 0 -114 -67q-8 -12 -20 -2l-38 36q-8 8 -1 18 q27 43 74 70.5t107 27.5q81 0 135 -49t54 -125q0 -54 -28 -94.5t-75 -63.5q59 -21 95.5 -68.5t36.5 -115.5q0 -89 -63 -147t-161 -58z" glyph-name="afii10025" horiz-adv-x="508" unicode="З"/><glyph d="M581 700q14 0 14 -14v-672q0 -14 -14 -14h-65q-14 0 -14 14v547l-306 -551q-6 -10 -18 -10h-82q-15 0 -15 14v672q0 14 15 14h65q14 0 14 -14v-545l305 549q6 10 18 10h83z" glyph-name="afii10026" horiz-adv-x="677" unicode="И"/><glyph d="M343 775q-61 0 -99 33.5t-43 85.5q-1 15 14 15h30q13 0 16 -14q6 -28 27.5 -45.5t54.5 -17.5t54.5 17.5t27.5 45.5q3 14 16 14h30q15 0 14 -15q-5 -52 -43 -85.5t-99 -33.5zM581 700q14 0 14 -14v-672q0 -14 -14 -14h-65q-14 0 -14 14v547l-306 -551q-6 -10 -18 -10h-82 q-15 0 -15 14v672q0 14 15 14h65q14 0 14 -14v-545l305 549q6 10 18 10h83z" glyph-name="afii10027" horiz-adv-x="677" unicode="Й"/><glyph d="M583 18q5 -8 2.5 -13t-11.5 -5h-75q-12 0 -18 9l-220 297l-86 -110v-182q0 -14 -14 -14h-65q-15 0 -15 14v672q0 14 15 14h65q14 0 14 -14v-362l274 368q7 8 18 8h80q10 0 12 -5t-4 -13l-238 -304z" glyph-name="afii10028" horiz-adv-x="628" unicode="К"/><glyph d="M598 700q15 0 15 -14v-672q0 -14 -15 -14h-65q-14 0 -14 14v601h-300v-435q0 -91 -45.5 -138t-127.5 -47q-21 0 -21 14v61q0 11 10 11q48 0 69 29.5t21 95.5v479q0 15 15 15h458z" glyph-name="afii10029" horiz-adv-x="694" unicode="Л"/><glyph d="M781 700q14 0 14 -14v-672q0 -14 -14 -14h-65q-15 0 -15 14v522l-14 -44l-200 -481q-4 -11 -17 -11h-64q-13 0 -17 11l-200 481l-14 44v-522q0 -14 -14 -14h-65q-15 0 -15 14v672q0 14 15 14h83q12 0 16 -10l243 -585l243 585q4 10 17 10h83z" glyph-name="afii10030" horiz-adv-x="876" unicode="М"/><glyph d="M564 700q15 0 15 -14v-672q0 -14 -15 -14h-65q-14 0 -14 14v291h-310v-291q0 -14 -14 -14h-65q-15 0 -15 14v672q0 14 15 14h65q14 0 14 -14v-298h310v298q0 14 14 14h65z" glyph-name="afii10031" horiz-adv-x="660" unicode="Н"/><glyph d="M420 -13q-151 0 -255 104.5t-104 255.5q0 152 104 256.5t255 104.5q150 0 254 -104.5t104 -256.5q0 -151 -104 -255.5t-254 -104.5zM420 78q113 0 188.5 77t75.5 192t-75.5 192.5t-188.5 77.5t-188.5 -77.5t-75.5 -192.5t75.5 -192t188.5 -77z" glyph-name="afii10032" horiz-adv-x="840" unicode="О"/><glyph d="M557 700q14 0 14 -14v-672q0 -14 -14 -14h-65q-14 0 -14 14v601h-303v-601q0 -14 -14 -14h-65q-15 0 -15 14v672q0 14 15 14h461z" glyph-name="afii10033" horiz-adv-x="652" unicode="П"/><glyph d="M96 0q-15 0 -15 14v672q0 14 15 14h196q113 0 174 -60t61 -160t-61 -160t-174 -60h-117v-246q0 -14 -14 -14h-65zM175 343h111q68 0 109 32.5t41 104.5t-41 104.5t-109 32.5h-111v-274z" glyph-name="afii10034" horiz-adv-x="578" unicode="Р"/><glyph d="M418 -13q-153 0 -255 103.5t-102 256.5t102 257t255 104q138 0 239 -93q11 -11 2 -23l-40 -43q-9 -11 -21 0q-79 68 -179 68q-113 0 -188 -77t-75 -193t75 -192.5t188 -76.5q100 0 179 68q11 11 21 1l40 -44q10 -10 -2 -22q-100 -94 -239 -94z" glyph-name="afii10035" horiz-adv-x="720" unicode="С"/><glyph d="M236 0q-14 0 -14 14v603h-146q-15 0 -15 14v55q0 14 15 14h385q14 0 14 -14v-55q0 -14 -14 -14h-146v-603q0 -14 -14 -14h-65z" glyph-name="afii10036" horiz-adv-x="537" unicode="Т"/><glyph d="M600 700q9 0 12 -5t-2 -13l-399 -672q-6 -10 -17 -10h-69q-19 0 -9 18l165 278l-232 386q-5 8 -2 13t12 5h68q12 0 18 -10l185 -310l184 310q6 10 18 10h68z" glyph-name="afii10037" horiz-adv-x="659" unicode="У"/><glyph d="M484 640q156 0 239 -84.5t83 -205.5t-83 -205.5t-239 -84.5h-3v-46q0 -14 -15 -14h-65q-14 0 -14 14v46h-19q-155 0 -238.5 84.5t-83.5 205.5t83.5 205.5t238.5 84.5h19v46q0 14 14 14h65q15 0 15 -14v-46h3zM369 145h18v410h-18q-114 0 -171 -57t-57 -148t57 -148 t171 -57zM484 145q114 0 171 57t57 148t-57 148t-171 57h-3v-410h3z" glyph-name="afii10038" horiz-adv-x="863" unicode="Ф"/><glyph d="M576 18q5 -8 2.5 -13t-11.5 -5h-71q-11 0 -17 10l-161 265l-162 -265q-6 -10 -17 -10h-71q-9 0 -11.5 5t2.5 13l208 340l-198 324q-5 8 -2.5 13t11.5 5h71q12 0 18 -10l151 -248l151 248q5 10 17 10h71q9 0 11.5 -5t-2.5 -13l-197 -323z" glyph-name="afii10039" horiz-adv-x="635" unicode="Х"/><glyph d="M622 85q14 0 14 -14v-126q0 -14 -14 -14h-65q-14 0 -14 14v55h-447q-15 0 -15 14v672q0 14 15 14h65q14 0 14 -14v-601h303v601q0 14 14 14h65q14 0 14 -14v-601h51z" glyph-name="afii10040" horiz-adv-x="664" unicode="Ц"/><glyph d="M516 700q15 0 15 -15v-670q0 -15 -15 -15h-63q-15 0 -15 15v278q-71 -100 -193 -99q-91 1 -146.5 59t-55.5 156v276q0 15 15 15h63q15 0 15 -15v-258q0 -68 39.5 -105t102.5 -37q65 0 112.5 37.5t47.5 104.5v258q0 15 15 15h63z" glyph-name="afii10041" horiz-adv-x="613" unicode="Ч"/><glyph d="M855 700q14 0 14 -14v-672q0 -14 -14 -14h-759q-15 0 -15 14v672q0 14 15 14h65q14 0 14 -14v-601h253v601q0 14 15 14h65q14 0 14 -14v-601h253v601q0 14 15 14h65z" glyph-name="afii10042" horiz-adv-x="950" unicode="Ш"/><glyph d="M921 85q14 0 14 -14v-126q0 -14 -14 -14h-65q-14 0 -14 14v55h-746q-15 0 -15 14v672q0 14 15 14h65q14 0 14 -14v-601h253v601q0 14 15 14h65q14 0 14 -14v-601h253v601q0 14 15 14h65q14 0 14 -14v-601h52z" glyph-name="afii10043" horiz-adv-x="963" unicode="Щ"/><glyph d="M351 441q113 0 173.5 -60.5t60.5 -160.5q0 -99 -60.5 -159.5t-173.5 -60.5h-197q-14 0 -14 14v603h-103q-14 0 -14 14v55q0 14 14 14h182q14 0 14 -14v-245h118zM345 84q150 0 150 136q0 72 -41 104.5t-109 32.5h-112v-273h112z" glyph-name="afii10044" horiz-adv-x="631" unicode="Ъ"/><glyph d="M96 700h65q14 0 14 -14v-245h117q113 0 174 -60.5t61 -160.5q0 -99 -61 -159.5t-174 -60.5h-196q-15 0 -15 14v672q0 14 15 14zM615 0q-15 0 -15 14v672q0 14 15 14h65q14 0 14 -14v-672q0 -14 -14 -14h-65zM175 357v-273h111q150 0 150 136q0 72 -41 104.5t-109 32.5 h-111z" glyph-name="afii10045" horiz-adv-x="775" unicode="Ы"/><glyph d="M96 700h65q14 0 14 -14v-245h117q113 0 174 -60.5t61 -160.5q0 -99 -61 -159.5t-174 -60.5h-196q-15 0 -15 14v672q0 14 15 14zM175 357v-273h111q150 0 150 136q0 72 -41 104.5t-109 32.5h-111z" glyph-name="afii10046" horiz-adv-x="578" unicode="Ь"/><glyph d="M308 708q152 0 254 -104t102 -257t-102 -256.5t-254 -103.5q-139 0 -239 94q-13 13 -3 22l41 44q9 9 21 -1q78 -68 178 -68q102 0 174.5 64t86.5 166h-251q-14 0 -14 14v56q0 15 14 15h250q-15 99 -87 161.5t-173 62.5q-100 0 -178 -68q-12 -10 -22 0l-40 43q-9 11 3 23 q101 93 239 93z" glyph-name="afii10047" horiz-adv-x="720" unicode="Э"/><glyph d="M613 708q151 0 255 -104.5t104 -256.5q0 -151 -104 -255.5t-255 -104.5q-140 0 -241 91.5t-115 229.5h-82v-294q0 -14 -14 -14h-65q-15 0 -15 14v672q0 14 15 14h65q14 0 14 -14v-293h83q17 136 117 225.5t238 89.5zM613 78q113 0 188.5 77t75.5 192q0 116 -75.5 193 t-188.5 77t-188 -77.5t-75 -192.5t75.5 -192t187.5 -77z" glyph-name="afii10048" horiz-adv-x="1033" unicode="Ю"/><glyph d="M490 700q14 0 14 -14v-672q0 -14 -14 -14h-65q-15 0 -15 14v246h-95l-164 -250q-6 -10 -18 -10h-69q-21 0 -10 18l167 250q-79 18 -120.5 74t-41.5 138q0 100 60.5 160t173.5 60h197zM410 343v274h-111q-68 0 -109 -32.5t-41 -104.5t41 -104.5t109 -32.5h111z" glyph-name="afii10049" horiz-adv-x="585" unicode="Я"/><glyph d="M539 490q14 0 14 -14v-462q0 -14 -14 -14h-58q-13 0 -13 14l-2 74q-56 -100 -181 -100q-105 0 -172 73t-67 184q0 110 67 183.5t172 73.5q124 0 181 -101l2 75q0 14 13 14h58zM301 71q72 0 117.5 47.5t45.5 125.5t-45.5 126.5t-117.5 48.5q-73 0 -120 -48.5t-47 -125.5 t47 -125.5t120 -48.5z" glyph-name="afii10065" horiz-adv-x="624" unicode="а"/><glyph d="M339 502q105 0 172 -73.5t67 -183.5q0 -111 -67 -184t-172 -73q-125 0 -181 100l-2 -74q0 -14 -13 -14h-58q-14 0 -14 14v521q0 83 39 124t123 41h164q37 0 44 20h72v-16q0 -45 -23.5 -64t-71.5 -19h-167q-48 0 -68.5 -22t-20.5 -71v-120q58 94 177 94zM323 71 q73 0 120 48.5t47 125.5t-47 125.5t-120 48.5q-72 0 -117.5 -48.5t-45.5 -126.5t45.5 -125.5t117.5 -47.5z" glyph-name="afii10066" horiz-adv-x="624" unicode="б"/><glyph d="M374 265q50 -11 77.5 -43.5t27.5 -80.5q0 -63 -48 -102t-140 -39h-206q-14 0 -14 14v462q0 14 14 14h211q68 0 108.5 -33.5t40.5 -87.5q0 -38 -19.5 -65.5t-51.5 -38.5zM362 355q0 60 -71 60h-129v-124h129q71 0 71 64zM290 76q103 0 103 74q0 78 -111 78h-120v-152h128z " glyph-name="afii10067" horiz-adv-x="525" unicode="в"/><glyph d="M371 490q15 0 15 -15v-45q0 -15 -15 -15h-210v-400q0 -15 -15 -15h-60q-15 0 -15 15v460q0 15 15 15h285z" glyph-name="afii10068" horiz-adv-x="425" unicode="г"/><glyph d="M618 76q15 0 15 -15v-113q0 -15 -15 -15h-61q-14 0 -14 15v52h-413v-52q0 -15 -14 -15h-62q-14 0 -14 15v117q0 11 11 11h23q69 9 69 116v282q0 15 15 15h397q14 0 14 -14v-399h49zM233 414v-240q0 -58 -20 -98h265v338h-245z" glyph-name="afii10069" horiz-adv-x="660" unicode="д"/><glyph d="M525 270q0 -31 -8.5 -44.5t-32.5 -13.5h-350q9 -68 56 -109t126 -41q74 0 133 42q10 7 16 -1l22 -31q9 -10 -4 -21q-65 -63 -175 -63q-118 0 -190 74t-72 185q0 109 69.5 182t178.5 73q105 0 168 -68.5t63 -163.5zM294 425q-65 0 -109 -39.5t-52 -106.5h312 q-4 66 -44.5 106t-106.5 40z" glyph-name="afii10070" horiz-adv-x="571" unicode="е"/><glyph d="M825 18q7 -7 4.5 -12.5t-12.5 -5.5h-74q-11 0 -18 8l-185 206l-61 -63v-137q0 -14 -13 -14h-64q-13 0 -13 14v129l-69 71l-185 -206q-7 -8 -18 -8h-74q-10 0 -12.5 5.5t4.5 12.5l227 255l-193 199q-7 8 -4.5 13t12.5 5h75q12 0 19 -8l218 -228v222q0 14 13 14h64 q13 0 13 -14v-214l210 220q8 8 19 8h76q10 0 12 -5t-5 -13l-193 -199z" glyph-name="afii10072" horiz-adv-x="860" unicode="ж"/><glyph d="M274 264q90 -39 90 -127q0 -64 -48.5 -105.5t-124.5 -41.5q-93 0 -146 66q-11 14 0 26l25 28q9 12 24 -3q39 -39 94 -39q41 0 67 21t26 56q0 36 -32 59t-86 23q-15 0 -15 15v35q0 15 15 15q46 0 72.5 18.5t26.5 49.5q0 29 -22 46.5t-56 17.5q-40 0 -82 -35q-17 -14 -27 0 l-19 25q-9 13 2 26q51 60 139 60q64 0 106.5 -37t42.5 -91q0 -67 -72 -108z" glyph-name="afii10073" horiz-adv-x="411" unicode="з"/><glyph d="M502 490q13 0 13 -14v-462q0 -14 -13 -14h-63q-14 0 -14 14v363l-239 -367q-7 -10 -19 -10h-82q-14 0 -14 14v462q0 14 14 14h63q14 0 14 -14v-367l242 371q7 10 19 10h79z" glyph-name="afii10074" horiz-adv-x="587" unicode="и"/><glyph d="M299 566q-61 0 -99 33.5t-43 85.5q-1 15 14 15h30q13 0 16 -14q6 -28 27.5 -45.5t54.5 -17.5t54.5 17.5t27.5 45.5q3 14 16 14h30q15 0 14 -15q-5 -52 -43 -85.5t-99 -33.5zM502 490q13 0 13 -14v-462q0 -14 -13 -14h-63q-14 0 -14 14v363l-239 -367q-7 -10 -19 -10h-82 q-14 0 -14 14v462q0 14 14 14h63q14 0 14 -14v-367l242 371q7 10 19 10h79z" glyph-name="afii10075" horiz-adv-x="587" unicode="й"/><glyph d="M508 18q7 -7 4.5 -12.5t-12.5 -5.5h-74q-11 0 -18 8l-185 206l-61 -62v-138q0 -14 -14 -14h-63q-14 0 -14 14v462q0 14 14 14h63q14 0 14 -14v-213l209 219q8 8 19 8h76q10 0 12 -5t-5 -13l-193 -198z" glyph-name="afii10076" horiz-adv-x="543" unicode="к"/><glyph d="M476 490q13 0 13 -14v-462q0 -14 -13 -14h-64q-13 0 -13 14v401h-245v-242q0 -89 -45.5 -133.5t-128.5 -44.5q-12 0 -12 8v62q0 9 10 9q86 0 86 118v283q0 15 15 15h397z" glyph-name="afii10077" horiz-adv-x="560" unicode="л"/><glyph d="M652 490q13 0 13 -14v-462q0 -14 -13 -14h-63q-14 0 -14 14v323l-156 -326q-5 -11 -17 -11h-68q-12 0 -17 11l-155 326v-323q0 -14 -14 -14h-63q-14 0 -14 14v462q0 14 14 14h80q12 0 17 -11l186 -386l186 386q6 11 17 11h81z" glyph-name="afii10078" horiz-adv-x="737" unicode="м"/><glyph d="M504 490q14 0 14 -14v-462q0 -14 -14 -14h-63q-14 0 -14 14v182h-265v-182q0 -14 -14 -14h-63q-14 0 -14 14v462q0 14 14 14h63q14 0 14 -14v-203h265v203q0 14 14 14h63z" glyph-name="afii10079" horiz-adv-x="589" unicode="н"/><glyph d="M299 -12q-108 0 -180.5 73.5t-72.5 183.5t72.5 183.5t180.5 73.5t180 -73.5t72 -183.5t-72 -183.5t-180 -73.5zM299 72q71 0 118 48.5t47 124.5q0 77 -47 125.5t-118 48.5q-72 0 -118.5 -48.5t-46.5 -125.5t46.5 -125t118.5 -48z" glyph-name="afii10080" horiz-adv-x="597" unicode="о"/><glyph d="M513 490q13 0 13 -14v-462q0 -14 -13 -14h-63q-14 0 -14 14v399h-274v-399q0 -14 -14 -14h-63q-14 0 -14 14v462q0 14 14 14h428z" glyph-name="afii10081" horiz-adv-x="598" unicode="п"/><glyph d="M339 502q105 0 172 -73.5t67 -183.5q0 -111 -67 -184t-172 -73q-119 0 -177 93v-257q0 -14 -14 -14h-63q-14 0 -14 14v652q0 14 14 14h58q13 0 13 -14l2 -75q57 101 181 101zM323 71q73 0 120 48.5t47 125.5t-47 125.5t-120 48.5q-72 0 -117.5 -48.5t-45.5 -126.5 t45.5 -125.5t117.5 -47.5z" glyph-name="afii10082" horiz-adv-x="624" unicode="р"/><glyph d="M302 -12q-109 0 -182.5 74t-73.5 184t73 183t183 73q117 0 185 -83q9 -12 0 -21l-35 -33q-11 -12 -23 0q-51 54 -124 54q-74 0 -122.5 -48.5t-48.5 -124.5t48.5 -125t124.5 -49q73 0 122 52q13 13 24 2l35 -34q9 -9 0 -20q-68 -84 -186 -84z" glyph-name="afii10083" horiz-adv-x="539" unicode="с"/><glyph d="M399 490q15 0 15 -15v-47q0 -15 -15 -15h-125v-398q0 -15 -15 -15h-60q-15 0 -15 15v398h-125q-15 0 -15 15v47q0 15 15 15h340z" glyph-name="afii10084" horiz-adv-x="458" unicode="т"/><glyph d="M172 -190q-17 0 -10 15l69 173l-188 475q-6 17 11 17h64q12 0 16 -12l142 -376l142 376q5 12 17 12h63q18 0 12 -17l-259 -651q-4 -12 -17 -12h-62z" glyph-name="afii10085" horiz-adv-x="553" unicode="у"/><glyph d="M690 501q98 0 162.5 -74t64.5 -182t-64.5 -182.5t-162.5 -74.5q-102 0 -163 83v-247q0 -14 -14 -14h-62q-14 0 -14 14v247q-61 -83 -163 -83q-98 0 -163 74.5t-65 182.5t65 182t163 74q103 0 163 -84v247q0 15 14 15h62q14 0 14 -15v-247q60 84 163 84zM285 70 q66 0 109 50.5t43 123.5t-43 124t-109 51t-109 -50t-43 -125t43 -124.5t109 -49.5zM679 70q65 0 108.5 49.5t43.5 124.5t-43.5 125t-108.5 50q-66 0 -109 -51t-43 -124t43 -123.5t109 -50.5z" glyph-name="afii10086" horiz-adv-x="964" unicode="ф"/><glyph d="M53 0q-19 0 -9 17l152 233l-145 223q-10 17 9 17h69q11 0 17 -10l104 -166l104 166q6 10 17 10h70q18 0 8 -17l-145 -223l152 -233q5 -7 2.5 -12t-11.5 -5h-69q-11 0 -17 10l-111 177l-111 -177q-6 -10 -17 -10h-69z" glyph-name="afii10087" horiz-adv-x="500" unicode="х"/><glyph d="M562 76q14 0 14 -15v-113q0 -15 -14 -15h-58q-15 0 -15 15v52h-404q-14 0 -14 14v462q0 14 14 14h63q14 0 14 -14v-399h274v399q0 14 14 14h63q13 0 13 -14v-400h36z" glyph-name="afii10088" horiz-adv-x="604" unicode="ц"/><glyph d="M469 490q14 0 14 -14v-462q0 -14 -14 -14h-63q-14 0 -14 14v162q-51 -72 -158 -72q-79 0 -133.5 48.5t-54.5 154.5v169q0 14 14 14h63q13 0 13 -14v-160q0 -63 32 -96t89 -33q59 0 97 34t38 95v160q0 14 14 14h63z" glyph-name="afii10089" horiz-adv-x="554" unicode="ч"/><glyph d="M647 490q13 0 13 -14v-462q0 -14 -13 -14h-562q-14 0 -14 14v462q0 14 14 14h63q14 0 14 -14v-399h159v399q0 14 13 14h63q14 0 14 -14v-399h159v399q0 14 13 14h64z" glyph-name="afii10090" horiz-adv-x="731" unicode="ш"/><glyph d="M688 76q14 0 14 -15v-113q0 -15 -14 -15h-61q-14 0 -14 15v52h-528q-14 0 -14 14v462q0 14 14 14h63q14 0 14 -14v-399h159v399q0 14 13 14h63q14 0 14 -14v-399h159v399q0 14 13 14h64q13 0 13 -14v-400h28z" glyph-name="afii10091" horiz-adv-x="730" unicode="щ"/><glyph d="M346 328q180 0 180 -164t-180 -164h-245q-13 0 -13 14v401h-52q-15 0 -15 14v47q0 14 15 14h128q14 0 14 -14v-148h168zM338 74q101 0 101 90t-101 90h-160v-180h160z" glyph-name="afii10092" horiz-adv-x="573" unicode="ъ"/><glyph d="M330 328q180 0 180 -164t-180 -164h-245q-14 0 -14 14v462q0 14 14 14h63q14 0 14 -14v-148h168zM662 490q13 0 13 -14v-462q0 -14 -13 -14h-64q-13 0 -13 14v462q0 14 13 14h64zM321 74q102 0 102 90t-102 90h-159v-180h159z" glyph-name="afii10093" horiz-adv-x="746" unicode="ы"/><glyph d="M330 328q180 0 180 -164t-180 -164h-245q-14 0 -14 14v462q0 14 14 14h63q14 0 14 -14v-148h168zM321 74q102 0 102 90t-102 90h-159v-180h159z" glyph-name="afii10094" horiz-adv-x="556" unicode="ь"/><glyph d="M237 502q109 0 182.5 -73t73.5 -183t-73.5 -184t-182.5 -74q-118 0 -186 84q-9 11 0 20l35 34q11 11 24 -2q49 -52 122 -52q66 0 112.5 38t57.5 100h-178q-14 0 -14 14v40q0 14 14 14h178q-10 63 -56 102t-112 39q-73 0 -124 -54q-12 -12 -23 0l-35 33q-9 9 0 21 q68 83 185 83z" glyph-name="afii10095" horiz-adv-x="539" unicode="э"/><glyph d="M487 502q108 0 180 -73.5t72 -183.5t-72 -183.5t-180 -73.5q-98 0 -167.5 61.5t-82.5 157.5h-75v-194q0 -14 -14 -14h-63q-14 0 -14 14v462q0 14 14 14h63q14 0 14 -14v-193h74q13 96 83 158t168 62zM487 72q71 0 118 48.5t47 124.5q0 77 -47 125.5t-118 48.5 q-72 0 -118.5 -48.5t-46.5 -125.5t46.5 -125t118.5 -48z" glyph-name="afii10096" horiz-adv-x="785" unicode="ю"/><glyph d="M473 490q13 0 13 -14v-462q0 -14 -13 -14h-64q-13 0 -13 14v149h-112l-135 -155q-7 -8 -17 -8h-67q-10 0 -12 5t5 13l131 147q-142 17 -142 161q0 164 180 164h246zM236 236h160v180h-160q-102 0 -102 -90t102 -90z" glyph-name="afii10097" horiz-adv-x="557" unicode="я"/><glyph d="M203 636q-20 0 -35 14.5t-15 35.5q0 20 15 34.5t35 14.5t35 -14.5t15 -34.5q0 -21 -15 -35.5t-35 -14.5zM395 636q-20 0 -35 14.5t-15 35.5q0 20 15 34.5t35 14.5t35 -14.5t15 -34.5q0 -21 -15 -35.5t-35 -14.5zM525 270q0 -31 -8.5 -44.5t-32.5 -13.5h-350 q9 -68 56 -109t126 -41q74 0 133 42q10 7 16 -1l22 -31q9 -10 -4 -21q-65 -63 -175 -63q-118 0 -190 74t-72 185q0 109 69.5 182t178.5 73q105 0 168 -68.5t63 -163.5zM294 425q-65 0 -109 -39.5t-52 -106.5h312q-4 66 -44.5 106t-106.5 40z" glyph-name="afii10071" horiz-adv-x="571" unicode="ё"/><glyph d="M198 557q-17 0 -10 16l55 115q7 12 17 12h58q17 0 10 -16l-56 -115q-5 -12 -16 -12h-58zM371 490q15 0 15 -15v-45q0 -15 -15 -15h-210v-400q0 -15 -15 -15h-60q-15 0 -15 15v460q0 15 15 15h285z" glyph-name="afii10100" horiz-adv-x="425" unicode="ѓ"/><glyph d="M488 92q9 -9 0 -20q-68 -84 -186 -84q-109 0 -182.5 74t-73.5 184t73 183t183 73q117 0 185 -83q9 -12 0 -21l-35 -33q-11 -12 -23 0q-51 54 -124 54q-66 0 -112 -39t-56 -102h178q14 0 14 -14v-40q0 -14 -14 -14h-178q11 -62 57.5 -100t112.5 -38q73 0 122 52 q13 13 24 2z" glyph-name="afii10101" horiz-adv-x="539" unicode="є"/><glyph d="M117 606q-23 0 -38.5 16t-15.5 38t15.5 38t38.5 16q22 0 37.5 -15.5t15.5 -38.5t-15.5 -38.5t-37.5 -15.5zM85 0q-13 0 -13 14v462q0 14 13 14h63q14 0 14 -14v-462q0 -14 -14 -14h-63z" glyph-name="afii10103" horiz-adv-x="233" unicode="і"/><glyph d="M9 606q-20 0 -35 14.5t-15 35.5q0 20 15 34.5t35 14.5t35 -14.5t15 -34.5q0 -21 -15 -35.5t-35 -14.5zM201 606q-20 0 -35 14.5t-15 35.5q0 20 15 34.5t35 14.5t35 -14.5t15 -34.5q0 -21 -15 -35.5t-35 -14.5zM72 0q-13 0 -13 14v462q0 14 13 14h64q13 0 13 -14v-462 q0 -14 -13 -14h-64z" glyph-name="afii10104" horiz-adv-x="208" unicode="ї"/><glyph d="M258 557q-17 0 -10 16l55 115q7 12 17 12h58q17 0 10 -16l-56 -115q-5 -12 -16 -12h-58zM508 18q7 -7 4.5 -12.5t-12.5 -5.5h-74q-11 0 -18 8l-185 206l-61 -62v-138q0 -14 -14 -14h-63q-14 0 -14 14v462q0 14 14 14h63q14 0 14 -14v-213l209 219q8 8 19 8h76q10 0 12 -5 t-5 -13l-193 -198z" glyph-name="afii10109" horiz-adv-x="543" unicode="ќ"/><glyph d="M354 686q3 14 16 14h30q16 0 14 -15q-5 -52 -43 -85.5t-99 -33.5t-99 33.5t-43 85.5q-2 15 14 15h30q13 0 16 -14q6 -28 27.5 -45.5t54.5 -17.5t54.5 17.5t27.5 45.5zM172 -190q-17 0 -10 15l69 173l-188 475q-6 17 11 17h64q12 0 16 -12l142 -376l142 376q5 12 17 12h63 q18 0 12 -17l-259 -651q-4 -12 -17 -12h-62z" glyph-name="afii10110" horiz-adv-x="553" unicode="ў"/><glyph d="M452 736v-104h-2v-2q0 -15 -15 -15h-260v-601q0 -14 -14 -14h-65q-15 0 -15 14v672q0 14 15 14h271v36q0 15 15 15h55q15 0 15 -15z" glyph-name="afii10050" horiz-adv-x="498" unicode="Ґ"/><glyph d="M379 488q7 -4 7 -13v-45q0 -15 -15 -15h-210v-400q0 -15 -15 -15h-60q-15 0 -15 15v460q0 15 15 15h203v47q0 15 15 15h60q15 0 15 -15v-49z" glyph-name="afii10098" horiz-adv-x="425" unicode="ґ"/><glyph d="M493 779l-56 115q-7 16 10 16h59q11 0 16 -12l55 -115q7 -16 -10 -16h-57q-10 0 -17 12zM1022 700q17 0 12 -17l-205 -671q-4 -12 -18 -12h-72q-14 0 -18 12l-180 572l-181 -572q-4 -12 -17 -12h-73q-14 0 -17 12l-206 671q-5 17 12 17h66q14 0 17 -12l167 -563l181 563 q4 12 17 12h68q12 0 16 -12l181 -563l167 563q4 12 17 12h66z" glyph-name="Wgrave" horiz-adv-x="1081" unicode="Ẁ"/><glyph d="M342 700h59q11 0 16 -12l55 -115q7 -16 -10 -16h-57q-10 0 -17 12l-56 115q-7 16 10 16zM220 0q-14 0 -18 12l-159 461q-6 17 11 17h62q12 0 16 -12l124 -377l130 377q4 12 18 12h65q14 0 18 -12l129 -377l124 377q4 12 17 12h61q18 0 12 -17l-159 -461q-5 -12 -18 -12 h-67q-14 0 -18 12l-132 377l-131 -377q-5 -12 -18 -12h-67z" glyph-name="wgrave" horiz-adv-x="873" unicode="ẁ"/><glyph d="M516 767q-17 0 -10 16l55 115q7 12 17 12h58q17 0 10 -16l-56 -115q-5 -12 -16 -12h-58zM1022 700q17 0 12 -17l-205 -671q-4 -12 -18 -12h-72q-14 0 -18 12l-180 572l-181 -572q-4 -12 -17 -12h-73q-14 0 -17 12l-206 671q-5 17 12 17h66q14 0 17 -12l167 -563l181 563 q4 12 17 12h68q12 0 16 -12l181 -563l167 563q4 12 17 12h66z" glyph-name="Wacute" horiz-adv-x="1081" unicode="Ẃ"/><glyph d="M532 700q17 0 10 -16l-56 -115q-5 -12 -16 -12h-58q-17 0 -10 16l55 115q7 12 17 12h58zM220 0q-14 0 -18 12l-159 461q-6 17 11 17h62q12 0 16 -12l124 -377l130 377q4 12 18 12h65q14 0 18 -12l129 -377l124 377q4 12 17 12h61q18 0 12 -17l-159 -461q-5 -12 -18 -12 h-67q-14 0 -18 12l-132 377l-131 -377q-5 -12 -18 -12h-67z" glyph-name="wacute" horiz-adv-x="873" unicode="ẃ"/><glyph d="M445 816q-20 0 -35 14.5t-15 35.5q0 20 15 34.5t35 14.5t35 -14.5t15 -34.5q0 -21 -15 -35.5t-35 -14.5zM637 816q-20 0 -35 14.5t-15 35.5q0 20 15 34.5t35 14.5t35 -14.5t15 -34.5q0 -21 -15 -35.5t-35 -14.5zM1022 700q17 0 12 -17l-205 -671q-4 -12 -18 -12h-72 q-14 0 -18 12l-180 572l-181 -572q-4 -12 -17 -12h-73q-14 0 -17 12l-206 671q-5 17 12 17h66q14 0 17 -12l167 -563l181 563q4 12 17 12h68q12 0 16 -12l181 -563l167 563q4 12 17 12h66z" glyph-name="Wdieresis" horiz-adv-x="1081" unicode="Ẅ"/><glyph d="M341 606q-20 0 -35 14.5t-15 35.5q0 20 15 34.5t35 14.5t35 -14.5t15 -34.5q0 -21 -15 -35.5t-35 -14.5zM533 606q-20 0 -35 14.5t-15 35.5q0 20 15 34.5t35 14.5t35 -14.5t15 -34.5q0 -21 -15 -35.5t-35 -14.5zM220 0q-14 0 -18 12l-159 461q-6 17 11 17h62q12 0 16 -12 l124 -377l130 377q4 12 18 12h65q14 0 18 -12l129 -377l124 377q4 12 17 12h61q18 0 12 -17l-159 -461q-5 -12 -18 -12h-67q-14 0 -18 12l-132 377l-131 -377q-5 -12 -18 -12h-67z" glyph-name="wdieresis" horiz-adv-x="873" unicode="ẅ"/><glyph d="M472 320q55 -30 86.5 -68.5t31.5 -97.5q0 -76 -53.5 -121t-130.5 -45q-105 0 -168 79q-10 12 -1 24l25 32q9 14 22 1q59 -54 117 -54q43 0 69.5 23t26.5 63q0 57 -74 98l-59 33q-53 29 -80.5 62t-27.5 85q0 64 43 102t110 42q-36 41 -104 41q-59 0 -94.5 -30.5 t-35.5 -96.5v-478q0 -14 -14 -14h-66q-14 0 -14 14v494q0 93 61 142.5t158 49.5q128 0 184 -84v-110h-51q-38 0 -63 -18t-25 -53q0 -29 17 -46.5t56 -38.5z" glyph-name="uni1E9E" horiz-adv-x="636" unicode="ẞ"/><glyph d="M254 779l-56 115q-7 16 10 16h59q11 0 16 -12l55 -115q7 -16 -10 -16h-57q-10 0 -17 12zM547 700q9 0 11.5 -5t-2.5 -13l-207 -350v-318q0 -14 -14 -14h-65q-14 0 -14 14v318l-207 350q-5 8 -2 13t12 5h70q11 0 17 -10l157 -270l156 270q6 10 18 10h70z" glyph-name="Ygrave" horiz-adv-x="605" unicode="Ỳ"/><glyph d="M182 700h59q11 0 16 -12l55 -115q7 -16 -10 -16h-57q-10 0 -17 12l-56 115q-7 16 10 16zM172 -190q-17 0 -10 15l69 173l-188 475q-6 17 11 17h64q12 0 16 -12l142 -376l142 376q5 12 17 12h63q18 0 12 -17l-259 -651q-4 -12 -17 -12h-62z" glyph-name="ygrave" horiz-adv-x="553" unicode="ỳ"/><glyph d="M550 319q14 0 14 -13v-49q0 -14 -14 -14h-483q-13 0 -13 14v49q0 13 13 13h483z" glyph-name="endash" horiz-adv-x="618" unicode="–"/><glyph d="M610 319q14 0 14 -13v-49q0 -14 -14 -14h-543q-13 0 -13 14v49q0 13 13 13h543z" glyph-name="emdash" horiz-adv-x="678" unicode="—"/><glyph d="M172 715v-28q-46 -1 -69 -42q-16 -30 -2 -40q3 -2 7 -2q28 1 45.5 -16.5t17.5 -43.5t-18.5 -43.5t-44.5 -17.5q-31 0 -52.5 25t-21.5 67q0 60 41 101.5t97 39.5z" glyph-name="quoteleft" horiz-adv-x="206" unicode="‘"/><glyph d="M34 485v28q46 1 69 42q16 30 2 40q-3 2 -7 2q-28 -1 -45.5 16.5t-17.5 43.5t18.5 43.5t44.5 17.5q31 0 52.5 -25t21.5 -67q0 -60 -41 -101.5t-97 -39.5z" glyph-name="quoteright" horiz-adv-x="206" unicode="’"/><glyph d="M44 -126v28q46 1 69 42q16 30 2 40q-3 2 -7 2q-28 -1 -45.5 16.5t-17.5 43.5t18.5 43.5t44.5 17.5q31 0 52.5 -25t21.5 -67q0 -60 -41 -101.5t-97 -39.5z" glyph-name="quotesinglbase" horiz-adv-x="226" unicode="‚"/><glyph d="M172 715v-28q-46 -1 -69 -42q-16 -30 -2 -40q3 -2 7 -2q28 1 45.5 -16.5t17.5 -43.5t-18.5 -43.5t-44.5 -17.5q-31 0 -52.5 25t-21.5 67q0 60 41 101.5t97 39.5zM340 715v-28q-46 -1 -69 -42q-16 -30 -2 -40q3 -2 7 -2q28 1 45.5 -16.5t17.5 -43.5t-18.5 -43.5 t-44.5 -17.5q-31 0 -52.5 25t-21.5 67q0 60 41 101.5t97 39.5z" glyph-name="quotedblleft" horiz-adv-x="374" unicode="“"/><glyph d="M34 485v28q46 1 69 42q16 30 2 40q-3 2 -7 2q-28 -1 -45.5 16.5t-17.5 43.5t18.5 43.5t44.5 17.5q31 0 52.5 -25t21.5 -67q0 -60 -41 -101.5t-97 -39.5zM202 485v28q46 1 69 42q16 30 2 40q-3 2 -7 2q-28 -1 -45.5 16.5t-17.5 43.5t18.5 43.5t44.5 17.5q31 0 52.5 -25 t21.5 -67q0 -60 -41 -101.5t-97 -39.5z" glyph-name="quotedblright" horiz-adv-x="374" unicode="”"/><glyph d="M44 -126v28q46 1 69 42q16 30 2 40q-3 2 -7 2q-28 -1 -45.5 16.5t-17.5 43.5t18.5 43.5t44.5 17.5q31 0 52.5 -25t21.5 -67q0 -60 -41 -101.5t-97 -39.5zM212 -126v28q46 1 69 42q16 30 2 40q-3 2 -7 2q-28 -1 -45.5 16.5t-17.5 43.5t18.5 43.5t44.5 17.5q31 0 52.5 -25 t21.5 -67q0 -60 -41 -101.5t-97 -39.5z" glyph-name="quotedblbase" horiz-adv-x="394" unicode="„"/><glyph d="M366 579q14 0 14 -14v-44q0 -15 -14 -15h-106v-107q0 -14 -15 -14h-44q-14 0 -14 14v107h-108q-14 0 -14 15v44q0 14 14 14h108v107q0 14 14 14h44q15 0 15 -14v-107h106z" glyph-name="dagger" horiz-adv-x="445" unicode="†"/><glyph d="M366 579q14 0 14 -14v-44q0 -15 -14 -15h-106v-107q0 -14 -15 -14h-44q-14 0 -14 14v107h-108q-14 0 -14 15v44q0 14 14 14h108v107q0 14 14 14h44q15 0 15 -14v-107h106zM366 214q14 0 14 -14v-45q0 -14 -14 -14h-106v-107q0 -14 -15 -14h-44q-14 0 -14 14v107h-108 q-14 0 -14 14v45q0 14 14 14h108v107q0 14 14 14h44q15 0 15 -14v-107h106z" glyph-name="daggerdbl" horiz-adv-x="445" unicode="‡"/><glyph d="M142 199q-32 0 -54.5 22.5t-22.5 53.5t22.5 53.5t54.5 22.5q31 0 53.5 -22.5t22.5 -53.5t-22.5 -53.5t-53.5 -22.5z" glyph-name="bullet" horiz-adv-x="283" unicode="•"/><glyph d="M104 -13q-25 0 -42.5 17.5t-17.5 42.5t17.5 42.5t42.5 17.5t42.5 -17.5t17.5 -42.5t-17.5 -42.5t-42.5 -17.5zM293 -13q-25 0 -42.5 17.5t-17.5 42.5t17.5 42.5t42.5 17.5t42.5 -17.5t17.5 -42.5t-17.5 -42.5t-42.5 -17.5zM482 -13q-25 0 -42.5 17.5t-17.5 42.5 t17.5 42.5t42.5 17.5t42.5 -17.5t17.5 -42.5t-17.5 -42.5t-42.5 -17.5z" glyph-name="ellipsis" horiz-adv-x="586" unicode="…"/><glyph d="M187 434q-57 0 -97 39t-40 96t40 96.5t97 39.5t97 -39.5t40 -96.5t-40 -96t-97 -39zM156 5l-32 21q-11 8 -3 20l433 644q8 13 18 5l32 -21q11 -8 3 -20l-433 -644q-8 -13 -18 -5zM187 495q31 0 52.5 21t21.5 53q0 33 -21.5 54t-52.5 21t-52 -21t-21 -54q0 -32 21 -53 t52 -21zM541 -5q-57 0 -97 39t-40 96t40 96.5t97 39.5t97 -39.5t40 -96.5t-40 -96t-97 -39zM856 -5q-57 0 -97 39t-40 96t40 96.5t97 39.5t97 -39.5t40 -96.5t-40 -96t-97 -39zM541 57q31 0 52.5 20.5t21.5 52.5q0 33 -21.5 54t-52.5 21t-52 -21t-21 -54q0 -32 21 -52.5 t52 -20.5zM856 57q31 0 52 20.5t21 52.5q0 33 -21 54t-52 21q-32 0 -53 -21t-21 -54q0 -32 21 -52.5t53 -20.5z" glyph-name="perthousand" horiz-adv-x="1043" unicode="‰"/><glyph d="M187 151q0 -7 -5.5 -9t-9.5 2l-115 88q-8 7 -8 17v58q0 9 8 16l115 88q4 5 9.5 2.5t5.5 -9.5v-48q0 -10 -8 -17l-84 -61l84 -62q8 -7 8 -17v-48z" glyph-name="guilsinglleft" horiz-adv-x="235" unicode="‹"/><glyph d="M49 151v48q0 10 8 17l83 62l-83 61q-8 7 -8 17v48q0 7 5 9.5t10 -2.5l115 -88q8 -7 8 -16v-58q0 -10 -8 -17l-115 -88q-5 -4 -10 -2t-5 9z" glyph-name="guilsinglright" horiz-adv-x="235" unicode="›"/><glyph d="M309 700l-423 -700h-46l423 700h46z" glyph-name="fraction" horiz-adv-x="149" unicode="⁄"/><glyph d="M694 103q10 -10 -2 -22q-100 -94 -239 -94q-130 0 -225.5 77t-122.5 198h-51q-14 0 -14 14v32q0 13 14 13h43q-1 9 -1 26v19h-42q-14 0 -14 13v33q0 13 14 13h50q25 125 121 204t228 79q138 0 239 -93q11 -11 2 -23l-40 -43q-9 -11 -21 0q-79 68 -179 68q-92 0 -161 -53 t-92 -139h158q14 0 14 -13v-33q0 -13 -14 -13h-167q-1 -6 -1 -19q0 -17 1 -26h167q14 0 14 -13v-32q0 -14 -14 -14h-156q25 -83 93 -133.5t158 -50.5q100 0 179 68q11 11 21 1z" glyph-name="Euro" horiz-adv-x="755" unicode="€"/><glyph d="M138 520q-5 0 -5 5v143h-63q-5 0 -5 5v22q0 5 5 5h162q5 0 5 -5v-22q0 -5 -5 -5h-63v-143q0 -5 -5 -5h-26zM274 520q-5 0 -5 5v170q0 5 5 5h31q4 0 6 -4l64 -132l65 132q2 4 6 4h30q5 0 5 -5v-170q0 -5 -5 -5h-26q-5 0 -5 5v111l-53 -112q-2 -4 -6 -4h-21q-4 0 -6 4 l-53 112v-111q0 -5 -5 -5h-27z" glyph-name="trademark" horiz-adv-x="546" unicode="™"/><glyph d="M109 701v-261h-40v223h-29v38h69zM523 700l-423 -700h-46l423 700h46zM493 263q40 0 62.5 -19t22.5 -49q0 -38 -39 -56q50 -17 50 -65q0 -35 -25.5 -56.5t-68.5 -21.5q-46 0 -69 23.5t-23 61.5h39q0 -22 13.5 -36t39.5 -14q23 0 38 11.5t15 31.5q0 26 -18.5 35.5 t-54.5 9.5v31q63 0 63 42q0 36 -45 36q-46 0 -46 -48h-39q-1 39 21 61t64 22z" glyph-name="onethird" horiz-adv-x="629" unicode="⅓"/><glyph d="M109 701v-261h-40v223h-29v38h69zM521 700l-423 -700h-46l423 700h46zM448 -4q-37 0 -62.5 21.5t-25.5 56.5q0 48 43 69q-29 19 -29 54q0 27 19.5 46.5t54.5 19.5t55 -19.5t20 -46.5q0 -35 -29 -54q43 -21 43 -69q0 -36 -26 -57t-63 -21zM448 160q18 0 28.5 10t10.5 25 t-10.5 25t-28.5 10t-28 -10t-10 -25t10.5 -25t27.5 -10zM448 29q22 0 36.5 13t14.5 34q0 22 -14.5 35.5t-36.5 13.5q-21 0 -35.5 -13.5t-14.5 -35.5q0 -21 14.5 -34t35.5 -13z" glyph-name="oneeighth" horiz-adv-x="582" unicode="⅛"/><glyph d="M130 703q40 0 62.5 -19t22.5 -49q0 -38 -39 -56q50 -17 50 -65q0 -35 -25.5 -56.5t-68.5 -21.5q-46 0 -69 23.5t-23 61.5h39q0 -22 13.5 -36t39.5 -14q23 0 38 11.5t15 31.5q0 26 -18.5 35.5t-54.5 9.5v31q63 0 63 42q0 36 -45 36q-46 0 -46 -48h-39q-1 39 21 61t64 22z M544 700l-423 -700h-46l423 700h46zM469 -4q-37 0 -62.5 21.5t-25.5 56.5q0 48 43 69q-29 19 -29 54q0 27 19.5 46.5t54.5 19.5t55 -19.5t20 -46.5q0 -35 -29 -54q43 -21 43 -69q0 -36 -26 -57t-63 -21zM469 160q18 0 28.5 10t10.5 25t-10.5 25t-28.5 10t-28 -10t-10 -25 t10.5 -25t27.5 -10zM469 29q22 0 36.5 13t14.5 34q0 22 -14.5 35.5t-36.5 13.5q-21 0 -35.5 -13.5t-14.5 -35.5q0 -21 14.5 -34t35.5 -13z" glyph-name="threeeighths" horiz-adv-x="598" unicode="⅜"/><glyph d="M205 701v-38h-107l-8 -59q16 16 48 16q39 0 64.5 -25t25.5 -66t-27 -67t-70 -26q-36 0 -60.5 18t-30.5 44l35 16q4 -18 19 -30t37 -12q25 0 41 15.5t16 41.5q0 25 -15.5 40t-40.5 15q-33 0 -51 -28l-33 11l18 134h139zM544 700l-423 -700h-46l423 700h46zM471 -4 q-37 0 -62.5 21.5t-25.5 56.5q0 48 43 69q-29 19 -29 54q0 27 19.5 46.5t54.5 19.5t55 -19.5t20 -46.5q0 -35 -29 -54q43 -21 43 -69q0 -36 -26 -57t-63 -21zM471 160q18 0 28.5 10t10.5 25t-10.5 25t-28.5 10t-28 -10t-10 -25t10.5 -25t27.5 -10zM471 29q22 0 36.5 13 t14.5 34q0 22 -14.5 35.5t-36.5 13.5q-21 0 -35.5 -13.5t-14.5 -35.5q0 -21 14.5 -34t35.5 -13z" glyph-name="fiveeighths" horiz-adv-x="600" unicode="⅝"/><glyph d="M209 701l-109 -261h-43l96 223h-113v38h169zM522 700l-423 -700h-46l423 700h46zM449 -4q-37 0 -62.5 21.5t-25.5 56.5q0 48 43 69q-29 19 -29 54q0 27 19.5 46.5t54.5 19.5t55 -19.5t20 -46.5q0 -35 -29 -54q43 -21 43 -69q0 -36 -26 -57t-63 -21zM449 160q18 0 28.5 10 t10.5 25t-10.5 25t-28.5 10t-28 -10t-10 -25t10.5 -25t27.5 -10zM449 29q22 0 36.5 13t14.5 34q0 22 -14.5 35.5t-36.5 13.5q-21 0 -35.5 -13.5t-14.5 -35.5q0 -21 14.5 -34t35.5 -13z" glyph-name="seveneighths" horiz-adv-x="573" unicode="⅞"/><glyph d="M440 404q72 -94 72 -184q0 -99 -66.5 -166t-166.5 -67t-166.5 67.5t-66.5 167.5t66.5 165t164.5 65q17 0 25 -1l-165 209q-7 10 2 19l45 37q10 9 19 -4zM279 71q63 0 104 42.5t41 108.5t-41 108.5t-104 42.5t-104 -42.5t-41 -108.5t41 -108.5t104 -42.5z" glyph-name="partialdiff" horiz-adv-x="558" unicode="∂"/><glyph d="M73 -190q-14 0 -14 14v862q0 14 14 14h538q14 0 14 -14v-862q0 -14 -14 -14h-58q-14 0 -14 14v790h-393v-790q0 -14 -13 -14h-60z" glyph-name="product" horiz-adv-x="684" unicode="∏"/><glyph d="M74 -190q-15 0 -15 15v60q0 9 6 18l269 352l-269 352q-6 9 -6 18v60q0 15 15 15h510q15 0 15 -15v-56q0 -15 -15 -15h-416l268 -349q7 -10 0 -20l-268 -349h416q15 0 15 -15v-56q0 -15 -15 -15h-510z" glyph-name="summation" horiz-adv-x="658" unicode="∑"/><glyph d="M79 248q-14 0 -14 14v45q0 14 14 14h307q14 0 14 -14v-45q0 -14 -14 -14h-307z" glyph-name="minus" horiz-adv-x="465" unicode="−"/><glyph d="M291 -190q-14 0 -17 13l-113 424h-100q-15 0 -15 15v55q0 15 15 15h147q14 0 17 -13l105 -408l188 776q3 13 16 13h51q16 0 13 -17l-211 -860q-3 -13 -16 -13h-80z" glyph-name="radical" horiz-adv-x="645" unicode="√"/><glyph d="M610 425q70 0 117.5 -46.5t47.5 -117.5q0 -72 -47.5 -118.5t-117.5 -46.5q-100 0 -192 114q-90 -114 -190 -114q-71 0 -119 46.5t-48 118.5q0 71 48 117.5t119 46.5q100 0 190 -114q92 114 192 114zM231 158q42 0 76.5 27t69.5 76q-71 102 -146 102q-45 0 -73 -28.5 t-28 -73.5q0 -44 28.5 -73.5t72.5 -29.5zM606 158q44 0 72.5 29.5t28.5 73.5q0 45 -28 73.5t-73 28.5q-75 0 -146 -102q35 -49 69.5 -76t76.5 -27z" glyph-name="infinity" horiz-adv-x="837" unicode="∞"/><glyph d="M106 -190q-35 0 -56 10q-9 4 -9 13v55q0 9 13 7q20 -3 35 -3q38 0 51.5 19t13.5 55v625q0 140 139 140q35 0 56 -10q9 -5 9 -13v-55q0 -9 -13 -7q-20 3 -35 3q-38 0 -51.5 -19t-13.5 -55v-625q0 -140 -139 -140z" glyph-name="integral" horiz-adv-x="399" unicode="∫"/><glyph d="M313 289q-33 0 -61.5 18.5t-52.5 36.5t-47 18q-38 0 -47 -32q-3 -10 -12 -10h-23q-12 0 -10 13q2 43 29.5 66t67.5 23q34 0 62 -18t52 -36.5t47 -18.5q37 0 48 32q3 10 12 10h22q12 0 10 -13q-2 -43 -29.5 -66t-67.5 -23zM313 129q-33 0 -61.5 18.5t-52.5 36.5t-47 18 q-38 0 -47 -32q-3 -10 -12 -10h-23q-12 0 -10 13q2 43 29.5 66t67.5 23q34 0 62 -18t52 -36.5t47 -18.5q37 0 48 32q3 10 12 10h22q12 0 10 -13q-2 -43 -29.5 -66t-67.5 -23z" glyph-name="approxequal" horiz-adv-x="470" unicode="≈"/><glyph d="M386 317h-107l-24 -64h131q14 0 14 -14v-45q0 -14 -14 -14h-158l-63 -168q-5 -12 -18 -12h-33q-17 0 -11 17l61 163h-85q-14 0 -14 14v45q0 14 14 14h112l24 64h-136q-14 0 -14 14v44q0 15 14 15h163l59 159q5 12 18 12h33q17 0 11 -17l-57 -154h80q14 0 14 -15v-44 q0 -14 -14 -14z" glyph-name="notequal" horiz-adv-x="465" unicode="≠"/><glyph d="M384 174l-311 173q-9 5 -9 16v40q0 10 9 16l311 174q15 9 15 -8v-48q0 -9 -9 -14l-258 -139l258 -140q9 -4 9 -14v-48q0 -17 -15 -8zM77 0q-13 0 -13 14v32q0 13 13 13h309q13 0 13 -13v-32q0 -14 -13 -14h-309z" glyph-name="lessequal" horiz-adv-x="463" unicode="≤"/><glyph d="M80 174q-15 -9 -15 8v48q0 10 9 14l258 140l-258 139q-9 5 -9 14v48q0 17 15 8l311 -174q9 -6 9 -16v-40q0 -11 -9 -16zM387 0h-308q-14 0 -14 14v32q0 13 14 13h308q13 0 13 -13v-32q0 -14 -13 -14z" glyph-name="greaterequal" horiz-adv-x="465" unicode="≥"/><glyph d="M227 0q-13 0 -17 11l-146 329q-4 10 0 20l146 329q4 11 17 11h96q13 0 17 -11l146 -329q4 -10 0 -20l-146 -329q-4 -11 -17 -11h-96zM275 56l130 294l-130 295l-130 -295z" glyph-name="lozenge" horiz-adv-x="550" unicode="◊"/><glyph d="M767 602q9 -9 0 -20l-474 -475q-10 -10 -20 0l-227 228q-10 11 0 21l48 46q9 10 19 0l171 -172l417 418q9 11 20 0z" glyph-name="uni2713" horiz-adv-x="813" unicode="✓"/><glyph glyph-name="uniFEFF" horiz-adv-x="199" unicode="﻿"/><glyph d="M105 606q-20 0 -35 14.5t-15 35.5q0 20 15 34.5t35 14.5t35 -14.5t15 -34.5q0 -21 -15 -35.5t-35 -14.5zM72 0q-13 0 -13 14v462q0 14 13 14h64q13 0 13 -14v-462q0 -14 -13 -14h-64z" glyph-name="i.aalt" horiz-adv-x="208"/><glyph d="M482 68q12 -7 12 -16v-41q0 -7 -4.5 -10.5t-10 -4t-18.5 -0.5q-35 0 -57.5 20t-26.5 56q-34 -42 -83.5 -63.5t-100.5 -21.5q-72 0 -112 38.5t-40 104.5q0 125 161 140l174 17v47q0 49 -25.5 71t-86.5 22q-108 0 -115 -73q-2 -11 -14 -11h-55q-16 0 -14 15q8 144 200 144 q107 0 154 -41.5t47 -125.5v-227q0 -31 15 -40zM221 63q98 0 155 77v82l-162 -16q-46 -4 -64 -21.5t-18 -47.5q0 -74 89 -74z" glyph-name="a.salt" horiz-adv-x="551"/><glyph d="M243 557q-17 0 -10 16l55 115q7 12 17 12h58q17 0 10 -16l-56 -115q-5 -12 -16 -12h-58zM482 68q12 -7 12 -16v-41q0 -7 -4.5 -10.5t-10 -4t-18.5 -0.5q-35 0 -57.5 20t-26.5 56q-34 -42 -83.5 -63.5t-100.5 -21.5q-72 0 -112 38.5t-40 104.5q0 125 161 140l174 17v47 q0 49 -25.5 71t-86.5 22q-108 0 -115 -73q-2 -11 -14 -11h-55q-16 0 -14 15q8 144 200 144q107 0 154 -41.5t47 -125.5v-227q0 -31 15 -40zM221 63q98 0 155 77v82l-162 -16q-46 -4 -64 -21.5t-18 -47.5q0 -74 89 -74z" glyph-name="aacute.aalt" horiz-adv-x="551"/><glyph d="M268 566q-61 0 -99 33.5t-43 85.5q-2 15 14 15h30q13 0 16 -14q6 -28 27.5 -45.5t54.5 -17.5t54.5 17.5t27.5 45.5q3 14 16 14h30q16 0 14 -15q-5 -52 -43 -85.5t-99 -33.5zM482 68q12 -7 12 -16v-41q0 -7 -4.5 -10.5t-10 -4t-18.5 -0.5q-35 0 -57.5 20t-26.5 56 q-34 -42 -83.5 -63.5t-100.5 -21.5q-72 0 -112 38.5t-40 104.5q0 125 161 140l174 17v47q0 49 -25.5 71t-86.5 22q-108 0 -115 -73q-2 -11 -14 -11h-55q-16 0 -14 15q8 144 200 144q107 0 154 -41.5t47 -125.5v-227q0 -31 15 -40zM221 63q98 0 155 77v82l-162 -16 q-46 -4 -64 -21.5t-18 -47.5q0 -74 89 -74z" glyph-name="abreve.aalt" horiz-adv-x="551"/><glyph d="M222 580l-87 105q-5 5 -2.5 10t9.5 5h48q10 0 17 -8l61 -76l62 76q7 8 17 8h48q7 0 9.5 -5t-2.5 -10l-87 -105q-7 -8 -16 -8h-61q-9 0 -16 8zM482 68q12 -7 12 -16v-41q0 -7 -4.5 -10.5t-10 -4t-18.5 -0.5q-35 0 -57.5 20t-26.5 56q-34 -42 -83.5 -63.5t-100.5 -21.5 q-72 0 -112 38.5t-40 104.5q0 125 161 140l174 17v47q0 49 -25.5 71t-86.5 22q-108 0 -115 -73q-2 -11 -14 -11h-55q-16 0 -14 15q8 144 200 144q107 0 154 -41.5t47 -125.5v-227q0 -31 15 -40zM221 63q98 0 155 77v82l-162 -16q-46 -4 -64 -21.5t-18 -47.5q0 -74 89 -74z " glyph-name="uni01CE.aalt" horiz-adv-x="551"/><glyph d="M142 572q-7 0 -9.5 5t2.5 10l87 105q7 8 16 8h61q9 0 16 -8l87 -105q5 -5 2.5 -10t-9.5 -5h-48q-10 0 -17 8l-62 76l-61 -76q-7 -8 -17 -8h-48zM482 68q12 -7 12 -16v-41q0 -7 -4.5 -10.5t-10 -4t-18.5 -0.5q-35 0 -57.5 20t-26.5 56q-34 -42 -83.5 -63.5t-100.5 -21.5 q-72 0 -112 38.5t-40 104.5q0 125 161 140l174 17v47q0 49 -25.5 71t-86.5 22q-108 0 -115 -73q-2 -11 -14 -11h-55q-16 0 -14 15q8 144 200 144q107 0 154 -41.5t47 -125.5v-227q0 -31 15 -40zM221 63q98 0 155 77v82l-162 -16q-46 -4 -64 -21.5t-18 -47.5q0 -74 89 -74z " glyph-name="acircumflex.aalt" horiz-adv-x="551"/><glyph d="M173 606q-20 0 -35 14.5t-15 35.5q0 20 15 34.5t35 14.5t35 -14.5t15 -34.5q0 -21 -15 -35.5t-35 -14.5zM365 606q-20 0 -35 14.5t-15 35.5q0 20 15 34.5t35 14.5t35 -14.5t15 -34.5q0 -21 -15 -35.5t-35 -14.5zM482 68q12 -7 12 -16v-41q0 -7 -4.5 -10.5t-10 -4 t-18.5 -0.5q-35 0 -57.5 20t-26.5 56q-34 -42 -83.5 -63.5t-100.5 -21.5q-72 0 -112 38.5t-40 104.5q0 125 161 140l174 17v47q0 49 -25.5 71t-86.5 22q-108 0 -115 -73q-2 -11 -14 -11h-55q-16 0 -14 15q8 144 200 144q107 0 154 -41.5t47 -125.5v-227q0 -31 15 -40z M221 63q98 0 155 77v82l-162 -16q-46 -4 -64 -21.5t-18 -47.5q0 -74 89 -74z" glyph-name="adieresis.aalt" horiz-adv-x="551"/><glyph d="M220 569l-56 115q-7 16 10 16h59q11 0 16 -12l55 -115q7 -16 -10 -16h-57q-10 0 -17 12zM482 68q12 -7 12 -16v-41q0 -7 -4.5 -10.5t-10 -4t-18.5 -0.5q-35 0 -57.5 20t-26.5 56q-34 -42 -83.5 -63.5t-100.5 -21.5q-72 0 -112 38.5t-40 104.5q0 125 161 140l174 17v47 q0 49 -25.5 71t-86.5 22q-108 0 -115 -73q-2 -11 -14 -11h-55q-16 0 -14 15q8 144 200 144q107 0 154 -41.5t47 -125.5v-227q0 -31 15 -40zM221 63q98 0 155 77v82l-162 -16q-46 -4 -64 -21.5t-18 -47.5q0 -74 89 -74z" glyph-name="agrave.aalt" horiz-adv-x="551"/><glyph d="M127 627q-14 0 -14 15v44q0 14 14 14h281q15 0 15 -14v-44q0 -15 -15 -15h-281zM482 68q12 -7 12 -16v-41q0 -7 -4.5 -10.5t-10 -4t-18.5 -0.5q-35 0 -57.5 20t-26.5 56q-34 -42 -83.5 -63.5t-100.5 -21.5q-72 0 -112 38.5t-40 104.5q0 125 161 140l174 17v47 q0 49 -25.5 71t-86.5 22q-108 0 -115 -73q-2 -11 -14 -11h-55q-16 0 -14 15q8 144 200 144q107 0 154 -41.5t47 -125.5v-227q0 -31 15 -40zM221 63q98 0 155 77v82l-162 -16q-46 -4 -64 -21.5t-18 -47.5q0 -74 89 -74z" glyph-name="amacron.aalt" horiz-adv-x="551"/><glyph d="M482 68q12 -7 12 -16v-41q0 -15 -27 -15q-43 -1 -71.5 -25t-28.5 -60q0 -31 22 -45t62 -6v-58q-20 -9 -47 -9t-52 9t-42.5 33t-17.5 58q0 46 30 79t75 50q-17 20 -20 50q-34 -42 -83.5 -63.5t-100.5 -21.5q-72 0 -112 38.5t-40 104.5q0 125 161 140l174 17v47 q0 49 -25.5 71t-86.5 22q-108 0 -115 -73q-2 -11 -14 -11h-55q-16 0 -14 15q8 144 200 144q107 0 154 -41.5t47 -125.5v-227q0 -31 15 -40zM221 63q98 0 155 77v82l-162 -16q-46 -4 -64 -21.5t-18 -47.5q0 -74 89 -74z" glyph-name="aogonek.aalt" horiz-adv-x="551"/><glyph d="M268 556q-37 0 -61.5 24t-24.5 60q0 35 24.5 59.5t61.5 24.5t62 -24.5t25 -59.5q0 -36 -25 -60t-62 -24zM268 667q-11 0 -19 -8t-8 -19t8 -19t19 -8q12 0 19.5 8t7.5 19t-7.5 19t-19.5 8zM482 68q12 -7 12 -16v-41q0 -7 -4.5 -10.5t-10 -4t-18.5 -0.5q-35 0 -57.5 20 t-26.5 56q-34 -42 -83.5 -63.5t-100.5 -21.5q-72 0 -112 38.5t-40 104.5q0 125 161 140l174 17v47q0 49 -25.5 71t-86.5 22q-108 0 -115 -73q-2 -11 -14 -11h-55q-16 0 -14 15q8 144 200 144q107 0 154 -41.5t47 -125.5v-227q0 -31 15 -40zM221 63q98 0 155 77v82l-162 -16 q-46 -4 -64 -21.5t-18 -47.5q0 -74 89 -74z" glyph-name="aring.aalt" horiz-adv-x="551"/><glyph d="M119 626q-11 0 -9 13q4 39 28.5 59.5t61.5 20.5q38 0 79.5 -33t65.5 -33q33 0 43 29q3 9 11 9h20q10 0 10 -10q-4 -40 -28.5 -61.5t-58.5 -21.5q-25 0 -47 10.5t-35.5 23t-31 23t-34.5 10.5q-33 0 -44 -30q-3 -9 -11 -9h-20zM482 68q12 -7 12 -16v-41q0 -7 -4.5 -10.5 t-10 -4t-18.5 -0.5q-35 0 -57.5 20t-26.5 56q-34 -42 -83.5 -63.5t-100.5 -21.5q-72 0 -112 38.5t-40 104.5q0 125 161 140l174 17v47q0 49 -25.5 71t-86.5 22q-108 0 -115 -73q-2 -11 -14 -11h-55q-16 0 -14 15q8 144 200 144q107 0 154 -41.5t47 -125.5v-227q0 -31 15 -40 zM221 63q98 0 155 77v82l-162 -16q-46 -4 -64 -21.5t-18 -47.5q0 -74 89 -74z" glyph-name="atilde.aalt" horiz-adv-x="551"/><glyph d="M306 490q15 0 15 -15v-45q0 -15 -15 -15h-80v-400q0 -15 -15 -15h-60q-15 0 -15 15v400h-80q-15 0 -15 15v45q0 15 15 15h80v135q0 15 15 15h60q15 0 15 -15v-135h80z" glyph-name="t.aalt" horiz-adv-x="363"/><glyph d="M368 708q119 0 192 -94.5t73 -266.5q0 -171 -73 -265.5t-192 -94.5t-192 94.5t-73 265.5q0 172 73 266.5t192 94.5zM368 624q-84 0 -130.5 -73.5t-46.5 -203.5q0 -129 46.5 -202t130.5 -73q85 0 131 73t46 202q0 130 -46 203.5t-131 73.5z" glyph-name="zero.tnum" horiz-adv-x="730"/><glyph d="M476 700q14 0 14 -14v-672q0 -14 -14 -14h-63q-13 0 -13 14v608h-110q-13 0 -13 14v50q0 14 13 14h186z" glyph-name="one.tnum" horiz-adv-x="730"/><glyph d="M536 78q14 0 14 -14v-50q0 -14 -14 -14h-372q-14 0 -14 14v51q0 12 7 19l215 249q30 34 43.5 51.5t30.5 53t17 68.5q0 52 -34.5 85.5t-90.5 33.5q-33 0 -60 -13.5t-40 -27.5t-28 -36q-10 -13 -20 -1l-37 35q-9 9 -1 22q67 104 192 104q93 0 150 -56t57 -139 q0 -42 -18 -85t-34 -64t-45 -54l-197 -232h279z" glyph-name="two.tnum" horiz-adv-x="730"/><glyph d="M338 -13q-129 0 -196 99q-7 11 3 20l39 36q10 10 18 -2q54 -69 133 -69q61 0 98.5 36.5t37.5 93.5q0 59 -40.5 95.5t-102.5 36.5h-20q-14 0 -14 13v49q0 13 14 13h20q54 0 85.5 32t31.5 80q0 46 -30.5 75.5t-79.5 29.5q-72 0 -114 -67q-8 -12 -19 -2l-38 36q-8 8 -2 18 q27 43 74 70.5t107 27.5q82 0 136 -49t54 -125q0 -54 -28 -94.5t-75 -63.5q59 -21 95.5 -68.5t36.5 -115.5q0 -89 -63 -147t-161 -58z" glyph-name="three.tnum" horiz-adv-x="730"/><glyph d="M588 235q13 0 13 -15v-48q0 -14 -13 -14h-70v-144q0 -14 -13 -14h-63q-14 0 -14 14v144h-282q-15 0 -15 15v54q0 10 4 16l287 447q7 10 17 10h65q14 0 14 -15v-450h70zM221 235h207v326z" glyph-name="four.tnum" horiz-adv-x="730"/><glyph d="M365 458q93 0 155.5 -65t62.5 -167q0 -107 -69 -173t-171 -66q-67 0 -118 28t-78 67q-8 14 3 21l43 34q11 8 21 -5q47 -61 128 -61q66 0 110.5 44t44.5 113q0 67 -43 109.5t-107 42.5q-76 0 -120 -56q-7 -10 -25 -4l-40 17q-13 5 -10 18l72 332q3 13 16 13h285 q13 0 13 -14v-50q0 -14 -13 -14h-232l-43 -196q49 32 115 32z" glyph-name="five.tnum" horiz-adv-x="730"/><glyph d="M377 452q98 0 164.5 -65t66.5 -165t-66.5 -167.5t-166.5 -67.5q-99 0 -166 67t-67 166q0 91 73 184l236 308q9 13 19 4l45 -37q10 -9 2 -19l-164 -209q8 1 24 1zM375 71q63 0 104 42.5t41 108.5t-41 108.5t-104 42.5t-104 -42.5t-41 -108.5t41 -108.5t104 -42.5z" glyph-name="six.tnum" horiz-adv-x="730"/><glyph d="M567 700q7 0 10 -5.5t0 -12.5l-272 -667q-7 -15 -17 -15h-61q-8 0 -11 5t1 12l252 605h-315q-12 0 -12 14v50q0 14 12 14h413z" glyph-name="seven.tnum" horiz-adv-x="730"/><glyph d="M366 -13q-96 0 -162 59t-66 152q0 69 37 119.5t94 72.5q-42 22 -65 60.5t-23 86.5q0 72 51 121.5t134 49.5q82 0 133.5 -49.5t51.5 -121.5q0 -47 -23.5 -86t-65.5 -61q57 -22 94 -72.5t37 -119.5q0 -93 -66 -152t-161 -59zM366 425q45 0 75 30.5t30 75.5t-29.5 74.5 t-75.5 29.5q-47 0 -76 -29.5t-29 -74.5t29.5 -75.5t75.5 -30.5zM366 69q60 0 99 37t39 97q0 61 -40.5 98.5t-97.5 37.5q-58 0 -98.5 -37.5t-40.5 -98.5q0 -59 39 -96.5t100 -37.5z" glyph-name="eight.tnum" horiz-adv-x="730"/><glyph d="M380 708q100 0 166.5 -67t66.5 -166q0 -90 -72 -184l-237 -308q-9 -13 -19 -4l-45 38q-9 8 -2 18l165 209q-8 -1 -25 -1q-98 0 -164.5 65t-66.5 165t66.5 167.5t166.5 67.5zM380 322q63 0 104 42.5t41 108.5t-41 109t-104 43t-104 -43t-41 -109t41 -108.5t104 -42.5z" glyph-name="nine.tnum" horiz-adv-x="730"/><glyph d="M146 263q48 0 77.5 -35t29.5 -91v-13q0 -56 -29.5 -91t-77.5 -35t-77 35t-29 91v13q0 56 29 91t77 35zM146 226q-29 0 -47.5 -23.5t-18.5 -65.5v-13q0 -42 18.5 -65.5t47.5 -23.5t48 23.5t19 65.5v13q0 42 -19 65.5t-48 23.5z" glyph-name="zero.dnom" horiz-adv-x="293"/><glyph d="M109 261v-261h-40v223h-29v38h69z" glyph-name="one.dnom" horiz-adv-x="154"/><glyph d="M125 264q41 0 64 -21.5t23 -53.5q0 -7 -1 -13t-3.5 -12t-4.5 -10.5t-7.5 -12t-8 -11t-11 -12l-11.5 -11.5t-14 -13.5t-15 -14.5l-44 -41h120v-38h-170v38l68 65l19 19t16.5 16t11.5 12t9 13t4 11.5t2 13.5q0 20 -13.5 30.5t-33.5 10.5q-19 0 -32 -11.5t-13 -34.5v-14h-40 v14q0 37 23 59t62 22z" glyph-name="two.dnom" horiz-adv-x="253"/><glyph d="M130 263q40 0 62.5 -19t22.5 -49q0 -38 -39 -56q50 -17 50 -65q0 -35 -25.5 -56.5t-68.5 -21.5q-46 0 -69 23.5t-23 61.5h39q0 -22 13.5 -36t39.5 -14q23 0 38 11.5t15 31.5q0 26 -18.5 35.5t-54.5 9.5v31q63 0 63 42q0 36 -45 36q-46 0 -46 -48h-39q-1 39 21 61t64 22z " glyph-name="three.dnom" horiz-adv-x="266"/><glyph d="M202 261v-164h27v-38h-27v-59h-40v59h-137l137 202h40zM162 204l-71 -107h71v107z" glyph-name="four.dnom" horiz-adv-x="269"/><glyph d="M205 261v-38h-107l-8 -59q16 16 48 16q39 0 64.5 -25t25.5 -66t-27 -67t-70 -26q-36 0 -60.5 18t-30.5 44l35 16q4 -18 19 -30t37 -12q25 0 41 15.5t16 41.5q0 25 -15.5 40t-40.5 15q-33 0 -51 -28l-33 11l18 134h139z" glyph-name="five.dnom" horiz-adv-x="268"/><glyph d="M194 261l-76 -99q6 3 16 3q34 0 58.5 -24.5t24.5 -60.5t-25 -60t-63 -24t-63.5 24.5t-25.5 59.5q0 21 8.5 41t14.5 28.5t25 32.5l61 79h45zM128 131q-21 0 -35 -14.5t-14 -35.5q0 -22 14 -36t35 -14q22 0 36 14t14 36q0 21 -14 35.5t-36 14.5z" glyph-name="six.dnom" horiz-adv-x="257"/><glyph d="M209 261l-109 -261h-43l96 223h-113v38h169z" glyph-name="seven.dnom" horiz-adv-x="244"/><glyph d="M128 -4q-37 0 -62.5 21.5t-25.5 56.5q0 48 43 69q-29 19 -29 54q0 27 19.5 46.5t54.5 19.5t55 -19.5t20 -46.5q0 -35 -29 -54q43 -21 43 -69q0 -36 -26 -57t-63 -21zM128 160q18 0 28.5 10t10.5 25t-10.5 25t-28.5 10t-28 -10t-10 -25t10.5 -25t27.5 -10zM128 29 q22 0 36.5 13t14.5 34q0 22 -14.5 35.5t-36.5 13.5q-21 0 -35.5 -13.5t-14.5 -35.5q0 -21 14.5 -34t35.5 -13z" glyph-name="eight.dnom" horiz-adv-x="257"/><glyph d="M63 -1l76 100q-5 -4 -16 -4q-33 0 -58 24.5t-25 60.5t25 60t63 24t63.5 -24t25.5 -60q0 -20 -8.5 -40.5t-14 -28.5t-24.5 -33l-62 -79h-45zM129 130q21 0 35 14t14 35q0 22 -14 36t-35 14t-35.5 -14t-14.5 -36q0 -21 14.5 -35t35.5 -14z" glyph-name="nine.dnom" horiz-adv-x="257"/><glyph d="M146 703q48 0 77.5 -35t29.5 -91v-13q0 -56 -29.5 -91t-77.5 -35t-77 35t-29 91v13q0 56 29 91t77 35zM146 666q-29 0 -47.5 -23.5t-18.5 -65.5v-13q0 -42 18.5 -65.5t47.5 -23.5t48 23.5t19 65.5v13q0 42 -19 65.5t-48 23.5z" glyph-name="zero.numr" horiz-adv-x="293"/><glyph d="M109 701v-261h-40v223h-29v38h69z" glyph-name="one.numr" horiz-adv-x="154"/><glyph d="M125 704q41 0 64 -21.5t23 -53.5q0 -7 -1 -13t-3.5 -12t-4.5 -10.5t-7.5 -12t-8 -11t-11 -12l-11.5 -11.5t-14 -13.5t-15 -14.5l-44 -41h120v-38h-170v38l68 65l19 19t16.5 16t11.5 12t9 13t4 11.5t2 13.5q0 20 -13.5 30.5t-33.5 10.5q-19 0 -32 -11.5t-13 -34.5v-14h-40 v14q0 37 23 59t62 22z" glyph-name="two.numr" horiz-adv-x="253"/><glyph d="M130 703q40 0 62.5 -19t22.5 -49q0 -38 -39 -56q50 -17 50 -65q0 -35 -25.5 -56.5t-68.5 -21.5q-46 0 -69 23.5t-23 61.5h39q0 -22 13.5 -36t39.5 -14q23 0 38 11.5t15 31.5q0 26 -18.5 35.5t-54.5 9.5v31q63 0 63 42q0 36 -45 36q-46 0 -46 -48h-39q-1 39 21 61t64 22z " glyph-name="three.numr" horiz-adv-x="266"/><glyph d="M202 701v-164h27v-38h-27v-59h-40v59h-137l137 202h40zM162 644l-71 -107h71v107z" glyph-name="four.numr" horiz-adv-x="269"/><glyph d="M205 701v-38h-107l-8 -59q16 16 48 16q39 0 64.5 -25t25.5 -66t-27 -67t-70 -26q-36 0 -60.5 18t-30.5 44l35 16q4 -18 19 -30t37 -12q25 0 41 15.5t16 41.5q0 25 -15.5 40t-40.5 15q-33 0 -51 -28l-33 11l18 134h139z" glyph-name="five.numr" horiz-adv-x="268"/><glyph d="M194 701l-76 -99q6 3 16 3q34 0 58.5 -24.5t24.5 -60.5t-25 -60t-63 -24t-63.5 24.5t-25.5 59.5q0 21 8.5 41t14.5 28.5t25 32.5l61 79h45zM128 571q-21 0 -35 -14.5t-14 -35.5q0 -22 14 -36t35 -14q22 0 36 14t14 36q0 21 -14 35.5t-36 14.5z" glyph-name="six.numr" horiz-adv-x="257"/><glyph d="M209 701l-109 -261h-43l96 223h-113v38h169z" glyph-name="seven.numr" horiz-adv-x="244"/><glyph d="M128 436q-37 0 -62.5 21.5t-25.5 56.5q0 48 43 69q-29 19 -29 54q0 27 19.5 46.5t54.5 19.5t55 -19.5t20 -46.5q0 -35 -29 -54q43 -21 43 -69q0 -36 -26 -57t-63 -21zM128 600q18 0 28.5 10t10.5 25t-10.5 25t-28.5 10t-28 -10t-10 -25t10.5 -25t27.5 -10zM128 469 q22 0 36.5 13t14.5 34q0 22 -14.5 35.5t-36.5 13.5q-21 0 -35.5 -13.5t-14.5 -35.5q0 -21 14.5 -34t35.5 -13z" glyph-name="eight.numr" horiz-adv-x="257"/><glyph d="M63 439l76 100q-5 -4 -16 -4q-33 0 -58 24.5t-25 60.5t25 60t63 24t63.5 -24t25.5 -60q0 -20 -8.5 -40.5t-14 -28.5t-24.5 -33l-62 -79h-45zM129 570q21 0 35 14t14 35q0 22 -14 36t-35 14t-35.5 -14t-14.5 -36q0 -21 14.5 -35t35.5 -14z" glyph-name="nine.numr" horiz-adv-x="257"/><glyph d="M312 745q-17 0 -10 16l55 115q7 12 17 12h58q18 0 10 -17l-56 -114q-5 -12 -16 -12h-58zM638 17q7 -17 -12 -17h-68q-12 0 -16 12l-46 134h-306l-46 -134q-4 -12 -17 -12h-68q-18 0 -11 17l240 671q4 12 18 12h73q15 0 19 -12zM219 229h248l-124 357z" glyph-name="glyph499" horiz-adv-x="663"/><glyph d="M363 888q18 0 9 -17l-56 -114q-5 -12 -16 -12h-58q-17 0 -10 16l56 115q5 12 16 12h59zM96 0q-15 0 -15 14v672q0 14 15 14h340q15 0 15 -14v-55q0 -14 -15 -14h-261v-216h248q14 0 14 -14v-55q0 -14 -14 -14h-248v-234h262q14 0 14 -15v-55q0 -14 -14 -14h-341z" glyph-name="glyph500" horiz-adv-x="508"/><glyph d="M317 745q-18 0 -9 16l55 115q5 12 16 12h59q18 0 10 -17l-57 -114q-5 -12 -16 -12h-58zM581 700q14 0 14 -14v-672q0 -14 -14 -14h-65q-14 0 -14 14v547l-306 -551q-6 -10 -18 -10h-82q-15 0 -15 14v672q0 14 15 14h65q14 0 14 -14v-545l305 549q6 10 18 10h83z" glyph-name="glyph501" horiz-adv-x="666"/><glyph d="M509 888q18 0 10 -17l-56 -114q-5 -12 -16 -12h-58q-17 0 -10 16l55 115q7 12 17 12h58zM420 -13q-151 0 -255 104.5t-104 255.5q0 152 104 256.5t255 104.5q150 0 254 -104.5t104 -256.5q0 -151 -104 -255.5t-254 -104.5zM420 78q113 0 188.5 77t75.5 192t-75.5 192.5 t-188.5 77.5t-188.5 -77.5t-75.5 -192.5t75.5 -192t188.5 -77z" glyph-name="glyph502" horiz-adv-x="816"/><glyph d="M307 745q-17 0 -10 16l55 115q5 12 16 12h59q18 0 10 -17l-56 -114q-7 -12 -17 -12h-57zM600 700q9 0 12 -5t-2 -13l-399 -672q-6 -10 -17 -10h-69q-19 0 -9 18l165 278l-232 386q-5 8 -2 13t12 5h68q12 0 18 -10l185 -310l184 310q6 10 18 10h68z" glyph-name="glyph503" horiz-adv-x="652"/><glyph d="M501 888q18 0 9 -17l-56 -114q-5 -12 -16 -12h-58q-17 0 -10 16l56 115q5 12 16 12h59zM96 700h65q14 0 14 -14v-245h117q113 0 174 -60.5t61 -160.5q0 -99 -61 -159.5t-174 -60.5h-196q-15 0 -15 14v672q0 14 15 14zM615 0q-15 0 -15 14v672q0 14 15 14h65q14 0 14 -14 v-672q0 -14 -14 -14h-65zM175 357v-273h111q150 0 150 136q0 72 -41 104.5t-109 32.5h-111z" glyph-name="glyph504" horiz-adv-x="795"/><glyph d="M332 745q-18 0 -9 16l55 115q5 12 16 12h59q18 0 10 -17l-57 -114q-5 -12 -16 -12h-58zM308 708q152 0 254 -104t102 -257t-102 -256.5t-254 -103.5q-139 0 -239 94q-13 13 -3 22l41 44q9 9 21 -1q78 -68 178 -68q102 0 174.5 64t86.5 166h-251q-14 0 -14 14v56 q0 15 14 15h250q-15 99 -87 161.5t-173 62.5q-100 0 -178 -68q-12 -10 -22 0l-40 43q-9 11 3 23q101 93 239 93z" glyph-name="glyph505" horiz-adv-x="693"/><glyph d="M481 745q-17 0 -10 16l55 115q5 12 16 12h59q18 0 10 -17l-56 -114q-7 -12 -17 -12h-57zM613 708q151 0 255 -104.5t104 -256.5q0 -151 -104 -255.5t-255 -104.5q-140 0 -241 91.5t-115 229.5h-82v-294q0 -14 -14 -14h-65q-15 0 -15 14v672q0 14 15 14h65q14 0 14 -14 v-293h83q17 136 117 225.5t238 89.5zM613 78q113 0 188.5 77t75.5 192q0 116 -75.5 193t-188.5 77t-188 -77.5t-75 -192.5t75.5 -192t187.5 -77z" glyph-name="glyph506" horiz-adv-x="1010"/><glyph d="M279 745q-17 0 -10 16l55 115q5 12 16 12h59q18 0 10 -17l-56 -114q-7 -12 -17 -12h-57zM490 700q14 0 14 -14v-672q0 -14 -14 -14h-65q-15 0 -15 14v246h-95l-164 -250q-6 -10 -18 -10h-69q-21 0 -10 18l167 250q-79 18 -120.5 74t-41.5 138q0 100 60.5 160t173.5 60 h197zM410 343v274h-111q-68 0 -109 -32.5t-41 -104.5t41 -104.5t109 -32.5h111z" glyph-name="glyph507" horiz-adv-x="572"/><glyph d="M277 535q-17 0 -10 16l56 115q5 12 16 12h59q18 0 9 -17l-56 -114q-5 -12 -16 -12h-58zM539 490q14 0 14 -14v-462q0 -14 -14 -14h-58q-13 0 -13 14l-2 74q-56 -100 -181 -100q-105 0 -172 73t-67 184q0 110 67 183.5t172 73.5q124 0 181 -101l2 75q0 14 13 14h58z M301 71q72 0 117.5 47.5t45.5 125.5t-45.5 126.5t-117.5 48.5q-73 0 -120 -48.5t-47 -125.5t47 -125.5t120 -48.5z" glyph-name="glyph508" horiz-adv-x="599"/><glyph d="M275 565q-17 0 -10 16l55 115q5 12 16 12h59q18 0 10 -17l-56 -114q-7 -12 -17 -12h-57zM525 270q0 -31 -8.5 -44.5t-32.5 -13.5h-350q9 -68 56 -109t126 -41q74 0 133 42q10 7 16 -1l22 -31q9 -10 -4 -21q-65 -63 -175 -63q-118 0 -190 74t-72 185q0 109 69.5 182 t178.5 73q105 0 168 -68.5t63 -163.5zM294 425q-65 0 -109 -39.5t-52 -106.5h312q-4 66 -44.5 106t-106.5 40z" glyph-name="glyph509" horiz-adv-x="559"/><glyph d="M275 535q-17 0 -10 16l56 115q5 12 16 12h59q18 0 9 -17l-56 -114q-5 -12 -16 -12h-58zM502 490q13 0 13 -14v-462q0 -14 -13 -14h-63q-14 0 -14 14v363l-239 -367q-7 -10 -19 -10h-82q-14 0 -14 14v462q0 14 14 14h63q14 0 14 -14v-367l242 371q7 10 19 10h79z" glyph-name="glyph510" horiz-adv-x="579"/><glyph d="M393 678q18 0 10 -17l-56 -114q-5 -12 -16 -12h-58q-17 0 -10 16l55 115q7 12 17 12h58zM299 -12q-108 0 -180.5 73.5t-72.5 183.5t72.5 183.5t180.5 73.5t180 -73.5t72 -183.5t-72 -183.5t-180 -73.5zM299 72q71 0 118 48.5t47 124.5q0 77 -47 125.5t-118 48.5 q-72 0 -118.5 -48.5t-46.5 -125.5t46.5 -125t118.5 -48z" glyph-name="glyph511" horiz-adv-x="585"/><glyph d="M371 678q18 0 9 -17l-56 -114q-5 -12 -16 -12h-58q-17 0 -10 16l56 115q5 12 16 12h59zM172 -190q-17 0 -10 15l69 173l-188 475q-6 17 11 17h64q12 0 16 -12l142 -376l142 376q5 12 17 12h63q18 0 12 -17l-259 -651q-4 -12 -17 -12h-62z" glyph-name="glyph512" horiz-adv-x="538"/><glyph d="M352 535q-17 0 -10 16l56 115q5 12 16 12h59q18 0 9 -17l-56 -114q-5 -12 -16 -12h-58zM330 328q180 0 180 -164t-180 -164h-245q-14 0 -14 14v462q0 14 14 14h63q14 0 14 -14v-148h168zM662 490q13 0 13 -14v-462q0 -14 -13 -14h-64q-13 0 -13 14v462q0 14 13 14h64z M321 74q102 0 102 90t-102 90h-159v-180h159z" glyph-name="glyph513" horiz-adv-x="751"/><glyph d="M245 535q-17 0 -10 16l56 115q5 12 16 12h59q18 0 9 -17l-56 -114q-5 -12 -16 -12h-58zM237 502q109 0 182.5 -73t73.5 -183t-73.5 -184t-182.5 -74q-118 0 -186 84q-9 11 0 20l35 34q11 11 24 -2q49 -52 122 -52q66 0 112.5 38t57.5 100h-178q-14 0 -14 14v40 q0 14 14 14h178q-10 63 -56 102t-112 39q-73 0 -124 -54q-12 -12 -23 0l-35 33q-9 9 0 21q68 83 185 83z" glyph-name="glyph514" horiz-adv-x="524"/><glyph d="M362 535q-17 0 -10 16l55 115q5 12 16 12h59q18 0 10 -17l-56 -114q-7 -12 -17 -12h-57zM487 502q108 0 180 -73.5t72 -183.5t-72 -183.5t-180 -73.5q-98 0 -167.5 61.5t-82.5 157.5h-75v-194q0 -14 -14 -14h-63q-14 0 -14 14v462q0 14 14 14h63q14 0 14 -14v-193h74 q13 96 83 158t168 62zM487 72q71 0 118 48.5t47 124.5q0 77 -47 125.5t-118 48.5q-72 0 -118.5 -48.5t-46.5 -125.5t46.5 -125t118.5 -48z" glyph-name="glyph515" horiz-adv-x="763"/><glyph d="M249 535q-17 0 -10 16l55 115q7 12 17 12h58q18 0 10 -17l-56 -114q-5 -12 -16 -12h-58zM473 490q13 0 13 -14v-462q0 -14 -13 -14h-64q-13 0 -13 14v149h-112l-135 -155q-7 -8 -17 -8h-67q-10 0 -12 5t5 13l131 147q-142 17 -142 161q0 164 180 164h246zM236 236h160 v180h-160q-102 0 -102 -90t102 -90z" glyph-name="glyph516" horiz-adv-x="545"/></font>
</defs>
</svg>
