<?xml version="1.0" standalone="no"?>
<!DOCTYPE svg PUBLIC "-//W3C//DTD SVG 1.1//EN" "http://www.w3.org/Graphics/SVG/1.1/DTD/svg11.dtd">
<svg xmlns="http://www.w3.org/2000/svg"><metadata>This SVG WebFont was generated by YouWorkForThem.
Copyright Â© 2018 by Connary Fagen. All rights reserved.</metadata><defs><font horiz-adv-x="626" id="ywftsvg"><font-face ascent="800" bbox="-160 -243.025 1071 928" cap-height="700" descent="-200" font-family="" font-stretch="normal" font-weight="400" panose-1="0 0 5 0 0 0 0 0 0 0" underline-position="0" underline-thickness="0" unicode-range="U+0020-FEFF" units-per-em="1000" x-height="490"/><missing-glyph d="M406 800v-990h-314v990h314zM330 734h-164v-33h65v-37h-66v-32h165v32h-66v37h66v33zM264 606h-99v-103h165v34h-66v69zM231 572v-35h-33v35h33zM330 476h-165v-32h66v-37h-66v-33h99v70h66v32zM330 417h-33v-65h-132v-34h165v99zM330 296h-99v-55h33v22h33v-46h-99v79 h-33v-112h165v112zM330 125h-165v-112h165v112zM297 92v-46h-99v46h99zM330 -10h-165v-32h70l-70 -47v-33h165v33h-101l69 47h32v32z" horiz-adv-x="495"/><glyph d="M406 800v-990h-314v990h314zM330 734h-164v-33h65v-37h-66v-32h165v32h-66v37h66v33zM264 606h-99v-103h165v34h-66v69zM231 572v-35h-33v35h33zM330 476h-165v-32h66v-37h-66v-33h99v70h66v32zM330 417h-33v-65h-132v-34h165v99zM330 296h-99v-55h33v22h33v-46h-99v79 h-33v-112h165v112zM330 125h-165v-112h165v112zM297 92v-46h-99v46h99zM330 -10h-165v-32h70l-70 -47v-33h165v33h-101l69 47h32v32z" glyph-name=".notdef" horiz-adv-x="495"/><glyph glyph-name="glyph1" horiz-adv-x="0"/><glyph glyph-name="glyph2" horiz-adv-x="333"/><glyph glyph-name="space" horiz-adv-x="200" unicode=" "/><glyph d="M96 188q-13 0 -13 14l-9 484q0 14 13 14h51q12 0 12 -14l-8 -484q0 -14 -13 -14h-33zM112 -13q-21 0 -36.5 15t-15.5 37q0 21 15.5 36t36.5 15t36 -15t15 -36q0 -22 -15 -37t-36 -15z" glyph-name="exclam" horiz-adv-x="224" unicode="!"/><glyph d="M99 700q14 0 14 -14l-6 -193q0 -13 -13 -13h-30q-13 0 -13 13l-6 193q0 14 14 14h40zM206 700q14 0 14 -14l-5 -193q0 -13 -13 -13h-31q-12 0 -12 13l-6 193q0 14 14 14h39z" glyph-name="quotedbl" horiz-adv-x="266" unicode="&quot;"/><glyph d="M596 487q14 0 11 -13l-4 -20q-3 -13 -15 -13h-90l-48 -182h86q14 0 11 -13l-5 -20q-3 -13 -15 -13h-89l-53 -201q-3 -12 -16 -12h-21q-15 0 -10 17l52 196h-184l-53 -201q-3 -12 -16 -12h-21q-15 0 -10 17l52 196h-86q-14 0 -11 13l5 20q3 13 15 13h89l48 182h-85 q-14 0 -11 13l4 20q3 13 15 13h89l53 201q3 12 16 12h21q15 0 10 -17l-52 -196h184l53 201q3 12 16 12h21q15 0 10 -17l-52 -196h86zM402 259l48 182h-184l-48 -182h184z" glyph-name="numbersign" horiz-adv-x="669" unicode="#"/><glyph d="M387 234q0 -58 -38.5 -94.5t-98.5 -44.5v-82q0 -13 -13 -13h-29q-13 0 -13 13v81q-83 9 -134 73q-11 12 -2 25l16 21q9 12 22 -1q54 -56 121 -56q44 0 71 20.5t27 57.5q0 32 -19.5 51.5t-57.5 35.5l-58 24q-110 46 -110 131q0 53 35 87.5t89 41.5v82q0 13 13 13h29 q13 0 13 -13v-82q69 -11 114 -65q9 -10 -1 -22l-16 -19q-11 -13 -24 0q-46 47 -100 47q-35 0 -59 -17.5t-24 -50.5q0 -32 19.5 -50t63.5 -36l48 -19q55 -22 85.5 -54t30.5 -85z" glyph-name="dollar" horiz-adv-x="442" unicode="$"/><glyph d="M187 434q-57 0 -97 39t-40 96t40 96.5t97 39.5t97 -39.5t40 -96.5t-40 -96t-97 -39zM149 4l-24 16q-10 8 -3 19l439 652q8 13 18 5l24 -16q10 -8 3 -19l-439 -652q-8 -13 -18 -5zM187 485q36 0 60 24t24 60q0 37 -24 61t-60 24t-60 -24t-24 -61q0 -36 24 -60t60 -24z M541 -5q-57 0 -97 39t-40 96t40 96.5t97 39.5t97 -39.5t40 -96.5t-40 -96t-97 -39zM541 46q36 0 60 24t24 60q0 37 -24 61t-60 24t-60 -24t-24 -61q0 -36 24 -60t60 -24z" glyph-name="percent" horiz-adv-x="728" unicode="%"/><glyph d="M622 41q9 -11 -1 -21l-24 -23q-11 -11 -21 0l-97 107q-93 -117 -222 -117q-90 0 -148 51.5t-58 142.5q0 73 39 121.5t121 100.5q-42 48 -63 83.5t-21 77.5q0 59 42 99.5t110 40.5q67 0 109 -40.5t42 -99.5q0 -52 -31 -92t-92 -80l166 -185l68 109q6 9 12 9h51q5 0 7 -3.5 t-1 -9.5l-93 -153v-1zM279 642q-37 0 -60 -22t-23 -58q0 -53 69 -124l2 1q49 33 72 59.5t23 61.5q0 37 -23.5 59.5t-59.5 22.5zM266 53q95 0 170 99l-183 203l-15 -10q-28 -19 -44.5 -32t-34 -32.5t-25.5 -42.5t-8 -51q0 -64 40.5 -99t99.5 -35z" glyph-name="ampersand" horiz-adv-x="671" unicode="&amp;"/><glyph d="M99 700q14 0 14 -14l-6 -193q0 -13 -13 -13h-30q-13 0 -13 13l-6 193q0 14 14 14h40z" glyph-name="quotesingle" horiz-adv-x="158" unicode="'"/><glyph d="M216 745q19 0 11 -18q-94 -179 -94 -407q0 -242 94 -432q8 -18 -11 -18h-39q-12 0 -18 10q-99 174 -99 440q0 110 25.5 220.5t73.5 194.5q6 10 18 10h39z" glyph-name="parenleft" horiz-adv-x="289" unicode="("/><glyph d="M73 745h39q12 0 18 -10q48 -84 73.5 -194.5t25.5 -220.5q0 -266 -99 -440q-6 -10 -18 -10h-39q-19 0 -11 18q94 190 94 432q0 228 -94 407q-8 18 11 18z" glyph-name="parenright" horiz-adv-x="289" unicode=")"/><glyph d="M202 582l-5 118h45l-4 -118h-36zM190 544l-115 31l11 43l116 -36zM250 544l-12 38l117 36l11 -43zM154 421l-37 25l73 98l30 -24zM287 421l-67 99l30 24l74 -98z" glyph-name="asterisk" horiz-adv-x="441" unicode="*"/><glyph d="M352 315q14 0 14 -14v-34q0 -14 -14 -14h-105v-106q0 -14 -14 -14h-34q-14 0 -14 14v106h-106q-14 0 -14 14v34q0 14 14 14h106v105q0 14 14 14h34q14 0 14 -14v-105h105z" glyph-name="plus" horiz-adv-x="431" unicode="+"/><glyph d="M45 -125v27q45 1 65 41q14 29 0 40q-3 2 -8 2q-25 -1 -40.5 13.5t-15.5 37.5t16.5 38.5t39.5 15.5q28 0 47.5 -23.5t19.5 -61.5q0 -52 -35 -91.5t-89 -38.5z" glyph-name="comma" horiz-adv-x="214" unicode=","/><glyph d="M367 314q13 0 13 -13v-37q0 -13 -13 -13h-299q-13 0 -13 13v37q0 13 13 13h299z" glyph-name="hyphen" horiz-adv-x="435" unicode="-"/><glyph d="M97 -13q-21 0 -36.5 15t-15.5 37q0 21 15.5 36t36.5 15t36 -15t15 -36q0 -22 -15 -37t-36 -15z" glyph-name="period" horiz-adv-x="194" unicode="."/><glyph d="M408 745q17 0 11 -17l-323 -846q-4 -12 -17 -12h-46q-17 0 -11 17l323 846q5 12 17 12h46z" glyph-name="slash" horiz-adv-x="441" unicode="/"/><glyph d="M309 708q120 0 189.5 -95.5t69.5 -265.5q0 -169 -69.5 -264.5t-189.5 -95.5q-119 0 -189 95.5t-70 264.5q0 170 70 265.5t189 95.5zM309 640q-88 0 -138 -77t-50 -216q0 -138 50 -215t138 -77q89 0 138.5 77t49.5 215q0 139 -49.5 216t-138.5 77z" glyph-name="zero" horiz-adv-x="619" unicode="0"/><glyph d="M219 700q13 0 13 -14v-672q0 -14 -13 -14h-46q-13 0 -13 14v622h-108q-12 0 -12 14v36q0 14 12 14h167z" glyph-name="one" horiz-adv-x="297" unicode="1"/><glyph d="M419 64q14 0 14 -14v-36q0 -14 -14 -14h-360q-14 0 -14 14v38q0 12 7 19l217 260q30 35 45.5 55t32 56.5t16.5 70.5q0 56 -36.5 92t-96.5 36q-35 0 -63.5 -14t-42 -29t-27.5 -37q-8 -13 -19 -2l-28 26q-9 9 -1 22q66 101 185 101q90 0 145 -55t55 -135q0 -41 -18 -83.5 t-33.5 -64t-46.5 -58.5l-206 -248h289z" glyph-name="two" horiz-adv-x="500" unicode="2"/><glyph d="M234 -13q-124 0 -191 97q-7 10 3 18l30 27q8 9 16 -2q55 -73 141 -73q66 0 107 40t41 103q0 67 -45.5 106.5t-111.5 39.5h-17q-14 0 -14 11v37q0 13 14 13h17q58 0 93.5 35.5t35.5 87.5q0 50 -32.5 82t-85.5 32q-77 0 -121 -71q-8 -11 -19 -2l-29 27q-6 6 0 17 q26 42 71.5 69t103.5 27q79 0 130.5 -48.5t51.5 -121.5q0 -109 -105 -161q61 -20 98.5 -68.5t37.5 -117.5q0 -88 -62 -146t-158 -58z" glyph-name="three" horiz-adv-x="504" unicode="3"/><glyph d="M489 229q12 0 12 -14v-35q0 -14 -12 -14h-74v-152q0 -14 -13 -14h-46q-13 0 -13 14v152h-283q-15 0 -15 15v41q0 9 4 15l288 453q7 10 17 10h47q14 0 14 -15v-456h74zM119 229h224v355z" glyph-name="four" horiz-adv-x="546" unicode="4"/><glyph d="M269 455q92 0 155 -64t63 -166q0 -107 -68 -172.5t-167 -65.5q-65 0 -115 27t-77 64q-9 13 1 20l33 26q9 8 19 -5q55 -65 138 -65q71 0 119 48t48 124q0 73 -46.5 119t-114.5 46q-84 0 -132 -62q-7 -10 -25 -3l-27 11q-13 5 -10 18l71 332q3 13 16 13h279q12 0 12 -14 v-36q0 -14 -12 -14h-240l-46 -221q50 40 126 40z" glyph-name="five" horiz-adv-x="538" unicode="5"/><glyph d="M282 446q94 0 158.5 -64.5t64.5 -161.5q0 -99 -64.5 -166t-162.5 -67t-162.5 66.5t-64.5 164.5q0 87 67 175l241 319q9 13 19 4l34 -27q9 -8 1 -18l-178 -230q25 5 47 5zM278 54q67 0 112 46t45 118q0 73 -44.5 118t-112.5 45t-112.5 -45t-44.5 -118q0 -72 45 -118 t112 -46z" glyph-name="six" horiz-adv-x="556" unicode="6"/><glyph d="M458 700q7 0 10 -5.5t0 -12.5l-276 -667q-7 -15 -17 -15h-44q-17 0 -10 17l260 619h-329q-12 0 -12 14v36q0 14 12 14h406z" glyph-name="seven" horiz-adv-x="499" unicode="7"/><glyph d="M271 -13q-94 0 -157.5 58.5t-63.5 148.5q0 71 39 122.5t97 71.5q-45 21 -70 61t-25 89q0 71 50 120.5t130 49.5t130 -49.5t50 -120.5q0 -49 -25 -89t-70 -61q58 -20 97 -71.5t39 -122.5q0 -90 -63.5 -148.5t-157.5 -58.5zM271 417q51 0 83.5 33.5t32.5 84.5 q0 50 -32 81.5t-84 31.5t-84 -31.5t-32 -81.5q0 -51 32.5 -84.5t83.5 -33.5zM271 52q67 0 109 40.5t42 105.5t-43.5 106.5t-107.5 41.5q-63 0 -107 -41.5t-44 -106.5q0 -64 42.5 -105t108.5 -41z" glyph-name="eight" horiz-adv-x="542" unicode="8"/><glyph d="M278 708q98 0 162.5 -66.5t64.5 -164.5q0 -87 -67 -175l-241 -319q-9 -13 -19 -4l-34 27q-9 8 -1 18l178 230q-25 -5 -48 -5q-94 0 -158 64.5t-64 161.5q0 99 64.5 166t162.5 67zM278 314q68 0 112.5 45t44.5 118q0 72 -45 118t-112 46t-112 -46t-45 -118 q0 -73 44.5 -118t112.5 -45z" glyph-name="nine" horiz-adv-x="556" unicode="9"/><glyph d="M97 399q-21 0 -36.5 15t-15.5 36q0 22 15.5 37t36.5 15t36 -15t15 -37t-15 -36.5t-36 -14.5zM97 -12q-21 0 -36.5 15t-15.5 37q0 21 15.5 36t36.5 15t36 -15t15 -36q0 -22 -15 -37t-36 -15z" glyph-name="colon" horiz-adv-x="194" unicode=":"/><glyph d="M98 399q-21 0 -36.5 15t-15.5 36q0 22 15.5 37t36.5 15t36 -15t15 -37t-15 -36.5t-36 -14.5zM45 -125v27q45 1 65 41q14 29 0 40q-3 2 -8 2q-25 -1 -40.5 13.5t-15.5 37.5t16.5 38.5t39.5 15.5q28 0 47.5 -23.5t19.5 -61.5q0 -52 -35 -91.5t-89 -38.5z" glyph-name="semicolon" horiz-adv-x="214" unicode=";"/><glyph d="M439 19l-368 196q-11 5 -11 18v33q0 12 11 18l368 197q7 5 12.5 2t5.5 -11v-39q0 -11 -11 -16l-322 -167l322 -167q11 -6 11 -16v-39q0 -8 -5.5 -11t-12.5 2z" glyph-name="less" horiz-adv-x="517" unicode="&lt;"/><glyph d="M79 317q-14 0 -14 14v34q0 14 14 14h293q14 0 14 -14v-34q0 -14 -14 -14h-293zM79 190q-14 0 -14 14v34q0 14 14 14h293q14 0 14 -14v-34q0 -14 -14 -14h-293z" glyph-name="equal" horiz-adv-x="451" unicode="="/><glyph d="M78 19q-8 -5 -13 -2t-5 11v39q0 10 11 16l322 167l-322 167q-11 5 -11 16v39q0 8 5 11t13 -2l368 -197q11 -6 11 -18v-33q0 -13 -11 -18z" glyph-name="greater" horiz-adv-x="517" unicode=">"/><glyph d="M192 181q-13 0 -13 15v37q0 46 15.5 83t37.5 60.5t44 45.5t37.5 50t15.5 61q0 51 -31 78t-80 27q-88 0 -126 -91q-6 -11 -23 -1l-23 14q-14 9 -9 22q17 51 65 88.5t122 37.5q77 0 127 -43.5t50 -119.5q0 -42 -16 -76t-38.5 -58.5t-45.5 -49t-39.5 -57.5t-17.5 -73l-1 -35 q0 -15 -13 -15h-38zM211 -13q-21 0 -36 15t-15 37q0 21 15 36t36 15q22 0 37 -15t15 -36q0 -22 -15 -37t-37 -15z" glyph-name="question" horiz-adv-x="451" unicode="?"/><glyph d="M431 708q147 0 250 -98t103 -258q0 -104 -42.5 -148.5t-100.5 -44.5q-73 0 -92 63q-50 -63 -135 -63q-80 0 -131 53.5t-51 131.5t51 131.5t131 53.5q91 0 140 -70l16 51h42l-22 -221q-7 -75 53 -75q78 0 78 131q0 145 -85.5 223.5t-203.5 78.5q-77 0 -144.5 -32 t-113 -102t-45.5 -164q0 -139 92 -220t211 -81q91 0 156 49l38 -44q-77 -66 -198 -66q-147 0 -254.5 101t-107.5 261q0 108 53 191.5t135 125.5t177 42zM415 215q58 0 92.5 36.5t34.5 92.5t-34.5 92.5t-92.5 36.5q-57 0 -91 -36.5t-34 -92.5t34 -92.5t91 -36.5z" glyph-name="at" horiz-adv-x="849" unicode="@"/><glyph d="M629 17q7 -17 -11 -17h-50q-12 0 -16 12l-51 145h-320l-51 -145q-4 -12 -17 -12h-49q-18 0 -11 17l242 671q5 12 18 12h55q14 0 18 -12zM205 224h272l-136 387z" glyph-name="A" horiz-adv-x="681" unicode="A"/><glyph d="M100 0q-14 0 -14 14v672q0 14 14 14h202q98 0 144 -49t46 -120q0 -51 -25.5 -92.5t-75.5 -58.5q67 -16 105 -66t38 -119q0 -89 -60 -142t-175 -53h-199zM160 405h135q58 0 91.5 31.5t33.5 87.5q0 109 -125 109h-135v-228zM160 67h135q80 0 121.5 35t41.5 102 q0 66 -42 103t-121 37h-135v-277z" glyph-name="B" horiz-adv-x="585" unicode="B"/><glyph d="M421 -13q-154 0 -254.5 103.5t-100.5 256.5t100.5 257t254.5 104q135 0 236 -90q12 -12 3 -24l-28 -31q-10 -10 -22 0q-82 72 -187 72q-121 0 -201 -82t-80 -206t80 -205.5t201 -81.5q105 0 187 72q12 10 21 1l29 -32q10 -10 -3 -23q-101 -91 -236 -91z" glyph-name="C" horiz-adv-x="726" unicode="C"/><glyph d="M100 0q-14 0 -14 14v672q0 14 14 14h152q176 0 266 -96t90 -254t-90 -254t-266 -96h-152zM161 67h90q142 0 211.5 74t69.5 209t-69.5 209t-211.5 74h-90v-566z" glyph-name="D" horiz-adv-x="669" unicode="D"/><glyph d="M100 0q-14 0 -14 14v672q0 14 14 14h335q14 0 14 -14v-39q0 -14 -14 -14h-274v-238h260q14 0 14 -14v-39q0 -14 -14 -14h-260v-261h275q14 0 14 -14v-39q0 -14 -14 -14h-336z" glyph-name="E" horiz-adv-x="526" unicode="E"/><glyph d="M100 0q-14 0 -14 14v672q0 14 14 14h326q14 0 14 -14v-39q0 -14 -14 -14h-265v-232h252q14 0 14 -14v-39q0 -14 -14 -14h-252v-320q0 -14 -14 -14h-47z" glyph-name="F" horiz-adv-x="510" unicode="F"/><glyph d="M733 363q15 0 15 -15v-31q0 -143 -88.5 -236.5t-234.5 -93.5q-155 0 -257 103.5t-102 256.5t101.5 257t256.5 104q137 0 236 -94q10 -10 2 -17l-31 -36q-7 -9 -17 -1q-84 75 -190 75q-121 0 -201.5 -82t-80.5 -206t80.5 -205.5t202.5 -81.5q111 0 180.5 66t69.5 169h-240 q-14 0 -14 14v41q0 13 14 13h298z" glyph-name="G" horiz-adv-x="803" unicode="G"/><glyph d="M552 700q14 0 14 -14v-672q0 -14 -14 -14h-47q-14 0 -14 14v300h-330v-300q0 -14 -14 -14h-47q-14 0 -14 14v672q0 14 14 14h47q14 0 14 -14v-305h330v305q0 14 14 14h47z" glyph-name="H" horiz-adv-x="652" unicode="H"/><glyph d="M100 0q-14 0 -14 14v672q0 14 14 14h47q14 0 14 -14v-672q0 -14 -14 -14h-47z" glyph-name="I" horiz-adv-x="246" unicode="I"/><glyph d="M215 -13q-94 0 -156 68q-8 11 1 20l25 33q9 10 18 1q18 -16 30 -24.5t34 -16.5t47 -8q127 0 127 167v459q0 14 14 14h47q14 0 14 -14v-461q0 -116 -54 -177t-147 -61z" glyph-name="J" horiz-adv-x="502" unicode="J"/><glyph d="M564 18q5 -8 2.5 -13t-11.5 -5h-55q-12 0 -18 9l-232 308l-89 -114v-189q0 -14 -14 -14h-47q-14 0 -14 14v672q0 14 14 14h47q14 0 14 -14v-381l290 387q7 8 18 8h59q10 0 12 -5t-4 -13l-240 -307z" glyph-name="K" horiz-adv-x="613" unicode="K"/><glyph d="M415 67q15 0 15 -15v-37q0 -15 -15 -15h-315q-14 0 -14 14v672q0 14 14 14h47q14 0 14 -14v-619h254z" glyph-name="L" horiz-adv-x="485" unicode="L"/><glyph d="M774 700q14 0 14 -14v-672q0 -14 -14 -14h-47q-14 0 -14 14v562l-15 -46l-219 -519q-4 -11 -17 -11h-50q-13 0 -17 11l-219 519l-15 45v-561q0 -14 -14 -14h-47q-14 0 -14 14v672q0 14 14 14h65q12 0 16 -10l256 -608l256 608q4 10 16 10h65z" glyph-name="M" horiz-adv-x="874" unicode="M"/><glyph d="M569 700q14 0 14 -14v-672q0 -14 -14 -14h-64q-12 0 -18 10l-326 583v-579q0 -14 -14 -14h-47q-14 0 -14 14v672q0 14 14 14h64q12 0 18 -10l326 -583v579q0 14 14 14h47z" glyph-name="N" horiz-adv-x="669" unicode="N"/><glyph d="M424 -13q-151 0 -254.5 104t-103.5 256t103.5 256.5t254.5 104.5t254.5 -104.5t103.5 -256.5t-103.5 -256t-254.5 -104zM424 60q120 0 201 82t81 205t-81 205.5t-201 82.5q-121 0 -201.5 -82t-80.5 -206q0 -123 80.5 -205t201.5 -82z" glyph-name="O" horiz-adv-x="847" unicode="O"/><glyph d="M100 0q-14 0 -14 14v672q0 14 14 14h191q110 0 170 -60t60 -158t-60 -157.5t-170 -59.5h-130v-251q0 -14 -14 -14h-47zM161 332h124q74 0 118.5 36t44.5 114q0 79 -44.5 115t-118.5 36h-124v-301z" glyph-name="P" horiz-adv-x="577" unicode="P"/><glyph d="M777 40q11 -10 1 -20l-31 -31q-10 -10 -21 1l-76 76q-96 -79 -226 -79q-151 0 -254.5 104t-103.5 256t103.5 256.5t254.5 104.5t254.5 -104.5t103.5 -256.5q0 -133 -81 -231zM424 60q100 0 174 58l-93 93q-10 10 -2 20l31 31q10 10 21 -1l93 -93q58 77 58 179 q0 123 -81 205.5t-201 82.5q-121 0 -201.5 -82t-80.5 -206q0 -123 80.5 -205t201.5 -82z" glyph-name="Q" horiz-adv-x="847" unicode="Q"/><glyph d="M520 18q11 -18 -10 -18h-50q-12 0 -18 10l-169 255h-112v-251q0 -14 -14 -14h-47q-14 0 -14 14v672q0 14 14 14h191q110 0 170 -60t60 -158q0 -83 -44 -140t-127 -72zM161 633v-301h124q74 0 118.5 36t44.5 114q0 79 -44.5 115t-118.5 36h-124z" glyph-name="R" horiz-adv-x="579" unicode="R"/><glyph d="M268 -12q-139 0 -208 104q-8 13 1 21l24 27q12 12 23 -1q63 -82 160 -82q67 0 105 33t38 88q0 52 -31 81.5t-96 61.5l-85 41q-123 58 -123 171q0 79 55 127t139 48q113 0 186 -89q10 -11 -2 -25l-21 -24q-11 -12 -23 0q-60 69 -138 69q-54 0 -88.5 -27.5t-34.5 -77.5 q0 -38 22 -64.5t69 -49.5l83 -41q37 -18 61 -33t49.5 -39t38 -56t12.5 -72q0 -88 -60.5 -139.5t-155.5 -51.5z" glyph-name="S" horiz-adv-x="539" unicode="S"/><glyph d="M243 0q-14 0 -14 14v619h-149q-14 0 -14 14v39q0 14 14 14h374q14 0 14 -14v-39q0 -14 -14 -14h-150v-619q0 -14 -14 -14h-47z" glyph-name="T" horiz-adv-x="534" unicode="T"/><glyph d="M314 -13q-106 0 -169.5 64t-63.5 179v456q0 14 14 14h47q14 0 14 -14v-447q0 -89 43 -134t115 -45q73 0 116 45t43 134v447q0 14 14 14h47q14 0 14 -14v-456q0 -115 -63.5 -179t-170.5 -64z" glyph-name="U" horiz-adv-x="629" unicode="U"/><glyph d="M313 0q-13 0 -18 12l-242 671q-7 17 11 17h49q13 0 17 -12l211 -599l211 599q4 12 16 12h50q18 0 11 -17l-243 -671q-4 -12 -18 -12h-55z" glyph-name="V" horiz-adv-x="681" unicode="V"/><glyph d="M1017 700q17 0 12 -17l-207 -671q-4 -12 -17 -12h-55q-13 0 -17 12l-192 594l-193 -594q-4 -12 -17 -12h-55q-13 0 -17 12l-207 671q-5 17 12 17h47q13 0 17 -12l178 -588l192 588q4 12 16 12h53q12 0 16 -12l192 -588l178 588q5 12 17 12h47z" glyph-name="W" horiz-adv-x="1081" unicode="W"/><glyph d="M565 18q11 -18 -8 -18h-51q-11 0 -17 10l-174 283l-175 -283q-6 -10 -17 -10h-51q-19 0 -8 18l210 341l-200 323q-11 18 8 18h53q9 0 17 -10l163 -265l163 265q6 10 16 10h53q19 0 8 -18l-200 -323z" glyph-name="X" horiz-adv-x="629" unicode="X"/><glyph d="M534 700q9 0 11.5 -5t-2.5 -13l-207 -346v-322q0 -14 -14 -14h-47q-14 0 -14 14v322l-207 346q-5 8 -2.5 13t11.5 5h52q11 0 17 -10l166 -283l167 283q6 10 17 10h52z" glyph-name="Y" horiz-adv-x="597" unicode="Y"/><glyph d="M75 0q-14 0 -14 14v44q0 9 6 18l345 557h-327q-14 0 -14 14v39q0 14 14 14h391q14 0 14 -14v-44q0 -9 -6 -18l-345 -557h347q14 0 14 -14v-39q0 -14 -14 -14h-411z" glyph-name="Z" horiz-adv-x="566" unicode="Z"/><glyph d="M213 745q13 0 13 -13v-36q0 -13 -13 -13h-78v-751h78q13 0 13 -13v-36q0 -13 -13 -13h-140q-13 0 -13 13v849q0 13 13 13h140z" glyph-name="bracketleft" horiz-adv-x="286" unicode="["/><glyph d="M33 745h46q13 0 17 -12l323 -846q6 -17 -11 -17h-46q-12 0 -17 12l-323 846q-6 17 11 17z" glyph-name="backslash" horiz-adv-x="441" unicode="\"/><glyph d="M73 745h140q13 0 13 -13v-849q0 -13 -13 -13h-140q-13 0 -13 13v36q0 13 13 13h78v751h-78q-13 0 -13 13v36q0 13 13 13z" glyph-name="bracketright" horiz-adv-x="286" unicode="]"/><glyph d="M63 321l196 368q5 11 18 11h33q12 0 18 -11l197 -368q5 -7 2 -12.5t-11 -5.5h-39q-11 0 -16 11l-167 322l-167 -322q-6 -11 -16 -11h-39q-8 0 -11 5.5t2 12.5z" glyph-name="asciicircum" horiz-adv-x="588" unicode="^"/><glyph d="M547 0q13 0 13 -13v-37q0 -13 -13 -13h-474q-13 0 -13 13v37q0 13 13 13h474z" glyph-name="underscore" horiz-adv-x="620" unicode="_"/><glyph d="M26 700h44q11 0 16 -12l54 -115q7 -16 -9 -16h-43q-11 0 -16 12l-55 115q-7 16 9 16z" glyph-name="grave" horiz-adv-x="157" unicode="`"/><glyph d="M538 490q13 0 13 -14v-462q0 -14 -13 -14h-43q-13 0 -13 14l-1 81q-58 -107 -189 -107q-106 0 -173.5 73t-67.5 184t67.5 184t173.5 73q130 0 189 -109l1 83q0 14 13 14h43zM302 55q79 0 128.5 52t49.5 136q0 85 -49.5 138.5t-128.5 53.5t-130 -53t-51 -137 q0 -85 51 -137.5t130 -52.5z" glyph-name="a" unicode="a"/><glyph d="M334 502q107 0 174.5 -73t67.5 -184t-67.5 -184t-174.5 -73q-129 0 -188 106l-2 -80q0 -14 -13 -14h-42q-13 0 -13 14v687q0 14 13 14h46q13 0 13 -14v-303q60 104 186 104zM324 55q80 0 131 52.5t51 137.5q0 84 -51 137t-131 53q-78 0 -127.5 -53.5t-49.5 -138.5 q0 -84 49.5 -136t127.5 -52z" glyph-name="b" unicode="b"/><glyph d="M306 -12q-109 0 -182 73.5t-73 183.5t73 183.5t182 73.5q115 0 183 -82q9 -13 2 -20l-26 -24q-11 -11 -23 1q-54 58 -133 58q-81 0 -134.5 -53.5t-53.5 -136.5q0 -84 53.5 -137t135.5 -53q79 0 132 57q13 13 24 2l26 -24q7 -7 -2 -20q-68 -82 -184 -82z" glyph-name="c" horiz-adv-x="546" unicode="c"/><glyph d="M538 715q13 0 13 -14v-687q0 -14 -13 -14h-43q-13 0 -13 14l-1 81q-58 -107 -189 -107q-106 0 -173.5 73t-67.5 184t67.5 184t173.5 73q126 0 187 -105v304q0 14 13 14h46zM302 55q79 0 128.5 52t49.5 136q0 85 -49.5 138.5t-128.5 53.5t-130 -53t-51 -137 q0 -85 51 -137.5t130 -52.5z" glyph-name="d" unicode="d"/><glyph d="M526 270q0 -28 -7.5 -39.5t-28.5 -11.5h-369q7 -76 58 -123t137 -47q79 0 141 47q9 7 15 -1l17 -23q7 -10 -4 -21q-66 -63 -175 -63q-117 0 -188 74.5t-71 184.5q0 109 69 182t177 73q104 0 166.5 -68.5t62.5 -163.5zM296 438q-73 0 -120.5 -44.5t-54.5 -118.5h341 q-2 73 -47 118t-119 45z" glyph-name="e" horiz-adv-x="577" unicode="e"/><glyph d="M258 665q-39 0 -53 -21t-14 -59v-95h99q14 0 14 -14v-32q0 -14 -14 -14h-99v-416q0 -14 -13 -14h-46q-13 0 -13 14v416h-59q-14 0 -14 14v32q0 14 14 14h59v111q0 130 128 130q29 0 48 -8q9 -4 9 -13v-41q0 -9 -12 -7q-19 3 -34 3z" glyph-name="f" horiz-adv-x="349" unicode="f"/><glyph d="M532 490q13 0 13 -14v-457q0 -76 -37 -128t-92 -74t-122 -22q-103 0 -171 47q-13 8 -7 20l15 28q7 12 18 5q61 -38 142 -38q80 0 132 39.5t52 126.5v83q-58 -100 -186 -100q-105 0 -171.5 69.5t-66.5 178.5t66.5 178.5t170.5 69.5q128 0 188 -103l1 77q0 14 12 14h43z M299 72q78 0 126.5 49t48.5 131q0 83 -48.5 133.5t-126.5 50.5q-77 0 -127.5 -50t-50.5 -132t50.5 -132t127.5 -50z" glyph-name="g" horiz-adv-x="621" unicode="g"/><glyph d="M308 502q82 0 131.5 -52.5t49.5 -147.5v-288q0 -14 -13 -14h-47q-12 0 -12 14v281q0 66 -33.5 103t-93.5 37q-62 0 -102 -38t-40 -102v-281q0 -14 -13 -14h-46q-13 0 -13 14v687q0 14 13 14h46q13 0 13 -14v-289q50 90 160 90z" glyph-name="h" horiz-adv-x="564" unicode="h"/><glyph d="M112 617q-19 0 -32 13t-13 32t13 32.5t32 13.5t32 -13.5t13 -32.5t-13 -32t-32 -13zM89 0q-13 0 -13 14v462q0 14 13 14h46q13 0 13 -14v-462q0 -14 -13 -14h-46z" glyph-name="i" horiz-adv-x="223" unicode="i"/><glyph d="M122 617q-19 0 -32 13t-13 32t13 32.5t32 13.5t32 -13.5t13 -32.5t-13 -32t-32 -13zM30 -200q-31 0 -48 8q-9 4 -9 13v41q0 9 12 7q19 -3 33 -3q39 0 53.5 21t14.5 59v530q0 14 13 14h46q13 0 13 -14v-546q0 -130 -128 -130z" glyph-name="j" horiz-adv-x="233" unicode="j"/><glyph d="M485 16q5 -6 2.5 -11t-11.5 -5h-49q-12 0 -18 9l-176 224l-85 -91v-128q0 -14 -13 -14h-46q-13 0 -13 14v687q0 14 13 14h46q13 0 13 -14v-470l230 251q7 8 17 8h58q8 0 9.5 -5t-4.5 -10l-181 -194z" glyph-name="k" horiz-adv-x="529" unicode="k"/><glyph d="M89 0q-13 0 -13 14v687q0 14 13 14h46q13 0 13 -14v-687q0 -14 -13 -14h-46z" glyph-name="l" horiz-adv-x="223" unicode="l"/><glyph d="M584 502q77 0 119.5 -50t42.5 -145v-293q0 -14 -13 -14h-46q-13 0 -13 14v285q0 136 -106 136q-55 0 -88 -36.5t-33 -99.5v-285q0 -14 -13 -14h-46q-13 0 -13 14v285q0 65 -29 100.5t-82 35.5q-55 0 -85.5 -36t-30.5 -100v-285q0 -14 -13 -14h-46q-13 0 -13 14v462 q0 14 13 14h42q14 0 14 -15l2 -56q43 83 139 83q108 0 145 -96q42 96 153 96z" glyph-name="m" horiz-adv-x="822" unicode="m"/><glyph d="M308 502q82 0 131.5 -52.5t49.5 -147.5v-288q0 -14 -13 -14h-47q-12 0 -12 14v281q0 66 -33.5 103t-93.5 37q-62 0 -102 -38t-40 -102v-281q0 -14 -13 -14h-46q-13 0 -13 14v462q0 14 13 14h42q14 0 14 -15l3 -63q50 90 160 90z" glyph-name="n" horiz-adv-x="564" unicode="n"/><glyph d="M302 -12q-107 0 -179 73.5t-72 183.5t72 183.5t179 73.5t178.5 -74t71.5 -183t-71.5 -183t-178.5 -74zM302 55q78 0 129 53.5t51 136.5t-51 136.5t-129 53.5t-129.5 -53.5t-51.5 -136.5t51.5 -136.5t129.5 -53.5z" glyph-name="o" horiz-adv-x="603" unicode="o"/><glyph d="M334 502q107 0 174.5 -73t67.5 -184t-67.5 -184t-174.5 -73q-126 0 -186 102v-266q0 -14 -13 -14h-46q-13 0 -13 14v652q0 14 13 14h42q13 0 13 -14l2 -82q59 108 188 108zM324 55q80 0 131 52.5t51 137.5q0 84 -51 137t-131 53q-78 0 -127.5 -53.5t-49.5 -138.5 q0 -84 49.5 -136t127.5 -52z" glyph-name="p" unicode="p"/><glyph d="M538 490q13 0 13 -14v-652q0 -14 -13 -14h-46q-13 0 -13 14v267q-60 -103 -187 -103q-106 0 -173.5 73t-67.5 184t67.5 184t173.5 73q130 0 189 -109l1 83q0 14 13 14h43zM302 55q79 0 128.5 52t49.5 136q0 85 -49.5 138.5t-128.5 53.5t-130 -53t-51 -137 q0 -85 51 -137.5t130 -52.5z" glyph-name="q" unicode="q"/><glyph d="M305 492q8 -5 8 -17v-34q0 -15 -18 -10q-16 5 -35 5q-59 0 -85.5 -41t-26.5 -93v-288q0 -14 -13 -14h-46q-13 0 -13 14v462q0 14 13 14h42q14 0 14 -15l2 -56q34 83 113 83q30 0 45 -10z" glyph-name="r" horiz-adv-x="354" unicode="r"/><glyph d="M220 -12q-102 0 -159 74q-10 11 -1 25l15 20q10 13 23 0q52 -56 120 -56q44 0 71 20t27 57q0 32 -19.5 52t-57.5 36l-58 24q-110 46 -110 131q0 59 43.5 95t106.5 36q89 0 143 -68q9 -10 -1 -22l-16 -18q-11 -13 -24 0q-46 47 -99 47q-36 0 -60 -17.5t-24 -50.5 q0 -32 20 -50t64 -36l48 -20q55 -22 85 -53.5t30 -84.5q0 -66 -48.5 -103.5t-118.5 -37.5z" glyph-name="s" horiz-adv-x="443" unicode="s"/><glyph d="M279 430h-83v-327q0 -52 45 -52q13 0 31 2q19 3 19 -13v-30q0 -22 -63 -22q-104 0 -104 106v336h-64q-14 0 -14 14v32q0 14 14 14h64v116q0 14 13 14h46q13 0 13 -14v-116h83q14 0 14 -14v-32q0 -14 -14 -14z" glyph-name="t" horiz-adv-x="339" unicode="t"/><glyph d="M476 490q13 0 13 -14v-462q0 -14 -13 -14h-43q-14 0 -14 15l-2 65q-51 -92 -161 -92q-82 0 -131 52.5t-49 147.5v288q0 14 13 14h46q13 0 13 -14v-281q0 -66 33 -103t93 -37q62 0 102.5 38t40.5 102v281q0 14 12 14h47z" glyph-name="u" horiz-adv-x="565" unicode="u"/><glyph d="M249 0q-13 0 -18 12l-183 461q-6 17 11 17h46q12 0 16 -12l151 -398l152 398q5 12 16 12h46q17 0 11 -17l-183 -461q-4 -12 -18 -12h-47z" glyph-name="v" horiz-adv-x="545" unicode="v"/><glyph d="M226 0q-14 0 -18 12l-160 461q-6 17 11 17h45q12 0 16 -12l134 -399l138 399q4 12 18 12h50q14 0 18 -12l138 -399l134 399q4 12 15 12h46q17 0 11 -17l-161 -461q-5 -12 -18 -12h-51q-14 0 -18 12l-139 399l-140 -399q-5 -12 -18 -12h-51z" glyph-name="w" horiz-adv-x="870" unicode="w"/><glyph d="M57 0q-8 0 -10.5 5t2.5 12l153 233l-146 223q-10 17 8 17h51q11 0 17 -10l113 -179l114 179q6 10 17 10h51q18 0 8 -17l-147 -223l154 -233q5 -7 2.5 -12t-10.5 -5h-51q-11 0 -17 10l-121 190l-120 -190q-6 -10 -17 -10h-51z" glyph-name="x" horiz-adv-x="490" unicode="x"/><glyph d="M177 -190q-17 0 -10 15l69 173l-188 475q-6 17 11 17h46q12 0 16 -12l151 -398l152 398q5 12 16 12h46q17 0 11 -17l-258 -651q-4 -12 -17 -12h-45z" glyph-name="y" horiz-adv-x="545" unicode="y"/><glyph d="M70 0q-14 0 -14 14v38q0 9 7 18l280 358h-270q-14 0 -14 14v34q0 14 14 14h336q15 0 15 -14v-38q0 -9 -7 -18l-281 -358h275q14 0 14 -14v-34q0 -14 -14 -14h-341z" glyph-name="z" horiz-adv-x="481" unicode="z"/><glyph d="M233 745q13 0 13 -13v-36q0 -13 -13 -13h-22q-35 0 -35 -35v-264q0 -12 -5 -19l-31 -49q-6 -10 0 -20l31 -47q5 -9 5 -19v-263q0 -35 35 -35h22q13 0 13 -13v-36q0 -13 -13 -13h-59q-32 0 -52 20.5t-20 53.5v281q0 11 -5 19l-33 52q-6 11 -1 20l34 54q5 9 5 19v282 q0 33 20 53.5t52 20.5h59z" glyph-name="braceleft" horiz-adv-x="306" unicode="{"/><glyph d="M100 -190q-14 0 -14 14v962q0 14 14 14h47q14 0 14 -14v-962q0 -14 -14 -14h-47z" glyph-name="bar" horiz-adv-x="246" unicode="|"/><glyph d="M73 745h59q32 0 52 -20.5t20 -53.5v-282q0 -10 5 -19l34 -54q5 -9 -1 -20l-33 -52q-5 -8 -5 -19v-281q0 -33 -20 -53.5t-52 -20.5h-59q-13 0 -13 13v36q0 13 13 13h22q35 0 35 35v263q0 10 5 19l31 47q6 10 0 20l-31 49q-5 7 -5 19v264q0 35 -35 35h-22q-13 0 -13 13v36 q0 13 13 13z" glyph-name="braceright" horiz-adv-x="306" unicode="}"/><glyph d="M299 227q-32 0 -58 18t-49 36t-46 18q-38 0 -46 -33q-3 -10 -12 -10h-18q-12 0 -10 14q3 38 28.5 58.5t61.5 20.5q32 0 58.5 -18t49 -36t45.5 -18q37 0 46 34q3 10 12 10h19q12 0 10 -15q-4 -38 -29.5 -58.5t-61.5 -20.5z" glyph-name="asciitilde" horiz-adv-x="450" unicode="~"/><glyph glyph-name="uni00A0" horiz-adv-x="200" unicode=" "/><glyph d="M112 533q21 0 36 -15t15 -37q0 -21 -15 -36t-36 -15t-36.5 15t-15.5 36q0 22 15.5 37t36.5 15zM96 332h33q13 0 13 -14l8 -484q0 -14 -12 -14h-51q-13 0 -13 14l9 484q0 14 13 14z" glyph-name="exclamdown" horiz-adv-x="224" unicode="¡"/><glyph d="M452 212q7 -7 -1 -18q-59 -69 -155 -73v-108q0 -13 -13 -13h-12q-13 0 -13 13v109q-90 9 -148.5 72.5t-58.5 155.5t58.5 155.5t148.5 72.5v109q0 13 13 13h12q13 0 13 -13v-108q97 -4 154 -73q9 -10 1 -17l-23 -22q-9 -9 -21 1q-45 47 -111 51v-338q67 4 111 51 q13 11 22 2zM115 350q0 -66 39.5 -112t103.5 -55v334q-64 -9 -103.5 -54.5t-39.5 -112.5z" glyph-name="cent" horiz-adv-x="506" unicode="¢"/><glyph d="M280 641q-59 0 -94.5 -35.5t-35.5 -91.5q0 -29 10 -56.5t28 -62t26 -55.5h139q13 0 13 -13v-28q0 -13 -13 -13h-125q3 -18 3 -38q0 -114 -89 -184h300q14 0 14 -14v-36q0 -14 -14 -14h-373q-13 0 -13 14v50q106 61 106 178q0 16 -4 44h-88q-12 0 -12 13v28q0 13 12 13h71 q-6 16 -25 53t-28 66t-9 62q0 79 54 133t143 54q118 0 184 -101q8 -13 -1 -22l-27 -26q-11 -11 -19 2q-15 22 -28.5 36.5t-41.5 29t-63 14.5z" glyph-name="sterling" horiz-adv-x="520" unicode="£"/><glyph d="M515 476q0 -78 -48 -139l49 -49l-38 -37l-48 49q-61 -48 -139 -48t-139 48l-49 -49l-38 37l50 49q-48 61 -48 139t48 139l-50 49l38 37l49 -49q61 48 139 48t139 -48l48 49l38 -37l-49 -49q48 -61 48 -139zM291 300q72 0 123.5 51t51.5 125t-51.5 125t-123.5 51 t-123.5 -51t-51.5 -125t51 -125t124 -51z" glyph-name="currency" horiz-adv-x="581" unicode="¤"/><glyph d="M543 682l-207 -346v-1h89q14 0 14 -14v-27q0 -14 -14 -14h-89v-41h89q14 0 14 -14v-27q0 -14 -14 -14h-89v-170q0 -14 -14 -14h-47q-14 0 -14 14v170h-88q-14 0 -14 14v27q0 14 14 14h88v41h-88q-14 0 -14 14v27q0 14 14 14h88v1l-207 346q-5 8 -2.5 13t11.5 5h52 q11 0 17 -10l166 -283l167 283q6 10 17 10h52q9 0 11.5 -5t-2.5 -13z" glyph-name="yen" horiz-adv-x="597" unicode="¥"/><glyph d="M100 490q-14 0 -14 14v282q0 14 14 14h47q14 0 14 -14v-282q0 -14 -14 -14h-47zM100 -190q-14 0 -14 14v282q0 14 14 14h47q14 0 14 -14v-282q0 -14 -14 -14h-47z" glyph-name="brokenbar" horiz-adv-x="246" unicode="¦"/><glyph d="M323 220q69 -41 69 -114q0 -65 -47.5 -102t-118.5 -37q-102 0 -164 70q-11 13 -1 27l12 19q10 14 27 0q58 -54 124 -54q44 0 70.5 20t26.5 55q0 56 -79 87l-62 25q-52 21 -82 51.5t-30 80.5q0 82 81 116q-78 43 -78 116q0 59 45 94.5t109 35.5q90 0 148 -67q9 -10 -1 -22 l-16 -18q-11 -13 -24 0q-46 46 -105 46q-36 0 -61 -17t-25 -50t19 -49.5t59 -33.5l58 -24q56 -23 87 -53.5t31 -82.5q0 -82 -72 -119zM139 350q0 -33 19 -50.5t58 -32.5l12 -5q44 0 70 19.5t26 54.5q0 41 -43 69q-27 12 -57 12q-36 0 -60.5 -17t-24.5 -50z" glyph-name="section" horiz-adv-x="450" unicode="§"/><glyph d="M58 621q-18 0 -30.5 12.5t-12.5 29.5t12.5 29.5t30.5 12.5q17 0 30 -12.5t13 -29.5t-13 -29.5t-30 -12.5zM239 621q-17 0 -30 12.5t-13 29.5t13 29.5t30 12.5t30 -12.5t13 -29.5t-13 -29.5t-30 -12.5z" glyph-name="dieresis" horiz-adv-x="297" unicode="¨"/><glyph d="M350 136q-119 0 -201.5 83.5t-82.5 202.5t82.5 202.5t201.5 83.5t201.5 -83.5t82.5 -202.5t-82.5 -202.5t-201.5 -83.5zM350 188q98 0 164.5 68t66.5 166t-66.5 166t-164.5 68t-165 -68t-67 -166t67 -166t165 -68zM355 261q-68 0 -113.5 46.5t-45.5 114.5q0 70 45.5 116 t113.5 46q72 0 116 -51q7 -7 0 -14l-17 -17q-8 -8 -16 1q-34 34 -80 34q-50 0 -81 -32t-31 -83q0 -50 31.5 -82t80.5 -32q46 0 80 34q8 8 16 1l17 -17q7 -7 0 -14q-44 -51 -116 -51z" glyph-name="copyright" horiz-adv-x="699" unicode="©"/><glyph d="M366 700h50v-359h-50l-5 64q-51 -64 -136 -64q-75 0 -124.5 52t-49.5 130t49.5 130t124.5 52q85 0 136 -64zM232 395q56 0 93 36.5t37 91.5t-37 91.5t-93 36.5q-55 0 -90.5 -36t-35.5 -92t35.5 -92t90.5 -36z" glyph-name="ordfeminine" horiz-adv-x="467" unicode="ª"/><glyph d="M181 159q0 -6 -4.5 -8t-9.5 1l-109 87q-8 7 -8 16v49q0 8 8 15l109 87q5 4 9.5 2t4.5 -9v-39q0 -9 -8 -16l-83 -65l83 -64q8 -7 8 -16v-40zM333 159q0 -6 -4.5 -8t-9.5 1l-109 87q-8 7 -8 16v49q0 8 8 15l109 87q5 4 9.5 2t4.5 -9v-39q0 -9 -8 -16l-83 -65l83 -64 q8 -7 8 -16v-40z" glyph-name="guillemotleft" horiz-adv-x="383" unicode="«"/><glyph d="M385 149q-14 0 -14 14v77h-297q-14 0 -14 14v34q0 14 14 14h355q14 0 14 -14v-125q0 -14 -14 -14h-44z" glyph-name="logicalnot" horiz-adv-x="503" unicode="¬"/><glyph d="M367 314q13 0 13 -13v-37q0 -13 -13 -13h-299q-13 0 -13 13v37q0 13 13 13h299z" glyph-name="uni00AD" horiz-adv-x="435" unicode="­"/><glyph d="M350 708q119 0 201.5 -83.5t82.5 -202.5t-82.5 -202.5t-201.5 -83.5t-201.5 83.5t-82.5 202.5t82.5 202.5t201.5 83.5zM350 188q98 0 164.5 68t66.5 166t-66.5 166t-164.5 68t-165 -68t-67 -166t67 -166t165 -68zM402 379l86 -91q4 -4 2.5 -8t-8.5 -4h-37q-7 0 -11 6 l-88 95h-62v-92q0 -9 -9 -9h-30q-9 0 -9 9v274q0 9 9 9h130q52 0 82 -26t30 -71q0 -37 -22.5 -61t-62.5 -31zM284 524v-103h94q30 0 44.5 14t14.5 36q0 53 -59 53h-94z" glyph-name="registered" horiz-adv-x="699" unicode="®"/><glyph d="M302 700q14 0 14 -14v-32q0 -14 -14 -14h-273q-14 0 -14 14v32q0 14 14 14h273z" glyph-name="macron" horiz-adv-x="331" unicode="¯"/><glyph d="M206 426q-60 0 -103 42t-43 103t43 103t103 42t103 -42t43 -103t-43 -103t-103 -42zM206 478q39 0 65.5 26t26.5 67t-26.5 67t-65.5 26t-65.5 -26t-26.5 -67t26.5 -67t65.5 -26z" glyph-name="degree" horiz-adv-x="412" unicode="°"/><glyph d="M352 303q14 0 14 -14v-34q0 -14 -14 -14h-105v-106q0 -14 -14 -14h-34q-14 0 -14 14v106h-106q-14 0 -14 14v34q0 14 14 14h106v105q0 14 14 14h34q14 0 14 -14v-105h105zM353 49q13 0 13 -13v-23q0 -13 -13 -13h-275q-13 0 -13 13v23q0 13 13 13h275z" glyph-name="plusminus" horiz-adv-x="431" unicode="±"/><glyph d="M124 704q40 0 62 -21.5t22 -53.5q0 -6 -1 -11.5t-2 -10.5t-4.5 -10.5t-5.5 -9.5t-7.5 -10.5t-8 -10t-10 -11l-11 -11l-12.5 -12.5l-13 -13l-47 -46h124v-33h-168v33l68 68q6 6 17.5 17t15 15t11 12t9.5 11.5t5 9.5t4 11.5t1 11.5q0 22 -14 33t-35 11t-35 -12.5t-14 -37.5 v-14h-35v14q0 37 22.5 59t61.5 22z" glyph-name="uni00B2" horiz-adv-x="249" unicode="²"/><glyph d="M128 703q40 0 60.5 -19t20.5 -49q0 -37 -39 -56q50 -16 50 -66q0 -35 -24.5 -56t-65.5 -21q-45 0 -67.5 23.5t-22.5 59.5h34q0 -23 14 -38t42 -15q24 0 39.5 12.5t15.5 34.5q0 48 -75 48v28q65 0 65 45q0 38 -47 38q-49 0 -49 -50h-33q-1 37 20 59t62 22z" glyph-name="uni00B3" horiz-adv-x="260" unicode="³"/><glyph d="M131 700q16 0 9 -16l-55 -115q-4 -12 -15 -12h-44q-16 0 -9 16l54 115q5 12 16 12h44z" glyph-name="acute" horiz-adv-x="157" unicode="´"/><glyph d="M476 490q13 0 13 -14v-462q0 -14 -13 -14h-43q-14 0 -14 15l-2 65q-51 -92 -161 -92q-64 0 -108 32v-196q0 -14 -14 -14h-44q-14 0 -14 14v652q0 14 13 14h46q13 0 13 -14v-281q0 -66 33 -103t93 -37q62 0 102.5 38t40.5 102v281q0 14 12 14h47z" glyph-name="uni00B5" horiz-adv-x="564" unicode="µ"/><glyph d="M487 0h-47q-14 0 -14 14v251h-130q-110 0 -170 59.5t-60 157.5t60 158t170 60h191q14 0 14 -14v-672q0 -14 -14 -14zM601 0q-14 0 -14 14v672q0 14 14 14h47q14 0 14 -14v-672q0 -14 -14 -14h-47zM426 332v301h-124q-74 0 -118.5 -36t-44.5 -115q0 -78 44.5 -114 t118.5 -36h124z" glyph-name="paragraph" horiz-adv-x="748" unicode="¶"/><glyph d="M102 238q-22 0 -37 14.5t-15 36.5q0 21 15 36.5t37 15.5q21 0 36 -15.5t15 -36.5q0 -22 -15 -36.5t-36 -14.5z" glyph-name="periodcentered" horiz-adv-x="203" unicode="·"/><glyph d="M87 -40q37 -2 62 -22.5t25 -55.5q0 -56 -45 -78.5t-105 -14.5q-9 1 -9 11v25q0 10 11 10q91 -7 91 41q0 26 -26.5 36t-63.5 -2q-12 -3 -12 7v23q0 5 5 12l44 48h62z" glyph-name="cedilla" horiz-adv-x="189" unicode="¸"/><glyph d="M105 701v-261h-36v228h-29v33h65z" glyph-name="uni00B9" horiz-adv-x="170" unicode="¹"/><glyph d="M234 341q-77 0 -130 52.5t-53 129.5t53 129.5t130 52.5t130 -52.5t53 -129.5t-53 -129.5t-130 -52.5zM234 395q54 0 91 37t37 91t-37 91t-91 37t-91 -37t-37 -91t37 -91t91 -37z" glyph-name="ordmasculine" horiz-adv-x="468" unicode="º"/><glyph d="M50 159v40q0 9 8 16l83 64l-83 65q-8 7 -8 16v39q0 7 5 9t9 -2l109 -87q8 -7 8 -15v-49q0 -9 -8 -16l-109 -87q-4 -3 -9 -1t-5 8zM202 159v40q0 9 8 16l83 64l-83 65q-8 7 -8 16v39q0 7 4.5 9t8.5 -2l110 -87q8 -7 8 -15v-49q0 -9 -8 -16l-110 -87q-4 -3 -8.5 -1t-4.5 8z " glyph-name="guillemotright" horiz-adv-x="383" unicode="»"/><glyph d="M104 701v-261h-35v228h-29v33h64zM520 700l-427 -700h-41l427 700h41zM516 261v-167h27v-34h-27v-60h-35v60h-136l136 201h35zM481 210l-77 -116h77v116z" glyph-name="onequarter" horiz-adv-x="588" unicode="¼"/><glyph d="M104 701v-261h-35v228h-29v33h64zM520 700l-427 -700h-41l427 700h41zM449 264q40 0 62.5 -21.5t22.5 -53.5q0 -17 -9.5 -34.5t-19 -28t-37.5 -37.5l-10 -10l-47 -46h124v-33h-168v33l68 68q5 5 13 12.5t11.5 11l9.5 9.5t8.5 9t6.5 7.5t5.5 7.5l3.5 7t3 7.5t1.5 7.5 t0.5 9q0 22 -14 33t-35 11t-35 -12.5t-14 -37.5v-14h-35v14q0 37 22.5 59t61.5 22z" glyph-name="onehalf" horiz-adv-x="580" unicode="½"/><glyph d="M128 703q40 0 60.5 -19t20.5 -49q0 -37 -39 -56q50 -16 50 -66q0 -35 -24.5 -56t-65.5 -21q-45 0 -67.5 23.5t-22.5 59.5h34q0 -23 14 -38t42 -15q24 0 39.5 12.5t15.5 34.5q0 48 -75 48v28q65 0 65 45q0 38 -47 38q-49 0 -49 -50h-33q-1 37 20 59t62 22zM551 700 l-427 -700h-41l427 700h41zM537 261v-167h27v-34h-27v-60h-35v60h-136l136 201h35zM502 210l-77 -116h77v116z" glyph-name="threequarters" horiz-adv-x="604" unicode="¾"/><glyph d="M225 533q21 0 36.5 -15t15.5 -37q0 -21 -15.5 -36t-36.5 -15t-36.5 15t-15.5 36q0 22 15.5 37t36.5 15zM245 339q13 0 13 -15v-37q0 -46 -15.5 -83t-37.5 -60.5t-44 -45.5t-37.5 -50t-15.5 -61q0 -51 30.5 -78t79.5 -27q89 0 127 91q6 11 23 1l22 -14q15 -9 10 -22 q-18 -51 -65.5 -88.5t-121.5 -37.5q-77 0 -127 43.5t-50 119.5q0 42 16 76t38.5 58.5l45 49t39 57.5t17.5 73l1 35q0 15 13 15h39z" glyph-name="questiondown" horiz-adv-x="451" unicode="¿"/><glyph d="M300 779l-55 115q-7 16 9 16h45q11 0 15 -12l54 -115q7 -16 -9 -16h-43q-11 0 -16 12zM629 17q7 -17 -11 -17h-50q-12 0 -16 12l-51 145h-320l-51 -145q-4 -12 -17 -12h-49q-18 0 -11 17l242 671q5 12 18 12h55q14 0 18 -12zM205 224h272l-136 387z" glyph-name="Agrave" horiz-adv-x="681" unicode="À"/><glyph d="M323 767q-16 0 -9 16l54 115q5 12 16 12h44q16 0 9 -16l-55 -115q-4 -12 -15 -12h-44zM629 17q7 -17 -11 -17h-50q-12 0 -16 12l-51 145h-320l-51 -145q-4 -12 -17 -12h-49q-18 0 -11 17l242 671q5 12 18 12h55q14 0 18 -12zM205 224h272l-136 387z" glyph-name="Aacute" horiz-adv-x="681" unicode="Á"/><glyph d="M221 784q-7 0 -9 5t2 9l86 104q7 8 16 8h50q9 0 16 -8l86 -104q4 -4 1.5 -9t-8.5 -5h-40q-9 0 -16 8l-64 80l-65 -80q-7 -8 -16 -8h-39zM629 17q7 -17 -11 -17h-50q-12 0 -16 12l-51 145h-320l-51 -145q-4 -12 -17 -12h-49q-18 0 -11 17l242 671q5 12 18 12h55 q14 0 18 -12zM205 224h272l-136 387z" glyph-name="Acircumflex" horiz-adv-x="681" unicode="Â"/><glyph d="M201 843q-11 0 -9 12q4 35 27 54t56 19q36 0 75.5 -32.5t63.5 -32.5q31 0 42 30q3 9 11 9h15q10 0 10 -10q-4 -36 -26.5 -55t-53.5 -19q-38 0 -78 32t-64 32q-32 0 -43 -30q-3 -9 -11 -9h-15zM629 17q7 -17 -11 -17h-50q-12 0 -16 12l-51 145h-320l-51 -145 q-4 -12 -17 -12h-49q-18 0 -11 17l242 671q5 12 18 12h55q14 0 18 -12zM205 224h272l-136 387z" glyph-name="Atilde" horiz-adv-x="681" unicode="Ã"/><glyph d="M251 831q-18 0 -30.5 12.5t-12.5 29.5t12.5 29.5t30.5 12.5q17 0 30 -12.5t13 -29.5t-13 -29.5t-30 -12.5zM432 831q-17 0 -30 12.5t-13 29.5t13 29.5t30 12.5t30 -12.5t13 -29.5t-13 -29.5t-30 -12.5zM629 17q7 -17 -11 -17h-50q-12 0 -16 12l-51 145h-320l-51 -145 q-4 -12 -17 -12h-49q-18 0 -11 17l242 671q5 12 18 12h55q14 0 18 -12zM205 224h272l-136 387z" glyph-name="Adieresis" horiz-adv-x="681" unicode="Ä"/><glyph d="M341 772q-34 0 -57 22.5t-23 55.5q0 34 23 56t57 22t57 -22t23 -56q0 -33 -23 -55.5t-57 -22.5zM341 878q-12 0 -20 -8t-8 -20t8 -20t20 -8t20 8t8 20t-8 20t-20 8zM629 17q7 -17 -11 -17h-50q-12 0 -16 12l-51 145h-320l-51 -145q-4 -12 -17 -12h-49q-18 0 -11 17 l242 671q5 12 18 12h55q14 0 18 -12zM205 224h272l-136 387z" glyph-name="Aring" horiz-adv-x="681" unicode="Å"/><glyph d="M786 67q14 0 14 -14v-39q0 -14 -14 -14h-336q-14 0 -14 14v159h-226l-79 -161q-5 -12 -17 -12h-50q-8 0 -11.5 5t0.5 12l337 671q6 12 18 12h377q14 0 14 -14v-39q0 -14 -14 -14h-274v-238h260q14 0 14 -14v-39q0 -14 -14 -14h-260v-261h275zM243 240h193v395z" glyph-name="AE" horiz-adv-x="876" unicode="Æ"/><glyph d="M438 -13l-27 -27q37 -2 62 -22.5t25 -55.5q0 -56 -45 -78.5t-105 -14.5q-9 1 -9 11v25q0 10 11 10q91 -7 91 41q0 26 -26.5 36t-63.5 -2q-12 -3 -12 7v23q0 5 5 12l34 37q-137 15 -224.5 115.5t-87.5 242.5q0 153 100.5 257t254.5 104q135 0 236 -90q12 -12 3 -24 l-28 -31q-10 -10 -22 0q-82 72 -187 72q-121 0 -201 -82t-80 -206t80 -205.5t201 -81.5q105 0 187 72q12 10 21 1l29 -32q10 -10 -3 -23q-93 -85 -219 -91z" glyph-name="Ccedilla" horiz-adv-x="726" unicode="Ç"/><glyph d="M186 910h45q11 0 15 -12l54 -115q7 -16 -9 -16h-43q-11 0 -16 12l-55 115q-7 16 9 16zM100 0q-14 0 -14 14v672q0 14 14 14h335q14 0 14 -14v-39q0 -14 -14 -14h-274v-238h260q14 0 14 -14v-39q0 -14 -14 -14h-260v-261h275q14 0 14 -14v-39q0 -14 -14 -14h-336z" glyph-name="Egrave" horiz-adv-x="526" unicode="È"/><glyph d="M360 910q16 0 9 -16l-55 -115q-4 -12 -15 -12h-44q-16 0 -9 16l54 115q5 12 16 12h44zM100 0q-14 0 -14 14v672q0 14 14 14h335q14 0 14 -14v-39q0 -14 -14 -14h-274v-238h260q14 0 14 -14v-39q0 -14 -14 -14h-260v-261h275q14 0 14 -14v-39q0 -14 -14 -14h-336z" glyph-name="Eacute" horiz-adv-x="526" unicode="É"/><glyph d="M153 784q-7 0 -9 5t2 9l86 104q7 8 16 8h50q9 0 16 -8l86 -104q4 -4 1.5 -9t-8.5 -5h-40q-9 0 -16 8l-64 80l-65 -80q-7 -8 -16 -8h-39zM100 0q-14 0 -14 14v672q0 14 14 14h335q14 0 14 -14v-39q0 -14 -14 -14h-274v-238h260q14 0 14 -14v-39q0 -14 -14 -14h-260v-261 h275q14 0 14 -14v-39q0 -14 -14 -14h-336z" glyph-name="Ecircumflex" horiz-adv-x="526" unicode="Ê"/><glyph d="M183 831q-18 0 -30.5 12.5t-12.5 29.5t12.5 29.5t30.5 12.5q17 0 30 -12.5t13 -29.5t-13 -29.5t-30 -12.5zM364 831q-17 0 -30 12.5t-13 29.5t13 29.5t30 12.5t30 -12.5t13 -29.5t-13 -29.5t-30 -12.5zM100 0q-14 0 -14 14v672q0 14 14 14h335q14 0 14 -14v-39 q0 -14 -14 -14h-274v-238h260q14 0 14 -14v-39q0 -14 -14 -14h-260v-261h275q14 0 14 -14v-39q0 -14 -14 -14h-336z" glyph-name="Edieresis" horiz-adv-x="526" unicode="Ë"/><glyph d="M37 910h44q11 0 16 -12l54 -115q7 -16 -9 -16h-43q-11 0 -16 12l-55 115q-7 16 9 16zM100 0q-14 0 -14 14v672q0 14 14 14h47q14 0 14 -14v-672q0 -14 -14 -14h-47z" glyph-name="Igrave" horiz-adv-x="246" unicode="Ì"/><glyph d="M211 910q16 0 9 -16l-55 -115q-4 -12 -15 -12h-44q-16 0 -9 16l54 115q5 12 16 12h44zM100 0q-14 0 -14 14v672q0 14 14 14h47q14 0 14 -14v-672q0 -14 -14 -14h-47z" glyph-name="Iacute" horiz-adv-x="246" unicode="Í"/><glyph d="M3 784q-7 0 -9 5t2 9l86 104q7 8 16 8h50q9 0 16 -8l86 -104q4 -4 1.5 -9t-8.5 -5h-40q-9 0 -16 8l-64 80l-65 -80q-7 -8 -16 -8h-39zM100 0q-14 0 -14 14v672q0 14 14 14h47q14 0 14 -14v-672q0 -14 -14 -14h-47z" glyph-name="Icircumflex" horiz-adv-x="246" unicode="Î"/><glyph d="M33 831q-18 0 -30.5 12.5t-12.5 29.5t12.5 29.5t30.5 12.5q17 0 30 -12.5t13 -29.5t-13 -29.5t-30 -12.5zM214 831q-17 0 -30 12.5t-13 29.5t13 29.5t30 12.5t30 -12.5t13 -29.5t-13 -29.5t-30 -12.5zM100 0q-14 0 -14 14v672q0 14 14 14h47q14 0 14 -14v-672 q0 -14 -14 -14h-47z" glyph-name="Idieresis" horiz-adv-x="246" unicode="Ï"/><glyph d="M260 700q176 0 266 -96t90 -254t-90 -254t-266 -96h-152q-14 0 -14 14v306h-55q-14 0 -14 14v32q0 14 14 14h55v306q0 14 14 14h152zM259 67q142 0 211.5 74t69.5 209t-69.5 209t-211.5 74h-90v-253h143q14 0 14 -14v-32q0 -14 -14 -14h-143v-253h90z" glyph-name="Eth" horiz-adv-x="677" unicode="Ð"/><glyph d="M195 843q-11 0 -9 12q4 35 27 54t56 19q36 0 75.5 -32.5t63.5 -32.5q31 0 42 30q3 9 11 9h15q10 0 10 -10q-4 -36 -26.5 -55t-53.5 -19q-38 0 -78 32t-64 32q-32 0 -43 -30q-3 -9 -11 -9h-15zM569 700q14 0 14 -14v-672q0 -14 -14 -14h-64q-12 0 -18 10l-326 583v-579 q0 -14 -14 -14h-47q-14 0 -14 14v672q0 14 14 14h64q12 0 18 -10l326 -583v579q0 14 14 14h47z" glyph-name="Ntilde" horiz-adv-x="669" unicode="Ñ"/><glyph d="M337 910h45q11 0 15 -12l54 -115q7 -16 -9 -16h-43q-11 0 -16 12l-55 115q-7 16 9 16zM424 -13q-151 0 -254.5 104t-103.5 256t103.5 256.5t254.5 104.5t254.5 -104.5t103.5 -256.5t-103.5 -256t-254.5 -104zM424 60q120 0 201 82t81 205t-81 205.5t-201 82.5 q-121 0 -201.5 -82t-80.5 -206q0 -123 80.5 -205t201.5 -82z" glyph-name="Ograve" horiz-adv-x="847" unicode="Ò"/><glyph d="M511 910q16 0 9 -16l-55 -115q-4 -12 -15 -12h-44q-16 0 -9 16l54 115q5 12 16 12h44zM424 -13q-151 0 -254.5 104t-103.5 256t103.5 256.5t254.5 104.5t254.5 -104.5t103.5 -256.5t-103.5 -256t-254.5 -104zM424 60q120 0 201 82t81 205t-81 205.5t-201 82.5 q-121 0 -201.5 -82t-80.5 -206q0 -123 80.5 -205t201.5 -82z" glyph-name="Oacute" horiz-adv-x="847" unicode="Ó"/><glyph d="M304 784q-7 0 -9 5t2 9l86 104q7 8 16 8h50q9 0 16 -8l86 -104q4 -4 1.5 -9t-8.5 -5h-40q-9 0 -16 8l-64 80l-65 -80q-7 -8 -16 -8h-39zM424 -13q-151 0 -254.5 104t-103.5 256t103.5 256.5t254.5 104.5t254.5 -104.5t103.5 -256.5t-103.5 -256t-254.5 -104zM424 60 q120 0 201 82t81 205t-81 205.5t-201 82.5q-121 0 -201.5 -82t-80.5 -206q0 -123 80.5 -205t201.5 -82z" glyph-name="Ocircumflex" horiz-adv-x="847" unicode="Ô"/><glyph d="M358 928q36 0 75.5 -32.5t63.5 -32.5q31 0 42 30q3 9 11 9h15q10 0 10 -10q-4 -36 -26.5 -55t-53.5 -19t-55.5 16t-45 32t-41.5 16q-32 0 -43 -30q-3 -9 -11 -9h-15q-10 0 -9 12q4 35 27 54t56 19zM424 -13q-151 0 -254.5 104t-103.5 256t103.5 256.5t254.5 104.5 t254.5 -104.5t103.5 -256.5t-103.5 -256t-254.5 -104zM424 60q120 0 201 82t81 205t-81 205.5t-201 82.5q-121 0 -201.5 -82t-80.5 -206q0 -123 80.5 -205t201.5 -82z" glyph-name="Otilde" horiz-adv-x="847" unicode="Õ"/><glyph d="M334 831q-18 0 -30.5 12.5t-12.5 29.5t12.5 29.5t30.5 12.5q17 0 30 -12.5t13 -29.5t-13 -29.5t-30 -12.5zM515 831q-17 0 -30 12.5t-13 29.5t13 29.5t30 12.5t30 -12.5t13 -29.5t-13 -29.5t-30 -12.5zM424 -13q-151 0 -254.5 104t-103.5 256t103.5 256.5t254.5 104.5 t254.5 -104.5t103.5 -256.5t-103.5 -256t-254.5 -104zM424 60q120 0 201 82t81 205t-81 205.5t-201 82.5q-121 0 -201.5 -82t-80.5 -206q0 -123 80.5 -205t201.5 -82z" glyph-name="Odieresis" horiz-adv-x="847" unicode="Ö"/><glyph d="M233 283l74 -74q9 -9 0 -19l-24 -25q-11 -9 -20 0l-74 74l-75 -74q-9 -11 -20 0l-24 24q-9 9 0 20l75 74l-75 75q-9 9 0 20l24 24q11 9 20 0l75 -75l74 74q9 11 20 0l24 -24q9 -9 0 -20z" glyph-name="multiply" horiz-adv-x="376" unicode="×"/><glyph d="M596 665q85 -46 135.5 -130.5t50.5 -187.5q0 -152 -103.5 -256t-254.5 -104q-66 0 -123 21l-21 -47q-6 -11 -15 -11h-31q-17 0 -9 18l28 61q-86 46 -136.5 130.5t-50.5 187.5q0 152 103.5 256.5t254.5 104.5q66 0 123 -21l21 47q6 11 15 11h32q17 0 9 -18zM142 347 q0 -82 37.5 -148t102.5 -103l235 524q-43 15 -93 15q-121 0 -201.5 -82t-80.5 -206zM424 60q120 0 201 82t81 205q0 82 -37.5 148t-102.5 103l-235 -523q43 -15 93 -15z" glyph-name="Oslash" horiz-adv-x="847" unicode="Ø"/><glyph d="M228 910h45q11 0 15 -12l54 -115q7 -16 -9 -16h-43q-11 0 -16 12l-55 115q-7 16 9 16zM314 -13q-106 0 -169.5 64t-63.5 179v456q0 14 14 14h47q14 0 14 -14v-447q0 -89 43 -134t115 -45q73 0 116 45t43 134v447q0 14 14 14h47q14 0 14 -14v-456q0 -115 -63.5 -179 t-170.5 -64z" glyph-name="Ugrave" horiz-adv-x="629" unicode="Ù"/><glyph d="M402 910q16 0 9 -16l-55 -115q-4 -12 -15 -12h-44q-16 0 -9 16l54 115q5 12 16 12h44zM314 -13q-106 0 -169.5 64t-63.5 179v456q0 14 14 14h47q14 0 14 -14v-447q0 -89 43 -134t115 -45q73 0 116 45t43 134v447q0 14 14 14h47q14 0 14 -14v-456q0 -115 -63.5 -179 t-170.5 -64z" glyph-name="Uacute" horiz-adv-x="629" unicode="Ú"/><glyph d="M195 784q-7 0 -9 5t2 9l86 104q7 8 16 8h50q9 0 16 -8l86 -104q4 -4 1.5 -9t-8.5 -5h-40q-9 0 -16 8l-64 80l-65 -80q-7 -8 -16 -8h-39zM314 -13q-106 0 -169.5 64t-63.5 179v456q0 14 14 14h47q14 0 14 -14v-447q0 -89 43 -134t115 -45q73 0 116 45t43 134v447 q0 14 14 14h47q14 0 14 -14v-456q0 -115 -63.5 -179t-170.5 -64z" glyph-name="Ucircumflex" horiz-adv-x="629" unicode="Û"/><glyph d="M224 831q-18 0 -30.5 12.5t-12.5 29.5t12.5 29.5t30.5 12.5q17 0 30 -12.5t13 -29.5t-13 -29.5t-30 -12.5zM405 831q-17 0 -30 12.5t-13 29.5t13 29.5t30 12.5t30 -12.5t13 -29.5t-13 -29.5t-30 -12.5zM314 -13q-106 0 -169.5 64t-63.5 179v456q0 14 14 14h47 q14 0 14 -14v-447q0 -89 43 -134t115 -45q73 0 116 45t43 134v447q0 14 14 14h47q14 0 14 -14v-456q0 -115 -63.5 -179t-170.5 -64z" glyph-name="Udieresis" horiz-adv-x="629" unicode="Ü"/><glyph d="M281 767q-16 0 -9 16l54 115q5 12 16 12h44q16 0 9 -16l-55 -115q-4 -12 -15 -12h-44zM534 700q9 0 11.5 -5t-2.5 -13l-207 -346v-322q0 -14 -14 -14h-47q-14 0 -14 14v322l-207 346q-5 8 -2.5 13t11.5 5h52q11 0 17 -10l166 -283l167 283q6 10 17 10h52z" glyph-name="Yacute" horiz-adv-x="597" unicode="Ý"/><glyph d="M283 566q111 0 170.5 -59.5t59.5 -156.5t-59.5 -156.5t-170.5 -59.5h-122v-120q0 -14 -14 -14h-47q-14 0 -14 14v672q0 14 14 14h47q14 0 14 -14v-120h122zM277 203q75 0 119 35.5t44 111.5t-44 111.5t-119 35.5h-116v-294h116z" glyph-name="Thorn" horiz-adv-x="569" unicode="Þ"/><glyph d="M377 385q151 -26 151 -192q0 -100 -57 -146.5t-181 -46.5h-62q-13 0 -13 14v32q0 14 13 14h62q88 0 128 32t40 107q0 76 -40 111.5t-129 35.5h-61q-13 0 -13 14v32q0 14 13 14h51q67 0 103 31.5t36 90.5q0 114 -131 114q-72 0 -100.5 -31t-28.5 -88v-509q0 -14 -13 -14 h-46q-13 0 -13 14v513q0 84 49 132.5t152 48.5q97 0 149 -46t52 -126q0 -121 -111 -151z" glyph-name="germandbls" horiz-adv-x="578" unicode="ß"/><glyph d="M270 569l-55 115q-7 16 9 16h45q11 0 15 -12l54 -115q7 -16 -9 -16h-43q-11 0 -16 12zM538 490q13 0 13 -14v-462q0 -14 -13 -14h-43q-13 0 -13 14l-1 81q-58 -107 -189 -107q-106 0 -173.5 73t-67.5 184t67.5 184t173.5 73q130 0 189 -109l1 83q0 14 13 14h43zM302 55 q79 0 128.5 52t49.5 136q0 85 -49.5 138.5t-128.5 53.5t-130 -53t-51 -137q0 -85 51 -137.5t130 -52.5z" glyph-name="agrave" unicode="à"/><glyph d="M293 557q-16 0 -9 16l54 115q5 12 16 12h44q16 0 9 -16l-55 -115q-4 -12 -15 -12h-44zM538 490q13 0 13 -14v-462q0 -14 -13 -14h-43q-13 0 -13 14l-1 81q-58 -107 -189 -107q-106 0 -173.5 73t-67.5 184t67.5 184t173.5 73q130 0 189 -109l1 83q0 14 13 14h43zM302 55 q79 0 128.5 52t49.5 136q0 85 -49.5 138.5t-128.5 53.5t-130 -53t-51 -137q0 -85 51 -137.5t130 -52.5z" glyph-name="aacute" unicode="á"/><glyph d="M191 574q-7 0 -9 5t2 9l86 104q7 8 16 8h50q9 0 16 -8l86 -104q4 -4 1.5 -9t-8.5 -5h-40q-9 0 -16 8l-64 80l-65 -80q-7 -8 -16 -8h-39zM538 490q13 0 13 -14v-462q0 -14 -13 -14h-43q-13 0 -13 14l-1 81q-58 -107 -189 -107q-106 0 -173.5 73t-67.5 184t67.5 184 t173.5 73q130 0 189 -109l1 83q0 14 13 14h43zM302 55q79 0 128.5 52t49.5 136q0 85 -49.5 138.5t-128.5 53.5t-130 -53t-51 -137q0 -85 51 -137.5t130 -52.5z" glyph-name="acircumflex" unicode="â"/><glyph d="M171 633q-11 0 -9 12q4 35 27 54t56 19q36 0 75.5 -32.5t63.5 -32.5q31 0 42 30q3 9 11 9h15q10 0 10 -10q-4 -36 -26.5 -55t-53.5 -19q-39 0 -78.5 32t-63.5 32q-32 0 -43 -30q-3 -9 -11 -9h-15zM538 490q13 0 13 -14v-462q0 -14 -13 -14h-43q-13 0 -13 14l-1 81 q-58 -107 -189 -107q-106 0 -173.5 73t-67.5 184t67.5 184t173.5 73q130 0 189 -109l1 83q0 14 13 14h43zM302 55q79 0 128.5 52t49.5 136q0 85 -49.5 138.5t-128.5 53.5t-130 -53t-51 -137q0 -85 51 -137.5t130 -52.5z" glyph-name="atilde" unicode="ã"/><glyph d="M220 621q-18 0 -30.5 12.5t-12.5 29.5t12.5 29.5t30.5 12.5q17 0 30 -12.5t13 -29.5t-13 -29.5t-30 -12.5zM401 621q-17 0 -30 12.5t-13 29.5t13 29.5t30 12.5t30 -12.5t13 -29.5t-13 -29.5t-30 -12.5zM538 490q13 0 13 -14v-462q0 -14 -13 -14h-43q-13 0 -13 14l-1 81 q-58 -107 -189 -107q-106 0 -173.5 73t-67.5 184t67.5 184t173.5 73q130 0 189 -109l1 83q0 14 13 14h43zM302 55q79 0 128.5 52t49.5 136q0 85 -49.5 138.5t-128.5 53.5t-130 -53t-51 -137q0 -85 51 -137.5t130 -52.5z" glyph-name="adieresis" unicode="ä"/><glyph d="M310 562q-34 0 -57 22.5t-23 55.5q0 34 23 56t57 22t57 -22t23 -56q0 -33 -23 -55.5t-57 -22.5zM310 668q-12 0 -20 -8t-8 -20t8 -20t20 -8t20 8t8 20t-8 20t-20 8zM538 490q13 0 13 -14v-462q0 -14 -13 -14h-43q-13 0 -13 14l-1 81q-58 -107 -189 -107q-106 0 -173.5 73 t-67.5 184t67.5 184t173.5 73q130 0 189 -109l1 83q0 14 13 14h43zM302 55q79 0 128.5 52t49.5 136q0 85 -49.5 138.5t-128.5 53.5t-130 -53t-51 -137q0 -85 51 -137.5t130 -52.5z" glyph-name="aring" unicode="å"/><glyph d="M956 270q0 -28 -7.5 -39.5t-28.5 -11.5h-369q7 -76 58 -123t137 -47q79 0 141 47q9 7 15 -1l17 -23q7 -10 -4 -21q-66 -63 -175 -63q-82 0 -143 38t-91 103q-27 -65 -83 -103t-132 -38q-107 0 -173.5 72.5t-66.5 184.5q0 111 67.5 184t173.5 73q124 0 189 -93l1 67 q0 14 13 14h34q13 0 13 -14v-55q70 81 184 81q105 0 167.5 -68.5t62.5 -163.5zM726 438q-73 0 -120.5 -44.5t-54.5 -118.5h341q-2 73 -47 118t-119 45zM302 55q79 0 128.5 52t49.5 136q0 85 -49.5 138.5t-128.5 53.5t-130 -53t-51 -137q0 -85 51 -137.5t130 -52.5z" glyph-name="ae" horiz-adv-x="1007" unicode="æ"/><glyph d="M492 90q7 -7 -2 -20q-65 -78 -172 -82l-28 -28q37 -2 62 -22.5t25 -55.5q0 -56 -45 -78.5t-105 -14.5q-9 1 -9 11v25q0 10 11 10q91 -7 91 41q0 26 -26.5 36t-63.5 -2q-12 -3 -12 7v23q0 5 5 12l37 40q-92 16 -150.5 86t-58.5 167q0 110 73 183.5t182 73.5q115 0 183 -82 q9 -13 2 -20l-26 -24q-11 -11 -23 1q-54 58 -133 58q-81 0 -134.5 -53.5t-53.5 -136.5q0 -84 53.5 -137t135.5 -53q79 0 132 57q13 13 24 2z" glyph-name="ccedilla" horiz-adv-x="546" unicode="ç"/><glyph d="M248 569l-55 115q-7 16 9 16h45q11 0 15 -12l54 -115q7 -16 -9 -16h-43q-11 0 -16 12zM526 270q0 -28 -7.5 -39.5t-28.5 -11.5h-369q7 -76 58 -123t137 -47q79 0 141 47q9 7 15 -1l17 -23q7 -10 -4 -21q-66 -63 -175 -63q-117 0 -188 74.5t-71 184.5q0 109 69 182t177 73 q104 0 166.5 -68.5t62.5 -163.5zM296 438q-73 0 -120.5 -44.5t-54.5 -118.5h341q-2 73 -47 118t-119 45z" glyph-name="egrave" horiz-adv-x="577" unicode="è"/><glyph d="M271 557q-16 0 -9 16l54 115q5 12 16 12h44q16 0 9 -16l-55 -115q-4 -12 -15 -12h-44zM526 270q0 -28 -7.5 -39.5t-28.5 -11.5h-369q7 -76 58 -123t137 -47q79 0 141 47q9 7 15 -1l17 -23q7 -10 -4 -21q-66 -63 -175 -63q-117 0 -188 74.5t-71 184.5q0 109 69 182t177 73 q104 0 166.5 -68.5t62.5 -163.5zM296 438q-73 0 -120.5 -44.5t-54.5 -118.5h341q-2 73 -47 118t-119 45z" glyph-name="eacute" horiz-adv-x="577" unicode="é"/><glyph d="M169 574q-7 0 -9 5t2 9l86 104q7 8 16 8h50q9 0 16 -8l86 -104q4 -4 1.5 -9t-8.5 -5h-40q-9 0 -16 8l-64 80l-65 -80q-7 -8 -16 -8h-39zM526 270q0 -28 -7.5 -39.5t-28.5 -11.5h-369q7 -76 58 -123t137 -47q79 0 141 47q9 7 15 -1l17 -23q7 -10 -4 -21q-66 -63 -175 -63 q-117 0 -188 74.5t-71 184.5q0 109 69 182t177 73q104 0 166.5 -68.5t62.5 -163.5zM296 438q-73 0 -120.5 -44.5t-54.5 -118.5h341q-2 73 -47 118t-119 45z" glyph-name="ecircumflex" horiz-adv-x="577" unicode="ê"/><glyph d="M198 621q-18 0 -30.5 12.5t-12.5 29.5t12.5 29.5t30.5 12.5q17 0 30 -12.5t13 -29.5t-13 -29.5t-30 -12.5zM379 621q-17 0 -30 12.5t-13 29.5t13 29.5t30 12.5t30 -12.5t13 -29.5t-13 -29.5t-30 -12.5zM526 270q0 -28 -7.5 -39.5t-28.5 -11.5h-369q7 -76 58 -123t137 -47 q79 0 141 47q9 7 15 -1l17 -23q7 -10 -4 -21q-66 -63 -175 -63q-117 0 -188 74.5t-71 184.5q0 109 69 182t177 73q104 0 166.5 -68.5t62.5 -163.5zM296 438q-73 0 -120.5 -44.5t-54.5 -118.5h341q-2 73 -47 118t-119 45z" glyph-name="edieresis" horiz-adv-x="577" unicode="ë"/><glyph d="M10 700h44q11 0 16 -12l54 -115q7 -16 -9 -16h-43q-11 0 -16 12l-55 115q-7 16 9 16zM73 0q-13 0 -13 14v462q0 14 13 14h46q13 0 13 -14v-462q0 -14 -13 -14h-46z" glyph-name="igrave" horiz-adv-x="192" unicode="ì"/><glyph d="M184 700q16 0 9 -16l-55 -115q-4 -12 -15 -12h-44q-16 0 -9 16l54 115q5 12 16 12h44zM73 0q-13 0 -13 14v462q0 14 13 14h46q13 0 13 -14v-462q0 -14 -13 -14h-46z" glyph-name="iacute" horiz-adv-x="192" unicode="í"/><glyph d="M-23 574q-7 0 -9 5t2 9l86 104q7 8 16 8h50q9 0 16 -8l86 -104q4 -4 1.5 -9t-8.5 -5h-40q-9 0 -16 8l-64 80l-65 -80q-7 -8 -16 -8h-39zM73 0q-13 0 -13 14v462q0 14 13 14h46q13 0 13 -14v-462q0 -14 -13 -14h-46z" glyph-name="icircumflex" horiz-adv-x="192" unicode="î"/><glyph d="M7 621q-18 0 -30.5 12.5t-12.5 29.5t12.5 29.5t30.5 12.5q17 0 30 -12.5t13 -29.5t-13 -29.5t-30 -12.5zM188 621q-17 0 -30 12.5t-13 29.5t13 29.5t30 12.5t30 -12.5t13 -29.5t-13 -29.5t-30 -12.5zM73 0q-13 0 -13 14v462q0 14 13 14h46q13 0 13 -14v-462 q0 -14 -13 -14h-46z" glyph-name="idieresis" horiz-adv-x="192" unicode="ï"/><glyph d="M575 628q16 2 16 -14v-24q0 -14 -14 -16l-26 -4v-556q0 -14 -13 -14h-43q-13 0 -13 14l-1 81q-58 -107 -189 -107q-106 0 -173.5 73t-67.5 184t67.5 184t173.5 73q126 0 187 -105v163l-92 -13q-16 -2 -16 14v24q0 14 14 16l94 13v87q0 14 13 14h46q13 0 13 -14v-76z M302 55q79 0 128.5 52t49.5 136q0 85 -49.5 138.5t-128.5 53.5t-130 -53t-51 -137q0 -85 51 -137.5t130 -52.5z" glyph-name="eth" horiz-adv-x="591" unicode="ð"/><glyph d="M151 633q-11 0 -9 12q4 35 27 54t56 19q36 0 75.5 -32.5t63.5 -32.5q31 0 42 30q3 9 11 9h15q10 0 10 -10q-4 -36 -26.5 -55t-53.5 -19q-39 0 -78.5 32t-63.5 32q-32 0 -43 -30q-3 -9 -11 -9h-15zM308 502q82 0 131.5 -52.5t49.5 -147.5v-288q0 -14 -13 -14h-47 q-12 0 -12 14v281q0 66 -33.5 103t-93.5 37q-62 0 -102 -38t-40 -102v-281q0 -14 -13 -14h-46q-13 0 -13 14v462q0 14 13 14h42q14 0 14 -15l3 -63q50 90 160 90z" glyph-name="ntilde" horiz-adv-x="564" unicode="ñ"/><glyph d="M215 700h45q11 0 15 -12l54 -115q7 -16 -9 -16h-43q-11 0 -16 12l-55 115q-7 16 9 16zM302 -12q-107 0 -179 73.5t-72 183.5t72 183.5t179 73.5t178.5 -74t71.5 -183t-71.5 -183t-178.5 -74zM302 55q78 0 129 53.5t51 136.5t-51 136.5t-129 53.5t-129.5 -53.5 t-51.5 -136.5t51.5 -136.5t129.5 -53.5z" glyph-name="ograve" horiz-adv-x="603" unicode="ò"/><glyph d="M389 700q16 0 9 -16l-55 -115q-4 -12 -15 -12h-44q-16 0 -9 16l54 115q5 12 16 12h44zM302 -12q-107 0 -179 73.5t-72 183.5t72 183.5t179 73.5t178.5 -74t71.5 -183t-71.5 -183t-178.5 -74zM302 55q78 0 129 53.5t51 136.5t-51 136.5t-129 53.5t-129.5 -53.5 t-51.5 -136.5t51.5 -136.5t129.5 -53.5z" glyph-name="oacute" horiz-adv-x="603" unicode="ó"/><glyph d="M182 574q-7 0 -9 5t2 9l86 104q7 8 16 8h50q9 0 16 -8l86 -104q4 -4 1.5 -9t-8.5 -5h-40q-9 0 -16 8l-64 80l-65 -80q-7 -8 -16 -8h-39zM302 -12q-107 0 -179 73.5t-72 183.5t72 183.5t179 73.5t178.5 -74t71.5 -183t-71.5 -183t-178.5 -74zM302 55q78 0 129 53.5 t51 136.5t-51 136.5t-129 53.5t-129.5 -53.5t-51.5 -136.5t51.5 -136.5t129.5 -53.5z" glyph-name="ocircumflex" horiz-adv-x="603" unicode="ô"/><glyph d="M236 718q36 0 75.5 -32.5t63.5 -32.5q31 0 42 30q3 9 11 9h15q10 0 10 -10q-4 -36 -26.5 -55t-53.5 -19t-55.5 16t-45 32t-41.5 16q-32 0 -43 -30q-3 -9 -11 -9h-15q-10 0 -9 12q4 35 27 54t56 19zM302 -12q-107 0 -179 73.5t-72 183.5t72 183.5t179 73.5t178.5 -74 t71.5 -183t-71.5 -183t-178.5 -74zM302 55q78 0 129 53.5t51 136.5t-51 136.5t-129 53.5t-129.5 -53.5t-51.5 -136.5t51.5 -136.5t129.5 -53.5z" glyph-name="otilde" horiz-adv-x="603" unicode="õ"/><glyph d="M212 621q-18 0 -30.5 12.5t-12.5 29.5t12.5 29.5t30.5 12.5q17 0 30 -12.5t13 -29.5t-13 -29.5t-30 -12.5zM393 621q-17 0 -30 12.5t-13 29.5t13 29.5t30 12.5t30 -12.5t13 -29.5t-13 -29.5t-30 -12.5zM302 -12q-107 0 -179 73.5t-72 183.5t72 183.5t179 73.5t178.5 -74 t71.5 -183t-71.5 -183t-178.5 -74zM302 55q78 0 129 53.5t51 136.5t-51 136.5t-129 53.5t-129.5 -53.5t-51.5 -136.5t51.5 -136.5t129.5 -53.5z" glyph-name="odieresis" horiz-adv-x="603" unicode="ö"/><glyph d="M226 378q-21 0 -35.5 14t-14.5 35q0 20 15 35t35 15t35 -15t15 -35q0 -21 -14.5 -35t-35.5 -14zM80 253q-15 0 -15 15v32q0 15 15 15h291q15 0 15 -15v-32q0 -15 -15 -15h-291zM226 97q-21 0 -35.5 14t-14.5 35q0 20 15 35t35 15t35 -15t15 -35q0 -21 -14.5 -35 t-35.5 -14z" glyph-name="divide" horiz-adv-x="451" unicode="÷"/><glyph d="M428 469q57 -34 90.5 -93t33.5 -131q0 -109 -71.5 -183t-178.5 -74q-44 0 -86 14l-28 -61q-6 -11 -16 -11h-21q-17 0 -9 18l33 73q-57 34 -90.5 93t-33.5 131q0 110 72 183.5t179 73.5q45 0 85 -14l27 59q6 11 16 11h22q17 0 9 -18zM121 245q0 -52 22 -95t60 -67l156 343 q-27 9 -57 9q-78 0 -129.5 -53.5t-51.5 -136.5zM302 55q78 0 129 53.5t51 136.5q0 108 -82 162l-156 -343q27 -9 58 -9z" glyph-name="oslash" horiz-adv-x="603" unicode="ø"/><glyph d="M243 569l-55 115q-7 16 9 16h45q11 0 15 -12l54 -115q7 -16 -9 -16h-43q-11 0 -16 12zM476 490q13 0 13 -14v-462q0 -14 -13 -14h-43q-14 0 -14 15l-2 65q-51 -92 -161 -92q-82 0 -131 52.5t-49 147.5v288q0 14 13 14h46q13 0 13 -14v-281q0 -66 33 -103t93 -37 q62 0 102.5 38t40.5 102v281q0 14 12 14h47z" glyph-name="ugrave" horiz-adv-x="565" unicode="ù"/><glyph d="M266 557q-16 0 -9 16l54 115q5 12 16 12h44q16 0 9 -16l-55 -115q-4 -12 -15 -12h-44zM476 490q13 0 13 -14v-462q0 -14 -13 -14h-43q-14 0 -14 15l-2 65q-51 -92 -161 -92q-82 0 -131 52.5t-49 147.5v288q0 14 13 14h46q13 0 13 -14v-281q0 -66 33 -103t93 -37 q62 0 102.5 38t40.5 102v281q0 14 12 14h47z" glyph-name="uacute" horiz-adv-x="565" unicode="ú"/><glyph d="M164 574q-7 0 -9 5t2 9l86 104q7 8 16 8h50q9 0 16 -8l86 -104q4 -4 1.5 -9t-8.5 -5h-40q-9 0 -16 8l-64 80l-65 -80q-7 -8 -16 -8h-39zM476 490q13 0 13 -14v-462q0 -14 -13 -14h-43q-14 0 -14 15l-2 65q-51 -92 -161 -92q-82 0 -131 52.5t-49 147.5v288q0 14 13 14h46 q13 0 13 -14v-281q0 -66 33 -103t93 -37q62 0 102.5 38t40.5 102v281q0 14 12 14h47z" glyph-name="ucircumflex" horiz-adv-x="565" unicode="û"/><glyph d="M194 621q-18 0 -30.5 12.5t-12.5 29.5t12.5 29.5t30.5 12.5q17 0 30 -12.5t13 -29.5t-13 -29.5t-30 -12.5zM375 621q-17 0 -30 12.5t-13 29.5t13 29.5t30 12.5t30 -12.5t13 -29.5t-13 -29.5t-30 -12.5zM476 490q13 0 13 -14v-462q0 -14 -13 -14h-43q-14 0 -14 15l-2 65 q-51 -92 -161 -92q-82 0 -131 52.5t-49 147.5v288q0 14 13 14h46q13 0 13 -14v-281q0 -66 33 -103t93 -37q62 0 102.5 38t40.5 102v281q0 14 12 14h47z" glyph-name="udieresis" horiz-adv-x="565" unicode="ü"/><glyph d="M360 700q16 0 9 -16l-55 -115q-4 -12 -15 -12h-44q-16 0 -9 16l54 115q5 12 16 12h44zM177 -190q-17 0 -10 15l69 173l-188 475q-6 17 11 17h46q12 0 16 -12l151 -398l152 398q5 12 16 12h46q17 0 11 -17l-258 -651q-4 -12 -17 -12h-45z" glyph-name="yacute" horiz-adv-x="545" unicode="ý"/><glyph d="M334 502q107 0 174.5 -73t67.5 -184t-67.5 -184t-174.5 -73q-126 0 -186 102v-266q0 -14 -13 -14h-46q-13 0 -13 14v877q0 14 13 14h46q13 0 13 -14v-303q60 104 186 104zM324 55q80 0 131 52.5t51 137.5q0 84 -51 137t-131 53q-78 0 -127.5 -53.5t-49.5 -138.5 q0 -84 49.5 -136t127.5 -52z" glyph-name="thorn" unicode="þ"/><glyph d="M183 621q-18 0 -30.5 12.5t-12.5 29.5t12.5 29.5t30.5 12.5q17 0 30 -12.5t13 -29.5t-13 -29.5t-30 -12.5zM364 621q-17 0 -30 12.5t-13 29.5t13 29.5t30 12.5t30 -12.5t13 -29.5t-13 -29.5t-30 -12.5zM177 -190q-17 0 -10 15l69 173l-188 475q-6 17 11 17h46 q12 0 16 -12l151 -398l152 398q5 12 16 12h46q17 0 11 -17l-258 -651q-4 -12 -17 -12h-45z" glyph-name="ydieresis" horiz-adv-x="545" unicode="ÿ"/><glyph d="M204 850q-14 0 -14 14v32q0 14 14 14h273q14 0 14 -14v-32q0 -14 -14 -14h-273zM629 17q7 -17 -11 -17h-50q-12 0 -16 12l-51 145h-320l-51 -145q-4 -12 -17 -12h-49q-18 0 -11 17l242 671q5 12 18 12h55q14 0 18 -12zM205 224h272l-136 387z" glyph-name="Amacron" horiz-adv-x="681" unicode="Ā"/><glyph d="M174 640q-14 0 -14 14v32q0 14 14 14h273q14 0 14 -14v-32q0 -14 -14 -14h-273zM538 490q13 0 13 -14v-462q0 -14 -13 -14h-43q-13 0 -13 14l-1 81q-58 -107 -189 -107q-106 0 -173.5 73t-67.5 184t67.5 184t173.5 73q130 0 189 -109l1 83q0 14 13 14h43zM302 55 q79 0 128.5 52t49.5 136q0 85 -49.5 138.5t-128.5 53.5t-130 -53t-51 -137q0 -85 51 -137.5t130 -52.5z" glyph-name="amacron" unicode="ā"/><glyph d="M341 780q-58 0 -94.5 32t-41.5 83q-1 15 14 15h21q13 0 16 -14q6 -30 28.5 -49t56.5 -19t57 19t29 49q3 14 16 14h20q15 0 14 -15q-5 -51 -41.5 -83t-94.5 -32zM629 17q7 -17 -11 -17h-50q-12 0 -16 12l-51 145h-320l-51 -145q-4 -12 -17 -12h-49q-18 0 -11 17l242 671 q5 12 18 12h55q14 0 18 -12zM205 224h272l-136 387z" glyph-name="Abreve" horiz-adv-x="681" unicode="Ă"/><glyph d="M310 570q-58 0 -94.5 32t-41.5 83q-2 15 14 15h21q13 0 16 -14q6 -30 28.5 -49t56.5 -19t57 19t29 49q3 14 16 14h20q16 0 14 -15q-5 -51 -41.5 -83t-94.5 -32zM538 490q13 0 13 -14v-462q0 -14 -13 -14h-43q-13 0 -13 14l-1 81q-58 -107 -189 -107q-106 0 -173.5 73 t-67.5 184t67.5 184t173.5 73q130 0 189 -109l1 83q0 14 13 14h43zM302 55q79 0 128.5 52t49.5 136q0 85 -49.5 138.5t-128.5 53.5t-130 -53t-51 -137q0 -85 51 -137.5t130 -52.5z" glyph-name="abreve" unicode="ă"/><glyph d="M629 17q7 -17 -11 -17h-1q-45 -2 -76 -28.5t-31 -66.5q0 -34 24.5 -49t65.5 -6v-48q-19 -9 -44.5 -8.5t-50 9.5t-41 32t-16.5 57q0 46 29 78.5t72 49.5l-48 137h-320l-51 -145q-4 -12 -17 -12h-49q-18 0 -11 17l242 671q5 12 18 12h55q14 0 18 -12zM205 224h272l-136 387 z" glyph-name="Aogonek" horiz-adv-x="681" unicode="Ą"/><glyph d="M538 490q13 0 13 -14v-462q0 -14 -13 -14h-6q-45 -2 -75.5 -28.5t-30.5 -66.5q0 -35 24 -49.5t66 -5.5v-48q-19 -9 -44.5 -8.5t-50 9.5t-41 32t-16.5 57q0 50 34.5 84.5t83.5 50.5l-1 68q-58 -107 -189 -107q-106 0 -173.5 73t-67.5 184t67.5 184t173.5 73 q130 0 189 -109l1 83q0 14 13 14h43zM302 55q79 0 128.5 52t49.5 136q0 85 -49.5 138.5t-128.5 53.5t-130 -53t-51 -137q0 -85 51 -137.5t130 -52.5z" glyph-name="aogonek" unicode="ą"/><glyph d="M504 910q16 0 9 -16l-55 -115q-4 -12 -15 -12h-44q-16 0 -9 16l54 115q5 12 16 12h44zM421 -13q-154 0 -254.5 103.5t-100.5 256.5t100.5 257t254.5 104q135 0 236 -90q12 -12 3 -24l-28 -31q-10 -10 -22 0q-82 72 -187 72q-121 0 -201 -82t-80 -206t80 -205.5t201 -81.5 q105 0 187 72q12 10 21 1l29 -32q10 -10 -3 -23q-101 -91 -236 -91z" glyph-name="Cacute" horiz-adv-x="726" unicode="Ć"/><glyph d="M383 700q16 0 9 -16l-55 -115q-4 -12 -15 -12h-44q-16 0 -9 16l54 115q5 12 16 12h44zM306 -12q-109 0 -182 73.5t-73 183.5t73 183.5t182 73.5q115 0 183 -82q9 -13 2 -20l-26 -24q-11 -11 -23 1q-54 58 -133 58q-81 0 -134.5 -53.5t-53.5 -136.5q0 -84 53.5 -137 t135.5 -53q79 0 132 57q13 13 24 2l26 -24q7 -7 -2 -20q-68 -82 -184 -82z" glyph-name="cacute" horiz-adv-x="546" unicode="ć"/><glyph d="M417 831q-18 0 -30.5 12.5t-12.5 29.5t12.5 29.5t30.5 12.5q17 0 30 -12.5t13 -29.5t-13 -29.5t-30 -12.5zM421 -13q-154 0 -254.5 103.5t-100.5 256.5t100.5 257t254.5 104q135 0 236 -90q12 -12 3 -24l-28 -31q-10 -10 -22 0q-82 72 -187 72q-121 0 -201 -82t-80 -206 t80 -205.5t201 -81.5q105 0 187 72q12 10 21 1l29 -32q10 -10 -3 -23q-101 -91 -236 -91z" glyph-name="Cdotaccent" horiz-adv-x="726" unicode="Ċ"/><glyph d="M296 621q-18 0 -30.5 12.5t-12.5 29.5t12.5 29.5t30.5 12.5q17 0 30 -12.5t13 -29.5t-13 -29.5t-30 -12.5zM306 -12q-109 0 -182 73.5t-73 183.5t73 183.5t182 73.5q115 0 183 -82q9 -13 2 -20l-26 -24q-11 -11 -23 1q-54 58 -133 58q-81 0 -134.5 -53.5t-53.5 -136.5 q0 -84 53.5 -137t135.5 -53q79 0 132 57q13 13 24 2l26 -24q7 -7 -2 -20q-68 -82 -184 -82z" glyph-name="cdotaccent" horiz-adv-x="546" unicode="ċ"/><glyph d="M297 910h39q9 0 16 -8l65 -80l64 80q7 8 16 8h40q6 0 8.5 -5t-1.5 -9l-86 -104q-7 -8 -16 -8h-50q-9 0 -16 8l-86 104q-4 4 -2 9t9 5zM421 -13q-154 0 -254.5 103.5t-100.5 256.5t100.5 257t254.5 104q135 0 236 -90q12 -12 3 -24l-28 -31q-10 -10 -22 0q-82 72 -187 72 q-121 0 -201 -82t-80 -206t80 -205.5t201 -81.5q105 0 187 72q12 10 21 1l29 -32q10 -10 -3 -23q-101 -91 -236 -91z" glyph-name="Ccaron" horiz-adv-x="726" unicode="Č"/><glyph d="M176 700h39q9 0 16 -8l65 -80l64 80q7 8 16 8h40q6 0 8.5 -5t-1.5 -9l-86 -104q-7 -8 -16 -8h-50q-9 0 -16 8l-86 104q-4 4 -2 9t9 5zM306 -12q-109 0 -182 73.5t-73 183.5t73 183.5t182 73.5q115 0 183 -82q9 -13 2 -20l-26 -24q-11 -11 -23 1q-54 58 -133 58 q-81 0 -134.5 -53.5t-53.5 -136.5q0 -84 53.5 -137t135.5 -53q79 0 132 57q13 13 24 2l26 -24q7 -7 -2 -20q-68 -82 -184 -82z" glyph-name="ccaron" horiz-adv-x="546" unicode="č"/><glyph d="M212 910h39q9 0 16 -8l65 -80l64 80q7 8 16 8h40q6 0 8.5 -5t-1.5 -9l-86 -104q-7 -8 -16 -8h-50q-9 0 -16 8l-86 104q-4 4 -2 9t9 5zM100 0q-14 0 -14 14v672q0 14 14 14h152q176 0 266 -96t90 -254t-90 -254t-266 -96h-152zM161 67h90q142 0 211.5 74t69.5 209 t-69.5 209t-211.5 74h-90v-566z" glyph-name="Dcaron" horiz-adv-x="669" unicode="Ď"/><glyph d="M538 715q13 0 13 -14v-687q0 -14 -13 -14h-43q-13 0 -13 14l-1 81q-58 -107 -189 -107q-106 0 -173.5 73t-67.5 184t67.5 184t173.5 73q126 0 187 -105v304q0 14 13 14h46zM711 687q16 0 9 -16l-54 -115q-5 -12 -16 -12h-44q-16 0 -9 16l54 115q5 12 16 12h44zM302 55 q79 0 128.5 52t49.5 136q0 85 -49.5 138.5t-128.5 53.5t-130 -53t-51 -137q0 -85 51 -137.5t130 -52.5z" glyph-name="dcaron" horiz-adv-x="664" unicode="ď"/><glyph d="M260 700q176 0 266 -96t90 -254t-90 -254t-266 -96h-152q-14 0 -14 14v306h-55q-14 0 -14 14v32q0 14 14 14h55v306q0 14 14 14h152zM259 67q142 0 211.5 74t69.5 209t-69.5 209t-211.5 74h-90v-253h143q14 0 14 -14v-32q0 -14 -14 -14h-143v-253h90z" glyph-name="Dcroat" horiz-adv-x="677" unicode="Đ"/><glyph d="M591 636q14 0 14 -14v-32q0 -14 -14 -14h-40v-562q0 -14 -13 -14h-43q-13 0 -13 14l-1 81q-58 -107 -189 -107q-106 0 -173.5 73t-67.5 184t67.5 184t173.5 73q126 0 187 -105v179h-161q-14 0 -14 14v32q0 14 14 14h161v65q0 14 13 14h46q13 0 13 -14v-65h40zM302 55 q79 0 128.5 52t49.5 136q0 85 -49.5 138.5t-128.5 53.5t-130 -53t-51 -137q0 -85 51 -137.5t130 -52.5z" glyph-name="dcroat" horiz-adv-x="620" unicode="đ"/><glyph d="M410 910q14 0 14 -14v-32q0 -14 -14 -14h-273q-14 0 -14 14v32q0 14 14 14h273zM100 0q-14 0 -14 14v672q0 14 14 14h335q14 0 14 -14v-39q0 -14 -14 -14h-274v-238h260q14 0 14 -14v-39q0 -14 -14 -14h-260v-261h275q14 0 14 -14v-39q0 -14 -14 -14h-336z" glyph-name="Emacron" horiz-adv-x="526" unicode="Ē"/><glyph d="M152 640q-14 0 -14 14v32q0 14 14 14h273q14 0 14 -14v-32q0 -14 -14 -14h-273zM526 270q0 -28 -7.5 -39.5t-28.5 -11.5h-369q7 -76 58 -123t137 -47q79 0 141 47q9 7 15 -1l17 -23q7 -10 -4 -21q-66 -63 -175 -63q-117 0 -188 74.5t-71 184.5q0 109 69 182t177 73 q104 0 166.5 -68.5t62.5 -163.5zM296 438q-73 0 -120.5 -44.5t-54.5 -118.5h341q-2 73 -47 118t-119 45z" glyph-name="emacron" horiz-adv-x="577" unicode="ē"/><glyph d="M273 831q-18 0 -30.5 12.5t-12.5 29.5t12.5 29.5t30.5 12.5q17 0 30 -12.5t13 -29.5t-13 -29.5t-30 -12.5zM100 0q-14 0 -14 14v672q0 14 14 14h335q14 0 14 -14v-39q0 -14 -14 -14h-274v-238h260q14 0 14 -14v-39q0 -14 -14 -14h-260v-261h275q14 0 14 -14v-39 q0 -14 -14 -14h-336z" glyph-name="Edotaccent" horiz-adv-x="526" unicode="Ė"/><glyph d="M288 621q-18 0 -30.5 12.5t-12.5 29.5t12.5 29.5t30.5 12.5q17 0 30 -12.5t13 -29.5t-13 -29.5t-30 -12.5zM526 270q0 -28 -7.5 -39.5t-28.5 -11.5h-369q7 -76 58 -123t137 -47q79 0 141 47q9 7 15 -1l17 -23q7 -10 -4 -21q-66 -63 -175 -63q-117 0 -188 74.5t-71 184.5 q0 109 69 182t177 73q104 0 166.5 -68.5t62.5 -163.5zM296 438q-73 0 -120.5 -44.5t-54.5 -118.5h341q-2 73 -47 118t-119 45z" glyph-name="edotaccent" horiz-adv-x="577" unicode="ė"/><glyph d="M436 67q14 0 14 -14v-39q0 -11 -10 -14q-45 -2 -76 -28.5t-31 -66.5q0 -34 24.5 -49t65.5 -6v-48q-19 -9 -44.5 -8.5t-50 9.5t-41 32t-16.5 57q0 65 62 108h-233q-14 0 -14 14v672q0 14 14 14h335q14 0 14 -14v-39q0 -14 -14 -14h-274v-238h260q14 0 14 -14v-39 q0 -14 -14 -14h-260v-261h275z" glyph-name="Eogonek" horiz-adv-x="526" unicode="Ę"/><glyph d="M526 270q0 -28 -7.5 -39.5t-28.5 -11.5h-369q7 -76 58 -123t137 -47q79 0 141 47q9 7 15 -1l17 -23q7 -10 -4 -21q-49 -46 -120 -58q-73 -31 -73 -90q0 -35 24 -48.5t66 -4.5v-48q-19 -9 -44.5 -8.5t-50 9.5t-41 32t-16.5 56q0 58 52 98q-106 10 -168.5 82.5t-62.5 175.5 q0 109 69 182t177 73q104 0 166.5 -68.5t62.5 -163.5zM296 438q-73 0 -120.5 -44.5t-54.5 -118.5h341q-2 73 -47 118t-119 45z" glyph-name="eogonek" horiz-adv-x="577" unicode="ę"/><glyph d="M153 910h39q9 0 16 -8l65 -80l64 80q7 8 16 8h40q6 0 8.5 -5t-1.5 -9l-86 -104q-7 -8 -16 -8h-50q-9 0 -16 8l-86 104q-4 4 -2 9t9 5zM100 0q-14 0 -14 14v672q0 14 14 14h335q14 0 14 -14v-39q0 -14 -14 -14h-274v-238h260q14 0 14 -14v-39q0 -14 -14 -14h-260v-261h275 q14 0 14 -14v-39q0 -14 -14 -14h-336z" glyph-name="Ecaron" horiz-adv-x="526" unicode="Ě"/><glyph d="M248 582l-86 104q-4 4 -2 9t9 5h39q9 0 16 -8l65 -80l64 80q7 8 16 8h40q6 0 8.5 -5t-1.5 -9l-86 -104q-7 -8 -16 -8h-50q-9 0 -16 8zM526 270q0 -28 -7.5 -39.5t-28.5 -11.5h-369q7 -76 58 -123t137 -47q79 0 141 47q9 7 15 -1l17 -23q7 -10 -4 -21q-66 -63 -175 -63 q-117 0 -188 74.5t-71 184.5q0 109 69 182t177 73q104 0 166.5 -68.5t62.5 -163.5zM296 438q-73 0 -120.5 -44.5t-54.5 -118.5h341q-2 73 -47 118t-119 45z" glyph-name="ecaron" horiz-adv-x="577" unicode="ě"/><glyph d="M421 780q-58 0 -94.5 32t-41.5 83q-1 15 14 15h21q13 0 16 -14q6 -30 28.5 -49t56.5 -19t57 19t29 49q3 14 16 14h20q15 0 14 -15q-5 -51 -41.5 -83t-94.5 -32zM733 363q15 0 15 -15v-31q0 -143 -88.5 -236.5t-234.5 -93.5q-155 0 -257 103.5t-102 256.5t101.5 257 t256.5 104q137 0 236 -94q10 -10 2 -17l-31 -36q-7 -9 -17 -1q-84 75 -190 75q-121 0 -201.5 -82t-80.5 -206t80.5 -205.5t202.5 -81.5q111 0 180.5 66t69.5 169h-240q-14 0 -14 14v41q0 13 14 13h298z" glyph-name="Gbreve" horiz-adv-x="803" unicode="Ğ"/><glyph d="M310 570q-58 0 -94.5 32t-41.5 83q-2 15 14 15h21q13 0 16 -14q6 -30 28.5 -49t56.5 -19t57 19t29 49q3 14 16 14h20q16 0 14 -15q-5 -51 -41.5 -83t-94.5 -32zM532 490q13 0 13 -14v-457q0 -76 -37 -128t-92 -74t-122 -22q-103 0 -171 47q-13 8 -7 20l15 28q7 12 18 5 q61 -38 142 -38q80 0 132 39.5t52 126.5v83q-58 -100 -186 -100q-105 0 -171.5 69.5t-66.5 178.5t66.5 178.5t170.5 69.5q128 0 188 -103l1 77q0 14 12 14h43zM299 72q78 0 126.5 49t48.5 131q0 83 -48.5 133.5t-126.5 50.5q-77 0 -127.5 -50t-50.5 -132t50.5 -132 t127.5 -50z" glyph-name="gbreve" horiz-adv-x="621" unicode="ğ"/><glyph d="M421 831q-18 0 -30.5 12.5t-12.5 29.5t12.5 29.5t30.5 12.5q17 0 30 -12.5t13 -29.5t-13 -29.5t-30 -12.5zM733 363q15 0 15 -15v-31q0 -143 -88.5 -236.5t-234.5 -93.5q-155 0 -257 103.5t-102 256.5t101.5 257t256.5 104q137 0 236 -94q10 -10 2 -17l-31 -36 q-7 -9 -17 -1q-84 75 -190 75q-121 0 -201.5 -82t-80.5 -206t80.5 -205.5t202.5 -81.5q111 0 180.5 66t69.5 169h-240q-14 0 -14 14v41q0 13 14 13h298z" glyph-name="Gdotaccent" horiz-adv-x="803" unicode="Ġ"/><glyph d="M310 621q-18 0 -30.5 12.5t-12.5 29.5t12.5 29.5t30.5 12.5q17 0 30 -12.5t13 -29.5t-13 -29.5t-30 -12.5zM532 490q13 0 13 -14v-457q0 -76 -37 -128t-92 -74t-122 -22q-103 0 -171 47q-13 8 -7 20l15 28q7 12 18 5q61 -38 142 -38q80 0 132 39.5t52 126.5v83 q-58 -100 -186 -100q-105 0 -171.5 69.5t-66.5 178.5t66.5 178.5t170.5 69.5q128 0 188 -103l1 77q0 14 12 14h43zM299 72q78 0 126.5 49t48.5 131q0 83 -48.5 133.5t-126.5 50.5q-77 0 -127.5 -50t-50.5 -132t50.5 -132t127.5 -50z" glyph-name="gdotaccent" horiz-adv-x="621" unicode="ġ"/><glyph d="M733 363q15 0 15 -15v-31q0 -143 -88.5 -236.5t-234.5 -93.5q-155 0 -257 103.5t-102 256.5t101.5 257t256.5 104q137 0 236 -94q10 -10 2 -17l-31 -36q-7 -9 -17 -1q-84 75 -190 75q-121 0 -201.5 -82t-80.5 -206t80.5 -205.5t202.5 -81.5q111 0 180.5 66t69.5 169h-240 q-14 0 -14 14v41q0 13 14 13h298zM419 -28q28 0 47.5 -23.5t19.5 -61.5q0 -52 -35 -91.5t-89 -38.5v27q44 1 64 40q15 29 1 40q-3 2 -8 2q-24 -1 -40 14t-16 38t16.5 38.5t39.5 15.5z" glyph-name="Gcommaaccent" horiz-adv-x="803" unicode="Ģ"/><glyph d="M294 546q-29 0 -48 23t-19 61q0 52 34.5 91.5t88.5 39.5v-27q-44 -1 -64 -41q-14 -29 -1 -40q3 -2 8 -2q25 1 40.5 -13.5t15.5 -38.5q0 -23 -16 -38t-39 -15zM532 490q13 0 13 -14v-457q0 -76 -37 -128t-92 -74t-122 -22q-103 0 -171 47q-13 8 -7 20l15 28q7 12 18 5 q61 -38 142 -38q80 0 132 39.5t52 126.5v83q-58 -100 -186 -100q-105 0 -171.5 69.5t-66.5 178.5t66.5 178.5t170.5 69.5q128 0 188 -103l1 77q0 14 12 14h43zM299 72q78 0 126.5 49t48.5 131q0 83 -48.5 133.5t-126.5 50.5q-77 0 -127.5 -50t-50.5 -132t50.5 -132 t127.5 -50z" glyph-name="gcommaaccent" horiz-adv-x="621" unicode="ģ"/><glyph d="M552 700q14 0 14 -14v-672q0 -14 -14 -14h-47q-14 0 -14 14v300h-330v-300q0 -14 -14 -14h-47q-14 0 -14 14v672q0 14 14 14h47q14 0 14 -14v-140h330v140q0 14 14 14h47zM161 381h330v100h-330v-100z" glyph-name="Hbar" horiz-adv-x="652" unicode="Ħ"/><glyph d="M313 502q82 0 131 -52.5t49 -147.5v-288q0 -14 -13 -14h-46q-13 0 -13 14v281q0 66 -33 103t-93 37q-62 0 -102 -38t-40 -102v-281q0 -14 -13 -14h-47q-12 0 -12 14v561h-52q-14 0 -14 14v32q0 14 14 14h52v66q0 14 12 14h47q13 0 13 -14v-66h149q14 0 14 -14v-32 q0 -14 -14 -14h-149v-163q50 90 160 90z" glyph-name="hbar" horiz-adv-x="569" unicode="ħ"/><glyph d="M260 910q14 0 14 -14v-32q0 -14 -14 -14h-273q-14 0 -14 14v32q0 14 14 14h273zM100 0q-14 0 -14 14v672q0 14 14 14h47q14 0 14 -14v-672q0 -14 -14 -14h-47z" glyph-name="Imacron" horiz-adv-x="246" unicode="Ī"/><glyph d="M233 700q14 0 14 -14v-32q0 -14 -14 -14h-273q-14 0 -14 14v32q0 14 14 14h273zM73 0q-13 0 -13 14v462q0 14 13 14h46q13 0 13 -14v-462q0 -14 -13 -14h-46z" glyph-name="imacron" horiz-adv-x="192" unicode="ī"/><glyph d="M147 700q14 0 14 -14v-672q0 -14 -14 -14h-1q-45 -2 -76 -28.5t-31 -66.5q0 -34 24.5 -49t65.5 -6v-48q-19 -9 -44.5 -8.5t-50 9.5t-41 32t-16.5 57q0 48 31.5 81.5t77.5 50.5v662q0 14 14 14h47z" glyph-name="Iogonek" horiz-adv-x="246" unicode="Į"/><glyph d="M97 621q-18 0 -30.5 12.5t-12.5 29.5t12.5 29.5t30.5 12.5q17 0 30 -12.5t13 -29.5t-13 -29.5t-30 -12.5zM119 490q13 0 13 -14v-462q0 -14 -13 -14h-1q-45 -2 -76 -28.5t-31 -66.5q0 -34 24.5 -49t65.5 -6v-48q-19 -9 -44.5 -8.5t-50 9.5t-41 32t-16.5 57q0 48 32.5 82 t78.5 50v452q0 14 13 14h46z" glyph-name="iogonek" horiz-adv-x="192" unicode="į"/><glyph d="M123 831q-18 0 -30.5 12.5t-12.5 29.5t12.5 29.5t30.5 12.5q17 0 30 -12.5t13 -29.5t-13 -29.5t-30 -12.5zM100 0q-14 0 -14 14v672q0 14 14 14h47q14 0 14 -14v-672q0 -14 -14 -14h-47z" glyph-name="Idotaccent" horiz-adv-x="246" unicode="İ"/><glyph d="M73 0q-13 0 -13 14v462q0 14 13 14h46q13 0 13 -14v-462q0 -14 -13 -14h-46z" glyph-name="dotlessi" horiz-adv-x="192" unicode="ı"/><glyph d="M100 0q-14 0 -14 14v672q0 14 14 14h47q14 0 14 -14v-672q0 -14 -14 -14h-47zM461 -13q-94 0 -156 68q-8 11 1 20l25 33q9 10 18 1q18 -16 30 -24.5t34 -16.5t47 -8q127 0 127 167v459q0 14 14 14h47q14 0 14 -14v-461q0 -116 -54 -177t-147 -61z" glyph-name="IJ" horiz-adv-x="748" unicode="Ĳ"/><glyph d="M112 617q-19 0 -32 13t-13 32t13 32.5t32 13.5t32 -13.5t13 -32.5t-13 -32t-32 -13zM345 617q-19 0 -32 13t-13 32t13 32.5t32 13.5t32 -13.5t13 -32.5t-13 -32t-32 -13zM89 0q-13 0 -13 14v462q0 14 13 14h46q13 0 13 -14v-462q0 -14 -13 -14h-46zM253 -200q-31 0 -48 8 q-9 4 -9 13v41q0 9 12 7q20 -3 33 -3q39 0 53.5 21t14.5 59v530q0 14 13 14h46q13 0 13 -14v-546q0 -130 -128 -130z" glyph-name="ij" horiz-adv-x="457" unicode="ĳ"/><glyph d="M564 18q5 -8 2.5 -13t-11.5 -5h-55q-12 0 -18 9l-232 308l-89 -114v-189q0 -14 -14 -14h-47q-14 0 -14 14v672q0 14 14 14h47q14 0 14 -14v-381l290 387q7 8 18 8h59q10 0 12 -5t-4 -13l-240 -307zM275 -28q28 0 47.5 -23.5t19.5 -61.5q0 -52 -35 -91.5t-89 -38.5v27 q44 1 64 40q15 29 1 40q-3 2 -8 2q-24 -1 -40 14t-16 38t16.5 38.5t39.5 15.5z" glyph-name="Kcommaaccent" horiz-adv-x="613" unicode="Ķ"/><glyph d="M485 16q5 -6 2.5 -11t-11.5 -5h-49q-12 0 -18 9l-176 224l-85 -91v-128q0 -14 -13 -14h-46q-13 0 -13 14v687q0 14 13 14h46q13 0 13 -14v-470l230 251q7 8 17 8h58q8 0 9.5 -5t-4.5 -10l-181 -194zM278 -28q28 0 47.5 -23.5t19.5 -61.5q0 -52 -35 -91.5t-89 -38.5v27 q44 1 64 40q15 29 1 40q-3 2 -8 2q-24 -1 -40 14t-16 38t16.5 38.5t39.5 15.5z" glyph-name="kcommaaccent" horiz-adv-x="529" unicode="ķ"/><glyph d="M109 735q-16 0 -9 16l54 115q5 12 16 12h44q16 0 9 -16l-54 -115q-5 -12 -16 -12h-44zM415 67q15 0 15 -15v-37q0 -15 -15 -15h-315q-14 0 -14 14v672q0 14 14 14h47q14 0 14 -14v-619h254z" glyph-name="Lacute" horiz-adv-x="484" unicode="Ĺ"/><glyph d="M200 926q16 0 9 -16l-55 -115q-4 -12 -15 -12h-44q-16 0 -9 16l54 115q5 12 16 12h44zM89 0q-13 0 -13 14v687q0 14 13 14h46q13 0 13 -14v-687q0 -14 -13 -14h-46z" glyph-name="lacute" horiz-adv-x="223" unicode="ĺ"/><glyph d="M415 67q15 0 15 -15v-37q0 -15 -15 -15h-315q-14 0 -14 14v672q0 14 14 14h47q14 0 14 -14v-619h254zM260 -28q28 0 47.5 -23.5t19.5 -61.5q0 -52 -35 -91.5t-89 -38.5v27q44 1 64 40q15 29 1 40q-3 2 -8 2q-24 -1 -40 14t-16 38t16.5 38.5t39.5 15.5z" glyph-name="Lcommaaccent" horiz-adv-x="485" unicode="Ļ"/><glyph d="M89 0q-13 0 -13 14v687q0 14 13 14h46q13 0 13 -14v-687q0 -14 -13 -14h-46zM66 -243v27q44 1 64 40q15 29 1 40q-3 2 -8 2q-24 -1 -40 14t-16 38t16.5 38.5t39.5 15.5q28 0 47.5 -23.5t19.5 -61.5q0 -52 -35 -91.5t-89 -38.5z" glyph-name="lcommaaccent" horiz-adv-x="223" unicode="ļ"/><glyph d="M367 625q0 -52 -35 -91.5t-89 -38.5v27q45 1 65 41q14 29 0 40q-3 2 -8 2q-25 -1 -40.5 13.5t-15.5 37.5t16.5 38.5t39.5 15.5q28 0 47.5 -23.5t19.5 -61.5zM415 67q15 0 15 -15v-37q0 -15 -15 -15h-315q-14 0 -14 14v672q0 14 14 14h47q14 0 14 -14v-619h254z" glyph-name="Lcaron" horiz-adv-x="485" unicode="Ľ"/><glyph d="M183 535v27q45 1 65 41q14 29 0 40q-3 2 -8 2q-24 -1 -39.5 13.5t-15.5 37.5q0 24 16 39t39 15q28 0 47.5 -23.5t19.5 -61.5q0 -52 -35 -91.5t-89 -38.5zM89 0q-13 0 -13 14v687q0 14 13 14h46q13 0 13 -14v-687q0 -14 -13 -14h-46z" glyph-name="lcaron" horiz-adv-x="308" unicode="ľ"/><glyph d="M415 67q15 0 15 -15v-37q0 -15 -15 -15h-315q-14 0 -14 14v672q0 14 14 14h47q14 0 14 -14v-619h254zM325 325q-21 0 -36 14.5t-15 36.5q0 21 15 36.5t36 15.5q22 0 37 -15.5t15 -36.5q0 -22 -15 -36.5t-37 -14.5z" glyph-name="Ldot" horiz-adv-x="483" unicode="Ŀ"/><glyph d="M89 0q-13 0 -13 14v687q0 14 13 14h46q13 0 13 -14v-687q0 -14 -13 -14h-46zM238 323q-21 0 -36.5 15t-15.5 36t15.5 36.5t36.5 15.5t36.5 -15.5t15.5 -36.5t-15.5 -36t-36.5 -15z" glyph-name="ldot" horiz-adv-x="231" unicode="ŀ"/><glyph d="M430 67q15 0 15 -15v-37q0 -15 -15 -15h-315q-13 0 -13 14v238l-54 -52q-8 -7 -13 -4.5t-5 12.5v47q0 11 8 19l64 62v350q0 14 13 14h47q14 0 14 -14v-279l95 92q7 7 12.5 4.5t5.5 -12.5v-46q0 -11 -8 -19l-105 -102v-257h254z" glyph-name="Lslash" horiz-adv-x="501" unicode="Ł"/><glyph d="M256 465l-95 -103v-348q0 -14 -13 -14h-46q-13 0 -13 14v269l-94 -102v55l94 102v363q0 14 13 14h46q13 0 13 -14v-284l94 102z" glyph-name="lslash" horiz-adv-x="251" unicode="ł"/><glyph d="M317 767q-16 0 -9 16l54 115q5 12 16 12h44q16 0 9 -16l-55 -115q-4 -12 -15 -12h-44zM569 700q14 0 14 -14v-672q0 -14 -14 -14h-64q-12 0 -18 10l-326 583v-579q0 -14 -14 -14h-47q-14 0 -14 14v672q0 14 14 14h64q12 0 18 -10l326 -583v579q0 14 14 14h47z" glyph-name="Nacute" horiz-adv-x="669" unicode="Ń"/><glyph d="M272 557q-16 0 -9 16l54 115q5 12 16 12h44q16 0 9 -16l-55 -115q-4 -12 -15 -12h-44zM308 502q82 0 131.5 -52.5t49.5 -147.5v-288q0 -14 -13 -14h-47q-12 0 -12 14v281q0 66 -33.5 103t-93.5 37q-62 0 -102 -38t-40 -102v-281q0 -14 -13 -14h-46q-13 0 -13 14v462 q0 14 13 14h42q14 0 14 -15l3 -63q50 90 160 90z" glyph-name="nacute" horiz-adv-x="564" unicode="ń"/><glyph d="M569 700q14 0 14 -14v-672q0 -14 -14 -14h-64q-12 0 -18 10l-326 583v-579q0 -14 -14 -14h-47q-14 0 -14 14v672q0 14 14 14h64q12 0 18 -10l326 -583v579q0 14 14 14h47zM345 -28q28 0 47.5 -23.5t19.5 -61.5q0 -52 -35 -91.5t-89 -38.5v27q44 1 64 40q15 29 1 40 q-3 2 -8 2q-24 -1 -40 14t-16 38t16.5 38.5t39.5 15.5z" glyph-name="Ncommaaccent" horiz-adv-x="669" unicode="Ņ"/><glyph d="M308 502q82 0 131.5 -52.5t49.5 -147.5v-288q0 -14 -13 -14h-47q-12 0 -12 14v281q0 66 -33.5 103t-93.5 37q-62 0 -102 -38t-40 -102v-281q0 -14 -13 -14h-46q-13 0 -13 14v462q0 14 13 14h42q14 0 14 -15l3 -63q50 90 160 90zM300 -28q28 0 47.5 -23.5t19.5 -61.5 q0 -52 -35 -91.5t-89 -38.5v27q44 1 64 40q15 29 1 40q-3 2 -8 2q-24 -1 -40 14t-16 38t16.5 38.5t39.5 15.5z" glyph-name="ncommaaccent" horiz-adv-x="564" unicode="ņ"/><glyph d="M294 792l-86 104q-4 4 -2 9t9 5h39q9 0 16 -8l65 -80l64 80q7 8 16 8h40q6 0 8.5 -5t-1.5 -9l-86 -104q-7 -8 -16 -8h-50q-9 0 -16 8zM569 700q14 0 14 -14v-672q0 -14 -14 -14h-64q-12 0 -18 10l-326 583v-579q0 -14 -14 -14h-47q-14 0 -14 14v672q0 14 14 14h64 q12 0 18 -10l326 -583v579q0 14 14 14h47z" glyph-name="Ncaron" horiz-adv-x="669" unicode="Ň"/><glyph d="M249 582l-86 104q-4 4 -2 9t9 5h39q9 0 16 -8l65 -80l64 80q7 8 16 8h40q6 0 8.5 -5t-1.5 -9l-86 -104q-7 -8 -16 -8h-50q-9 0 -16 8zM308 502q82 0 131.5 -52.5t49.5 -147.5v-288q0 -14 -13 -14h-47q-12 0 -12 14v281q0 66 -33.5 103t-93.5 37q-62 0 -102 -38t-40 -102 v-281q0 -14 -13 -14h-46q-13 0 -13 14v462q0 14 13 14h42q14 0 14 -15l3 -63q50 90 160 90z" glyph-name="ncaron" horiz-adv-x="564" unicode="ň"/><glyph d="M569 700q14 0 14 -14v-685q0 -116 -54 -177t-147 -61q-94 0 -156 68q-8 11 0 20l26 33q9 10 18 1q18 -16 30 -24.5t34 -16.5t47 -8q126 0 127 164h-3q-12 0 -18 10l-326 583v-579q0 -14 -14 -14h-47q-14 0 -14 14v672q0 14 14 14h64q12 0 18 -10l326 -583v579q0 14 14 14 h47z" glyph-name="Eng" horiz-adv-x="669" unicode="Ŋ"/><glyph d="M308 502q82 0 131.5 -52.5t49.5 -147.5v-309q0 -93 -42 -142t-119 -49q-10 0 -10 9l-13 46q-4 11 9 11q103 0 103 142v285q0 66 -33.5 103t-93.5 37q-62 0 -102 -38t-40 -102v-281q0 -14 -13 -14h-46q-13 0 -13 14v462q0 14 13 14h42q14 0 14 -15l3 -63q50 90 160 90z " glyph-name="eng" horiz-adv-x="564" unicode="ŋ"/><glyph d="M560 910q14 0 14 -14v-32q0 -14 -14 -14h-273q-14 0 -14 14v32q0 14 14 14h273zM424 -13q-151 0 -254.5 104t-103.5 256t103.5 256.5t254.5 104.5t254.5 -104.5t103.5 -256.5t-103.5 -256t-254.5 -104zM424 60q120 0 201 82t81 205t-81 205.5t-201 82.5 q-121 0 -201.5 -82t-80.5 -206q0 -123 80.5 -205t201.5 -82z" glyph-name="Omacron" horiz-adv-x="847" unicode="Ō"/><glyph d="M438 700q14 0 14 -14v-32q0 -14 -14 -14h-273q-14 0 -14 14v32q0 14 14 14h273zM302 -12q-107 0 -179 73.5t-72 183.5t72 183.5t179 73.5t178.5 -74t71.5 -183t-71.5 -183t-178.5 -74zM302 55q78 0 129 53.5t51 136.5t-51 136.5t-129 53.5t-129.5 -53.5t-51.5 -136.5 t51.5 -136.5t129.5 -53.5z" glyph-name="omacron" horiz-adv-x="603" unicode="ō"/><glyph d="M440 910q16 0 9 -16l-55 -115q-4 -12 -15 -12h-44q-16 0 -9 16l54 115q5 12 16 12h44zM573 910q16 0 9 -16l-55 -115q-5 -12 -16 -12h-44q-15 0 -8 16l53 115q5 12 16 12h45zM424 -13q-151 0 -254.5 104t-103.5 256t103.5 256.5t254.5 104.5t254.5 -104.5t103.5 -256.5 t-103.5 -256t-254.5 -104zM424 60q120 0 201 82t81 205t-81 205.5t-201 82.5q-121 0 -201.5 -82t-80.5 -206q0 -123 80.5 -205t201.5 -82z" glyph-name="Ohungarumlaut" horiz-adv-x="847" unicode="Ő"/><glyph d="M318 700q16 0 9 -16l-55 -115q-4 -12 -15 -12h-44q-16 0 -9 16l54 115q5 12 16 12h44zM451 700q16 0 9 -16l-55 -115q-5 -12 -16 -12h-44q-15 0 -8 16l53 115q5 12 16 12h45zM302 -12q-107 0 -179 73.5t-72 183.5t72 183.5t179 73.5t178.5 -74t71.5 -183t-71.5 -183 t-178.5 -74zM302 55q78 0 129 53.5t51 136.5t-51 136.5t-129 53.5t-129.5 -53.5t-51.5 -136.5t51.5 -136.5t129.5 -53.5z" glyph-name="ohungarumlaut" horiz-adv-x="603" unicode="ő"/><glyph d="M1057 67q14 0 14 -14v-39q0 -14 -14 -14h-336q-14 0 -14 14v110q-50 -64 -123.5 -100.5t-159.5 -36.5q-151 0 -254.5 104t-103.5 256t103.5 256.5t254.5 104.5q86 0 159.5 -36.5t123.5 -100.5v115q0 14 14 14h335q14 0 14 -14v-39q0 -14 -14 -14h-274v-238h260 q14 0 14 -14v-39q0 -14 -14 -14h-260v-261h275zM424 60q120 0 201 82t81 205t-81 205.5t-201 82.5q-121 0 -201.5 -82t-80.5 -206q0 -123 80.5 -205t201.5 -82z" glyph-name="OE" horiz-adv-x="1146" unicode="Œ"/><glyph d="M959 270q0 -28 -7.5 -39.5t-29.5 -11.5h-369q7 -76 58 -123t137 -47q80 0 142 47q9 7 15 -1l17 -23q7 -10 -4 -21q-66 -63 -175 -63q-76 0 -134.5 33t-90.5 90q-33 -57 -89.5 -90t-126.5 -33q-107 0 -179 73.5t-72 183.5t72 183.5t179 73.5q69 0 125 -32.5t89 -88.5 q31 56 87 88.5t126 32.5q105 0 167.5 -68.5t62.5 -163.5zM729 438q-73 0 -121 -44.5t-55 -118.5h341q-2 73 -47 118t-118 45zM302 55q78 0 129 53.5t51 136.5t-51 136.5t-129 53.5t-129.5 -53.5t-51.5 -136.5t51.5 -136.5t129.5 -53.5z" glyph-name="oe" horiz-adv-x="1009" unicode="œ"/><glyph d="M266 767q-16 0 -9 16l54 115q5 12 16 12h44q16 0 9 -16l-55 -115q-4 -12 -15 -12h-44zM520 18q11 -18 -10 -18h-50q-12 0 -18 10l-169 255h-112v-251q0 -14 -14 -14h-47q-14 0 -14 14v672q0 14 14 14h191q110 0 170 -60t60 -158q0 -83 -44 -140t-127 -72zM161 633v-301 h124q74 0 118.5 36t44.5 114q0 79 -44.5 115t-118.5 36h-124z" glyph-name="Racute" horiz-adv-x="579" unicode="Ŕ"/><glyph d="M168 557q-16 0 -9 16l54 115q5 12 16 12h44q16 0 9 -16l-55 -115q-4 -12 -15 -12h-44zM305 492q8 -5 8 -17v-34q0 -15 -18 -10q-16 5 -35 5q-59 0 -85.5 -41t-26.5 -93v-288q0 -14 -13 -14h-46q-13 0 -13 14v462q0 14 13 14h42q14 0 14 -15l2 -56q34 83 113 83 q30 0 45 -10z" glyph-name="racute" horiz-adv-x="354" unicode="ŕ"/><glyph d="M520 18q11 -18 -10 -18h-50q-12 0 -18 10l-169 255h-112v-251q0 -14 -14 -14h-47q-14 0 -14 14v672q0 14 14 14h191q110 0 170 -60t60 -158q0 -83 -44 -140t-127 -72zM161 633v-301h124q74 0 118.5 36t44.5 114q0 79 -44.5 115t-118.5 36h-124zM294 -28q28 0 47.5 -23.5 t19.5 -61.5q0 -52 -35 -91.5t-89 -38.5v27q44 1 64 40q15 29 1 40q-3 2 -8 2q-24 -1 -40 14t-16 38t16.5 38.5t39.5 15.5z" glyph-name="Rcommaaccent" horiz-adv-x="579" unicode="Ŗ"/><glyph d="M305 492q8 -5 8 -17v-34q0 -15 -18 -10q-16 5 -35 5q-59 0 -85.5 -41t-26.5 -93v-288q0 -14 -13 -14h-46q-13 0 -13 14v462q0 14 13 14h42q14 0 14 -15l2 -56q34 83 113 83q30 0 45 -10zM123 -28q28 0 47.5 -23.5t19.5 -61.5q0 -52 -35 -91.5t-89 -38.5v27q44 1 64 40 q15 29 1 40q-3 2 -8 2q-24 -1 -40 14t-16 38t16.5 38.5t39.5 15.5z" glyph-name="rcommaaccent" horiz-adv-x="354" unicode="ŗ"/><glyph d="M243 792l-86 104q-4 4 -2 9t9 5h39q9 0 16 -8l65 -80l64 80q7 8 16 8h40q6 0 8.5 -5t-1.5 -9l-86 -104q-7 -8 -16 -8h-50q-9 0 -16 8zM520 18q11 -18 -10 -18h-50q-12 0 -18 10l-169 255h-112v-251q0 -14 -14 -14h-47q-14 0 -14 14v672q0 14 14 14h191q110 0 170 -60 t60 -158q0 -83 -44 -140t-127 -72zM161 633v-301h124q74 0 118.5 36t44.5 114q0 79 -44.5 115t-118.5 36h-124z" glyph-name="Rcaron" horiz-adv-x="579" unicode="Ř"/><glyph d="M306 700q6 0 8.5 -5t-1.5 -9l-86 -104q-7 -8 -16 -8h-50q-9 0 -16 8l-86 104q-4 4 -2 9t9 5h39q9 0 16 -8l65 -80l64 80q7 8 16 8h40zM305 492q8 -5 8 -17v-34q0 -15 -18 -10q-16 5 -35 5q-59 0 -85.5 -41t-26.5 -93v-288q0 -14 -13 -14h-46q-13 0 -13 14v462q0 14 13 14 h42q14 0 14 -15l2 -56q34 83 113 83q30 0 45 -10z" glyph-name="rcaron" horiz-adv-x="354" unicode="ř"/><glyph d="M345 910q16 0 9 -16l-55 -115q-4 -12 -15 -12h-44q-16 0 -9 16l54 115q5 12 16 12h44zM268 -12q-139 0 -208 104q-8 13 1 21l24 27q12 12 23 -1q63 -82 160 -82q67 0 105 33t38 88q0 52 -31 81.5t-96 61.5l-85 41q-123 58 -123 171q0 79 55 127t139 48q113 0 186 -89 q10 -11 -2 -25l-21 -24q-11 -12 -23 0q-60 69 -138 69q-54 0 -88.5 -27.5t-34.5 -77.5q0 -38 22 -64.5t69 -49.5l83 -41q37 -18 61 -33t49.5 -39t38 -56t12.5 -72q0 -88 -60.5 -139.5t-155.5 -51.5z" glyph-name="Sacute" horiz-adv-x="539" unicode="Ś"/><glyph d="M304 700q16 0 9 -16l-55 -115q-4 -12 -15 -12h-44q-16 0 -9 16l54 115q5 12 16 12h44zM220 -12q-102 0 -159 74q-10 11 -1 25l15 20q10 13 23 0q52 -56 120 -56q44 0 71 20t27 57q0 32 -19.5 52t-57.5 36l-58 24q-110 46 -110 131q0 59 43.5 95t106.5 36q89 0 143 -68 q9 -10 -1 -22l-16 -18q-11 -13 -24 0q-46 47 -99 47q-36 0 -60 -17.5t-24 -50.5q0 -32 20 -50t64 -36l48 -20q55 -22 85 -53.5t30 -84.5q0 -66 -48.5 -103.5t-118.5 -37.5z" glyph-name="sacute" horiz-adv-x="443" unicode="ś"/><glyph d="M280 -12l-28 -28q37 -2 62 -22.5t25 -55.5q0 -56 -45 -78.5t-105 -14.5q-9 1 -9 11v25q0 10 11 10q91 -7 91 41q0 26 -26.5 36t-63.5 -2q-12 -3 -12 7v23q0 5 5 12l36 40q-104 15 -161 100q-8 13 1 21l24 27q12 12 23 -1q63 -82 160 -82q67 0 105 33t38 88q0 52 -31 81.5 t-96 61.5l-85 41q-123 58 -123 171q0 79 55 127t139 48q113 0 186 -89q10 -11 -2 -25l-21 -24q-11 -12 -23 0q-60 69 -138 69q-54 0 -88.5 -27.5t-34.5 -77.5q0 -38 22 -64.5t69 -49.5l83 -41q37 -18 61 -33t49.5 -39t38 -56t12.5 -72q0 -85 -56.5 -136.5t-147.5 -54.5z" glyph-name="Scedilla" horiz-adv-x="539" unicode="Ş"/><glyph d="M239 -11l-28 -29q37 -2 62 -22.5t25 -55.5q0 -56 -45 -78.5t-105 -14.5q-9 1 -9 11v25q0 10 11 10q91 -7 91 41q0 26 -26.5 36t-63.5 -2q-12 -3 -12 7v23q0 5 5 12l36 39q-76 15 -119 71q-10 11 -1 25l15 20q10 13 23 0q52 -56 120 -56q44 0 71 20t27 57q0 32 -19.5 52 t-57.5 36l-58 24q-110 46 -110 131q0 59 43.5 95t106.5 36q89 0 143 -68q9 -10 -1 -22l-16 -18q-11 -13 -24 0q-46 47 -99 47q-36 0 -60 -17.5t-24 -50.5q0 -32 20 -50t64 -36l48 -20q55 -22 85 -53.5t30 -84.5q0 -61 -42.5 -98t-105.5 -42z" glyph-name="scedilla" horiz-adv-x="443" unicode="ş"/><glyph d="M138 910h39q9 0 16 -8l65 -80l64 80q7 8 16 8h40q6 0 8.5 -5t-1.5 -9l-86 -104q-7 -8 -16 -8h-50q-9 0 -16 8l-86 104q-4 4 -2 9t9 5zM268 -12q-139 0 -208 104q-8 13 1 21l24 27q12 12 23 -1q63 -82 160 -82q67 0 105 33t38 88q0 52 -31 81.5t-96 61.5l-85 41 q-123 58 -123 171q0 79 55 127t139 48q113 0 186 -89q10 -11 -2 -25l-21 -24q-11 -12 -23 0q-60 69 -138 69q-54 0 -88.5 -27.5t-34.5 -77.5q0 -38 22 -64.5t69 -49.5l83 -41q37 -18 61 -33t49.5 -39t38 -56t12.5 -72q0 -88 -60.5 -139.5t-155.5 -51.5z" glyph-name="Scaron" horiz-adv-x="539" unicode="Š"/><glyph d="M97 700h39q9 0 16 -8l65 -80l64 80q7 8 16 8h40q6 0 8.5 -5t-1.5 -9l-86 -104q-7 -8 -16 -8h-50q-9 0 -16 8l-86 104q-4 4 -2 9t9 5zM220 -12q-102 0 -159 74q-10 11 -1 25l15 20q10 13 23 0q52 -56 120 -56q44 0 71 20t27 57q0 32 -19.5 52t-57.5 36l-58 24 q-110 46 -110 131q0 59 43.5 95t106.5 36q89 0 143 -68q9 -10 -1 -22l-16 -18q-11 -13 -24 0q-46 47 -99 47q-36 0 -60 -17.5t-24 -50.5q0 -32 20 -50t64 -36l48 -20q55 -22 85 -53.5t30 -84.5q0 -66 -48.5 -103.5t-118.5 -37.5z" glyph-name="scaron" horiz-adv-x="443" unicode="š"/><glyph d="M454 700q14 0 14 -14v-39q0 -14 -14 -14h-150v-619q0 -14 -14 -14h10l-39 -40q37 -2 62 -22.5t25 -55.5q0 -56 -45 -78.5t-105 -14.5q-9 1 -9 11v25q0 10 11 10q91 -7 91 41q0 26 -26.5 36t-63.5 -2q-12 -3 -12 7v23q0 5 5 12l44 48h5q-14 0 -14 14v619h-149 q-14 0 -14 14v39q0 14 14 14h374z" glyph-name="Tcommaaccent" horiz-adv-x="534" unicode="Ţ"/><glyph d="M211 -40q37 -2 62 -22.5t25 -55.5q0 -56 -45 -78.5t-105 -14.5q-9 1 -9 11v25q0 10 11 10q91 -7 91 41q0 26 -26.5 36t-63.5 -2q-12 -3 -12 7v23q0 5 5 12l39 42q-59 20 -59 100v336h-64q-14 0 -14 14v32q0 14 14 14h64v116q0 14 13 14h46q13 0 13 -14v-116h83 q14 0 14 -14v-32q0 -14 -14 -14h-83v-327q0 -52 45 -52q13 0 31 2q19 3 19 -13v-30q0 -20 -52 -22z" glyph-name="tcommaaccent" horiz-adv-x="339" unicode="ţ"/><glyph d="M147 910h39q9 0 16 -8l65 -80l64 80q7 8 16 8h40q6 0 8.5 -5t-1.5 -9l-86 -104q-7 -8 -16 -8h-50q-9 0 -16 8l-86 104q-4 4 -2 9t9 5zM243 0q-14 0 -14 14v619h-149q-14 0 -14 14v39q0 14 14 14h374q14 0 14 -14v-39q0 -14 -14 -14h-150v-619q0 -14 -14 -14h-47z" glyph-name="Tcaron" horiz-adv-x="534" unicode="Ť"/><glyph d="M358 673q16 0 9 -16l-55 -115q-5 -12 -16 -12h-43q-16 0 -9 16l53 115q5 12 16 12h45zM279 490q14 0 14 -14v-32q0 -14 -14 -14h-83v-327q0 -52 45 -52q13 0 31 2q19 3 19 -13v-30q0 -22 -63 -22q-104 0 -104 106v336h-64q-14 0 -14 14v32q0 14 14 14h64v116q0 14 13 14 h46q13 0 13 -14v-116h83z" glyph-name="tcaron" horiz-adv-x="368" unicode="ť"/><glyph d="M454 700q14 0 14 -14v-39q0 -14 -14 -14h-150v-143h99q14 0 14 -14v-32q0 -14 -14 -14h-99v-416q0 -14 -14 -14h-47q-14 0 -14 14v416h-99q-13 0 -13 14v32q0 14 13 14h99v143h-149q-14 0 -14 14v39q0 14 14 14h374z" glyph-name="Tbar" horiz-adv-x="534" unicode="Ŧ"/><glyph d="M279 430h-83v-74h82q15 0 15 -15v-32q0 -15 -15 -15h-82v-191q0 -52 45 -52q13 0 31 2q19 3 19 -13v-30q0 -22 -63 -22q-104 0 -104 106v200h-63q-15 0 -15 15v32q0 15 15 15h63v74h-64q-14 0 -14 14v32q0 14 14 14h64v116q0 14 13 14h46q13 0 13 -14v-116h83 q14 0 14 -14v-32q0 -14 -14 -14z" glyph-name="tbar" horiz-adv-x="339" unicode="ŧ"/><glyph d="M249 928q36 0 75.5 -32.5t63.5 -32.5q31 0 42 30q3 9 11 9h15q10 0 10 -10q-4 -36 -26.5 -55t-53.5 -19q-38 0 -78 32t-64 32q-32 0 -43 -30q-3 -9 -11 -9h-15q-11 0 -9 12q4 35 27 54t56 19zM314 -13q-106 0 -169.5 64t-63.5 179v456q0 14 14 14h47q14 0 14 -14v-447 q0 -89 43 -134t115 -45q73 0 116 45t43 134v447q0 14 14 14h47q14 0 14 -14v-456q0 -115 -63.5 -179t-170.5 -64z" glyph-name="Utilde" horiz-adv-x="629" unicode="Ũ"/><glyph d="M144 633q-10 0 -9 12q4 35 27 54t56 19q36 0 75.5 -32.5t63.5 -32.5q31 0 42 30q3 9 11 9h15q10 0 10 -10q-4 -36 -26.5 -55t-53.5 -19t-55.5 16t-45 32t-41.5 16q-32 0 -43 -30q-3 -9 -11 -9h-15zM476 490q13 0 13 -14v-462q0 -14 -13 -14h-43q-14 0 -14 15l-2 65 q-51 -92 -161 -92q-82 0 -131 52.5t-49 147.5v288q0 14 13 14h46q13 0 13 -14v-281q0 -66 33 -103t93 -37q62 0 102.5 38t40.5 102v281q0 14 12 14h47z" glyph-name="utilde" horiz-adv-x="565" unicode="ũ"/><glyph d="M451 910q14 0 14 -14v-32q0 -14 -14 -14h-273q-14 0 -14 14v32q0 14 14 14h273zM314 -13q-106 0 -169.5 64t-63.5 179v456q0 14 14 14h47q14 0 14 -14v-447q0 -89 43 -134t115 -45q73 0 116 45t43 134v447q0 14 14 14h47q14 0 14 -14v-456q0 -115 -63.5 -179t-170.5 -64z " glyph-name="Umacron" horiz-adv-x="629" unicode="Ū"/><glyph d="M147 640q-14 0 -14 14v32q0 14 14 14h273q14 0 14 -14v-32q0 -14 -14 -14h-273zM476 490q13 0 13 -14v-462q0 -14 -13 -14h-43q-14 0 -14 15l-2 65q-51 -92 -161 -92q-82 0 -131 52.5t-49 147.5v288q0 14 13 14h46q13 0 13 -14v-281q0 -66 33 -103t93 -37q62 0 102.5 38 t40.5 102v281q0 14 12 14h47z" glyph-name="umacron" horiz-adv-x="565" unicode="ū"/><glyph d="M400 896q3 14 16 14h20q16 0 14 -15q-5 -51 -41.5 -83t-94.5 -32t-94.5 32t-41.5 83q-2 15 14 15h21q13 0 16 -14q6 -30 28.5 -49t56.5 -19t57 19t29 49zM314 -13q-106 0 -169.5 64t-63.5 179v456q0 14 14 14h47q14 0 14 -14v-447q0 -89 43 -134t115 -45q73 0 116 45 t43 134v447q0 14 14 14h47q14 0 14 -14v-456q0 -115 -63.5 -179t-170.5 -64z" glyph-name="Ubreve" horiz-adv-x="629" unicode="Ŭ"/><glyph d="M284 570q-58 0 -94.5 32t-41.5 83q-2 15 14 15h21q13 0 16 -14q6 -30 28.5 -49t56.5 -19t57 19t29 49q3 14 16 14h20q16 0 14 -15q-5 -51 -41.5 -83t-94.5 -32zM476 490q13 0 13 -14v-462q0 -14 -13 -14h-43q-14 0 -14 15l-2 65q-51 -92 -161 -92q-82 0 -131 52.5 t-49 147.5v288q0 14 13 14h46q13 0 13 -14v-281q0 -66 33 -103t93 -37q62 0 102.5 38t40.5 102v281q0 14 12 14h47z" glyph-name="ubreve" horiz-adv-x="565" unicode="ŭ"/><glyph d="M314 928q34 0 57 -22t23 -56q0 -33 -23 -55.5t-57 -22.5t-57 22.5t-23 55.5q0 34 23 56t57 22zM314 822q12 0 20 8t8 20t-8 20t-20 8t-20 -8t-8 -20t8 -20t20 -8zM314 -13q-106 0 -169.5 64t-63.5 179v456q0 14 14 14h47q14 0 14 -14v-447q0 -89 43 -134t115 -45 q73 0 116 45t43 134v447q0 14 14 14h47q14 0 14 -14v-456q0 -115 -63.5 -179t-170.5 -64z" glyph-name="Uring" horiz-adv-x="629" unicode="Ů"/><glyph d="M284 562q-34 0 -57 22.5t-23 55.5q0 34 23 56t57 22t57 -22t23 -56q0 -33 -23 -55.5t-57 -22.5zM284 668q-12 0 -20 -8t-8 -20t8 -20t20 -8t20 8t8 20t-8 20t-20 8zM476 490q13 0 13 -14v-462q0 -14 -13 -14h-43q-14 0 -14 15l-2 65q-51 -92 -161 -92q-82 0 -131 52.5 t-49 147.5v288q0 14 13 14h46q13 0 13 -14v-281q0 -66 33 -103t93 -37q62 0 102.5 38t40.5 102v281q0 14 12 14h47z" glyph-name="uring" horiz-adv-x="565" unicode="ů"/><glyph d="M331 910q16 0 9 -16l-55 -115q-4 -12 -15 -12h-44q-16 0 -9 16l54 115q5 12 16 12h44zM464 910q16 0 9 -16l-55 -115q-5 -12 -16 -12h-44q-15 0 -8 16l53 115q5 12 16 12h45zM314 -13q-106 0 -169.5 64t-63.5 179v456q0 14 14 14h47q14 0 14 -14v-447q0 -89 43 -134 t115 -45q73 0 116 45t43 134v447q0 14 14 14h47q14 0 14 -14v-456q0 -115 -63.5 -179t-170.5 -64z" glyph-name="Uhungarumlaut" horiz-adv-x="629" unicode="Ű"/><glyph d="M195 557q-16 0 -9 16l54 115q5 12 16 12h44q16 0 9 -16l-55 -115q-4 -12 -15 -12h-44zM327 557q-15 0 -8 16l53 115q5 12 16 12h45q16 0 9 -16l-55 -115q-5 -12 -16 -12h-44zM476 490q13 0 13 -14v-462q0 -14 -13 -14h-43q-14 0 -14 15l-2 65q-51 -92 -161 -92 q-82 0 -131 52.5t-49 147.5v288q0 14 13 14h46q13 0 13 -14v-281q0 -66 33 -103t93 -37q62 0 102.5 38t40.5 102v281q0 14 12 14h47z" glyph-name="uhungarumlaut" horiz-adv-x="565" unicode="ű"/><glyph d="M534 700q14 0 14 -14v-456q0 -82 -34 -139.5t-94 -83.5v-2q-108 -34 -108 -102q0 -35 24 -48.5t67 -4.5v-48q-19 -9 -44.5 -8.5t-50 9.5t-41 32t-16.5 56q0 56 49 96q-100 5 -159.5 68.5t-59.5 174.5v456q0 14 14 14h47q14 0 14 -14v-447q0 -89 43 -134t115 -45 q73 0 116 45t43 134v447q0 14 14 14h47z" glyph-name="Uogonek" horiz-adv-x="629" unicode="Ų"/><glyph d="M476 490q13 0 13 -14v-462q0 -14 -13 -14h-16q-45 -2 -76 -28.5t-31 -66.5q0 -34 24.5 -49t65.5 -6v-48q-19 -9 -44.5 -8.5t-50 9.5t-41 32t-16.5 57q0 53 38.5 88.5t89.5 48.5l-2 51q-51 -92 -161 -92q-82 0 -131 52.5t-49 147.5v288q0 14 13 14h46q13 0 13 -14v-281 q0 -66 33 -103t93 -37q62 0 102.5 38t40.5 102v281q0 14 12 14h47z" glyph-name="uogonek" horiz-adv-x="565" unicode="ų"/><glyph d="M421 784q-7 0 -9 5t2 9l86 104q7 8 16 8h50q9 0 16 -8l86 -104q4 -4 1.5 -9t-8.5 -5h-40q-9 0 -16 8l-64 80l-65 -80q-7 -8 -16 -8h-39zM1017 700q17 0 12 -17l-207 -671q-4 -12 -17 -12h-55q-13 0 -17 12l-192 594l-193 -594q-4 -12 -17 -12h-55q-13 0 -17 12l-207 671 q-5 17 12 17h47q13 0 17 -12l178 -588l192 588q4 12 16 12h53q12 0 16 -12l192 -588l178 588q5 12 17 12h47z" glyph-name="Wcircumflex" horiz-adv-x="1081" unicode="Ŵ"/><glyph d="M315 574q-7 0 -9 5t2 9l86 104q7 8 16 8h50q9 0 16 -8l86 -104q4 -4 1.5 -9t-8.5 -5h-40q-9 0 -16 8l-64 80l-65 -80q-7 -8 -16 -8h-39zM226 0q-14 0 -18 12l-160 461q-6 17 11 17h45q12 0 16 -12l134 -399l138 399q4 12 18 12h50q14 0 18 -12l138 -399l134 399 q4 12 15 12h46q17 0 11 -17l-161 -461q-5 -12 -18 -12h-51q-14 0 -18 12l-139 399l-140 -399q-5 -12 -18 -12h-51z" glyph-name="wcircumflex" horiz-adv-x="870" unicode="ŵ"/><glyph d="M179 784q-7 0 -9 5t2 9l86 104q7 8 16 8h50q9 0 16 -8l86 -104q4 -4 1.5 -9t-8.5 -5h-40q-9 0 -16 8l-64 80l-65 -80q-7 -8 -16 -8h-39zM534 700q9 0 11.5 -5t-2.5 -13l-207 -346v-322q0 -14 -14 -14h-47q-14 0 -14 14v322l-207 346q-5 8 -2.5 13t11.5 5h52q11 0 17 -10 l166 -283l167 283q6 10 17 10h52z" glyph-name="Ycircumflex" horiz-adv-x="597" unicode="Ŷ"/><glyph d="M153 574q-7 0 -9 5t2 9l86 104q7 8 16 8h50q9 0 16 -8l86 -104q4 -4 1.5 -9t-8.5 -5h-40q-9 0 -16 8l-64 80l-65 -80q-7 -8 -16 -8h-39zM177 -190q-17 0 -10 15l69 173l-188 475q-6 17 11 17h46q12 0 16 -12l151 -398l152 398q5 12 16 12h46q17 0 11 -17l-258 -651 q-4 -12 -17 -12h-45z" glyph-name="ycircumflex" horiz-adv-x="545" unicode="ŷ"/><glyph d="M208 831q-18 0 -30.5 12.5t-12.5 29.5t12.5 29.5t30.5 12.5q17 0 30 -12.5t13 -29.5t-13 -29.5t-30 -12.5zM389 831q-17 0 -30 12.5t-13 29.5t13 29.5t30 12.5t30 -12.5t13 -29.5t-13 -29.5t-30 -12.5zM534 700q9 0 11.5 -5t-2.5 -13l-207 -346v-322q0 -14 -14 -14h-47 q-14 0 -14 14v322l-207 346q-5 8 -2.5 13t11.5 5h52q11 0 17 -10l166 -283l167 283q6 10 17 10h52z" glyph-name="Ydieresis" horiz-adv-x="597" unicode="Ÿ"/><glyph d="M368 910q16 0 9 -16l-55 -115q-4 -12 -15 -12h-44q-16 0 -9 16l54 115q5 12 16 12h44zM75 0q-14 0 -14 14v44q0 9 6 18l345 557h-327q-14 0 -14 14v39q0 14 14 14h391q14 0 14 -14v-44q0 -9 -6 -18l-345 -557h347q14 0 14 -14v-39q0 -14 -14 -14h-411z" glyph-name="Zacute" horiz-adv-x="566" unicode="Ź"/><glyph d="M328 700q16 0 9 -16l-55 -115q-4 -12 -15 -12h-44q-16 0 -9 16l54 115q5 12 16 12h44zM70 0q-14 0 -14 14v38q0 9 7 18l280 358h-270q-14 0 -14 14v34q0 14 14 14h336q15 0 15 -14v-38q0 -9 -7 -18l-281 -358h275q14 0 14 -14v-34q0 -14 -14 -14h-341z" glyph-name="zacute" horiz-adv-x="481" unicode="ź"/><glyph d="M280 831q-18 0 -30.5 12.5t-12.5 29.5t12.5 29.5t30.5 12.5q17 0 30 -12.5t13 -29.5t-13 -29.5t-30 -12.5zM75 0q-14 0 -14 14v44q0 9 6 18l345 557h-327q-14 0 -14 14v39q0 14 14 14h391q14 0 14 -14v-44q0 -9 -6 -18l-345 -557h347q14 0 14 -14v-39q0 -14 -14 -14h-411 z" glyph-name="Zdotaccent" horiz-adv-x="566" unicode="Ż"/><glyph d="M240 621q-18 0 -30.5 12.5t-12.5 29.5t12.5 29.5t30.5 12.5q17 0 30 -12.5t13 -29.5t-13 -29.5t-30 -12.5zM70 0q-14 0 -14 14v38q0 9 7 18l280 358h-270q-14 0 -14 14v34q0 14 14 14h336q15 0 15 -14v-38q0 -9 -7 -18l-281 -358h275q14 0 14 -14v-34q0 -14 -14 -14h-341 z" glyph-name="zdotaccent" horiz-adv-x="481" unicode="ż"/><glyph d="M161 910h39q9 0 16 -8l65 -80l64 80q7 8 16 8h40q6 0 8.5 -5t-1.5 -9l-86 -104q-7 -8 -16 -8h-50q-9 0 -16 8l-86 104q-4 4 -2 9t9 5zM75 0q-14 0 -14 14v44q0 9 6 18l345 557h-327q-14 0 -14 14v39q0 14 14 14h391q14 0 14 -14v-44q0 -9 -6 -18l-345 -557h347 q14 0 14 -14v-39q0 -14 -14 -14h-411z" glyph-name="Zcaron" horiz-adv-x="566" unicode="Ž"/><glyph d="M121 700h39q9 0 16 -8l65 -80l64 80q7 8 16 8h40q6 0 8.5 -5t-1.5 -9l-86 -104q-7 -8 -16 -8h-50q-9 0 -16 8l-86 104q-4 4 -2 9t9 5zM70 0q-14 0 -14 14v38q0 9 7 18l280 358h-270q-14 0 -14 14v34q0 14 14 14h336q15 0 15 -14v-38q0 -9 -7 -18l-281 -358h275 q14 0 14 -14v-34q0 -14 -14 -14h-341z" glyph-name="zcaron" horiz-adv-x="481" unicode="ž"/><glyph d="M253 665q-39 0 -53.5 -21t-14.5 -59v-95h100q13 0 13 -13v-36q0 -13 -13 -13h-100v-488q0 -130 -128 -130q-29 0 -48 8q-9 4 -9 13v41q0 9 12 7q19 -3 34 -3q39 0 53 21t14 59v472h-60q-13 0 -13 13v36q0 13 13 13h60v111q0 130 128 130q31 0 48 -8q9 -4 9 -13v-41 q0 -9 -12 -7q-20 3 -33 3z" glyph-name="florin" horiz-adv-x="344" unicode="ƒ"/><glyph d="M300 792l-86 104q-4 4 -2 9t9 5h39q9 0 16 -8l65 -80l64 80q7 8 16 8h40q6 0 8.5 -5t-1.5 -9l-86 -104q-7 -8 -16 -8h-50q-9 0 -16 8zM629 17q7 -17 -11 -17h-50q-12 0 -16 12l-51 145h-320l-51 -145q-4 -12 -17 -12h-49q-18 0 -11 17l242 671q5 12 18 12h55q14 0 18 -12 zM205 224h272l-136 387z" glyph-name="uni01CD" horiz-adv-x="681" unicode="Ǎ"/><glyph d="M270 582l-86 104q-4 4 -2 9t9 5h39q9 0 16 -8l65 -80l64 80q7 8 16 8h40q6 0 8.5 -5t-1.5 -9l-86 -104q-7 -8 -16 -8h-50q-9 0 -16 8zM538 490q13 0 13 -14v-462q0 -14 -13 -14h-43q-13 0 -13 14l-1 81q-58 -107 -189 -107q-106 0 -173.5 73t-67.5 184t67.5 184t173.5 73 q130 0 189 -109l1 83q0 14 13 14h43zM302 55q79 0 128.5 52t49.5 136q0 85 -49.5 138.5t-128.5 53.5t-130 -53t-51 -137q0 -85 51 -137.5t130 -52.5z" glyph-name="uni01CE" unicode="ǎ"/><glyph d="M3 910h39q9 0 16 -8l65 -80l64 80q7 8 16 8h40q6 0 8.5 -5t-1.5 -9l-86 -104q-7 -8 -16 -8h-50q-9 0 -16 8l-86 104q-4 4 -2 9t9 5zM100 0q-14 0 -14 14v672q0 14 14 14h47q14 0 14 -14v-672q0 -14 -14 -14h-47z" glyph-name="uni01CF" horiz-adv-x="246" unicode="Ǐ"/><glyph d="M-23 700h39q9 0 16 -8l65 -80l64 80q7 8 16 8h40q6 0 8.5 -5t-1.5 -9l-86 -104q-7 -8 -16 -8h-50q-9 0 -16 8l-86 104q-4 4 -2 9t9 5zM73 0q-13 0 -13 14v462q0 14 13 14h46q13 0 13 -14v-462q0 -14 -13 -14h-46z" glyph-name="uni01D0" horiz-adv-x="192" unicode="ǐ"/><glyph d="M304 910h39q9 0 16 -8l65 -80l64 80q7 8 16 8h40q6 0 8.5 -5t-1.5 -9l-86 -104q-7 -8 -16 -8h-50q-9 0 -16 8l-86 104q-4 4 -2 9t9 5zM424 -13q-151 0 -254.5 104t-103.5 256t103.5 256.5t254.5 104.5t254.5 -104.5t103.5 -256.5t-103.5 -256t-254.5 -104zM424 60 q120 0 201 82t81 205t-81 205.5t-201 82.5q-121 0 -201.5 -82t-80.5 -206q0 -123 80.5 -205t201.5 -82z" glyph-name="uni01D1" horiz-adv-x="847" unicode="Ǒ"/><glyph d="M182 700h39q9 0 16 -8l65 -80l64 80q7 8 16 8h40q6 0 8.5 -5t-1.5 -9l-86 -104q-7 -8 -16 -8h-50q-9 0 -16 8l-86 104q-4 4 -2 9t9 5zM302 -12q-107 0 -179 73.5t-72 183.5t72 183.5t179 73.5t178.5 -74t71.5 -183t-71.5 -183t-178.5 -74zM302 55q78 0 129 53.5t51 136.5 t-51 136.5t-129 53.5t-129.5 -53.5t-51.5 -136.5t51.5 -136.5t129.5 -53.5z" glyph-name="uni01D2" horiz-adv-x="603" unicode="ǒ"/><glyph d="M195 910h39q9 0 16 -8l65 -80l64 80q7 8 16 8h40q6 0 8.5 -5t-1.5 -9l-86 -104q-7 -8 -16 -8h-50q-9 0 -16 8l-86 104q-4 4 -2 9t9 5zM314 -13q-106 0 -169.5 64t-63.5 179v456q0 14 14 14h47q14 0 14 -14v-447q0 -89 43 -134t115 -45q73 0 116 45t43 134v447q0 14 14 14 h47q14 0 14 -14v-456q0 -115 -63.5 -179t-170.5 -64z" glyph-name="uni01D3" horiz-adv-x="629" unicode="Ǔ"/><glyph d="M243 582l-86 104q-4 4 -2 9t9 5h39q9 0 16 -8l65 -80l64 80q7 8 16 8h40q6 0 8.5 -5t-1.5 -9l-86 -104q-7 -8 -16 -8h-50q-9 0 -16 8zM476 490q13 0 13 -14v-462q0 -14 -13 -14h-43q-14 0 -14 15l-2 65q-51 -92 -161 -92q-82 0 -131 52.5t-49 147.5v288q0 14 13 14h46 q13 0 13 -14v-281q0 -66 33 -103t93 -37q62 0 102.5 38t40.5 102v281q0 14 12 14h47z" glyph-name="uni01D4" horiz-adv-x="565" unicode="ǔ"/><glyph d="M494 -6q-75 -31 -75 -91q0 -35 24 -48.5t67 -4.5v-48q-19 -9 -44.5 -8.5t-50 9.5t-41 32t-16.5 56q0 56 49 96q-145 7 -243 110t-98 250q0 152 103.5 256.5t254.5 104.5t254.5 -104.5t103.5 -256.5q0 -133 -81.5 -231.5t-206.5 -121.5zM142 347q0 -123 80.5 -205 t201.5 -82q120 0 201 82t81 205t-81 205.5t-201 82.5q-121 0 -201.5 -82t-80.5 -206z" glyph-name="uni01EA" horiz-adv-x="847" unicode="Ǫ"/><glyph d="M354 -7q-74 -31 -74 -90q0 -35 24 -48.5t66 -4.5v-48q-19 -9 -44.5 -8.5t-50 9.5t-41 32t-16.5 56q0 57 53 99q-96 11 -158 82.5t-62 172.5q0 110 72 183.5t179 73.5t178.5 -74t71.5 -183q0 -95 -55.5 -165t-142.5 -87zM121 245q0 -83 51.5 -136.5t129.5 -53.5t129 53.5 t51 136.5t-51 136.5t-129 53.5t-129.5 -53.5t-51.5 -136.5z" glyph-name="uni01EB" horiz-adv-x="603" unicode="ǫ"/><glyph d="M268 -12q-139 0 -208 104q-8 13 1 21l24 27q12 12 23 -1q63 -82 160 -82q67 0 105 33t38 88q0 52 -31 81.5t-96 61.5l-85 41q-123 58 -123 171q0 79 55 127t139 48q113 0 186 -89q10 -11 -2 -25l-21 -24q-11 -12 -23 0q-60 69 -138 69q-54 0 -88.5 -27.5t-34.5 -77.5 q0 -38 22 -64.5t69 -49.5l83 -41q37 -18 61 -33t49.5 -39t38 -56t12.5 -72q0 -88 -60.5 -139.5t-155.5 -51.5zM211 -243v27q44 1 64 40q15 29 1 40q-3 2 -8 2q-24 -1 -40 14t-16 38t16.5 38.5t39.5 15.5q28 0 47.5 -23.5t19.5 -61.5q0 -52 -35 -91.5t-89 -38.5z" glyph-name="Scommaaccent" horiz-adv-x="539" unicode="Ș"/><glyph d="M220 -12q-102 0 -159 74q-10 11 -1 25l15 20q10 13 23 0q52 -56 120 -56q44 0 71 20t27 57q0 32 -19.5 52t-57.5 36l-58 24q-110 46 -110 131q0 59 43.5 95t106.5 36q89 0 143 -68q9 -10 -1 -22l-16 -18q-11 -13 -24 0q-46 47 -99 47q-36 0 -60 -17.5t-24 -50.5 q0 -32 20 -50t64 -36l48 -20q55 -22 85 -53.5t30 -84.5q0 -66 -48.5 -103.5t-118.5 -37.5zM170 -243v27q44 1 64 40q15 29 1 40q-3 2 -8 2q-24 -1 -40 14t-16 38t16.5 38.5t39.5 15.5q28 0 47.5 -23.5t19.5 -61.5q0 -52 -35 -91.5t-89 -38.5z" glyph-name="scommaaccent" horiz-adv-x="443" unicode="ș"/><glyph d="M243 0q-14 0 -14 14v619h-149q-14 0 -14 14v39q0 14 14 14h374q14 0 14 -14v-39q0 -14 -14 -14h-150v-619q0 -14 -14 -14h-47zM220 -243v27q44 1 64 40q15 29 1 40q-3 2 -8 2q-24 -1 -40 14t-16 38t16.5 38.5t39.5 15.5q28 0 47.5 -23.5t19.5 -61.5q0 -52 -35 -91.5 t-89 -38.5z" glyph-name="uni021A" horiz-adv-x="534" unicode="Ț"/><glyph d="M291 10q0 -22 -63 -22q-104 0 -104 106v336h-64q-14 0 -14 14v32q0 14 14 14h64v116q0 14 13 14h46q13 0 13 -14v-116h83q14 0 14 -14v-32q0 -14 -14 -14h-83v-327q0 -52 45 -52q13 0 31 2q19 3 19 -13v-30zM227 -28q28 0 47.5 -23.5t19.5 -61.5q0 -52 -35 -91.5 t-89 -38.5v27q44 1 64 40q15 29 1 40q-3 2 -8 2q-24 -1 -40 14t-16 38t16.5 38.5t39.5 15.5z" glyph-name="uni021B" horiz-adv-x="339" unicode="ț"/><glyph d="M100 490h42q15 0 15 -15v-470q0 -197 -160 -203q-9 0 -11 9l-12 44q-4 11 8 11q54 4 78.5 38t24.5 105v466q0 15 15 15z" glyph-name="uni0237" horiz-adv-x="223" unicode="ȷ"/><glyph d="M24 574q-7 0 -9 5t2 9l86 104q7 8 16 8h50q9 0 16 -8l86 -104q4 -4 1.5 -9t-8.5 -5h-40q-9 0 -16 8l-64 80l-65 -80q-7 -8 -16 -8h-39z" glyph-name="circumflex" horiz-adv-x="288" unicode="ˆ"/><glyph d="M24 700h39q9 0 16 -8l65 -80l64 80q7 8 16 8h40q6 0 8.5 -5t-1.5 -9l-86 -104q-7 -8 -16 -8h-50q-9 0 -16 8l-86 104q-4 4 -2 9t9 5z" glyph-name="caron" horiz-adv-x="288" unicode="ˇ"/><glyph d="M237 686q3 14 16 14h20q15 0 14 -15q-5 -51 -41.5 -83t-94.5 -32t-94.5 32t-41.5 83q-1 15 14 15h21q13 0 16 -14q6 -30 28.5 -49t56.5 -19t57 19t29 49z" glyph-name="breve" horiz-adv-x="302" unicode="˘"/><glyph d="M58 621q-18 0 -30.5 12.5t-12.5 29.5t12.5 29.5t30.5 12.5q17 0 30 -12.5t13 -29.5t-13 -29.5t-30 -12.5z" glyph-name="dotaccent" horiz-adv-x="116" unicode="˙"/><glyph d="M95 718q34 0 57 -22t23 -56q0 -33 -23 -55.5t-57 -22.5t-57 22.5t-23 55.5q0 34 23 56t57 22zM95 612q12 0 20 8t8 20t-8 20t-20 8t-20 -8t-8 -20t8 -20t20 -8z" glyph-name="ring" horiz-adv-x="190" unicode="˚"/><glyph d="M179 0q-45 -2 -76 -28.5t-31 -66.5q0 -34 24.5 -49t65.5 -6v-48q-19 -9 -44.5 -8.5t-50 9.5t-41 32t-16.5 57q0 66 57 104.5t112 38.5v-35z" glyph-name="ogonek" horiz-adv-x="189" unicode="˛"/><glyph d="M98 718q36 0 75.5 -32.5t63.5 -32.5q31 0 42 30q3 9 11 9h15q10 0 10 -10q-4 -36 -26.5 -55t-53.5 -19q-38 0 -78 32t-64 32q-32 0 -43 -30q-3 -9 -11 -9h-15q-10 0 -9 12q4 35 27 54t56 19z" glyph-name="tilde" horiz-adv-x="330" unicode="˜"/><glyph d="M131 700q16 0 9 -16l-55 -115q-4 -12 -15 -12h-44q-16 0 -9 16l54 115q5 12 16 12h44zM264 700q16 0 9 -16l-55 -115q-5 -12 -16 -12h-44q-15 0 -8 16l53 115q5 12 16 12h45z" glyph-name="hungarumlaut" horiz-adv-x="290" unicode="˝"/><glyph d="M-111 -243v27q44 1 64 40q15 29 1 40q-3 2 -8 2q-24 -1 -40 14t-16 38t16.5 38.5t39.5 15.5q29 0 48.5 -23.5t19.5 -61.5q0 -52 -35.5 -91.5t-89.5 -38.5z" glyph-name="uni0326" horiz-adv-x="0" unicode="̦"/><glyph d="M629 17q7 -17 -11 -17h-554q-18 0 -11 17l242 671q5 12 18 12h55q14 0 18 -12zM341 611l-193 -549h386z" glyph-name="Delta" horiz-adv-x="681" unicode="Δ"/><glyph d="M94 0q-15 0 -15 15v32q0 15 15 15h103v28q-131 107 -131 274q0 147 101.5 245.5t251.5 98.5t251 -98.5t101 -245.5q0 -168 -131 -274v-28h103q15 0 15 -15v-32q0 -15 -15 -15h-160q-15 0 -15 15v102q130 92 130 245q0 121 -80.5 197.5t-198.5 76.5q-119 0 -199 -76.5 t-80 -197.5q0 -78 35 -140.5t94 -104.5v-102q0 -15 -15 -15h-160z" glyph-name="Omega" horiz-adv-x="837" unicode="Ω"/><glyph d="M476 490q13 0 13 -14v-462q0 -14 -13 -14h-43q-14 0 -14 15l-2 65q-51 -92 -161 -92q-64 0 -108 32v-196q0 -14 -14 -14h-44q-14 0 -14 14v652q0 14 13 14h46q13 0 13 -14v-281q0 -66 33 -103t93 -37q62 0 102.5 38t40.5 102v281q0 14 12 14h47z" glyph-name="mu" horiz-adv-x="564" unicode="μ"/><glyph d="M573 490q14 0 14 -14v-35q0 -14 -14 -14h-86v-324q0 -43 39 -43q22 0 38 3q18 3 18 -12v-36q0 -11 -21.5 -16.5t-46.5 -5.5q-99 0 -99 104v330h-188v-413q0 -14 -14 -14h-44q-14 0 -14 14v413h-87q-13 0 -13 14v35q0 14 13 14h505z" glyph-name="pi" horiz-adv-x="632" unicode="π"/><glyph d="M183 831q-18 0 -30.5 12.5t-12.5 29.5t12.5 29.5t30.5 12.5q17 0 30 -12.5t13 -29.5t-13 -29.5t-30 -12.5zM364 831q-17 0 -30 12.5t-13 29.5t13 29.5t30 12.5t30 -12.5t13 -29.5t-13 -29.5t-30 -12.5zM100 0q-14 0 -14 14v672q0 14 14 14h335q14 0 14 -14v-39 q0 -14 -14 -14h-274v-238h260q14 0 14 -14v-39q0 -14 -14 -14h-260v-261h275q14 0 14 -14v-39q0 -14 -14 -14h-336z" glyph-name="afii10023" horiz-adv-x="526" unicode="Ё"/><glyph d="M225 767q-16 0 -9 16l54 115q5 12 16 12h44q16 0 9 -16l-55 -115q-4 -12 -15 -12h-44zM429 700q15 0 15 -15v-39q0 -15 -15 -15h-268v-617q0 -14 -14 -14h-47q-14 0 -14 14v672q0 14 14 14h329z" glyph-name="afii10052" horiz-adv-x="495" unicode="Ѓ"/><glyph d="M660 101q10 -10 -3 -23q-101 -91 -236 -91q-154 0 -254.5 103.5t-100.5 256.5t100.5 257t254.5 104q135 0 236 -90q12 -12 3 -24l-28 -31q-10 -10 -22 0q-82 72 -187 72q-111 0 -188.5 -70t-90.5 -180h259q14 0 14 -14v-42q0 -14 -14 -14h-259q11 -112 89 -183.5 t190 -71.5q105 0 187 72q12 10 21 1z" glyph-name="afii10053" horiz-adv-x="726" unicode="Є"/><glyph d="M100 0q-14 0 -14 14v672q0 14 14 14h47q14 0 14 -14v-672q0 -14 -14 -14h-47z" glyph-name="afii10055" horiz-adv-x="246" unicode="І"/><glyph d="M33 831q-18 0 -30.5 12.5t-12.5 29.5t12.5 29.5t30.5 12.5q17 0 30 -12.5t13 -29.5t-13 -29.5t-30 -12.5zM214 831q-17 0 -30 12.5t-13 29.5t13 29.5t30 12.5t30 -12.5t13 -29.5t-13 -29.5t-30 -12.5zM100 0q-14 0 -14 14v672q0 14 14 14h47q14 0 14 -14v-672 q0 -14 -14 -14h-47z" glyph-name="afii10056" horiz-adv-x="246" unicode="Ї"/><glyph d="M279 767q-16 0 -9 16l54 115q5 12 16 12h44q16 0 9 -16l-55 -115q-4 -12 -15 -12h-44zM564 18q5 -8 2.5 -13t-11.5 -5h-55q-12 0 -18 9l-232 308l-89 -114v-189q0 -14 -14 -14h-47q-14 0 -14 14v672q0 14 14 14h47q14 0 14 -14v-381l290 387q7 8 18 8h59q10 0 12 -5 t-4 -13l-240 -307z" glyph-name="afii10061" horiz-adv-x="613" unicode="Ќ"/><glyph d="M324 780q-58 0 -94.5 32t-41.5 83q-2 15 14 15h21q13 0 16 -14q6 -30 28.5 -49t56.5 -19t57 19t29 49q3 14 16 14h20q16 0 14 -15q-5 -51 -41.5 -83t-94.5 -32zM586 700q9 0 11.5 -5t-2.5 -13l-402 -672q-6 -10 -17 -10h-50q-19 0 -9 18l168 281l-231 383q-5 8 -2.5 13 t11.5 5h50q11 0 17 -10l195 -325l194 325q6 10 17 10h50z" glyph-name="afii10062" horiz-adv-x="648" unicode="Ў"/><glyph d="M629 17q7 -17 -11 -17h-50q-12 0 -16 12l-51 145h-320l-51 -145q-4 -12 -17 -12h-49q-18 0 -11 17l242 671q5 12 18 12h55q14 0 18 -12zM205 224h272l-136 387z" glyph-name="afii10017" horiz-adv-x="681" unicode="А"/><glyph d="M291 435q110 0 170 -59.5t60 -157.5t-60 -158t-170 -60h-191q-14 0 -14 14v672q0 14 14 14h330q15 0 15 -15v-39q0 -15 -15 -15h-269v-196h130zM285 67q74 0 118.5 36t44.5 115q0 78 -44.5 114t-118.5 36h-124v-301h124z" glyph-name="afii10018" horiz-adv-x="572" unicode="Б"/><glyph d="M100 0q-14 0 -14 14v672q0 14 14 14h202q98 0 144 -49t46 -120q0 -51 -25.5 -92.5t-75.5 -58.5q67 -16 105 -66t38 -119q0 -89 -60 -142t-175 -53h-199zM160 405h135q58 0 91.5 31.5t33.5 87.5q0 109 -125 109h-135v-228zM160 67h135q80 0 121.5 35t41.5 102 q0 66 -42 103t-121 37h-135v-277z" glyph-name="afii10019" horiz-adv-x="585" unicode="В"/><glyph d="M429 700q15 0 15 -15v-39q0 -15 -15 -15h-268v-617q0 -14 -14 -14h-47q-14 0 -14 14v672q0 14 14 14h329z" glyph-name="afii10020" horiz-adv-x="495" unicode="Г"/><glyph d="M662 69q15 0 15 -15v-108q0 -15 -15 -15h-45q-15 0 -15 15v54h-487v-54q0 -15 -15 -15h-45q-15 0 -15 15v108q0 15 15 15h10q52 0 72 31t20 101v484q0 15 15 15h448q13 0 13 -14v-617h29zM232 174q0 -64 -23 -105h350v562h-327v-457z" glyph-name="afii10021" horiz-adv-x="708" unicode="Д"/><glyph d="M100 0q-14 0 -14 14v672q0 14 14 14h335q14 0 14 -14v-39q0 -14 -14 -14h-274v-238h260q14 0 14 -14v-39q0 -14 -14 -14h-260v-261h275q14 0 14 -14v-39q0 -14 -14 -14h-336z" glyph-name="afii10022" horiz-adv-x="526" unicode="Е"/><glyph d="M930 18q5 -8 2.5 -13t-11.5 -5h-55q-12 0 -18 9l-232 308l-89 -114v-189q0 -14 -14 -14h-47q-14 0 -14 14v175l-100 127l-231 -307q-6 -9 -18 -9h-56q-9 0 -11.5 5t2.5 13l268 357l-240 307q-6 8 -4 13t12 5h60q11 0 18 -8l300 -400v394q0 14 14 14h47q14 0 14 -14v-381 l290 387q7 8 18 8h59q10 0 12 -5t-4 -13l-240 -307z" glyph-name="afii10024" horiz-adv-x="979" unicode="Ж"/><glyph d="M234 -13q-124 0 -191 97q-7 10 3 18l30 27q8 9 16 -2q55 -73 141 -73q66 0 107 40t41 103q0 67 -45.5 106.5t-111.5 39.5h-17q-14 0 -14 11v37q0 13 14 13h17q58 0 93.5 35.5t35.5 87.5q0 50 -32.5 82t-85.5 32q-77 0 -121 -71q-8 -11 -19 -2l-29 27q-6 6 0 17 q26 42 71.5 69t103.5 27q79 0 130.5 -48.5t51.5 -121.5q0 -109 -105 -161q61 -20 98.5 -68.5t37.5 -117.5q0 -88 -62 -146t-158 -58z" glyph-name="afii10025" horiz-adv-x="504" unicode="З"/><glyph d="M569 700q14 0 14 -14v-672q0 -14 -14 -14h-47q-14 0 -14 14v579l-326 -583q-6 -10 -18 -10h-64q-14 0 -14 14v672q0 14 14 14h47q14 0 14 -14v-579l326 583q6 10 18 10h64z" glyph-name="afii10026" horiz-adv-x="669" unicode="И"/><glyph d="M341 779q-58 0 -94.5 32t-41.5 83q-1 15 14 15h20q13 0 16 -14q6 -30 28.5 -49t57.5 -19q34 0 56.5 19t28.5 49q3 14 16 14h21q15 0 14 -15q-5 -51 -41.5 -83t-94.5 -32zM569 700q14 0 14 -14v-672q0 -14 -14 -14h-47q-14 0 -14 14v579l-326 -583q-6 -10 -18 -10h-64 q-14 0 -14 14v672q0 14 14 14h47q14 0 14 -14v-579l326 583q6 10 18 10h64z" glyph-name="afii10027" horiz-adv-x="669" unicode="Й"/><glyph d="M564 18q5 -8 2.5 -13t-11.5 -5h-55q-12 0 -18 9l-232 308l-89 -114v-189q0 -14 -14 -14h-47q-14 0 -14 14v672q0 14 14 14h47q14 0 14 -14v-381l290 387q7 8 18 8h59q10 0 12 -5t-4 -13l-240 -307z" glyph-name="afii10028" horiz-adv-x="613" unicode="К"/><glyph d="M590 700q14 0 14 -14v-672q0 -14 -14 -14h-47q-14 0 -14 14v617h-327v-460q0 -87 -40.5 -131.5t-118.5 -44.5q-18 0 -18 13v45q0 11 10 11q52 0 72 31.5t20 102.5v487q0 15 15 15h448z" glyph-name="afii10029" horiz-adv-x="689" unicode="Л"/><glyph d="M774 700q14 0 14 -14v-672q0 -14 -14 -14h-47q-14 0 -14 14v562l-15 -46l-219 -519q-4 -11 -17 -11h-50q-13 0 -17 11l-219 519l-15 45v-561q0 -14 -14 -14h-47q-14 0 -14 14v672q0 14 14 14h65q12 0 16 -10l256 -608l256 608q4 10 16 10h65z" glyph-name="afii10030" horiz-adv-x="874" unicode="М"/><glyph d="M552 700q14 0 14 -14v-672q0 -14 -14 -14h-47q-14 0 -14 14v300h-330v-300q0 -14 -14 -14h-47q-14 0 -14 14v672q0 14 14 14h47q14 0 14 -14v-305h330v305q0 14 14 14h47z" glyph-name="afii10031" horiz-adv-x="652" unicode="Н"/><glyph d="M424 -13q-151 0 -254.5 104t-103.5 256t103.5 256.5t254.5 104.5t254.5 -104.5t103.5 -256.5t-103.5 -256t-254.5 -104zM424 60q120 0 201 82t81 205t-81 205.5t-201 82.5q-121 0 -201.5 -82t-80.5 -206q0 -123 80.5 -205t201.5 -82z" glyph-name="afii10032" horiz-adv-x="847" unicode="О"/><glyph d="M547 700q14 0 14 -14v-672q0 -14 -14 -14h-47q-13 0 -13 14v617h-326v-617q0 -14 -14 -14h-47q-14 0 -14 14v672q0 14 14 14h447z" glyph-name="afii10033" horiz-adv-x="647" unicode="П"/><glyph d="M100 0q-14 0 -14 14v672q0 14 14 14h191q110 0 170 -60t60 -158t-60 -157.5t-170 -59.5h-130v-251q0 -14 -14 -14h-47zM161 332h124q74 0 118.5 36t44.5 114q0 79 -44.5 115t-118.5 36h-124v-301z" glyph-name="afii10034" horiz-adv-x="577" unicode="Р"/><glyph d="M421 -13q-154 0 -254.5 103.5t-100.5 256.5t100.5 257t254.5 104q135 0 236 -90q12 -12 3 -24l-28 -31q-10 -10 -22 0q-82 72 -187 72q-121 0 -201 -82t-80 -206t80 -205.5t201 -81.5q105 0 187 72q12 10 21 1l29 -32q10 -10 -3 -23q-101 -91 -236 -91z" glyph-name="afii10035" horiz-adv-x="726" unicode="С"/><glyph d="M243 0q-14 0 -14 14v619h-149q-14 0 -14 14v39q0 14 14 14h374q14 0 14 -14v-39q0 -14 -14 -14h-150v-619q0 -14 -14 -14h-47z" glyph-name="afii10036" horiz-adv-x="534" unicode="Т"/><glyph d="M586 700q9 0 11.5 -5t-2.5 -13l-402 -672q-6 -10 -17 -10h-50q-19 0 -9 18l168 281l-231 383q-5 8 -2.5 13t11.5 5h50q11 0 17 -10l195 -325l194 325q6 10 17 10h50z" glyph-name="afii10037" horiz-adv-x="648" unicode="У"/><glyph d="M787 350q0 -121 -82 -205t-238 -85v-46q0 -14 -14 -14h-47q-14 0 -14 14v46h-18q-158 0 -240.5 84t-82.5 206t82.5 206t240.5 84h18v46q0 14 14 14h47q14 0 14 -14v-46q156 -1 238 -85t82 -205zM375 129h17v442h-17q-125 0 -186.5 -61.5t-61.5 -159.5t61.5 -159.5 t186.5 -61.5zM467 129q122 1 183 62.5t61 158.5t-61 158.5t-183 62.5v-442z" glyph-name="afii10038" horiz-adv-x="848" unicode="Ф"/><glyph d="M565 18q11 -18 -8 -18h-51q-11 0 -17 10l-174 283l-175 -283q-6 -10 -17 -10h-51q-19 0 -8 18l210 341l-200 323q-11 18 8 18h53q9 0 17 -10l163 -265l163 265q6 10 16 10h53q19 0 8 -18l-200 -323z" glyph-name="afii10039" horiz-adv-x="629" unicode="Х"/><glyph d="M603 69q14 0 14 -14v-110q0 -14 -14 -14h-47q-14 0 -14 14v55h-442q-14 0 -14 14v672q0 14 14 14h47q14 0 14 -14v-617h326v617q0 14 13 14h47q14 0 14 -14v-617h42z" glyph-name="afii10040" horiz-adv-x="647" unicode="Ц"/><glyph d="M503 700q15 0 15 -15v-670q0 -15 -15 -15h-45q-15 0 -15 15v281q-73 -101 -197 -100q-90 2 -145 58.5t-55 153.5v277q0 15 15 15h44q15 0 15 -15v-268q0 -70 42 -109t109 -39q69 0 120.5 40t51.5 108v268q0 15 15 15h45z" glyph-name="afii10041" horiz-adv-x="604" unicode="Ч"/><glyph d="M862 700q14 0 14 -14v-672q0 -14 -14 -14h-762q-14 0 -14 14v672q0 14 14 14h47q14 0 14 -14v-617h283v617q0 14 14 14h47q13 0 13 -14v-617h283v617q0 14 14 14h47z" glyph-name="afii10042" horiz-adv-x="962" unicode="Ш"/><glyph d="M919 69q14 0 14 -14v-110q0 -14 -14 -14h-47q-14 0 -14 14v55h-758q-14 0 -14 14v672q0 14 14 14h47q14 0 14 -14v-617h283v617q0 14 14 14h47q13 0 13 -14v-617h283v617q0 14 14 14h47q14 0 14 -14v-617h43z" glyph-name="afii10043" horiz-adv-x="963" unicode="Щ"/><glyph d="M349 435q110 0 170 -59.5t60 -157.5t-60 -158t-170 -60h-191q-14 0 -14 14v619h-105q-13 0 -13 14v39q0 14 13 14h166q14 0 14 -14v-251h130zM343 67q74 0 118.5 36t44.5 115q0 78 -44.5 114t-118.5 36h-124v-301h124z" glyph-name="afii10044" horiz-adv-x="630" unicode="Ъ"/><glyph d="M100 700h47q14 0 14 -14v-251h130q110 0 170 -59.5t60 -157.5t-60 -158t-170 -60h-191q-14 0 -14 14v672q0 14 14 14zM610 0q-14 0 -14 14v672q0 14 14 14h47q14 0 14 -14v-672q0 -14 -14 -14h-47zM161 368v-301h124q74 0 118.5 36t44.5 115q0 78 -44.5 114t-118.5 36 h-124z" glyph-name="afii10045" horiz-adv-x="757" unicode="Ы"/><glyph d="M100 700h47q14 0 14 -14v-251h130q110 0 170 -59.5t60 -157.5t-60 -158t-170 -60h-191q-14 0 -14 14v672q0 14 14 14zM161 368v-301h124q74 0 118.5 36t44.5 115q0 78 -44.5 114t-118.5 36h-124z" glyph-name="afii10046" horiz-adv-x="577" unicode="Ь"/><glyph d="M311 708q153 0 253.5 -104t100.5 -257t-100.5 -256.5t-253.5 -103.5q-136 0 -237 91q-13 13 -3 23l29 32q9 9 21 -1q82 -72 187 -72q112 0 190 71.5t89 183.5h-259q-14 0 -14 14v42q0 14 14 14h259q-13 110 -90.5 180t-188.5 70q-105 0 -187 -72q-12 -10 -22 0l-28 31 q-9 12 3 24q101 90 237 90z" glyph-name="afii10047" horiz-adv-x="726" unicode="Э"/><glyph d="M608 708q151 0 254.5 -104.5t103.5 -256.5t-103.5 -256t-254.5 -104q-142 0 -243.5 94t-113.5 234h-90v-301q0 -14 -14 -14h-47q-14 0 -14 14v672q0 14 14 14h47q14 0 14 -14v-301h91q14 139 115 231t241 92zM608 60q121 0 201.5 82t80.5 205q0 124 -80.5 206t-201.5 82 t-201.5 -82t-80.5 -206q0 -123 80.5 -205t201.5 -82z" glyph-name="afii10048" horiz-adv-x="1032" unicode="Ю"/><glyph d="M479 700q14 0 14 -14v-672q0 -14 -14 -14h-47q-14 0 -14 14v251h-112l-169 -255q-6 -10 -18 -10h-50q-21 0 -10 18l170 252q-83 15 -127 72t-44 140q0 98 60 158t170 60h191zM418 332v301h-124q-74 0 -118.5 -36t-44.5 -115q0 -78 44.5 -114t118.5 -36h124z" glyph-name="afii10049" horiz-adv-x="579" unicode="Я"/><glyph d="M538 490q13 0 13 -14v-462q0 -14 -13 -14h-43q-13 0 -13 14l-1 81q-58 -107 -189 -107q-106 0 -173.5 73t-67.5 184t67.5 184t173.5 73q130 0 189 -109l1 83q0 14 13 14h43zM302 55q79 0 128.5 52t49.5 136q0 85 -49.5 138.5t-128.5 53.5t-130 -53t-51 -137 q0 -85 51 -137.5t130 -52.5z" glyph-name="afii10065" unicode="а"/><glyph d="M334 502q107 0 174.5 -73t67.5 -184t-67.5 -184t-174.5 -73q-129 0 -188 106l-2 -80q0 -14 -13 -14h-42q-13 0 -13 14v526q0 81 37.5 120.5t121.5 39.5h177q33 0 40 20h57v-15q0 -68 -81 -68h-182q-53 0 -75.5 -24t-22.5 -79v-136q60 104 186 104zM324 55q80 0 131 52.5 t51 137.5q0 84 -51 137t-131 53q-78 0 -127.5 -53.5t-49.5 -138.5q0 -84 49.5 -136t127.5 -52z" glyph-name="afii10066" unicode="б"/><glyph d="M362 266q50 -10 78 -43t28 -82q0 -61 -45 -101t-138 -40h-196q-13 0 -13 14v462q0 14 13 14h201q67 0 105 -33t38 -85q0 -39 -19.5 -67t-51.5 -39zM367 361q0 67 -81 67h-138v-139h138q41 0 61 20t20 52zM279 62q121 0 121 84q0 90 -131 90h-121v-174h131z" glyph-name="afii10067" horiz-adv-x="519" unicode="в"/><glyph d="M364 490q15 0 15 -15v-32q0 -15 -15 -15h-216v-413q0 -15 -15 -15h-42q-15 0 -15 15v460q0 15 15 15h273z" glyph-name="afii10068" horiz-adv-x="419" unicode="г"/><glyph d="M604 62q14 0 14 -14v-104q0 -14 -14 -14h-45q-13 0 -13 14v56h-434v-56q0 -14 -14 -14h-44q-14 0 -14 14v106q0 12 12 12h25q72 9 72 120v292q0 15 15 15h385q13 0 13 -14v-413h42zM221 428v-258q0 -66 -25 -108h294v366h-269z" glyph-name="afii10069" horiz-adv-x="648" unicode="д"/><glyph d="M526 270q0 -28 -7.5 -39.5t-28.5 -11.5h-369q7 -76 58 -123t137 -47q79 0 141 47q9 7 15 -1l17 -23q7 -10 -4 -21q-66 -63 -175 -63q-117 0 -188 74.5t-71 184.5q0 109 69 182t177 73q104 0 166.5 -68.5t62.5 -163.5zM296 438q-73 0 -120.5 -44.5t-54.5 -118.5h341 q-2 73 -47 118t-119 45z" glyph-name="afii10070" horiz-adv-x="577" unicode="е"/><glyph d="M807 18q7 -7 4.5 -12.5t-12.5 -5.5h-54q-11 0 -18 8l-199 215l-66 -68v-141q0 -14 -13 -14h-46q-13 0 -13 14v131l-76 78l-199 -215q-7 -8 -18 -8h-54q-10 0 -12.5 5.5t4.5 12.5l231 253l-196 201q-7 8 -5 13t12 5h56q11 0 19 -8l238 -248v242q0 14 13 14h46q13 0 13 -14 v-231l228 237q8 8 19 8h56q10 0 12 -5t-5 -13l-196 -201z" glyph-name="afii10072" horiz-adv-x="842" unicode="ж"/><glyph d="M266 264q44 -17 69 -50.5t25 -77.5q0 -63 -47 -104.5t-121 -41.5q-93 0 -145 65q-12 14 -1 25l20 22q9 10 23 -6q42 -42 101 -42q46 0 74 24t28 62q0 42 -35.5 67.5t-92.5 25.5q-12 0 -12 13v30q0 12 12 12q49 0 79 21t30 57q0 33 -24.5 52.5t-62.5 19.5q-47 0 -89 -39 q-16 -14 -25 0l-15 19q-9 10 3 23q51 60 136 60q65 0 105 -37t40 -89q0 -70 -75 -111z" glyph-name="afii10073" horiz-adv-x="411" unicode="з"/><glyph d="M490 490q13 0 13 -14v-462q0 -14 -13 -14h-46q-13 0 -13 14v388l-257 -392q-7 -10 -19 -10h-66q-13 0 -13 14v462q0 14 13 14h46q13 0 13 -14v-395l262 399q7 10 19 10h61z" glyph-name="afii10074" horiz-adv-x="579" unicode="и"/><glyph d="M292 570q-58 0 -94.5 32t-41.5 83q-2 15 14 15h21q13 0 16 -14q6 -30 28.5 -49t56.5 -19t57 19t29 49q3 14 16 14h20q16 0 14 -15q-5 -51 -41.5 -83t-94.5 -32zM490 490q13 0 13 -14v-462q0 -14 -13 -14h-46q-13 0 -13 14v388l-257 -392q-7 -10 -19 -10h-66q-13 0 -13 14 v462q0 14 13 14h46q13 0 13 -14v-395l262 399q7 10 19 10h61z" glyph-name="afii10075" horiz-adv-x="579" unicode="й"/><glyph d="M492 18q7 -7 5 -12.5t-12 -5.5h-54q-11 0 -18 8l-199 215l-66 -67v-142q0 -14 -13 -14h-46q-13 0 -13 14v462q0 14 13 14h46q13 0 13 -14v-231l228 237q8 8 19 8h55q10 0 12 -5t-5 -13l-196 -201z" glyph-name="afii10076" horiz-adv-x="528" unicode="к"/><glyph d="M471 490q13 0 13 -14v-462q0 -14 -13 -14h-46q-13 0 -13 14v414h-269v-259q0 -87 -41 -130.5t-117 -43.5q-12 0 -12 8v48q0 9 10 9q48 0 68 31t20 90v294q0 15 15 15h385z" glyph-name="afii10077" horiz-adv-x="560" unicode="л"/><glyph d="M640 490q13 0 13 -14v-462q0 -14 -13 -14h-46q-13 0 -13 14v356l-174 -359q-5 -11 -17 -11h-51q-12 0 -17 11l-174 359v-356q0 -14 -13 -14h-46q-13 0 -13 14v462q0 14 13 14h62q12 0 17 -11l196 -405l197 405q6 11 17 11h62z" glyph-name="afii10078" horiz-adv-x="729" unicode="м"/><glyph d="M496 490q13 0 13 -14v-462q0 -14 -13 -14h-47q-12 0 -12 14v189h-289v-189q0 -14 -13 -14h-46q-13 0 -13 14v462q0 14 13 14h46q13 0 13 -14v-210h289v210q0 14 12 14h47z" glyph-name="afii10079" horiz-adv-x="584" unicode="н"/><glyph d="M302 -12q-107 0 -179 73.5t-72 183.5t72 183.5t179 73.5t178.5 -74t71.5 -183t-71.5 -183t-178.5 -74zM302 55q78 0 129 53.5t51 136.5t-51 136.5t-129 53.5t-129.5 -53.5t-51.5 -136.5t51.5 -136.5t129.5 -53.5z" glyph-name="afii10080" horiz-adv-x="603" unicode="о"/><glyph d="M506 490q13 0 13 -14v-462q0 -14 -13 -14h-46q-13 0 -13 14v413h-299v-413q0 -14 -13 -14h-46q-13 0 -13 14v462q0 14 13 14h417z" glyph-name="afii10081" horiz-adv-x="595" unicode="п"/><glyph d="M334 502q107 0 174.5 -73t67.5 -184t-67.5 -184t-174.5 -73q-126 0 -186 102v-266q0 -14 -13 -14h-46q-13 0 -13 14v652q0 14 13 14h42q13 0 13 -14l2 -82q59 108 188 108zM324 55q80 0 131 52.5t51 137.5q0 84 -51 137t-131 53q-78 0 -127.5 -53.5t-49.5 -138.5 q0 -84 49.5 -136t127.5 -52z" glyph-name="afii10082" unicode="р"/><glyph d="M306 -12q-109 0 -182 73.5t-73 183.5t73 183.5t182 73.5q115 0 183 -82q9 -13 2 -20l-26 -24q-11 -11 -23 1q-54 58 -133 58q-81 0 -134.5 -53.5t-53.5 -136.5q0 -84 53.5 -137t135.5 -53q79 0 132 57q13 13 24 2l26 -24q7 -7 -2 -20q-68 -82 -184 -82z" glyph-name="afii10083" horiz-adv-x="546" unicode="с"/><glyph d="M392 490q15 0 15 -15v-33q0 -15 -15 -15h-130v-412q0 -15 -15 -15h-42q-15 0 -15 15v412h-130q-15 0 -15 15v33q0 15 15 15h332z" glyph-name="afii10084" horiz-adv-x="452" unicode="т"/><glyph d="M177 -190q-17 0 -10 15l69 173l-188 475q-6 17 11 17h46q12 0 16 -12l151 -398l152 398q5 12 16 12h46q17 0 11 -17l-258 -651q-4 -12 -17 -12h-45z" glyph-name="afii10085" horiz-adv-x="545" unicode="у"/><glyph d="M696 500q99 0 163.5 -74t64.5 -182t-64.5 -182t-163.5 -74q-113 0 -173 96v-260q0 -14 -13 -14h-45q-14 0 -14 14v259q-62 -95 -172 -95q-99 0 -163.5 74t-64.5 182t64.5 182t163.5 74q111 0 172 -94v258q0 14 14 14h45q13 0 13 -14v-259q60 95 173 95zM285 53 q72 0 119 55.5t47 134.5t-47 135.5t-119 56.5q-71 0 -118 -55t-47 -137t47 -136t118 -54zM690 53q71 0 118 54t47 136t-47 137t-118 55q-72 0 -119.5 -56.5t-47.5 -135.5t47.5 -134.5t119.5 -55.5z" glyph-name="afii10086" horiz-adv-x="975" unicode="ф"/><glyph d="M57 0q-8 0 -10.5 5t2.5 12l153 233l-146 223q-10 17 8 17h51q11 0 17 -10l113 -179l114 179q6 10 17 10h51q18 0 8 -17l-147 -223l154 -233q5 -7 2.5 -12t-10.5 -5h-51q-11 0 -17 10l-121 190l-120 -190q-6 -10 -17 -10h-51z" glyph-name="afii10087" horiz-adv-x="490" unicode="х"/><glyph d="M549 62q14 0 14 -14v-104q0 -14 -14 -14h-41q-14 0 -14 14v56h-405q-13 0 -13 14v462q0 14 13 14h46q13 0 13 -14v-413h299v413q0 14 13 14h46q13 0 13 -14v-414h30z" glyph-name="afii10088" horiz-adv-x="593" unicode="ц"/><glyph d="M455 490q13 0 13 -14v-462q0 -14 -13 -14h-47q-12 0 -12 14v173q-23 -35 -65.5 -56t-95.5 -21q-75 0 -129.5 46.5t-54.5 149.5v170q0 14 13 14h46q13 0 13 -14v-162q0 -68 34 -102.5t94 -34.5q61 0 103 35t42 102v162q0 14 12 14h47z" glyph-name="afii10089" horiz-adv-x="543" unicode="ч"/><glyph d="M623 490q13 0 13 -14v-462q0 -14 -13 -14h-534q-13 0 -13 14v462q0 14 13 14h46q13 0 13 -14v-413h172v413q0 14 13 14h46q13 0 13 -14v-413h172v413q0 14 13 14h46z" glyph-name="afii10090" horiz-adv-x="712" unicode="ш"/><glyph d="M656 62q14 0 14 -14v-104q0 -14 -14 -14h-45q-14 0 -14 14v56h-508q-13 0 -13 14v462q0 14 13 14h46q13 0 13 -14v-413h172v413q0 14 13 14h46q13 0 13 -14v-413h172v413q0 14 13 14h46q13 0 13 -14v-414h20z" glyph-name="afii10091" horiz-adv-x="700" unicode="щ"/><glyph d="M342 321q88 0 132.5 -41.5t44.5 -119.5t-44.5 -119t-132.5 -41h-239q-12 0 -12 14v414h-51q-14 0 -14 14v34q0 14 14 14h110q12 0 12 -14v-155h180zM338 61q111 0 111 99q0 100 -111 100h-176v-199h176z" glyph-name="afii10092" horiz-adv-x="570" unicode="ъ"/><glyph d="M328 321q176 0 176 -161q0 -160 -176 -160h-239q-13 0 -13 14v462q0 14 13 14h46q13 0 13 -14v-155h180zM638 490q13 0 13 -14v-462q0 -14 -13 -14h-46q-13 0 -13 14v462q0 14 13 14h46zM323 61q111 0 111 99q0 100 -111 100h-175v-199h175z" glyph-name="afii10093" horiz-adv-x="727" unicode="ы"/><glyph d="M328 321q176 0 176 -161q0 -160 -176 -160h-239q-13 0 -13 14v462q0 14 13 14h46q13 0 13 -14v-155h180zM323 61q111 0 111 99q0 100 -111 100h-175v-199h175z" glyph-name="afii10094" horiz-adv-x="555" unicode="ь"/><glyph d="M241 502q108 0 181.5 -73.5t73.5 -183.5t-73 -183.5t-182 -73.5q-117 0 -185 82q-9 12 -1 20l25 24q11 11 24 -2q53 -57 133 -57q74 0 125.5 44.5t60.5 116.5h-189q-13 0 -13 14v28q0 14 13 14h189q-8 73 -59.5 118t-125.5 45q-80 0 -134 -58q-12 -12 -23 -1l-25 24 q-8 8 1 20q68 82 184 82z" glyph-name="afii10095" horiz-adv-x="546" unicode="э"/><glyph d="M478 502q107 0 178.5 -74t71.5 -183t-71.5 -183t-178.5 -74q-99 0 -168.5 64t-80.5 162h-81v-201q0 -14 -13 -14h-46q-13 0 -13 14v462q0 14 13 14h46q13 0 13 -14v-200h81q10 99 80 163t169 64zM478 55q78 0 129 53.5t51 136.5t-51 136.5t-129 53.5t-129.5 -53.5 t-51.5 -136.5t51.5 -136.5t129.5 -53.5z" glyph-name="afii10096" horiz-adv-x="779" unicode="ю"/><glyph d="M466 490q13 0 13 -14v-462q0 -14 -13 -14h-46q-13 0 -13 14v155h-126l-142 -161q-7 -8 -17 -8h-50q-10 0 -12 5t5 13l137 152q-151 12 -151 160q0 160 176 160h239zM231 230h176v199h-176q-110 0 -110 -99q0 -100 110 -100z" glyph-name="afii10097" horiz-adv-x="555" unicode="я"/><glyph d="M208 651q-18 0 -30.5 12.5t-12.5 29.5t12.5 29.5t30.5 12.5q17 0 30 -12.5t13 -29.5t-13 -29.5t-30 -12.5zM389 651q-17 0 -30 12.5t-13 29.5t13 29.5t30 12.5t30 -12.5t13 -29.5t-13 -29.5t-30 -12.5zM526 270q0 -28 -7.5 -39.5t-28.5 -11.5h-369q7 -76 58 -123t137 -47 q79 0 141 47q9 7 15 -1l17 -23q7 -10 -4 -21q-66 -63 -175 -63q-117 0 -188 74.5t-71 184.5q0 109 69 182t177 73q104 0 166.5 -68.5t62.5 -163.5zM296 438q-73 0 -120.5 -44.5t-54.5 -118.5h341q-2 73 -47 118t-119 45z" glyph-name="afii10071" horiz-adv-x="577" unicode="ё"/><glyph d="M205 557q-16 0 -9 16l54 115q5 12 16 12h44q16 0 9 -16l-55 -115q-4 -12 -15 -12h-44zM364 490q15 0 15 -15v-32q0 -15 -15 -15h-216v-413q0 -15 -15 -15h-42q-15 0 -15 15v460q0 15 15 15h273z" glyph-name="afii10100" horiz-adv-x="419" unicode="ѓ"/><glyph d="M492 90q7 -7 -2 -20q-68 -82 -184 -82q-109 0 -182 73.5t-73 183.5t73 183.5t182 73.5q115 0 183 -82q9 -13 2 -20l-26 -24q-11 -11 -23 1q-54 58 -133 58q-74 0 -126 -45t-60 -118h190q13 0 13 -14v-28q0 -14 -13 -14h-190q9 -72 61 -116.5t126 -44.5q79 0 132 57 q13 13 24 2z" glyph-name="afii10101" horiz-adv-x="546" unicode="є"/><glyph d="M112 617q-19 0 -32 13t-13 32t13 32.5t32 13.5t32 -13.5t13 -32.5t-13 -32t-32 -13zM89 0q-13 0 -13 14v462q0 14 13 14h46q13 0 13 -14v-462q0 -14 -13 -14h-46z" glyph-name="afii10103" horiz-adv-x="223" unicode="і"/><glyph d="M7 621q-18 0 -30.5 12.5t-12.5 29.5t12.5 29.5t30.5 12.5q17 0 30 -12.5t13 -29.5t-13 -29.5t-30 -12.5zM188 621q-17 0 -30 12.5t-13 29.5t13 29.5t30 12.5t30 -12.5t13 -29.5t-13 -29.5t-30 -12.5zM73 0q-13 0 -13 14v462q0 14 13 14h46q13 0 13 -14v-462 q0 -14 -13 -14h-46z" glyph-name="afii10104" horiz-adv-x="192" unicode="ї"/><glyph d="M258 557q-16 0 -9 16l54 115q5 12 16 12h44q16 0 9 -16l-55 -115q-4 -12 -15 -12h-44zM492 18q7 -7 5 -12.5t-12 -5.5h-54q-11 0 -18 8l-199 215l-66 -67v-142q0 -14 -13 -14h-46q-13 0 -13 14v462q0 14 13 14h46q13 0 13 -14v-231l228 237q8 8 19 8h55q10 0 12 -5 t-5 -13l-196 -201z" glyph-name="afii10109" horiz-adv-x="528" unicode="ќ"/><glyph d="M351 686q3 14 16 14h20q15 0 14 -15q-5 -51 -41.5 -83t-94.5 -32t-94.5 32t-41.5 83q-1 15 14 15h21q13 0 16 -14q6 -30 28.5 -49t56.5 -19t57 19t29 49zM177 -190q-17 0 -10 15l69 173l-188 475q-6 17 11 17h46q12 0 16 -12l151 -398l152 398q5 12 16 12h46q17 0 11 -17 l-258 -651q-4 -12 -17 -12h-45z" glyph-name="afii10110" horiz-adv-x="545" unicode="ў"/><glyph d="M430 751q15 0 15 -15v-90h-1q0 -15 -15 -15h-268v-617q0 -14 -14 -14h-47q-14 0 -14 14v672q0 14 14 14h276v36q0 15 15 15h39z" glyph-name="afii10050" horiz-adv-x="496" unicode="Ґ"/><glyph d="M368 490q11 -3 11 -15v-32q0 -15 -15 -15h-216v-413q0 -15 -15 -15h-42q-15 0 -15 15v460q0 15 15 15h205v47q0 15 15 15h42q15 0 15 -15v-47z" glyph-name="afii10098" horiz-adv-x="419" unicode="ґ"/><glyph d="M501 779l-55 115q-7 16 9 16h45q11 0 15 -12l54 -115q7 -16 -9 -16h-43q-11 0 -16 12zM1017 700q17 0 12 -17l-207 -671q-4 -12 -17 -12h-55q-13 0 -17 12l-192 594l-193 -594q-4 -12 -17 -12h-55q-13 0 -17 12l-207 671q-5 17 12 17h47q13 0 17 -12l178 -588l192 588 q4 12 16 12h53q12 0 16 -12l192 -588l178 588q5 12 17 12h47z" glyph-name="Wgrave" horiz-adv-x="1081" unicode="Ẁ"/><glyph d="M348 700h45q11 0 15 -12l54 -115q7 -16 -9 -16h-43q-11 0 -16 12l-55 115q-7 16 9 16zM226 0q-14 0 -18 12l-160 461q-6 17 11 17h45q12 0 16 -12l134 -399l138 399q4 12 18 12h50q14 0 18 -12l138 -399l134 399q4 12 15 12h46q17 0 11 -17l-161 -461q-5 -12 -18 -12h-51 q-14 0 -18 12l-139 399l-140 -399q-5 -12 -18 -12h-51z" glyph-name="wgrave" horiz-adv-x="870" unicode="ẁ"/><glyph d="M523 767q-16 0 -9 16l54 115q5 12 16 12h44q16 0 9 -16l-55 -115q-4 -12 -15 -12h-44zM1017 700q17 0 12 -17l-207 -671q-4 -12 -17 -12h-55q-13 0 -17 12l-192 594l-193 -594q-4 -12 -17 -12h-55q-13 0 -17 12l-207 671q-5 17 12 17h47q13 0 17 -12l178 -588l192 588 q4 12 16 12h53q12 0 16 -12l192 -588l178 588q5 12 17 12h47z" glyph-name="Wacute" horiz-adv-x="1081" unicode="Ẃ"/><glyph d="M522 700q16 0 9 -16l-55 -115q-4 -12 -15 -12h-44q-16 0 -9 16l54 115q5 12 16 12h44zM226 0q-14 0 -18 12l-160 461q-6 17 11 17h45q12 0 16 -12l134 -399l138 399q4 12 18 12h50q14 0 18 -12l138 -399l134 399q4 12 15 12h46q17 0 11 -17l-161 -461q-5 -12 -18 -12h-51 q-14 0 -18 12l-139 399l-140 -399q-5 -12 -18 -12h-51z" glyph-name="wacute" horiz-adv-x="870" unicode="ẃ"/><glyph d="M451 831q-18 0 -30.5 12.5t-12.5 29.5t12.5 29.5t30.5 12.5q17 0 30 -12.5t13 -29.5t-13 -29.5t-30 -12.5zM632 831q-17 0 -30 12.5t-13 29.5t13 29.5t30 12.5t30 -12.5t13 -29.5t-13 -29.5t-30 -12.5zM1017 700q17 0 12 -17l-207 -671q-4 -12 -17 -12h-55q-13 0 -17 12 l-192 594l-193 -594q-4 -12 -17 -12h-55q-13 0 -17 12l-207 671q-5 17 12 17h47q13 0 17 -12l178 -588l192 588q4 12 16 12h53q12 0 16 -12l192 -588l178 588q5 12 17 12h47z" glyph-name="Wdieresis" horiz-adv-x="1081" unicode="Ẅ"/><glyph d="M345 621q-18 0 -30.5 12.5t-12.5 29.5t12.5 29.5t30.5 12.5q17 0 30 -12.5t13 -29.5t-13 -29.5t-30 -12.5zM526 621q-17 0 -30 12.5t-13 29.5t13 29.5t30 12.5t30 -12.5t13 -29.5t-13 -29.5t-30 -12.5zM226 0q-14 0 -18 12l-160 461q-6 17 11 17h45q12 0 16 -12l134 -399 l138 399q4 12 18 12h50q14 0 18 -12l138 -399l134 399q4 12 15 12h46q17 0 11 -17l-161 -461q-5 -12 -18 -12h-51q-14 0 -18 12l-139 399l-140 -399q-5 -12 -18 -12h-51z" glyph-name="wdieresis" horiz-adv-x="870" unicode="ẅ"/><glyph d="M452 320q57 -31 88.5 -69.5t31.5 -97.5q0 -75 -52 -120t-128 -45q-102 0 -162 77q-10 11 -1 22l19 24q10 13 22 0q53 -55 119 -55q49 0 78.5 26t29.5 71q0 37 -20.5 63t-60.5 48l-58 32q-53 29 -81 61.5t-28 84.5q0 67 46 104t117 38q-34 49 -114 49q-137 0 -137 -134 v-485q0 -14 -13 -14h-49q-13 0 -13 14v500q0 89 57.5 137.5t150.5 48.5q129 0 178 -89v-88h-53q-42 0 -70 -19.5t-28 -60.5q0 -32 20 -52.5t63 -43.5z" glyph-name="uni1E9E" horiz-adv-x="623" unicode="ẞ"/><glyph d="M258 779l-55 115q-7 16 9 16h45q11 0 15 -12l54 -115q7 -16 -9 -16h-43q-11 0 -16 12zM534 700q9 0 11.5 -5t-2.5 -13l-207 -346v-322q0 -14 -14 -14h-47q-14 0 -14 14v322l-207 346q-5 8 -2.5 13t11.5 5h52q11 0 17 -10l166 -283l167 283q6 10 17 10h52z" glyph-name="Ygrave" horiz-adv-x="597" unicode="Ỳ"/><glyph d="M186 700h45q11 0 15 -12l54 -115q7 -16 -9 -16h-43q-11 0 -16 12l-55 115q-7 16 9 16zM177 -190q-17 0 -10 15l69 173l-188 475q-6 17 11 17h46q12 0 16 -12l151 -398l152 398q5 12 16 12h46q17 0 11 -17l-258 -651q-4 -12 -17 -12h-45z" glyph-name="ygrave" horiz-adv-x="545" unicode="ỳ"/><glyph d="M552 314q13 0 13 -13v-37q0 -13 -13 -13h-484q-13 0 -13 13v37q0 13 13 13h484z" glyph-name="endash" horiz-adv-x="621" unicode="–"/><glyph d="M612 314q13 0 13 -13v-37q0 -13 -13 -13h-544q-13 0 -13 13v37q0 13 13 13h544z" glyph-name="emdash" horiz-adv-x="681" unicode="—"/><glyph d="M159 715v-27q-45 -1 -65 -41q-14 -29 0 -40q3 -2 8 -2q25 1 40.5 -13.5t15.5 -37.5t-16.5 -38.5t-39.5 -15.5q-28 0 -47.5 23.5t-19.5 61.5q0 52 35 91.5t89 38.5z" glyph-name="quoteleft" horiz-adv-x="194" unicode="‘"/><glyph d="M35 503v27q45 1 65 41q14 29 0 40q-3 2 -8 2q-25 -1 -40.5 13.5t-15.5 37.5t16.5 38.5t39.5 15.5q28 0 47.5 -23.5t19.5 -61.5q0 -52 -35 -91.5t-89 -38.5z" glyph-name="quoteright" horiz-adv-x="194" unicode="’"/><glyph d="M45 -125v27q45 1 65 41q14 29 0 40q-3 2 -8 2q-25 -1 -40.5 13.5t-15.5 37.5t16.5 38.5t39.5 15.5q28 0 47.5 -23.5t19.5 -61.5q0 -52 -35 -91.5t-89 -38.5z" glyph-name="quotesinglbase" horiz-adv-x="214" unicode="‚"/><glyph d="M159 715v-27q-45 -1 -65 -41q-14 -29 0 -40q3 -2 8 -2q25 1 40.5 -13.5t15.5 -37.5t-16.5 -38.5t-39.5 -15.5q-28 0 -47.5 23.5t-19.5 61.5q0 52 35 91.5t89 38.5zM310 715v-27q-45 -1 -65 -41q-14 -29 0 -40q3 -2 8 -2q25 1 40.5 -13.5t15.5 -37.5q0 -24 -16 -39 t-40 -15q-28 0 -47.5 23.5t-19.5 61.5q0 52 35 91.5t89 38.5z" glyph-name="quotedblleft" horiz-adv-x="345" unicode="“"/><glyph d="M35 503v27q45 1 65 41q14 29 0 40q-3 2 -8 2q-25 -1 -40.5 13.5t-15.5 37.5t16.5 38.5t39.5 15.5q28 0 47.5 -23.5t19.5 -61.5q0 -52 -35 -91.5t-89 -38.5zM186 503v27q45 1 65 41q14 29 0 40q-3 2 -8 2q-24 -1 -39.5 13.5t-15.5 37.5q0 24 16 39t39 15q28 0 47.5 -23.5 t19.5 -61.5q0 -52 -35 -91.5t-89 -38.5z" glyph-name="quotedblright" horiz-adv-x="345" unicode="”"/><glyph d="M45 -125v27q45 1 65 41q14 29 0 40q-3 2 -8 2q-25 -1 -40.5 13.5t-15.5 37.5t16.5 38.5t39.5 15.5q28 0 47.5 -23.5t19.5 -61.5q0 -52 -35 -91.5t-89 -38.5zM196 -125v27q45 1 65 41q14 29 0 40q-3 2 -8 2q-24 -1 -39.5 13.5t-15.5 37.5q0 24 16 39t39 15 q28 0 47.5 -23.5t19.5 -61.5q0 -52 -35 -91.5t-89 -38.5z" glyph-name="quotedblbase" horiz-adv-x="365" unicode="„"/><glyph d="M352 581q14 0 14 -14v-34q0 -14 -14 -14h-105v-106q0 -14 -14 -14h-34q-14 0 -14 14v106h-106q-14 0 -14 14v34q0 14 14 14h106v105q0 14 14 14h34q14 0 14 -14v-105h105z" glyph-name="dagger" horiz-adv-x="431" unicode="†"/><glyph d="M352 581q14 0 14 -14v-34q0 -14 -14 -14h-105v-106q0 -14 -14 -14h-34q-14 0 -14 14v106h-106q-14 0 -14 14v34q0 14 14 14h106v105q0 14 14 14h34q14 0 14 -14v-105h105zM352 233q14 0 14 -14v-34q0 -14 -14 -14h-105v-106q0 -14 -14 -14h-34q-14 0 -14 14v106h-106 q-14 0 -14 14v34q0 14 14 14h106v105q0 14 14 14h34q14 0 14 -14v-105h105z" glyph-name="daggerdbl" horiz-adv-x="431" unicode="‡"/><glyph d="M132 209q-28 0 -47.5 19t-19.5 47t19.5 47t47.5 19t47.5 -19t19.5 -47t-19.5 -47t-47.5 -19z" glyph-name="bullet" horiz-adv-x="264" unicode="•"/><glyph d="M97 -13q-21 0 -36.5 15t-15.5 37q0 21 15.5 36t36.5 15t36 -15t15 -36q0 -22 -15 -37t-36 -15zM271 -13q-21 0 -36 15t-15 37q0 21 15 36t36 15q22 0 37 -15t15 -36q0 -22 -15 -37t-37 -15zM446 -13q-21 0 -36.5 15t-15.5 37q0 21 15.5 36t36.5 15t36.5 -15t15.5 -36 q0 -22 -15.5 -37t-36.5 -15z" glyph-name="ellipsis" horiz-adv-x="543" unicode="…"/><glyph d="M187 434q-57 0 -97 39t-40 96t40 96.5t97 39.5t97 -39.5t40 -96.5t-40 -96t-97 -39zM149 4l-24 16q-10 8 -3 19l439 652q8 13 18 5l24 -16q10 -8 3 -19l-439 -652q-8 -13 -18 -5zM187 485q36 0 60 24t24 60q0 37 -24 61t-60 24t-60 -24t-24 -61q0 -36 24 -60t60 -24z M541 -5q-57 0 -97 39t-40 96t40 96.5t97 39.5t97 -39.5t40 -96.5t-40 -96t-97 -39zM853 -5q-57 0 -97 39t-40 96t40 96.5t97 39.5q56 0 96.5 -39.5t40.5 -96.5q0 -56 -40.5 -95.5t-96.5 -39.5zM541 46q36 0 60 24t24 60q0 37 -24 61t-60 24t-60 -24t-24 -61q0 -36 24 -60 t60 -24zM853 46q35 0 59 24t24 60q0 37 -24 61t-59 24q-36 0 -60 -24t-24 -61q0 -36 24 -60t60 -24z" glyph-name="perthousand" horiz-adv-x="1040" unicode="‰"/><glyph d="M181 159q0 -6 -4.5 -8t-9.5 1l-109 87q-8 7 -8 16v49q0 8 8 15l109 87q5 4 9.5 2t4.5 -9v-39q0 -9 -8 -16l-83 -65l83 -64q8 -7 8 -16v-40z" glyph-name="guilsinglleft" horiz-adv-x="231" unicode="‹"/><glyph d="M50 159v40q0 9 8 16l83 64l-83 65q-8 7 -8 16v39q0 7 5 9t9 -2l109 -87q8 -7 8 -15v-49q0 -9 -8 -16l-109 -87q-4 -3 -9 -1t-5 8z" glyph-name="guilsinglright" horiz-adv-x="231" unicode="›"/><glyph d="M308 700l-427 -700h-41l427 700h41z" glyph-name="fraction" horiz-adv-x="148" unicode="⁄"/><glyph d="M695 101q10 -10 -3 -23q-101 -91 -236 -91q-132 0 -227 78.5t-120 202.5h-55q-14 0 -14 13v26q0 13 14 13h48q-1 9 -1 27v20h-47q-14 0 -14 13v26q0 13 14 13h53q24 127 119 208t230 81t236 -90q12 -12 3 -24l-28 -31q-10 -10 -22 0q-82 72 -187 72q-102 0 -176.5 -59.5 t-96.5 -156.5h162q14 0 14 -13v-26q0 -13 -14 -13h-169q-1 -7 -1 -20q0 -18 1 -27h169q14 0 14 -13v-26q0 -13 -14 -13h-160q23 -94 97 -151t174 -57q105 0 187 72q12 10 21 1z" glyph-name="Euro" horiz-adv-x="761" unicode="€"/><glyph d="M139 520q-5 0 -5 5v146h-64q-5 0 -5 5v19q0 5 5 5h161q5 0 5 -5v-19q0 -5 -5 -5h-64v-146q0 -5 -5 -5h-23zM274 520q-5 0 -5 5v170q0 5 5 5h26q4 0 6 -4l68 -138l68 138q2 4 6 4h27q5 0 5 -5v-170q0 -5 -5 -5h-23q-5 0 -5 5v117l-57 -118q-2 -4 -6 -4h-19q-4 0 -6 4 l-58 118v-117q0 -5 -5 -5h-22z" glyph-name="trademark" horiz-adv-x="545" unicode="™"/><glyph d="M104 701v-261h-35v228h-29v33h64zM517 700l-427 -700h-41l427 700h41zM485 263q40 0 60.5 -19t20.5 -49q0 -37 -39 -56q50 -16 50 -66q0 -35 -24.5 -56t-65.5 -21q-45 0 -67.5 23.5t-22.5 59.5h34q0 -23 14 -38t42 -15q24 0 39.5 12.5t15.5 34.5q0 48 -75 48v28 q65 0 65 45q0 38 -47 38q-49 0 -49 -50h-33q-1 37 20 59t62 22z" glyph-name="onethird" horiz-adv-x="617" unicode="⅓"/><glyph d="M104 701v-261h-35v228h-29v33h64zM520 700l-427 -700h-41l427 700h41zM447 -4q-37 0 -62 21.5t-25 56.5q0 48 42 69q-28 19 -28 54q0 27 19.5 46.5t53.5 19.5q33 0 52.5 -19.5t19.5 -46.5q0 -35 -27 -54q42 -21 42 -69q0 -35 -25 -56.5t-62 -21.5zM447 158q18 0 29 11 t11 27t-10.5 27t-29.5 11t-30 -11t-11 -27t11.5 -27t29.5 -11zM447 25q22 0 37.5 14.5t15.5 35.5q0 23 -15.5 37.5t-37.5 14.5q-23 0 -38.5 -14.5t-15.5 -37.5q0 -21 16 -35.5t38 -14.5z" glyph-name="oneeighth" horiz-adv-x="579" unicode="⅛"/><glyph d="M128 703q40 0 60.5 -19t20.5 -49q0 -37 -39 -56q50 -16 50 -66q0 -35 -24.5 -56t-65.5 -21q-45 0 -67.5 23.5t-22.5 59.5h34q0 -23 14 -38t42 -15q24 0 39.5 12.5t15.5 34.5q0 48 -75 48v28q65 0 65 45q0 38 -47 38q-49 0 -49 -50h-33q-1 37 20 59t62 22zM543 700 l-427 -700h-41l427 700h41zM468 -4q-37 0 -62 21.5t-25 56.5q0 48 42 69q-28 19 -28 54q0 27 19.5 46.5t53.5 19.5q33 0 52.5 -19.5t19.5 -46.5q0 -35 -27 -54q42 -21 42 -69q0 -35 -25 -56.5t-62 -21.5zM468 158q18 0 29 11t11 27t-10.5 27t-29.5 11t-30 -11t-11 -27 t11.5 -27t29.5 -11zM468 25q22 0 37.5 14.5t15.5 35.5q0 23 -15.5 37.5t-37.5 14.5q-23 0 -38.5 -14.5t-15.5 -37.5q0 -21 16 -35.5t38 -14.5z" glyph-name="threeeighths" horiz-adv-x="595" unicode="⅜"/><glyph d="M202 701v-33h-107l-10 -65q20 17 52 17q38 0 63.5 -25t25.5 -66t-26.5 -67t-69.5 -26q-36 0 -60 18t-30 44l30 15q4 -19 20 -32t40 -13q26 0 43 17t17 44q0 28 -16.5 43.5t-42.5 15.5q-34 0 -54 -30l-29 10l18 133h136zM543 700l-427 -700h-41l427 700h41zM470 -4 q-37 0 -62 21.5t-25 56.5q0 48 42 69q-28 19 -28 54q0 27 19.5 46.5t53.5 19.5q33 0 52.5 -19.5t19.5 -46.5q0 -35 -27 -54q42 -21 42 -69q0 -35 -25 -56.5t-62 -21.5zM470 158q18 0 29 11t11 27t-10.5 27t-29.5 11t-30 -11t-11 -27t11.5 -27t29.5 -11zM470 25 q22 0 37.5 14.5t15.5 35.5q0 23 -15.5 37.5t-37.5 14.5q-23 0 -38.5 -14.5t-15.5 -37.5q0 -21 16 -35.5t38 -14.5z" glyph-name="fiveeighths" horiz-adv-x="597" unicode="⅝"/><glyph d="M204 701l-110 -261h-37l98 228h-115v33h164zM521 700l-427 -700h-41l427 700h41zM448 -4q-37 0 -62 21.5t-25 56.5q0 48 42 69q-28 19 -28 54q0 27 19.5 46.5t53.5 19.5q33 0 52.5 -19.5t19.5 -46.5q0 -35 -27 -54q42 -21 42 -69q0 -35 -25 -56.5t-62 -21.5zM448 158 q18 0 29 11t11 27t-10.5 27t-29.5 11t-30 -11t-11 -27t11.5 -27t29.5 -11zM448 25q22 0 37.5 14.5t15.5 35.5q0 23 -15.5 37.5t-37.5 14.5q-23 0 -38.5 -14.5t-15.5 -37.5q0 -21 16 -35.5t38 -14.5z" glyph-name="seveneighths" horiz-adv-x="570" unicode="⅞"/><glyph d="M438 393q67 -88 67 -175q0 -98 -64.5 -164.5t-162.5 -66.5t-162.5 67t-64.5 166q0 97 64 161.5t158 64.5q23 0 48 -5l-178 230q-8 10 1 18l34 27q10 9 19 -4zM278 54q67 0 112 46t45 118q0 73 -44.5 118t-112.5 45t-112.5 -45t-44.5 -118q0 -72 45 -118t112 -46z" glyph-name="partialdiff" horiz-adv-x="556" unicode="∂"/><glyph d="M74 -190q-14 0 -14 14v862q0 14 14 14h521q14 0 14 -14v-862q0 -14 -14 -14h-43q-14 0 -14 14v806h-406v-806q0 -14 -12 -14h-46z" glyph-name="product" horiz-adv-x="670" unicode="∏"/><glyph d="M75 -190q-15 0 -15 15v44q0 9 6 18l269 368l-269 368q-6 9 -6 18v44q0 15 15 15h498q15 0 15 -15v-40q0 -15 -15 -15h-424l268 -365q7 -10 0 -20l-268 -365h424q15 0 15 -15v-40q0 -15 -15 -15h-498z" glyph-name="summation" horiz-adv-x="649" unicode="∑"/><glyph d="M79 253q-14 0 -14 14v34q0 14 14 14h293q14 0 14 -14v-34q0 -14 -14 -14h-293z" glyph-name="minus" horiz-adv-x="451" unicode="−"/><glyph d="M298 -190q-14 0 -17 13l-116 440h-99q-15 0 -15 15v39q0 15 15 15h136q14 0 17 -13l110 -425l187 793q3 13 16 13h37q16 0 13 -17l-204 -860q-3 -13 -16 -13h-64z" glyph-name="radical" horiz-adv-x="633" unicode="√"/><glyph d="M610 424q68 0 114 -46t46 -117t-46 -117.5t-114 -46.5q-100 0 -192 122q-92 -122 -191 -122q-69 0 -115 46.5t-46 117.5t46 117t115 46q99 0 191 -122q92 122 192 122zM229 148q46 0 81.5 29.5t72.5 83.5q-36 53 -72 82.5t-82 29.5q-47 0 -77 -31.5t-30 -80.5 q0 -48 30 -80.5t77 -32.5zM607 148q47 0 77 32.5t30 80.5q0 49 -30 80.5t-77 31.5q-46 0 -82 -29.5t-72 -82.5q37 -54 72.5 -83.5t81.5 -29.5z" glyph-name="infinity" horiz-adv-x="836" unicode="∞"/><glyph d="M103 -190q-31 0 -48 8q-9 4 -9 13v41q0 9 12 7q20 -3 33 -3q39 0 53.5 21t14.5 59v645q0 130 128 130q29 0 48 -8q9 -4 9 -13v-41q0 -9 -12 -7q-20 3 -34 3q-39 0 -53 -21t-14 -59v-645q0 -130 -128 -130z" glyph-name="integral" horiz-adv-x="389" unicode="∫"/><glyph d="M299 295q-32 0 -58 18t-49 36t-46 18q-38 0 -46 -33q-3 -10 -12 -10h-18q-12 0 -10 14q3 38 28.5 58.5t61.5 20.5q32 0 58.5 -18t49 -36t45.5 -18q37 0 46 34q3 10 12 10h19q12 0 10 -15q-4 -38 -29.5 -58.5t-61.5 -20.5zM299 135q-32 0 -58 18t-49 36t-46 18 q-38 0 -46 -33q-3 -10 -12 -10h-18q-12 0 -10 14q3 38 28.5 58.5t61.5 20.5q32 0 58.5 -18t49 -36t45.5 -18q37 0 46 34q3 10 12 10h19q12 0 10 -15q-4 -38 -29.5 -58.5t-61.5 -20.5z" glyph-name="approxequal" horiz-adv-x="450" unicode="≈"/><glyph d="M372 317h-105l-24 -65h129q14 0 14 -14v-34q0 -14 -14 -14h-152l-67 -178q-5 -12 -18 -12h-26q-17 0 -11 17l65 173h-84q-14 0 -14 14v34q0 14 14 14h107l24 65h-131q-14 0 -14 14v34q0 14 14 14h154l64 170q5 12 18 12h26q17 0 11 -17l-62 -165h82q14 0 14 -14v-34 q0 -14 -14 -14z" glyph-name="notequal" horiz-adv-x="451" unicode="≠"/><glyph d="M376 174l-301 178q-9 4 -9 16v30q0 11 9 17l301 178q6 4 10.5 2t4.5 -10v-35q0 -10 -9 -15l-264 -151l264 -152q9 -7 9 -14v-36q0 -7 -4.5 -9.5t-10.5 1.5zM78 0q-13 0 -13 13v23q0 13 13 13h300q13 0 13 -13v-23q0 -13 -13 -13h-300z" glyph-name="lessequal" horiz-adv-x="456" unicode="≤"/><glyph d="M80 174q-15 -8 -15 8v36q0 8 9 14l263 152l-263 151q-9 5 -9 15v35q0 18 15 8l301 -178q9 -6 9 -17v-30q0 -12 -9 -16zM377 0h-299q-13 0 -13 13v23q0 13 13 13h299q13 0 13 -13v-23q0 -13 -13 -13z" glyph-name="greaterequal" horiz-adv-x="455" unicode="≥"/><glyph d="M227 0q-13 0 -17 11l-146 329q-4 10 0 20l146 329q4 11 17 11h75q13 0 17 -11l146 -329q4 -10 0 -20l-146 -329q-4 -11 -17 -11h-75zM264 45l135 305l-135 305l-134 -305z" glyph-name="lozenge" horiz-adv-x="529" unicode="◊"/><glyph d="M765 608q10 -10 0 -20l-473 -475q-10 -10 -20 0l-221 223q-9 11 0 20l35 34q10 10 19 0l178 -180l429 431q10 10 20 0z" glyph-name="uni2713" horiz-adv-x="816" unicode="✓"/><glyph glyph-name="uniFEFF" horiz-adv-x="200" unicode="﻿"/><glyph d="M97 621q-18 0 -30.5 12.5t-12.5 29.5t12.5 29.5t30.5 12.5q17 0 30 -12.5t13 -29.5t-13 -29.5t-30 -12.5zM73 0q-13 0 -13 14v462q0 14 13 14h46q13 0 13 -14v-462q0 -14 -13 -14h-46z" glyph-name="i.aalt" horiz-adv-x="192"/><glyph d="M476 55q12 -7 12 -15v-30q0 -14 -27 -14q-34 0 -52.5 22.5t-19.5 59.5q-34 -44 -86 -67.5t-106 -23.5q-73 0 -112 38.5t-39 103.5q0 122 157 137l186 17v54q0 55 -28 79t-96 24q-119 0 -127 -80q-2 -12 -14 -12h-40q-14 0 -13 15q8 139 195 139q105 0 150 -41t45 -119 v-248q0 -30 15 -39zM217 50q111 0 172 89v90l-176 -17q-53 -5 -73.5 -25t-20.5 -53q0 -84 98 -84z" glyph-name="a.salt" horiz-adv-x="549"/><glyph d="M249 557q-16 0 -9 16l54 115q5 12 16 12h44q16 0 9 -16l-55 -115q-4 -12 -15 -12h-44zM476 55q12 -7 12 -15v-30q0 -14 -27 -14q-34 0 -52.5 22.5t-19.5 59.5q-34 -44 -86 -67.5t-106 -23.5q-73 0 -112 38.5t-39 103.5q0 122 157 137l186 17v54q0 55 -28 79t-96 24 q-119 0 -127 -80q-2 -12 -14 -12h-40q-14 0 -13 15q8 139 195 139q105 0 150 -41t45 -119v-248q0 -30 15 -39zM217 50q111 0 172 89v90l-176 -17q-53 -5 -73.5 -25t-20.5 -53q0 -84 98 -84z" glyph-name="aacute.aalt" horiz-adv-x="549"/><glyph d="M267 570q-58 0 -94.5 32t-41.5 83q-1 15 14 15h21q13 0 16 -14q6 -30 28.5 -49t56.5 -19t57 19t29 49q3 14 16 14h20q15 0 14 -15q-5 -51 -41.5 -83t-94.5 -32zM476 55q12 -7 12 -15v-30q0 -14 -27 -14q-34 0 -52.5 22.5t-19.5 59.5q-34 -44 -86 -67.5t-106 -23.5 q-73 0 -112 38.5t-39 103.5q0 122 157 137l186 17v54q0 55 -28 79t-96 24q-119 0 -127 -80q-2 -12 -14 -12h-40q-14 0 -13 15q8 139 195 139q105 0 150 -41t45 -119v-248q0 -30 15 -39zM217 50q111 0 172 89v90l-176 -17q-53 -5 -73.5 -25t-20.5 -53q0 -84 98 -84z" glyph-name="abreve.aalt" horiz-adv-x="549"/><glyph d="M226 582l-86 104q-4 4 -2 9t9 5h39q9 0 16 -8l65 -80l64 80q7 8 16 8h40q6 0 8.5 -5t-1.5 -9l-86 -104q-7 -8 -16 -8h-50q-9 0 -16 8zM476 55q12 -7 12 -15v-30q0 -14 -27 -14q-34 0 -52.5 22.5t-19.5 59.5q-34 -44 -86 -67.5t-106 -23.5q-73 0 -112 38.5t-39 103.5 q0 122 157 137l186 17v54q0 55 -28 79t-96 24q-119 0 -127 -80q-2 -12 -14 -12h-40q-14 0 -13 15q8 139 195 139q105 0 150 -41t45 -119v-248q0 -30 15 -39zM217 50q111 0 172 89v90l-176 -17q-53 -5 -73.5 -25t-20.5 -53q0 -84 98 -84z" glyph-name="uni01CE.aalt" horiz-adv-x="549"/><glyph d="M147 574q-7 0 -9 5t2 9l86 104q7 8 16 8h50q9 0 16 -8l86 -104q4 -4 1.5 -9t-8.5 -5h-40q-9 0 -16 8l-64 80l-65 -80q-7 -8 -16 -8h-39zM476 55q12 -7 12 -15v-30q0 -14 -27 -14q-34 0 -52.5 22.5t-19.5 59.5q-34 -44 -86 -67.5t-106 -23.5q-73 0 -112 38.5t-39 103.5 q0 122 157 137l186 17v54q0 55 -28 79t-96 24q-119 0 -127 -80q-2 -12 -14 -12h-40q-14 0 -13 15q8 139 195 139q105 0 150 -41t45 -119v-248q0 -30 15 -39zM217 50q111 0 172 89v90l-176 -17q-53 -5 -73.5 -25t-20.5 -53q0 -84 98 -84z" glyph-name="acircumflex.aalt" horiz-adv-x="549"/><glyph d="M177 621q-18 0 -30.5 12.5t-12.5 29.5t12.5 29.5t30.5 12.5q17 0 30 -12.5t13 -29.5t-13 -29.5t-30 -12.5zM358 621q-17 0 -30 12.5t-13 29.5t13 29.5t30 12.5t30 -12.5t13 -29.5t-13 -29.5t-30 -12.5zM476 55q12 -7 12 -15v-30q0 -14 -27 -14q-34 0 -52.5 22.5 t-19.5 59.5q-34 -44 -86 -67.5t-106 -23.5q-73 0 -112 38.5t-39 103.5q0 122 157 137l186 17v54q0 55 -28 79t-96 24q-119 0 -127 -80q-2 -12 -14 -12h-40q-14 0 -13 15q8 139 195 139q105 0 150 -41t45 -119v-248q0 -30 15 -39zM217 50q111 0 172 89v90l-176 -17 q-53 -5 -73.5 -25t-20.5 -53q0 -84 98 -84z" glyph-name="adieresis.aalt" horiz-adv-x="549"/><glyph d="M226 569l-55 115q-7 16 9 16h45q11 0 15 -12l54 -115q7 -16 -9 -16h-43q-11 0 -16 12zM476 55q12 -7 12 -15v-30q0 -14 -27 -14q-34 0 -52.5 22.5t-19.5 59.5q-34 -44 -86 -67.5t-106 -23.5q-73 0 -112 38.5t-39 103.5q0 122 157 137l186 17v54q0 55 -28 79t-96 24 q-119 0 -127 -80q-2 -12 -14 -12h-40q-14 0 -13 15q8 139 195 139q105 0 150 -41t45 -119v-248q0 -30 15 -39zM217 50q111 0 172 89v90l-176 -17q-53 -5 -73.5 -25t-20.5 -53q0 -84 98 -84z" glyph-name="agrave.aalt" horiz-adv-x="549"/><glyph d="M131 640q-14 0 -14 14v32q0 14 14 14h273q14 0 14 -14v-32q0 -14 -14 -14h-273zM476 55q12 -7 12 -15v-30q0 -14 -27 -14q-34 0 -52.5 22.5t-19.5 59.5q-34 -44 -86 -67.5t-106 -23.5q-73 0 -112 38.5t-39 103.5q0 122 157 137l186 17v54q0 55 -28 79t-96 24 q-119 0 -127 -80q-2 -12 -14 -12h-40q-14 0 -13 15q8 139 195 139q105 0 150 -41t45 -119v-248q0 -30 15 -39zM217 50q111 0 172 89v90l-176 -17q-53 -5 -73.5 -25t-20.5 -53q0 -84 98 -84z" glyph-name="amacron.aalt" horiz-adv-x="549"/><glyph d="M476 55q12 -7 12 -15v-30q0 -14 -27 -14h-1q-46 -1 -76.5 -26t-30.5 -65q0 -35 24 -49.5t66 -5.5v-48q-19 -9 -44.5 -8.5t-50 9.5t-41 32t-16.5 57q0 49 33.5 82.5t80.5 47.5q-16 24 -16 56q-34 -44 -86 -67.5t-106 -23.5q-73 0 -112 38.5t-39 103.5q0 122 157 137 l186 17v54q0 55 -28 79t-96 24q-119 0 -127 -80q-2 -12 -14 -12h-40q-14 0 -13 15q8 139 195 139q105 0 150 -41t45 -119v-248q0 -30 15 -39zM217 50q111 0 172 89v90l-176 -17q-53 -5 -73.5 -25t-20.5 -53q0 -84 98 -84z" glyph-name="aogonek.aalt" horiz-adv-x="549"/><glyph d="M267 562q-34 0 -57 22.5t-23 55.5q0 34 23 56t57 22t57 -22t23 -56q0 -33 -23 -55.5t-57 -22.5zM267 668q-12 0 -20 -8t-8 -20t8 -20t20 -8t20 8t8 20t-8 20t-20 8zM476 55q12 -7 12 -15v-30q0 -14 -27 -14q-34 0 -52.5 22.5t-19.5 59.5q-34 -44 -86 -67.5t-106 -23.5 q-73 0 -112 38.5t-39 103.5q0 122 157 137l186 17v54q0 55 -28 79t-96 24q-119 0 -127 -80q-2 -12 -14 -12h-40q-14 0 -13 15q8 139 195 139q105 0 150 -41t45 -119v-248q0 -30 15 -39zM217 50q111 0 172 89v90l-176 -17q-53 -5 -73.5 -25t-20.5 -53q0 -84 98 -84z" glyph-name="aring.aalt" horiz-adv-x="549"/><glyph d="M127 633q-11 0 -9 12q4 35 27 54t56 19q36 0 75.5 -32.5t63.5 -32.5q31 0 42 30q3 9 11 9h15q10 0 10 -10q-4 -36 -26.5 -55t-53.5 -19q-38 0 -78 32t-64 32q-32 0 -43 -30q-3 -9 -11 -9h-15zM476 55q12 -7 12 -15v-30q0 -14 -27 -14q-34 0 -52.5 22.5t-19.5 59.5 q-34 -44 -86 -67.5t-106 -23.5q-73 0 -112 38.5t-39 103.5q0 122 157 137l186 17v54q0 55 -28 79t-96 24q-119 0 -127 -80q-2 -12 -14 -12h-40q-14 0 -13 15q8 139 195 139q105 0 150 -41t45 -119v-248q0 -30 15 -39zM217 50q111 0 172 89v90l-176 -17q-53 -5 -73.5 -25 t-20.5 -53q0 -84 98 -84z" glyph-name="atilde.aalt" horiz-adv-x="549"/><glyph d="M293 490q15 0 15 -15v-32q0 -15 -15 -15h-80v-413q0 -15 -15 -15h-42q-15 0 -15 15v413h-80q-15 0 -15 15v32q0 15 15 15h80v135q0 15 15 15h42q15 0 15 -15v-135h80z" glyph-name="t.aalt" horiz-adv-x="354"/><glyph d="M368 708q119 0 189 -95.5t70 -265.5q0 -169 -70 -264.5t-189 -95.5t-189 95.5t-70 264.5q0 170 70 265.5t189 95.5zM368 640q-89 0 -138.5 -77t-49.5 -216q0 -138 49.5 -215t138.5 -77t138.5 77t49.5 215q0 139 -49.5 216t-138.5 77z" glyph-name="zero.tnum" horiz-adv-x="730"/><glyph d="M469 700q13 0 13 -14v-672q0 -14 -13 -14h-46q-13 0 -13 14v622h-108q-12 0 -12 14v36q0 14 12 14h167z" glyph-name="one.tnum" horiz-adv-x="730"/><glyph d="M522 64q14 0 14 -14v-36q0 -14 -14 -14h-360q-14 0 -14 14v38q0 12 7 19l217 260q30 35 45.5 55t32 56.5t16.5 70.5q0 56 -36.5 92t-96.5 36q-36 0 -64.5 -14.5t-41.5 -28.5t-28 -37q-8 -13 -19 -2l-27 26q-9 9 -1 22q66 101 185 101q90 0 145 -55t55 -135 q0 -41 -17.5 -83t-34 -64.5t-47.5 -58.5l-205 -248h289z" glyph-name="two.tnum" horiz-adv-x="730"/><glyph d="M337 -13q-124 0 -191 97q-7 10 3 18l29 27q9 9 17 -2q55 -73 140 -73q66 0 107 40t41 103q0 67 -45.5 106.5t-110.5 39.5h-18q-14 0 -14 11v37q0 13 14 13h18q58 0 93.5 35.5t35.5 87.5q0 49 -33 81.5t-86 32.5q-77 0 -121 -71q-8 -11 -19 -2l-28 27q-7 7 -1 17 q27 42 72 69t103 27q80 0 131.5 -48.5t51.5 -121.5q0 -108 -105 -161q60 -20 97.5 -68.5t37.5 -117.5q0 -88 -61.5 -146t-157.5 -58z" glyph-name="three.tnum" horiz-adv-x="730"/><glyph d="M582 229q12 0 12 -14v-35q0 -14 -12 -14h-74v-152q0 -14 -12 -14h-47q-13 0 -13 14v152h-283q-15 0 -15 15v41q0 9 4 15l288 453q7 10 17 10h47q14 0 14 -15v-456h74zM212 229h224v355z" glyph-name="four.tnum" horiz-adv-x="730"/><glyph d="M363 455q92 0 155 -64t63 -166q0 -107 -68 -172.5t-168 -65.5q-64 0 -114.5 27t-77.5 64q-8 13 2 20l32 26q11 8 20 -5q52 -65 137 -65q71 0 119.5 48t48.5 124q0 73 -46.5 119t-114.5 46q-85 0 -132 -62q-7 -10 -25 -3l-27 11q-13 5 -10 18l71 332q3 13 16 13h279 q12 0 12 -14v-36q0 -14 -12 -14h-240l-47 -221q50 40 127 40z" glyph-name="five.tnum" horiz-adv-x="730"/><glyph d="M383 446q94 0 158.5 -64.5t64.5 -161.5q0 -99 -64.5 -166t-162.5 -67t-162.5 66.5t-64.5 164.5q0 89 67 175l240 319q9 13 19 4l35 -27q8 -7 0 -18l-178 -230q25 5 48 5zM379 54q67 0 112 46t45 118q0 73 -44.5 118t-112.5 45t-112.5 -45t-44.5 -118q0 -72 45 -118 t112 -46z" glyph-name="six.tnum" horiz-adv-x="730"/><glyph d="M563 700q7 0 10 -5.5t0 -12.5l-275 -667q-7 -15 -17 -15h-44q-17 0 -10 17l260 619h-329q-12 0 -12 14v36q0 14 12 14h405z" glyph-name="seven.tnum" horiz-adv-x="730"/><glyph d="M365 -13q-94 0 -157.5 58.5t-63.5 148.5q0 71 39 122.5t97 71.5q-45 21 -70 61t-25 89q0 71 50 120.5t130 49.5t130 -49.5t50 -120.5q0 -49 -25 -89t-70 -61q58 -20 97 -71.5t39 -122.5q0 -90 -63.5 -148.5t-157.5 -58.5zM365 417q51 0 83.5 33.5t32.5 84.5 q0 50 -32 81.5t-84 31.5t-84 -31.5t-32 -81.5q0 -51 32.5 -84.5t83.5 -33.5zM365 52q66 0 108.5 41t42.5 105q0 65 -44 106.5t-107 41.5t-107 -41.5t-44 -106.5q0 -64 42.5 -105t108.5 -41z" glyph-name="eight.tnum" horiz-adv-x="730"/><glyph d="M378 708q98 0 162.5 -66.5t64.5 -164.5q0 -87 -67 -175l-241 -319q-9 -13 -19 -4l-34 27q-9 8 -1 18l178 230q-25 -5 -48 -5q-94 0 -158 64.5t-64 161.5q0 99 64.5 166t162.5 67zM378 314q68 0 112.5 45t44.5 118q0 72 -45 118t-112 46t-112 -46t-45 -118 q0 -73 44.5 -118t112.5 -45z" glyph-name="nine.tnum" horiz-adv-x="730"/><glyph d="M145 263q47 0 76 -35t29 -91v-13q0 -56 -29 -91t-76 -35t-76 35t-29 91v13q0 56 29 91t76 35zM145 230q-30 0 -50 -24.5t-20 -68.5v-13q0 -44 20 -68.5t50 -24.5t49.5 24.5t19.5 68.5v13q0 44 -19.5 68.5t-49.5 24.5z" glyph-name="zero.dnom" horiz-adv-x="290"/><glyph d="M104 261v-261h-35v228h-29v33h64z" glyph-name="one.dnom" horiz-adv-x="149"/><glyph d="M124 264q40 0 62 -21.5t22 -53.5q0 -6 -1 -11.5t-2 -10.5t-4.5 -10.5t-5.5 -9.5t-7.5 -10.5t-8 -10t-10 -11l-11 -11l-12.5 -12.5l-13 -13l-47 -46h124v-33h-168v33l68 68q6 6 17.5 17t15 15t11 12t9.5 11.5t5 9.5t4 11.5t1 11.5q0 22 -14 33t-35 11t-35 -12.5t-14 -37.5 v-14h-35v14q0 37 22.5 59t61.5 22z" glyph-name="two.dnom" horiz-adv-x="249"/><glyph d="M128 263q40 0 60.5 -19t20.5 -49q0 -37 -39 -56q50 -16 50 -66q0 -35 -24.5 -56t-65.5 -21q-45 0 -67.5 23.5t-22.5 59.5h34q0 -23 14 -38t42 -15q24 0 39.5 12.5t15.5 34.5q0 48 -75 48v28q65 0 65 45q0 38 -47 38q-49 0 -49 -50h-33q-1 37 20 59t62 22z" glyph-name="three.dnom" horiz-adv-x="260"/><glyph d="M196 261v-167h27v-34h-27v-60h-35v60h-136l136 201h35zM161 210l-77 -116h77v116z" glyph-name="four.dnom" horiz-adv-x="263"/><glyph d="M202 261v-33h-107l-10 -65q20 17 52 17q38 0 63.5 -25t25.5 -66t-26.5 -67t-69.5 -26q-36 0 -60 18t-30 44l30 15q4 -19 20 -32t40 -13q26 0 43 17t17 44q0 28 -16.5 43.5t-42.5 15.5q-34 0 -54 -30l-29 10l18 133h136z" glyph-name="five.dnom" horiz-adv-x="266"/><glyph d="M188 261l-76 -100q5 4 20 4q34 0 58.5 -24.5t24.5 -60.5t-24.5 -60t-62.5 -24t-63 24t-25 60q0 20 8.5 40.5t14 28.5t24.5 33l61 79h40zM127 135q-23 0 -38 -15.5t-15 -38.5t15 -38.5t38 -15.5t38 15.5t15 38.5t-15.5 38.5t-37.5 15.5z" glyph-name="six.dnom" horiz-adv-x="255"/><glyph d="M204 261l-110 -261h-37l98 228h-115v33h164z" glyph-name="seven.dnom" horiz-adv-x="239"/><glyph d="M127 -4q-37 0 -62 21.5t-25 56.5q0 48 42 69q-28 19 -28 54q0 27 19.5 46.5t53.5 19.5q33 0 52.5 -19.5t19.5 -46.5q0 -35 -27 -54q42 -21 42 -69q0 -35 -25 -56.5t-62 -21.5zM127 158q18 0 29 11t11 27t-10.5 27t-29.5 11t-30 -11t-11 -27t11.5 -27t29.5 -11zM127 25 q22 0 37.5 14.5t15.5 35.5q0 23 -15.5 37.5t-37.5 14.5q-23 0 -38.5 -14.5t-15.5 -37.5q0 -21 16 -35.5t38 -14.5z" glyph-name="eight.dnom" horiz-adv-x="254"/><glyph d="M67 -1l76 100q-5 -4 -20 -4q-34 0 -58.5 24.5t-24.5 60.5t24.5 60t62.5 24t63 -24t25 -60q0 -20 -8.5 -40.5t-14 -28.5t-24.5 -33l-61 -79h-40zM128 125q22 0 37 15.5t15 38.5t-15 38.5t-37 15.5q-23 0 -38.5 -15.5t-15.5 -38.5t16 -38.5t38 -15.5z" glyph-name="nine.dnom" horiz-adv-x="255"/><glyph d="M145 703q47 0 76 -35t29 -91v-13q0 -56 -29 -91t-76 -35t-76 35t-29 91v13q0 56 29 91t76 35zM145 670q-30 0 -50 -24.5t-20 -68.5v-13q0 -44 20 -68.5t50 -24.5t49.5 24.5t19.5 68.5v13q0 44 -19.5 68.5t-49.5 24.5z" glyph-name="zero.numr" horiz-adv-x="290"/><glyph d="M104 701v-261h-35v228h-29v33h64z" glyph-name="one.numr" horiz-adv-x="149"/><glyph d="M124 704q40 0 62 -21.5t22 -53.5q0 -6 -1 -11.5t-2 -10.5t-4.5 -10.5t-5.5 -9.5t-7.5 -10.5t-8 -10t-10 -11l-11 -11l-12.5 -12.5l-13 -13l-47 -46h124v-33h-168v33l68 68q6 6 17.5 17t15 15t11 12t9.5 11.5t5 9.5t4 11.5t1 11.5q0 22 -14 33t-35 11t-35 -12.5t-14 -37.5 v-14h-35v14q0 37 22.5 59t61.5 22z" glyph-name="two.numr" horiz-adv-x="249"/><glyph d="M128 703q40 0 60.5 -19t20.5 -49q0 -37 -39 -56q50 -16 50 -66q0 -35 -24.5 -56t-65.5 -21q-45 0 -67.5 23.5t-22.5 59.5h34q0 -23 14 -38t42 -15q24 0 39.5 12.5t15.5 34.5q0 48 -75 48v28q65 0 65 45q0 38 -47 38q-49 0 -49 -50h-33q-1 37 20 59t62 22z" glyph-name="three.numr" horiz-adv-x="260"/><glyph d="M196 701v-167h27v-34h-27v-60h-35v60h-136l136 201h35zM161 650l-77 -116h77v116z" glyph-name="four.numr" horiz-adv-x="263"/><glyph d="M202 701v-33h-107l-10 -65q20 17 52 17q38 0 63.5 -25t25.5 -66t-26.5 -67t-69.5 -26q-36 0 -60 18t-30 44l30 15q4 -19 20 -32t40 -13q26 0 43 17t17 44q0 28 -16.5 43.5t-42.5 15.5q-34 0 -54 -30l-29 10l18 133h136z" glyph-name="five.numr" horiz-adv-x="266"/><glyph d="M188 701l-76 -100q5 4 20 4q34 0 58.5 -24.5t24.5 -60.5t-24.5 -60t-62.5 -24t-63 24t-25 60q0 20 8.5 40.5t14 28.5t24.5 33l61 79h40zM127 575q-23 0 -38 -15.5t-15 -38.5t15 -38.5t38 -15.5t38 15.5t15 38.5t-15.5 38.5t-37.5 15.5z" glyph-name="six.numr" horiz-adv-x="255"/><glyph d="M204 701l-110 -261h-37l98 228h-115v33h164z" glyph-name="seven.numr" horiz-adv-x="239"/><glyph d="M127 436q-37 0 -62 21.5t-25 56.5q0 48 42 69q-28 19 -28 54q0 27 19.5 46.5t53.5 19.5q33 0 52.5 -19.5t19.5 -46.5q0 -35 -27 -54q42 -21 42 -69q0 -35 -25 -56.5t-62 -21.5zM127 598q18 0 29 11t11 27t-10.5 27t-29.5 11t-30 -11t-11 -27t11.5 -27t29.5 -11zM127 465 q22 0 37.5 14.5t15.5 35.5q0 23 -15.5 37.5t-37.5 14.5q-23 0 -38.5 -14.5t-15.5 -37.5q0 -21 16 -35.5t38 -14.5z" glyph-name="eight.numr" horiz-adv-x="254"/><glyph d="M67 439l76 100q-5 -4 -20 -4q-34 0 -58.5 24.5t-24.5 60.5t24.5 60t62.5 24t63 -24t25 -60q0 -20 -8.5 -40.5t-14 -28.5t-24.5 -33l-61 -79h-40zM128 565q22 0 37 15.5t15 38.5t-15 38.5t-37 15.5q-23 0 -38.5 -15.5t-15.5 -38.5t16 -38.5t38 -15.5z" glyph-name="nine.numr" horiz-adv-x="255"/><glyph d="M314 736q-15 0 -8 15l53 116q5 12 16 12h45q16 0 9 -16l-55 -115q-5 -12 -16 -12h-44zM629 17q7 -17 -11 -17h-50q-12 0 -16 12l-51 145h-320l-51 -145q-4 -12 -17 -12h-49q-18 0 -11 17l242 671q5 12 18 12h55q14 0 18 -12zM205 224h272l-136 387z" glyph-name="glyph499" horiz-adv-x="650"/><glyph d="M352 879q16 0 9 -16l-55 -115q-5 -12 -16 -12h-43q-16 0 -9 15l54 116q5 12 16 12h44zM100 0q-14 0 -14 14v672q0 14 14 14h335q14 0 14 -14v-39q0 -14 -14 -14h-274v-238h260q14 0 14 -14v-39q0 -14 -14 -14h-260v-261h275q14 0 14 -14v-39q0 -14 -14 -14h-336z" glyph-name="glyph500" horiz-adv-x="505"/><glyph d="M322 736q-16 0 -9 15l54 116q5 12 16 12h44q16 0 9 -16l-55 -115q-5 -12 -16 -12h-43zM569 700q14 0 14 -14v-672q0 -14 -14 -14h-47q-14 0 -14 14v579l-326 -583q-6 -10 -18 -10h-64q-14 0 -14 14v672q0 14 14 14h47q14 0 14 -14v-579l326 583q6 10 18 10h64z" glyph-name="glyph501" horiz-adv-x="654"/><glyph d="M503 879q16 0 9 -16l-55 -115q-5 -12 -16 -12h-44q-15 0 -8 15l53 116q5 12 16 12h45zM424 -13q-151 0 -254.5 104t-103.5 256t103.5 256.5t254.5 104.5t254.5 -104.5t103.5 -256.5t-103.5 -256t-254.5 -104zM424 60q120 0 201 82t81 205t-81 205.5t-201 82.5 q-121 0 -201.5 -82t-80.5 -206q0 -123 80.5 -205t201.5 -82z" glyph-name="glyph502" horiz-adv-x="815"/><glyph d="M310 736q-16 0 -9 15l53 116q5 12 16 12h45q16 0 9 -16l-55 -115q-5 -12 -16 -12h-43zM586 700q9 0 11.5 -5t-2.5 -13l-402 -672q-6 -10 -17 -10h-50q-19 0 -9 18l168 281l-231 383q-5 8 -2.5 13t11.5 5h50q11 0 17 -10l195 -325l194 325q6 10 17 10h50z" glyph-name="glyph503" horiz-adv-x="639"/><glyph d="M481 879q16 0 9 -16l-55 -115q-5 -12 -16 -12h-44q-16 0 -9 15l54 116q5 12 16 12h45zM100 700h47q14 0 14 -14v-251h130q110 0 170 -59.5t60 -157.5t-60 -158t-170 -60h-191q-14 0 -14 14v672q0 14 14 14zM610 0q-14 0 -14 14v672q0 14 14 14h47q14 0 14 -14v-672 q0 -14 -14 -14h-47zM161 368v-301h124q74 0 118.5 36t44.5 115q0 78 -44.5 114t-118.5 36h-124z" glyph-name="glyph504" horiz-adv-x="784"/><glyph d="M339 736q-16 0 -9 15l54 116q5 12 16 12h45q15 0 9 -16l-55 -115q-5 -12 -16 -12h-44zM311 708q153 0 253.5 -104t100.5 -257t-100.5 -256.5t-253.5 -103.5q-136 0 -237 91q-13 13 -3 23l29 32q9 9 21 -1q82 -72 187 -72q112 0 190 71.5t89 183.5h-259q-14 0 -14 14v42 q0 14 14 14h259q-13 110 -90.5 180t-188.5 70q-105 0 -187 -72q-12 -10 -22 0l-28 31q-9 12 3 24q101 90 237 90z" glyph-name="glyph505" horiz-adv-x="688"/><glyph d="M485 736q-16 0 -9 15l54 116q5 12 16 12h44q16 0 9 -16l-55 -115q-5 -12 -16 -12h-43zM608 708q151 0 254.5 -104.5t103.5 -256.5t-103.5 -256t-254.5 -104q-142 0 -243.5 94t-113.5 234h-90v-301q0 -14 -14 -14h-47q-14 0 -14 14v672q0 14 14 14h47q14 0 14 -14v-301h91 q14 139 115 231t241 92zM608 60q121 0 201.5 82t80.5 205q0 124 -80.5 206t-201.5 82t-201.5 -82t-80.5 -206q0 -123 80.5 -205t201.5 -82z" glyph-name="glyph506" horiz-adv-x="999"/><glyph d="M283 736q-16 0 -9 15l54 116q5 12 16 12h44q16 0 9 -16l-55 -115q-5 -12 -16 -12h-43zM479 700q14 0 14 -14v-672q0 -14 -14 -14h-47q-14 0 -14 14v251h-112l-169 -255q-6 -10 -18 -10h-50q-21 0 -10 18l170 252q-83 15 -127 72t-44 140q0 98 60 158t170 60h191zM418 332 v301h-124q-74 0 -118.5 -36t-44.5 -115q0 -78 44.5 -114t118.5 -36h124z" glyph-name="glyph507" horiz-adv-x="561"/><glyph d="M283 526q-16 0 -9 15l54 116q5 12 16 12h45q15 0 8 -16l-54 -115q-5 -12 -16 -12h-44zM538 490q13 0 13 -14v-462q0 -14 -13 -14h-43q-13 0 -13 14l-1 81q-58 -107 -189 -107q-106 0 -173.5 73t-67.5 184t67.5 184t173.5 73q130 0 189 -109l1 83q0 14 13 14h43zM302 55 q79 0 128.5 52t49.5 136q0 85 -49.5 138.5t-128.5 53.5t-130 -53t-51 -137q0 -85 51 -137.5t130 -52.5z" glyph-name="glyph508" horiz-adv-x="592"/><glyph d="M282 556q-14 0 -9 15l54 116q5 12 16 12h45q16 0 9 -16l-55 -115q-5 -12 -16 -12h-44zM526 270q0 -28 -7.5 -39.5t-28.5 -11.5h-369q7 -76 58 -123t137 -47q79 0 141 47q9 7 15 -1l17 -23q7 -10 -4 -21q-66 -63 -175 -63q-117 0 -188 74.5t-71 184.5q0 109 69 182t177 73 q104 0 166.5 -68.5t62.5 -163.5zM296 438q-73 0 -120.5 -44.5t-54.5 -118.5h341q-2 73 -47 118t-119 45z" glyph-name="glyph509" horiz-adv-x="560"/><glyph d="M276 526q-16 0 -9 15l54 116q5 12 16 12h45q16 0 9 -16l-55 -115q-5 -12 -16 -12h-44zM490 490q13 0 13 -14v-462q0 -14 -13 -14h-46q-13 0 -13 14v388l-257 -392q-7 -10 -19 -10h-66q-13 0 -13 14v462q0 14 13 14h46q13 0 13 -14v-395l262 399q7 10 19 10h61z" glyph-name="glyph510" horiz-adv-x="568"/><glyph d="M388 669q16 0 9 -16l-55 -115q-5 -12 -16 -12h-43q-16 0 -9 15l54 116q5 12 16 12h44zM302 -12q-107 0 -179 73.5t-72 183.5t72 183.5t179 73.5t178.5 -74t71.5 -183t-71.5 -183t-178.5 -74zM302 55q78 0 129 53.5t51 136.5t-51 136.5t-129 53.5t-129.5 -53.5 t-51.5 -136.5t51.5 -136.5t129.5 -53.5z" glyph-name="glyph511" horiz-adv-x="586"/><glyph d="M357 669q16 0 9 -16l-55 -115q-5 -12 -16 -12h-44q-16 0 -9 15l54 116q5 12 16 12h45zM177 -190q-17 0 -10 15l69 173l-188 475q-6 17 11 17h46q12 0 16 -12l151 -398l152 398q5 12 16 12h46q17 0 11 -17l-258 -651q-4 -12 -17 -12h-45z" glyph-name="glyph512" horiz-adv-x="525"/><glyph d="M351 526q-16 0 -9 15l54 116q5 12 16 12h44q16 0 9 -16l-55 -115q-5 -12 -16 -12h-43zM328 321q176 0 176 -161q0 -160 -176 -160h-239q-13 0 -13 14v462q0 14 13 14h46q13 0 13 -14v-155h180zM638 490q13 0 13 -14v-462q0 -14 -13 -14h-46q-13 0 -13 14v462q0 14 13 14 h46zM323 61q111 0 111 99q0 100 -111 100h-175v-199h175z" glyph-name="glyph513" horiz-adv-x="733"/><glyph d="M258 526q-16 0 -9 15l54 116q5 12 16 12h45q16 0 9 -16l-55 -115q-5 -12 -16 -12h-44zM241 502q108 0 181.5 -73.5t73.5 -183.5t-73 -183.5t-182 -73.5q-117 0 -185 82q-9 12 -1 20l25 24q11 11 24 -2q53 -57 133 -57q74 0 125.5 44.5t60.5 116.5h-189q-13 0 -13 14v28 q0 14 13 14h189q-8 73 -59.5 118t-125.5 45q-80 0 -134 -58q-12 -12 -23 -1l-25 24q-8 8 1 20q68 82 184 82z" glyph-name="glyph514" horiz-adv-x="525"/><glyph d="M363 526q-14 0 -9 15l54 116q5 12 16 12h45q16 0 9 -16l-55 -115q-5 -12 -16 -12h-44zM478 502q107 0 178.5 -74t71.5 -183t-71.5 -183t-178.5 -74q-99 0 -168.5 64t-80.5 162h-81v-201q0 -14 -13 -14h-46q-13 0 -13 14v462q0 14 13 14h46q13 0 13 -14v-200h81 q10 99 80 163t169 64zM478 55q78 0 129 53.5t51 136.5t-51 136.5t-129 53.5t-129.5 -53.5t-51.5 -136.5t51.5 -136.5t129.5 -53.5z" glyph-name="glyph515" horiz-adv-x="748"/><glyph d="M259 526q-16 0 -9 15l54 116q5 12 16 12h44q16 0 9 -16l-55 -115q-5 -12 -16 -12h-43zM466 490q13 0 13 -14v-462q0 -14 -13 -14h-46q-13 0 -13 14v155h-126l-142 -161q-7 -8 -17 -8h-50q-10 0 -12 5t5 13l137 152q-151 12 -151 160q0 160 176 160h239zM231 230h176v199 h-176q-110 0 -110 -99q0 -100 110 -100z" glyph-name="glyph516" horiz-adv-x="537"/></font>
</defs>
</svg>
